<svg width="240" height="156" viewBox="0 0 240 156" fill="none" xmlns="http://www.w3.org/2000/svg">
<path d="M79.6406 16.2188V21.7812H81.7344V23.4219H79.6406V30.4375L77.6719 30.4375V16.2188H79.6406ZM68.3438 19.9375V18.3438H71.5625V16.4375H73.5625V18.3438H76.7031V19.9375H68.3438ZM68.9219 24.125C68.9141 22.1406 70.4609 20.7266 72.5625 20.7344C74.6328 20.7266 76.1875 22.1406 76.1875 24.125C76.1875 26.1094 74.6328 27.5078 72.5625 27.5156C70.4609 27.5078 68.9141 26.1094 68.9219 24.125ZM70.8281 24.125C70.8281 25.2266 71.5547 25.8828 72.5625 25.875C73.5547 25.8828 74.2812 25.2266 74.2812 24.125C74.2812 23.0312 73.5547 22.3594 72.5625 22.3438C71.5547 22.3594 70.8281 23.0312 70.8281 24.125ZM93.686 16.6563V20.8906H85.7329V22.0781H94.0141V23.6719L83.7172 23.6719V19.3906H91.6391V18.2656H83.6704V16.6563H93.686ZM82.1704 26.3281V24.7344L95.186 24.7344V26.3281H89.6547V30.4688H87.6547V26.3281L82.1704 26.3281ZM106.058 16.9531C109.113 16.9531 111.41 18.5 111.417 20.8438C111.41 22.9922 109.597 24.4297 107.042 24.7109V27.1406H112.589V28.7813L99.5736 28.7813V27.1406H105.058V24.7109C102.519 24.4219 100.714 22.9844 100.714 20.8438C100.714 18.5 103.003 16.9531 106.058 16.9531ZM102.683 20.8438C102.683 22.3438 104.066 23.1797 106.058 23.1875C108.058 23.1797 109.441 22.3438 109.449 20.8438C109.441 19.4219 108.058 18.5391 106.058 18.5469C104.066 18.5391 102.683 19.4219 102.683 20.8438ZM117.385 16.6406C119.549 16.6328 121.174 17.9922 121.181 19.8906C121.174 21.7734 119.549 23.1172 117.385 23.125C115.189 23.1172 113.556 21.7734 113.556 19.8906C113.556 17.9922 115.189 16.6328 117.385 16.6406ZM115.494 19.8906C115.478 20.9063 116.283 21.5078 117.385 21.5156C118.463 21.5078 119.252 20.9063 119.26 19.8906C119.252 18.8672 118.463 18.2656 117.385 18.2656C116.291 18.2656 115.478 18.8672 115.494 19.8906ZM115.697 25.4688V23.9375H125.244V27.7969H117.681V28.7188L125.635 28.7188V30.2813L115.728 30.2813V26.3438H123.26V25.4688H115.697ZM123.244 23.3438V16.2188H125.244V23.3438H123.244ZM138.272 17.3281C138.264 19.0078 139.983 20.8594 143.241 21.2656L142.46 22.875C139.975 22.5156 138.155 21.3672 137.225 19.8281C136.288 21.3594 134.475 22.5156 132.022 22.875L131.225 21.2656C134.46 20.8594 136.171 19.0078 136.179 17.3281V16.6406H138.272V17.3281ZM130.725 25.5781V23.9531L143.694 23.9531V25.5781L138.163 25.5781V30.4375H136.194V25.5781H130.725ZM151.943 21.25V23H157.458V24.5938H144.49V23H149.974V21.25H151.943ZM145.161 20.5469C148.302 20.1484 149.935 18.5234 149.943 16.9219V16.4531H151.974V16.9219C151.966 18.5859 153.56 20.1484 156.771 20.5469L156.005 22.0938C153.599 21.7344 151.833 20.7266 150.935 19.3047C150.029 20.7188 148.263 21.7422 145.865 22.0938L145.161 20.5469ZM145.974 27.9219C145.974 26.3047 147.841 25.3828 150.958 25.375C154.052 25.3828 155.896 26.3047 155.911 27.9219C155.896 29.5391 154.052 30.4453 150.958 30.4375C147.841 30.4453 145.974 29.5391 145.974 27.9219ZM148.005 27.9219C147.997 28.6172 148.966 28.9531 150.958 28.9531C152.904 28.9531 153.904 28.6172 153.911 27.9219C153.904 27.2109 152.904 26.8984 150.958 26.8906C148.966 26.8984 147.997 27.2109 148.005 27.9219ZM171.457 18.125V19.7813L169.535 19.7813V21.1406H171.457V22.7813H169.535V24.8125H167.535V16.2344H169.535V18.125L171.457 18.125ZM158.754 18.6406V17.0781H165.285V21.3125H160.754V22.5625C163.097 22.5469 164.691 22.4609 166.504 22.1406L166.722 23.7344C164.683 24.1172 162.855 24.1875 159.972 24.1875H158.769V19.8125H163.347V18.6406H158.754ZM159.972 27.7656C159.972 26.0547 161.84 25.0313 164.847 25.0313C167.8 25.0313 169.668 26.0547 169.675 27.7656C169.668 29.4453 167.8 30.4219 164.847 30.4219C161.84 30.4219 159.972 29.4453 159.972 27.7656ZM161.941 27.7656C161.925 28.5391 162.949 28.9375 164.847 28.9375C166.722 28.9375 167.707 28.5391 167.707 27.7656C167.707 26.9766 166.722 26.5703 164.847 26.5781C162.949 26.5703 161.925 26.9766 161.941 27.7656Z" fill="#37474F"/>
<path d="M12.25 42H227.75" stroke="#455A64"/>
<g clip-path="url(#clip0_319_7321)">
<path d="M37.3541 86.9022C35.4417 86.9022 33.6417 85.9648 32.5355 84.3898L31.2418 82.543H30.6231C29.6106 82.543 28.7388 81.8774 28.4669 80.9118L26.3951 76.0838C26.367 76.0182 26.3482 75.9526 26.3388 75.8776C26.3107 75.737 26.2638 75.5776 26.217 75.3995C25.992 74.612 25.6545 73.4308 26.4045 72.5683C27.0326 71.6965 28.1669 71.6965 28.6075 71.6965H28.6825V70.0371C28.6825 69.6528 28.9169 69.3153 29.2544 69.1747V68.0309C29.2544 67.5153 29.6762 67.0935 30.1918 67.0935H36.1073C36.6229 67.0935 37.0447 67.5153 37.0447 68.0309V69.0997H39.7353V68.7434C39.7353 68.4059 39.8478 67.8622 40.4853 67.4872V65.8466C39.8478 65.4623 39.7353 64.9185 39.7353 64.5904V63.9717C39.7353 62.6311 40.9165 61.9468 47.3288 61.9468C47.2913 61.8061 47.2819 61.6843 47.2819 61.5718V60.953C47.2819 59.6125 48.4725 58.9281 54.9692 58.9281C61.4659 58.9281 62.6565 59.6125 62.6565 60.953V61.5718C62.6565 61.6749 62.6471 61.8061 62.6096 61.9468H62.769C69.2656 61.9468 70.4562 62.6311 70.4562 63.9717V64.5904C70.4562 64.9279 70.3437 65.4716 69.7062 65.8466V67.4872C70.3437 67.8716 70.4562 68.4153 70.4562 68.7434V68.9965L72.7905 66.6622C72.9593 66.4935 73.1561 66.3529 73.3718 66.2404V61.1593C73.3718 60.0437 74.3748 59.1718 75.6592 59.1718H78.1904C79.2216 59.1718 80.1028 59.7437 80.384 60.5874L82.2309 66.0435C82.8777 66.1654 83.4402 66.5685 83.7683 67.1591C84.162 67.8716 84.1527 68.7247 83.7495 69.3903L79.7934 76.2994C79.7559 76.3744 79.6997 76.4307 79.6434 76.4963L75.1904 80.9962C76.1654 81.9805 76.3342 83.5555 75.9592 84.7367C75.5373 86.0773 74.4967 86.9022 73.2405 86.9022H37.3541Z" fill="#37474F"/>
<path d="M54.9599 59.8749C61.7096 59.8749 61.7097 60.6999 61.7097 60.9624V61.5811C61.7097 61.9468 61.3628 62.1155 60.9597 62.2186V62.9217C61.5315 62.903 62.1315 62.8936 62.7596 62.8936C69.5094 62.8936 69.5094 63.7092 69.5094 63.9811V64.5998C69.5094 64.9654 69.1625 65.1342 68.7594 65.2373V68.1247C69.1625 68.2278 69.5094 68.3966 69.5094 68.7622V69.3809C69.5094 69.7465 69.1625 69.9153 68.7594 70.0184V72.0339L73.4468 67.3372C73.6811 67.1122 73.9811 66.9716 74.2999 66.9528V61.1687C74.2999 60.578 74.8905 60.1187 75.6592 60.1187H78.1904C78.8185 60.1187 79.3435 60.4281 79.5028 60.8968L81.5465 66.9528H81.8184C81.8184 66.9528 81.8465 66.9528 81.8559 66.9528C82.8121 66.9528 83.459 68.0966 82.9527 68.9122L78.9779 75.8494L74.0843 80.7899C73.9811 81.0149 74.0468 81.2962 74.253 81.4368C75.8842 82.5711 75.3592 85.9741 73.2405 85.9741C73.2405 85.9741 73.2218 85.9741 73.2124 85.9741H37.3542C35.7417 85.9741 34.2324 85.1867 33.3043 83.8648L31.8887 81.8399C31.7856 81.6993 31.6262 81.6149 31.4575 81.6149H30.6231C30.0138 81.6149 29.4981 81.2024 29.3481 80.6212L27.2482 75.7276C27.117 75.0245 26.5357 73.7964 27.1357 73.1683C27.4263 72.7277 28.0169 72.6527 28.5982 72.6527C28.8794 72.6527 29.17 72.6714 29.4044 72.6714C29.4794 72.6714 29.545 72.6714 29.6106 72.6714V70.0653H30.1825V68.0591H36.0979V70.0653H40.3728V72.6714H41.404V70.0184C41.0103 69.9059 40.6634 69.7371 40.6634 69.3809V68.7622C40.6634 68.3966 41.0103 68.2278 41.4134 68.1247V65.2373C41.0103 65.1342 40.6634 64.9654 40.6634 64.5998V63.9811C40.6634 63.7092 40.6634 62.8936 47.4132 62.8936C47.9476 62.8936 48.4632 62.8936 48.96 62.9123V62.2186C48.5569 62.1155 48.2101 61.9468 48.2101 61.5811V60.9624C48.2101 60.6905 48.2101 59.8749 54.9599 59.8749ZM54.9599 58C49.1194 58 46.3351 58.4406 46.3351 60.9624V61.0187C41.2259 61.0749 38.7885 61.6186 38.7885 63.9811V64.5998C38.7885 64.8998 38.8635 65.6873 39.5385 66.3247V67.0466C39.1447 67.4216 38.9572 67.8434 38.8635 68.1903H37.9729V68.0591C37.9729 67.0278 37.1292 66.1841 36.0979 66.1841H30.1825C29.1513 66.1841 28.3076 67.0278 28.3076 68.0591V68.7153C27.9513 69.0528 27.7357 69.5309 27.7357 70.0653V70.8434C27.0795 70.9465 26.2451 71.2277 25.6639 72.0152C24.6139 73.2527 25.0639 74.8276 25.3077 75.6807C25.3451 75.8213 25.392 75.9526 25.4108 76.0651C25.4389 76.2057 25.4764 76.3369 25.5326 76.4682L27.5857 81.2493C27.9982 82.5805 29.2263 83.4898 30.6325 83.4898H30.7637L31.7762 84.9429C33.0512 86.7616 35.1417 87.8491 37.3635 87.8491H73.2218C74.928 87.8491 76.3155 86.771 76.8592 85.0273C77.2904 83.6492 77.1123 82.1961 76.4373 81.0899L80.3184 77.1713C80.4309 77.0588 80.5341 76.9275 80.6091 76.7869L84.5652 69.8778C85.137 68.9309 85.1464 67.7216 84.5839 66.7279C84.2089 66.0623 83.6277 65.5654 82.9527 65.3029L81.2653 60.3156C80.8528 59.0875 79.6153 58.2625 78.181 58.2625H75.6498C73.8405 58.2625 72.4156 59.5468 72.4156 61.1874V65.7623C72.3124 65.8466 72.2093 65.931 72.1156 66.0248L70.85 67.2903C70.7844 67.206 70.7094 67.131 70.625 67.056V66.3341C71.3 65.6966 71.375 64.9092 71.375 64.6092V63.9904C71.375 61.5905 68.8532 61.0749 63.5752 61.028V60.9718C63.5752 58.45 60.7909 58.0094 54.9505 58.0094L54.9599 58Z" fill="#37474F"/>
<path d="M57.1346 71.012C56.4503 71.0401 55.7191 71.0589 54.9503 71.0589C54.2754 71.0589 53.6285 71.0495 53.0098 71.0214V72.1745C53.6191 72.1932 54.2754 72.212 54.9503 72.212C55.7191 72.212 56.4503 72.1932 57.1346 72.1651V71.012Z" fill="#009F9A"/>
<path d="M57.144 67.009V65.856C56.4597 65.8841 55.7285 65.9028 54.9597 65.9028C54.2848 65.9028 53.6379 65.8935 53.0192 65.8653V67.0184C53.6285 67.0372 54.2754 67.0559 54.9597 67.0559C55.7285 67.0559 56.4597 67.0372 57.144 67.009Z" fill="#009F9A"/>
<path d="M60.5659 61.8999C61.044 61.8061 61.3159 61.6936 61.3159 61.5717V60.953C61.3159 60.5686 58.466 60.2593 54.9598 60.2593C51.4537 60.2593 48.6038 60.5686 48.6038 60.953V61.5717C48.6038 61.6936 48.8756 61.8061 49.3537 61.8999C50.4225 62.1155 52.5318 62.2655 54.9598 62.2655C57.3879 62.2655 59.4972 62.1155 60.5659 61.8999Z" fill="#009F9A"/>
<path d="M53.7692 69.3715V68.7528C53.7692 68.6309 53.4973 68.5184 53.0192 68.4247V68.5372C51.9505 68.7528 49.8412 68.9028 47.4038 68.9028C44.9664 68.9028 42.8664 68.7528 41.7977 68.5372V68.4247C41.3196 68.5184 41.0477 68.6309 41.0477 68.7528V69.3715C41.0477 69.4934 41.3196 69.6059 41.7977 69.6996C42.8664 69.9153 44.9757 70.0653 47.4038 70.0653C48.0788 70.0653 48.7256 70.0559 49.335 70.0278C50.9193 69.9715 52.2411 69.8496 53.0192 69.6903C53.4973 69.5965 53.7692 69.484 53.7692 69.3622V69.3715Z" fill="#009F9A"/>
<path d="M67.8969 73.0558C68.0657 73.0558 68.2157 72.9995 68.3657 72.9058V69.6996C67.2969 69.9152 65.1876 70.0652 62.7596 70.0652C61.9909 70.0652 61.2596 70.0465 60.5753 70.0184C59.1034 69.9527 57.8847 69.8402 57.1535 69.6902C56.6754 69.5965 56.4035 69.484 56.4035 69.3621V68.7434C56.4035 68.6215 56.6754 68.509 57.1535 68.4153V68.5278C58.2222 68.7434 60.3315 68.8934 62.769 68.8934C65.2064 68.8934 67.3063 68.7434 68.3844 68.5278V64.8998C67.3157 65.1154 65.2064 65.2654 62.769 65.2654C60.3315 65.2654 58.2316 65.1154 57.1535 64.8998C56.6754 64.806 56.4035 64.6935 56.4035 64.5716V63.9529C56.4035 63.6529 58.1472 63.3998 60.5753 63.2967V61.8811C59.5066 62.0967 57.3972 62.2467 54.9692 62.2467C52.5411 62.2467 50.4318 62.0967 49.3631 61.8811V63.2873C51.9224 63.3811 53.788 63.6435 53.788 63.9529V64.5716C53.788 64.6935 53.5161 64.806 53.038 64.8998C51.9693 65.1154 49.86 65.2654 47.4226 65.2654C44.9851 65.2654 42.8852 65.1154 41.8165 64.8998V68.5278C42.8852 68.7434 44.9945 68.8934 47.4226 68.8934C49.8506 68.8934 51.9599 68.7434 53.038 68.5278V68.4153C53.5161 68.509 53.788 68.6215 53.788 68.7434V69.3621C53.788 69.484 53.5161 69.5965 53.038 69.6902C52.2693 69.8496 50.9475 69.9715 49.3537 70.0277C48.7444 70.0465 48.0975 70.0652 47.4132 70.0652C44.9851 70.0652 42.8758 69.9152 41.7977 69.6996V73.0558H67.8969ZM54.9598 72.212C54.2848 72.212 53.6286 72.2027 53.0193 72.1745V71.0214C53.6286 71.0402 54.2755 71.0589 54.9598 71.0589C55.7285 71.0589 56.4598 71.0402 57.1441 71.0121V72.1652C56.4598 72.1933 55.7285 72.212 54.9598 72.212ZM53.0193 67.0184V65.856C53.6286 65.8747 54.2755 65.8935 54.9598 65.8935C55.7285 65.8935 56.4598 65.8747 57.1441 65.8466V66.9997C56.4598 67.0278 55.7285 67.0466 54.9504 67.0466C54.2755 67.0466 53.6286 67.0372 53.0193 67.0091V67.0184Z" fill="#008C85"/>
<path d="M53.0192 64.9185C53.4973 64.8248 53.7692 64.7123 53.7692 64.5904V63.9717C53.7692 63.6623 51.913 63.3998 49.3443 63.3061C48.735 63.2873 48.0788 63.2686 47.4038 63.2686C43.8883 63.2686 41.0477 63.5779 41.0477 63.9623V64.581C41.0477 64.7029 41.3196 64.8154 41.7977 64.9091C42.8664 65.1247 44.9757 65.2747 47.4038 65.2747C49.8318 65.2747 51.9411 65.1247 53.0192 64.9091V64.9185Z" fill="#009F9A"/>
<path d="M62.7502 68.9121C60.3221 68.9121 58.2128 68.7621 57.1347 68.5465V68.434C56.6566 68.5278 56.3848 68.6403 56.3848 68.7621V69.3809C56.3848 69.5027 56.6566 69.6152 57.1347 69.709C57.866 69.859 59.0847 69.9715 60.5565 70.0371C61.2409 70.0652 61.9721 70.084 62.7502 70.084C65.1782 70.084 67.2876 69.934 68.3656 69.7184C68.8438 69.6246 69.1156 69.5121 69.1156 69.3902V68.7715C69.1156 68.6496 68.8438 68.5371 68.3656 68.4434V68.5559C67.2969 68.7715 65.1876 68.9215 62.7502 68.9215V68.9121Z" fill="#009F9A"/>
<path d="M56.3942 63.9716V64.5904C56.3942 64.7122 56.666 64.8247 57.1441 64.9185C58.2129 65.1341 60.3222 65.2841 62.7596 65.2841C65.197 65.2841 67.297 65.1341 68.375 64.9185C68.8532 64.8247 69.125 64.7122 69.125 64.5904V63.9716C69.125 63.5873 66.2751 63.2779 62.769 63.2779C62.0002 63.2779 61.269 63.2966 60.5847 63.3248C58.1472 63.4185 56.4129 63.681 56.4129 63.981L56.3942 63.9716Z" fill="#009F9A"/>
<path d="M27.6136 75.5682L29.7323 80.518C29.8355 80.9305 30.2011 81.2211 30.6229 81.2211H31.4573C31.7573 81.2211 32.0385 81.3711 32.2073 81.6149L33.6228 83.6398C34.4759 84.8585 35.8634 85.5804 37.354 85.5804H73.2122C75.0215 85.5804 75.2934 82.6367 74.0278 81.7555C73.6435 81.4836 73.531 80.9586 73.7653 80.5555L78.6964 75.5776H27.6136V75.5682Z" fill="#F77152"/>
<path d="M81.8089 67.3372H74.3748C74.131 67.3372 73.8967 67.4309 73.7279 67.6091L68.5531 72.7839C68.4968 72.8401 68.4312 72.8683 68.3656 72.9058C68.225 72.9901 68.0656 73.0558 67.8969 73.0558H28.1668C27.5669 73.0558 27.1356 73.6182 27.2762 74.1901L27.3137 74.3307L27.6137 75.5588H78.6965L79.3996 74.3307L82.6058 68.7059C82.9526 68.0965 82.512 67.3278 81.8089 67.3278V67.3372Z" fill="#4F4543"/>
<path d="M79.1184 61.0186C79.0153 60.7186 78.631 60.5124 78.181 60.5124H75.6498C75.1154 60.5124 74.6842 60.803 74.6842 61.1686V67.3466H81.2559L79.1184 61.028V61.0186Z" fill="#DDDDDD"/>
<path d="M39.9696 70.4402H35.6947V68.434H30.5667V70.4402H29.9949V73.0558H39.9696V70.4402Z" fill="#DDDDDD"/>
</g>
<path d="M22.1319 107.188V108.24H10.962V107.188H15.8975L15.8975 105.779H17.1827V107.188H22.1319ZM11.5499 105.383C13.9766 105.185 15.6582 104.296 15.8155 103.113H12.0831V102.074H15.8975V100.898H17.1827V102.074H21.0108V103.113H17.2647C17.4082 104.296 19.0967 105.185 21.5303 105.383L21.1338 106.381C19.0147 106.183 17.2989 105.472 16.5401 104.33C15.7745 105.472 14.0655 106.183 11.96 106.381L11.5499 105.383ZM12.2881 111.098C12.2881 109.771 13.8604 109.047 16.5401 109.047C19.2061 109.047 20.7579 109.771 20.7647 111.098C20.7579 112.424 19.2061 113.142 16.5401 113.135C13.8604 113.142 12.2881 112.424 12.2881 111.098ZM13.6006 111.098C13.5938 111.795 14.6465 112.164 16.5401 112.15C18.4063 112.164 19.4659 111.795 19.4659 111.098C19.4659 110.4 18.4063 110.018 16.5401 110.018C14.6465 110.018 13.5938 110.4 13.6006 111.098ZM26.7914 112V110.906L30.223 107.447C31.3099 106.319 31.85 105.69 31.85 104.822C31.85 103.845 31.057 103.223 30.0179 103.223C28.9173 103.223 28.2201 103.92 28.2132 104.973H26.7914C26.7777 103.161 28.1586 101.965 30.0453 101.965C31.9525 101.965 33.2718 103.175 33.2855 104.781C33.2718 105.889 32.7523 106.771 30.8929 108.596L28.8832 110.633V110.715H33.4496V112H26.7914ZM38.5069 112.137C36.2168 112.137 34.8701 110.291 34.8701 107.051C34.8701 103.831 36.2305 101.965 38.5069 101.965C40.7764 101.965 42.1367 103.831 42.1436 107.051C42.1367 110.291 40.7969 112.137 38.5069 112.137ZM36.374 107.051C36.3672 109.519 37.167 110.838 38.5069 110.838C39.8399 110.838 40.6397 109.519 40.6397 107.051C40.6397 104.59 39.833 103.243 38.5069 103.236C37.1738 103.243 36.374 104.59 36.374 107.051ZM47.0915 112.137C44.8014 112.137 43.4548 110.291 43.4548 107.051C43.4548 103.831 44.8151 101.965 47.0915 101.965C49.361 101.965 50.7214 103.831 50.7282 107.051C50.7214 110.291 49.3815 112.137 47.0915 112.137ZM44.9587 107.051C44.9518 109.519 45.7516 110.838 47.0915 110.838C48.4245 110.838 49.2243 109.519 49.2243 107.051C49.2243 104.59 48.4176 103.243 47.0915 103.236C45.7585 103.243 44.9587 104.59 44.9587 107.051ZM55.6761 112.137C53.3861 112.137 52.0394 110.291 52.0394 107.051C52.0394 103.831 53.3997 101.965 55.6761 101.965C57.9456 101.965 59.306 103.831 59.3128 107.051C59.306 110.291 57.9661 112.137 55.6761 112.137ZM53.5433 107.051C53.5365 109.519 54.3363 110.838 55.6761 110.838C57.0091 110.838 57.8089 109.519 57.8089 107.051C57.8089 104.59 57.0023 103.243 55.6761 103.236C54.3431 103.243 53.5433 104.59 53.5433 107.051ZM66.5986 101.992V107.707H60.8701V101.992H66.5986ZM62.1416 106.682H65.3271V103.045H62.1416V106.682ZM62.251 112.902V109.02H63.5498V111.85H70.5361V112.902H62.251ZM68.7178 109.881V100.898H70.0166V104.563H71.7939V105.656H70.0166V109.881H68.7178ZM77.4378 102.047V104.973H79.7757V102.047H80.9788V110.141H76.2073V102.047H77.4378ZM77.4378 109.088H79.7757V105.998H77.4378V109.088ZM82.346 112.561V101.145H83.5765V105.711H85.094V100.912H86.3382V113.162H85.094V106.777H83.5765V112.561H82.346ZM93.8154 101.5V104.631H89.6318V105.93C91.6416 105.916 93.0771 105.868 94.7861 105.588L94.8818 106.6C93.0361 106.894 91.5185 106.948 89.3037 106.941H88.3466V103.688H92.5302V102.498H88.333V101.5H93.8154ZM89.9599 108.883V107.898H98.0537V110.893H91.2724V112.014H98.4912V113.039H89.9736V109.949H96.7685V108.883H89.9599ZM94.5537 104.385V103.318H96.7548V100.912H98.0537V107.338H96.7548V104.385H94.5537ZM22.8347 127.227C22.8483 124.649 23.5798 122.51 24.8581 120.678H26.198C25.2546 122.031 24.3522 124.786 24.3522 127.227C24.3522 129.674 25.2546 132.429 26.198 133.789H24.8581C23.5798 131.95 22.8483 129.811 22.8347 127.227ZM30.9818 131.137C28.931 131.137 27.475 130.036 27.4134 128.416H28.9447C28.9994 129.284 29.8607 129.838 30.9681 129.838C32.1644 129.838 33.0326 129.188 33.0326 128.225C33.0326 127.247 32.2191 126.55 30.8041 126.543H29.9564V125.312H30.8041C31.932 125.319 32.7181 124.69 32.7181 123.74C32.7181 122.838 32.0414 122.223 30.9955 122.223C30.0043 122.223 29.1156 122.776 29.0814 123.672H27.6322C27.6732 122.059 29.1634 120.965 31.0091 120.965C32.9574 120.965 34.181 122.195 34.1673 123.658C34.181 124.786 33.4837 125.593 32.4173 125.859V125.928C33.7709 126.119 34.557 127.028 34.5502 128.279C34.557 129.927 33.0326 131.137 30.9818 131.137ZM39.5938 131.137C37.3037 131.137 35.957 129.291 35.957 126.051C35.957 122.831 37.3174 120.965 39.5938 120.965C41.8633 120.965 43.2236 122.831 43.2305 126.051C43.2236 129.291 41.8838 131.137 39.5938 131.137ZM37.461 126.051C37.4541 128.519 38.2539 129.838 39.5938 129.838C40.9268 129.838 41.7266 128.519 41.7266 126.051C41.7266 123.59 40.9199 122.243 39.5938 122.236C38.2608 122.243 37.461 123.59 37.461 126.051ZM54.5221 127.787V132.176H53.2233V128.826H46.2233V127.787H54.5221ZM44.487 123.549C44.4801 121.819 45.8542 120.589 47.6999 120.596C49.3268 120.589 50.5846 121.573 50.8376 123.016H53.2233L53.2233 119.912H54.5221L54.5221 127.131H53.2233V124.082H50.8376C50.5846 125.538 49.3268 126.522 47.6999 126.516C45.8542 126.522 44.4801 125.292 44.487 123.549ZM45.7311 123.549C45.7243 124.67 46.5719 125.415 47.6999 125.422C48.8005 125.415 49.6413 124.67 49.6413 123.549C49.6413 122.455 48.8005 121.696 47.6999 121.689C46.5719 121.696 45.7243 122.455 45.7311 123.549ZM69.8867 119.912V132.189H68.5879V119.912H69.8867ZM60.3984 122.072V121.02L66.1406 121.02V125.49L61.7383 125.49V128.17C63.7275 128.163 65.457 128.067 67.5078 127.732L67.6308 128.799C65.4639 129.161 63.6181 129.243 61.4512 129.25H60.4121V124.451H64.8144V122.072H60.3984ZM81.9713 119.912V132.189H80.6862V125.504H78.2526V124.438H80.6862V119.912H81.9713ZM72.319 129.291V121.006H78.0475V122.059H73.6315V124.438H77.528V125.477H73.6315V128.211C75.6823 128.211 77.1041 128.149 78.7311 127.869L78.8678 128.922C77.0836 129.209 75.5455 129.284 73.276 129.291H72.319ZM87.1653 127.227C87.1517 129.811 86.4202 131.95 85.1419 133.789H83.802C84.7454 132.429 85.6478 129.674 85.6478 127.227C85.6478 124.786 84.7454 122.031 83.802 120.678H85.1419C86.4202 122.51 87.1517 124.649 87.1653 127.227Z" fill="#37474F"/>
<path d="M126.989 92.8177H113.011C112.453 92.8177 112 93.3024 112 93.9003V93.9174C112 94.5153 112.453 95 113.011 95H126.989C127.547 95 128 94.5153 128 93.9174V93.9003C128 93.3024 127.547 92.8177 126.989 92.8177Z" fill="#37474F"/>
<path d="M126.989 99H113.011C112.453 99 112 99.4847 112 100.083V100.1C112 100.698 112.453 101.182 113.011 101.182H126.989C127.547 101.182 128 100.698 128 100.1V100.083C128 99.4847 127.547 99 126.989 99Z" fill="#37474F"/>
<g clip-path="url(#clip1_319_7321)">
<path d="M165.317 86.9937C160.175 86.9937 155.993 83.9059 155.993 80.1177V75.9053C155.983 75.4811 156.152 75.047 156.479 74.7116C156.875 74.3071 157.44 74.0802 158.044 74.0802C158.094 74.0802 158.341 74.0802 158.341 74.0802C160.274 74.0802 161.304 74.534 162.206 74.9286C162.969 75.264 163.623 75.5501 164.891 75.5698C165.981 75.5698 166.705 75.2739 167.537 74.9286C168.498 74.534 169.578 74.0802 171.263 74.0802C171.372 74.0802 171.49 74.0802 171.609 74.0802H171.768C173.69 74.0802 174.721 74.5241 175.622 74.9286C176.385 75.264 177.039 75.5501 178.298 75.5698C179.437 75.5698 179.863 75.3824 180.646 75.0273C181.459 74.6129 182.896 74.1493 184.511 74.0802V65.4975C184.402 63.4949 185.967 62.025 187.216 60.8411C187.563 60.5156 187.899 60.1999 188.177 59.8941C188.811 59.2824 189.515 58.9766 190.268 58.9766C191.437 58.9766 192.547 59.7264 193.022 60.8411C193.488 61.9263 193.25 63.1003 192.398 63.9881L192.19 64.1953H194.618C195.034 62.8142 196.183 61.7389 197.134 60.8411C197.481 60.5156 197.818 60.1999 198.096 59.8941C198.69 59.2923 199.433 58.9865 200.216 58.9865C201.435 58.9865 202.485 59.7165 202.931 60.851C203.387 61.9855 203.129 63.2285 202.277 64.0276L200.325 65.9809V74.2282C201.296 74.3959 201.94 74.6721 202.574 74.9483C202.991 75.1259 203.377 75.2936 203.882 75.4416C204.17 75.5205 204.566 75.5698 205.002 75.5698C205.943 75.5698 206.845 75.3725 207.172 75.1752C207.202 75.1555 207.232 75.1358 207.271 75.1259C208.381 74.6327 209.61 74.0802 211.829 74.0802H211.978C213.107 74.0802 213.999 74.8793 213.999 75.9053V80.1177C213.999 83.9059 209.818 86.9937 204.675 86.9937H165.317Z" fill="#37474F"/>
<path d="M190.268 59.973C191.774 59.973 193.052 61.9066 191.685 63.3173L189.812 65.1917H195.45C195.519 63.2581 197.679 61.8573 198.849 60.5551C199.215 60.1901 199.711 59.9829 200.236 59.9829C200.256 59.9829 200.276 59.9829 200.295 59.9829C201.95 59.9829 202.842 62.173 201.623 63.3173L199.354 65.5863V75.1062C201.455 75.2739 202.049 75.9448 203.625 76.3887C204.021 76.5071 204.507 76.5564 205.022 76.5564C206.042 76.5564 207.142 76.3492 207.697 76.0237C208.767 75.5501 209.828 75.0668 211.849 75.0668C211.899 75.0668 211.948 75.0668 211.988 75.0668C212.572 75.0668 213.028 75.4318 213.028 75.9053V80.1177C213.028 83.3634 209.293 86.0072 204.695 86.0072H165.317C160.72 86.0072 156.984 83.3634 156.984 80.1177V75.9053C156.974 75.4219 157.499 75.0668 158.054 75.0668C158.094 75.0668 158.123 75.0668 158.163 75.0668C158.223 75.0668 158.282 75.0668 158.341 75.0668C161.671 75.0668 161.839 76.4972 164.871 76.5564H164.881C167.527 76.5564 168.359 75.0569 171.263 75.0569C171.362 75.0569 171.471 75.0569 171.58 75.0569C171.649 75.0569 171.708 75.0569 171.768 75.0569C175.087 75.0569 175.266 76.4972 178.288 76.5465C179.655 76.5465 180.24 76.2802 181.062 75.925C181.835 75.5304 183.292 75.0569 184.927 75.0569C185.125 75.0569 185.313 75.0569 185.511 75.0766V65.4975C185.402 63.3963 187.681 61.9362 188.92 60.5551C189.346 60.1407 189.822 59.973 190.268 59.973ZM190.268 58C189.267 58 188.296 58.4045 187.533 59.1444C187.503 59.174 187.463 59.2134 187.434 59.243C187.196 59.5094 186.869 59.8152 186.532 60.1309C185.204 61.3838 183.391 63.0904 183.52 65.606C183.52 65.7047 183.51 65.8034 183.51 65.9119V66.997V70.292V73.1825C182.152 73.3601 180.963 73.7646 180.19 74.1493C179.507 74.4551 179.199 74.5834 178.278 74.5834C177.257 74.5636 176.732 74.3367 176.019 74.021C175.077 73.6067 173.898 73.0937 171.758 73.0937H171.599C171.481 73.0937 171.372 73.0937 171.263 73.0937C169.38 73.0937 168.151 73.6067 167.15 74.021C166.358 74.3565 165.773 74.5932 164.881 74.5932C163.841 74.5735 163.326 74.3466 162.602 74.0309C161.661 73.6166 160.482 73.1036 158.341 73.1036H158.213C158.153 73.1036 158.104 73.1036 158.044 73.1036C157.172 73.1036 156.34 73.439 155.765 74.0408C155.25 74.5735 154.972 75.2641 155.002 75.9842H155.032C155.012 76.1717 155.002 76.369 155.002 76.586V78.0362V80.1375C155.002 84.5472 159.53 88 165.317 88H204.685C210.472 88 215 84.5472 215 80.1375V75.925C215 74.3466 213.672 73.1134 211.978 73.1134H211.839C209.411 73.1134 208.024 73.735 206.905 74.2282C206.835 74.2578 206.736 74.3071 206.677 74.3466C206.518 74.4255 205.824 74.6031 205.012 74.6031C204.507 74.6031 204.239 74.534 204.17 74.5143C203.724 74.3861 203.377 74.2381 202.981 74.0704C202.505 73.8632 201.99 73.6462 201.336 73.4686V66.4249L203.01 64.7576C204.14 63.6823 204.477 62.025 203.882 60.5255C203.278 59.0161 201.871 58.0395 200.295 58.0395H200.236C199.186 58.0395 198.195 58.4538 197.451 59.1937C197.422 59.2233 197.402 59.2529 197.372 59.2825C197.134 59.5488 196.817 59.8547 196.471 60.1703C195.708 60.8806 194.776 61.7586 194.152 62.8635C194.34 62.0842 194.271 61.2654 193.944 60.5058C193.31 59.026 191.833 58.0395 190.278 58.0395L190.268 58Z" fill="#37474F"/>
<path d="M201.346 60.8215C200.732 60.2 199.721 60.2 199.106 60.8215L196.778 63.1497C196.154 63.7712 195.797 64.6294 195.797 65.5074V65.5666H189.039V65.5074C189.039 65.5074 189.059 65.4186 189.089 65.3891L191.417 63.0609C192.032 62.4394 192.032 61.443 191.417 60.8215C190.803 60.2 189.792 60.2 189.178 60.8215L186.849 63.1497C186.215 63.781 185.868 64.6196 185.868 65.5074V77.5035C185.868 78.3815 186.582 79.0918 187.454 79.0918C188.326 79.0918 189.039 78.3815 189.039 77.5035V74.9287H195.797V77.5035C195.797 78.3815 196.51 79.0918 197.382 79.0918C198.254 79.0918 198.968 78.3815 198.968 77.5035V65.5074C198.968 65.5074 198.988 65.4186 199.017 65.3891L201.346 63.0609C201.96 62.4394 201.96 61.443 201.346 60.8215ZM195.797 71.762H189.039V68.7333H195.797V71.762Z" fill="#DDDDDD"/>
<path d="M211.968 75.4416H211.829C209.917 75.4416 208.926 75.8856 208.044 76.2703L207.816 76.369C207.113 76.6748 206.429 76.9313 205.121 76.9313C204.497 76.9313 203.981 76.8721 203.516 76.7537C203.02 76.6353 202.644 76.4676 202.198 76.2703C201.316 75.8856 200.325 75.4416 198.413 75.4416C196.5 75.4416 195.499 75.8856 194.628 76.2703C193.805 76.6353 193.151 76.9313 191.704 76.9313C190.258 76.9313 189.614 76.6452 188.781 76.2703C187.899 75.8757 186.909 75.4416 184.996 75.4416C183.084 75.4416 182.083 75.8856 181.211 76.2703C180.389 76.6353 179.735 76.9313 178.288 76.9313C176.841 76.9313 176.197 76.6452 175.375 76.2802C174.493 75.8856 173.502 75.4515 171.58 75.4515C169.984 75.4515 169.013 75.7672 168.28 76.073C168.121 76.1421 167.973 76.2012 167.824 76.2703H167.794C167.358 76.4775 166.982 76.6452 166.487 76.7636C166.021 76.8819 165.496 76.9313 164.881 76.9313C163.573 76.9313 162.88 76.6748 162.176 76.369L161.958 76.2703C161.076 75.8757 160.085 75.4318 158.163 75.4318H158.024C157.658 75.4318 157.351 75.6389 157.351 75.8954V80.1079C157.351 83.1562 160.928 85.6324 165.317 85.6324H204.685C209.075 85.6324 212.652 83.1562 212.652 80.1079V75.8954C212.652 75.6389 212.354 75.4318 211.978 75.4318L211.968 75.4416Z" fill="#6EAAEA"/>
</g>
<path d="M151.508 101.049C154.27 101.049 155.883 101.801 155.883 103.154C155.883 104.419 154.509 105.157 152.124 105.26V106.121H157.1V107.16H145.93V106.121H150.852V105.26C148.494 105.144 147.133 104.412 147.133 103.154C147.133 101.801 148.747 101.049 151.508 101.049ZM151.508 102.02C149.553 102.033 148.473 102.43 148.487 103.154C148.473 103.92 149.553 104.303 151.508 104.303C153.464 104.303 154.544 103.92 154.544 103.154C154.544 102.43 153.464 102.033 151.508 102.02ZM155.692 108.076V110.947H148.555V112.041H156.034V113.039H147.284V110.018H154.407V109.061H147.27V108.076H155.692ZM168.132 100.926V108.186H166.833V100.926H168.132ZM164.222 101.65V105.096H159.888V106.572C162.028 106.579 163.607 106.504 165.466 106.203L165.63 107.27C163.634 107.584 161.952 107.652 159.642 107.639H158.617V104.084H162.937V102.689H158.589V101.65H164.222ZM168.132 108.801V113.012H160.079V108.801H168.132ZM161.365 109.84V111.959H166.861V109.84H161.365ZM177.209 101.869V102.936H176.033V106.463C176.628 106.422 177.209 106.374 177.77 106.312L177.852 107.27C175.35 107.652 172.506 107.693 170.373 107.693L170.223 106.613C170.688 106.613 171.187 106.613 171.713 106.6V102.936H170.551V101.869H177.209ZM180.176 108.924V113.162H178.877V109.977H171.877V108.924H180.176ZM180.176 100.912V108.363H178.877V100.912H180.176ZM172.957 106.586C173.559 106.579 174.174 106.559 174.789 106.531V102.936H172.957V106.586ZM191.699 101.992C191.685 103.619 193.681 105.15 196.087 105.465L195.581 106.531C193.578 106.21 191.815 105.171 191.029 103.729C190.222 105.178 188.465 106.21 186.476 106.531L185.956 105.465C188.363 105.15 190.331 103.633 190.345 101.992V101.322L191.699 101.322V101.992ZM196.593 107.734V108.801L191.617 108.801V113.162H190.345V108.801H185.423V107.734L196.593 107.734ZM200.857 101.623C201.876 101.616 202.744 101.999 203.318 102.635H206.381V100.912H207.68V108.145H206.381V106.49H203.305C202.737 107.119 201.869 107.495 200.857 107.488C199.012 107.502 197.645 106.271 197.645 104.563C197.645 102.84 199.012 101.609 200.857 101.623ZM200.857 102.744C199.709 102.73 198.889 103.469 198.889 104.563C198.889 105.629 199.709 106.395 200.857 106.381C201.979 106.395 202.799 105.629 202.799 104.563C202.799 103.469 201.979 102.73 200.857 102.744ZM203.578 108.418C206.121 108.418 207.721 109.279 207.721 110.783C207.721 112.273 206.121 113.148 203.578 113.135C201.021 113.148 199.422 112.273 199.436 110.783C199.422 109.279 201.021 108.418 203.578 108.418ZM203.578 109.416C201.787 109.416 200.693 109.908 200.707 110.783C200.693 111.631 201.787 112.109 203.578 112.109C205.383 112.109 206.449 111.631 206.449 110.783C206.449 109.908 205.383 109.416 203.578 109.416ZM203.906 103.674C203.995 103.947 204.043 104.248 204.043 104.563C204.043 104.863 203.995 105.157 203.92 105.424H206.381V103.674H203.906ZM213.79 103.168C213.79 104.727 214.87 106.148 216.729 106.736L216.114 107.748C214.719 107.304 213.701 106.381 213.161 105.219C212.628 106.559 211.554 107.618 210.085 108.131L209.415 107.092C211.329 106.463 212.477 104.877 212.491 103.182V102.84H209.798V101.787H216.428V102.84H213.79V103.168ZM219.135 100.912V103.947H220.913V105.014H219.135V108.268H217.837V100.912H219.135ZM215.184 108.568C217.714 108.568 219.245 109.402 219.245 110.838C219.245 112.287 217.714 113.148 215.184 113.135C212.628 113.148 211.069 112.287 211.069 110.838C211.069 109.402 212.628 108.568 215.184 108.568ZM215.184 109.594C213.407 109.594 212.354 110.045 212.368 110.838C212.354 111.658 213.407 112.109 215.184 112.109C216.948 112.109 217.973 111.658 217.973 110.838C217.973 110.045 216.948 109.594 215.184 109.594ZM167.55 121.102V131H166.033V122.605H165.978L163.613 124.15V122.715L166.074 121.102H167.55ZM173.524 131.137C171.473 131.137 170.01 130.029 169.955 128.416H171.487C171.541 129.291 172.403 129.838 173.51 129.838C174.7 129.838 175.575 129.182 175.575 128.225C175.575 127.254 174.754 126.543 173.346 126.543H172.498V125.312H173.346C174.467 125.312 175.26 124.684 175.26 123.74C175.26 122.838 174.59 122.223 173.537 122.223C172.539 122.223 171.664 122.77 171.623 123.672H170.174C170.215 122.059 171.705 120.965 173.551 120.965C175.493 120.965 176.723 122.195 176.709 123.658C176.723 124.779 176.026 125.6 174.959 125.859V125.928C176.313 126.119 177.092 127.021 177.092 128.279C177.092 129.934 175.575 131.137 173.524 131.137ZM182.136 131.137C179.839 131.137 178.499 129.291 178.499 126.051C178.499 122.838 179.866 120.965 182.136 120.965C184.405 120.965 185.772 122.838 185.772 126.051C185.772 129.291 184.419 131.137 182.136 131.137ZM182.136 129.838C183.476 129.838 184.269 128.525 184.269 126.051C184.269 123.59 183.462 122.236 182.136 122.236C180.81 122.236 180.003 123.59 180.003 126.051C180.003 128.525 180.796 129.838 182.136 129.838ZM190.72 131.137C188.423 131.137 187.084 129.291 187.084 126.051C187.084 122.838 188.451 120.965 190.72 120.965C192.99 120.965 194.357 122.838 194.357 126.051C194.357 129.291 193.004 131.137 190.72 131.137ZM190.72 129.838C192.06 129.838 192.853 128.525 192.853 126.051C192.853 123.59 192.047 122.236 190.72 122.236C189.394 122.236 188.588 123.59 188.588 126.051C188.588 128.525 189.381 129.838 190.72 129.838ZM205.922 119.912V132.162H204.678V125.805H203.16V131.574H201.944V120.24H203.16V124.752H204.678V119.912H205.922ZM200.727 121.471C200.713 124.697 199.647 127.582 196.147 129.564L195.395 128.662C198.116 127.124 199.264 125.039 199.469 122.537H195.914V121.471L200.727 121.471Z" fill="#37474F"/>
<defs>
<clipPath id="clip0_319_7321">
<rect width="60" height="30" fill="white" transform="translate(25 58)"/>
</clipPath>
<clipPath id="clip1_319_7321">
<rect width="60" height="30" fill="white" transform="translate(155 58)"/>
</clipPath>
</defs>
</svg>
