<svg width="375" height="220" viewBox="0 0 375 220" fill="none" xmlns="http://www.w3.org/2000/svg">
<path d="M180.498 158.021C177.324 143.223 177.217 127.802 177.123 114.196C177.044 102.576 176.974 92.5435 175.19 84.2274C174.112 79.2007 172.483 75.2361 170.213 72.11C167.862 68.873 164.882 66.5918 161.105 65.1382L161.097 65.135L161.089 65.1318L161.062 65.1223L161.049 65.1176L161.036 65.1128C159.007 64.3741 156.754 64 154.336 64C150.625 64 146.444 64.8957 142.241 66.5918C138.839 67.9646 135.469 69.8558 132.998 71.7803C130.706 73.5652 128.411 75.3597 126.189 77.0955L126.087 77.1764C109.938 89.8058 94.6833 101.733 78.0195 112.218L76 113.489L77.2773 115.499L78.9798 118.18L80.2571 120.19L82.2766 118.918C99.2861 108.215 114.695 96.1673 131.008 83.411L131.174 83.2811C133.37 81.5627 135.643 79.7872 137.908 78.0229C141.799 74.9919 148.687 71.9245 154.325 71.9245C155.798 71.9245 157.126 72.1338 158.271 72.5443C168.904 76.6691 169.019 93.2537 169.163 114.247C169.261 128.233 169.369 144.085 172.713 159.674L173.212 162L175.548 161.504L178.664 160.843L181 160.347L180.501 158.021H180.498Z" fill="url(#paint0_radial_416_19749)"/>
<g clip-path="url(#clip0_416_19749)">
<path d="M140.354 77.9022C138.442 77.9022 136.642 76.9648 135.535 75.3898L134.242 73.543H133.623C132.61 73.543 131.739 72.8774 131.467 71.9118L129.395 67.0838C129.367 67.0182 129.348 66.9526 129.339 66.8776C129.311 66.737 129.264 66.5776 129.217 66.3995C128.992 65.612 128.654 64.4308 129.404 63.5683C130.032 62.6965 131.167 62.6965 131.607 62.6965H131.682V61.0371C131.682 60.6528 131.917 60.3153 132.254 60.1747V59.0309C132.254 58.5153 132.676 58.0935 133.192 58.0935H139.107C139.623 58.0935 140.045 58.5153 140.045 59.0309V60.0997H142.735V59.7434C142.735 59.4059 142.848 58.8622 143.485 58.4872V56.8466C142.848 56.4623 142.735 55.9185 142.735 55.5904V54.9717C142.735 53.6311 143.916 52.9468 150.329 52.9468C150.291 52.8061 150.282 52.6843 150.282 52.5718V51.953C150.282 50.6125 151.472 49.9281 157.969 49.9281C164.466 49.9281 165.656 50.6125 165.656 51.953V52.5718C165.656 52.6749 165.647 52.8061 165.609 52.9468H165.769C172.266 52.9468 173.456 53.6311 173.456 54.9717V55.5904C173.456 55.9279 173.344 56.4716 172.706 56.8466V58.4872C173.344 58.8716 173.456 59.4153 173.456 59.7434V59.9965L175.79 57.6622C175.959 57.4935 176.156 57.3529 176.372 57.2404V52.1593C176.372 51.0437 177.375 50.1718 178.659 50.1718H181.19C182.221 50.1718 183.103 50.7437 183.384 51.5874L185.231 57.0435C185.878 57.1654 186.44 57.5685 186.768 58.1591C187.162 58.8716 187.153 59.7247 186.749 60.3903L182.793 67.2994C182.756 67.3744 182.7 67.4307 182.643 67.4963L178.19 71.9962C179.165 72.9805 179.334 74.5555 178.959 75.7367C178.537 77.0773 177.497 77.9022 176.24 77.9022H140.354Z" fill="#37474F"/>
<path d="M157.96 50.8749C164.71 50.8749 164.71 51.6999 164.71 51.9624V52.5811C164.71 52.9468 164.363 53.1155 163.96 53.2186V53.9217C164.532 53.903 165.132 53.8936 165.76 53.8936C172.509 53.8936 172.509 54.7092 172.509 54.9811V55.5998C172.509 55.9654 172.163 56.1342 171.759 56.2373V59.1247C172.163 59.2278 172.509 59.3966 172.509 59.7622V60.3809C172.509 60.7465 172.163 60.9153 171.759 61.0184V63.0339L176.447 58.3372C176.681 58.1122 176.981 57.9716 177.3 57.9528V52.1687C177.3 51.578 177.89 51.1187 178.659 51.1187H181.19C181.818 51.1187 182.343 51.428 182.503 51.8968L184.547 57.9528H184.818C184.818 57.9528 184.847 57.9528 184.856 57.9528C185.812 57.9528 186.459 59.0966 185.953 59.9122L181.978 66.8494L177.084 71.7899C176.981 72.0149 177.047 72.2962 177.253 72.4368C178.884 73.5711 178.359 76.9741 176.241 76.9741C176.241 76.9741 176.222 76.9741 176.212 76.9741H140.354C138.742 76.9741 137.232 76.1867 136.304 74.8648L134.889 72.8399C134.786 72.6993 134.626 72.6149 134.457 72.6149H133.623C133.014 72.6149 132.498 72.2024 132.348 71.6212L130.248 66.7276C130.117 66.0245 129.536 64.7964 130.136 64.1683C130.426 63.7277 131.017 63.6527 131.598 63.6527C131.879 63.6527 132.17 63.6714 132.404 63.6714C132.479 63.6714 132.545 63.6714 132.611 63.6714V61.0653H133.182V59.0591H139.098V61.0653H143.373V63.6714H144.404V61.0184C144.01 60.9059 143.663 60.7371 143.663 60.3809V59.7622C143.663 59.3966 144.01 59.2278 144.413 59.1247V56.2373C144.01 56.1342 143.663 55.9654 143.663 55.5998V54.9811C143.663 54.7092 143.663 53.8936 150.413 53.8936C150.948 53.8936 151.463 53.8936 151.96 53.9123V53.2186C151.557 53.1155 151.21 52.9468 151.21 52.5811V51.9624C151.21 51.6905 151.21 50.8749 157.96 50.8749ZM157.96 49C152.119 49 149.335 49.4406 149.335 51.9624V52.0187C144.226 52.0749 141.788 52.6186 141.788 54.9811V55.5998C141.788 55.8998 141.863 56.6873 142.538 57.3247V58.0466C142.145 58.4216 141.957 58.8434 141.863 59.1903H140.973V59.0591C140.973 58.0278 140.129 57.1841 139.098 57.1841H133.182C132.151 57.1841 131.308 58.0278 131.308 59.0591V59.7153C130.951 60.0528 130.736 60.5309 130.736 61.0653V61.8434C130.079 61.9465 129.245 62.2277 128.664 63.0152C127.614 64.2527 128.064 65.8276 128.308 66.6807C128.345 66.8213 128.392 66.9526 128.411 67.0651C128.439 67.2057 128.476 67.3369 128.533 67.4682L130.586 72.2493C130.998 73.5805 132.226 74.4898 133.632 74.4898H133.764L134.776 75.9429C136.051 77.7616 138.142 78.8491 140.364 78.8491H176.222C177.928 78.8491 179.315 77.771 179.859 76.0273C180.29 74.6492 180.112 73.1961 179.437 72.0899L183.318 68.1713C183.431 68.0588 183.534 67.9275 183.609 67.7869L187.565 60.8778C188.137 59.9309 188.146 58.7216 187.584 57.7279C187.209 57.0622 186.628 56.5654 185.953 56.3029L184.265 51.3156C183.853 50.0875 182.615 49.2625 181.181 49.2625H178.65C176.841 49.2625 175.416 50.5468 175.416 52.1874V56.7623C175.312 56.8466 175.209 56.931 175.116 57.0248L173.85 58.2903C173.784 58.206 173.709 58.131 173.625 58.056V57.3341C174.3 56.6966 174.375 55.9092 174.375 55.6092V54.9904C174.375 52.5905 171.853 52.0749 166.575 52.028V51.9718C166.575 49.45 163.791 49.0094 157.95 49.0094L157.96 49Z" fill="#37474F"/>
<path d="M160.135 62.0121C159.45 62.0402 158.719 62.0589 157.95 62.0589C157.275 62.0589 156.628 62.0496 156.01 62.0214V63.1745C156.619 63.1933 157.275 63.212 157.95 63.212C158.719 63.212 159.45 63.1933 160.135 63.1651V62.0121Z" fill="#009F9A"/>
<path d="M160.144 58.009V56.856C159.46 56.8841 158.728 56.9028 157.96 56.9028C157.285 56.9028 156.638 56.8935 156.019 56.8653V58.0184C156.628 58.0372 157.275 58.0559 157.96 58.0559C158.728 58.0559 159.46 58.0372 160.144 58.009Z" fill="#009F9A"/>
<path d="M163.566 52.8999C164.044 52.8061 164.316 52.6936 164.316 52.5717V51.953C164.316 51.5686 161.466 51.2593 157.96 51.2593C154.453 51.2593 151.604 51.5686 151.604 51.953V52.5717C151.604 52.6936 151.875 52.8061 152.353 52.8999C153.422 53.1155 155.532 53.2655 157.96 53.2655C160.388 53.2655 162.497 53.1155 163.566 52.8999Z" fill="#009F9A"/>
<path d="M156.769 60.3715V59.7528C156.769 59.6309 156.497 59.5184 156.019 59.4247V59.5372C154.95 59.7528 152.841 59.9028 150.404 59.9028C147.966 59.9028 145.866 59.7528 144.798 59.5372V59.4247C144.319 59.5184 144.048 59.6309 144.048 59.7528V60.3715C144.048 60.4934 144.319 60.6059 144.798 60.6996C145.866 60.9153 147.976 61.0653 150.404 61.0653C151.079 61.0653 151.725 61.0559 152.335 61.0278C153.919 60.9715 155.241 60.8496 156.019 60.6903C156.497 60.5965 156.769 60.484 156.769 60.3622V60.3715Z" fill="#009F9A"/>
<path d="M170.897 64.0557C171.066 64.0557 171.216 63.9995 171.366 63.9057V60.6996C170.297 60.9152 168.188 61.0652 165.759 61.0652C164.991 61.0652 164.26 61.0464 163.575 61.0183C162.103 60.9527 160.885 60.8402 160.153 60.6902C159.675 60.5965 159.403 60.484 159.403 60.3621V59.7434C159.403 59.6215 159.675 59.509 160.153 59.4152V59.5277C161.222 59.7434 163.331 59.8934 165.769 59.8934C168.206 59.8934 170.306 59.7434 171.384 59.5277V55.8997C170.316 56.1153 168.206 56.2653 165.769 56.2653C163.331 56.2653 161.231 56.1153 160.153 55.8997C159.675 55.806 159.403 55.6935 159.403 55.5716V54.9529C159.403 54.6529 161.147 54.3998 163.575 54.2967V52.8811C162.506 53.0967 160.397 53.2467 157.969 53.2467C155.541 53.2467 153.432 53.0967 152.363 52.8811V54.2873C154.922 54.381 156.788 54.6435 156.788 54.9529V55.5716C156.788 55.6935 156.516 55.806 156.038 55.8997C154.969 56.1153 152.86 56.2653 150.422 56.2653C147.985 56.2653 145.885 56.1153 144.816 55.8997V59.5277C145.885 59.7434 147.994 59.8934 150.422 59.8934C152.85 59.8934 154.96 59.7434 156.038 59.5277V59.4152C156.516 59.509 156.788 59.6215 156.788 59.7434V60.3621C156.788 60.484 156.516 60.5965 156.038 60.6902C155.269 60.8496 153.947 60.9714 152.354 61.0277C151.744 61.0464 151.097 61.0652 150.413 61.0652C147.985 61.0652 145.876 60.9152 144.798 60.6996V64.0557H170.897ZM157.96 63.212C157.285 63.212 156.628 63.2026 156.019 63.1745V62.0214C156.628 62.0402 157.275 62.0589 157.96 62.0589C158.728 62.0589 159.46 62.0402 160.144 62.012V63.1651C159.46 63.1933 158.728 63.212 157.96 63.212ZM156.019 58.0184V56.8559C156.628 56.8747 157.275 56.8934 157.96 56.8934C158.728 56.8934 159.46 56.8747 160.144 56.8466V57.9997C159.46 58.0278 158.728 58.0465 157.95 58.0465C157.275 58.0465 156.628 58.0372 156.019 58.009V58.0184Z" fill="#008C85"/>
<path d="M156.019 55.9185C156.497 55.8248 156.769 55.7123 156.769 55.5904V54.9717C156.769 54.6623 154.913 54.3998 152.344 54.3061C151.735 54.2873 151.079 54.2686 150.404 54.2686C146.888 54.2686 144.048 54.578 144.048 54.9623V55.581C144.048 55.7029 144.319 55.8154 144.798 55.9092C145.866 56.1248 147.976 56.2748 150.404 56.2748C152.832 56.2748 154.941 56.1248 156.019 55.9092V55.9185Z" fill="#009F9A"/>
<path d="M165.75 59.9121C163.322 59.9121 161.213 59.7621 160.135 59.5465V59.434C159.657 59.5277 159.385 59.6402 159.385 59.7621V60.3808C159.385 60.5027 159.657 60.6152 160.135 60.709C160.866 60.8589 162.085 60.9714 163.557 61.0371C164.241 61.0652 164.972 61.0839 165.75 61.0839C168.178 61.0839 170.288 60.9339 171.366 60.7183C171.844 60.6246 172.116 60.5121 172.116 60.3902V59.7715C172.116 59.6496 171.844 59.5371 171.366 59.4434V59.5559C170.297 59.7715 168.188 59.9215 165.75 59.9215V59.9121Z" fill="#009F9A"/>
<path d="M159.394 54.9717V55.5904C159.394 55.7123 159.666 55.8247 160.144 55.9185C161.213 56.1341 163.322 56.2841 165.759 56.2841C168.197 56.2841 170.297 56.1341 171.375 55.9185C171.853 55.8247 172.125 55.7123 172.125 55.5904V54.9717C172.125 54.5873 169.275 54.2779 165.769 54.2779C165 54.2779 164.269 54.2967 163.585 54.3248C161.147 54.4185 159.413 54.681 159.413 54.981L159.394 54.9717Z" fill="#009F9A"/>
<path d="M130.614 66.5682L132.732 71.5181C132.835 71.9305 133.201 72.2212 133.623 72.2212H134.457C134.757 72.2212 135.038 72.3712 135.207 72.6149L136.623 74.6398C137.476 75.8585 138.863 76.5804 140.354 76.5804H176.212C178.021 76.5804 178.293 73.6367 177.028 72.7555C176.643 72.4836 176.531 71.9587 176.765 71.5556L181.696 66.5776H130.614V66.5682Z" fill="#F77152"/>
<path d="M184.809 58.3372H177.375C177.131 58.3372 176.896 58.4309 176.728 58.609L171.553 63.7839C171.497 63.8401 171.431 63.8682 171.365 63.9057C171.225 63.9901 171.065 64.0557 170.897 64.0557H131.167C130.567 64.0557 130.135 64.6182 130.276 65.1901L130.314 65.3307L130.613 66.5588H181.696L182.399 65.3307L185.606 59.7059C185.952 59.0965 185.512 58.3278 184.809 58.3278V58.3372Z" fill="#4F4543"/>
<path d="M182.118 52.0187C182.015 51.7187 181.631 51.5124 181.181 51.5124H178.65C178.115 51.5124 177.684 51.803 177.684 52.1687V58.3466H184.256L182.118 52.028V52.0187Z" fill="#DDDDDD"/>
<path d="M142.969 61.4402H138.694V59.434H133.566V61.4402H132.995V64.0557H142.969V61.4402Z" fill="#DDDDDD"/>
</g>
<defs>
<radialGradient id="paint0_radial_416_19749" cx="0" cy="0" r="1" gradientUnits="userSpaceOnUse" gradientTransform="translate(162.075 67.9107) scale(98.3873 97.9287)">
<stop stop-color="#FF8474"/>
<stop offset="1" stop-color="#FF8474" stop-opacity="0"/>
</radialGradient>
<clipPath id="clip0_416_19749">
<rect width="60" height="30" fill="white" transform="translate(128 49)"/>
</clipPath>
</defs>
</svg>
