<svg width="375" height="220" viewBox="0 0 375 220" fill="none" xmlns="http://www.w3.org/2000/svg">
<path opacity="0.3" d="M273.108 169.396C275.703 169.744 277.426 171.274 277.171 173.212C276.932 175.029 275.187 176.033 272.899 175.919L272.586 178.305L277.533 178.955L277.393 180.026L266.277 178.565L266.418 177.494L271.311 178.137L271.625 175.751C269.399 175.273 267.966 173.85 268.211 172.035C268.459 170.095 270.525 169.064 273.108 169.396ZM269.458 172.199C269.279 173.561 270.523 174.586 272.392 174.846C274.278 175.08 275.738 174.41 275.924 173.048C276.09 171.733 274.855 170.688 272.969 170.454C271.101 170.194 269.631 170.884 269.458 172.199ZM285.406 171.358L284.662 177.024L278.982 176.277L279.727 170.611L285.406 171.358ZM280.376 175.426L283.535 175.841L284.008 172.236L280.85 171.82L280.376 175.426ZM279.674 181.608L280.18 177.758L281.468 177.928L281.099 180.734L288.026 181.644L287.888 182.688L279.674 181.608ZM286.479 179.455L287.65 170.549L288.938 170.719L288.46 174.351L290.222 174.583L290.08 175.667L288.318 175.436L287.767 179.624L286.479 179.455ZM300.236 173.307L299.492 178.973L293.812 178.226L294.557 172.56L300.236 173.307ZM295.206 177.375L298.365 177.791L298.838 174.185L295.68 173.77L295.206 177.375ZM294.504 183.557L295.01 179.708L296.298 179.877L295.929 182.683L302.856 183.593L302.718 184.637L294.504 183.557ZM301.309 181.404L302.48 172.498L303.768 172.668L303.29 176.301L305.052 176.532L304.91 177.617L303.148 177.385L302.597 181.574L301.309 181.404Z" fill="#191414"/>
<circle cx="234" cy="130" r="26" fill="#FF8474" fill-opacity="0.2" stroke="#02A39E" stroke-width="2" stroke-dasharray="4 4"/>
<g filter="url(#filter0_d_416_19741)">
<rect x="227" y="54" width="96" height="27" rx="8" fill="#02A39E" shape-rendering="crispEdges"/>
<rect x="226.5" y="53.5" width="97" height="28" rx="8.5" stroke="#02A39E" shape-rendering="crispEdges"/>
<path d="M248.061 62.6348V63.6875H237.984V62.6348H242.387V61.0898H243.672V62.6348H248.061ZM237.451 71.7812V70.7285H242.387V69.1084C240.24 68.9717 238.935 68.124 238.941 66.7637C238.935 65.2871 240.5 64.4189 243.029 64.4258C245.524 64.4189 247.11 65.2871 247.104 66.7637C247.11 68.124 245.791 68.9717 243.672 69.1084V70.7285H248.662V71.7812H237.451ZM240.268 66.7637C240.254 67.6182 241.279 68.083 243.029 68.0898C244.752 68.083 245.784 67.6182 245.777 66.7637C245.784 65.916 244.752 65.4512 243.029 65.4512C241.279 65.4512 240.254 65.916 240.268 66.7637ZM260.706 70.5918V71.6582H249.495V70.5918H260.706ZM250.835 62.8672V61.8145H259.339V65.6426H252.147V67.4336H259.626V68.4727H250.862V64.5898H258.053V62.8672H250.835ZM272.736 67.9395V68.9922H267.732V73.1484H266.46V68.9922H261.525V67.9395H272.736ZM262.933 66.3809V61.5684H271.327V66.3809H262.933ZM264.204 65.3691H270.029V62.6074H264.204V65.3691ZM284.793 70.5098V71.5762H273.582V70.5098H284.793ZM274.102 67.4473C276.378 67.0781 278.49 65.3828 278.49 63.5098V63.127H274.512V62.0742H283.822V63.127H279.844V63.5098C279.844 65.3828 281.97 67.0371 284.301 67.4062L283.781 68.4316C281.799 68.0625 279.974 66.9141 279.174 65.3008C278.388 66.9277 276.576 68.1104 274.635 68.4863L274.102 67.4473ZM295.044 62.9355V63.9883H288.96V62.9355H291.366V61.2676H292.652V62.9355H295.044ZM289.357 67.543C289.35 65.8955 290.471 64.7266 292.009 64.7266C293.561 64.7266 294.668 65.8955 294.675 67.543C294.668 69.2178 293.561 70.3936 292.009 70.3867C290.471 70.3936 289.35 69.2178 289.357 67.543ZM290.505 67.543C290.498 68.582 291.127 69.2793 292.009 69.2793C292.891 69.2793 293.527 68.582 293.527 67.543C293.527 66.5244 292.891 65.8135 292.009 65.8066C291.127 65.8135 290.498 66.5244 290.505 67.543ZM295.605 72.5879V61.1855H296.835V66.0117H298.243V60.9121H299.474V73.1621H298.243V67.0781H296.835V72.5879H295.605ZM307.935 62.0879V63.127H301.045V62.0879H303.916V60.8027H305.201V62.0879H307.935ZM301.728 65.8613C301.728 64.542 302.877 63.6533 304.545 63.6465C306.192 63.6533 307.368 64.542 307.375 65.8613C307.368 67.1943 306.192 68.0693 304.545 68.0762C302.877 68.0693 301.728 67.1943 301.728 65.8613ZM302.945 65.8613C302.938 66.6201 303.574 67.1055 304.545 67.1055C305.502 67.1055 306.158 66.6201 306.172 65.8613C306.158 65.1162 305.502 64.6377 304.545 64.6445C303.574 64.6377 302.938 65.1162 302.945 65.8613ZM303.178 73.0117V68.6641H304.463V69.8262H309.959V68.6641H311.244V73.0117H303.178ZM304.463 71.9863H309.959V70.8242H304.463V71.9863ZM307.963 67.1465V66.0938H309.945V64.7539H307.977V63.6875H309.945V60.9121H311.244V68.1719H309.945V67.1465H307.963Z" fill="white"/>
</g>
<path d="M276 82C276 81.4477 275.552 81 275 81C274.448 81 274 81.4477 274 82L275 82L276 82ZM255 120.333C257.946 120.333 260.333 117.946 260.333 115C260.333 112.054 257.946 109.667 255 109.667C252.054 109.667 249.667 112.054 249.667 115C249.667 117.946 252.054 120.333 255 120.333ZM274.732 93.7879L274 93.1068L274.732 93.7879ZM275 82L274 82L274 93.1068L275 93.1068L276 93.1068L276 82L275 82ZM274.732 93.7879L274 93.1068L254.268 114.319L255 115L255.732 115.681L275.464 94.469L274.732 93.7879ZM275 93.1068L274 93.1068L274 93.1068L274.732 93.7879L275.464 94.469C275.809 94.0989 276 93.6122 276 93.1068L275 93.1068Z" fill="#02A39E"/>
<defs>
<filter id="filter0_d_416_19741" x="226" y="45" width="106" height="37" filterUnits="userSpaceOnUse" color-interpolation-filters="sRGB">
<feFlood flood-opacity="0" result="BackgroundImageFix"/>
<feColorMatrix in="SourceAlpha" type="matrix" values="0 0 0 0 0 0 0 0 0 0 0 0 0 0 0 0 0 0 127 0" result="hardAlpha"/>
<feOffset dx="4" dy="-4"/>
<feGaussianBlur stdDeviation="2"/>
<feComposite in2="hardAlpha" operator="out"/>
<feColorMatrix type="matrix" values="0 0 0 0 0 0 0 0 0 0 0 0 0 0 0 0 0 0 0.1 0"/>
<feBlend mode="normal" in2="BackgroundImageFix" result="effect1_dropShadow_416_19741"/>
<feBlend mode="normal" in="SourceGraphic" in2="effect1_dropShadow_416_19741" result="shape"/>
</filter>
</defs>
</svg>
