<svg width="244" height="136" viewBox="0 0 244 136" fill="none" xmlns="http://www.w3.org/2000/svg">
<path d="M10.8906 29L10.875 27.2969L14.9375 23.5625C15.9922 22.5547 16.5625 21.9297 16.5625 21.0312C16.5625 20.0234 15.8047 19.3984 14.7656 19.4062C13.7031 19.3984 13.0078 20.0703 13.0156 21.1562H10.7812C10.7734 18.9453 12.4141 17.5312 14.7969 17.5312C17.2188 17.5312 18.8281 18.9141 18.8281 20.875C18.8281 22.1641 18.2031 23.2188 15.875 25.3281L14.1562 27V27.0625H18.9844L18.9844 29H10.8906ZM24.9829 29.1563C22.1469 29.1563 20.436 27.0469 20.436 23.3438C20.436 19.6484 22.1626 17.5312 24.9829 17.5313C27.8032 17.5313 29.5297 19.6484 29.5297 23.3438C29.5297 27.0625 27.811 29.1563 24.9829 29.1563ZM22.8422 23.3438C22.8266 25.9531 23.6704 27.2188 24.9829 27.2188C26.2954 27.2188 27.1313 25.9531 27.1235 23.3438C27.1313 20.7578 26.2876 19.4609 24.9829 19.4531C23.6782 19.4609 22.8422 20.7578 22.8422 23.3438ZM31.0907 29L31.0751 27.2969L35.1376 23.5625C36.1923 22.5547 36.7626 21.9297 36.7626 21.0313C36.7626 20.0234 36.0048 19.3984 34.9657 19.4063C33.9032 19.3984 33.2079 20.0703 33.2157 21.1563H30.9814C30.9736 18.9453 32.6142 17.5313 34.997 17.5313C37.4189 17.5313 39.0282 18.9141 39.0282 20.875C39.0282 22.1641 38.4032 23.2188 36.0751 25.3281L34.3564 27V27.0625L39.1845 27.0625V29H31.0907ZM44.9486 29.1563C42.5893 29.1563 40.8627 27.7656 40.8236 25.8125H43.1049C43.1596 26.6953 43.9643 27.3047 44.9486 27.2969C46.1205 27.3047 46.9564 26.4766 46.9486 25.2969C46.9564 24.0938 46.1049 23.2578 44.9174 23.25C44.0658 23.25 43.4721 23.5703 43.1361 24.2031H41.0111L41.6205 17.6875H48.5893V19.6094H43.558L43.2455 22.4688H43.3393C43.7533 21.9141 44.6127 21.5078 45.6049 21.5156C47.683 21.5078 49.2299 23.0625 49.2299 25.2344C49.2299 27.5234 47.4955 29.1563 44.9486 29.1563ZM62.2752 16.2344V26.6875H60.2909V22.0313H56.7596V20.4688H60.2909V19.375H56.7596V17.8125H60.2909V16.2344H62.2752ZM51.0877 24.8438V17.125H53.0565V23.2031C54.7909 23.1797 56.4315 23.0703 58.1971 22.75L58.4002 24.3594C56.2674 24.7656 54.3534 24.8359 52.2284 24.8438H51.0877ZM52.8221 30.1875V25.75H54.8221V28.5938H62.619V30.1875H52.8221ZM78.9598 16.2344V20.5938H80.8816V22.2188H78.9598V26.8438H76.9598V16.2344H78.9598ZM67.6785 19.2969V17.7188L70.9129 17.7188V16.2031H72.8973V17.7188H76.116V19.2969L67.6785 19.2969ZM68.366 22.5469C68.366 20.8984 69.8269 19.7969 71.8973 19.7969C73.9598 19.7969 75.3973 20.8984 75.3973 22.5469C75.3973 24.1875 73.9598 25.2656 71.8973 25.2656C69.8269 25.2656 68.366 24.1875 68.366 22.5469ZM69.741 30.1875V26.0313L71.7254 26.0313V28.5938H79.4754V30.1875H69.741ZM70.3191 22.5469C70.3113 23.3281 70.9441 23.75 71.8973 23.75C72.8582 23.75 73.5066 23.3281 73.5066 22.5469C73.5066 21.7578 72.8582 21.3203 71.8973 21.3125C70.9441 21.3203 70.3113 21.7578 70.3191 22.5469ZM92.9114 16.8438V17.9531C92.9192 19 92.9192 20.2031 92.6223 21.7344H94.4583V23.3281H88.927V25.375H92.927V30.4375H90.927V26.9375H82.7551V25.375H86.927V23.3281L81.4426 23.3281V21.7344L90.6067 21.7344C90.8723 20.3984 90.9114 19.3594 90.927 18.4219L83.0364 18.4219V16.8438L92.9114 16.8438ZM99.8161 17.1719C102.074 17.1641 103.746 18.6172 103.754 20.6563C103.746 22.7031 102.074 24.1484 99.8161 24.1563C97.5739 24.1484 95.8552 22.7031 95.863 20.6563C95.8552 18.6172 97.5739 17.1641 99.8161 17.1719ZM95.2692 25.9375C97.8083 25.9453 101.324 25.9141 104.363 25.4844L104.519 26.9219C101.363 27.5391 97.988 27.5625 95.5036 27.5625L95.2692 25.9375ZM97.8474 20.6563C97.8396 21.7813 98.6911 22.4297 99.8161 22.4219C100.949 22.4297 101.808 21.7813 101.816 20.6563C101.808 19.5469 100.949 18.8906 99.8161 18.8906C98.6911 18.8906 97.8396 19.5469 97.8474 20.6563ZM105.175 30.4688V16.2188H107.16V30.4688H105.175ZM125.563 22.6719V24.2813H120.063V25.3359C122.532 25.5156 124.001 26.4063 124.016 27.875C124.001 29.5234 122.133 30.4453 119.063 30.4375C115.946 30.4453 114.079 29.5234 114.079 27.875C114.079 26.3984 115.555 25.5078 118.079 25.3281V24.2813L112.594 24.2813V22.6719L125.563 22.6719ZM113.173 20.5781C115.805 20.3438 117.258 19.375 117.618 18.3906H113.782V16.8281H124.391V18.3906H120.524C120.868 19.3828 122.313 20.3438 125.016 20.5781L124.313 22.1406C121.626 21.8828 119.821 20.875 119.063 19.4922C118.313 20.8672 116.524 21.8906 113.829 22.1406L113.173 20.5781ZM116.11 27.875C116.102 28.5625 117.094 28.9375 119.063 28.9375C120.993 28.9375 122.008 28.5625 122.016 27.875C122.008 27.1563 120.993 26.8125 119.063 26.7969C117.094 26.8125 116.102 27.1563 116.11 27.875ZM139.358 22.9375V24.5H126.358V22.9375H131.89V21.7188H127.937V16.8438L137.796 16.8438V18.3906H129.921V20.1563H137.874V21.7188H133.843V22.9375H139.358ZM127.843 27.8438C127.843 26.1563 129.718 25.2188 132.827 25.2188C135.913 25.2188 137.765 26.1563 137.78 27.8438C137.765 29.5078 135.913 30.4531 132.827 30.4531C129.718 30.4531 127.843 29.5078 127.843 27.8438ZM129.874 27.8438C129.866 28.5859 130.858 28.9375 132.827 28.9375C134.757 28.9375 135.773 28.5859 135.78 27.8438C135.773 27.1094 134.757 26.7344 132.827 26.7344C130.858 26.7344 129.866 27.1094 129.874 27.8438ZM155.793 16.2344V26.9688H153.793V25.8438H151.074V24.4844H153.793V16.2344H155.793ZM143.699 22.5313C146.301 22.5156 149.816 22.4766 152.824 22.1094L152.934 23.5313C151.809 23.7188 150.645 23.8516 149.496 23.9375V26.6406H147.496V28.5938L156.105 28.5938V30.1875L145.512 30.1875V25.9375H147.496V24.0547C146.223 24.1016 145.012 24.1094 143.934 24.1094L143.699 22.5313ZM144.746 19.2656C144.746 17.75 146.207 16.7109 148.324 16.7188C150.387 16.7109 151.863 17.75 151.871 19.2656C151.863 20.7891 150.387 21.7734 148.324 21.7656C146.207 21.7734 144.746 20.7891 144.746 19.2656ZM146.637 19.2656C146.629 19.9531 147.309 20.3359 148.324 20.3281C149.277 20.3359 149.965 19.9531 149.98 19.2656C149.965 18.5625 149.277 18.1719 148.324 18.1719C147.309 18.1719 146.629 18.5625 146.637 19.2656ZM170.51 24.125V25.7344L167.463 25.7344V30.4375H165.432V25.7344H162.526V30.4375H160.479V25.7344L157.495 25.7344V24.125L170.51 24.125ZM158.807 19.9063C158.799 17.9453 160.909 16.6953 163.963 16.6875C167.018 16.6953 169.151 17.9453 169.151 19.9063C169.151 21.8203 167.018 23.0391 163.963 23.0313C160.909 23.0391 158.799 21.8203 158.807 19.9063ZM160.854 19.9063C160.846 20.9063 162.057 21.4609 163.963 21.4688C165.885 21.4609 167.088 20.9063 167.088 19.9063C167.088 18.8594 165.885 18.2891 163.963 18.2813C162.057 18.2891 160.846 18.8594 160.854 19.9063ZM186.492 22.5781V24.1563H182.367V27.1875H187.913V28.8125L174.898 28.8125V27.1875H180.382V24.1563H176.429V17.2188H186.382V18.8125H178.429V22.5781H186.492ZM200.568 16.2188V23.8594H198.568V16.2188L200.568 16.2188ZM188.881 20.1875C188.881 18.1875 190.553 16.7969 192.771 16.8125C194.982 16.7969 196.654 18.1875 196.662 20.1875C196.654 22.125 194.982 23.5156 192.771 23.5156C190.553 23.5156 188.881 22.125 188.881 20.1875ZM190.834 20.1875C190.818 21.2422 191.631 21.875 192.771 21.875C193.881 21.875 194.685 21.2422 194.693 20.1875C194.685 19.1172 193.881 18.4609 192.771 18.4688C191.631 18.4609 190.818 19.1172 190.834 20.1875ZM191.053 30.2813V24.4844H193.021V25.8125H198.584V24.4844H200.568V30.2813L191.053 30.2813ZM193.021 28.6719L198.584 28.6719V27.3594H193.021V28.6719ZM217.956 16.2188V30.4688H215.94V16.2188L217.956 16.2188ZM206.753 27.1406V17.3438H208.753V20.8125H211.815V17.3438H213.784V27.1406H206.753ZM208.753 25.5313H211.815V22.3594H208.753V25.5313ZM232.783 22.6719V24.2813H227.283V25.3359C229.751 25.5156 231.22 26.4063 231.236 27.875C231.22 29.5234 229.353 30.4453 226.283 30.4375C223.165 30.4453 221.298 29.5234 221.298 27.875C221.298 26.3984 222.775 25.5078 225.298 25.3281V24.2813H219.814V22.6719H232.783ZM220.392 20.5781C223.025 20.3438 224.478 19.375 224.837 18.3906H221.001V16.8281H231.611V18.3906H227.743C228.087 19.3828 229.533 20.3438 232.236 20.5781L231.533 22.1406C228.845 21.8828 227.04 20.875 226.283 19.4922C225.533 20.8672 223.743 21.8906 221.048 22.1406L220.392 20.5781ZM223.329 27.875C223.322 28.5625 224.314 28.9375 226.283 28.9375C228.212 28.9375 229.228 28.5625 229.236 27.875C229.228 27.1563 228.212 26.8125 226.283 26.7969C224.314 26.8125 223.322 27.1563 223.329 27.875Z" fill="#37474F"/>
<path d="M14.25 42H229.75" stroke="#455A64"/>
<rect x="12" y="58" width="220" height="30" rx="4" fill="#CFD8DC"/>
<rect x="12" y="58" width="154" height="30" rx="4" fill="#02A39E" fill-opacity="0.5"/>
<rect x="12" y="58" width="146" height="30" rx="4" fill="#02A39E"/>
<path d="M52.082 72.3594V73.2617H47.8398V74.2695C49.7617 74.375 50.9043 75.0195 50.9102 76.1211C50.9043 77.3105 49.5449 77.9785 47.2891 77.9727C45.0039 77.9785 43.6445 77.3105 43.6445 76.1211C43.6445 75.0195 44.7871 74.3691 46.7383 74.2695V73.2617H42.5078V72.3594H52.082ZM43.0117 70.9297C44.8984 70.7363 46.3867 69.8809 46.5391 68.8672H43.3867V67.9766H51.2266V68.8672H48.0391C48.1914 69.8867 49.668 70.7363 51.5898 70.9297L51.1914 71.8086C49.3691 71.5977 47.8633 70.8301 47.2949 69.7168C46.7148 70.8301 45.2207 71.5977 43.3984 71.8086L43.0117 70.9297ZM44.7695 76.1211C44.7637 76.7598 45.6836 77.1289 47.2891 77.1172C48.8711 77.1289 49.7969 76.7598 49.7969 76.1211C49.7969 75.4707 48.8711 75.1191 47.2891 75.1133C45.6836 75.1191 44.7637 75.4707 44.7695 76.1211ZM61.9648 72.6055V73.4961H52.3789V72.6055H56.6328V71.4922H53.5742V67.9766H60.7812V68.8555H54.6758V70.6016H60.8516V71.4922H57.7109V72.6055H61.9648ZM53.5156 76.0859C53.5156 74.8672 54.8809 74.1816 57.1602 74.1758C59.4219 74.1816 60.7754 74.8672 60.7812 76.0859C60.7754 77.3047 59.4219 77.9902 57.1602 77.9961C54.8809 77.9902 53.5156 77.3047 53.5156 76.0859ZM54.6406 76.0859C54.6348 76.7598 55.5547 77.1289 57.1602 77.1172C58.7422 77.1289 59.668 76.7598 59.668 76.0859C59.668 75.4238 58.7422 75.043 57.1602 75.043C55.5547 75.043 54.6348 75.4238 54.6406 76.0859ZM73.4102 67.5078V75.4648H72.2969V74.457H70.1875V73.6719H72.2969V67.5078H73.4102ZM64.6328 72.3008C66.5723 72.2832 69.1914 72.2656 71.4297 71.9844L71.5 72.7812C70.6035 72.9336 69.6602 73.0273 68.7344 73.0918V75.1367H67.6211V73.1504C66.6016 73.1914 65.623 73.1914 64.7734 73.1914L64.6328 72.3008ZM65.4531 69.7578C65.4473 68.6445 66.5078 67.9062 68.0664 67.9062C69.6016 67.9062 70.668 68.6445 70.668 69.7578C70.668 70.877 69.6016 71.5859 68.0664 71.5859C66.5137 71.5859 65.4473 70.877 65.4531 69.7578ZM66.0859 77.7734V74.6914H67.1875V76.8711H73.668V77.7734H66.0859ZM66.5078 69.7578C66.502 70.3789 67.1348 70.7656 68.0664 70.7656C68.9629 70.7656 69.6074 70.3789 69.6133 69.7578C69.6074 69.1309 68.9629 68.7266 68.0664 68.7383C67.1348 68.7266 66.502 69.1309 66.5078 69.7578ZM84.1484 73.4258V74.3398H81.7109V77.9961H80.5859V74.3398H78.0781V77.9961H76.9297V74.3398H74.5391V73.4258H84.1484ZM75.582 70.2148C75.5879 68.7969 77.0996 67.8945 79.3203 67.8945C81.541 67.8945 83.0645 68.7969 83.0586 70.2148C83.0645 71.6152 81.541 72.5 79.3203 72.4883C77.0996 72.5 75.5879 71.6152 75.582 70.2148ZM76.7305 70.2148C76.7246 71.0762 77.7617 71.6094 79.3203 71.6094C80.8848 71.6094 81.916 71.0762 81.9219 70.2148C81.916 69.3301 80.8848 68.791 79.3203 68.7852C77.7617 68.791 76.7246 69.3301 76.7305 70.2148ZM95.3594 72.3359V73.2266H92.1836V75.793H96.4609V76.707H86.8516V75.793H91.082V73.2266H88.0469V68.3047H95.2656V69.207H89.1602V72.3359H95.3594ZM105.43 67.4961V73.1328H104.316V67.4961H105.43ZM96.9336 70.4141C96.9395 68.9727 98.123 67.9707 99.7344 67.9766C101.34 67.9707 102.523 68.9727 102.523 70.4141C102.523 71.8496 101.34 72.8516 99.7344 72.8398C98.123 72.8516 96.9395 71.8496 96.9336 70.4141ZM98.0234 70.4141C98.0176 71.3223 98.7383 71.9258 99.7344 71.9258C100.719 71.9258 101.434 71.3223 101.434 70.4141C101.434 69.5176 100.719 68.9082 99.7344 68.9141C98.7383 68.9082 98.0176 69.5176 98.0234 70.4141ZM98.5625 77.8672V73.6367H99.6523V74.8203H104.328V73.6367H105.43V77.8672H98.5625ZM99.6523 76.9531H104.328V75.6992H99.6523V76.9531ZM117.719 67.4961V78.0195H116.605V67.4961H117.719ZM109.609 75.5V68.375H110.723V71.0703H113.547V68.375H114.648V75.5H109.609ZM110.723 74.5859H113.547V71.9492H110.723V74.5859ZM128.469 72.3594V73.2617H124.227V74.2695C126.148 74.375 127.291 75.0195 127.297 76.1211C127.291 77.3105 125.932 77.9785 123.676 77.9727C121.391 77.9785 120.031 77.3105 120.031 76.1211C120.031 75.0195 121.174 74.3691 123.125 74.2695V73.2617H118.895V72.3594H128.469ZM119.398 70.9297C121.285 70.7363 122.773 69.8809 122.926 68.8672H119.773V67.9766H127.613V68.8672H124.426C124.578 69.8867 126.055 70.7363 127.977 70.9297L127.578 71.8086C125.756 71.5977 124.25 70.8301 123.682 69.7168C123.102 70.8301 121.607 71.5977 119.785 71.8086L119.398 70.9297ZM121.156 76.1211C121.15 76.7598 122.07 77.1289 123.676 77.1172C125.258 77.1289 126.184 76.7598 126.184 76.1211C126.184 75.4707 125.258 75.1191 123.676 75.1133C122.07 75.1191 121.15 75.4707 121.156 76.1211Z" fill="white"/>
<path d="M11.6464 95.6464C11.4512 95.8417 11.4512 96.1583 11.6464 96.3536L14.8284 99.5355C15.0237 99.7308 15.3403 99.7308 15.5355 99.5355C15.7308 99.3403 15.7308 99.0237 15.5355 98.8284L12.7071 96L15.5355 93.1716C15.7308 92.9763 15.7308 92.6597 15.5355 92.4645C15.3403 92.2692 15.0237 92.2692 14.8284 92.4645L11.6464 95.6464ZM161.354 96.3536C161.549 96.1583 161.549 95.8417 161.354 95.6464L158.172 92.4645C157.976 92.2692 157.66 92.2692 157.464 92.4645C157.269 92.6597 157.269 92.9763 157.464 93.1716L160.293 96L157.464 98.8284C157.269 99.0237 157.269 99.3403 157.464 99.5355C157.66 99.7308 157.976 99.7308 158.172 99.5355L161.354 96.3536ZM12 96V96.5H161V96V95.5H12V96Z" fill="#37474F"/>
<path d="M53.7305 107.359V108.262H49.4883V109.27C51.4102 109.375 52.5527 110.02 52.5586 111.121C52.5527 112.311 51.1934 112.979 48.9375 112.973C46.6523 112.979 45.293 112.311 45.293 111.121C45.293 110.02 46.4355 109.369 48.3867 109.27V108.262H44.1562V107.359H53.7305ZM44.6602 105.93C46.5469 105.736 48.0352 104.881 48.1875 103.867H45.0352V102.977H52.875V103.867H49.6875C49.8398 104.887 51.3164 105.736 53.2383 105.93L52.8398 106.809C51.0176 106.598 49.5117 105.83 48.9434 104.717C48.3633 105.83 46.8691 106.598 45.0469 106.809L44.6602 105.93ZM46.418 111.121C46.4121 111.76 47.332 112.129 48.9375 112.117C50.5195 112.129 51.4453 111.76 51.4453 111.121C51.4453 110.471 50.5195 110.119 48.9375 110.113C47.332 110.119 46.4121 110.471 46.418 111.121ZM63.6133 107.605V108.496H54.0273V107.605H58.2812V106.492H55.2227V102.977H62.4297V103.855H56.3242V105.602H62.5V106.492H59.3594V107.605H63.6133ZM55.1641 111.086C55.1641 109.867 56.5293 109.182 58.8086 109.176C61.0703 109.182 62.4238 109.867 62.4297 111.086C62.4238 112.305 61.0703 112.99 58.8086 112.996C56.5293 112.99 55.1641 112.305 55.1641 111.086ZM56.2891 111.086C56.2832 111.76 57.2031 112.129 58.8086 112.117C60.3906 112.129 61.3164 111.76 61.3164 111.086C61.3164 110.424 60.3906 110.043 58.8086 110.043C57.2031 110.043 56.2832 110.424 56.2891 111.086ZM65.3984 102.941V104.371H68.1523V102.941H69.2539V107.523H64.3086V102.941H65.3984ZM65.3633 109.234V108.355H72.1484V111.004H66.4766V112H72.5117V112.891H65.3867V110.184H71.0469V109.234H65.3633ZM65.3984 106.633H68.1523V105.227H65.3984V106.633ZM71.0352 107.898V102.496H72.1484V104.699H73.6719V105.602H72.1484V107.898H71.0352ZM84.9297 102.508V110.465H83.8164V109.457H81.707V108.672H83.8164V102.508H84.9297ZM76.1523 107.301C78.0918 107.283 80.7109 107.266 82.9492 106.984L83.0195 107.781C82.123 107.934 81.1797 108.027 80.2539 108.092V110.137H79.1406V108.15C78.1211 108.191 77.1426 108.191 76.293 108.191L76.1523 107.301ZM76.9727 104.758C76.9668 103.645 78.0273 102.906 79.5859 102.906C81.1211 102.906 82.1875 103.645 82.1875 104.758C82.1875 105.877 81.1211 106.586 79.5859 106.586C78.0332 106.586 76.9668 105.877 76.9727 104.758ZM77.6055 112.773V109.691H78.707V111.871H85.1875V112.773H77.6055ZM78.0273 104.758C78.0215 105.379 78.6543 105.766 79.5859 105.766C80.4824 105.766 81.127 105.379 81.1328 104.758C81.127 104.131 80.4824 103.727 79.5859 103.738C78.6543 103.727 78.0215 104.131 78.0273 104.758ZM95.668 108.426V109.34H93.2305V112.996H92.1055V109.34H89.5977V112.996H88.4492V109.34H86.0586V108.426H95.668ZM87.1016 105.215C87.1074 103.797 88.6191 102.895 90.8398 102.895C93.0605 102.895 94.584 103.797 94.5781 105.215C94.584 106.615 93.0605 107.5 90.8398 107.488C88.6191 107.5 87.1074 106.615 87.1016 105.215ZM88.25 105.215C88.2441 106.076 89.2812 106.609 90.8398 106.609C92.4043 106.609 93.4355 106.076 93.4414 105.215C93.4355 104.33 92.4043 103.791 90.8398 103.785C89.2812 103.791 88.2441 104.33 88.25 105.215ZM99.0039 108.766C99.0156 106.557 99.6426 104.723 100.738 103.152H101.887C101.078 104.312 100.305 106.674 100.305 108.766C100.305 110.863 101.078 113.225 101.887 114.391H100.738C99.6426 112.814 99.0156 110.98 99.0039 108.766ZM102.816 112L106.602 104.688V104.617H102.23V103.516H107.938V104.664L104.164 112H102.816ZM111.504 112.117C109.541 112.117 108.387 110.535 108.387 107.758C108.387 104.998 109.553 103.398 111.504 103.398C113.449 103.398 114.615 104.998 114.621 107.758C114.615 110.535 113.467 112.117 111.504 112.117ZM109.676 107.758C109.67 109.873 110.355 111.004 111.504 111.004C112.646 111.004 113.332 109.873 113.332 107.758C113.332 105.648 112.641 104.494 111.504 104.488C110.361 104.494 109.676 105.648 109.676 107.758ZM117.402 107.547C116.242 107.559 115.609 106.697 115.621 105.438C115.609 104.195 116.271 103.334 117.402 103.34C118.568 103.334 119.178 104.195 119.184 105.438C119.178 106.703 118.545 107.559 117.402 107.547ZM116.582 112L122.406 103.516H123.473L117.648 112H116.582ZM116.582 105.438C116.588 106.217 116.857 106.721 117.402 106.727C117.953 106.721 118.211 106.217 118.211 105.438C118.211 104.676 117.971 104.154 117.402 104.16C116.857 104.172 116.588 104.682 116.582 105.438ZM120.977 110.066C120.971 108.812 121.627 107.951 122.758 107.957C123.918 107.951 124.533 108.812 124.539 110.066C124.533 111.32 123.9 112.176 122.758 112.176C121.604 112.176 120.971 111.314 120.977 110.066ZM121.938 110.066C121.943 110.834 122.213 111.344 122.758 111.344C123.309 111.344 123.566 110.834 123.566 110.066C123.566 109.293 123.326 108.777 122.758 108.777C122.219 108.789 121.943 109.299 121.938 110.066ZM128.211 108.766C128.199 110.98 127.572 112.814 126.477 114.391H125.328C126.137 113.225 126.91 110.863 126.91 108.766C126.91 106.674 126.137 104.312 125.328 103.152H126.477C127.572 104.723 128.199 106.557 128.211 108.766Z" fill="#37474F"/>
</svg>
