<svg width="244" height="108" viewBox="0 0 244 108" fill="none" xmlns="http://www.w3.org/2000/svg">
<path d="M10.8906 29L10.875 27.2969L14.9375 23.5625C15.9922 22.5547 16.5625 21.9297 16.5625 21.0312C16.5625 20.0234 15.8047 19.3984 14.7656 19.4062C13.7031 19.3984 13.0078 20.0703 13.0156 21.1562H10.7812C10.7734 18.9453 12.4141 17.5312 14.7969 17.5312C17.2188 17.5312 18.8281 18.9141 18.8281 20.875C18.8281 22.1641 18.2031 23.2188 15.875 25.3281L14.1562 27V27.0625H18.9844L18.9844 29H10.8906ZM24.9829 29.1563C22.1469 29.1563 20.436 27.0469 20.436 23.3438C20.436 19.6484 22.1626 17.5312 24.9829 17.5313C27.8032 17.5313 29.5297 19.6484 29.5297 23.3438C29.5297 27.0625 27.811 29.1563 24.9829 29.1563ZM22.8422 23.3438C22.8266 25.9531 23.6704 27.2188 24.9829 27.2188C26.2954 27.2188 27.1313 25.9531 27.1235 23.3438C27.1313 20.7578 26.2876 19.4609 24.9829 19.4531C23.6782 19.4609 22.8422 20.7578 22.8422 23.3438ZM31.0907 29L31.0751 27.2969L35.1376 23.5625C36.1923 22.5547 36.7626 21.9297 36.7626 21.0313C36.7626 20.0234 36.0048 19.3984 34.9657 19.4063C33.9032 19.3984 33.2079 20.0703 33.2157 21.1563H30.9814C30.9736 18.9453 32.6142 17.5313 34.997 17.5313C37.4189 17.5313 39.0282 18.9141 39.0282 20.875C39.0282 22.1641 38.4032 23.2188 36.0751 25.3281L34.3564 27V27.0625L39.1845 27.0625V29H31.0907ZM44.9486 29.1563C42.5893 29.1563 40.8627 27.7656 40.8236 25.8125H43.1049C43.1596 26.6953 43.9643 27.3047 44.9486 27.2969C46.1205 27.3047 46.9564 26.4766 46.9486 25.2969C46.9564 24.0938 46.1049 23.2578 44.9174 23.25C44.0658 23.25 43.4721 23.5703 43.1361 24.2031H41.0111L41.6205 17.6875H48.5893V19.6094H43.558L43.2455 22.4688H43.3393C43.7533 21.9141 44.6127 21.5078 45.6049 21.5156C47.683 21.5078 49.2299 23.0625 49.2299 25.2344C49.2299 27.5234 47.4955 29.1563 44.9486 29.1563ZM62.2752 16.2344V26.6875H60.2909V22.0313H56.7596V20.4688H60.2909V19.375H56.7596V17.8125H60.2909V16.2344H62.2752ZM51.0877 24.8438V17.125H53.0565V23.2031C54.7909 23.1797 56.4315 23.0703 58.1971 22.75L58.4002 24.3594C56.2674 24.7656 54.3534 24.8359 52.2284 24.8438H51.0877ZM52.8221 30.1875V25.75H54.8221V28.5938H62.619V30.1875H52.8221ZM78.9598 16.2344V20.5938H80.8816V22.2188H78.9598V26.8438H76.9598V16.2344H78.9598ZM67.6785 19.2969V17.7188L70.9129 17.7188V16.2031H72.8973V17.7188H76.116V19.2969L67.6785 19.2969ZM68.366 22.5469C68.366 20.8984 69.8269 19.7969 71.8973 19.7969C73.9598 19.7969 75.3973 20.8984 75.3973 22.5469C75.3973 24.1875 73.9598 25.2656 71.8973 25.2656C69.8269 25.2656 68.366 24.1875 68.366 22.5469ZM69.741 30.1875V26.0313L71.7254 26.0313V28.5938H79.4754V30.1875H69.741ZM70.3191 22.5469C70.3113 23.3281 70.9441 23.75 71.8973 23.75C72.8582 23.75 73.5066 23.3281 73.5066 22.5469C73.5066 21.7578 72.8582 21.3203 71.8973 21.3125C70.9441 21.3203 70.3113 21.7578 70.3191 22.5469ZM92.9114 16.8438V17.9531C92.9192 19 92.9192 20.2031 92.6223 21.7344H94.4583V23.3281H88.927V25.375H92.927V30.4375H90.927V26.9375H82.7551V25.375H86.927V23.3281L81.4426 23.3281V21.7344L90.6067 21.7344C90.8723 20.3984 90.9114 19.3594 90.927 18.4219L83.0364 18.4219V16.8438L92.9114 16.8438ZM99.8161 17.1719C102.074 17.1641 103.746 18.6172 103.754 20.6563C103.746 22.7031 102.074 24.1484 99.8161 24.1563C97.5739 24.1484 95.8552 22.7031 95.863 20.6563C95.8552 18.6172 97.5739 17.1641 99.8161 17.1719ZM95.2692 25.9375C97.8083 25.9453 101.324 25.9141 104.363 25.4844L104.519 26.9219C101.363 27.5391 97.988 27.5625 95.5036 27.5625L95.2692 25.9375ZM97.8474 20.6563C97.8396 21.7813 98.6911 22.4297 99.8161 22.4219C100.949 22.4297 101.808 21.7813 101.816 20.6563C101.808 19.5469 100.949 18.8906 99.8161 18.8906C98.6911 18.8906 97.8396 19.5469 97.8474 20.6563ZM105.175 30.4688V16.2188H107.16V30.4688H105.175ZM125.563 22.6719V24.2813H120.063V25.3359C122.532 25.5156 124.001 26.4063 124.016 27.875C124.001 29.5234 122.133 30.4453 119.063 30.4375C115.946 30.4453 114.079 29.5234 114.079 27.875C114.079 26.3984 115.555 25.5078 118.079 25.3281V24.2813L112.594 24.2813V22.6719L125.563 22.6719ZM113.173 20.5781C115.805 20.3438 117.258 19.375 117.618 18.3906H113.782V16.8281H124.391V18.3906H120.524C120.868 19.3828 122.313 20.3438 125.016 20.5781L124.313 22.1406C121.626 21.8828 119.821 20.875 119.063 19.4922C118.313 20.8672 116.524 21.8906 113.829 22.1406L113.173 20.5781ZM116.11 27.875C116.102 28.5625 117.094 28.9375 119.063 28.9375C120.993 28.9375 122.008 28.5625 122.016 27.875C122.008 27.1563 120.993 26.8125 119.063 26.7969C117.094 26.8125 116.102 27.1563 116.11 27.875ZM139.358 22.9375V24.5H126.358V22.9375H131.89V21.7188H127.937V16.8438L137.796 16.8438V18.3906H129.921V20.1563H137.874V21.7188H133.843V22.9375H139.358ZM127.843 27.8438C127.843 26.1563 129.718 25.2188 132.827 25.2188C135.913 25.2188 137.765 26.1563 137.78 27.8438C137.765 29.5078 135.913 30.4531 132.827 30.4531C129.718 30.4531 127.843 29.5078 127.843 27.8438ZM129.874 27.8438C129.866 28.5859 130.858 28.9375 132.827 28.9375C134.757 28.9375 135.773 28.5859 135.78 27.8438C135.773 27.1094 134.757 26.7344 132.827 26.7344C130.858 26.7344 129.866 27.1094 129.874 27.8438ZM155.793 16.2344V26.9688H153.793V25.8438H151.074V24.4844H153.793V16.2344H155.793ZM143.699 22.5313C146.301 22.5156 149.816 22.4766 152.824 22.1094L152.934 23.5313C151.809 23.7188 150.645 23.8516 149.496 23.9375V26.6406H147.496V28.5938L156.105 28.5938V30.1875L145.512 30.1875V25.9375H147.496V24.0547C146.223 24.1016 145.012 24.1094 143.934 24.1094L143.699 22.5313ZM144.746 19.2656C144.746 17.75 146.207 16.7109 148.324 16.7188C150.387 16.7109 151.863 17.75 151.871 19.2656C151.863 20.7891 150.387 21.7734 148.324 21.7656C146.207 21.7734 144.746 20.7891 144.746 19.2656ZM146.637 19.2656C146.629 19.9531 147.309 20.3359 148.324 20.3281C149.277 20.3359 149.965 19.9531 149.98 19.2656C149.965 18.5625 149.277 18.1719 148.324 18.1719C147.309 18.1719 146.629 18.5625 146.637 19.2656ZM170.51 24.125V25.7344L167.463 25.7344V30.4375H165.432V25.7344H162.526V30.4375H160.479V25.7344L157.495 25.7344V24.125L170.51 24.125ZM158.807 19.9063C158.799 17.9453 160.909 16.6953 163.963 16.6875C167.018 16.6953 169.151 17.9453 169.151 19.9063C169.151 21.8203 167.018 23.0391 163.963 23.0313C160.909 23.0391 158.799 21.8203 158.807 19.9063ZM160.854 19.9063C160.846 20.9063 162.057 21.4609 163.963 21.4688C165.885 21.4609 167.088 20.9063 167.088 19.9063C167.088 18.8594 165.885 18.2891 163.963 18.2813C162.057 18.2891 160.846 18.8594 160.854 19.9063ZM186.492 22.5781V24.1563H182.367V27.1875H187.913V28.8125L174.898 28.8125V27.1875H180.382V24.1563H176.429V17.2188H186.382V18.8125H178.429V22.5781H186.492ZM200.568 16.2188V23.8594H198.568V16.2188L200.568 16.2188ZM188.881 20.1875C188.881 18.1875 190.553 16.7969 192.771 16.8125C194.982 16.7969 196.654 18.1875 196.662 20.1875C196.654 22.125 194.982 23.5156 192.771 23.5156C190.553 23.5156 188.881 22.125 188.881 20.1875ZM190.834 20.1875C190.818 21.2422 191.631 21.875 192.771 21.875C193.881 21.875 194.685 21.2422 194.693 20.1875C194.685 19.1172 193.881 18.4609 192.771 18.4688C191.631 18.4609 190.818 19.1172 190.834 20.1875ZM191.053 30.2813V24.4844H193.021V25.8125H198.584V24.4844H200.568V30.2813L191.053 30.2813ZM193.021 28.6719L198.584 28.6719V27.3594H193.021V28.6719ZM217.956 16.2188V30.4688H215.94V16.2188L217.956 16.2188ZM206.753 27.1406V17.3438H208.753V20.8125H211.815V17.3438H213.784V27.1406H206.753ZM208.753 25.5313H211.815V22.3594H208.753V25.5313ZM232.783 22.6719V24.2813H227.283V25.3359C229.751 25.5156 231.22 26.4063 231.236 27.875C231.22 29.5234 229.353 30.4453 226.283 30.4375C223.165 30.4453 221.298 29.5234 221.298 27.875C221.298 26.3984 222.775 25.5078 225.298 25.3281V24.2813H219.814V22.6719H232.783ZM220.392 20.5781C223.025 20.3438 224.478 19.375 224.837 18.3906H221.001V16.8281H231.611V18.3906H227.743C228.087 19.3828 229.533 20.3438 232.236 20.5781L231.533 22.1406C228.845 21.8828 227.04 20.875 226.283 19.4922C225.533 20.8672 223.743 21.8906 221.048 22.1406L220.392 20.5781ZM223.329 27.875C223.322 28.5625 224.314 28.9375 226.283 28.9375C228.212 28.9375 229.228 28.5625 229.236 27.875C229.228 27.1563 228.212 26.8125 226.283 26.7969C224.314 26.8125 223.322 27.1563 223.329 27.875Z" fill="#37474F"/>
<path d="M14.25 42H229.75" stroke="#455A64"/>
<rect x="12" y="58" width="220" height="30" rx="4" fill="#CFD8DC"/>
<rect x="12" y="58" width="154" height="30" rx="4" fill="#02A39E" fill-opacity="0.5"/>
<rect x="12" y="58" width="154" height="30" rx="4" fill="#02A39E"/>
<path d="M34.9941 72.3594V73.2617H30.752V74.2695C32.6797 74.375 33.8223 75.0254 33.8223 76.1211C33.8223 77.3164 32.4629 77.9844 30.2012 77.9727C27.916 77.9844 26.5566 77.3164 26.5566 76.1211C26.5566 75.0254 27.6992 74.375 29.6504 74.2695V73.2617H25.4199V72.3594H34.9941ZM30.2012 75.1133C28.5957 75.1133 27.6816 75.4766 27.6816 76.1211C27.6816 76.7539 28.5957 77.1289 30.2012 77.1172C31.7832 77.1289 32.709 76.7539 32.709 76.1211C32.709 75.4766 31.7832 75.1133 30.2012 75.1133ZM34.1387 67.9766V68.8672H30.9512C31.1094 69.8809 32.5859 70.7422 34.502 70.9297L34.1035 71.8086C32.2871 71.5977 30.7812 70.8301 30.2129 69.7109C29.627 70.8301 28.127 71.5977 26.3105 71.8086L25.9238 70.9297C27.8105 70.7422 29.293 69.8809 29.4512 68.8672H26.2988V67.9766H34.1387ZM44.877 72.6055V73.4961H35.291V72.6055H39.5449V71.4922H36.4863V67.9766H43.6934V68.8555H37.5879V70.6016H43.7637V71.4922H40.623V72.6055H44.877ZM40.0723 74.1758C42.334 74.1758 43.6934 74.8672 43.6934 76.0859C43.6934 77.3047 42.334 77.9844 40.0723 77.9961C37.7988 77.9844 36.4277 77.3047 36.4277 76.0859C36.4277 74.8672 37.7988 74.1758 40.0723 74.1758ZM40.0723 75.043C38.4668 75.043 37.5527 75.418 37.5527 76.0859C37.5527 76.7539 38.4668 77.1289 40.0723 77.1172C41.6543 77.1289 42.5801 76.7539 42.5801 76.0859C42.5801 75.418 41.6543 75.043 40.0723 75.043ZM56.3223 67.5078V75.4648H55.209V74.457H53.0996V73.6719H55.209V67.5078H56.3223ZM56.5801 76.8711V77.7734H48.998V74.6914H50.0996V76.8711H56.5801ZM47.5449 72.3008C49.4902 72.2891 52.1035 72.2656 54.3418 71.9844L54.4121 72.7812C53.5156 72.9277 52.5723 73.0273 51.6465 73.0859V75.1367H50.5332V73.1445C49.5137 73.1914 48.5352 73.1973 47.6855 73.1914L47.5449 72.3008ZM50.9785 67.9062C52.5137 67.9062 53.5801 68.6445 53.5801 69.7578C53.5801 70.8711 52.5137 71.5859 50.9785 71.5859C49.4199 71.5859 48.3652 70.8711 48.3652 69.7578C48.3652 68.6445 49.4199 67.9062 50.9785 67.9062ZM50.9785 68.7383C50.041 68.7266 49.4082 69.125 49.4199 69.7578C49.4082 70.3789 50.041 70.7656 50.9785 70.7656C51.8809 70.7656 52.5137 70.3789 52.5254 69.7578C52.5137 69.125 51.8809 68.7266 50.9785 68.7383ZM67.0605 73.4258V74.3398H64.623V77.9961H63.498V74.3398H60.9902V77.9961H59.8418V74.3398H57.4512V73.4258H67.0605ZM62.2324 67.8945C64.4473 67.8945 65.9707 68.7969 65.9707 70.2148C65.9707 71.6094 64.4473 72.5 62.2324 72.4883C60.0059 72.5 58.4941 71.6094 58.4941 70.2148C58.4941 68.7969 60.0059 67.8945 62.2324 67.8945ZM62.2324 68.7852C60.6738 68.7969 59.6309 69.3359 59.6426 70.2148C59.6309 71.0703 60.6738 71.6094 62.2324 71.6094C63.791 71.6094 64.834 71.0703 64.834 70.2148C64.834 69.3359 63.791 68.7969 62.2324 68.7852ZM78.2715 72.3359V73.2266H75.0957V75.793H79.373V76.707H69.7637V75.793H73.9941V73.2266H70.959V68.3047H78.1777V69.207H72.0723V72.3359H78.2715ZM88.3418 67.4961V73.1328H87.2285V67.4961H88.3418ZM82.5645 73.6367V74.8203H87.2402V73.6367H88.3418V77.8672H81.4746V73.6367H82.5645ZM82.5645 76.9531H87.2402V75.6992H82.5645V76.9531ZM82.6465 67.9766C84.252 67.9766 85.4355 68.9727 85.4355 70.4141C85.4355 71.8555 84.252 72.8516 82.6465 72.8398C81.041 72.8516 79.8457 71.8555 79.8457 70.4141C79.8457 68.9727 81.041 67.9766 82.6465 67.9766ZM82.6465 68.9141C81.6504 68.9023 80.9355 69.5234 80.9355 70.4141C80.9355 71.3164 81.6504 71.9258 82.6465 71.9258C83.6309 71.9258 84.3457 71.3164 84.3457 70.4141C84.3457 69.5234 83.6309 68.9023 82.6465 68.9141ZM100.631 67.4961V78.0195H99.5176V67.4961H100.631ZM93.6348 68.375V71.0703H96.459V68.375H97.5605V75.5H92.5215V68.375H93.6348ZM93.6348 74.5859H96.459V71.9492H93.6348V74.5859ZM111.381 72.3594V73.2617H107.139V74.2695C109.066 74.375 110.209 75.0254 110.209 76.1211C110.209 77.3164 108.85 77.9844 106.588 77.9727C104.303 77.9844 102.943 77.3164 102.943 76.1211C102.943 75.0254 104.086 74.375 106.037 74.2695V73.2617H101.807V72.3594H111.381ZM106.588 75.1133C104.982 75.1133 104.068 75.4766 104.068 76.1211C104.068 76.7539 104.982 77.1289 106.588 77.1172C108.17 77.1289 109.096 76.7539 109.096 76.1211C109.096 75.4766 108.17 75.1133 106.588 75.1133ZM110.525 67.9766V68.8672H107.338C107.496 69.8809 108.973 70.7422 110.889 70.9297L110.49 71.8086C108.674 71.5977 107.168 70.8301 106.6 69.7109C106.014 70.8301 104.514 71.5977 102.697 71.8086L102.311 70.9297C104.197 70.7422 105.68 69.8809 105.838 68.8672H102.686V67.9766H110.525ZM114.74 73.7656C114.752 71.5625 115.373 69.7227 116.475 68.1523H117.623C116.814 69.3125 116.041 71.6797 116.041 73.7656C116.041 75.8633 116.814 78.2188 117.623 79.3906H116.475C115.373 77.8203 114.752 75.9805 114.74 73.7656ZM118.553 77L122.338 69.6875V69.6172H117.967V68.5156H123.674V69.6641L119.9 77H118.553ZM127.24 77.1172C125.271 77.1172 124.123 75.5352 124.123 72.7578C124.123 70.0039 125.295 68.3984 127.24 68.3984C129.186 68.3984 130.357 70.0039 130.357 72.7578C130.357 75.5352 129.197 77.1172 127.24 77.1172ZM127.24 76.0039C128.389 76.0039 129.068 74.8789 129.068 72.7578C129.068 70.6484 128.377 69.4883 127.24 69.4883C126.104 69.4883 125.412 70.6484 125.412 72.7578C125.412 74.8789 126.092 76.0039 127.24 76.0039ZM133.139 72.5469C131.979 72.5586 131.346 71.6914 131.357 70.4375C131.346 69.1953 132.002 68.3398 133.139 68.3398C134.299 68.3398 134.92 69.1953 134.92 70.4375C134.92 71.7031 134.275 72.5586 133.139 72.5469ZM133.139 71.7266C133.689 71.7266 133.947 71.2109 133.947 70.4375C133.947 69.6758 133.701 69.1602 133.139 69.1602C132.6 69.1719 132.318 69.6758 132.318 70.4375C132.318 71.2109 132.588 71.7266 133.139 71.7266ZM138.494 77.1758C137.334 77.1758 136.701 76.3203 136.713 75.0664C136.701 73.8125 137.369 72.957 138.494 72.957C139.654 72.957 140.275 73.8125 140.275 75.0664C140.275 76.3203 139.631 77.1758 138.494 77.1758ZM138.494 76.3438C139.045 76.3438 139.303 75.8281 139.303 75.0664C139.303 74.293 139.057 73.7773 138.494 73.7773C137.955 73.7891 137.674 74.3047 137.674 75.0664C137.674 75.8281 137.955 76.3438 138.494 76.3438ZM132.318 77L138.143 68.5156H139.209L133.385 77H132.318ZM143.947 73.7656C143.936 75.9805 143.314 77.8203 142.213 79.3906H141.064C141.873 78.2188 142.646 75.8633 142.646 73.7656C142.646 71.6797 141.873 69.3125 141.064 68.1523H142.213C143.314 69.7227 143.936 71.5625 143.947 73.7656Z" fill="white"/>
</svg>
