<svg width="240" height="144" viewBox="0 0 240 144" fill="none" xmlns="http://www.w3.org/2000/svg">
<mask id="mask0_593_14924" style="mask-type:alpha" maskUnits="userSpaceOnUse" x="94" y="12" width="24" height="16">
<rect x="94" y="12" width="24" height="16" rx="2" fill="#D9D9D9"/>
</mask>
<g mask="url(#mask0_593_14924)">
<path d="M94.0142 20.6207C94.0142 17.7938 94.0142 14.9599 94.0142 12.1329C94.0142 12.021 94.0351 12 94.1401 12C98.1286 12 102.117 12 106.106 12C106.106 12.4128 106.106 12.8187 106.106 13.2315C106.106 13.6444 106.106 14.0502 106.106 14.4631C106.106 14.8759 106.106 15.2817 106.106 15.6946C106.106 16.1004 106.106 16.5133 106.106 16.9191C106.106 17.332 106.106 17.7378 106.106 18.1507C106.106 18.5635 106.106 18.9693 106.106 19.3822C106.106 19.795 106.106 20.2009 106.106 20.6137C106.043 20.6137 105.98 20.6137 105.917 20.6137C101.949 20.6137 97.9816 20.6137 94.0142 20.6137V20.6207ZM98.8143 18.4166C98.9613 18.2486 99.1152 18.1856 99.3181 18.3956C99.1782 18.1437 99.2971 18.0107 99.5001 17.8848C99.2062 17.9757 99.1082 17.8218 99.0522 17.5699C99.0382 17.8638 98.8843 17.9407 98.6394 17.8988C98.6814 17.9477 98.7164 17.9827 98.7513 17.9967C98.8703 18.0527 98.8913 18.1367 98.8353 18.2556C98.8143 18.3046 98.7723 18.3536 98.8143 18.4166ZM101.312 18.4166C101.333 18.3956 101.333 18.3676 101.319 18.3466C101.2 18.1507 101.291 18.0317 101.466 17.9337C101.466 17.9337 101.466 17.9197 101.48 17.8848C101.214 17.9687 101.109 17.8148 101.067 17.5629C101.018 17.6888 101.004 17.8148 100.935 17.8638C100.865 17.9127 100.746 17.8918 100.62 17.8988C100.718 17.9687 100.816 18.0177 100.858 18.0877C100.9 18.1716 100.816 18.2626 100.795 18.3606C100.851 18.3886 100.893 18.3606 100.921 18.3256C101.025 18.2136 101.116 18.2416 101.207 18.3326C101.235 18.3606 101.27 18.3816 101.305 18.4096L101.312 18.4166ZM104.832 18.4166C104.979 18.2486 105.133 18.1926 105.336 18.3956C105.196 18.1437 105.315 18.0107 105.511 17.8918C105.224 17.9687 105.119 17.8288 105.084 17.5839C105.035 17.6888 105.021 17.8008 104.958 17.8638C104.888 17.9337 104.762 17.8638 104.65 17.9127C104.699 17.9477 104.727 17.9827 104.769 18.0037C104.888 18.0597 104.902 18.1437 104.853 18.2626C104.832 18.3116 104.79 18.3676 104.839 18.4236C104.839 18.4236 104.839 18.4236 104.832 18.4236C104.832 18.4236 104.832 18.4236 104.839 18.4236L104.832 18.4166ZM95.3017 18.4166C95.3017 18.4026 95.3227 18.3816 95.3157 18.3746C95.1967 18.1647 95.2877 18.0247 95.4836 17.8778C95.1827 17.9897 95.1057 17.8008 95.0428 17.5769C95.0218 17.8498 94.8818 17.9477 94.6089 17.9057C94.8818 18.0177 94.8888 18.1926 94.7559 18.4305C94.9705 18.2999 95.1524 18.2953 95.3017 18.4166ZM100.305 15.8205C100.305 15.8205 100.319 15.8205 100.333 15.8135C100.333 15.8135 100.333 15.8135 100.333 15.8065C100.326 15.8135 100.319 15.8205 100.312 15.8275C100.312 15.8066 100.333 15.7856 100.326 15.7716C100.207 15.5616 100.291 15.4217 100.487 15.3237C100.487 15.3237 100.487 15.3167 100.487 15.2887C100.249 15.3447 100.095 15.2608 100.067 14.9739C100.046 15.2678 99.8849 15.3377 99.598 15.2817C99.682 15.3447 99.717 15.3797 99.759 15.4007C99.8779 15.4567 99.8919 15.5407 99.8429 15.6526C99.8219 15.7016 99.78 15.7506 99.8219 15.8135C99.8219 15.8135 99.8149 15.7996 99.808 15.7926L99.794 15.8065C99.794 15.8065 99.8079 15.8065 99.8219 15.8065C99.9945 15.6759 100.158 15.6759 100.312 15.8065L100.305 15.8205ZM104.811 16.6602C104.979 16.5483 105.14 16.4783 105.329 16.6602C105.196 16.4293 105.287 16.2754 105.518 16.1564C105.231 16.2334 105.112 16.1074 105.07 15.8415C105.035 16.1144 104.895 16.2194 104.636 16.1564C104.72 16.2404 104.818 16.2824 104.867 16.3593C104.923 16.4503 104.804 16.5483 104.818 16.6602C104.818 16.6602 104.804 16.6672 104.804 16.6742C104.804 16.6742 104.811 16.6742 104.818 16.6742C104.818 16.6742 104.818 16.6602 104.818 16.6532L104.811 16.6602ZM101.326 16.6602C101.326 16.6602 101.326 16.6742 101.333 16.6742V16.6672C101.333 16.6672 101.326 16.6672 101.319 16.6672C101.221 16.4573 101.27 16.2964 101.487 16.1914C101.487 16.1914 101.487 16.1844 101.487 16.1564C101.228 16.2474 101.109 16.1074 101.053 15.8555C101.032 16.1424 100.879 16.2124 100.627 16.1774C100.844 16.2964 100.949 16.4433 100.774 16.6812C100.914 16.6602 100.97 16.5343 101.067 16.5273C101.165 16.5273 101.221 16.6602 101.333 16.6672L101.326 16.6602ZM98.8003 16.6602C98.9683 16.5413 99.1292 16.4853 99.3251 16.6602C99.1922 16.4293 99.2832 16.2754 99.5001 16.1564C99.2272 16.2124 99.0872 16.1144 99.0662 15.8345C99.0312 16.1144 98.8843 16.2124 98.6114 16.1704C98.8773 16.2684 98.8913 16.4363 98.8003 16.6462C98.8003 16.6462 98.8003 16.6532 98.8003 16.6602C98.8003 16.6602 98.7863 16.6672 98.7863 16.6742C98.7863 16.6742 98.7933 16.6742 98.8003 16.6742C98.8003 16.6742 98.8003 16.6602 98.8003 16.6532V16.6602ZM95.3087 16.6602C95.3087 16.6602 95.3087 16.6742 95.3157 16.6742V16.6672C95.3157 16.6672 95.3087 16.6672 95.3017 16.6672C95.1967 16.4503 95.2737 16.2964 95.4766 16.1564C95.2037 16.2404 95.0847 16.1004 95.0358 15.8485C95.0148 16.1354 94.8608 16.2054 94.5739 16.1494C94.6999 16.2474 94.8119 16.3034 94.8398 16.3803C94.8678 16.4573 94.7979 16.5693 94.7629 16.6952C94.8748 16.6182 94.9518 16.5343 95.0358 16.5203C95.1337 16.5063 95.1897 16.6532 95.3017 16.6602H95.3087ZM94.8049 13.2105C94.9658 13.0706 95.1267 13.0286 95.2877 13.2105C95.2877 13.2105 95.3017 13.2105 95.3367 13.2105C95.1757 12.9796 95.2527 12.8187 95.4906 12.6927C95.2037 12.7767 95.0917 12.6298 95.0498 12.3639C94.9868 12.4898 95.0008 12.6228 94.9168 12.6787C94.8398 12.7277 94.7209 12.6717 94.5809 12.7207C94.8538 12.8047 94.8958 12.9656 94.7839 13.1756C94.7839 13.1756 94.7979 13.1895 94.7979 13.1965C94.7909 13.1965 94.7839 13.1965 94.7769 13.1965C94.7769 13.1965 94.7769 13.2105 94.7769 13.2175C94.7769 13.2175 94.7839 13.2035 94.7909 13.1965L94.8049 13.2105ZM101.326 13.2035C101.326 13.2035 101.333 13.2105 101.34 13.2175V13.2105C101.34 13.2105 101.333 13.2105 101.326 13.2105C101.221 12.9936 101.291 12.8327 101.501 12.6997C101.235 12.7697 101.102 12.6508 101.06 12.3849C101.039 12.6787 100.886 12.7557 100.62 12.7137C100.893 12.8257 100.914 13.0076 100.788 13.2455C100.963 13.0356 101.137 13.0356 101.312 13.2105C101.312 13.2105 101.319 13.2105 101.326 13.2105V13.2035ZM98.8003 20.1099C98.9683 20.0049 99.1292 19.928 99.3041 20.1099C99.3391 20.0049 99.2202 19.914 99.2622 19.823C99.3041 19.7321 99.4301 19.7111 99.5071 19.5851C99.2202 19.6831 99.1082 19.5501 99.0802 19.2632C99.0242 19.4102 99.0103 19.5361 98.9403 19.5851C98.8703 19.6341 98.7444 19.6061 98.6464 19.6131C98.8983 19.7181 98.8913 19.9 98.8073 20.1099C98.8073 20.1099 98.8003 20.1239 98.7933 20.1239C98.7933 20.1239 98.8003 20.1239 98.8073 20.1239C98.8073 20.1239 98.8073 20.1099 98.8073 20.1029L98.8003 20.1099ZM104.811 20.1099C104.979 20.0049 105.14 19.928 105.329 20.1099C105.196 19.879 105.301 19.7321 105.518 19.6201C105.378 19.5921 105.259 19.6481 105.189 19.5851C105.126 19.5221 105.112 19.4032 105.07 19.2912C105.028 19.4032 105.014 19.5291 104.937 19.5851C104.867 19.6341 104.741 19.6061 104.643 19.6131C104.895 19.7181 104.888 19.9 104.804 20.1029L104.79 20.1169C104.79 20.1169 104.797 20.1169 104.804 20.1169C104.804 20.1169 104.804 20.1029 104.804 20.0959L104.811 20.1099ZM95.3087 20.1099C95.3087 20.1099 95.3087 20.1239 95.3087 20.1309V20.1239C95.3087 20.1239 95.3017 20.1239 95.2947 20.1169C95.2107 19.914 95.2247 19.746 95.4486 19.6481C95.4486 19.6481 95.4486 19.6271 95.4486 19.5991C95.1897 19.6901 95.0848 19.5361 95.0288 19.2982C95.0078 19.5711 94.8608 19.6621 94.5949 19.6201C94.8678 19.7391 94.8818 19.921 94.7629 20.1589C94.9308 19.949 95.0987 19.935 95.2737 20.1169C95.2737 20.1169 95.2947 20.1169 95.3017 20.1169L95.3087 20.1099ZM101.326 20.1099C101.326 20.1099 101.326 20.1239 101.326 20.1309V20.1239C101.326 20.1239 101.319 20.1239 101.312 20.1169C101.221 19.914 101.249 19.746 101.466 19.6481C101.466 19.6481 101.466 19.6271 101.466 19.5921C101.186 19.7181 101.109 19.5221 101.039 19.2982C101.039 19.6061 100.865 19.6551 100.62 19.6271C100.851 19.7391 100.928 19.893 100.767 20.1239C100.907 20.1099 100.963 19.984 101.053 19.977C101.151 19.977 101.2 20.1169 101.319 20.1169L101.326 20.1099ZM101.319 14.9599C101.319 14.9389 101.333 14.9179 101.326 14.9039C101.207 14.694 101.291 14.561 101.48 14.4701C101.48 14.4701 101.48 14.4561 101.48 14.4281C101.221 14.512 101.109 14.3721 101.074 14.0922C101.018 14.2322 101.011 14.3441 100.949 14.4071C100.879 14.4841 100.746 14.4071 100.641 14.4491C100.725 14.512 100.83 14.561 100.872 14.638C100.914 14.722 100.823 14.8129 100.809 14.9039C100.858 14.9249 100.9 14.9039 100.928 14.8759C101.039 14.75 101.144 14.7849 101.242 14.8899C101.27 14.9179 101.298 14.9389 101.326 14.9599H101.319ZM95.3017 14.9599C95.3017 14.9389 95.3227 14.9179 95.3157 14.9039C95.2037 14.694 95.2807 14.561 95.4696 14.4701C95.4696 14.4701 95.4696 14.4561 95.4696 14.4281C95.2107 14.512 95.0987 14.3791 95.0498 14.1202C95.0218 14.3931 94.8818 14.498 94.6159 14.4421C94.8189 14.561 94.9518 14.687 94.7769 14.9109C94.8468 14.9389 94.8888 14.9109 94.9168 14.8759C95.0148 14.7709 95.0987 14.7849 95.1967 14.8759C95.2317 14.9109 95.2667 14.9319 95.3087 14.9669L95.3017 14.9599ZM95.6165 17.0381C95.8754 17.143 95.9034 17.318 95.7495 17.5699C95.8824 17.4859 95.9664 17.3879 96.0574 17.3809C96.1413 17.3809 96.2253 17.4789 96.3163 17.5349C96.3163 17.4159 96.2113 17.318 96.2533 17.234C96.2953 17.15 96.4002 17.1011 96.4772 17.0381C96.2043 17.0871 96.0924 16.9541 96.0644 16.6672C95.9851 16.8958 95.8358 17.0194 95.6165 17.0381ZM102.544 17.0451C102.383 17.0031 102.257 17.0661 102.18 16.9961C102.103 16.9331 102.124 16.8002 102.047 16.6952C102.047 16.9821 101.893 17.0801 101.62 17.0311C101.893 17.143 101.914 17.318 101.795 17.5559C101.977 17.353 102.152 17.339 102.341 17.5559C102.222 17.318 102.25 17.15 102.551 17.0451H102.544ZM104.524 17.0241C104.305 17.0241 104.149 16.9075 104.055 16.6742C104.041 16.9751 103.901 17.0801 103.629 17.0311C103.887 17.143 103.915 17.318 103.782 17.5699C103.908 17.4859 103.992 17.3879 104.076 17.3879C104.16 17.3879 104.244 17.4929 104.349 17.5559C104.321 17.4369 104.251 17.325 104.279 17.241C104.307 17.157 104.426 17.1081 104.531 17.0241H104.524ZM97.051 14.1132C97.023 14.3931 96.8761 14.4841 96.6102 14.4421C96.8691 14.554 96.9041 14.722 96.7781 14.9599C96.967 14.757 97.135 14.757 97.3239 14.9599C97.177 14.715 97.2539 14.561 97.4848 14.4421C97.2049 14.498 97.079 14.3791 97.044 14.1132H97.051ZM102.628 14.4491C102.915 14.554 102.894 14.743 102.803 14.9739C102.985 14.729 103.16 14.7779 103.342 14.9599C103.216 14.722 103.251 14.554 103.51 14.4421C103.23 14.498 103.104 14.3791 103.069 14.1062C103.034 14.3651 102.915 14.498 102.628 14.4421V14.4491ZM98.0586 16.6882C98.0376 16.9821 97.8907 17.0731 97.6178 17.0241C97.8697 17.143 97.9187 17.311 97.7927 17.5629C97.9816 17.311 98.1496 17.3809 98.3385 17.5489C98.1776 17.304 98.2685 17.143 98.5064 17.0241C98.2266 17.0801 98.0866 16.9751 98.0586 16.6882ZM101.795 14.0992C101.984 13.8963 102.152 13.8893 102.341 14.0992C102.201 13.8543 102.278 13.6934 102.516 13.5674C102.229 13.6374 102.11 13.5044 102.068 13.2385C102.047 13.5254 101.907 13.6234 101.627 13.5674C101.879 13.6864 101.942 13.8543 101.802 14.0992H101.795ZM96.5332 13.5744C96.3723 13.5604 96.2463 13.5884 96.1763 13.5394C96.1064 13.4834 96.0924 13.3575 96.0364 13.2035C96.0294 13.5184 95.8894 13.6234 95.6025 13.5674C95.8964 13.6724 95.8964 13.8613 95.7635 14.1062C95.8894 14.0222 95.9734 13.9383 96.0644 13.9243C96.1553 13.9103 96.2183 14.0432 96.3653 14.0852C96.1623 13.8333 96.2813 13.6934 96.5332 13.5744ZM97.6178 13.5744C97.8767 13.6864 97.9047 13.8613 97.7857 14.0992C97.9747 13.8963 98.1496 13.8963 98.3385 14.0992C98.1776 13.8473 98.2755 13.6864 98.4994 13.5604C98.2126 13.6374 98.1006 13.5044 98.0516 13.2455C98.0306 13.5324 97.8837 13.6234 97.6178 13.5744ZM103.803 14.0992C103.992 13.8683 104.16 13.9243 104.356 14.0992C104.188 13.8473 104.3 13.7004 104.524 13.5674C104.23 13.6514 104.118 13.5114 104.076 13.2525C104.048 13.5324 103.908 13.6304 103.635 13.5814C103.88 13.7004 103.943 13.8613 103.81 14.1062L103.803 14.0992ZM103.356 20.1519C103.181 19.9 103.293 19.746 103.517 19.5991C103.209 19.7111 103.125 19.5221 103.069 19.2912C103.048 19.5711 102.901 19.6621 102.628 19.6201C102.908 19.7251 102.908 19.907 102.81 20.1449C102.999 19.921 103.167 19.949 103.356 20.1449V20.1519ZM97.3309 20.1449C97.1839 19.893 97.2749 19.7391 97.5058 19.6061C97.1979 19.7041 97.107 19.5361 97.058 19.2912C97.03 19.5641 96.8971 19.6761 96.6172 19.6201C96.8831 19.7321 96.9041 19.914 96.7921 20.1449C96.974 19.949 97.142 19.921 97.3379 20.1449H97.3309ZM102.796 16.6952C102.985 16.4923 103.153 16.4853 103.342 16.6952C103.202 16.4503 103.272 16.2824 103.517 16.1564C103.223 16.2404 103.104 16.1004 103.062 15.8345C103.034 16.1074 102.894 16.2194 102.614 16.1634C102.873 16.2824 102.915 16.4503 102.789 16.6952H102.796ZM99.626 13.5674C99.8709 13.6934 99.9269 13.8613 99.78 14.1062C99.9689 13.8963 100.144 13.8893 100.34 14.1062C100.172 13.8543 100.263 13.7004 100.494 13.5744C100.228 13.6234 100.088 13.5324 100.053 13.2595C100.011 13.5254 99.8919 13.6374 99.619 13.5744L99.626 13.5674ZM98.8003 14.9529C98.9683 14.7709 99.1292 14.75 99.3181 14.9389C99.1922 14.694 99.2901 14.554 99.5001 14.4421C99.2272 14.498 99.0942 14.3931 99.0662 14.1202C99.0312 14.3931 98.8913 14.4911 98.6184 14.4491C98.8843 14.554 98.9053 14.729 98.8003 14.9599V14.9529ZM105.511 14.4421C105.245 14.498 105.105 14.3931 105.098 14.1132C105.007 14.2182 105.035 14.3511 104.951 14.4141C104.874 14.4771 104.748 14.4141 104.615 14.4631C104.895 14.554 104.916 14.729 104.811 14.9599C104.979 14.7709 105.14 14.7569 105.343 14.9389C105.161 14.673 105.329 14.561 105.511 14.4421ZM97.3239 16.7092C97.3239 16.5553 97.2189 16.4643 97.2609 16.3663C97.2959 16.2754 97.4289 16.2544 97.5058 16.1354C97.2189 16.2264 97.093 16.1004 97.058 15.8275C97.037 16.1214 96.8831 16.2054 96.6102 16.1704C96.8901 16.2754 96.8971 16.4573 96.7921 16.6952C96.974 16.4783 97.149 16.4923 97.3239 16.7092ZM100.06 16.7162C100.039 17.0101 99.8709 17.0591 99.626 17.0381C99.8639 17.15 99.9409 17.297 99.787 17.5349C99.9689 17.3879 100.137 17.339 100.326 17.5349C100.158 17.276 100.326 17.157 100.494 17.0241C100.228 17.0871 100.095 16.9821 100.053 16.7162H100.06ZM99.5211 12.6787C99.2272 12.7697 99.0942 12.6577 99.0732 12.3639C99.0173 12.5108 99.0033 12.6368 98.9333 12.6857C98.8633 12.7347 98.7374 12.7067 98.6394 12.7067C98.9123 12.8117 98.8913 13.0076 98.7933 13.2385C98.9823 13.0146 99.1572 13.0286 99.3321 13.2385C99.3111 13.1196 99.2482 13.0146 99.2622 12.9236C99.2762 12.8257 99.4231 12.8047 99.5281 12.6717L99.5211 12.6787ZM104.797 13.2455C104.986 13.0146 105.168 13.0426 105.357 13.2455C105.203 13.0006 105.266 12.8397 105.518 12.7137C105.252 12.7627 105.105 12.6717 105.077 12.3919C105.035 12.6647 104.909 12.7767 104.629 12.7137C104.888 12.8327 104.93 13.0076 104.797 13.2525V13.2455ZM96.6102 12.7067C96.8551 12.8257 96.9111 12.9866 96.7851 13.2245C96.8901 13.1686 96.974 13.0636 97.051 13.0636C97.135 13.0636 97.2189 13.1616 97.3029 13.2175C97.17 12.9796 97.2679 12.8257 97.5058 12.7137C97.3659 12.6857 97.2399 12.7487 97.17 12.6717C97.107 12.6088 97.093 12.4898 97.037 12.3429C97.016 12.6438 96.8971 12.7697 96.6102 12.7067ZM102.803 13.2315C102.901 13.1616 102.985 13.0636 103.062 13.0636C103.153 13.0636 103.237 13.1616 103.335 13.2175C103.335 13.0986 103.23 13.0006 103.272 12.9097C103.314 12.8257 103.419 12.7767 103.496 12.7137C103.223 12.7627 103.097 12.6438 103.062 12.3639C103.041 12.6508 102.894 12.7487 102.593 12.6787C102.712 12.7767 102.831 12.8257 102.859 12.9027C102.887 12.9866 102.824 13.0986 102.796 13.2245L102.803 13.2315ZM97.7577 19.2772C97.9047 19.2352 97.9676 19.1023 98.0656 19.1163C98.1566 19.1303 98.2336 19.2212 98.3105 19.2772C98.1636 19.0393 98.2685 18.8854 98.4924 18.7594C98.2126 18.8294 98.0936 18.6964 98.0516 18.4375C98.0236 18.7174 97.8837 18.8224 97.6108 18.7664C97.8487 18.8784 97.9257 19.0323 97.7577 19.2842V19.2772ZM101.788 19.2912C101.97 19.0743 102.145 19.0813 102.334 19.2772C102.18 19.0253 102.285 18.8784 102.509 18.7524C102.222 18.8224 102.103 18.6964 102.061 18.4236C102.04 18.7174 101.893 18.8084 101.62 18.7664C101.893 18.8784 101.914 19.0533 101.788 19.2982V19.2912ZM99.633 18.7524C99.801 18.9017 99.8499 19.0813 99.78 19.2912C99.8849 19.2212 99.9549 19.1373 100.039 19.1163C100.144 19.0883 100.2 19.2352 100.333 19.2562C100.193 19.0253 100.263 18.8714 100.501 18.7594C100.228 18.8154 100.088 18.7174 100.053 18.4375C100.018 18.7104 99.8849 18.8154 99.626 18.7524H99.633ZM95.7845 19.2912C95.9664 19.0533 96.1344 19.0883 96.3303 19.2772C96.1833 19.0323 96.2743 18.8784 96.5052 18.7524C96.2183 18.8294 96.0994 18.6895 96.0504 18.4305C96.0224 18.7104 95.8824 18.8014 95.6165 18.7594C95.8824 18.8714 95.9174 19.0463 95.7915 19.2912H95.7845ZM104.062 14.9669C104.062 15.2818 103.88 15.3307 103.621 15.3097C103.908 15.4077 103.908 15.5896 103.803 15.8205C103.992 15.5966 104.16 15.6386 104.349 15.8205C104.202 15.5826 104.265 15.4147 104.517 15.2957C104.237 15.3587 104.118 15.2328 104.069 14.9669H104.062ZM102.509 15.3027C102.383 15.2957 102.25 15.3237 102.187 15.2678C102.117 15.2118 102.11 15.0788 102.075 14.9879C102.04 15.2468 101.907 15.3587 101.627 15.3027C101.893 15.4147 101.921 15.5896 101.802 15.8345C101.984 15.5966 102.152 15.6316 102.334 15.8345C102.292 15.606 102.353 15.4287 102.516 15.3027H102.509ZM98.4994 15.3027C98.2265 15.3517 98.0866 15.2468 98.0516 14.9599C98.0516 15.2678 97.8837 15.3447 97.6178 15.3027C97.8557 15.4217 97.9257 15.5756 97.7857 15.8205C97.9747 15.6106 98.1496 15.6316 98.3315 15.8205C98.1846 15.5756 98.2545 15.4217 98.4924 15.3027H98.4994ZM96.3233 15.8135C96.2953 15.6946 96.2323 15.5896 96.2603 15.5127C96.2883 15.4287 96.4072 15.3797 96.4842 15.3167C96.2113 15.3727 96.0994 15.2328 96.0504 14.9739C96.0294 15.2608 95.8824 15.3517 95.6096 15.3097C95.8824 15.4217 95.9034 15.5966 95.7565 15.8345C95.9571 15.7133 96.1437 15.7063 96.3163 15.8135H96.3233ZM103.496 17.8918C103.23 17.9547 103.104 17.8288 103.069 17.5629C103.048 17.8428 102.894 17.9337 102.635 17.9057C102.929 18.0037 102.901 18.1926 102.81 18.4166C102.992 18.1926 103.16 18.2276 103.342 18.4305C103.295 18.202 103.346 18.0224 103.496 17.8918ZM104.062 18.4375C104.034 18.6964 103.908 18.8224 103.621 18.7594C103.873 18.8714 103.922 19.0393 103.803 19.2842C103.985 19.0743 104.146 19.0883 104.328 19.2842C104.195 19.0393 104.279 18.8854 104.524 18.7804C104.291 18.7524 104.137 18.6405 104.062 18.4445V18.4375ZM96.7851 18.4166C96.974 18.2136 97.142 18.2066 97.3309 18.4166C97.1979 18.1786 97.2539 18.0107 97.4988 17.8848C97.1979 17.9687 97.107 17.8078 97.058 17.5629C97.03 17.8288 96.8971 17.9477 96.6172 17.8988C96.8971 18.0037 96.8971 18.1856 96.7851 18.4166Z" fill="#022765"/>
<path d="M94.0142 20.6207C97.9816 20.6207 101.949 20.6207 105.917 20.6207C105.98 20.6207 106.043 20.6207 106.106 20.6207C106.162 20.6207 106.217 20.6207 106.28 20.6207C107.729 20.6207 109.177 20.6207 110.619 20.6207C115.16 20.6207 119.701 20.6207 124.243 20.6207V21.8593C124.187 21.8593 124.131 21.8593 124.068 21.8593C114.111 21.8593 104.146 21.8593 94.1891 21.8593C94.1331 21.8593 94.0771 21.8593 94.0142 21.8593V20.6207Z" fill="#FEFDFD"/>
<path d="M94.0142 26.7644C94.0142 26.3516 94.0142 25.9387 94.0142 25.5259C94.0771 25.5259 94.1401 25.5259 94.2031 25.5259C104.153 25.5259 114.104 25.5259 124.054 25.5259C124.117 25.5259 124.18 25.5259 124.243 25.5259V26.7644C124.194 26.7644 124.152 26.7644 124.103 26.7644C114.124 26.7644 104.139 26.7644 94.1611 26.7644C94.1121 26.7644 94.0701 26.7644 94.0212 26.7644H94.0142Z" fill="#FEFDFD"/>
<path d="M94.014 26.7644C94.063 26.7644 94.105 26.7644 94.1539 26.7644C104.132 26.7644 114.117 26.7644 124.096 26.7644C124.145 26.7644 124.186 26.7644 124.235 26.7644C124.235 27.1492 124.235 27.5341 124.235 27.9189C124.235 27.9889 124.221 28.0099 124.152 27.9959C124.131 27.9959 124.11 27.9959 124.089 27.9959C114.11 27.9959 104.125 27.9959 94.1469 27.9959C94.028 27.9959 94 27.9679 94 27.849C94.007 27.4851 94 27.1212 94 26.7574L94.014 26.7644Z" fill="#BB1540"/>
<path d="M124.243 25.5328C124.18 25.5328 124.117 25.5328 124.054 25.5328C114.104 25.5328 104.153 25.5328 94.2031 25.5328C94.1401 25.5328 94.0771 25.5328 94.0142 25.5328C94.0142 25.12 94.0142 24.7072 94.0142 24.2943C94.0701 24.2943 94.1261 24.3083 94.1821 24.3083C104.146 24.3083 114.104 24.3083 124.068 24.3083C124.124 24.3083 124.18 24.3013 124.236 24.2943V25.5328H124.243Z" fill="#BB1540"/>
<path d="M94.0142 21.8593C94.0701 21.8593 94.1261 21.8593 94.1891 21.8593C104.146 21.8593 114.111 21.8593 124.068 21.8593C124.124 21.8593 124.18 21.8593 124.243 21.8593V23.0978C124.18 23.0978 124.117 23.0908 124.054 23.0908C114.104 23.0908 104.153 23.0908 94.2031 23.0908C94.1401 23.0908 94.0771 23.0908 94.0142 23.0978C94.0142 22.6849 94.0142 22.2721 94.0142 21.8593Z" fill="#BB1540"/>
<path d="M94.0142 23.0908C94.0771 23.0908 94.1401 23.0838 94.2031 23.0838C104.153 23.0838 114.104 23.0838 124.054 23.0838C124.117 23.0838 124.18 23.0838 124.243 23.0908V24.2943C124.187 24.2943 124.131 24.3083 124.075 24.3083C114.111 24.3083 104.153 24.3083 94.1891 24.3083C94.1331 24.3083 94.0771 24.3013 94.0212 24.2943C94.0212 23.8955 94.0212 23.4896 94.0212 23.0908H94.0142Z" fill="#FEFDFD"/>
<path d="M106.112 13.2385C106.112 12.8257 106.112 12.4199 106.112 12.007C112.109 12.007 118.106 12.007 124.102 12.007C124.221 12.007 124.249 12.035 124.249 12.154C124.242 12.5178 124.249 12.8817 124.249 13.2455C124.214 13.2455 124.179 13.2455 124.137 13.2455C118.134 13.2455 112.123 13.2455 106.119 13.2455L106.112 13.2385Z" fill="#BB1540"/>
<path d="M124.243 20.6207C119.701 20.6207 115.16 20.6207 110.619 20.6207C109.17 20.6207 107.722 20.6207 106.28 20.6207C106.224 20.6207 106.168 20.6207 106.105 20.6207C106.105 20.2078 106.105 19.802 106.105 19.3892C108.212 19.3892 110.325 19.3892 112.431 19.3892C116.364 19.3892 120.303 19.3892 124.236 19.3892V20.6277L124.243 20.6207Z" fill="#BB1540"/>
<path d="M124.242 19.3822C120.31 19.3822 116.37 19.3822 112.438 19.3822C110.332 19.3822 108.219 19.3822 106.112 19.3822C106.112 18.9693 106.112 18.5635 106.112 18.1506C112.088 18.1506 118.064 18.1506 124.039 18.1506C124.109 18.1506 124.172 18.1506 124.242 18.1506V19.3892V19.3822Z" fill="#FEFDFD"/>
<path d="M124.242 18.1507C124.172 18.1507 124.109 18.1507 124.039 18.1507C118.064 18.1507 112.088 18.1507 106.112 18.1507C106.112 17.7379 106.112 17.332 106.112 16.9192C112.116 16.9192 118.127 16.9192 124.13 16.9192C124.165 16.9192 124.2 16.9192 124.242 16.9122V18.1507Z" fill="#BB1540"/>
<path d="M106.112 15.7016C106.112 15.2888 106.112 14.8829 106.112 14.4701C112.088 14.4701 118.064 14.4701 124.039 14.4701C124.109 14.4701 124.172 14.4701 124.242 14.4701V15.7086C124.186 15.7086 124.13 15.6946 124.074 15.6946C123.585 15.6946 123.088 15.6946 122.598 15.6946C117.105 15.6946 111.612 15.6946 106.119 15.6946L106.112 15.7016Z" fill="#BB1540"/>
<path d="M124.242 14.4771C124.172 14.4771 124.109 14.4771 124.039 14.4771C118.064 14.4771 112.088 14.4771 106.112 14.4771C106.112 14.0642 106.112 13.6584 106.112 13.2455C112.116 13.2455 118.127 13.2455 124.13 13.2455C124.165 13.2455 124.2 13.2455 124.242 13.2455V14.4841V14.4771Z" fill="#FEFDFD"/>
<path d="M106.112 15.7016C111.605 15.7016 117.098 15.7016 122.591 15.7016C123.081 15.7016 123.578 15.7016 124.068 15.7016C124.124 15.7016 124.18 15.7086 124.236 15.7156V16.9191C124.201 16.9191 124.166 16.9261 124.124 16.9261C118.12 16.9261 112.109 16.9261 106.105 16.9261C106.105 16.5203 106.105 16.1074 106.105 15.7016H106.112Z" fill="#FEFDFD"/>
<path d="M95.6162 17.0381C95.8308 17.0194 95.9801 16.8958 96.064 16.6672C96.092 16.9541 96.211 17.0871 96.4769 17.0381C96.3999 17.1011 96.295 17.1571 96.253 17.234C96.211 17.318 96.3089 17.416 96.3159 17.5349C96.225 17.4719 96.141 17.374 96.057 17.381C95.9661 17.381 95.8821 17.4789 95.7492 17.5699C95.9031 17.318 95.8751 17.1431 95.6162 17.0381Z" fill="#FEFDFD"/>
<path d="M102.543 17.0451C102.25 17.1501 102.215 17.318 102.334 17.5559C102.145 17.346 101.977 17.36 101.788 17.5559C101.907 17.318 101.886 17.1431 101.613 17.0311C101.886 17.0731 102.033 16.9821 102.04 16.6953C102.124 16.8002 102.103 16.9332 102.173 16.9961C102.25 17.0661 102.376 16.9961 102.536 17.0451H102.543Z" fill="#FEFDFD"/>
<path d="M104.524 17.0241C104.419 17.108 104.3 17.164 104.272 17.241C104.244 17.3249 104.314 17.4369 104.342 17.5559C104.244 17.4859 104.16 17.3879 104.069 17.3879C103.985 17.3879 103.901 17.4859 103.775 17.5699C103.908 17.3249 103.88 17.143 103.621 17.0311C103.901 17.08 104.034 16.9751 104.048 16.6742C104.141 16.9028 104.298 17.0194 104.517 17.0241H104.524Z" fill="#FEFDFD"/>
<path d="M97.051 14.1132C97.086 14.3791 97.212 14.4981 97.4919 14.4421C97.2539 14.5611 97.184 14.715 97.3309 14.9599C97.142 14.764 96.967 14.757 96.7851 14.9599C96.9111 14.722 96.8761 14.5541 96.6172 14.4421C96.8831 14.4841 97.03 14.3931 97.058 14.1132H97.051Z" fill="#FEFDFD"/>
<path d="M102.628 14.4491C102.915 14.5051 103.027 14.3721 103.069 14.1132C103.104 14.3791 103.237 14.4981 103.51 14.4491C103.251 14.5611 103.209 14.729 103.342 14.9669C103.153 14.785 102.985 14.736 102.803 14.9809C102.901 14.743 102.915 14.561 102.628 14.4561V14.4491Z" fill="#FEFDFD"/>
<path d="M98.0585 16.6882C98.0865 16.9751 98.2264 17.0731 98.5063 17.0241C98.2684 17.1431 98.1775 17.304 98.3384 17.5489C98.1495 17.381 97.9745 17.311 97.7926 17.5629C97.9116 17.311 97.8696 17.1431 97.6177 17.0241C97.8906 17.0731 98.0445 16.9751 98.0585 16.6882Z" fill="#FEFDFD"/>
<path d="M101.795 14.0992C101.935 13.8543 101.872 13.6934 101.62 13.5674C101.9 13.6234 102.04 13.5184 102.061 13.2385C102.103 13.4974 102.222 13.6374 102.509 13.5674C102.271 13.6934 102.194 13.8543 102.334 14.0992C102.145 13.8963 101.977 13.8963 101.788 14.0992H101.795Z" fill="#FEFDFD"/>
<path d="M96.5332 13.5744C96.2813 13.6933 96.1623 13.8333 96.3653 14.0852C96.2113 14.0502 96.1483 13.9172 96.0644 13.9242C95.9734 13.9382 95.8894 14.0222 95.7635 14.1061C95.8964 13.8612 95.8964 13.6723 95.6025 13.5674C95.8894 13.6163 96.0294 13.5184 96.0364 13.2035C96.0924 13.3574 96.1064 13.4834 96.1763 13.5394C96.2463 13.5883 96.3722 13.5604 96.5332 13.5744Z" fill="#FEFDFD"/>
<path d="M97.6177 13.5744C97.8836 13.6234 98.0305 13.5324 98.0515 13.2455C98.1005 13.5044 98.2194 13.6374 98.4993 13.5604C98.2684 13.6934 98.1775 13.8473 98.3384 14.0992C98.1495 13.8893 97.9745 13.8893 97.7856 14.0992C97.9046 13.8613 97.8766 13.6864 97.6177 13.5744Z" fill="#FEFDFD"/>
<path d="M103.803 14.0992C103.936 13.8543 103.873 13.6934 103.628 13.5744C103.901 13.6234 104.041 13.5254 104.069 13.2455C104.111 13.5114 104.223 13.6514 104.517 13.5604C104.293 13.6934 104.181 13.8403 104.349 14.0922C104.16 13.9173 103.985 13.8683 103.796 14.0922L103.803 14.0992Z" fill="#FEFDFD"/>
<path d="M95.3016 14.9599C95.2666 14.9319 95.2247 14.9039 95.1897 14.8689C95.0987 14.778 95.0077 14.764 94.9098 14.8689C94.8818 14.9039 94.8398 14.9319 94.7698 14.9039C94.9448 14.68 94.8118 14.5541 94.6089 14.4351C94.8748 14.4911 95.0147 14.3861 95.0427 14.1132C95.0847 14.3721 95.2037 14.5051 95.4626 14.4211C95.4626 14.4491 95.4626 14.4631 95.4626 14.4631C95.2666 14.5541 95.1897 14.694 95.3086 14.8969C95.3156 14.9109 95.3086 14.9319 95.2946 14.9529L95.3016 14.9599Z" fill="#FEFDFD"/>
<path d="M103.356 20.1519C103.16 19.949 102.992 19.921 102.81 20.1519C102.908 19.921 102.908 19.7321 102.628 19.6271C102.901 19.6691 103.048 19.5711 103.069 19.2982C103.132 19.5291 103.209 19.7181 103.517 19.6061C103.293 19.746 103.181 19.9 103.356 20.1589V20.1519Z" fill="#FEFDFD"/>
<path d="M97.3306 20.1449C97.1417 19.921 96.9737 19.9559 96.7848 20.1449C96.9038 19.907 96.8758 19.732 96.6099 19.6201C96.8898 19.6691 97.0227 19.5641 97.0507 19.2912C97.0997 19.5361 97.1906 19.704 97.4985 19.6061C97.2746 19.739 97.1767 19.893 97.3236 20.1449H97.3306Z" fill="#FEFDFD"/>
<path d="M101.319 14.9599C101.319 14.9599 101.263 14.9179 101.235 14.8899C101.13 14.792 101.032 14.75 100.92 14.8759C100.892 14.9039 100.85 14.9319 100.801 14.9039C100.822 14.8129 100.906 14.715 100.864 14.638C100.822 14.561 100.717 14.5121 100.633 14.4491C100.745 14.4071 100.871 14.4841 100.941 14.4071C101.004 14.3441 101.018 14.2322 101.067 14.0922C101.102 14.3721 101.214 14.5121 101.473 14.4281C101.473 14.4561 101.473 14.4701 101.473 14.4701C101.284 14.568 101.2 14.701 101.319 14.9039C101.326 14.9179 101.319 14.9389 101.312 14.9599H101.319Z" fill="#FEFDFD"/>
<path d="M102.796 16.6952C102.921 16.4503 102.88 16.2824 102.621 16.1634C102.9 16.2194 103.04 16.1074 103.068 15.8345C103.11 16.0934 103.229 16.2404 103.523 16.1564C103.271 16.2824 103.208 16.4503 103.348 16.6952C103.159 16.4853 102.984 16.4923 102.803 16.6952H102.796Z" fill="#FEFDFD"/>
<path d="M99.626 13.5674C99.8989 13.6374 100.018 13.5184 100.06 13.2525C100.095 13.5254 100.235 13.6164 100.501 13.5674C100.27 13.6933 100.179 13.8543 100.347 14.0992C100.151 13.8823 99.9759 13.8893 99.7869 14.0992C99.9269 13.8543 99.8709 13.6863 99.633 13.5604L99.626 13.5674Z" fill="#FEFDFD"/>
<path d="M98.8001 14.9529C98.9051 14.722 98.8841 14.5541 98.6182 14.4421C98.8841 14.4841 99.031 14.3791 99.066 14.1132C99.094 14.3861 99.2269 14.4911 99.4998 14.4351C99.2899 14.5471 99.1919 14.687 99.3179 14.9319C99.129 14.743 98.968 14.764 98.8001 14.9459V14.9529Z" fill="#FEFDFD"/>
<path d="M105.51 14.4421C105.328 14.5611 105.161 14.673 105.342 14.9389C105.14 14.757 104.979 14.771 104.811 14.9599C104.923 14.722 104.895 14.5541 104.615 14.4631C104.748 14.4141 104.874 14.4771 104.951 14.4141C105.028 14.3511 105.007 14.2182 105.098 14.1132C105.112 14.3931 105.245 14.4911 105.51 14.4421Z" fill="#FEFDFD"/>
<path d="M97.3236 16.7092C97.1487 16.4923 96.9737 16.4713 96.7918 16.6952C96.8968 16.4573 96.8898 16.2753 96.6099 16.1704C96.8828 16.2054 97.0367 16.1214 97.0577 15.8275C97.0927 16.1004 97.2186 16.2194 97.5055 16.1354C97.4286 16.2544 97.3026 16.2753 97.2606 16.3663C97.2186 16.4643 97.3166 16.5622 97.3236 16.7092Z" fill="#FEFDFD"/>
<path d="M100.06 16.7162C100.102 16.9821 100.228 17.087 100.5 17.0241C100.326 17.157 100.165 17.276 100.333 17.5349C100.144 17.3459 99.9757 17.3949 99.7937 17.5349C99.9407 17.297 99.8637 17.15 99.6328 17.0381C99.8777 17.0661 100.053 17.0101 100.067 16.7162H100.06Z" fill="#FEFDFD"/>
<path d="M99.521 12.6787C99.416 12.8047 99.2691 12.8327 99.2551 12.9306C99.2411 13.0216 99.3041 13.1266 99.3251 13.2455C99.1501 13.0356 98.9752 13.0216 98.7863 13.2455C98.8842 13.0146 98.9052 12.8187 98.6323 12.7137C98.7303 12.7137 98.8562 12.7417 98.9262 12.6927C98.9962 12.6437 99.0102 12.5108 99.0662 12.3708C99.0872 12.6647 99.2201 12.7767 99.514 12.6857L99.521 12.6787Z" fill="#FEFDFD"/>
<path d="M101.326 20.1099C101.214 20.1099 101.158 19.9629 101.06 19.9699C100.969 19.9699 100.906 20.1029 100.773 20.1169C100.934 19.886 100.857 19.739 100.626 19.6201C100.878 19.6481 101.053 19.5991 101.046 19.2912C101.116 19.5221 101.193 19.718 101.473 19.5851C101.473 19.6201 101.473 19.6411 101.473 19.6411C101.249 19.739 101.228 19.907 101.319 20.1099H101.326Z" fill="#FEFDFD"/>
<path d="M95.3083 20.1099C95.3083 20.1099 95.2873 20.1169 95.2803 20.1099C95.1054 19.928 94.9444 19.942 94.7695 20.1519C94.8885 19.914 94.8745 19.732 94.6016 19.6131C94.8675 19.6551 95.0074 19.5641 95.0354 19.2912C95.0914 19.5291 95.1963 19.683 95.4552 19.5921C95.4552 19.6201 95.4552 19.6411 95.4552 19.6411C95.2313 19.739 95.2173 19.907 95.3013 20.1099H95.3083Z" fill="#FEFDFD"/>
<path d="M104.818 20.1169C104.895 19.914 104.902 19.7321 104.657 19.6271C104.755 19.6271 104.881 19.6481 104.951 19.5991C105.021 19.5501 105.035 19.4172 105.084 19.3052C105.126 19.4172 105.14 19.5361 105.203 19.5991C105.273 19.6621 105.391 19.6061 105.531 19.6341C105.314 19.7461 105.21 19.893 105.342 20.1239C105.154 19.942 104.986 20.012 104.825 20.1239L104.818 20.1169Z" fill="#FEFDFD"/>
<path d="M98.8001 20.1169C98.8771 19.914 98.8841 19.7321 98.6392 19.6201C98.7371 19.6201 98.8631 19.6411 98.933 19.5921C99.003 19.5432 99.017 19.4102 99.073 19.2703C99.094 19.5572 99.2129 19.6901 99.4998 19.5921C99.4229 19.7181 99.2969 19.7391 99.2549 19.83C99.2129 19.921 99.3319 20.012 99.2969 20.1169C99.129 19.935 98.961 20.012 98.7931 20.1169H98.8001Z" fill="#FEFDFD"/>
<path d="M104.797 13.2455C104.93 13.0006 104.888 12.8257 104.629 12.7067C104.909 12.7697 105.042 12.6507 105.077 12.3848C105.105 12.6717 105.252 12.7557 105.518 12.7067C105.266 12.8257 105.203 12.9936 105.357 13.2385C105.168 13.0426 104.986 13.0076 104.797 13.2385V13.2455Z" fill="#FEFDFD"/>
<path d="M96.6099 12.7067C96.8968 12.7767 97.0157 12.6437 97.0367 12.3428C97.0927 12.4898 97.1067 12.6087 97.1697 12.6717C97.2396 12.7417 97.3656 12.6787 97.5055 12.7137C97.2676 12.8256 97.1697 12.9796 97.3026 13.2175C97.2186 13.1615 97.1347 13.0636 97.0507 13.0636C96.9667 13.0636 96.8898 13.1615 96.7848 13.2245C96.9107 12.9936 96.8618 12.8256 96.6099 12.7067Z" fill="#FEFDFD"/>
<path d="M102.803 13.2315C102.831 13.1056 102.894 12.9936 102.866 12.9096C102.838 12.8327 102.726 12.7837 102.6 12.6857C102.9 12.7557 103.047 12.6577 103.068 12.3708C103.103 12.6437 103.229 12.7697 103.502 12.7207C103.425 12.7837 103.313 12.8327 103.278 12.9166C103.236 13.0006 103.334 13.1056 103.341 13.2245C103.243 13.1615 103.152 13.0706 103.068 13.0706C102.984 13.0706 102.907 13.1685 102.81 13.2385L102.803 13.2315Z" fill="#FEFDFD"/>
<path d="M101.326 13.2036H101.312C101.137 13.0286 100.97 13.0356 100.788 13.2385C100.914 13.0006 100.893 12.8257 100.62 12.7067C100.886 12.7487 101.039 12.6648 101.06 12.3779C101.102 12.6508 101.228 12.7697 101.501 12.6927C101.291 12.8257 101.221 12.9866 101.326 13.2036Z" fill="#FEFDFD"/>
<path d="M94.8048 13.2106C94.8048 13.2106 94.7838 13.1896 94.7908 13.1896C94.9028 12.9796 94.8608 12.8187 94.5879 12.7347C94.7278 12.6858 94.8468 12.7417 94.9238 12.6927C95.0077 12.6368 94.9937 12.5038 95.0567 12.3779C95.0987 12.6438 95.2037 12.7907 95.4975 12.7067C95.2596 12.8327 95.1827 12.9936 95.3436 13.2245C95.3086 13.2245 95.2946 13.2245 95.2946 13.2245C95.1337 13.0356 94.9727 13.0776 94.8118 13.2245L94.8048 13.2106Z" fill="#FEFDFD"/>
<path d="M95.3088 16.6602C95.1968 16.6532 95.1408 16.5063 95.0429 16.5203C94.9589 16.5342 94.8819 16.6182 94.77 16.6952C94.805 16.5692 94.8749 16.4573 94.8469 16.3803C94.819 16.2963 94.7 16.2474 94.5811 16.1494C94.8609 16.2124 95.0219 16.1424 95.0429 15.8485C95.0919 16.1004 95.2108 16.2404 95.4837 16.1564C95.2808 16.2893 95.1968 16.4503 95.3088 16.6672V16.6602Z" fill="#FEFDFD"/>
<path d="M97.7578 19.2772C97.9257 19.0253 97.8487 18.8784 97.6108 18.7594C97.8837 18.8084 98.0237 18.7104 98.0517 18.4305C98.0936 18.6964 98.2126 18.8224 98.4925 18.7524C98.2686 18.8784 98.1636 19.0323 98.3106 19.2702C98.2266 19.2142 98.1496 19.1233 98.0657 19.1093C97.9677 19.0953 97.9047 19.2282 97.7578 19.2702V19.2772Z" fill="#FEFDFD"/>
<path d="M98.8003 16.6602V16.6462C98.8912 16.4363 98.8772 16.2684 98.6113 16.1704C98.8842 16.2124 99.0312 16.1144 99.0662 15.8345C99.0942 16.1144 99.2341 16.2124 99.5 16.1564C99.2831 16.2754 99.1851 16.4223 99.3251 16.6602C99.1361 16.4783 98.9682 16.5413 98.8003 16.6602Z" fill="#FEFDFD"/>
<path d="M101.326 16.6602C101.214 16.6532 101.158 16.5133 101.06 16.5203C100.969 16.5203 100.907 16.6462 100.767 16.6742C100.942 16.4363 100.844 16.2893 100.62 16.1704C100.872 16.2054 101.032 16.1354 101.046 15.8485C101.095 16.1004 101.214 16.2404 101.48 16.1494C101.48 16.1774 101.48 16.1844 101.48 16.1844C101.27 16.2893 101.214 16.4503 101.312 16.6602H101.326Z" fill="#FEFDFD"/>
<path d="M104.818 16.6602C104.804 16.5553 104.923 16.4573 104.867 16.3594C104.825 16.2824 104.72 16.2334 104.636 16.1564C104.902 16.2194 105.035 16.1144 105.07 15.8416C105.105 16.1075 105.231 16.2334 105.518 16.1564C105.287 16.2824 105.203 16.4293 105.329 16.6602C105.14 16.4713 104.972 16.5413 104.811 16.6602H104.818Z" fill="#FEFDFD"/>
<path d="M101.788 19.2912C101.914 19.0533 101.893 18.8784 101.62 18.7594C101.893 18.8014 102.04 18.7105 102.061 18.4166C102.103 18.6895 102.222 18.8154 102.509 18.7454C102.285 18.8714 102.187 19.0183 102.334 19.2702C102.138 19.0743 101.963 19.0743 101.788 19.2842V19.2912Z" fill="#FEFDFD"/>
<path d="M99.6328 18.7524C99.8917 18.8154 100.025 18.7105 100.06 18.4376C100.095 18.7175 100.235 18.8154 100.507 18.7594C100.27 18.8714 100.2 19.0323 100.34 19.2562C100.207 19.2353 100.151 19.0883 100.046 19.1163C99.9617 19.1373 99.8847 19.2213 99.7868 19.2912C99.8567 19.0813 99.8077 18.9017 99.6398 18.7524H99.6328Z" fill="#FEFDFD"/>
<path d="M95.7843 19.2912C95.9103 19.0463 95.8753 18.8714 95.6094 18.7594C95.8823 18.8084 96.0222 18.7104 96.0432 18.4305C96.0922 18.6894 96.2041 18.8294 96.498 18.7524C96.2671 18.8784 96.1831 19.0253 96.3231 19.2772C96.1342 19.0953 95.9592 19.0603 95.7773 19.2912H95.7843Z" fill="#FEFDFD"/>
<path d="M104.062 14.9669C104.111 15.2398 104.23 15.3657 104.51 15.2957C104.265 15.4147 104.202 15.5826 104.342 15.8205C104.153 15.6386 103.985 15.6036 103.796 15.8205C103.901 15.5896 103.901 15.4007 103.614 15.3097C103.88 15.3307 104.055 15.2817 104.055 14.9669H104.062Z" fill="#FEFDFD"/>
<path d="M102.509 15.3027C102.35 15.4287 102.29 15.606 102.327 15.8345C102.145 15.6316 101.977 15.5966 101.795 15.8345C101.914 15.5896 101.886 15.4147 101.62 15.3027C101.9 15.3517 102.033 15.2468 102.068 14.9879C102.103 15.0858 102.117 15.2188 102.18 15.2677C102.25 15.3167 102.376 15.2887 102.502 15.3027H102.509Z" fill="#FEFDFD"/>
<path d="M98.4992 15.3027C98.2613 15.4217 98.1913 15.5756 98.3382 15.8205C98.1493 15.6316 97.9744 15.6176 97.7925 15.8205C97.9324 15.5756 97.8624 15.4147 97.6245 15.3027C97.8904 15.3447 98.0514 15.2677 98.0584 14.9598C98.0933 15.2467 98.2333 15.3517 98.5062 15.3027H98.4992Z" fill="#FEFDFD"/>
<path d="M96.3229 15.8136C96.1457 15.7063 95.9591 15.7133 95.7632 15.8345C95.9031 15.5896 95.8821 15.4147 95.6162 15.3097C95.8891 15.3517 96.0361 15.2538 96.057 14.9739C96.099 15.2328 96.218 15.3727 96.4909 15.3167C96.4139 15.3797 96.302 15.4357 96.267 15.5127C96.239 15.5896 96.302 15.7016 96.3299 15.8136H96.3229Z" fill="#FEFDFD"/>
<path d="M103.495 17.8917C103.346 18.027 103.295 18.2066 103.342 18.4305C103.16 18.2276 102.992 18.1926 102.81 18.4165C102.901 18.1926 102.929 18.0037 102.635 17.9057C102.901 17.9337 103.055 17.8428 103.069 17.5629C103.111 17.8218 103.23 17.9547 103.495 17.8917Z" fill="#FEFDFD"/>
<path d="M104.062 18.4375C104.137 18.6288 104.291 18.7408 104.524 18.7734C104.279 18.8784 104.195 19.0323 104.328 19.2772C104.146 19.0883 103.978 19.0743 103.803 19.2772C103.915 19.0393 103.866 18.8714 103.621 18.7524C103.901 18.8154 104.034 18.6894 104.062 18.4305V18.4375Z" fill="#FEFDFD"/>
<path d="M99.8147 15.8206C99.7727 15.7646 99.8147 15.7086 99.8357 15.6596C99.8847 15.5477 99.8707 15.4637 99.7518 15.4077C99.7098 15.3867 99.6748 15.3518 99.5908 15.2888C99.8707 15.3448 100.039 15.2748 100.06 14.9809C100.088 15.2608 100.242 15.3518 100.479 15.2958C100.479 15.3238 100.479 15.3308 100.479 15.3308C100.284 15.4287 100.207 15.5687 100.319 15.7786C100.319 15.7926 100.312 15.8136 100.305 15.8346C100.151 15.6946 99.9873 15.6923 99.8147 15.8276V15.8206Z" fill="#FEFDFD"/>
<path d="M96.7851 18.4165C96.8971 18.1856 96.8971 18.0107 96.6172 17.8987C96.8971 17.9477 97.023 17.8218 97.058 17.5629C97.107 17.8078 97.198 17.9757 97.4988 17.8847C97.2539 18.0107 97.198 18.1786 97.3309 18.4165C97.142 18.2066 96.974 18.2136 96.7851 18.4165Z" fill="#FEFDFD"/>
<path d="M95.3016 18.4165C95.1524 18.2906 94.9704 18.2952 94.7558 18.4305C94.8888 18.1926 94.8888 18.0107 94.6089 17.9057C94.8748 17.9477 95.0147 17.8497 95.0427 17.5768C95.1057 17.8008 95.1827 17.9967 95.4836 17.8777C95.2876 18.0247 95.1897 18.1646 95.3156 18.3745C95.3156 18.3815 95.3086 18.4025 95.3016 18.4165Z" fill="#FEFDFD"/>
<path d="M104.832 18.4165C104.783 18.3605 104.832 18.3046 104.846 18.2556C104.902 18.1366 104.881 18.0597 104.762 17.9967C104.72 17.9757 104.692 17.9407 104.643 17.9057C104.755 17.8567 104.881 17.9337 104.951 17.8567C105.014 17.7938 105.028 17.6748 105.077 17.5768C105.112 17.8217 105.224 17.9617 105.504 17.8847C105.308 18.0037 105.189 18.1366 105.329 18.3885C105.126 18.1856 104.972 18.2416 104.825 18.4095L104.832 18.4165Z" fill="#FEFDFD"/>
<path d="M101.312 18.4166C101.312 18.4166 101.242 18.3676 101.214 18.3396C101.116 18.2486 101.025 18.2206 100.927 18.3326C100.899 18.3676 100.85 18.3956 100.801 18.3676C100.822 18.2766 100.913 18.1787 100.864 18.0947C100.822 18.0177 100.724 17.9757 100.626 17.9058C100.745 17.8988 100.871 17.9198 100.941 17.8708C101.011 17.8218 101.018 17.6958 101.074 17.5699C101.116 17.8218 101.221 17.9757 101.487 17.8918C101.473 17.9267 101.473 17.9407 101.473 17.9407C101.298 18.0317 101.207 18.1507 101.326 18.3536C101.34 18.3746 101.34 18.4026 101.319 18.4236L101.312 18.4166Z" fill="#FEFDFD"/>
<path d="M98.8141 18.4166C98.7651 18.3606 98.8141 18.3046 98.8351 18.2556C98.8911 18.1367 98.8701 18.0597 98.7511 17.9967C98.7091 17.9757 98.6811 17.9407 98.6392 17.8988C98.8911 17.9407 99.045 17.8568 99.052 17.5699C99.108 17.8218 99.2059 17.9757 99.4998 17.8848C99.2969 18.0107 99.178 18.1437 99.3179 18.3956C99.115 18.1926 98.961 18.2556 98.8141 18.4166Z" fill="#FEFDFD"/>
<path d="M94.8045 13.2105C94.8045 13.2105 94.7975 13.2245 94.7905 13.2315C94.7905 13.2315 94.7905 13.2175 94.7905 13.2105C94.7975 13.2105 94.8045 13.2105 94.8115 13.2105H94.8045Z" fill="#FEFDFD"/>
<path d="M95.3086 16.6603C95.3086 16.6603 95.3156 16.6603 95.3226 16.6603C95.3226 16.6603 95.3226 16.6603 95.3226 16.6673C95.3226 16.6673 95.3226 16.6533 95.3156 16.6533L95.3086 16.6603Z" fill="#FEFDFD"/>
<path d="M95.2944 18.4095H95.3014V18.4165L95.2944 18.4095Z" fill="#FEFDFD"/>
<path d="M98.8141 18.4165L98.8071 18.4095L98.8141 18.4165Z" fill="#FEFDFD"/>
<path d="M101.312 18.4095H101.319L101.312 18.4165V18.4095Z" fill="#FEFDFD"/>
<path d="M98.8001 16.6602C98.8001 16.6602 98.8001 16.6742 98.8001 16.6812C98.8001 16.6812 98.7931 16.6812 98.7861 16.6812C98.7861 16.6812 98.8001 16.6742 98.8001 16.6672V16.6602Z" fill="#FEFDFD"/>
<path d="M104.811 16.6602C104.811 16.6602 104.811 16.6742 104.811 16.6812C104.811 16.6812 104.804 16.6812 104.797 16.6812C104.797 16.6812 104.811 16.6742 104.811 16.6672V16.6602Z" fill="#FEFDFD"/>
<path d="M99.8146 15.8206C99.8146 15.8206 99.8006 15.8206 99.7866 15.8206C99.7866 15.8206 99.7936 15.8136 99.8006 15.8066C99.8006 15.8066 99.8076 15.8206 99.8146 15.8276V15.8206Z" fill="#FEFDFD"/>
<path d="M95.3086 20.1169C95.3086 20.1169 95.3156 20.1169 95.3226 20.1239C95.3226 20.1239 95.3226 20.1239 95.3226 20.1309C95.3226 20.1309 95.3226 20.1169 95.3226 20.1099L95.3086 20.1169Z" fill="#FEFDFD"/>
<path d="M98.8001 20.1099C98.8001 20.1099 98.8001 20.1239 98.8001 20.1309C98.8001 20.1309 98.7931 20.1309 98.7861 20.1309C98.7861 20.1309 98.7931 20.1169 98.8001 20.1169V20.1099Z" fill="#FEFDFD"/>
<path d="M101.319 16.6603C101.319 16.6603 101.326 16.6603 101.333 16.6603C101.333 16.6603 101.333 16.6603 101.333 16.6673C101.333 16.6673 101.333 16.6533 101.326 16.6533L101.319 16.6603Z" fill="#FEFDFD"/>
<path d="M104.811 20.1099C104.811 20.1099 104.811 20.1239 104.811 20.1309C104.811 20.1309 104.804 20.1309 104.797 20.1309L104.811 20.1169V20.1099Z" fill="#FEFDFD"/>
<path d="M101.312 14.9599L101.319 14.9529V14.9599H101.312Z" fill="#FEFDFD"/>
<path d="M101.319 13.2105C101.319 13.2105 101.326 13.2105 101.333 13.2105C101.333 13.2105 101.333 13.2105 101.333 13.2175C101.333 13.2175 101.326 13.2105 101.319 13.2035V13.2105Z" fill="#FEFDFD"/>
<path d="M100.304 15.8276C100.304 15.8276 100.318 15.8136 100.325 15.8066C100.325 15.8066 100.325 15.8066 100.325 15.8136C100.318 15.8136 100.311 15.8136 100.297 15.8206L100.304 15.8276Z" fill="#FEFDFD"/>
<path d="M101.319 20.1099C101.319 20.1099 101.326 20.1099 101.333 20.1169C101.333 20.1169 101.333 20.1169 101.333 20.1239C101.333 20.1239 101.333 20.1099 101.333 20.1029L101.319 20.1099Z" fill="#FEFDFD"/>
</g>
<mask id="mask1_593_14924" style="mask-type:alpha" maskUnits="userSpaceOnUse" x="122" y="12" width="24" height="16">
<rect x="122" y="12" width="24" height="16" rx="2" fill="#D9D9D9"/>
</mask>
<g mask="url(#mask1_593_14924)">
<path d="M122 11.7969V28.203H146V11.7969H122ZM142.034 16.9661L141.754 17.1547L140.734 15.5906L141.294 15.2135L142.314 16.7776L142.034 16.9661ZM140.095 13.361L141.115 14.9251L140.555 15.3022L139.535 13.7382L140.095 13.361ZM138.986 14.1153L139.266 13.9267L141.485 17.3433L141.204 17.5319L140.924 17.7204L138.706 14.3039L138.986 14.1153ZM140.375 18.0976L140.095 18.2862L139.076 16.7221L139.636 16.3449L140.655 17.909L140.375 18.0976ZM140.644 22.0799L139.625 23.6439L139.064 23.2668L140.084 21.7027L140.644 22.0799ZM139.905 23.8325L140.924 22.2684L141.204 22.457L141.485 22.6456L140.465 24.2097L139.905 23.8325ZM138.426 14.4925L139.445 16.0565L138.885 16.4337L137.866 14.8696L138.426 14.4925ZM130.112 14.8807L127.894 18.2973L127.333 17.9201L129.552 14.5036L130.112 14.8807ZM129.272 14.3039L127.053 17.7204L126.773 17.5319L126.493 17.3433L128.711 13.9267L129.272 14.3039ZM127.524 24.2208L126.504 22.6567L127.064 22.2795L128.084 23.8436L127.524 24.2208ZM127.894 13.361L128.454 13.7382L126.235 17.1547L125.675 16.7776L127.894 13.361ZM128.162 26.4504L127.882 26.639L125.664 23.2224L125.944 23.0338L126.224 22.8453L128.443 26.2618L128.162 26.4504ZM129.003 25.8736L128.723 26.0622L127.703 24.4981L128.263 24.1209L129.283 25.685L129.003 25.8736ZM129.552 25.4964L127.333 22.0799L127.894 21.7027L130.112 25.1193L129.552 25.4964ZM131.77 23.411C129.966 22.1686 129.451 19.6838 130.605 17.8092C130.627 17.7759 130.639 17.7537 130.661 17.7204C131.882 15.8347 134.37 15.3244 136.207 16.5779C138.011 17.8203 138.527 20.305 137.373 22.1797C137.35 22.213 137.339 22.2352 137.317 22.2684C136.095 24.1542 133.608 24.6645 131.77 23.411ZM137.877 25.1193L138.896 23.5552L139.457 23.9324L138.437 25.4964L137.877 25.1193ZM138.706 25.685L139.725 24.1209L140.286 24.4981L139.266 26.0622L138.706 25.685ZM139.535 26.2507L140.555 24.6867L141.115 25.0638L140.095 26.6279L139.535 26.2507ZM141.294 24.7865L140.734 24.4093L141.754 22.8453L142.314 23.2224L141.294 24.7865Z" fill="white"/>
<path d="M127.893 18.2861L130.112 14.8807L129.551 14.4924L127.333 17.909L127.893 18.2861Z" fill="#37474F"/>
<path d="M126.785 17.5319L127.053 17.7205L129.272 14.3039L128.723 13.9268L126.504 17.3433L126.785 17.5319Z" fill="#37474F"/>
<path d="M128.443 13.7382L127.894 13.3611L125.675 16.7776L126.224 17.1548L128.443 13.7382Z" fill="#37474F"/>
<path d="M139.725 24.1209L138.706 25.685L139.266 26.0621L140.274 24.4981L139.725 24.1209Z" fill="#37474F"/>
<path d="M140.746 24.4093L141.295 24.7865L142.314 23.2224L141.754 22.8453L140.746 24.4093Z" fill="#37474F"/>
<path d="M138.885 23.5552L137.877 25.1193L138.426 25.4965L139.446 23.9324L138.885 23.5552Z" fill="#37474F"/>
<path d="M140.095 21.7027L139.076 23.2668L139.636 23.6439L140.644 22.0798L140.095 21.7027Z" fill="#37474F"/>
<path d="M140.554 24.6866L139.535 26.2507L140.095 26.639L141.114 25.0749L140.554 24.6866Z" fill="#37474F"/>
<path d="M141.205 22.4682L140.924 22.2685L139.905 23.8326L140.465 24.2208L141.485 22.6567L141.205 22.4682Z" fill="#37474F"/>
<path d="M131.221 20.5713C132.14 21.2036 133.383 20.9484 134 20.0056C134.616 19.0627 135.848 18.8075 136.778 19.4398C137.664 20.0499 137.933 21.259 137.383 22.1908C138.538 20.3161 138.033 17.8314 136.218 16.589C134.381 15.3355 131.893 15.8458 130.672 17.7315C130.65 17.7648 130.638 17.787 130.616 17.8203C130.078 18.7521 130.336 19.9612 131.221 20.5713Z" fill="#CD2E3A"/>
<path d="M130.605 17.8092C130.605 17.8092 130.639 17.7537 130.661 17.7205C130.639 17.7537 130.627 17.7759 130.605 17.8092Z" fill="#0047A0"/>
<path d="M136.768 19.4287C135.849 18.7964 134.605 19.0515 133.989 19.9944C133.373 20.9373 132.14 21.1924 131.21 20.5601C130.325 19.95 130.056 18.7409 130.605 17.8091C129.451 19.6838 129.955 22.1686 131.77 23.411C133.608 24.6644 136.095 24.1542 137.317 22.2684C137.339 22.2351 137.35 22.2129 137.373 22.1797C137.91 21.2479 137.653 20.0388 136.768 19.4287Z" fill="#0047A0"/>
<path d="M126.224 22.8453L125.944 23.0339L125.675 23.2224L127.894 26.639L128.163 26.4504L128.443 26.2507L126.224 22.8453Z" fill="#37474F"/>
<path d="M127.333 22.0798L129.551 25.4964L130.112 25.1192L127.893 21.7027L127.333 22.0798Z" fill="#37474F"/>
<path d="M126.504 22.6567L127.524 24.2208L128.073 23.8326L127.053 22.2685L126.504 22.6567Z" fill="#37474F"/>
<path d="M128.263 24.1209L127.703 24.4981L128.723 26.0621L129.003 25.8736L129.272 25.685L128.263 24.1209Z" fill="#37474F"/>
<path d="M141.295 15.2135L140.746 15.5907L141.754 17.1547L142.034 16.9661L142.314 16.7776L141.295 15.2135Z" fill="#37474F"/>
<path d="M139.636 16.3449L139.076 16.7221L140.095 18.2861L140.375 18.0976L140.644 17.909L139.636 16.3449Z" fill="#37474F"/>
<path d="M141.114 14.9252L140.095 13.3611L139.535 13.7382L140.554 15.3023L141.114 14.9252Z" fill="#37474F"/>
<path d="M140.924 17.7205L141.204 17.5319L141.484 17.3433L139.266 13.9268L138.986 14.1153L138.706 14.3039L140.924 17.7205Z" fill="#37474F"/>
<path d="M139.446 16.0676L138.426 14.4924L137.877 14.8807L138.885 16.4447L139.446 16.0676Z" fill="#37474F"/>
</g>
<path d="M46.5 37.5V47.0469H39.625V37.5H46.5ZM41.625 45.4688H44.5625V39.0625H41.625V45.4688ZM48.8125 50.4688V36.2188H50.8281V50.4688H48.8125ZM64.1547 36.8438V37.9531C64.1626 39 64.1626 40.2031 63.8657 41.7344H65.7016V43.3281H60.1704V45.375H64.1704V50.4375H62.1704V46.9375H53.9985V45.375H58.1704V43.3281H52.686V41.7344H61.8501C62.1157 40.3984 62.1547 39.3594 62.1704 38.4219H54.2797V36.8438L64.1547 36.8438ZM71.0595 37.1719C73.3173 37.1641 74.9892 38.6172 74.997 40.6563C74.9892 42.7031 73.3173 44.1484 71.0595 44.1563C68.8173 44.1484 67.0986 42.7031 67.1064 40.6563C67.0986 38.6172 68.8173 37.1641 71.0595 37.1719ZM66.5126 45.9375C69.0517 45.9453 72.5673 45.9141 75.6064 45.4844L75.7626 46.9219C72.6064 47.5391 69.2314 47.5625 66.747 47.5625L66.5126 45.9375ZM69.0907 40.6563C69.0829 41.7813 69.9345 42.4297 71.0595 42.4219C72.1923 42.4297 73.0517 41.7813 73.0595 40.6563C73.0517 39.5469 72.1923 38.8906 71.0595 38.8906C69.9345 38.8906 69.0829 39.5469 69.0907 40.6563ZM76.4189 50.4688V36.2188H78.4032V50.4688H76.4189ZM95.119 36.2344V40.5938H97.0409V42.2188H95.119V46.8438H93.119V36.2344H95.119ZM83.8377 39.2969V37.7188H87.0721V36.2031H89.0565V37.7188H92.2752V39.2969H83.8377ZM84.5252 42.5469C84.5252 40.8984 85.9862 39.7969 88.0565 39.7969C90.119 39.7969 91.5565 40.8984 91.5565 42.5469C91.5565 44.1875 90.119 45.2656 88.0565 45.2656C85.9862 45.2656 84.5252 44.1875 84.5252 42.5469ZM85.9002 50.1875V46.0313H87.8846V48.5938L95.6346 48.5938V50.1875L85.9002 50.1875ZM86.4784 42.5469C86.4706 43.3281 87.1034 43.75 88.0565 43.75C89.0174 43.75 89.6659 43.3281 89.6659 42.5469C89.6659 41.7578 89.0174 41.3203 88.0565 41.3125C87.1034 41.3203 86.4706 41.7578 86.4784 42.5469ZM109.071 36.8438V37.9531C109.078 39 109.078 40.2031 108.782 41.7344H110.618V43.3281H105.086V45.375H109.086V50.4375H107.086V46.9375L98.9144 46.9375V45.375L103.086 45.375V43.3281L97.6019 43.3281V41.7344L106.766 41.7344C107.032 40.3984 107.071 39.3594 107.086 38.4219L99.1956 38.4219V36.8438L109.071 36.8438ZM126.271 36.2188V39.8594H128.193V41.5156H126.271V45.25H124.271V36.2188H126.271ZM114.99 39.125V37.5781H118.224V36.1406H120.208V37.5781H123.427V39.125H114.99ZM115.677 42.1719C115.677 40.6563 117.115 39.6172 119.208 39.6094C121.279 39.6172 122.708 40.6563 122.708 42.1719C122.708 43.7031 121.279 44.7188 119.208 44.7188C117.122 44.7188 115.677 43.7031 115.677 42.1719ZM116.818 47.9219C116.802 46.3203 118.638 45.3828 121.63 45.375C124.552 45.3828 126.419 46.3203 126.427 47.9219C126.419 49.4844 124.552 50.4453 121.63 50.4375C118.638 50.4453 116.802 49.4844 116.818 47.9219ZM117.63 42.1719C117.622 42.875 118.255 43.2422 119.208 43.2344C120.169 43.2422 120.818 42.875 120.818 42.1719C120.818 41.4609 120.169 41.0703 119.208 41.0625C118.255 41.0703 117.622 41.4609 117.63 42.1719ZM118.786 47.9219C118.779 48.5859 119.763 48.9531 121.63 48.9531C123.443 48.9531 124.427 48.5859 124.427 47.9219C124.427 47.2109 123.443 46.8984 121.63 46.8906C119.763 46.8984 118.779 47.2109 118.786 47.9219ZM135.16 45.0781C138.269 45.0781 140.222 46.0625 140.238 47.7656C140.222 49.4453 138.269 50.4453 135.16 50.4375C132.074 50.4453 130.09 49.4453 130.097 47.7656C130.09 46.0625 132.074 45.0781 135.16 45.0781ZM128.785 44.1719V42.5625H133.629V40.0781H135.597V42.5625H141.691V44.1719H128.785ZM130.238 38.4219V36.8594H140.16V38.0156C140.168 39.1484 140.168 40.3672 139.754 41.8281L137.8 41.6406C138.121 40.3516 138.16 39.3906 138.175 38.4219H130.238ZM132.082 47.7656C132.074 48.5313 133.199 48.9219 135.16 48.9219C137.121 48.9219 138.254 48.5313 138.254 47.7656C138.254 46.9766 137.121 46.5547 135.16 46.5625C133.199 46.5547 132.074 46.9766 132.082 47.7656ZM155.518 44.125V45.7344L152.471 45.7344V50.4375H150.44V45.7344H147.533V50.4375H145.487V45.7344H142.502V44.125L155.518 44.125ZM143.815 39.9063C143.807 37.9453 145.916 36.6953 148.971 36.6875C152.026 36.6953 154.158 37.9453 154.158 39.9063C154.158 41.8203 152.026 43.0391 148.971 43.0313C145.916 43.0391 143.807 41.8203 143.815 39.9063ZM145.862 39.9063C145.854 40.9063 147.065 41.4609 148.971 41.4688C150.893 41.4609 152.096 40.9063 152.096 39.9063C152.096 38.8594 150.893 38.2891 148.971 38.2813C147.065 38.2891 145.854 38.8594 145.862 39.9063ZM164.515 37.1719C166.773 37.1641 168.444 38.6172 168.452 40.6563C168.444 42.7031 166.773 44.1484 164.515 44.1563C162.273 44.1484 160.554 42.7031 160.562 40.6563C160.554 38.6172 162.273 37.1641 164.515 37.1719ZM159.968 45.9375C162.507 45.9453 166.023 45.9141 169.062 45.4844L169.218 46.9219C166.062 47.5391 162.687 47.5625 160.202 47.5625L159.968 45.9375ZM162.546 40.6563C162.538 41.7813 163.39 42.4297 164.515 42.4219C165.648 42.4297 166.507 41.7813 166.515 40.6563C166.507 39.5469 165.648 38.8906 164.515 38.8906C163.39 38.8906 162.538 39.5469 162.546 40.6563ZM169.874 50.4688V36.2188H171.858V50.4688H169.874ZM185.466 36.8125V38.4063H181.544C181.779 39.6016 183.255 40.7969 186.06 41.0938L185.326 42.6719C182.662 42.3594 180.888 41.25 180.138 39.7656C179.388 41.25 177.623 42.3594 174.966 42.6719L174.248 41.0938C177.052 40.7969 178.505 39.5859 178.748 38.4063H174.857V36.8125H185.466ZM173.669 45.2344V43.625H179.154V41.6563H181.123V43.625H186.638V45.2344H173.669ZM175.232 50.1875V46.0938H177.232V48.5938L185.169 48.5938V50.1875L175.232 50.1875ZM199.027 42.5781V44.1563H194.902V47.1875H200.449V48.8125H187.434V47.1875L192.918 47.1875V44.1563H188.965V37.2188L198.918 37.2188V38.8125H190.965V42.5781H199.027Z" fill="#37474F"/>
<path d="M12.25 62H227.75" stroke="#455A64"/>
<rect x="10" y="70" width="220" height="30" rx="4" fill="#CFD8DC"/>
<rect x="10" y="70" width="154" height="30" rx="4" fill="#02A39E"/>
<path d="M9.64645 107.646C9.45118 107.842 9.45118 108.158 9.64645 108.354L12.8284 111.536C13.0237 111.731 13.3403 111.731 13.5355 111.536C13.7308 111.34 13.7308 111.024 13.5355 110.828L10.7071 108L13.5355 105.172C13.7308 104.976 13.7308 104.66 13.5355 104.464C13.3403 104.269 13.0237 104.269 12.8284 104.464L9.64645 107.646ZM164.354 108.354C164.549 108.158 164.549 107.842 164.354 107.646L161.172 104.464C160.976 104.269 160.66 104.269 160.464 104.464C160.269 104.66 160.269 104.976 160.464 105.172L163.293 108L160.464 110.828C160.269 111.024 160.269 111.34 160.464 111.536C160.66 111.731 160.976 111.731 161.172 111.536L164.354 108.354ZM10 108V108.5H164V108V107.5H10V108Z" fill="#37474F"/>
<path d="M18.6367 118.508V121.883H20.1602V122.809H18.6367V126.359H17.5234V118.508H18.6367ZM16.6562 119.727V120.629H10.3984V119.727H12.9766V118.496H14.0898V119.727H16.6562ZM13.5273 121.133C15.0391 121.133 16.0703 121.918 16.0703 123.113C16.0703 124.309 15.0391 125.082 13.5273 125.082C12.0039 125.082 10.9727 124.309 10.9727 123.113C10.9727 121.918 12.0039 121.133 13.5273 121.133ZM13.5273 121.988C12.6367 121.988 12.0391 122.422 12.0508 123.113C12.0391 123.793 12.6367 124.215 13.5273 124.215C14.418 124.215 15.0156 123.793 15.0273 123.113C15.0156 122.422 14.418 121.988 13.5273 121.988ZM19.082 127.871V128.773H11.9805V125.738H13.0938V127.871H19.082ZM28.6484 118.988V119.773C28.6484 120.547 28.6484 121.473 28.4141 122.691H29.8672V123.594H25.6016V125.387H28.6953V128.996H27.582V126.277H21.2422V125.387H24.4883V123.594H20.2578V122.691H27.2891C27.5352 121.52 27.5469 120.641 27.5469 119.891H21.4648V118.988H28.6484ZM33.7734 120.418C33.7734 121.824 34.7578 123.148 36.3516 123.688L35.7773 124.566C34.5996 124.15 33.7266 123.312 33.2578 122.258C32.8008 123.436 31.8984 124.355 30.668 124.812L30.0469 123.934C31.7109 123.359 32.6719 121.953 32.6719 120.383V119.141H33.7734V120.418ZM38.3789 118.484V121.648H39.9023V122.598H38.3789V126.23H37.2656V118.484H38.3789ZM38.8359 127.871V128.773H31.7344V125.48H32.8711V127.871H38.8359ZM50.6797 118.496V121.344H52.2031V122.281H50.6797V125.234H49.5664V118.496H50.6797ZM47.3281 125.316C49.4727 125.316 50.7969 125.996 50.7969 127.156C50.7969 128.293 49.4727 128.984 47.3281 128.973C45.1602 128.984 43.8359 128.293 43.8477 127.156C43.8359 125.996 45.1602 125.316 47.3281 125.316ZM47.3281 126.172C45.8164 126.172 44.9375 126.512 44.9492 127.156C44.9375 127.766 45.8164 128.129 47.3281 128.129C48.8164 128.129 49.6953 127.766 49.6953 127.156C49.6953 126.512 48.8164 126.172 47.3281 126.172ZM48.6992 119.621V120.5H42.4414V119.621H45.0195V118.414H46.1328V119.621H48.6992ZM45.5703 120.98C47.082 120.98 48.1133 121.73 48.1133 122.855C48.1133 123.98 47.082 124.719 45.5703 124.707C44.0352 124.719 43.0156 123.98 43.0156 122.855C43.0156 121.73 44.0352 120.98 45.5703 120.98ZM45.5703 121.812C44.6797 121.812 44.082 122.211 44.0938 122.855C44.082 123.477 44.6797 123.863 45.5703 123.863C46.4609 123.863 47.0586 123.477 47.0703 122.855C47.0586 122.211 46.4609 121.812 45.5703 121.812ZM57.0352 125.094C59.3086 125.094 60.7383 125.809 60.75 127.039C60.7383 128.258 59.3086 128.984 57.0352 128.973C54.7852 128.984 53.3438 128.258 53.3438 127.039C53.3438 125.809 54.7852 125.094 57.0352 125.094ZM57.0352 125.938C55.4414 125.938 54.4453 126.348 54.457 127.039C54.4453 127.719 55.4414 128.117 57.0352 128.117C58.6406 128.117 59.6367 127.719 59.6484 127.039C59.6367 126.348 58.6406 125.938 57.0352 125.938ZM60.668 119.012V119.891C60.668 120.734 60.668 121.602 60.375 122.68L59.2852 122.562C59.5664 121.49 59.5664 120.717 59.5664 119.902H53.4258V119.012H60.668ZM61.8633 123.324V124.227H52.3125V123.324H56.1445V121.355H57.2344V123.324H61.8633ZM71.7695 124.426V125.34H69.332V128.996H68.207V125.34H65.6992V128.996H64.5508V125.34H62.1602V124.426H71.7695ZM66.9414 118.895C69.1562 118.895 70.6797 119.797 70.6797 121.215C70.6797 122.609 69.1562 123.5 66.9414 123.488C64.7148 123.5 63.2031 122.609 63.2031 121.215C63.2031 119.797 64.7148 118.895 66.9414 118.895ZM66.9414 119.785C65.3828 119.797 64.3398 120.336 64.3516 121.215C64.3398 122.07 65.3828 122.609 66.9414 122.609C68.5 122.609 69.543 122.07 69.543 121.215C69.543 120.336 68.5 119.797 66.9414 119.785ZM83.168 118.496V129.02H82.0547V118.496H83.168ZM76.1719 119.375V122.07H78.9961V119.375H80.0977V126.5H75.0586V119.375H76.1719ZM76.1719 125.586H78.9961V122.949H76.1719V125.586ZM93.918 123.359V124.262H89.6758V125.27C91.6035 125.375 92.7461 126.025 92.7461 127.121C92.7461 128.316 91.3867 128.984 89.125 128.973C86.8398 128.984 85.4805 128.316 85.4805 127.121C85.4805 126.025 86.623 125.375 88.5742 125.27V124.262H84.3438V123.359H93.918ZM89.125 126.113C87.5195 126.113 86.6055 126.477 86.6055 127.121C86.6055 127.754 87.5195 128.129 89.125 128.117C90.707 128.129 91.6328 127.754 91.6328 127.121C91.6328 126.477 90.707 126.113 89.125 126.113ZM93.0625 118.977V119.867H89.875C90.0332 120.881 91.5098 121.742 93.4258 121.93L93.0273 122.809C91.2109 122.598 89.7051 121.83 89.1367 120.711C88.5508 121.83 87.0508 122.598 85.2344 122.809L84.8477 121.93C86.7344 121.742 88.2168 120.881 88.375 119.867H85.2227V118.977H93.0625Z" fill="#37474F"/>
</svg>
