<svg width="375" height="220" viewBox="0 0 375 220" fill="none" xmlns="http://www.w3.org/2000/svg">
<rect width="375" height="220" fill="#F8F8F8"/>
<path d="M225.355 183.844C221.274 164.667 221.137 144.682 221.016 127.05C220.914 111.992 220.823 98.9901 218.53 88.2131C217.144 81.6989 215.049 76.561 212.131 72.5099C209.109 68.315 205.277 65.3588 200.42 63.475L200.41 63.4709L200.4 63.4668L200.365 63.4545L200.349 63.4483L200.332 63.4421C197.723 62.4848 194.826 62 191.718 62C186.946 62 181.571 63.1607 176.167 65.3588C171.794 67.1378 167.461 69.5887 164.283 72.0826C161.336 74.3958 158.385 76.7212 155.529 78.9707L155.398 79.0755C134.634 95.4422 115.021 110.899 93.5965 124.486L91 126.134L92.6422 128.739L94.8312 132.212L96.4735 134.817L99.0699 133.17C120.939 119.299 140.751 103.686 161.725 87.1551L161.938 86.9867C164.762 84.7598 167.684 82.459 170.596 80.1725C175.598 76.2446 184.454 72.2695 191.703 72.2695C193.597 72.2695 195.305 72.5407 196.777 73.0728C210.448 78.4181 210.595 99.9104 210.782 127.116C210.906 145.241 211.046 165.784 215.346 185.986L215.987 189L218.991 188.357L222.996 187.5L226 186.857L225.359 183.844H225.355Z" fill="url(#paint0_radial_593_16522)"/>
<g filter="url(#filter0_d_593_16522)">
<rect x="215" y="84" width="138" height="50" rx="8" fill="#02A39E" shape-rendering="crispEdges"/>
<path d="M235.637 92.9258V102.209H234.338V101.033H231.877V100.117H234.338V92.9258H235.637ZM235.938 103.85V104.902H227.092V101.307H228.377V103.85H235.938ZM225.396 98.5176C227.666 98.5039 230.715 98.4766 233.326 98.1484L233.408 99.0781C232.362 99.249 231.262 99.3652 230.182 99.4336V101.826H228.883V99.502C227.693 99.5566 226.552 99.5635 225.561 99.5566L225.396 98.5176ZM229.402 93.3906C231.193 93.3906 232.438 94.252 232.438 95.5508C232.438 96.8496 231.193 97.6836 229.402 97.6836C227.584 97.6836 226.354 96.8496 226.354 95.5508C226.354 94.252 227.584 93.3906 229.402 93.3906ZM229.402 94.3613C228.309 94.3477 227.57 94.8125 227.584 95.5508C227.57 96.2754 228.309 96.7266 229.402 96.7266C230.455 96.7266 231.193 96.2754 231.207 95.5508C231.193 94.8125 230.455 94.3477 229.402 94.3613ZM248.692 99.8301V100.896H245.848V105.162H244.536V100.896H241.61V105.162H240.27V100.896H237.481V99.8301H248.692ZM243.059 93.377C245.643 93.377 247.421 94.4297 247.421 96.084C247.421 97.7109 245.643 98.75 243.059 98.7363C240.462 98.75 238.698 97.7109 238.698 96.084C238.698 94.4297 240.462 93.377 243.059 93.377ZM243.059 94.416C241.241 94.4297 240.024 95.0586 240.038 96.084C240.024 97.082 241.241 97.7109 243.059 97.7109C244.878 97.7109 246.094 97.082 246.094 96.084C246.094 95.0586 244.878 94.4297 243.059 94.416ZM259.367 93.6914V98.7227H253.543V93.6914H259.367ZM254.814 94.7305V97.7109H258.082V94.7305H254.814ZM263.045 92.9121V99.9121H261.76V92.9121H263.045ZM263.332 100.705V101.689H259.75C259.839 102.756 261.541 103.87 263.77 104.123L263.332 105.121C261.411 104.896 259.832 104.068 259.094 102.988C258.342 104.082 256.728 104.882 254.801 105.121L254.35 104.123C256.578 103.911 258.321 102.783 258.41 101.689H254.842V100.705H258.437V99.5566H259.723V100.705H263.332ZM277.849 92.9121V97.793H279.749V98.873H277.849V105.148H276.55V92.9121H277.849ZM274.65 94.1973C274.636 97.7383 273.077 100.896 269.044 102.893L268.32 101.881C271.389 100.35 273.057 98.1348 273.324 95.2773L268.935 95.2773V94.1973L274.65 94.1973ZM286.57 94.6484C286.57 96.6445 288.703 98.5313 291.055 98.9551L290.453 100.035C288.498 99.6113 286.693 98.3262 285.9 96.6035C285.094 98.3125 283.296 99.5977 281.334 100.035L280.76 98.9551C283.084 98.5176 285.203 96.6445 285.203 94.6484V93.7188H286.57V94.6484ZM291.56 102.469V103.549H280.35V102.469H291.56ZM299.638 104.137C297.491 104.137 295.988 102.975 296.001 101.361C295.988 100.09 296.904 99.0508 298.066 98.873V98.8184C297.054 98.5859 296.37 97.6836 296.37 96.6035C296.37 95.0859 297.751 93.9648 299.638 93.9648C301.511 93.9648 302.878 95.0859 302.892 96.6035C302.878 97.6836 302.195 98.5859 301.197 98.8184V98.873C302.345 99.0508 303.261 100.09 303.275 101.361C303.261 102.975 301.757 104.137 299.638 104.137ZM299.638 102.893C300.923 102.893 301.743 102.223 301.743 101.252C301.743 100.227 300.855 99.4883 299.638 99.4883C298.407 99.4883 297.505 100.227 297.532 101.252C297.505 102.223 298.325 102.893 299.638 102.893ZM299.638 98.2988C300.677 98.2988 301.415 97.6699 301.415 96.7402C301.415 95.8242 300.691 95.1953 299.638 95.1953C298.544 95.1953 297.833 95.8105 297.833 96.7402C297.833 97.6699 298.585 98.2988 299.638 98.2988ZM308.223 104.137C305.926 104.137 304.586 102.291 304.586 99.0508C304.586 95.8379 305.953 93.9648 308.223 93.9648C310.492 93.9648 311.859 95.8379 311.859 99.0508C311.859 102.291 310.506 104.137 308.223 104.137ZM308.223 102.838C309.562 102.838 310.355 101.525 310.355 99.0508C310.355 96.5898 309.549 95.2363 308.223 95.2363C306.896 95.2363 306.09 96.5898 306.09 99.0508C306.09 101.525 306.883 102.838 308.223 102.838ZM315.631 98.8047C314.278 98.8184 313.54 97.8066 313.553 96.3438C313.54 94.8945 314.305 93.8965 315.631 93.8965C316.985 93.8965 317.71 94.8945 317.71 96.3438C317.71 97.8203 316.958 98.8184 315.631 98.8047ZM315.631 97.8477C316.274 97.8477 316.575 97.2461 316.575 96.3438C316.575 95.4551 316.288 94.8535 315.631 94.8535C315.003 94.8672 314.674 95.4551 314.674 96.3438C314.674 97.2461 314.989 97.8477 315.631 97.8477ZM321.879 104.205C320.526 104.205 319.788 103.207 319.801 101.744C319.788 100.281 320.567 99.2832 321.879 99.2832C323.233 99.2832 323.958 100.281 323.958 101.744C323.958 103.207 323.206 104.205 321.879 104.205ZM321.879 103.234C322.522 103.234 322.823 102.633 322.823 101.744C322.823 100.842 322.536 100.24 321.879 100.24C321.251 100.254 320.922 100.855 320.922 101.744C320.922 102.633 321.251 103.234 321.879 103.234ZM314.674 104L321.469 94.1016H322.713L315.919 104H314.674ZM334.948 92.9121V97.793H336.849V98.873H334.948V105.148H333.65V92.9121H334.948ZM331.749 94.1973C331.736 97.7383 330.177 100.896 326.144 102.893L325.419 101.881C328.488 100.35 330.156 98.1348 330.423 95.2773H326.034V94.1973H331.749ZM228.732 112.828C230.564 112.828 231.863 114.496 231.877 117.121C231.863 119.76 230.564 121.428 228.732 121.428C226.9 121.428 225.588 119.76 225.602 117.121C225.588 114.496 226.9 112.828 228.732 112.828ZM228.732 113.99C227.611 113.99 226.846 115.193 226.846 117.121C226.846 119.062 227.611 120.266 228.732 120.266C229.867 120.266 230.633 119.062 230.633 117.121C230.633 115.193 229.867 113.99 228.732 113.99ZM234.994 111.912V116.711H236.963V117.805H234.994V124.162H233.695V111.912H234.994ZM241.993 115.029C241.979 117.271 243.333 119.514 245.233 120.361L244.454 121.387C243.046 120.717 241.931 119.343 241.364 117.668C240.79 119.459 239.662 120.942 238.192 121.66L237.399 120.566C239.327 119.705 240.68 117.367 240.68 115.029V112.938H241.993V115.029ZM247.639 111.912V124.189H246.34V111.912H247.639ZM252.82 112.828C254.652 112.828 255.951 114.496 255.964 117.121C255.951 119.76 254.652 121.428 252.82 121.428C250.988 121.428 249.675 119.76 249.689 117.121C249.675 114.496 250.988 112.828 252.82 112.828ZM252.82 113.99C251.699 113.99 250.933 115.193 250.933 117.121C250.933 119.062 251.699 120.266 252.82 120.266C253.954 120.266 254.72 119.062 254.72 117.121C254.72 115.193 253.954 113.99 252.82 113.99ZM259.081 111.912V116.711H261.05V117.805H259.081V124.162H257.783V111.912H259.081ZM272.793 121.605V122.699H261.582V121.605H266.518V119.459H262.949V115.562H270.141V113.84H262.922V112.773H271.426V116.602H264.234V118.393H271.713V119.459H267.803V121.605H272.793ZM288.349 113.936V115.002H286.613V116.547H288.349V117.613H286.613V119.773H285.314V111.912H286.613V113.936H288.349ZM282.702 119.869C285.204 119.869 286.749 120.662 286.749 122.016C286.749 123.342 285.204 124.148 282.702 124.135C280.173 124.148 278.628 123.342 278.642 122.016C278.628 120.662 280.173 119.869 282.702 119.869ZM282.702 120.867C280.939 120.867 279.913 121.264 279.927 122.016C279.913 122.727 280.939 123.15 282.702 123.15C284.439 123.15 285.464 122.727 285.464 122.016C285.464 121.264 284.439 120.867 282.702 120.867ZM284.302 113.225V114.25L277.001 114.25V113.225H280.009V111.816L281.308 111.816V113.225H284.302ZM280.652 114.811C282.415 114.811 283.618 115.686 283.618 116.998C283.618 118.311 282.415 119.172 280.652 119.158C278.861 119.172 277.671 118.311 277.671 116.998C277.671 115.686 278.861 114.811 280.652 114.811ZM280.652 115.781C279.613 115.781 278.915 116.246 278.929 116.998C278.915 117.723 279.613 118.174 280.652 118.174C281.691 118.174 282.388 117.723 282.402 116.998C282.388 116.246 281.691 115.781 280.652 115.781ZM298.656 111.912V115.084H300.434V116.191H298.656V119.295H297.357V111.912H298.656ZM298.656 119.938V124.012L290.836 124.012V119.938H298.656ZM292.107 120.963V122.959H297.371V120.963H292.107ZM296.346 113.156V114.195H289.045V113.156H292.053V111.816H293.352V113.156H296.346ZM292.695 114.729C294.459 114.729 295.662 115.604 295.662 116.916C295.662 118.242 294.459 119.104 292.695 119.117C290.904 119.104 289.715 118.242 289.715 116.916C289.715 115.604 290.904 114.729 292.695 114.729ZM292.695 115.727C291.656 115.713 290.959 116.178 290.973 116.916C290.959 117.682 291.656 118.133 292.695 118.133C293.734 118.133 294.432 117.682 294.445 116.916C294.432 116.178 293.734 115.713 292.695 115.727Z" fill="white"/>
</g>
<path d="M219.667 69.3335L235 84H222.222L216.471 71.6215C215.539 69.6165 218.069 67.8052 219.667 69.3335Z" fill="#02A39E"/>
<rect x="164.5" y="136.5" width="5" height="5" rx="2.5" fill="white" stroke="black"/>
<path d="M179.168 134.129C181.412 134.135 183.047 135.242 183.047 136.918C183.047 138.488 181.676 139.537 179.719 139.695V141.758H183.996V142.684H174.387V141.758H178.617V139.695C176.672 139.537 175.295 138.488 175.301 136.918C175.295 135.242 176.936 134.135 179.168 134.129ZM176.379 136.918C176.379 138.096 177.551 138.828 179.168 138.84C180.797 138.828 181.963 138.096 181.969 136.918C181.963 135.781 180.797 135.031 179.168 135.043C177.551 135.031 176.379 135.781 176.379 136.918ZM189.838 134.422V139.32H184.928V134.422H189.838ZM186.018 138.441H188.748V135.324H186.018V138.441ZM186.112 143.773V140.445H187.225V142.871H193.213V143.773H186.112ZM191.655 141.184V133.484H192.768V136.625H194.291V137.562H192.768V141.184H191.655Z" fill="#191414"/>
<g clip-path="url(#clip0_593_16522)">
<path d="M166.364 75.6585C164.442 75.6585 162.642 74.721 161.545 73.1554L160.251 71.2993H159.632C158.62 71.2993 157.748 70.6336 157.476 69.6681L155.404 64.8401C155.376 64.7744 155.358 64.7088 155.348 64.6432C155.32 64.5026 155.273 64.3432 155.226 64.1651C155.001 63.3776 154.664 62.1964 155.414 61.3339C156.042 60.4621 157.176 60.4621 157.608 60.4621H157.683V58.8028C157.683 58.4184 157.917 58.0809 158.254 57.9403V56.7966C158.254 56.281 158.676 55.8591 159.192 55.8591H165.107C165.623 55.8591 166.045 56.281 166.045 56.7966V57.8653H169.382C169.898 57.8653 170.32 58.2872 170.32 58.8028V60.4715H196.738L201.791 55.4185C201.959 55.2498 202.156 55.1091 202.372 54.9966V49.9155C202.372 48.7999 203.375 47.9281 204.669 47.9281H207.2C208.231 47.9281 209.112 48.4906 209.393 49.3343L211.24 54.7904C211.887 54.9123 212.45 55.3154 212.778 55.906C213.171 56.6184 213.162 57.4716 212.759 58.1372L208.803 65.0463C208.765 65.1213 208.709 65.1776 208.653 65.2432L204.2 69.743C205.175 70.7274 205.344 72.3023 204.969 73.4835C204.547 74.8241 203.506 75.6491 202.25 75.6491H166.364V75.6585Z" fill="#37474F"/>
<path d="M207.19 48.8749C207.818 48.8749 208.343 49.1843 208.503 49.653L210.547 55.7091H210.818C210.818 55.7091 210.847 55.7091 210.856 55.7091C211.812 55.7091 212.459 56.8528 211.953 57.6684L207.978 64.6057L203.084 69.5462C202.981 69.7712 203.047 70.0524 203.253 70.193C204.884 71.3274 204.359 74.7304 202.241 74.7304C202.241 74.7304 202.222 74.7304 202.212 74.7304H166.364C164.751 74.7304 163.242 73.9429 162.314 72.6211L160.898 70.5962C160.795 70.4555 160.636 70.3712 160.467 70.3712H159.632C159.023 70.3712 158.508 69.9587 158.358 69.3681L156.258 64.4838C156.126 63.7807 155.545 62.5527 156.145 61.9245C156.436 61.4839 157.026 61.4089 157.608 61.4089C157.889 61.4089 158.179 61.4277 158.414 61.4277C158.489 61.4277 158.554 61.4277 158.62 61.4277V58.8215H159.192V56.8153H165.107V58.8215H169.382V61.4277H196.906C197.047 61.4277 197.178 61.3714 197.281 61.2683L202.456 56.0935C202.691 55.8685 202.991 55.7279 203.309 55.7091V49.9249C203.309 49.3343 203.9 48.8749 204.669 48.8749H207.2M207.19 47H204.659C202.85 47 201.425 48.2843 201.425 49.9249V54.4998C201.322 54.5841 201.219 54.6685 201.125 54.7623L196.344 59.5434H171.248V58.8121C171.248 57.7809 170.404 56.9372 169.373 56.9372H166.973V56.806C166.973 55.7747 166.129 54.931 165.098 54.931H159.182C158.151 54.931 157.308 55.7747 157.308 56.806V57.4622C156.951 57.7997 156.736 58.2778 156.736 58.8121V59.5902C156.079 59.6934 155.245 59.9746 154.664 60.7621C153.614 61.9995 154.064 63.5745 154.308 64.437C154.345 64.5776 154.392 64.7088 154.411 64.8213C154.439 64.962 154.476 65.0932 154.533 65.2244L156.586 69.9962C156.998 71.3274 158.217 72.2461 159.632 72.2461H159.764L160.776 73.6992C162.051 75.5179 164.142 76.6053 166.364 76.6053H202.222C203.928 76.6053 205.315 75.5272 205.859 73.7835C206.29 72.4055 206.112 70.9524 205.437 69.8462L209.318 65.9275C209.431 65.815 209.534 65.6838 209.609 65.5432L213.565 58.634C214.137 57.6872 214.146 56.4778 213.584 55.4841C213.209 54.8185 212.628 54.3216 211.953 54.0592L210.265 49.0718C209.853 47.8437 208.606 47.0188 207.181 47.0188L207.19 47Z" fill="#37474F"/>
<path d="M158.741 69.2649C158.845 69.6774 159.21 69.968 159.632 69.968H160.466C160.766 69.968 161.048 70.118 161.216 70.3618L162.632 72.3867C163.485 73.6054 164.873 74.3273 166.363 74.3273H202.221C204.031 74.3273 204.303 71.3836 203.037 70.5024C202.653 70.2305 202.54 69.7055 202.774 69.3024L207.706 64.3151H156.623L158.741 69.2649Z" fill="#F77152"/>
<path d="M210.818 56.0935H203.384C203.14 56.0935 202.906 56.1872 202.737 56.3654L197.562 61.5402C197.394 61.7089 197.159 61.8121 196.916 61.8121H157.176C156.576 61.8121 156.145 62.3745 156.286 62.9464L156.323 63.087L156.623 64.3151H207.706L208.409 63.087L211.615 57.4622C211.962 56.8528 211.521 56.0841 210.818 56.0841V56.0935Z" fill="#4F4543"/>
<path d="M208.128 49.7749C208.025 49.4749 207.64 49.2687 207.19 49.2687H204.659C204.125 49.2687 203.694 49.5593 203.694 49.9249V56.1028H210.265L208.128 49.7843V49.7749Z" fill="#DDDDDD"/>
<path d="M168.979 59.1965H164.704V57.1903H159.576V59.1965H159.004V61.8027H168.979V59.1965Z" fill="#DDDDDD"/>
</g>
<path d="M211.231 17H180.769C179.239 17 178 18.2269 178 19.7416V40.3036C178 41.8184 179.239 43.0452 180.769 43.0452H193.632L194.975 46.3489L195.01 46.4243C195.211 46.7807 195.585 47 196 47C196.415 47 196.789 46.7807 196.99 46.4243L198.368 43.0452H211.231C212.761 43.0452 214 41.8184 214 40.3036V19.7416C214 18.2269 212.761 17 211.231 17Z" fill="#37474F"/>
<path d="M179.911 18.6998V28.8369H194.74V18.6998H179.911ZM192.289 21.8938L192.116 22.0103L191.486 21.0439L191.832 20.8109L192.462 21.7773L192.289 21.8938ZM191.092 19.6662L191.722 20.6327L191.376 20.8657L190.746 19.8993L191.092 19.6662ZM190.406 20.1323L190.579 20.0158L191.95 22.1268L191.777 22.2434L191.604 22.3599L190.233 20.2488L190.406 20.1323ZM191.265 22.5929L191.092 22.7094L190.462 21.743L190.808 21.51L191.438 22.4764L191.265 22.5929ZM191.431 25.0535L190.801 26.0199L190.455 25.7869L191.085 24.8205L191.431 25.0535ZM190.974 26.1364L191.604 25.17L191.777 25.2865L191.95 25.4031L191.32 26.3695L190.974 26.1364ZM190.06 20.3654L190.69 21.3318L190.344 21.5648L189.714 20.5984L190.06 20.3654ZM184.923 20.6052L183.552 22.7163L183.206 22.4832L184.577 20.3722L184.923 20.6052ZM184.404 20.2488L183.033 22.3599L182.86 22.2434L182.687 22.1268L184.058 20.0158L184.404 20.2488ZM183.324 26.3763L182.694 25.4099L183.04 25.1769L183.67 26.1433L183.324 26.3763ZM183.552 19.6662L183.899 19.8993L182.528 22.0103L182.182 21.7773L183.552 19.6662ZM183.719 27.754L183.546 27.8705L182.175 25.7595L182.348 25.6429L182.521 25.5264L183.892 27.6375L183.719 27.754ZM184.238 27.3976L184.065 27.5141L183.435 26.5477L183.781 26.3146L184.411 27.281L184.238 27.3976ZM184.577 27.1645L183.206 25.0535L183.552 24.8205L184.923 26.9315L184.577 27.1645ZM185.948 25.876C184.833 25.1083 184.515 23.573 185.228 22.4147C185.242 22.3941 185.249 22.3804 185.262 22.3599C186.017 21.1947 187.554 20.8794 188.689 21.6539C189.804 22.4216 190.122 23.9569 189.409 25.1152C189.396 25.1357 189.389 25.1495 189.375 25.17C188.62 26.3352 187.083 26.6505 185.948 25.876ZM189.721 26.9315L190.351 25.9651L190.697 26.1981L190.067 27.1645L189.721 26.9315ZM190.233 27.281L190.863 26.3146L191.209 26.5477L190.579 27.5141L190.233 27.281ZM190.746 27.6306L191.376 26.6642L191.722 26.8972L191.092 27.8636L190.746 27.6306ZM191.832 26.7259L191.486 26.4928L192.116 25.5264L192.462 25.7595L191.832 26.7259Z" fill="white"/>
<path d="M183.552 22.7094L184.923 20.6052L184.577 20.3654L183.206 22.4764L183.552 22.7094Z" fill="#37474F"/>
<path d="M182.867 22.2433L183.033 22.3598L184.404 20.2488L184.065 20.0157L182.694 22.1268L182.867 22.2433Z" fill="#37474F"/>
<path d="M183.892 19.8993L183.552 19.6663L182.182 21.7773L182.521 22.0103L183.892 19.8993Z" fill="#37474F"/>
<path d="M190.863 26.3146L190.233 27.281L190.579 27.514L191.202 26.5476L190.863 26.3146Z" fill="#37474F"/>
<path d="M191.493 26.4928L191.832 26.7258L192.462 25.7594L192.116 25.5264L191.493 26.4928Z" fill="#37474F"/>
<path d="M190.344 25.9651L189.721 26.9315L190.06 27.1645L190.69 26.1981L190.344 25.9651Z" fill="#37474F"/>
<path d="M191.092 24.8204L190.462 25.7868L190.808 26.0199L191.431 25.0535L191.092 24.8204Z" fill="#37474F"/>
<path d="M191.376 26.6642L190.746 27.6306L191.092 27.8705L191.722 26.9041L191.376 26.6642Z" fill="#37474F"/>
<path d="M191.777 25.2934L191.604 25.17L190.974 26.1365L191.32 26.3763L191.95 25.4099L191.777 25.2934Z" fill="#37474F"/>
<path d="M185.609 24.1213C186.176 24.512 186.945 24.3544 187.326 23.7718C187.706 23.1892 188.468 23.0315 189.042 23.4222C189.589 23.7992 189.756 24.5463 189.416 25.122C190.129 23.9637 189.818 22.4284 188.696 21.6607C187.561 20.8862 186.024 21.2015 185.269 22.3667C185.256 22.3872 185.249 22.401 185.235 22.4215C184.902 22.9973 185.062 23.7443 185.609 24.1213Z" fill="#CD2E3A"/>
<path d="M185.228 22.4147C185.228 22.4147 185.249 22.3804 185.262 22.3599C185.249 22.3804 185.242 22.3941 185.228 22.4147Z" fill="#0047A0"/>
<path d="M189.035 23.4154C188.468 23.0247 187.699 23.1823 187.318 23.7649C186.938 24.3475 186.176 24.5051 185.602 24.1145C185.055 23.7375 184.888 22.9904 185.228 22.4147C184.515 23.573 184.826 25.1083 185.948 25.8759C187.083 26.6505 188.62 26.3352 189.375 25.17C189.388 25.1494 189.395 25.1357 189.409 25.1152C189.742 24.5394 189.582 23.7923 189.035 23.4154Z" fill="#0047A0"/>
<path d="M182.521 25.5264L182.348 25.6429L182.182 25.7594L183.552 27.8704L183.719 27.7539L183.892 27.6305L182.521 25.5264Z" fill="#37474F"/>
<path d="M183.206 25.0535L184.577 27.1645L184.923 26.9315L183.552 24.8204L183.206 25.0535Z" fill="#37474F"/>
<path d="M182.694 25.4099L183.324 26.3763L183.663 26.1365L183.033 25.17L182.694 25.4099Z" fill="#37474F"/>
<path d="M183.781 26.3146L183.435 26.5476L184.065 27.514L184.238 27.3975L184.404 27.281L183.781 26.3146Z" fill="#37474F"/>
<path d="M191.832 20.8109L191.493 21.0439L192.116 22.0104L192.289 21.8938L192.462 21.7773L191.832 20.8109Z" fill="#37474F"/>
<path d="M190.808 21.51L190.462 21.743L191.092 22.7095L191.265 22.5929L191.431 22.4764L190.808 21.51Z" fill="#37474F"/>
<path d="M191.722 20.6327L191.092 19.6663L190.746 19.8993L191.376 20.8657L191.722 20.6327Z" fill="#37474F"/>
<path d="M191.604 22.3598L191.777 22.2433L191.95 22.1268L190.579 20.0157L190.406 20.1323L190.233 20.2488L191.604 22.3598Z" fill="#37474F"/>
<path d="M190.69 21.3386L190.06 20.3654L189.721 20.6052L190.344 21.5717L190.69 21.3386Z" fill="#37474F"/>
<path d="M212.096 18.6998H197.267V28.8369H212.096V18.6998Z" fill="#DE2910"/>
<path d="M199.739 19.7142L200.611 22.4627L198.326 20.7629H201.144L198.859 22.4627L199.732 19.7142H199.739Z" fill="#FFDE00"/>
<path d="M202.404 19.2482L202.321 20.2077L201.836 19.3784L202.702 19.7554L201.788 19.9747L202.404 19.2482Z" fill="#FFDE00"/>
<path d="M203.553 20.3722L203.117 21.2221L202.986 20.2694L203.643 20.9617L202.716 20.7972L203.56 20.3722H203.553Z" fill="#FFDE00"/>
<path d="M203.664 22.072L202.923 22.6683L203.179 21.743L203.505 22.6478L202.722 22.1063L203.664 22.072Z" fill="#FFDE00"/>
<path d="M202.383 22.7848L202.342 23.7512L201.822 22.9424L202.702 23.2851L201.795 23.5387L202.383 22.7848Z" fill="#FFDE00"/>
<path d="M194.74 31.2152H179.911V41.3523H194.74V31.2152Z" fill="white"/>
<path d="M187.319 39.3235C188.955 39.3235 190.282 37.9611 190.282 36.2804C190.282 34.5997 188.955 33.2372 187.319 33.2372C185.682 33.2372 184.355 34.5997 184.355 36.2804C184.355 37.9611 185.682 39.3235 187.319 39.3235Z" fill="#BC002D"/>
<path d="M212.089 36.2803V41.3454C207.209 41.3454 202.328 41.3454 197.454 41.3454C197.302 41.3454 197.267 41.318 197.267 41.1535C197.274 39.5291 197.267 37.8978 197.267 36.2734H212.082L212.089 36.2803Z" fill="#FEFEFE"/>
<path d="M212.089 36.2803H197.274C197.274 34.6491 197.274 33.011 197.274 31.3797C197.274 31.2426 197.302 31.2152 197.433 31.2152C202.265 31.2152 207.105 31.2152 211.937 31.2152C212.069 31.2152 212.096 31.2426 212.096 31.3797C212.096 33.011 212.096 34.6491 212.096 36.2803H212.089ZM200.549 34.9438C200.694 34.8753 200.832 34.7519 200.999 34.9301C200.915 34.7176 201.019 34.5942 201.185 34.4846C200.992 34.4572 200.849 34.3338 200.756 34.1145C200.756 34.4366 200.597 34.4846 200.382 34.4914C200.625 34.5874 200.59 34.7724 200.555 34.9506C200.549 34.9506 200.542 34.9575 200.535 34.9644C200.535 34.9644 200.542 34.9644 200.549 34.9644C200.549 34.9644 200.549 34.9506 200.555 34.9506L200.549 34.9438ZM200.639 33.7512C200.639 33.7512 200.652 33.7512 200.652 33.758C200.652 33.758 200.639 33.758 200.632 33.758C200.562 33.5661 200.597 33.4016 200.798 33.2783C200.542 33.34 200.452 33.1823 200.382 32.9835C200.369 33.2509 200.202 33.292 199.995 33.2988C200.202 33.4016 200.23 33.5593 200.147 33.7649C200.32 33.5867 200.472 33.6415 200.632 33.7512H200.639ZM200.507 31.9075C199.773 31.8526 199.095 32.257 198.769 32.915C198.437 33.5936 198.541 34.416 199.025 34.9781C199.42 35.4304 200.099 35.7114 200.479 35.5744C199.067 34.7793 199.025 32.7642 200.507 31.9075ZM202.619 33.7923C202.595 33.5867 202.655 33.4131 202.799 33.2714C202.563 33.3125 202.432 33.2234 202.383 32.9835C202.362 33.244 202.196 33.292 201.982 33.2988C202.245 33.4085 202.196 33.5936 202.099 33.8334C202.279 33.6552 202.425 33.5593 202.612 33.7923H202.619ZM201.795 32.5517C201.559 32.586 201.435 32.4763 201.386 32.2433C201.365 32.4969 201.206 32.5586 200.978 32.5654C201.269 32.6546 201.185 32.8533 201.123 33.0864C201.303 32.8944 201.449 32.8396 201.629 33.0247C201.545 32.8122 201.601 32.6614 201.802 32.5517H201.795ZM202.411 34.4846C202.155 34.5257 202.051 34.3955 202.002 34.1624C201.982 34.416 201.836 34.4914 201.615 34.4914C201.822 34.5942 201.85 34.745 201.767 34.9644C201.947 34.7519 202.106 34.8136 202.259 34.9781C202.189 34.7724 202.162 34.5874 202.411 34.4709V34.4846Z" fill="#EC2939"/>
<path d="M200.507 31.9075C199.026 32.7642 199.067 34.7793 200.479 35.5744C200.099 35.7114 199.42 35.4304 199.026 34.9781C198.541 34.416 198.437 33.5936 198.769 32.915C199.095 32.257 199.773 31.8458 200.507 31.9075Z" fill="#FEF9FA"/>
<path d="M202.619 33.7923C202.432 33.5593 202.286 33.6552 202.106 33.8334C202.196 33.5867 202.252 33.4085 201.989 33.2988C202.203 33.2988 202.362 33.244 202.39 32.9835C202.439 33.2166 202.57 33.3125 202.805 33.2714C202.662 33.413 202.602 33.5867 202.625 33.7923H202.619Z" fill="#FEF9FA"/>
<path d="M201.795 32.5517C201.594 32.6614 201.546 32.8122 201.622 33.0246C201.449 32.8396 201.296 32.8944 201.116 33.0863C201.179 32.8533 201.269 32.6545 200.971 32.5654C201.199 32.5586 201.352 32.4969 201.379 32.2433C201.428 32.4763 201.552 32.5791 201.788 32.5517H201.795Z" fill="#FEF9FA"/>
<path d="M200.639 33.7512C200.486 33.6415 200.327 33.5935 200.154 33.7649C200.237 33.5524 200.216 33.4016 200.002 33.2988C200.202 33.2851 200.369 33.2508 200.389 32.9835C200.459 33.1823 200.549 33.3399 200.805 33.2782C200.604 33.4016 200.569 33.5593 200.639 33.758V33.7512Z" fill="#FEF9FA"/>
<path d="M202.411 34.4846C202.162 34.6011 202.189 34.7793 202.259 34.9918C202.099 34.8273 201.947 34.7656 201.767 34.9781C201.85 34.7587 201.822 34.608 201.615 34.5051C201.836 34.5051 201.989 34.4229 202.002 34.1761C202.051 34.4023 202.155 34.5394 202.411 34.4983V34.4846Z" fill="#FEF9FA"/>
<path d="M200.549 34.9507C200.583 34.7725 200.618 34.5874 200.375 34.4915C200.59 34.4915 200.756 34.4366 200.749 34.1145C200.842 34.3338 200.985 34.4572 201.179 34.4846C201.019 34.5943 200.915 34.7177 200.992 34.9301C200.819 34.7519 200.68 34.8684 200.542 34.9438L200.549 34.9507Z" fill="#FEF9FA"/>
<path d="M200.639 33.7512C200.639 33.7512 200.653 33.7512 200.659 33.7512C200.659 33.7512 200.646 33.7512 200.646 33.7444L200.639 33.7512Z" fill="#FEF9FA"/>
<path d="M200.549 34.9438C200.549 34.9438 200.549 34.9576 200.542 34.9576C200.542 34.9576 200.535 34.9576 200.528 34.9576C200.535 34.9576 200.542 34.9507 200.549 34.9438Z" fill="#FEF9FA"/>
<path d="M80.7383 185.734C82.0469 185.739 82.9795 186.931 82.9844 188.801C82.9795 190.69 82.0469 191.882 80.7383 191.877C79.4297 191.882 78.4971 190.69 78.502 188.801C78.4971 186.931 79.4297 185.739 80.7383 185.734ZM79.3906 188.801C79.3857 190.192 79.9424 191.047 80.7383 191.047C81.5488 191.047 82.0957 190.192 82.0957 188.801C82.0957 187.429 81.5488 186.569 80.7383 186.564C79.9424 186.569 79.3857 187.429 79.3906 188.801ZM84.2832 193.83V185.08H85.2109V188.508H86.6172V189.289H85.2109V193.83H84.2832ZM93.7121 185.09V187.131H94.9914V187.912H93.7121V189.914H92.7844V185.09H93.7121ZM87.1887 186.262V185.5H91.173V187.922H88.1262V188.977C89.6447 188.962 90.7189 188.918 91.9934 188.684L92.091 189.445C90.7385 189.68 89.5813 189.733 87.9016 189.738H87.1984V187.209H90.2648V186.262H87.1887ZM88.1164 193.723V190.285H89.0344V191.271H92.7844V190.285H93.7121V193.723H88.1164ZM89.0344 192.971H92.7844V192.004H89.0344V192.971ZM102.809 185.08V193.83H101.92V185.08H102.809ZM95.3773 188.859C95.3773 186.965 96.1195 185.778 97.2621 185.783C98.3266 185.778 99.0443 186.789 99.1518 188.43H100.143V185.246H101.032V193.4H100.143V189.182H99.1566C99.0736 190.891 98.3461 191.95 97.2621 191.945C96.1195 191.95 95.3773 190.759 95.3773 188.859ZM96.2367 188.859C96.2367 190.251 96.6322 191.071 97.2621 191.066C97.9066 191.071 98.307 190.251 98.307 188.859C98.307 187.463 97.9066 186.647 97.2621 186.652C96.6322 186.647 96.2367 187.463 96.2367 188.859ZM108.312 185.92V191.672H104.211V185.92H108.312ZM105.129 190.92H107.414V186.652H105.129V190.92ZM110.041 193.85V185.08H110.968V193.85H110.041ZM119.43 185.08V193.85H118.503V185.08H119.43ZM112.653 186.623V185.871H116.755V189.064H113.61V190.979C115.031 190.974 116.266 190.905 117.731 190.666L117.819 191.428C116.271 191.687 114.953 191.745 113.405 191.75H112.663V188.322H115.807V186.623H112.653ZM127.707 189.738V190.48H121.613V185.803H127.619V186.555H122.551V187.736H127.434V188.469H122.551V189.738H127.707ZM120.607 192.727V191.965H128.615V192.727H120.607ZM91.4244 205.305C91.4342 203.464 91.9566 201.936 92.8697 200.627H93.8268C93.1529 201.594 92.5084 203.562 92.5084 205.305C92.5084 207.053 93.1529 209.021 93.8268 209.992H92.8697C91.9566 208.679 91.4342 207.15 91.4244 205.305ZM99.2127 200.93H100.287V205.578C100.292 207.062 99.1736 208.117 97.4842 208.117C95.7801 208.117 94.6668 207.062 94.6717 205.578V200.93H95.7459V205.49C95.741 206.447 96.41 207.136 97.4842 207.141C98.5535 207.136 99.2127 206.447 99.2127 205.49V200.93ZM102.138 208H100.995L103.534 200.93H104.774L107.323 208H106.181L105.536 206.135H102.782L102.138 208ZM103.09 205.236H105.224L104.179 202.219H104.13L103.09 205.236ZM108.022 208V200.93H112.455V201.857H109.096V203.996H112.221V204.914H109.096V207.072H112.494V208H108.022ZM115.576 205.305C115.566 207.15 115.043 208.679 114.13 209.992H113.173C113.847 209.021 114.492 207.053 114.492 205.305C114.492 203.562 113.847 201.594 113.173 200.627H114.13C115.043 201.936 115.566 203.464 115.576 205.305Z" fill="#191414"/>
<defs>
<filter id="filter0_d_593_16522" x="215" y="76" width="146" height="58" filterUnits="userSpaceOnUse" color-interpolation-filters="sRGB">
<feFlood flood-opacity="0" result="BackgroundImageFix"/>
<feColorMatrix in="SourceAlpha" type="matrix" values="0 0 0 0 0 0 0 0 0 0 0 0 0 0 0 0 0 0 127 0" result="hardAlpha"/>
<feOffset dx="4" dy="-4"/>
<feGaussianBlur stdDeviation="2"/>
<feComposite in2="hardAlpha" operator="out"/>
<feColorMatrix type="matrix" values="0 0 0 0 0 0 0 0 0 0 0 0 0 0 0 0 0 0 0.1 0"/>
<feBlend mode="normal" in2="BackgroundImageFix" result="effect1_dropShadow_593_16522"/>
<feBlend mode="normal" in="SourceGraphic" in2="effect1_dropShadow_593_16522" result="shape"/>
</filter>
<radialGradient id="paint0_radial_593_16522" cx="0" cy="0" r="1" gradientUnits="userSpaceOnUse" gradientTransform="translate(201.667 67.068) scale(126.498 126.908)">
<stop stop-color="#FF8474"/>
<stop offset="1" stop-color="#FF8474" stop-opacity="0"/>
</radialGradient>
<clipPath id="clip0_593_16522">
<rect width="60" height="30" fill="white" transform="translate(154 47)"/>
</clipPath>
</defs>
</svg>
