<svg width="724" height="620" viewBox="0 0 724 620" fill="none" xmlns="http://www.w3.org/2000/svg">
<path opacity="0.5" d="M359.451 203.44C359.451 203.38 359.421 203.32 359.371 203.28L358.541 202.44C358.541 202.44 358.461 202.38 358.411 202.37L355.681 201.78L355.771 199.48L355.611 196.84L354.941 192.44C354.941 192.44 354.912 192.35 354.882 192.31L353.971 191.2C353.971 191.2 353.901 191.14 353.861 191.12L349.781 189.66L347.382 188.21L345.471 186.47L342.242 179.1C342.242 179.1 342.211 179.05 342.191 179.02L340.151 176.93L339.061 175.32L339.501 174.56L341.291 170.4L344.882 165.58C344.882 165.58 344.911 165.53 344.921 165.5L345.861 162.43C345.861 162.43 345.871 162.38 345.871 162.35V159.97C345.871 159.97 345.871 159.91 345.861 159.89L344.921 156.95C344.921 156.95 344.881 156.88 344.861 156.85L343.311 155.27C343.311 155.27 343.202 155.2 343.132 155.19L341.201 155.08L339.352 154.49L337.981 152.86L337.882 150.86L338.171 147.79L337.882 144.57C337.882 144.57 337.881 144.52 337.861 144.5L336.822 141.8L336.382 139.65L336.921 136.73L338.151 133.48C338.151 133.48 338.171 133.4 338.171 133.36L337.992 131.52C337.982 131.42 337.912 131.33 337.822 131.3L335.811 130.55V125.82L339.011 124.32C339.101 124.28 339.161 124.18 339.161 124.08V121.65L341.201 117.88C341.201 117.88 341.221 117.83 341.231 117.8L341.901 114L341.981 111.08L342.651 106.4C342.651 106.4 342.651 106.32 342.641 106.29L342.091 104.46V98.17C342.091 98.11 342.071 98.06 342.041 98.01L341.371 97.08C341.321 97.01 341.231 96.97 341.151 96.97H337.311L334.901 95.51L331.391 92.1L328.831 90.51L327.561 89.93L327.031 87.8C327.031 87.8 327.012 87.74 326.992 87.71L325.481 85.51C325.481 85.51 325.431 85.45 325.401 85.43L323.902 84.55C323.902 84.55 323.852 84.53 323.832 84.52L321.712 84.01C321.662 84.01 321.622 84 321.572 84.01L319.962 84.5L318.292 84.14L316.142 82.84L310.362 80.55L309.042 78.84L306.892 76.55C306.892 76.55 306.792 76.47 306.722 76.47L303.382 76.23L301.021 76.65C300.911 76.67 300.822 76.76 300.812 76.87L300.582 78.17L299.792 78.97H298.282L296.632 78.38C296.632 78.38 296.572 78.36 296.542 78.36H294.771C294.771 78.36 294.721 78.36 294.701 78.36L292.341 78.96C292.341 78.96 292.252 79 292.212 79.04L290.012 81.43L284.732 86.09L281.932 86.82H279.922C279.842 86.82 279.752 86.86 279.712 86.93C279.662 87 279.642 87.09 279.672 87.17L280.852 90.78L280.942 93.77L277.642 94.4L276.492 94.27L277.112 94.12C277.172 94.11 277.212 94.08 277.252 94.04L277.862 93.35C277.932 93.26 277.942 93.14 277.892 93.03C277.822 92.93 277.731 92.88 277.591 92.91L274.102 93.81L271.312 94.25L262.802 97.3L261.021 97.08L255.711 95.15L252.731 93.15L250.632 91.32L249.551 88.66C249.551 88.66 249.511 88.58 249.481 88.55L248.361 87.62C248.361 87.62 248.261 87.56 248.211 87.56L246.481 87.44L244.332 87.62L242.771 86.89C242.771 86.89 242.721 86.87 242.701 86.87L241.141 86.59L239.371 85.03L238.601 82.8L237.882 79.52L237.501 74.37C237.501 74.28 237.441 74.2 237.361 74.15C237.281 74.11 237.181 74.11 237.101 74.15L236.551 74.45L235.571 74.35L234.582 73.98L233.451 72.82C233.451 72.82 233.401 72.78 233.371 72.76L232.201 72.22L231.571 71.23C231.571 71.23 231.512 71.16 231.472 71.14L229.891 70.34L230.251 69.82L232.632 68.22C232.732 68.15 232.771 68.03 232.731 67.91L231.571 64.44L231.722 62.17C231.722 62.07 231.681 61.98 231.591 61.92L228.911 60.23C228.851 60.19 228.771 60.18 228.701 60.2L224.781 61.26C224.781 61.26 224.711 61.29 224.691 61.31L222.691 62.86L221.292 64.61C221.292 64.61 221.261 64.65 221.251 64.68L220.251 67.21L218.622 69.43L217.061 69.65L216.201 69.8L212.772 69.65L210.632 69.35L208.321 68.69L203.471 60.85L201.402 58.1C201.342 58.02 201.242 58 201.152 58C201.062 58.01 200.981 58.07 200.941 58.16L199.531 61.28L199.291 62.29L197.122 63.7C197.032 63.76 196.992 63.86 197.001 63.96L197.222 65.5L198.342 68.36L198.581 73L198.531 76.11L198.892 78.78L198.342 82.21C198.322 82.31 198.372 82.41 198.452 82.47L200.552 83.91L202.312 86.73L203.272 95.14C203.272 95.14 203.292 95.2 203.302 95.23L204.861 98.24C204.861 98.24 204.902 98.3 204.922 98.32L206.712 99.84L207.741 103.65C207.741 103.65 207.772 103.72 207.792 103.75L209.372 105.62C209.372 105.62 209.452 105.69 209.512 105.71L213.131 106.58L214.831 106.66L214.111 107.53C214.111 107.53 214.071 107.58 214.061 107.61L213.261 110C213.261 110 213.241 110.09 213.261 110.15L213.991 113.25L212.622 115.11L210.582 118.76C210.582 118.76 210.542 118.85 210.552 118.91L210.611 120.04L209.472 120.54C209.422 120.57 209.372 120.61 209.342 120.67L208.781 121.78C208.781 121.78 208.762 121.83 208.752 121.86L208.142 126.34L207.741 127.28L207.312 127.59C207.232 127.64 207.191 127.74 207.201 127.83L207.481 130.45C207.481 130.51 207.512 130.57 207.552 130.61L208.481 131.57C208.541 131.63 208.621 131.65 208.691 131.65L209.892 131.55L210.382 132.78C210.382 132.78 210.411 132.84 210.441 132.86L211.432 133.91L212.382 136.03L212.491 137.94C212.491 138.03 212.542 138.11 212.622 138.15L214.511 139.3L216.741 141.06L218.701 142.99C218.701 142.99 218.741 143.03 218.761 143.04L220.481 143.93L222.471 144.48L223.681 146.07L224.741 148.66L226.001 150.81L226.841 153.2L226.292 157.8L226.181 161.38C226.181 161.48 226.231 161.57 226.321 161.62L228.271 162.74L228.711 166.07C228.711 166.07 228.731 166.14 228.751 166.17L229.611 167.65L230.681 168.92L233.841 171.64L234.461 172.09L234.781 172.24C234.851 172.28 234.951 172.28 235.021 172.24C235.091 172.2 235.151 172.13 235.161 172.04L235.361 170.64H236.361C236.441 170.64 236.512 170.61 236.562 170.55C236.612 170.49 236.642 170.42 236.632 170.34L236.501 169.21L236.882 168.34C236.912 168.28 236.912 168.21 236.882 168.15L236.551 167.19L237.071 166.8L238.211 167.08L238.821 167.77L239.011 169.37C239.011 169.37 239.032 169.43 239.042 169.46L239.761 170.92C239.761 170.92 239.811 170.99 239.841 171.01L240.961 171.84L241.382 172.6C241.412 172.65 241.461 172.69 241.521 172.72L242.301 173.02L242.582 173.43C242.632 173.5 242.712 173.54 242.792 173.54H242.801C242.881 173.54 242.961 173.5 243.001 173.45L244.091 172.14L245.771 171.41L246.391 171.89L246.941 172.95L247.121 174.22C247.121 174.22 247.141 174.29 247.161 174.32L248.821 177.01C248.821 177.01 248.872 177.07 248.902 177.09L250.132 177.92L250.771 179.44L251.441 181.97C251.441 181.97 251.481 182.06 251.511 182.1L254.481 185L255.042 187.48L256.421 190.45L257.571 194.34C257.571 194.34 257.601 194.4 257.621 194.42L258.911 196.08C258.911 196.08 258.951 196.13 258.981 196.15L260.402 197.02C260.402 197.02 260.481 197.05 260.521 197.06L263.032 197.24L264.962 197.89L267.172 199.32L268.482 200.84V201.5C268.482 201.55 268.491 201.6 268.521 201.64L269.812 203.71C269.842 203.76 269.882 203.8 269.942 203.82L274.862 205.67L275.882 206.35L275.902 206.54L275.822 206.49C275.722 206.41 275.572 206.45 275.482 206.54C275.392 206.63 275.392 206.78 275.472 206.88L276.912 208.74C276.962 208.81 277.042 208.84 277.122 208.84H278.242L280.312 208.48L282.521 208.91L283.482 209.96C283.482 209.96 283.562 210.02 283.612 210.04L285.841 210.61C285.841 210.61 285.922 210.62 285.972 210.61L287.771 210.22C287.771 210.22 287.832 210.2 287.862 210.18L290.332 208.53L291.762 208.46C291.762 208.46 291.852 208.44 291.892 208.42L293.172 207.67C293.172 207.67 293.232 207.62 293.252 207.59L294.142 206.28L297.062 205.25L300.201 203.83L301.292 203.94L302.701 204.54L304.951 206.12L306.042 208.82L306.771 213.18L308.052 216.5L309.332 218.76C309.382 218.84 309.462 218.89 309.542 218.9L312.252 219.13L313.962 219.77L317.132 220.19L319.832 220.25L321.762 220.98L323.582 222.34C323.652 222.39 323.732 222.42 323.822 222.38C323.902 222.36 323.962 222.3 323.992 222.23L324.271 221.56L324.802 221.3L326.531 222.02L329.371 222.65L334.681 223.02H334.701C334.771 223.02 334.842 222.99 334.882 222.95L335.712 222.16L336.661 223.32C336.661 223.32 336.731 223.39 336.781 223.4L339.391 224.35L341.382 224.84L343.671 225.12H343.701C343.701 225.12 343.791 225.11 343.831 225.09L344.801 224.56L345.102 224.64C345.182 224.67 345.261 224.65 345.331 224.6C345.401 224.55 345.441 224.48 345.441 224.4L345.541 221.82L345.921 219.78L347.541 214.67L348.882 212.75L350.801 210.96L352.841 210.21L355.141 209.05L356.941 208.78C357.001 208.77 357.051 208.74 357.091 208.7L359.271 206.39C359.271 206.39 359.312 206.34 359.322 206.31L359.721 205.37C359.721 205.37 359.752 205.28 359.742 205.24L359.551 203.43L359.451 203.44Z" fill="#FFCCBE"/>
<rect x="261.605" y="149.854" width="9.65334" height="9.65334" rx="4.82667" fill="white" stroke="black" stroke-width="1.93067"/>
<path d="M297.481 144.832V165.149H295.332V144.832H297.481ZM286.644 146.348C289.653 146.348 291.87 149.108 291.87 153.452C291.87 157.818 289.653 160.579 286.644 160.579C283.589 160.579 281.395 157.818 281.395 153.452C281.395 149.108 283.589 146.348 286.644 146.348ZM286.644 148.271C284.766 148.271 283.476 150.262 283.476 153.452C283.476 156.665 284.766 158.656 286.644 158.656C288.499 158.656 289.789 156.665 289.789 153.452C289.789 150.262 288.499 148.271 286.644 148.271ZM316.181 144.854V150.94H319.145V152.75H316.181V159.764H314.032V144.854H316.181ZM317.086 162.932V164.674H303.443V158.61H305.615V162.932H317.086ZM310.299 146.144V152.117H303.24V154.945C306.758 154.956 309.247 154.787 312.199 154.289L312.425 156.054C309.28 156.597 306.611 156.71 302.719 156.71H301.09V150.465H308.194V147.909H301.068V146.144H310.299Z" fill="#191414"/>
<circle cx="301.184" cy="222.027" r="15.4453" fill="#FF8474" fill-opacity="0.2" stroke="#02A39E" stroke-width="3.86133" stroke-dasharray="7.72 7.72"/>
<g filter="url(#filter0_d_593_9527)">
<rect x="115.84" y="222.027" width="139.008" height="108.332" rx="15.4453" fill="#02A39E" shape-rendering="crispEdges"/>
<rect x="114.875" y="221.061" width="140.939" height="110.263" rx="16.4107" stroke="#02A39E" stroke-width="1.93067" shape-rendering="crispEdges"/>
<g clip-path="url(#clip0_593_9527)">
<path d="M185.329 313.158C172.443 313.158 160.68 306.557 153.868 295.514C150.602 290.212 148.724 284.102 148.443 277.852L148.408 277.325C148.39 276.957 148.355 276.588 148.355 276.202C148.355 275.289 148.425 274.376 148.496 273.481C148.706 270.549 149.233 267.81 150.023 265.264C154.851 249.691 169.037 239.228 185.329 239.228C200.638 239.228 214.561 248.901 219.933 263.315L220.811 265.685H217.932L213.648 270.057L211.506 272.199L210.716 269.285C210.435 268.249 210.049 267.143 209.504 265.914C208.907 264.527 208.223 263.228 207.45 261.999L171.108 298.341C175.339 301.079 180.22 302.519 185.312 302.519C191.351 302.519 197.074 300.465 201.832 296.602C203.131 295.549 204.22 294.513 205.133 293.46L205.66 292.863H218.423L216.773 295.549C209.961 306.592 198.198 313.176 185.329 313.176V313.158ZM185.329 249.867C174.602 249.867 165.051 256.328 160.978 266.335C160.504 267.529 160.136 268.582 159.872 269.583C159.486 271.04 159.24 272.392 159.117 273.709C159.029 274.604 158.994 275.429 158.994 276.202C158.994 276.588 159.012 276.992 159.047 277.378C159.047 277.378 159.082 278.309 159.1 278.414C159.468 282.838 160.996 287.157 163.524 290.879L200.024 254.379C195.687 251.465 190.543 249.867 185.329 249.867Z" fill="#455A64"/>
<path d="M185.329 240.983C200.428 240.983 213.297 250.552 218.283 263.93H217.932C217.528 263.93 217.124 264.088 216.843 264.386L212.401 268.828C212.068 267.599 211.611 266.405 211.12 265.229C210.224 263.14 209.118 261.138 207.696 259.277L196.934 270.039L193.44 273.533L189.209 277.764L172.372 294.601L169.019 297.954L168.405 298.569C173.32 302.291 179.149 304.257 185.329 304.257C192.018 304.257 198.128 301.869 202.956 297.954C204.22 296.936 205.414 295.83 206.485 294.601H215.298C209.101 304.661 198.005 311.403 185.347 311.403C172.688 311.403 161.593 304.661 155.378 294.583C152.34 289.65 150.479 283.909 150.216 277.764C150.199 277.238 150.128 276.729 150.128 276.184C150.128 275.289 150.199 274.411 150.269 273.533C150.462 270.847 150.936 268.249 151.708 265.773C156.15 251.43 169.528 240.983 185.329 240.983ZM163.296 293.583L179.114 277.764L183.345 273.533L186.839 270.039L202.71 254.168C197.759 250.253 191.614 248.111 185.312 248.111C173.549 248.111 163.506 255.397 159.345 265.668C158.889 266.792 158.485 267.95 158.169 269.144C157.8 270.566 157.52 272.023 157.379 273.533C157.291 274.411 157.239 275.289 157.239 276.184C157.239 276.711 157.274 277.238 157.309 277.764C157.309 278.028 157.309 278.291 157.344 278.554C157.748 283.382 159.433 288.035 162.172 292.055C162.523 292.582 162.892 293.091 163.296 293.6M185.329 237.472C168.264 237.472 153.394 248.427 148.338 264.737C147.512 267.406 146.968 270.285 146.74 273.27V273.358C146.67 274.253 146.599 275.184 146.599 276.184C146.599 276.606 146.617 277.009 146.652 277.413C146.652 277.571 146.67 277.747 146.687 277.905C146.986 284.453 148.952 290.844 152.376 296.409C159.503 307.979 171.828 314.896 185.329 314.896C198.83 314.896 211.137 307.997 218.265 296.427L221.566 291.072H204.869L203.816 292.284C202.956 293.267 201.938 294.232 200.726 295.216C196.284 298.832 190.965 300.728 185.329 300.728C181.309 300.728 177.464 299.78 173.97 297.937L174.848 297.059L191.685 280.222L195.916 275.991L199.409 272.497L207.064 264.843C207.345 265.405 207.626 265.984 207.872 266.563C208.381 267.757 208.732 268.758 208.995 269.706L210.593 275.552L214.877 271.268L218.739 267.406H223.339L221.566 262.666C215.93 247.602 201.376 237.472 185.329 237.472ZM163.857 288.07C162.172 285.033 161.136 281.679 160.855 278.256C160.855 278.168 160.855 278.08 160.855 277.993C160.855 277.852 160.855 277.712 160.855 277.571V277.308C160.82 276.939 160.803 276.571 160.803 276.184C160.803 275.464 160.838 274.71 160.926 273.849C161.048 272.638 161.277 271.374 161.628 270.004C161.874 269.074 162.207 268.091 162.664 266.967C166.456 257.627 175.375 251.605 185.382 251.605C189.543 251.605 193.651 252.676 197.267 254.695L184.416 267.546L180.922 271.04L176.691 275.271L163.91 288.052L163.857 288.07Z" fill="#37474F"/>
<path d="M234.821 262.929C234.206 261.876 233.258 261.103 232.135 260.699L229.255 252.149C228.606 250.201 226.622 248.901 224.357 248.901H220.091C217.896 248.901 216.07 250.078 215.316 251.781C208.082 242.932 197.092 237.472 185.329 237.472C169.142 237.472 154.939 247.339 149.198 262.262H144.247C142.316 262.262 140.736 263.842 140.736 265.773V266.739C140.139 267.371 139.77 268.214 139.77 269.144V270.039C138.365 270.162 137.101 270.847 136.224 271.953C135.258 273.182 134.924 274.762 135.293 276.29L135.346 276.535L135.855 278.607C135.907 278.8 135.96 278.976 136.03 279.151L139.507 287.298C140.174 289.369 142.105 290.791 144.317 290.791H144.703L146.512 293.355C148.127 295.654 150.567 297.252 153.288 297.849C160.539 308.558 172.39 314.914 185.329 314.914C198.268 314.914 210.031 308.611 217.282 297.972C218.95 297.603 220.389 296.532 221.267 294.952C221.601 294.355 221.811 293.706 221.969 293.039C222.04 292.793 222.075 292.529 222.127 292.266C222.127 292.143 222.163 292.038 222.18 291.915C222.285 290.914 222.18 289.861 221.917 288.86C222.391 287.526 222.777 286.244 223.076 284.945L227.746 280.222C227.956 280.012 228.149 279.766 228.307 279.485L229.484 277.413L232.591 271.953L234.856 268.003C235.084 267.599 235.242 267.195 235.365 266.756C235.716 265.475 235.541 264.088 234.856 262.912L234.821 262.929ZM231.801 266.23L226.411 275.693L225.235 277.764L219.845 283.207L216.931 286.156C216.545 286.841 216.72 287.736 217.387 288.175C217.686 288.386 217.931 288.649 218.125 288.965C219.354 290.932 218.651 294.601 216.018 294.601H215.298C209.101 304.661 198.005 311.403 185.347 311.403C172.688 311.403 161.593 304.661 155.378 294.583C152.99 294.496 150.778 293.302 149.408 291.336L147.021 287.93C146.74 287.508 146.266 287.262 145.757 287.262H144.352C143.632 287.262 143.018 286.771 142.842 286.086L139.278 277.764L138.769 275.693L138.717 275.447C138.471 274.464 139.208 273.533 140.226 273.533H143.316V269.144H144.282V265.773H151.726C156.15 251.43 169.528 240.983 185.329 240.983C201.13 240.983 213.297 250.552 218.283 263.93H218.476V253.536C218.476 252.922 219.196 252.43 220.091 252.43H224.357C225.112 252.43 225.762 252.781 225.937 253.291L229.536 263.93H230.467C231.661 263.93 232.398 265.211 231.819 266.247L231.801 266.23Z" fill="#37474F"/>
<path d="M160.065 269.179H160.153V273.533H183.345L186.839 270.039H163.647V269.179C163.647 267.248 162.084 265.685 160.153 265.685H159.346C158.889 266.809 158.485 267.968 158.169 269.162H160.048V269.197L160.065 269.179Z" fill="#37474F"/>
<path d="M202.938 297.954C204.202 296.936 205.396 295.83 206.467 294.601H172.372L169.019 297.954H202.956H202.938Z" fill="#37474F"/>
<path d="M206.274 270.039H196.934L193.44 273.533H207.046C207.45 273.533 207.854 273.375 208.135 273.077L212.401 268.811C212.068 267.582 211.611 266.388 211.119 265.211L206.274 270.039Z" fill="#37474F"/>
<path d="M139.261 277.764L142.825 286.086C143 286.771 143.615 287.262 144.335 287.262H145.739C146.248 287.262 146.722 287.508 147.003 287.93L149.391 291.336C150.76 293.302 152.973 294.496 155.36 294.584C152.323 289.65 150.462 283.909 150.199 277.764H139.261Z" fill="#F77152"/>
<path d="M157.309 277.764C157.309 278.028 157.309 278.291 157.344 278.554C157.748 283.382 159.433 288.035 162.172 292.055C162.523 292.582 162.892 293.091 163.295 293.6L179.114 277.782H157.309V277.764Z" fill="#F77152"/>
<path d="M183.345 273.533H157.379C157.291 274.411 157.239 275.289 157.239 276.184C157.239 276.711 157.274 277.238 157.309 277.764H179.114L183.345 273.533Z" fill="#4F4543"/>
<path d="M230.449 263.93H217.932C217.528 263.93 217.124 264.088 216.843 264.386L212.401 268.828L208.135 273.094C207.837 273.393 207.45 273.551 207.047 273.551H193.44L189.209 277.782H225.217L226.394 275.71L231.784 266.247C232.381 265.211 231.626 263.93 230.432 263.93H230.449Z" fill="#4F4543"/>
<path d="M150.111 276.184C150.111 275.289 150.181 274.411 150.251 273.533H140.191C139.191 273.533 138.453 274.481 138.682 275.447L138.734 275.693L139.243 277.764H150.181C150.163 277.238 150.093 276.728 150.093 276.184H150.111Z" fill="#4F4543"/>
<path d="M225.937 253.291C225.762 252.781 225.112 252.43 224.357 252.43H220.091C219.195 252.43 218.476 252.922 218.476 253.536V263.93H229.536L225.937 253.291Z" fill="#DDDDDD"/>
<path d="M160.065 269.179V269.144H158.187C157.818 270.566 157.537 272.023 157.396 273.533H160.083V269.179H160.065Z" fill="#DDDDDD"/>
<path d="M151.691 265.773H144.247V269.144H143.281V273.533H150.251C150.444 270.847 150.918 268.249 151.691 265.773Z" fill="#DDDDDD"/>
<path d="M213.314 277.764H189.209L172.372 294.601H216C218.634 294.601 219.318 290.932 218.107 288.965C217.914 288.649 217.668 288.369 217.37 288.175C216.72 287.719 216.527 286.841 216.913 286.156L219.827 283.207L225.217 277.764H213.314Z" fill="#F77152"/>
</g>
</g>
<path d="M277.235 235.667L241.333 247.125L241.333 270.293L279.055 238.992C280.688 237.637 279.257 235.022 277.235 235.667Z" fill="#02A39E"/>
<rect x="399.648" y="193.067" width="231.68" height="104.256" rx="15.4453" fill="black" fill-opacity="0.6"/>
<g clip-path="url(#clip1_593_9527)">
<path d="M452.066 255.794C445.327 255.794 438.454 251.334 436.099 245.407C435.23 243.206 434.342 240.58 434.496 237.723C434.516 237.26 434.419 237.163 434.149 236.97C431.755 235.561 431.234 233.051 430.886 231.41C429.901 226.737 430.365 222.278 432.257 218.146C433.994 214.362 437.103 211.717 441.485 210.269C445.057 209.091 448.629 208.493 452.143 208.493C455.309 208.493 458.475 208.975 461.545 209.941C468.38 212.064 471.585 215.984 472.299 223.069L472.453 224.44C472.782 227.259 473.11 230.193 472.067 233.263C471.604 234.653 470.909 236.178 469.403 237.279C469.268 237.8 469.229 238.379 469.191 239.036C469.152 239.654 469.094 240.291 468.978 240.909C467.878 246.971 464.402 251.469 458.63 254.288C456.583 255.292 454.382 255.794 452.085 255.794H452.066Z" fill="#37474F"/>
<path d="M452.143 210.443C455.077 210.443 458.031 210.887 460.966 211.794C467.202 213.725 469.77 217.181 470.388 223.262C470.716 226.429 471.314 229.518 470.252 232.645C469.789 233.997 469.171 235.271 467.8 236.024C467.202 237.491 467.376 239.055 467.105 240.542C466.121 246.006 463.051 249.963 457.8 252.531C455.946 253.439 453.996 253.844 452.104 253.844C445.81 253.844 439.844 249.481 437.914 244.673C437.026 242.453 436.311 240.194 436.446 237.8C436.504 236.738 436.138 235.947 435.249 235.348C433.55 234.344 433.145 232.626 432.797 230.985C431.929 226.873 432.257 222.818 434.033 218.938C435.616 215.501 438.454 213.3 442.123 212.084C445.443 210.983 448.803 210.404 452.181 210.404M452.143 206.581C448.436 206.581 444.652 207.218 440.887 208.454C436.041 210.056 432.45 213.126 430.5 217.354C428.434 221.872 427.913 226.737 428.994 231.815C429.342 233.418 429.94 236.294 432.546 238.225C432.527 241.217 433.415 243.882 434.303 246.121C436.948 252.724 444.594 257.725 452.066 257.725C454.672 257.725 457.162 257.145 459.46 256.026C465.812 252.917 469.654 247.936 470.87 241.256C471.005 240.503 471.063 239.808 471.102 239.19C471.121 238.881 471.14 238.592 471.179 238.341C472.685 236.989 473.419 235.31 473.882 233.92C475.06 230.444 474.693 227.162 474.365 224.266C474.307 223.822 474.268 223.359 474.21 222.915C473.419 215.057 469.693 210.501 462.105 208.145C458.842 207.141 455.483 206.62 452.123 206.62L452.143 206.581Z" fill="#37474F"/>
<path d="M472.569 281.877C468.92 281.877 465.271 281.877 461.622 281.858H455.734L447.007 281.742L441.061 281.8C437.489 281.839 433.917 281.877 430.346 281.877C428.936 281.877 427.527 281.877 426.117 281.877C421.445 281.839 420.885 278.73 420.885 276.414C420.885 273.537 420.885 270.66 420.885 267.764C420.885 262.3 423.376 258.497 428.26 256.47C430.886 255.369 433.531 254.153 436.08 252.975L437.933 252.126C438.898 251.682 439.709 251.469 440.501 251.469C441.601 251.469 442.605 251.875 443.435 252.666C445.385 253.497 447.528 254.25 449.98 254.925L453.803 254.732C455.406 254.597 456.989 253.96 458.668 253.284C459.17 253.091 459.672 252.879 460.174 252.705C460.927 251.798 461.931 251.315 463.09 251.315C463.765 251.315 464.46 251.489 465.194 251.817L467.356 252.802C470.465 254.211 473.689 255.678 476.797 257.242C480.427 259.057 482.474 262.262 482.609 266.278C482.686 269.038 482.667 271.819 482.647 274.522V276.742C482.609 280.12 480.794 281.916 477.357 281.935H472.569V281.877Z" fill="#37474F"/>
<path d="M463.109 253.188C463.514 253.188 463.958 253.303 464.402 253.516C468.264 255.292 472.144 257.01 475.948 258.902C479.018 260.447 480.581 263.015 480.678 266.278C480.775 269.733 480.717 273.209 480.697 276.665C480.697 278.962 479.771 279.927 477.338 279.927C475.793 279.927 474.23 279.927 472.685 279.927C467.028 279.927 461.391 279.889 455.734 279.889C452.838 279.85 449.922 279.831 447.026 279.792C441.447 279.831 435.867 279.908 430.307 279.908C428.917 279.908 427.527 279.908 426.137 279.908C423.55 279.889 422.816 278.904 422.816 276.375C422.816 273.498 422.816 270.622 422.816 267.745C422.816 263.401 424.554 260.08 428.994 258.227C432.276 256.856 435.5 255.331 438.744 253.844C439.362 253.554 439.96 253.381 440.52 253.381C441.157 253.381 441.775 253.632 442.335 254.269C444.748 255.331 447.239 256.161 449.787 256.856C451.158 256.779 452.548 256.721 453.919 256.644C456.603 256.412 458.939 255.157 461.41 254.288C461.854 253.535 462.453 253.226 463.109 253.226M463.109 249.326C461.564 249.326 460.155 249.925 459.074 251.006C458.707 251.141 458.34 251.296 457.973 251.45C456.39 252.087 455.019 252.628 453.649 252.763L450.231 252.937C448.108 252.338 446.235 251.701 444.517 250.967C443.378 250.002 442.026 249.481 440.539 249.481C439.458 249.481 438.377 249.751 437.161 250.311L435.288 251.18C432.759 252.357 430.133 253.554 427.546 254.636C421.947 256.972 418.974 261.49 418.955 267.726C418.955 270.602 418.955 273.498 418.955 276.375C418.955 282.746 423.434 283.75 426.098 283.769C427.507 283.769 428.898 283.769 430.307 283.769C433.917 283.769 437.528 283.731 441.138 283.692C443.107 283.673 445.096 283.654 447.065 283.634L453.842 283.711H455.695L461.815 283.75C465.445 283.75 469.055 283.769 472.685 283.769C474.249 283.769 475.793 283.769 477.357 283.769C481.856 283.769 484.539 281.105 484.559 276.665V274.483C484.597 271.761 484.617 268.942 484.539 266.142C484.404 261.374 481.952 257.57 477.666 255.427C474.538 253.863 471.314 252.396 468.206 250.987L466.005 249.983C465.02 249.539 464.055 249.307 463.09 249.307L463.109 249.326Z" fill="#37474F"/>
<path d="M467.781 236.024C467.183 237.491 467.356 239.055 467.086 240.542C466.101 246.005 463.032 249.963 457.78 252.531C449.768 256.45 440.404 250.929 437.894 244.673C437.006 242.453 436.292 240.194 436.427 237.8C436.485 236.738 436.118 235.947 435.23 235.348C436.389 235.213 436.485 234.46 436.485 233.572C436.466 232.317 436.292 231.023 436.524 229.807C437.45 224.942 439.362 223.32 443.629 225.116C450.077 227.838 456.68 228.263 463.514 227.181C466.275 226.737 466.758 227.046 467.067 229.653C467.318 231.757 467.569 233.881 467.8 235.985L467.781 236.024Z" fill="#E9C9A6"/>
<path d="M467.781 236.024C467.53 233.919 467.279 231.796 467.047 229.691C466.739 227.085 466.256 226.776 463.495 227.22C456.66 228.301 450.058 227.877 443.609 225.154C439.342 223.359 437.431 225 436.504 229.846C436.273 231.062 436.446 232.356 436.466 233.611C436.466 234.499 436.369 235.252 435.211 235.387C433.512 234.383 433.106 232.665 432.759 231.023C431.89 226.911 432.218 222.857 433.994 218.976C435.578 215.54 438.416 213.339 442.084 212.122C448.32 210.076 454.653 209.844 460.966 211.794C467.202 213.725 469.77 217.181 470.388 223.262C470.716 226.429 471.314 229.518 470.252 232.645C469.789 233.997 469.171 235.271 467.8 236.024H467.781Z" fill="#FEE394"/>
<path d="M447.046 279.792C440.076 279.831 433.106 279.966 426.137 279.889C423.55 279.869 422.816 278.885 422.816 276.356C422.816 273.479 422.816 270.602 422.816 267.725C422.816 263.381 424.554 260.061 428.994 258.207C432.276 256.836 435.5 255.311 438.744 253.825C440.057 253.226 441.273 253.033 442.335 254.249C443.667 261.316 444.98 268.382 446.312 275.448C446.447 276.143 446.293 276.973 447.297 277.244C447.528 278.132 446.602 278.904 447.046 279.811V279.792Z" fill="#455A64"/>
<path d="M461.41 254.269C462.144 253.033 463.225 252.994 464.402 253.535C468.264 255.311 472.144 257.03 475.948 258.922C479.018 260.466 480.581 263.034 480.678 266.297C480.774 269.753 480.717 273.228 480.697 276.684C480.697 278.981 479.771 279.947 477.338 279.947C470.137 279.966 462.935 279.927 455.753 279.908C457.066 279.329 456.699 278.267 456.603 277.263C457.298 276.413 457.433 275.41 457.626 274.406C458.881 267.687 460.136 260.968 461.41 254.269Z" fill="#455A64"/>
<path d="M449.787 256.836C447.895 258.149 446.698 259.559 448.938 261.547C449.324 261.895 449.536 262.416 449.44 262.957C448.629 267.706 448.359 272.533 447.277 277.244C446.274 276.973 446.428 276.143 446.293 275.448C444.961 268.382 443.648 261.316 442.316 254.249C444.729 255.311 447.22 256.141 449.768 256.836H449.787Z" fill="#FCFCFC"/>
<path d="M456.603 277.263C455.232 274.174 455.541 270.834 454.865 267.629C454.595 266.335 454.575 265.003 454.402 263.69C454.266 262.706 454.344 261.76 455.097 261.007C456.487 259.636 456.371 258.497 454.672 257.474C454.363 257.281 454.189 256.914 453.938 256.624C456.622 256.392 458.958 255.137 461.429 254.269C460.174 260.987 458.9 267.687 457.645 274.406C457.452 275.409 457.317 276.433 456.622 277.263H456.603Z" fill="#FCFCFC"/>
<path d="M446.061 279.792C448.957 279.831 454.382 279.869 457.278 279.889L454.846 267.629C454.575 266.335 454.556 265.003 454.382 263.69C454.247 262.706 454.324 261.76 455.077 261.007C456.467 259.636 456.352 258.497 454.653 257.474C454.344 257.281 454.17 256.914 453.919 256.624C452.548 256.701 451.158 256.759 449.787 256.837C447.895 258.149 446.698 259.559 448.938 261.547C449.324 261.895 449.536 262.416 449.44 262.957L446.042 279.811L446.061 279.792Z" fill="#F77152"/>
</g>
<path d="M600.875 267.88C596.647 267.88 592.264 264.733 592.091 258.729C592.091 256.142 593.963 251.527 597.67 244.944C598.269 243.785 599.524 243.013 600.875 243.013C602.227 243.013 603.481 243.766 604.119 244.982C607.787 251.508 609.66 256.122 609.66 258.651C609.467 264.733 605.103 267.861 600.875 267.861V267.88Z" fill="#37474F"/>
<path d="M600.875 244.944C601.474 244.944 602.072 245.253 602.4 245.89C604.389 249.423 607.729 255.794 607.729 258.671C607.574 263.536 604.234 265.949 600.875 265.949C597.516 265.949 594.156 263.517 594.021 258.671C594.021 255.794 597.361 249.442 599.35 245.89C599.678 245.272 600.277 244.944 600.875 244.944ZM600.875 241.082C598.809 241.082 596.937 242.202 595.952 244.036C590.16 254.365 590.16 257.59 590.16 258.671C590.16 258.709 590.16 258.748 590.16 258.787C590.372 266.027 595.72 269.811 600.875 269.811C606.03 269.811 611.378 266.027 611.59 258.787C611.59 258.748 611.59 258.709 611.59 258.671C611.59 257.609 611.59 254.365 605.798 244.036C604.814 242.221 602.941 241.102 600.875 241.102V241.082Z" fill="#37474F"/>
<path d="M535.947 275.603C524.286 275.603 514.806 275.487 506.118 275.217C505.481 275.197 504.882 274.85 504.535 274.309C503.821 273.151 503.917 272.031 503.975 271.278C503.994 271.008 504.014 270.757 503.994 270.583C503.994 270.486 503.975 270.39 503.975 270.293C503.975 264.231 503.975 256.798 503.975 249.404C503.975 242.144 503.975 234.904 503.975 229.054C503.975 227.278 505.211 226.042 506.987 226.042C517.992 226.042 528.996 226.042 540.001 226.042H577.012C578.557 223.05 580.198 220.212 581.356 218.281C582.148 216.968 583.538 216.196 585.082 216.196C586.627 216.196 588.017 216.968 588.808 218.281C592.805 224.942 597.554 233.804 597.554 238.283C597.554 242.202 595.759 245.832 592.708 248.206V270.216C592.708 270.216 592.708 270.39 592.689 270.486C592.67 270.622 592.689 270.969 592.708 271.22C592.766 272.127 592.863 273.498 591.955 274.599C591.878 274.695 591.801 274.772 591.704 274.85L591.434 275.062C591.087 275.352 590.643 275.506 590.199 275.506C590.141 275.506 590.063 275.506 590.005 275.506L589.504 275.448C585.584 275.41 581.472 275.41 577.36 275.41C570.486 275.41 563.594 275.448 556.682 275.487C549.77 275.525 542.859 275.564 535.966 275.564L535.947 275.603Z" fill="#37474F"/>
<path d="M585.063 218.165C585.874 218.165 586.665 218.551 587.129 219.304C590.295 224.575 595.604 234.074 595.604 238.302C595.604 241.951 593.79 245.253 590.759 247.241V270.255C590.623 271.239 591.106 272.629 590.45 273.402L590.179 273.614L589.677 273.556C585.565 273.518 581.453 273.498 577.321 273.498C563.555 273.498 549.732 273.672 535.947 273.672C525.965 273.672 516.042 273.575 506.195 273.286C505.597 272.32 506.079 271.355 505.925 270.293C505.925 258.285 505.906 240.889 505.925 229.054C505.925 228.359 506.311 227.973 507.006 227.973C518.011 227.973 529.016 227.973 540.021 227.973H578.209C579.87 224.652 581.742 221.428 583.036 219.285C583.499 218.513 584.291 218.146 585.102 218.146M585.063 214.304C582.823 214.304 580.816 215.424 579.696 217.316C578.653 219.034 577.244 221.486 575.834 224.131H539.982C528.977 224.131 517.972 224.131 506.968 224.131C504.149 224.131 502.025 226.255 502.025 229.074C502.025 234.923 502.025 242.125 502.025 249.384C502.025 256.798 502.025 264.231 502.025 270.313C502.025 270.506 502.025 270.679 502.064 270.872C502.064 270.892 502.044 271.008 502.025 271.123C501.948 271.992 501.813 273.633 502.855 275.332C503.531 276.433 504.728 277.109 506.022 277.166C514.729 277.437 524.228 277.553 535.908 277.553C542.801 277.553 549.713 277.514 556.624 277.475C563.517 277.437 570.409 277.398 577.282 277.398C581.337 277.398 585.391 277.398 589.426 277.456L589.755 277.495C589.89 277.495 590.025 277.514 590.16 277.514C591.048 277.514 591.936 277.205 592.631 276.626L592.902 276.413C593.075 276.259 593.249 276.105 593.404 275.912C594.813 274.213 594.678 272.224 594.601 271.162C594.601 271.027 594.581 270.872 594.581 270.757C594.581 270.602 594.601 270.448 594.601 270.293C594.601 270.1 594.601 254.655 594.601 249.191C597.67 246.469 599.447 242.55 599.447 238.36C599.447 236.893 599.446 232.414 590.43 217.374C589.291 215.482 587.283 214.343 585.063 214.343V214.304Z" fill="#37474F"/>
<path d="M607.015 258.651C607.015 262.32 604.274 265.274 600.876 265.274C597.478 265.274 594.736 262.3 594.736 258.651C594.736 255.871 598.27 249.268 599.969 246.237C600.413 245.465 601.339 245.465 601.764 246.237C603.463 249.268 606.996 255.89 606.996 258.651H607.015Z" fill="#6EAAEA"/>
<path d="M506.621 252.492C506.621 244.693 506.621 236.873 506.621 229.073C506.621 228.765 506.679 228.707 506.968 228.707C517.973 228.707 528.978 228.707 539.983 228.707C539.983 229.846 539.983 230.966 539.983 232.105C539.983 233.244 539.983 234.364 539.983 235.503C539.983 236.642 539.983 237.761 539.983 238.901C539.983 240.02 539.983 241.159 539.983 242.279C539.983 243.418 539.983 244.538 539.983 245.677C539.983 246.816 539.983 247.936 539.983 249.075C539.983 250.214 539.983 251.334 539.983 252.473C539.809 252.473 539.635 252.473 539.461 252.473C528.514 252.473 517.568 252.473 506.621 252.473V252.492ZM519.865 246.411C520.271 245.948 520.695 245.774 521.255 246.353C520.869 245.658 521.197 245.291 521.757 244.944C520.946 245.195 520.676 244.77 520.522 244.075C520.483 244.886 520.058 245.098 519.382 244.982C519.498 245.117 519.595 245.214 519.691 245.252C520.02 245.407 520.077 245.639 519.923 245.967C519.865 246.102 519.749 246.237 519.865 246.411ZM526.758 246.411C526.816 246.353 526.815 246.276 526.777 246.218C526.449 245.677 526.7 245.349 527.182 245.079C527.182 245.079 527.182 245.04 527.221 244.944C526.487 245.175 526.198 244.751 526.082 244.055C525.947 244.403 525.908 244.751 525.715 244.886C525.522 245.021 525.194 244.963 524.846 244.982C525.116 245.175 525.387 245.31 525.503 245.503C525.618 245.735 525.387 245.986 525.329 246.256C525.483 246.334 525.599 246.256 525.676 246.16C525.966 245.851 526.217 245.928 526.468 246.179C526.545 246.256 526.642 246.314 526.738 246.392L526.758 246.411ZM536.469 246.411C536.874 245.948 537.299 245.793 537.859 246.353C537.473 245.658 537.801 245.291 538.342 244.963C537.55 245.175 537.26 244.789 537.164 244.113C537.029 244.403 536.99 244.712 536.816 244.886C536.623 245.079 536.276 244.886 535.967 245.021C536.102 245.117 536.179 245.214 536.295 245.272C536.623 245.426 536.662 245.658 536.527 245.986C536.469 246.121 536.353 246.276 536.488 246.43C536.488 246.43 536.488 246.43 536.469 246.43C536.469 246.43 536.469 246.43 536.488 246.43L536.469 246.411ZM510.173 246.411C510.173 246.372 510.231 246.314 510.212 246.295C509.884 245.716 510.135 245.33 510.675 244.924C509.845 245.233 509.633 244.712 509.459 244.094C509.401 244.847 509.015 245.117 508.262 245.001C509.015 245.31 509.034 245.793 508.667 246.449C509.259 246.089 509.761 246.076 510.173 246.411ZM523.977 239.248C523.977 239.248 524.016 239.248 524.055 239.229C524.055 239.229 524.055 239.229 524.055 239.209C524.035 239.229 524.016 239.248 523.997 239.267C523.997 239.209 524.055 239.152 524.035 239.113C523.707 238.534 523.939 238.148 524.479 237.877C524.479 237.877 524.479 237.858 524.479 237.781C523.823 237.935 523.398 237.704 523.321 236.912C523.263 237.723 522.819 237.916 522.027 237.761C522.259 237.935 522.356 238.032 522.471 238.09C522.8 238.244 522.838 238.476 522.703 238.785C522.645 238.92 522.529 239.055 522.645 239.229C522.645 239.229 522.626 239.19 522.607 239.171L522.568 239.209C522.568 239.209 522.607 239.209 522.645 239.209C523.121 238.849 523.572 238.849 523.997 239.209L523.977 239.248ZM536.411 241.565C536.874 241.256 537.318 241.063 537.84 241.565C537.473 240.928 537.724 240.503 538.361 240.175C537.569 240.387 537.241 240.04 537.125 239.306C537.029 240.059 536.643 240.349 535.928 240.175C536.16 240.407 536.43 240.522 536.565 240.735C536.72 240.986 536.392 241.256 536.43 241.565C536.43 241.565 536.392 241.584 536.392 241.604C536.392 241.604 536.411 241.604 536.43 241.604C536.43 241.604 536.43 241.565 536.43 241.546L536.411 241.565ZM526.796 241.565C526.796 241.565 526.796 241.604 526.816 241.604V241.584C526.816 241.584 526.796 241.584 526.777 241.584C526.507 241.005 526.642 240.561 527.24 240.271C527.24 240.271 527.24 240.252 527.24 240.175C526.526 240.426 526.198 240.04 526.043 239.345C525.985 240.136 525.561 240.329 524.866 240.233C525.464 240.561 525.754 240.966 525.271 241.623C525.657 241.565 525.812 241.217 526.082 241.198C526.352 241.198 526.507 241.565 526.816 241.584L526.796 241.565ZM519.826 241.565C520.29 241.237 520.734 241.082 521.274 241.565C520.908 240.928 521.159 240.503 521.757 240.175C521.004 240.329 520.618 240.059 520.56 239.287C520.464 240.059 520.058 240.329 519.305 240.213C520.039 240.484 520.077 240.947 519.826 241.526C519.826 241.526 519.826 241.546 519.826 241.565C519.826 241.565 519.788 241.584 519.788 241.604C519.788 241.604 519.807 241.604 519.826 241.604C519.826 241.604 519.826 241.565 519.826 241.546V241.565ZM510.192 241.565C510.192 241.565 510.192 241.604 510.212 241.604V241.584C510.212 241.584 510.192 241.584 510.173 241.584C509.884 240.986 510.096 240.561 510.656 240.175C509.903 240.407 509.575 240.02 509.439 239.325C509.382 240.117 508.957 240.31 508.165 240.156C508.513 240.426 508.822 240.58 508.899 240.793C508.976 241.005 508.783 241.314 508.687 241.661C508.995 241.449 509.208 241.217 509.439 241.179C509.71 241.14 509.864 241.546 510.173 241.565H510.192ZM508.802 232.047C509.246 231.661 509.69 231.545 510.135 232.047C510.135 232.047 510.173 232.047 510.27 232.047C509.826 231.41 510.038 230.966 510.694 230.618C509.903 230.85 509.594 230.444 509.478 229.711C509.304 230.058 509.343 230.425 509.111 230.579C508.899 230.715 508.571 230.56 508.185 230.695C508.938 230.927 509.053 231.371 508.744 231.95C508.744 231.95 508.783 231.989 508.783 232.008C508.764 232.008 508.744 232.008 508.725 232.008C508.725 232.008 508.725 232.047 508.725 232.066C508.725 232.066 508.744 232.027 508.764 232.008L508.802 232.047ZM526.796 232.027C526.796 232.027 526.815 232.047 526.835 232.066V232.047C526.835 232.047 526.815 232.047 526.796 232.047C526.507 231.448 526.7 231.004 527.279 230.637C526.545 230.83 526.178 230.502 526.063 229.769C526.005 230.579 525.58 230.792 524.846 230.676C525.599 230.985 525.657 231.487 525.31 232.143C525.792 231.564 526.275 231.564 526.758 232.047C526.758 232.047 526.777 232.047 526.796 232.047V232.027ZM519.826 251.083C520.29 250.793 520.734 250.581 521.217 251.083C521.313 250.793 520.985 250.543 521.101 250.292C521.217 250.041 521.564 249.983 521.776 249.635C520.985 249.905 520.676 249.539 520.599 248.747C520.444 249.152 520.406 249.5 520.213 249.635C520.02 249.77 519.672 249.693 519.402 249.712C520.097 250.002 520.077 250.504 519.846 251.083C519.846 251.083 519.826 251.122 519.807 251.122C519.807 251.122 519.826 251.122 519.846 251.122C519.846 251.122 519.846 251.083 519.846 251.064L519.826 251.083ZM536.411 251.083C536.874 250.793 537.318 250.581 537.84 251.083C537.473 250.446 537.762 250.041 538.361 249.732C537.975 249.654 537.647 249.809 537.453 249.635C537.28 249.461 537.241 249.133 537.125 248.824C537.009 249.133 536.971 249.481 536.758 249.635C536.565 249.77 536.218 249.693 535.948 249.712C536.643 250.002 536.623 250.504 536.392 251.064L536.353 251.102C536.353 251.102 536.372 251.102 536.392 251.102C536.392 251.102 536.392 251.064 536.392 251.044L536.411 251.083ZM510.192 251.083C510.192 251.083 510.192 251.122 510.192 251.141V251.122C510.192 251.122 510.173 251.122 510.154 251.102C509.922 250.543 509.961 250.079 510.579 249.809C510.579 249.809 510.579 249.751 510.579 249.674C509.864 249.925 509.575 249.5 509.42 248.844C509.362 249.596 508.957 249.847 508.223 249.732C508.976 250.06 509.015 250.562 508.687 251.218C509.15 250.639 509.613 250.6 510.096 251.102C510.096 251.102 510.154 251.102 510.173 251.102L510.192 251.083ZM526.796 251.083C526.796 251.083 526.796 251.122 526.796 251.141V251.122C526.796 251.122 526.777 251.122 526.758 251.102C526.507 250.543 526.584 250.079 527.182 249.809C527.182 249.809 527.182 249.751 527.182 249.654C526.41 250.002 526.198 249.461 526.005 248.844C526.005 249.693 525.522 249.828 524.846 249.751C525.483 250.06 525.696 250.485 525.252 251.122C525.638 251.083 525.792 250.736 526.043 250.716C526.313 250.716 526.449 251.102 526.777 251.102L526.796 251.083ZM526.777 236.873C526.777 236.815 526.815 236.758 526.796 236.719C526.468 236.14 526.7 235.773 527.221 235.522C527.221 235.522 527.221 235.483 527.221 235.406C526.507 235.638 526.198 235.252 526.101 234.479C525.947 234.865 525.927 235.174 525.754 235.348C525.561 235.561 525.194 235.348 524.904 235.464C525.136 235.638 525.425 235.773 525.541 235.985C525.657 236.217 525.406 236.468 525.368 236.719C525.503 236.777 525.618 236.719 525.696 236.642C526.005 236.294 526.294 236.391 526.565 236.68C526.642 236.758 526.719 236.815 526.796 236.873H526.777ZM510.173 236.873C510.173 236.815 510.231 236.758 510.212 236.719C509.903 236.14 510.115 235.773 510.637 235.522C510.637 235.522 510.637 235.483 510.637 235.406C509.922 235.638 509.613 235.271 509.478 234.557C509.401 235.31 509.015 235.599 508.281 235.445C508.841 235.773 509.208 236.12 508.725 236.738C508.918 236.815 509.034 236.738 509.111 236.642C509.382 236.352 509.613 236.391 509.884 236.642C509.98 236.738 510.077 236.796 510.192 236.893L510.173 236.873ZM511.042 242.607C511.756 242.897 511.834 243.38 511.409 244.075C511.776 243.843 512.007 243.573 512.258 243.553C512.49 243.553 512.722 243.824 512.973 243.978C512.973 243.65 512.683 243.38 512.799 243.148C512.915 242.916 513.204 242.781 513.417 242.607C512.664 242.743 512.355 242.376 512.278 241.584C512.059 242.215 511.647 242.556 511.042 242.607ZM530.156 242.627C529.711 242.511 529.364 242.685 529.152 242.492C528.939 242.318 528.997 241.951 528.785 241.661C528.785 242.453 528.36 242.723 527.607 242.588C528.36 242.897 528.418 243.38 528.09 244.036C528.592 243.476 529.074 243.438 529.596 244.036C529.267 243.38 529.345 242.916 530.175 242.627H530.156ZM535.619 242.569C535.014 242.569 534.583 242.247 534.326 241.604C534.287 242.434 533.901 242.723 533.148 242.588C533.862 242.897 533.94 243.38 533.573 244.075C533.92 243.843 534.152 243.573 534.384 243.573C534.615 243.573 534.847 243.862 535.137 244.036C535.059 243.708 534.866 243.399 534.944 243.167C535.021 242.936 535.349 242.801 535.639 242.569H535.619ZM515 234.537C514.923 235.31 514.517 235.561 513.783 235.445C514.498 235.754 514.594 236.217 514.247 236.873C514.768 236.313 515.231 236.313 515.753 236.873C515.347 236.198 515.56 235.773 516.197 235.445C515.425 235.599 515.077 235.271 514.981 234.537H515ZM530.387 235.464C531.179 235.754 531.121 236.275 530.87 236.912C531.372 236.236 531.855 236.371 532.357 236.873C532.009 236.217 532.106 235.754 532.82 235.445C532.048 235.599 531.7 235.271 531.604 234.518C531.507 235.232 531.179 235.599 530.387 235.445V235.464ZM517.78 241.642C517.722 242.453 517.317 242.704 516.564 242.569C517.259 242.897 517.394 243.36 517.046 244.055C517.568 243.36 518.031 243.553 518.552 244.017C518.108 243.341 518.359 242.897 519.016 242.569C518.243 242.723 517.857 242.434 517.78 241.642ZM528.09 234.499C528.611 233.939 529.074 233.919 529.596 234.499C529.21 233.823 529.422 233.379 530.078 233.031C529.287 233.224 528.959 232.858 528.843 232.124C528.785 232.916 528.399 233.186 527.626 233.031C528.321 233.36 528.495 233.823 528.109 234.499H528.09ZM513.571 233.051C513.127 233.012 512.78 233.089 512.586 232.954C512.393 232.8 512.355 232.452 512.2 232.027C512.181 232.896 511.795 233.186 511.003 233.031C511.814 233.321 511.814 233.842 511.447 234.518C511.795 234.286 512.027 234.055 512.278 234.016C512.529 233.977 512.702 234.344 513.108 234.46C512.548 233.765 512.876 233.379 513.571 233.051ZM516.564 233.051C517.278 233.36 517.355 233.842 517.027 234.499C517.548 233.939 518.031 233.939 518.552 234.499C518.108 233.804 518.378 233.36 518.996 233.012C518.205 233.224 517.896 232.858 517.761 232.143C517.703 232.935 517.297 233.186 516.564 233.051ZM533.631 234.499C534.152 233.862 534.615 234.016 535.156 234.499C534.693 233.804 535.002 233.398 535.619 233.031C534.808 233.263 534.5 232.877 534.384 232.163C534.306 232.935 533.92 233.205 533.167 233.07C533.843 233.398 534.017 233.842 533.65 234.518L533.631 234.499ZM532.395 251.199C531.912 250.504 532.221 250.079 532.839 249.674C531.99 249.983 531.758 249.461 531.604 248.824C531.546 249.596 531.14 249.847 530.387 249.732C531.159 250.021 531.159 250.523 530.889 251.18C531.41 250.562 531.874 250.639 532.395 251.18V251.199ZM515.772 251.18C515.367 250.485 515.618 250.06 516.255 249.693C515.405 249.963 515.154 249.5 515.019 248.824C514.942 249.577 514.575 249.886 513.803 249.732C514.536 250.041 514.594 250.543 514.285 251.18C514.787 250.639 515.251 250.562 515.791 251.18H515.772ZM530.851 241.661C531.372 241.102 531.835 241.082 532.357 241.661C531.97 240.986 532.163 240.522 532.839 240.175C532.028 240.407 531.7 240.02 531.584 239.287C531.507 240.04 531.121 240.349 530.349 240.194C531.063 240.522 531.179 240.986 530.831 241.661H530.851ZM522.105 233.031C522.78 233.379 522.935 233.842 522.529 234.518C523.051 233.939 523.533 233.919 524.074 234.518C523.611 233.823 523.862 233.398 524.499 233.051C523.765 233.186 523.379 232.935 523.282 232.182C523.167 232.916 522.838 233.224 522.085 233.051L522.105 233.031ZM519.826 236.854C520.29 236.352 520.734 236.294 521.255 236.815C520.908 236.14 521.178 235.754 521.757 235.445C521.004 235.599 520.637 235.31 520.56 234.557C520.464 235.31 520.077 235.58 519.325 235.464C520.058 235.754 520.116 236.236 519.826 236.873V236.854ZM538.342 235.445C537.608 235.599 537.222 235.31 537.202 234.537C536.951 234.827 537.029 235.194 536.797 235.367C536.585 235.541 536.237 235.367 535.87 235.503C536.643 235.754 536.701 236.236 536.411 236.873C536.874 236.352 537.318 236.313 537.878 236.815C537.376 236.082 537.84 235.773 538.342 235.445ZM515.753 241.7C515.753 241.275 515.463 241.024 515.579 240.754C515.676 240.503 516.042 240.445 516.255 240.117C515.463 240.368 515.116 240.02 515.019 239.267C514.961 240.078 514.536 240.31 513.783 240.213C514.556 240.503 514.575 241.005 514.285 241.661C514.787 241.063 515.27 241.102 515.753 241.7ZM523.302 241.719C523.244 242.53 522.78 242.665 522.105 242.607C522.761 242.916 522.973 243.322 522.549 243.978C523.051 243.573 523.514 243.438 524.035 243.978C523.572 243.264 524.035 242.936 524.499 242.569C523.765 242.743 523.398 242.453 523.282 241.719H523.302ZM521.815 230.579C521.004 230.83 520.637 230.521 520.579 229.711C520.425 230.116 520.386 230.464 520.193 230.599C520 230.734 519.653 230.657 519.382 230.657C520.135 230.946 520.077 231.487 519.807 232.124C520.328 231.506 520.811 231.545 521.294 232.124C521.236 231.796 521.062 231.506 521.101 231.255C521.139 230.985 521.545 230.927 521.834 230.56L521.815 230.579ZM536.372 232.143C536.894 231.506 537.396 231.583 537.917 232.143C537.492 231.468 537.666 231.023 538.361 230.676C537.627 230.811 537.222 230.56 537.145 229.788C537.029 230.541 536.681 230.85 535.909 230.676C536.623 231.004 536.739 231.487 536.372 232.163V232.143ZM513.783 230.657C514.459 230.985 514.614 231.429 514.266 232.085C514.556 231.931 514.787 231.641 515 231.641C515.231 231.641 515.463 231.912 515.695 232.066C515.328 231.41 515.598 230.985 516.255 230.676C515.869 230.599 515.521 230.772 515.328 230.56C515.154 230.386 515.116 230.058 514.961 229.653C514.903 230.483 514.575 230.83 513.783 230.657ZM530.87 232.105C531.14 231.912 531.372 231.641 531.584 231.641C531.835 231.641 532.067 231.912 532.337 232.066C532.337 231.738 532.048 231.468 532.163 231.217C532.279 230.985 532.569 230.85 532.781 230.676C532.028 230.811 531.681 230.483 531.584 229.711C531.526 230.502 531.121 230.772 530.291 230.579C530.619 230.85 530.947 230.985 531.024 231.197C531.102 231.429 530.928 231.738 530.851 232.085L530.87 232.105ZM516.95 248.786C517.355 248.67 517.529 248.303 517.799 248.342C518.05 248.38 518.263 248.631 518.475 248.786C518.07 248.129 518.359 247.704 518.977 247.357C518.205 247.55 517.876 247.183 517.761 246.469C517.683 247.241 517.297 247.531 516.544 247.376C517.201 247.685 517.413 248.11 516.95 248.805V248.786ZM528.07 248.824C528.572 248.226 529.055 248.245 529.576 248.786C529.152 248.091 529.441 247.685 530.059 247.338C529.267 247.531 528.939 247.183 528.823 246.43C528.765 247.241 528.36 247.492 527.607 247.376C528.36 247.685 528.418 248.168 528.07 248.844V248.824ZM522.124 247.338C522.587 247.749 522.722 248.245 522.529 248.824C522.819 248.631 523.012 248.399 523.244 248.342C523.533 248.264 523.688 248.67 524.055 248.728C523.668 248.091 523.862 247.666 524.518 247.357C523.765 247.511 523.379 247.241 523.282 246.469C523.186 247.222 522.819 247.511 522.105 247.338H522.124ZM511.505 248.824C512.007 248.168 512.471 248.264 513.011 248.786C512.606 248.11 512.857 247.685 513.494 247.338C512.702 247.55 512.374 247.164 512.239 246.449C512.162 247.222 511.776 247.473 511.042 247.357C511.776 247.666 511.872 248.148 511.525 248.824H511.505ZM534.345 236.893C534.345 237.761 533.843 237.897 533.129 237.839C533.92 238.109 533.92 238.611 533.631 239.248C534.152 238.63 534.615 238.746 535.137 239.248C534.731 238.592 534.905 238.128 535.6 237.8C534.828 237.974 534.5 237.626 534.364 236.893H534.345ZM530.059 237.819C529.711 237.8 529.345 237.877 529.171 237.723C528.978 237.568 528.959 237.202 528.862 236.951C528.765 237.665 528.399 237.974 527.626 237.819C528.36 238.128 528.437 238.611 528.109 239.287C528.611 238.63 529.074 238.727 529.576 239.287C529.461 238.656 529.628 238.167 530.078 237.819H530.059ZM518.996 237.819C518.243 237.955 517.857 237.665 517.761 236.873C517.761 237.723 517.297 237.935 516.564 237.819C517.22 238.148 517.413 238.572 517.027 239.248C517.548 238.669 518.031 238.727 518.533 239.248C518.127 238.572 518.321 238.148 518.977 237.819H518.996ZM512.992 239.229C512.915 238.901 512.741 238.611 512.818 238.399C512.895 238.167 513.224 238.032 513.436 237.858C512.683 238.012 512.374 237.626 512.239 236.912C512.181 237.704 511.776 237.955 511.023 237.839C511.776 238.148 511.834 238.63 511.428 239.287C511.982 238.952 512.496 238.933 512.973 239.229H512.992ZM532.781 244.963C532.048 245.137 531.7 244.789 531.604 244.055C531.546 244.828 531.121 245.079 530.407 245.001C531.217 245.272 531.14 245.793 530.889 246.411C531.391 245.793 531.855 245.89 532.357 246.449C532.228 245.819 532.369 245.323 532.781 244.963ZM534.345 246.469C534.268 247.183 533.92 247.531 533.129 247.357C533.824 247.666 533.959 248.129 533.631 248.805C534.133 248.226 534.577 248.264 535.079 248.805C534.712 248.129 534.944 247.704 535.619 247.415C534.976 247.338 534.551 247.029 534.345 246.488V246.469ZM514.266 246.411C514.787 245.851 515.251 245.832 515.772 246.411C515.405 245.754 515.56 245.291 516.235 244.944C515.405 245.175 515.154 244.731 515.019 244.055C514.942 244.789 514.575 245.117 513.803 244.982C514.575 245.272 514.575 245.774 514.266 246.411Z" fill="#022765"/>
<path d="M506.621 252.492C517.568 252.492 528.514 252.492 539.461 252.492C539.635 252.492 539.809 252.492 539.983 252.492C540.137 252.492 540.292 252.492 540.465 252.492C544.462 252.492 548.458 252.492 552.435 252.492C564.965 252.492 577.495 252.492 590.026 252.492V255.91C589.871 255.91 589.717 255.91 589.543 255.91C562.069 255.91 534.577 255.91 507.103 255.91C506.949 255.91 506.794 255.91 506.621 255.91V252.492Z" fill="#FEFDFD"/>
<path d="M506.621 269.444C506.621 268.305 506.621 267.166 506.621 266.026C506.794 266.026 506.968 266.026 507.142 266.026C534.596 266.026 562.05 266.026 589.504 266.026C589.678 266.026 589.852 266.026 590.026 266.026V269.444C589.89 269.444 589.775 269.444 589.639 269.444C562.108 269.444 534.557 269.444 507.026 269.444C506.891 269.444 506.775 269.444 506.64 269.444H506.621Z" fill="#FEFDFD"/>
<path d="M506.621 269.444C506.756 269.444 506.872 269.444 507.007 269.444C534.538 269.444 562.089 269.444 589.62 269.444C589.755 269.444 589.871 269.444 590.006 269.444C590.006 270.506 590.006 271.567 590.006 272.629C590.006 272.822 589.968 272.88 589.775 272.842C589.717 272.842 589.659 272.842 589.601 272.842C562.07 272.842 534.519 272.842 506.988 272.842C506.659 272.842 506.582 272.764 506.582 272.436C506.601 271.432 506.582 270.428 506.582 269.424L506.621 269.444Z" fill="#E84723"/>
<path d="M590.026 266.046C589.852 266.046 589.678 266.046 589.504 266.046C562.05 266.046 534.596 266.046 507.142 266.046C506.968 266.046 506.794 266.046 506.621 266.046C506.621 264.907 506.621 263.768 506.621 262.628C506.775 262.628 506.93 262.667 507.084 262.667C534.577 262.667 562.05 262.667 589.543 262.667C589.697 262.667 589.852 262.648 590.006 262.628V266.046H590.026Z" fill="#E84723"/>
<path d="M506.621 255.91C506.775 255.91 506.93 255.91 507.103 255.91C534.577 255.91 562.069 255.91 589.543 255.91C589.697 255.91 589.852 255.91 590.026 255.91V259.327C589.852 259.327 589.678 259.308 589.504 259.308C562.05 259.308 534.596 259.308 507.142 259.308C506.968 259.308 506.794 259.308 506.621 259.327C506.621 258.188 506.621 257.049 506.621 255.91Z" fill="#E84723"/>
<path d="M506.621 259.308C506.794 259.308 506.968 259.288 507.142 259.288C534.596 259.288 562.05 259.288 589.504 259.288C589.678 259.288 589.852 259.288 590.026 259.308V262.629C589.871 262.629 589.717 262.667 589.562 262.667C562.069 262.667 534.596 262.667 507.103 262.667C506.949 262.667 506.794 262.648 506.64 262.629C506.64 261.528 506.64 260.408 506.64 259.308H506.621Z" fill="#FEFDFD"/>
<path d="M540.002 232.124C540.002 230.985 540.002 229.865 540.002 228.726C556.548 228.726 573.094 228.726 589.639 228.726C589.968 228.726 590.045 228.803 590.045 229.131C590.026 230.135 590.045 231.139 590.045 232.143C589.948 232.143 589.852 232.143 589.736 232.143C573.171 232.143 556.586 232.143 540.021 232.143L540.002 232.124Z" fill="#E84723"/>
<path d="M590.026 252.492C577.496 252.492 564.966 252.492 552.435 252.492C548.439 252.492 544.443 252.492 540.465 252.492C540.311 252.492 540.156 252.492 539.983 252.492C539.983 251.353 539.983 250.234 539.983 249.094C545.794 249.094 551.625 249.094 557.436 249.094C568.286 249.094 579.156 249.094 590.006 249.094V252.512L590.026 252.492Z" fill="#E84723"/>
<path d="M590.026 249.075C579.175 249.075 568.306 249.075 557.455 249.075C551.644 249.075 545.813 249.075 540.002 249.075C540.002 247.936 540.002 246.816 540.002 245.677C556.49 245.677 572.978 245.677 589.466 245.677C589.659 245.677 589.832 245.677 590.026 245.677V249.095V249.075Z" fill="#FEFDFD"/>
<path d="M590.026 245.677C589.832 245.677 589.659 245.677 589.466 245.677C572.978 245.677 556.49 245.677 540.002 245.677C540.002 244.538 540.002 243.418 540.002 242.279C556.567 242.279 573.152 242.279 589.717 242.279C589.813 242.279 589.91 242.279 590.026 242.26V245.677Z" fill="#E84723"/>
<path d="M540.002 238.92C540.002 237.781 540.002 236.661 540.002 235.522C556.49 235.522 572.978 235.522 589.466 235.522C589.659 235.522 589.832 235.522 590.026 235.522V238.939C589.871 238.939 589.717 238.901 589.562 238.901C588.211 238.901 586.84 238.901 585.488 238.901C570.333 238.901 555.177 238.901 540.021 238.901L540.002 238.92Z" fill="#E84723"/>
<path d="M590.026 235.541C589.832 235.541 589.659 235.541 589.466 235.541C572.978 235.541 556.49 235.541 540.002 235.541C540.002 234.402 540.002 233.282 540.002 232.143C556.567 232.143 573.152 232.143 589.717 232.143C589.813 232.143 589.91 232.143 590.026 232.143V235.561V235.541Z" fill="#FEFDFD"/>
<path d="M540.002 238.92C555.158 238.92 570.313 238.92 585.469 238.92C586.821 238.92 588.191 238.92 589.543 238.92C589.697 238.92 589.852 238.939 590.006 238.959V242.279C589.91 242.279 589.813 242.299 589.697 242.299C573.132 242.299 556.548 242.299 539.983 242.299C539.983 241.179 539.983 240.04 539.983 238.92H540.002Z" fill="#FEFDFD"/>
<path d="M511.042 242.607C511.634 242.556 512.046 242.215 512.278 241.584C512.355 242.376 512.683 242.743 513.417 242.607C513.204 242.781 512.915 242.936 512.799 243.148C512.683 243.38 512.953 243.65 512.973 243.978C512.722 243.804 512.49 243.534 512.258 243.554C512.007 243.554 511.776 243.824 511.409 244.075C511.834 243.38 511.756 242.897 511.042 242.607Z" fill="#FEFDFD"/>
<path d="M530.156 242.627C529.345 242.916 529.248 243.38 529.576 244.036C529.055 243.457 528.592 243.496 528.07 244.036C528.399 243.38 528.341 242.897 527.588 242.588C528.341 242.704 528.746 242.453 528.765 241.661C528.997 241.951 528.939 242.318 529.132 242.492C529.345 242.685 529.692 242.492 530.136 242.627H530.156Z" fill="#FEFDFD"/>
<path d="M535.619 242.569C535.33 242.801 535.002 242.955 534.924 243.167C534.847 243.399 535.04 243.708 535.117 244.036C534.847 243.843 534.615 243.573 534.364 243.573C534.133 243.573 533.901 243.843 533.554 244.075C533.92 243.399 533.843 242.897 533.129 242.588C533.901 242.723 534.268 242.434 534.306 241.604C534.564 242.234 534.995 242.556 535.6 242.569H535.619Z" fill="#FEFDFD"/>
<path d="M515 234.537C515.096 235.271 515.444 235.599 516.216 235.445C515.56 235.773 515.367 236.198 515.772 236.873C515.251 236.333 514.768 236.313 514.266 236.873C514.614 236.217 514.517 235.754 513.803 235.445C514.537 235.56 514.942 235.309 515.019 234.537H515Z" fill="#FEFDFD"/>
<path d="M530.387 235.464C531.179 235.618 531.488 235.252 531.604 234.537C531.7 235.271 532.067 235.599 532.82 235.464C532.106 235.773 531.99 236.236 532.357 236.893C531.835 236.391 531.372 236.256 530.87 236.931C531.14 236.275 531.179 235.773 530.387 235.483V235.464Z" fill="#FEFDFD"/>
<path d="M517.78 241.642C517.857 242.434 518.243 242.704 519.016 242.569C518.359 242.897 518.108 243.341 518.552 244.017C518.031 243.553 517.548 243.36 517.046 244.055C517.375 243.36 517.259 242.897 516.564 242.569C517.317 242.704 517.741 242.434 517.78 241.642Z" fill="#FEFDFD"/>
<path d="M528.09 234.499C528.476 233.823 528.302 233.379 527.607 233.031C528.379 233.186 528.765 232.896 528.823 232.124C528.939 232.838 529.267 233.224 530.059 233.031C529.403 233.379 529.19 233.823 529.576 234.499C529.055 233.939 528.592 233.939 528.07 234.499H528.09Z" fill="#FEFDFD"/>
<path d="M513.571 233.051C512.876 233.379 512.548 233.765 513.108 234.46C512.683 234.364 512.509 233.997 512.278 234.016C512.027 234.055 511.795 234.286 511.447 234.518C511.814 233.842 511.814 233.321 511.003 233.031C511.795 233.167 512.181 232.896 512.2 232.027C512.355 232.452 512.394 232.8 512.587 232.954C512.78 233.089 513.127 233.012 513.571 233.051Z" fill="#FEFDFD"/>
<path d="M516.564 233.051C517.297 233.186 517.703 232.935 517.761 232.143C517.896 232.858 518.224 233.224 518.996 233.012C518.359 233.379 518.108 233.804 518.552 234.499C518.031 233.92 517.548 233.92 517.027 234.499C517.355 233.842 517.278 233.36 516.564 233.051Z" fill="#FEFDFD"/>
<path d="M533.631 234.499C533.998 233.823 533.824 233.379 533.148 233.051C533.901 233.186 534.287 232.916 534.364 232.143C534.48 232.877 534.789 233.263 535.6 233.012C534.982 233.379 534.673 233.784 535.137 234.479C534.615 233.997 534.133 233.862 533.612 234.479L533.631 234.499Z" fill="#FEFDFD"/>
<path d="M510.173 236.873C510.077 236.796 509.961 236.719 509.864 236.622C509.613 236.371 509.362 236.333 509.092 236.622C509.015 236.719 508.899 236.796 508.706 236.719C509.189 236.101 508.822 235.754 508.262 235.425C508.995 235.58 509.382 235.29 509.459 234.537C509.575 235.252 509.903 235.618 510.617 235.387C510.617 235.464 510.617 235.503 510.617 235.503C510.077 235.754 509.864 236.14 510.193 236.7C510.212 236.738 510.193 236.796 510.154 236.854L510.173 236.873Z" fill="#FEFDFD"/>
<path d="M532.395 251.199C531.855 250.639 531.391 250.562 530.889 251.199C531.159 250.562 531.159 250.041 530.387 249.751C531.14 249.867 531.546 249.596 531.604 248.844C531.777 249.481 531.99 250.002 532.839 249.693C532.221 250.079 531.912 250.504 532.395 251.218V251.199Z" fill="#FEFDFD"/>
<path d="M515.772 251.18C515.251 250.562 514.788 250.658 514.266 251.18C514.594 250.523 514.517 250.041 513.784 249.732C514.556 249.867 514.923 249.577 515 248.824C515.135 249.5 515.386 249.963 516.236 249.693C515.618 250.06 515.347 250.485 515.753 251.18H515.772Z" fill="#FEFDFD"/>
<path d="M526.777 236.873C526.777 236.873 526.622 236.758 526.545 236.68C526.256 236.41 525.985 236.294 525.676 236.642C525.599 236.719 525.483 236.796 525.348 236.719C525.406 236.468 525.638 236.198 525.522 235.985C525.406 235.773 525.117 235.638 524.885 235.464C525.194 235.348 525.541 235.561 525.734 235.348C525.908 235.174 525.947 234.866 526.082 234.479C526.178 235.252 526.487 235.638 527.202 235.406C527.202 235.483 527.202 235.522 527.202 235.522C526.68 235.792 526.449 236.159 526.777 236.719C526.796 236.758 526.777 236.815 526.758 236.873H526.777Z" fill="#FEFDFD"/>
<path d="M530.851 241.661C531.198 240.986 531.082 240.522 530.368 240.194C531.14 240.349 531.526 240.04 531.604 239.287C531.719 240.001 532.048 240.407 532.858 240.175C532.163 240.522 531.99 240.986 532.376 241.661C531.854 241.082 531.372 241.102 530.87 241.661H530.851Z" fill="#FEFDFD"/>
<path d="M522.105 233.031C522.858 233.224 523.186 232.896 523.302 232.163C523.398 232.916 523.784 233.167 524.518 233.031C523.881 233.379 523.63 233.823 524.093 234.499C523.553 233.9 523.07 233.92 522.549 234.499C522.935 233.823 522.78 233.36 522.124 233.012L522.105 233.031Z" fill="#FEFDFD"/>
<path d="M519.827 236.854C520.116 236.217 520.058 235.754 519.325 235.445C520.058 235.56 520.464 235.271 520.56 234.537C520.637 235.29 521.004 235.58 521.757 235.425C521.178 235.734 520.908 236.12 521.255 236.796C520.734 236.275 520.29 236.333 519.827 236.835V236.854Z" fill="#FEFDFD"/>
<path d="M538.342 235.445C537.84 235.773 537.376 236.082 537.878 236.815C537.318 236.313 536.874 236.352 536.411 236.873C536.72 236.217 536.643 235.754 535.87 235.503C536.237 235.367 536.585 235.541 536.797 235.367C537.009 235.194 536.951 234.827 537.202 234.537C537.241 235.309 537.608 235.58 538.342 235.445Z" fill="#FEFDFD"/>
<path d="M515.753 241.7C515.27 241.102 514.788 241.044 514.286 241.661C514.575 241.005 514.556 240.503 513.784 240.213C514.537 240.31 514.961 240.078 515.019 239.267C515.116 240.02 515.463 240.349 516.255 240.117C516.042 240.445 515.695 240.503 515.579 240.754C515.463 241.024 515.734 241.295 515.753 241.7Z" fill="#FEFDFD"/>
<path d="M523.302 241.719C523.418 242.453 523.765 242.743 524.518 242.569C524.035 242.936 523.591 243.264 524.055 243.978C523.533 243.457 523.07 243.592 522.568 243.978C522.974 243.322 522.761 242.916 522.124 242.607C522.8 242.685 523.282 242.53 523.321 241.719H523.302Z" fill="#FEFDFD"/>
<path d="M521.815 230.579C521.526 230.927 521.12 231.004 521.081 231.274C521.043 231.525 521.217 231.815 521.275 232.143C520.792 231.564 520.309 231.525 519.788 232.143C520.058 231.506 520.116 230.965 519.363 230.676C519.633 230.676 519.981 230.753 520.174 230.618C520.367 230.483 520.406 230.116 520.56 229.73C520.618 230.541 520.985 230.85 521.796 230.599L521.815 230.579Z" fill="#FEFDFD"/>
<path d="M526.796 251.083C526.487 251.083 526.333 250.678 526.063 250.697C525.812 250.697 525.638 251.064 525.271 251.102C525.715 250.465 525.503 250.06 524.866 249.732C525.561 249.809 526.043 249.674 526.024 248.824C526.217 249.461 526.429 250.002 527.202 249.635C527.202 249.732 527.202 249.79 527.202 249.79C526.584 250.06 526.526 250.523 526.777 251.083H526.796Z" fill="#FEFDFD"/>
<path d="M510.193 251.083C510.193 251.083 510.135 251.102 510.115 251.083C509.633 250.581 509.189 250.62 508.706 251.199C509.034 250.543 508.996 250.041 508.243 249.712C508.976 249.828 509.362 249.577 509.44 248.824C509.594 249.481 509.884 249.905 510.598 249.654C510.598 249.732 510.598 249.79 510.598 249.79C509.98 250.06 509.942 250.523 510.173 251.083H510.193Z" fill="#FEFDFD"/>
<path d="M536.43 251.102C536.643 250.542 536.662 250.041 535.986 249.751C536.256 249.751 536.604 249.809 536.797 249.674C536.99 249.539 537.029 249.172 537.164 248.863C537.28 249.172 537.318 249.5 537.492 249.674C537.685 249.847 538.013 249.693 538.4 249.77C537.801 250.079 537.511 250.485 537.878 251.122C537.357 250.62 536.894 250.813 536.45 251.122L536.43 251.102Z" fill="#FEFDFD"/>
<path d="M519.826 251.102C520.039 250.542 520.058 250.04 519.382 249.732C519.653 249.732 520 249.789 520.193 249.654C520.386 249.519 520.425 249.152 520.579 248.766C520.637 249.558 520.966 249.925 521.757 249.654C521.545 250.002 521.197 250.06 521.081 250.311C520.966 250.562 521.294 250.813 521.197 251.102C520.734 250.6 520.271 250.813 519.807 251.102H519.826Z" fill="#FEFDFD"/>
<path d="M536.372 232.143C536.739 231.468 536.623 230.985 535.909 230.657C536.681 230.83 537.048 230.502 537.145 229.769C537.222 230.56 537.627 230.792 538.361 230.657C537.666 230.985 537.492 231.448 537.917 232.124C537.396 231.583 536.894 231.487 536.372 232.124V232.143Z" fill="#FEFDFD"/>
<path d="M513.784 230.657C514.575 230.85 514.903 230.483 514.961 229.653C515.116 230.058 515.154 230.386 515.328 230.56C515.521 230.753 515.869 230.579 516.255 230.676C515.598 230.985 515.328 231.41 515.695 232.066C515.463 231.912 515.232 231.641 515 231.641C514.768 231.641 514.556 231.912 514.266 232.085C514.614 231.448 514.479 230.985 513.784 230.657Z" fill="#FEFDFD"/>
<path d="M530.87 232.105C530.947 231.757 531.121 231.448 531.044 231.216C530.966 231.004 530.658 230.869 530.31 230.599C531.14 230.792 531.546 230.521 531.604 229.73C531.7 230.483 532.048 230.83 532.801 230.695C532.588 230.869 532.279 231.004 532.183 231.236C532.067 231.467 532.337 231.757 532.357 232.085C532.086 231.912 531.835 231.661 531.604 231.661C531.372 231.661 531.16 231.931 530.889 232.124L530.87 232.105Z" fill="#FEFDFD"/>
<path d="M526.796 232.027H526.758C526.275 231.545 525.812 231.564 525.31 232.124C525.657 231.468 525.599 230.985 524.846 230.657C525.58 230.773 526.005 230.541 526.063 229.749C526.178 230.502 526.526 230.83 527.279 230.618C526.7 230.985 526.507 231.429 526.796 232.027Z" fill="#FEFDFD"/>
<path d="M508.802 232.047C508.802 232.047 508.744 231.989 508.764 231.989C509.073 231.41 508.957 230.966 508.204 230.734C508.59 230.599 508.918 230.753 509.131 230.618C509.362 230.464 509.324 230.097 509.497 229.749C509.613 230.483 509.903 230.888 510.714 230.657C510.057 231.004 509.845 231.448 510.289 232.085C510.192 232.085 510.154 232.085 510.154 232.085C509.71 231.564 509.266 231.68 508.822 232.085L508.802 232.047Z" fill="#FEFDFD"/>
<path d="M510.192 241.565C509.884 241.546 509.729 241.14 509.459 241.179C509.227 241.217 509.015 241.449 508.706 241.661C508.802 241.314 508.995 241.005 508.918 240.793C508.841 240.561 508.513 240.426 508.185 240.156C508.957 240.329 509.401 240.136 509.459 239.325C509.594 240.02 509.922 240.406 510.675 240.175C510.115 240.542 509.884 240.986 510.192 241.584V241.565Z" fill="#FEFDFD"/>
<path d="M516.95 248.786C517.413 248.091 517.201 247.685 516.544 247.357C517.297 247.492 517.684 247.222 517.761 246.449C517.877 247.183 518.205 247.531 518.977 247.338C518.359 247.685 518.07 248.11 518.475 248.766C518.243 248.612 518.031 248.361 517.799 248.322C517.529 248.284 517.355 248.65 516.95 248.766V248.786Z" fill="#FEFDFD"/>
<path d="M519.827 241.565V241.526C520.078 240.947 520.039 240.484 519.305 240.213C520.058 240.329 520.464 240.059 520.56 239.287C520.637 240.059 521.024 240.329 521.757 240.175C521.159 240.503 520.888 240.909 521.275 241.565C520.753 241.063 520.29 241.237 519.827 241.565Z" fill="#FEFDFD"/>
<path d="M526.796 241.565C526.487 241.546 526.333 241.159 526.063 241.179C525.812 241.179 525.638 241.526 525.252 241.604C525.734 240.947 525.464 240.542 524.846 240.213C525.541 240.31 525.985 240.117 526.024 239.325C526.159 240.02 526.487 240.406 527.221 240.156C527.221 240.233 527.221 240.252 527.221 240.252C526.642 240.542 526.487 240.986 526.758 241.565H526.796Z" fill="#FEFDFD"/>
<path d="M536.43 241.565C536.392 241.275 536.72 241.005 536.565 240.735C536.45 240.522 536.16 240.387 535.928 240.175C536.662 240.349 537.029 240.059 537.125 239.306C537.222 240.04 537.569 240.387 538.361 240.175C537.724 240.522 537.492 240.928 537.84 241.565C537.318 241.044 536.855 241.237 536.411 241.565H536.43Z" fill="#FEFDFD"/>
<path d="M528.07 248.824C528.418 248.168 528.36 247.685 527.607 247.357C528.36 247.473 528.765 247.222 528.823 246.411C528.939 247.164 529.267 247.511 530.059 247.318C529.441 247.666 529.171 248.071 529.576 248.766C529.036 248.226 528.553 248.226 528.07 248.805V248.824Z" fill="#FEFDFD"/>
<path d="M522.124 247.338C522.838 247.511 523.205 247.222 523.302 246.469C523.398 247.241 523.784 247.511 524.537 247.357C523.881 247.666 523.688 248.11 524.074 248.728C523.707 248.67 523.553 248.264 523.263 248.341C523.031 248.399 522.819 248.631 522.549 248.824C522.742 248.245 522.607 247.749 522.143 247.338H522.124Z" fill="#FEFDFD"/>
<path d="M511.505 248.824C511.853 248.148 511.756 247.666 511.023 247.357C511.776 247.492 512.162 247.222 512.22 246.449C512.355 247.164 512.664 247.55 513.475 247.338C512.838 247.685 512.606 248.091 512.992 248.786C512.471 248.284 511.988 248.187 511.486 248.824H511.505Z" fill="#FEFDFD"/>
<path d="M534.345 236.893C534.48 237.646 534.808 237.993 535.581 237.8C534.905 238.128 534.731 238.592 535.117 239.248C534.596 238.746 534.133 238.65 533.611 239.248C533.901 238.611 533.901 238.09 533.109 237.839C533.843 237.897 534.326 237.762 534.326 236.893H534.345Z" fill="#FEFDFD"/>
<path d="M530.059 237.819C529.621 238.167 529.454 238.656 529.557 239.287C529.055 238.727 528.592 238.63 528.09 239.287C528.418 238.611 528.341 238.128 527.607 237.819C528.379 237.955 528.746 237.665 528.843 236.951C528.939 237.221 528.978 237.588 529.152 237.723C529.345 237.858 529.692 237.781 530.04 237.819H530.059Z" fill="#FEFDFD"/>
<path d="M518.996 237.819C518.34 238.148 518.147 238.572 518.552 239.248C518.031 238.727 517.548 238.688 517.046 239.248C517.433 238.572 517.239 238.128 516.583 237.819C517.317 237.935 517.761 237.723 517.78 236.873C517.877 237.665 518.263 237.955 519.016 237.819H518.996Z" fill="#FEFDFD"/>
<path d="M512.992 239.229C512.503 238.933 511.988 238.952 511.447 239.287C511.834 238.611 511.776 238.128 511.042 237.839C511.795 237.955 512.2 237.684 512.258 236.912C512.374 237.626 512.702 238.012 513.455 237.858C513.243 238.032 512.934 238.186 512.838 238.399C512.76 238.611 512.934 238.92 513.011 239.229H512.992Z" fill="#FEFDFD"/>
<path d="M532.781 244.963C532.369 245.336 532.228 245.832 532.357 246.449C531.855 245.89 531.391 245.793 530.889 246.411C531.14 245.793 531.217 245.272 530.407 245.001C531.14 245.079 531.565 244.828 531.604 244.055C531.719 244.77 532.048 245.137 532.781 244.963Z" fill="#FEFDFD"/>
<path d="M534.345 246.469C534.551 246.996 534.976 247.305 535.619 247.395C534.944 247.685 534.712 248.11 535.079 248.786C534.577 248.264 534.113 248.226 533.631 248.786C533.94 248.129 533.805 247.666 533.129 247.338C533.901 247.511 534.268 247.164 534.345 246.449V246.469Z" fill="#FEFDFD"/>
<path d="M522.626 239.248C522.51 239.094 522.626 238.939 522.684 238.804C522.819 238.495 522.78 238.263 522.452 238.109C522.336 238.051 522.24 237.955 522.008 237.781C522.78 237.935 523.244 237.742 523.302 236.931C523.379 237.704 523.804 237.955 524.46 237.8C524.46 237.877 524.46 237.897 524.46 237.897C523.92 238.167 523.707 238.553 524.016 239.132C524.016 239.171 523.997 239.229 523.977 239.287C523.553 238.901 523.102 238.894 522.626 239.267V239.248Z" fill="#FEFDFD"/>
<path d="M514.266 246.411C514.575 245.774 514.575 245.291 513.803 244.982C514.575 245.117 514.923 244.77 515.019 244.055C515.154 244.731 515.405 245.195 516.235 244.944C515.56 245.291 515.405 245.754 515.772 246.411C515.251 245.832 514.787 245.851 514.266 246.411Z" fill="#FEFDFD"/>
<path d="M510.173 246.411C509.761 246.063 509.259 246.076 508.667 246.45C509.034 245.793 509.034 245.291 508.262 245.002C508.995 245.117 509.382 244.847 509.459 244.094C509.633 244.712 509.845 245.253 510.675 244.924C510.135 245.33 509.864 245.716 510.212 246.295C510.212 246.314 510.193 246.372 510.173 246.411Z" fill="#FEFDFD"/>
<path d="M536.469 246.411C536.334 246.256 536.469 246.102 536.508 245.967C536.662 245.639 536.604 245.426 536.276 245.253C536.16 245.195 536.083 245.098 535.948 245.002C536.257 244.866 536.604 245.079 536.797 244.866C536.971 244.693 537.009 244.364 537.145 244.094C537.241 244.77 537.55 245.156 538.322 244.944C537.782 245.272 537.454 245.639 537.84 246.334C537.28 245.774 536.855 245.928 536.45 246.392L536.469 246.411Z" fill="#FEFDFD"/>
<path d="M526.758 246.411C526.758 246.411 526.565 246.276 526.487 246.199C526.217 245.948 525.966 245.87 525.696 246.179C525.619 246.276 525.483 246.353 525.348 246.276C525.406 246.025 525.657 245.755 525.522 245.523C525.406 245.31 525.136 245.195 524.866 245.002C525.194 244.982 525.541 245.04 525.734 244.905C525.927 244.77 525.947 244.422 526.101 244.075C526.217 244.77 526.507 245.195 527.24 244.963C527.202 245.059 527.202 245.098 527.202 245.098C526.719 245.349 526.468 245.677 526.796 246.237C526.835 246.295 526.835 246.372 526.777 246.43L526.758 246.411Z" fill="#FEFDFD"/>
<path d="M519.865 246.411C519.73 246.256 519.865 246.102 519.923 245.967C520.077 245.639 520.02 245.426 519.691 245.253C519.575 245.195 519.498 245.098 519.382 244.982C520.077 245.098 520.502 244.866 520.522 244.075C520.676 244.77 520.946 245.195 521.757 244.944C521.197 245.291 520.869 245.658 521.255 246.353C520.695 245.793 520.271 245.967 519.865 246.411Z" fill="#FEFDFD"/>
<path d="M508.802 232.047C508.802 232.047 508.783 232.085 508.764 232.105C508.764 232.105 508.764 232.066 508.764 232.047C508.783 232.047 508.802 232.047 508.822 232.047H508.802Z" fill="#FEFDFD"/>
<path d="M510.193 241.565C510.193 241.565 510.212 241.565 510.231 241.565C510.231 241.565 510.231 241.565 510.231 241.584C510.231 241.584 510.231 241.546 510.212 241.546L510.193 241.565Z" fill="#FEFDFD"/>
<path d="M510.154 246.392H510.173V246.411L510.154 246.392Z" fill="#FEFDFD"/>
<path d="M519.865 246.411L519.846 246.392L519.865 246.411Z" fill="#FEFDFD"/>
<path d="M526.758 246.392H526.777L526.758 246.411V246.392Z" fill="#FEFDFD"/>
<path d="M519.827 241.565C519.827 241.565 519.827 241.604 519.827 241.623C519.827 241.623 519.807 241.623 519.788 241.623C519.788 241.623 519.827 241.604 519.827 241.584V241.565Z" fill="#FEFDFD"/>
<path d="M536.411 241.565C536.411 241.565 536.411 241.604 536.411 241.623C536.411 241.623 536.392 241.623 536.372 241.623C536.372 241.623 536.411 241.604 536.411 241.584V241.565Z" fill="#FEFDFD"/>
<path d="M522.626 239.248C522.626 239.248 522.587 239.248 522.549 239.248C522.549 239.248 522.568 239.229 522.587 239.209C522.587 239.209 522.607 239.248 522.626 239.267V239.248Z" fill="#FEFDFD"/>
<path d="M510.193 251.102C510.193 251.102 510.212 251.102 510.231 251.122C510.231 251.122 510.231 251.122 510.231 251.141C510.231 251.141 510.231 251.102 510.231 251.083L510.193 251.102Z" fill="#FEFDFD"/>
<path d="M519.827 251.083C519.827 251.083 519.827 251.122 519.827 251.141C519.827 251.141 519.807 251.141 519.788 251.141C519.788 251.141 519.807 251.102 519.827 251.102V251.083Z" fill="#FEFDFD"/>
<path d="M526.777 241.565C526.777 241.565 526.796 241.565 526.816 241.565C526.816 241.565 526.816 241.565 526.816 241.584C526.816 241.584 526.815 241.546 526.796 241.546L526.777 241.565Z" fill="#FEFDFD"/>
<path d="M536.411 251.083C536.411 251.083 536.411 251.122 536.411 251.141C536.411 251.141 536.392 251.141 536.372 251.141L536.411 251.102V251.083Z" fill="#FEFDFD"/>
<path d="M526.758 236.873L526.777 236.854V236.873H526.758Z" fill="#FEFDFD"/>
<path d="M526.777 232.047C526.777 232.047 526.796 232.047 526.816 232.047C526.816 232.047 526.816 232.047 526.816 232.066C526.816 232.066 526.796 232.047 526.777 232.027V232.047Z" fill="#FEFDFD"/>
<path d="M523.977 239.267C523.977 239.267 524.016 239.229 524.035 239.209C524.035 239.209 524.035 239.209 524.035 239.229C524.016 239.229 523.997 239.229 523.958 239.248L523.977 239.267Z" fill="#FEFDFD"/>
<path d="M526.777 251.083C526.777 251.083 526.796 251.083 526.816 251.102C526.816 251.102 526.816 251.102 526.816 251.122C526.816 251.122 526.816 251.083 526.816 251.064L526.777 251.083Z" fill="#FEFDFD"/>
<path d="M594.872 238.302C594.872 243.785 590.47 248.245 585.064 248.245C579.658 248.245 575.256 243.805 575.256 238.302C575.256 234.132 580.894 224.228 583.635 219.671C584.33 218.513 585.817 218.513 586.512 219.671C589.234 224.228 594.891 234.132 594.891 238.302H594.872Z" fill="#6EAAEA"/>
<path d="M691.258 200.957L631.327 245.348L631.327 218.695L689.45 197.591C691.542 196.831 693.047 199.632 691.258 200.957Z" fill="black" fill-opacity="0.6"/>
<defs>
<filter id="filter0_d_593_9527" x="113.909" y="204.651" width="158.315" height="127.639" filterUnits="userSpaceOnUse" color-interpolation-filters="sRGB">
<feFlood flood-opacity="0" result="BackgroundImageFix"/>
<feColorMatrix in="SourceAlpha" type="matrix" values="0 0 0 0 0 0 0 0 0 0 0 0 0 0 0 0 0 0 127 0" result="hardAlpha"/>
<feOffset dx="7.72267" dy="-7.72267"/>
<feGaussianBlur stdDeviation="3.86133"/>
<feComposite in2="hardAlpha" operator="out"/>
<feColorMatrix type="matrix" values="0 0 0 0 0 0 0 0 0 0 0 0 0 0 0 0 0 0 0.1 0"/>
<feBlend mode="normal" in2="BackgroundImageFix" result="effect1_dropShadow_593_9527"/>
<feBlend mode="normal" in="SourceGraphic" in2="effect1_dropShadow_593_9527" result="shape"/>
</filter>
<clipPath id="clip0_593_9527">
<rect width="100.395" height="77.4417" fill="white" transform="translate(135.147 237.472)"/>
</clipPath>
<clipPath id="clip1_593_9527">
<rect width="65.6427" height="77.2267" fill="white" transform="translate(418.955 206.581)"/>
</clipPath>
</defs>
</svg>
