<svg width="375" height="220" viewBox="0 0 375 220" fill="none" xmlns="http://www.w3.org/2000/svg">
<g filter="url(#filter0_f_468_6533)" style="mix-blend-mode:multiply">
<path d="M103.023 37.4026C103.804 38.2078 104.585 38.3384 104.682 39.6007C105.014 40.3624 106.127 40.4277 106.303 41.1677C106.498 42.0164 107.631 41.5594 108.139 42.2994C109.545 42.6476 111.009 42.7346 112.318 41.9729C113.001 40.4712 112.923 41.2765 113.919 39.8183C114.563 38.839 115.774 39.1872 116.477 38.1861C117.492 37.9249 118.566 36.2491 119.367 37.9467C119.465 38.3384 119.367 38.6649 119.816 38.7302C119.914 39.4484 119.035 40.123 119.621 40.8194C120.754 41.5594 117.082 42.7564 119.855 43.344C120.812 43.3875 120.617 45.0198 121.671 44.9327C122.355 44.8674 123.507 45.1721 122.98 46.1515C123.312 49.7859 124.151 51.0482 127.647 51.0917C131.064 53.921 134.931 57.4249 139.422 55.8144C141.023 55.5097 142.527 54.8133 144.187 54.7045C144.968 54.6609 147.975 55.5097 146.549 53.7033C146.178 50.6782 147.741 51.897 149.498 51.4617C150.318 50.4388 150.963 49.2854 151.978 48.4366C153.189 46.4561 155.532 47.1526 157.309 47.392C158.403 47.479 158.051 47.109 158.715 46.4344C159.32 45.825 161.488 46.282 162.093 46.6085C162.777 46.9785 162.406 47.3267 162.874 47.8272C163.382 48.3713 164.007 47.7837 164.573 47.9796C165.628 48.3278 166.389 49.6118 167.366 50.0689C169.006 50.4824 171.447 49.0678 172.56 50.9394C172.345 51.3747 173.126 52.0711 173.302 52.4193C173.868 53.8557 175.411 53.0722 176.192 54.378C176.837 56.7285 179.043 55.5532 180.605 56.0973C181.836 59.1877 180.996 63.2575 180.762 66.5655C179.668 66.8702 180.293 67.8713 179.258 68.1325C178.262 68.7418 179.512 69.4383 179.551 70.0476C178.262 69.9606 177.618 70.3959 178.028 71.9193C177.813 72.4416 177.325 74.1827 178.184 74.2915C179.102 74.1392 180.801 75.1185 179.082 75.6408C177.891 76.5766 178.496 78.4048 178.731 79.7976C179.57 81.9304 178.926 84.5421 179.258 86.7837C181.035 87.4148 183.73 86.0437 183.788 88.6335C184.609 91.4193 181.308 92.9427 180.41 95.2061C179.121 95.7066 179.746 96.7948 180.527 97.4695C182.148 99.6458 183.163 102.802 185.39 104.281C188.221 104.978 189.237 106.719 188.651 109.896C188.983 112.007 192.107 109.635 190.584 114.184C189.549 115.881 187.069 113.988 185.702 115.359C181.523 117.666 186.151 124.217 179.824 122.802C179.004 122.454 178.164 122.214 177.52 121.562C175.118 120.735 172.677 121.627 170.236 121.17C169.377 119.995 167.522 120.234 166.253 119.995C165.003 119.886 163.968 119.45 162.796 119.45C162.445 119.255 162.699 119.037 162.581 118.711C162.464 118.449 162.21 118.449 162.152 118.101C162.289 117.448 161.527 117.165 161.722 116.425C161.41 114.989 161.507 112.334 159.75 111.79C158.578 111.376 157.368 111.92 156.157 111.79C155.903 112.53 155.102 112.16 154.712 112.791C153.97 114.467 151.998 114.01 150.963 114.967C148.229 115.315 145.222 114.401 143.445 111.942C141.609 111.703 140.789 110.615 139.617 109.026C139.207 107.938 137.313 107.524 136.317 107.394C135.243 107.655 134.657 107.437 134.345 106.218C133.427 105.587 133.544 104.586 133.212 103.585C132.646 102.845 132.49 101.974 132.47 101.039C132.177 100.212 130.927 100.625 130.595 99.7546C131.025 97.5348 130.693 98.1442 129.502 96.5772C128.252 92.1375 126.592 96.5772 125.069 94.6403C120.246 88.0895 124.893 101.387 119.719 92.9427C117.766 91.5716 119.855 89.3953 117.336 89.0035C117.239 85.2602 118.547 83.6933 115.169 80.9075C113.196 80.9075 112.474 78.3395 110.56 77.8824C110.013 77.7301 109.467 78.296 109.389 77.4907C109.31 76.729 108.842 76.1414 108.803 75.3361C108.764 73.7692 106.928 73.5298 106.284 72.2893C106.127 71.397 106.655 70.8094 107.123 70.2218C107.201 69.6124 106.948 69.9388 106.733 69.6994C105.268 67.9801 107.143 68.6548 107.924 67.9583C107.748 63.6274 110.384 67.6101 109.389 62.474C111.107 60.907 109.799 60.907 108.217 61.0594C107.377 60.7982 106.752 60.1888 106.108 59.6012C105.717 58.7525 106.108 57.6207 105.092 57.2725C104.897 56.9243 105.171 56.7067 105.034 56.3803C104.253 55.7056 103.433 54.748 103.413 53.5292C103.96 52.267 102.944 51.7011 102.515 50.6347C102.359 49.416 102.085 48.7413 101.089 48.3496C101.089 47.8273 101.343 47.4573 101.148 46.8914C101.246 46.4126 101.949 46.3909 101.792 45.7597C101.167 45.4115 101.597 44.5627 101.207 43.8881C101.499 42.6258 100.347 42.2776 100.113 41.2112C100.66 40.1883 99.1171 39.0349 100.855 39.1001C102.749 39.5136 100.328 35.7703 102.944 37.4244L103.023 37.4026Z" fill="#FFCCBE"/>
</g>
<rect x="135.5" y="77.6177" width="5" height="5" rx="2.5" fill="white" stroke="black"/>
<path d="M154.082 74.6138V85.1372H152.969V74.6138H154.082ZM145.75 79.0786C145.75 76.8345 146.881 75.4048 148.469 75.3989C150.027 75.4048 151.176 76.8345 151.176 79.0786C151.176 81.3462 150.027 82.7759 148.469 82.77C146.881 82.7759 145.75 81.3462 145.75 79.0786ZM146.828 79.0786C146.822 80.7485 147.49 81.7739 148.469 81.7739C149.43 81.7739 150.098 80.7485 150.098 79.0786C150.098 77.4321 149.43 76.4009 148.469 76.395C147.49 76.4009 146.822 77.4321 146.828 79.0786ZM163.768 74.6255V77.7778H165.303V78.7153H163.768V82.3481H162.655V74.6255H163.768ZM155.94 76.2075V75.2935H160.721V78.3872H157.065V79.8521C158.887 79.8521 160.176 79.7759 161.705 79.5122L161.823 80.4263C160.199 80.7075 158.811 80.7603 156.795 80.7661H155.951V77.5317H159.631V76.2075H155.94ZM157.17 84.8911V81.7505H158.295V83.9888H164.237V84.8911H157.17Z" fill="#191414"/>
<circle cx="156" cy="115" r="8" fill="#FF8474" fill-opacity="0.2" stroke="#02A39E" stroke-width="2" stroke-dasharray="4 4"/>
<g filter="url(#filter1_d_468_6533)">
<rect x="60" y="115" width="72" height="56" rx="8" fill="#02A39E" shape-rendering="crispEdges"/>
<rect x="59.5" y="114.5" width="73" height="57" rx="8.5" stroke="#02A39E" shape-rendering="crispEdges"/>
<g clip-path="url(#clip0_468_6533)">
<path d="M95.9924 162.093C89.3178 162.093 83.2252 158.684 79.6969 152.98C78.0055 150.241 77.0325 147.085 76.887 143.857L76.8688 143.585C76.8597 143.395 76.8416 143.204 76.8416 143.005C76.8416 142.533 76.8779 142.061 76.9143 141.599C77.0234 140.085 77.2962 138.67 77.7054 137.355C80.2061 129.312 87.5537 123.907 95.9924 123.907C103.922 123.907 111.133 128.903 113.916 136.348L114.37 137.573H112.879L110.66 139.831L109.551 140.937L109.142 139.432C108.996 138.897 108.796 138.325 108.514 137.691C108.205 136.974 107.85 136.303 107.45 135.668L88.6267 154.44C90.8182 155.854 93.3462 156.598 95.9833 156.598C99.1115 156.598 102.076 155.537 104.54 153.542C105.213 152.998 105.777 152.463 106.25 151.919L106.523 151.61H113.134L112.279 152.998C108.751 158.702 102.658 162.102 95.9924 162.102V162.093ZM95.9924 129.402C90.4363 129.402 85.4895 132.739 83.3798 137.908C83.1342 138.525 82.9433 139.069 82.8069 139.586C82.6068 140.339 82.4795 141.037 82.4159 141.717C82.3704 142.179 82.3522 142.606 82.3522 143.005C82.3522 143.204 82.3613 143.413 82.3795 143.612C82.3795 143.612 82.3977 144.093 82.4068 144.147C82.5977 146.432 83.3889 148.663 84.6983 150.586L103.604 131.733C101.358 130.227 98.6932 129.402 95.9924 129.402Z" fill="#455A64"/>
<path d="M95.9924 124.814C103.813 124.814 110.478 129.756 113.061 136.666H112.879C112.67 136.666 112.461 136.747 112.315 136.902L110.015 139.196C109.842 138.561 109.605 137.944 109.351 137.337C108.887 136.258 108.314 135.224 107.577 134.263L102.003 139.822L100.194 141.626L98.002 143.812L89.2814 152.508L87.5445 154.24L87.2262 154.557C89.7724 156.48 92.7914 157.496 95.9924 157.496C99.457 157.496 102.622 156.262 105.122 154.24C105.777 153.714 106.395 153.143 106.95 152.508H111.515C108.305 157.704 102.558 161.186 96.0014 161.186C89.445 161.186 83.698 157.704 80.4789 152.499C78.9057 149.951 77.9418 146.985 77.8054 143.812C77.7963 143.54 77.7599 143.277 77.7599 142.995C77.7599 142.533 77.7963 142.08 77.8327 141.626C77.9327 140.239 78.1782 138.897 78.5783 137.618C80.879 130.209 87.8082 124.814 95.9924 124.814ZM84.58 151.982L92.7733 143.812L94.9648 141.626L96.7744 139.822L104.995 131.624C102.431 129.602 99.2478 128.495 95.9833 128.495C89.8906 128.495 84.6892 132.259 82.534 137.564C82.2976 138.144 82.0884 138.742 81.9247 139.359C81.7338 140.094 81.5883 140.846 81.5155 141.626C81.4701 142.08 81.4428 142.533 81.4428 142.995C81.4428 143.268 81.461 143.54 81.4792 143.812C81.4792 143.948 81.4792 144.084 81.4973 144.22C81.7065 146.713 82.5795 149.117 83.998 151.193C84.1799 151.465 84.3709 151.728 84.58 151.991M95.9924 123C87.1535 123 79.4513 128.659 76.8324 137.083C76.405 138.461 76.1231 139.949 76.0049 141.49V141.535C75.9685 141.998 75.9321 142.479 75.9321 142.995C75.9321 143.213 75.9412 143.422 75.9594 143.63C75.9594 143.712 75.9685 143.803 75.9776 143.884C76.1322 147.267 77.1507 150.567 78.9239 153.442C82.6158 159.418 88.9995 162.991 95.9924 162.991C102.985 162.991 109.36 159.427 113.052 153.451L114.761 150.685H106.113L105.568 151.311C105.122 151.819 104.595 152.318 103.967 152.825C101.667 154.693 98.9114 155.673 95.9924 155.673C93.9099 155.673 91.9185 155.183 90.1089 154.231L90.5635 153.778L99.2842 145.081L101.476 142.896L103.285 141.091L107.25 137.137C107.396 137.428 107.541 137.727 107.668 138.026C107.932 138.643 108.114 139.16 108.25 139.649L109.078 142.669L111.297 140.456L113.297 138.461H115.68L114.761 136.013C111.842 128.232 104.304 123 95.9924 123ZM84.871 149.135C83.998 147.566 83.4615 145.834 83.316 144.066C83.316 144.02 83.316 143.975 83.316 143.929C83.316 143.857 83.316 143.784 83.316 143.712V143.576C83.2979 143.385 83.2888 143.195 83.2888 142.995C83.2888 142.624 83.3069 142.234 83.3524 141.789C83.4161 141.164 83.5343 140.511 83.7162 139.803C83.8435 139.323 84.0162 138.815 84.2527 138.235C86.2169 133.41 90.8363 130.3 96.0196 130.3C98.1748 130.3 100.303 130.853 102.176 131.896L95.5195 138.534L93.7099 140.338L91.5184 142.524L84.8983 149.126L84.871 149.135Z" fill="#37474F"/>
<path d="M121.627 136.149C121.309 135.605 120.818 135.206 120.236 134.997L118.744 130.581C118.408 129.574 117.38 128.903 116.207 128.903H113.997C112.861 128.903 111.915 129.511 111.524 130.391C107.777 125.82 102.085 123 95.9923 123C87.6081 123 80.2515 128.096 77.2779 135.804H74.7135C73.7133 135.804 72.8948 136.62 72.8948 137.618V138.117C72.5857 138.443 72.3947 138.878 72.3947 139.359V139.822C71.6672 139.885 71.0125 140.239 70.5578 140.81C70.0577 141.445 69.8849 142.261 70.0759 143.05L70.1031 143.177L70.3669 144.247C70.3941 144.347 70.4214 144.437 70.4578 144.528L72.2583 148.736C72.6039 149.806 73.6041 150.54 74.7499 150.54H74.95L75.8866 151.864C76.7232 153.052 77.9872 153.877 79.3967 154.186C83.1523 159.717 89.2904 163 95.9923 163C102.694 163 108.787 159.745 112.542 154.249C113.406 154.059 114.152 153.506 114.607 152.689C114.779 152.381 114.889 152.046 114.97 151.701C115.007 151.574 115.025 151.438 115.052 151.302C115.052 151.238 115.07 151.184 115.08 151.121C115.134 150.604 115.08 150.06 114.943 149.543C115.189 148.854 115.389 148.192 115.543 147.521L117.962 145.081C118.071 144.972 118.171 144.845 118.253 144.7L118.862 143.63L120.472 140.81L121.645 138.77C121.763 138.561 121.845 138.353 121.909 138.126C122.091 137.464 122 136.747 121.645 136.14L121.627 136.149ZM120.063 137.854L117.271 142.742L116.662 143.812L113.87 146.623L112.361 148.146C112.161 148.5 112.251 148.962 112.597 149.189C112.752 149.298 112.879 149.434 112.979 149.597C113.615 150.613 113.252 152.508 111.888 152.508H111.515C108.305 157.704 102.558 161.186 96.0014 161.186C89.445 161.186 83.6979 157.704 80.4788 152.499C79.2421 152.454 78.0963 151.837 77.387 150.821L76.1503 149.062C76.0048 148.844 75.7593 148.718 75.4956 148.718H74.7681C74.3953 148.718 74.077 148.464 73.9861 148.11L72.1401 143.812L71.8764 142.742L71.8491 142.615C71.7218 142.107 72.1037 141.626 72.6311 141.626H74.2316V139.359H74.7317V137.618H78.5874C80.8789 130.209 87.8082 124.814 95.9923 124.814C104.176 124.814 110.478 129.756 113.061 136.666H113.161V131.297C113.161 130.98 113.534 130.726 113.997 130.726H116.207C116.598 130.726 116.935 130.908 117.026 131.17L118.89 136.666H119.372C119.99 136.666 120.372 137.328 120.072 137.863L120.063 137.854Z" fill="#37474F"/>
<path d="M82.9069 139.377H82.9524V141.626H94.9649L96.7745 139.822H84.762V139.377C84.762 138.38 83.9527 137.573 82.9524 137.573H82.5341C82.2976 138.153 82.0885 138.752 81.9248 139.368H82.8978V139.386L82.9069 139.377Z" fill="#37474F"/>
<path d="M105.113 154.24C105.768 153.714 106.386 153.143 106.941 152.508H89.2813L87.5444 154.24H105.122H105.113Z" fill="#37474F"/>
<path d="M106.841 139.822H102.003L100.193 141.626H107.241C107.45 141.626 107.659 141.544 107.805 141.39L110.014 139.187C109.842 138.552 109.605 137.935 109.35 137.328L106.841 139.822Z" fill="#37474F"/>
<path d="M72.1311 143.812L73.9771 148.11C74.068 148.464 74.3863 148.718 74.7591 148.718H75.4866C75.7503 148.718 75.9958 148.845 76.1413 149.062L77.378 150.821C78.0873 151.837 79.2331 152.454 80.4698 152.499C78.8967 149.951 77.9327 146.986 77.7963 143.812H72.1311Z" fill="#F77152"/>
<path d="M81.479 143.812C81.479 143.948 81.479 144.084 81.4972 144.22C81.7063 146.713 82.5793 149.117 83.9979 151.193C84.1798 151.465 84.3707 151.728 84.5799 151.991L92.7731 143.821H81.479V143.812Z" fill="#F77152"/>
<path d="M94.9649 141.626H81.5156C81.4702 142.08 81.4429 142.533 81.4429 142.996C81.4429 143.268 81.4611 143.54 81.4792 143.812H92.7734L94.9649 141.626Z" fill="#4F4543"/>
<path d="M119.363 136.666H112.879C112.67 136.666 112.461 136.748 112.315 136.902L110.014 139.196L107.805 141.4C107.65 141.554 107.45 141.635 107.241 141.635H100.193L98.002 143.821H116.653L117.262 142.751L120.054 137.863C120.363 137.328 119.972 136.666 119.353 136.666H119.363Z" fill="#4F4543"/>
<path d="M77.7508 142.996C77.7508 142.533 77.7872 142.08 77.8235 141.626H72.613C72.0946 141.626 71.7127 142.116 71.8309 142.615L71.8582 142.742L72.1219 143.812H77.7872C77.7781 143.54 77.7417 143.277 77.7417 142.996H77.7508Z" fill="#4F4543"/>
<path d="M117.025 131.171C116.934 130.908 116.598 130.726 116.207 130.726H113.997C113.533 130.726 113.161 130.98 113.161 131.297V136.666H118.89L117.025 131.171Z" fill="#DDDDDD"/>
<path d="M82.9066 139.377V139.359H81.9336C81.7427 140.094 81.5972 140.846 81.5244 141.626H82.9157V139.377H82.9066Z" fill="#DDDDDD"/>
<path d="M78.5692 137.618H74.7135V139.359H74.2134V141.626H77.8235C77.9235 140.239 78.169 138.897 78.5692 137.618Z" fill="#DDDDDD"/>
<path d="M110.487 143.812H98.0019L89.2812 152.508H111.879C113.243 152.508 113.597 150.613 112.97 149.597C112.87 149.434 112.742 149.289 112.588 149.189C112.251 148.953 112.151 148.5 112.351 148.146L113.861 146.623L116.653 143.812H110.487Z" fill="#F77152"/>
</g>
</g>
<path d="M143.596 122.065L125 128L125 140L144.538 123.787C145.384 123.086 144.643 121.731 143.596 122.065Z" fill="#02A39E"/>
<rect x="207" y="100" width="120" height="54" rx="8" fill="black" fill-opacity="0.6"/>
<g clip-path="url(#clip1_468_6533)">
<path d="M234.15 132.49C230.66 132.49 227.1 130.18 225.88 127.11C225.43 125.97 224.97 124.61 225.05 123.13C225.06 122.89 225.01 122.84 224.87 122.74C223.63 122.01 223.36 120.71 223.18 119.86C222.67 117.44 222.91 115.13 223.89 112.99C224.79 111.03 226.4 109.66 228.67 108.91C230.52 108.3 232.37 107.99 234.19 107.99C235.83 107.99 237.47 108.24 239.06 108.74C242.6 109.84 244.26 111.87 244.63 115.54L244.71 116.25C244.88 117.71 245.05 119.23 244.51 120.82C244.27 121.54 243.91 122.33 243.13 122.9C243.06 123.17 243.04 123.47 243.02 123.81C243 124.13 242.97 124.46 242.91 124.78C242.34 127.92 240.54 130.25 237.55 131.71C236.49 132.23 235.35 132.49 234.16 132.49H234.15Z" fill="#37474F"/>
<path d="M234.19 109C235.71 109 237.24 109.23 238.76 109.7C241.99 110.7 243.32 112.49 243.64 115.64C243.81 117.28 244.12 118.88 243.57 120.5C243.33 121.2 243.01 121.86 242.3 122.25C241.99 123.01 242.08 123.82 241.94 124.59C241.43 127.42 239.84 129.47 237.12 130.8C236.16 131.27 235.15 131.48 234.17 131.48C230.91 131.48 227.82 129.22 226.82 126.73C226.36 125.58 225.99 124.41 226.06 123.17C226.09 122.62 225.9 122.21 225.44 121.9C224.56 121.38 224.35 120.49 224.17 119.64C223.72 117.51 223.89 115.41 224.81 113.4C225.63 111.62 227.1 110.48 229 109.85C230.72 109.28 232.46 108.98 234.21 108.98M234.19 107C232.27 107 230.31 107.33 228.36 107.97C225.85 108.8 223.99 110.39 222.98 112.58C221.91 114.92 221.64 117.44 222.2 120.07C222.38 120.9 222.69 122.39 224.04 123.39C224.03 124.94 224.49 126.32 224.95 127.48C226.32 130.9 230.28 133.49 234.15 133.49C235.5 133.49 236.79 133.19 237.98 132.61C241.27 131 243.26 128.42 243.89 124.96C243.96 124.57 243.99 124.21 244.01 123.89C244.02 123.73 244.03 123.58 244.05 123.45C244.83 122.75 245.21 121.88 245.45 121.16C246.06 119.36 245.87 117.66 245.7 116.16C245.67 115.93 245.65 115.69 245.62 115.46C245.21 111.39 243.28 109.03 239.35 107.81C237.66 107.29 235.92 107.02 234.18 107.02L234.19 107Z" fill="#37474F"/>
<path d="M244.77 146C242.88 146 240.99 146 239.1 145.99H236.05L231.53 145.93L228.45 145.96C226.6 145.98 224.75 146 222.9 146C222.17 146 221.44 146 220.71 146C218.29 145.98 218 144.37 218 143.17C218 141.68 218 140.19 218 138.69C218 135.86 219.29 133.89 221.82 132.84C223.18 132.27 224.55 131.64 225.87 131.03L226.83 130.59C227.33 130.36 227.75 130.25 228.16 130.25C228.73 130.25 229.25 130.46 229.68 130.87C230.69 131.3 231.8 131.69 233.07 132.04L235.05 131.94C235.88 131.87 236.7 131.54 237.57 131.19C237.83 131.09 238.09 130.98 238.35 130.89C238.74 130.42 239.26 130.17 239.86 130.17C240.21 130.17 240.57 130.26 240.95 130.43L242.07 130.94C243.68 131.67 245.35 132.43 246.96 133.24C248.84 134.18 249.9 135.84 249.97 137.92C250.01 139.35 250 140.79 249.99 142.19V143.34C249.97 145.09 249.03 146.02 247.25 146.03H244.77V146Z" fill="#37474F"/>
<path d="M239.87 131.14C240.08 131.14 240.31 131.2 240.54 131.31C242.54 132.23 244.55 133.12 246.52 134.1C248.11 134.9 248.92 136.23 248.97 137.92C249.02 139.71 248.99 141.51 248.98 143.3C248.98 144.49 248.5 144.99 247.24 144.99C246.44 144.99 245.63 144.99 244.83 144.99C241.9 144.99 238.98 144.97 236.05 144.97C234.55 144.95 233.04 144.94 231.54 144.92C228.65 144.94 225.76 144.98 222.88 144.98C222.16 144.98 221.44 144.98 220.72 144.98C219.38 144.97 219 144.46 219 143.15C219 141.66 219 140.17 219 138.68C219 136.43 219.9 134.71 222.2 133.75C223.9 133.04 225.57 132.25 227.25 131.48C227.57 131.33 227.88 131.24 228.17 131.24C228.5 131.24 228.82 131.37 229.11 131.7C230.36 132.25 231.65 132.68 232.97 133.04C233.68 133 234.4 132.97 235.11 132.93C236.5 132.81 237.71 132.16 238.99 131.71C239.22 131.32 239.53 131.16 239.87 131.16M239.87 129.14C239.07 129.14 238.34 129.45 237.78 130.01C237.59 130.08 237.4 130.16 237.21 130.24C236.39 130.57 235.68 130.85 234.97 130.92L233.2 131.01C232.1 130.7 231.13 130.37 230.24 129.99C229.65 129.49 228.95 129.22 228.18 129.22C227.62 129.22 227.06 129.36 226.43 129.65L225.46 130.1C224.15 130.71 222.79 131.33 221.45 131.89C218.55 133.1 217.01 135.44 217 138.67C217 140.16 217 141.66 217 143.15C217 146.45 219.32 146.97 220.7 146.98C221.43 146.98 222.15 146.98 222.88 146.98C224.75 146.98 226.62 146.96 228.49 146.94C229.51 146.93 230.54 146.92 231.56 146.91L235.07 146.95H236.03L239.2 146.97C241.08 146.97 242.95 146.98 244.83 146.98C245.64 146.98 246.44 146.98 247.25 146.98C249.58 146.98 250.97 145.6 250.98 143.3V142.17C251 140.76 251.01 139.3 250.97 137.85C250.9 135.38 249.63 133.41 247.41 132.3C245.79 131.49 244.12 130.73 242.51 130L241.37 129.48C240.86 129.25 240.36 129.13 239.86 129.13L239.87 129.14Z" fill="#37474F"/>
<path d="M242.29 122.25C241.98 123.01 242.07 123.82 241.93 124.59C241.42 127.42 239.83 129.47 237.11 130.8C232.96 132.83 228.11 129.97 226.81 126.73C226.35 125.58 225.98 124.41 226.05 123.17C226.08 122.62 225.89 122.21 225.43 121.9C226.03 121.83 226.08 121.44 226.08 120.98C226.07 120.33 225.98 119.66 226.1 119.03C226.58 116.51 227.57 115.67 229.78 116.6C233.12 118.01 236.54 118.23 240.08 117.67C241.51 117.44 241.76 117.6 241.92 118.95C242.05 120.04 242.18 121.14 242.3 122.23L242.29 122.25Z" fill="#E9C9A6"/>
<path d="M242.29 122.25C242.16 121.16 242.03 120.06 241.91 118.97C241.75 117.62 241.5 117.46 240.07 117.69C236.53 118.25 233.11 118.03 229.77 116.62C227.56 115.69 226.57 116.54 226.09 119.05C225.97 119.68 226.06 120.35 226.07 121C226.07 121.46 226.02 121.85 225.42 121.92C224.54 121.4 224.33 120.51 224.15 119.66C223.7 117.53 223.87 115.43 224.79 113.42C225.61 111.64 227.08 110.5 228.98 109.87C232.21 108.81 235.49 108.69 238.76 109.7C241.99 110.7 243.32 112.49 243.64 115.64C243.81 117.28 244.12 118.88 243.57 120.5C243.33 121.2 243.01 121.86 242.3 122.25H242.29Z" fill="#FEE394"/>
<path d="M231.55 144.92C227.94 144.94 224.33 145.01 220.72 144.97C219.38 144.96 219 144.45 219 143.14C219 141.65 219 140.16 219 138.67C219 136.42 219.9 134.7 222.2 133.74C223.9 133.03 225.57 132.24 227.25 131.47C227.93 131.16 228.56 131.06 229.11 131.69C229.8 135.35 230.48 139.01 231.17 142.67C231.24 143.03 231.16 143.46 231.68 143.6C231.8 144.06 231.32 144.46 231.55 144.93V144.92Z" fill="#455A64"/>
<path d="M238.99 131.7C239.37 131.06 239.93 131.04 240.54 131.32C242.54 132.24 244.55 133.13 246.52 134.11C248.11 134.91 248.92 136.24 248.97 137.93C249.02 139.72 248.99 141.52 248.98 143.31C248.98 144.5 248.5 145 247.24 145C243.51 145.01 239.78 144.99 236.06 144.98C236.74 144.68 236.55 144.13 236.5 143.61C236.86 143.17 236.93 142.65 237.03 142.13C237.68 138.65 238.33 135.17 238.99 131.7Z" fill="#455A64"/>
<path d="M232.97 133.03C231.99 133.71 231.37 134.44 232.53 135.47C232.73 135.65 232.84 135.92 232.79 136.2C232.37 138.66 232.23 141.16 231.67 143.6C231.15 143.46 231.23 143.03 231.16 142.67C230.47 139.01 229.79 135.35 229.1 131.69C230.35 132.24 231.64 132.67 232.96 133.03H232.97Z" fill="#FCFCFC"/>
<path d="M236.5 143.61C235.79 142.01 235.95 140.28 235.6 138.62C235.46 137.95 235.45 137.26 235.36 136.58C235.29 136.07 235.33 135.58 235.72 135.19C236.44 134.48 236.38 133.89 235.5 133.36C235.34 133.26 235.25 133.07 235.12 132.92C236.51 132.8 237.72 132.15 239 131.7C238.35 135.18 237.69 138.65 237.04 142.13C236.94 142.65 236.87 143.18 236.51 143.61H236.5Z" fill="#FCFCFC"/>
<path d="M231.04 144.92C232.54 144.94 235.35 144.96 236.85 144.97L235.59 138.62C235.45 137.95 235.44 137.26 235.35 136.58C235.28 136.07 235.32 135.58 235.71 135.19C236.43 134.48 236.37 133.89 235.49 133.36C235.33 133.26 235.24 133.07 235.11 132.92C234.4 132.96 233.68 132.99 232.97 133.03C231.99 133.71 231.37 134.44 232.53 135.47C232.73 135.65 232.84 135.92 232.79 136.2L231.03 144.93L231.04 144.92Z" fill="#F77152"/>
</g>
<path d="M311.227 138.75C309.037 138.75 306.767 137.12 306.677 134.01C306.677 132.67 307.647 130.28 309.567 126.87C309.877 126.27 310.527 125.87 311.227 125.87C311.927 125.87 312.577 126.26 312.907 126.89C314.807 130.27 315.777 132.66 315.777 133.97C315.677 137.12 313.417 138.74 311.227 138.74V138.75Z" fill="#37474F"/>
<path d="M311.227 126.87C311.537 126.87 311.847 127.03 312.017 127.36C313.047 129.19 314.777 132.49 314.777 133.98C314.697 136.5 312.967 137.75 311.227 137.75C309.487 137.75 307.747 136.49 307.677 133.98C307.677 132.49 309.407 129.2 310.437 127.36C310.607 127.04 310.917 126.87 311.227 126.87ZM311.227 124.87C310.157 124.87 309.187 125.45 308.677 126.4C305.677 131.75 305.677 133.42 305.677 133.98C305.677 134 305.677 134.02 305.677 134.04C305.787 137.79 308.557 139.75 311.227 139.75C313.897 139.75 316.667 137.79 316.777 134.04C316.777 134.02 316.777 134 316.777 133.98C316.777 133.43 316.777 131.75 313.777 126.4C313.267 125.46 312.297 124.88 311.227 124.88V124.87Z" fill="#37474F"/>
<path d="M277.597 142.75C271.557 142.75 266.647 142.69 262.147 142.55C261.817 142.54 261.507 142.36 261.327 142.08C260.957 141.48 261.007 140.9 261.037 140.51C261.047 140.37 261.057 140.24 261.047 140.15C261.047 140.1 261.037 140.05 261.037 140C261.037 136.86 261.037 133.01 261.037 129.18C261.037 125.42 261.037 121.67 261.037 118.64C261.037 117.72 261.677 117.08 262.597 117.08C268.297 117.08 273.997 117.08 279.697 117.08H298.867C299.667 115.53 300.517 114.06 301.117 113.06C301.527 112.38 302.247 111.98 303.047 111.98C303.847 111.98 304.567 112.38 304.977 113.06C307.047 116.51 309.507 121.1 309.507 123.42C309.507 125.45 308.577 127.33 306.997 128.56V139.96C306.997 139.96 306.997 140.05 306.987 140.1C306.977 140.17 306.987 140.35 306.997 140.48C307.027 140.95 307.077 141.66 306.607 142.23C306.567 142.28 306.527 142.32 306.477 142.36L306.337 142.47C306.157 142.62 305.927 142.7 305.697 142.7C305.667 142.7 305.627 142.7 305.597 142.7L305.337 142.67C303.307 142.65 301.177 142.65 299.047 142.65C295.487 142.65 291.917 142.67 288.337 142.69C284.757 142.71 281.177 142.73 277.607 142.73L277.597 142.75Z" fill="#37474F"/>
<path d="M303.037 113C303.457 113 303.867 113.2 304.107 113.59C305.747 116.32 308.497 121.24 308.497 123.43C308.497 125.32 307.557 127.03 305.987 128.06V139.98C305.917 140.49 306.167 141.21 305.827 141.61L305.687 141.72L305.427 141.69C303.297 141.67 301.167 141.66 299.027 141.66C291.897 141.66 284.737 141.75 277.597 141.75C272.427 141.75 267.287 141.7 262.187 141.55C261.877 141.05 262.127 140.55 262.047 140C262.047 133.78 262.037 124.77 262.047 118.64C262.047 118.28 262.247 118.08 262.607 118.08C268.307 118.08 274.007 118.08 279.707 118.08H299.487C300.347 116.36 301.317 114.69 301.987 113.58C302.227 113.18 302.637 112.99 303.057 112.99M303.037 111C301.877 111 300.837 111.58 300.257 112.56C299.717 113.45 298.987 114.72 298.257 116.09H279.687C273.987 116.09 268.287 116.09 262.587 116.09C261.127 116.09 260.027 117.19 260.027 118.65C260.027 121.68 260.027 125.41 260.027 129.17C260.027 133.01 260.027 136.86 260.027 140.01C260.027 140.11 260.027 140.2 260.047 140.3C260.047 140.31 260.037 140.37 260.027 140.43C259.987 140.88 259.917 141.73 260.457 142.61C260.807 143.18 261.427 143.53 262.097 143.56C266.607 143.7 271.527 143.76 277.577 143.76C281.147 143.76 284.727 143.74 288.307 143.72C291.877 143.7 295.447 143.68 299.007 143.68C301.107 143.68 303.207 143.68 305.297 143.71L305.467 143.73C305.537 143.73 305.607 143.74 305.677 143.74C306.137 143.74 306.597 143.58 306.957 143.28L307.097 143.17C307.187 143.09 307.277 143.01 307.357 142.91C308.087 142.03 308.017 141 307.977 140.45C307.977 140.38 307.967 140.3 307.967 140.24C307.967 140.16 307.977 140.08 307.977 140C307.977 139.9 307.977 131.9 307.977 129.07C309.567 127.66 310.487 125.63 310.487 123.46C310.487 122.7 310.487 120.38 305.817 112.59C305.227 111.61 304.187 111.02 303.037 111.02V111Z" fill="#37474F"/>
<path d="M314.407 133.97C314.407 135.87 312.987 137.4 311.227 137.4C309.467 137.4 308.047 135.86 308.047 133.97C308.047 132.53 309.877 129.11 310.757 127.54C310.987 127.14 311.467 127.14 311.687 127.54C312.567 129.11 314.397 132.54 314.397 133.97H314.407Z" fill="#6EAAEA"/>
<path d="M262.407 130.78C262.407 126.74 262.407 122.69 262.407 118.65C262.407 118.49 262.437 118.46 262.587 118.46C268.287 118.46 273.987 118.46 279.687 118.46C279.687 119.05 279.687 119.63 279.687 120.22C279.687 120.81 279.687 121.39 279.687 121.98C279.687 122.57 279.687 123.15 279.687 123.74C279.687 124.32 279.687 124.91 279.687 125.49C279.687 126.08 279.687 126.66 279.687 127.25C279.687 127.84 279.687 128.42 279.687 129.01C279.687 129.6 279.687 130.18 279.687 130.77C279.597 130.77 279.507 130.77 279.417 130.77C273.747 130.77 268.077 130.77 262.407 130.77V130.78ZM269.267 127.63C269.477 127.39 269.697 127.3 269.987 127.6C269.787 127.24 269.957 127.05 270.247 126.87C269.827 127 269.687 126.78 269.607 126.42C269.587 126.84 269.367 126.95 269.017 126.89C269.077 126.96 269.127 127.01 269.177 127.03C269.347 127.11 269.377 127.23 269.297 127.4C269.267 127.47 269.207 127.54 269.267 127.63ZM272.837 127.63C272.867 127.6 272.867 127.56 272.847 127.53C272.677 127.25 272.807 127.08 273.057 126.94C273.057 126.94 273.057 126.92 273.077 126.87C272.697 126.99 272.547 126.77 272.487 126.41C272.417 126.59 272.397 126.77 272.297 126.84C272.197 126.91 272.027 126.88 271.847 126.89C271.987 126.99 272.127 127.06 272.187 127.16C272.247 127.28 272.127 127.41 272.097 127.55C272.177 127.59 272.237 127.55 272.277 127.5C272.427 127.34 272.557 127.38 272.687 127.51C272.727 127.55 272.777 127.58 272.827 127.62L272.837 127.63ZM277.867 127.63C278.077 127.39 278.297 127.31 278.587 127.6C278.387 127.24 278.557 127.05 278.837 126.88C278.427 126.99 278.277 126.79 278.227 126.44C278.157 126.59 278.137 126.75 278.047 126.84C277.947 126.94 277.767 126.84 277.607 126.91C277.677 126.96 277.717 127.01 277.777 127.04C277.947 127.12 277.967 127.24 277.897 127.41C277.867 127.48 277.807 127.56 277.877 127.64C277.877 127.64 277.877 127.64 277.867 127.64C277.867 127.64 277.867 127.64 277.877 127.64L277.867 127.63ZM264.247 127.63C264.247 127.61 264.277 127.58 264.267 127.57C264.097 127.27 264.227 127.07 264.507 126.86C264.077 127.02 263.967 126.75 263.877 126.43C263.847 126.82 263.647 126.96 263.257 126.9C263.647 127.06 263.657 127.31 263.467 127.65C263.774 127.463 264.034 127.457 264.247 127.63ZM271.397 123.92C271.397 123.92 271.417 123.92 271.437 123.91C271.437 123.91 271.437 123.91 271.437 123.9C271.427 123.91 271.417 123.92 271.407 123.93C271.407 123.9 271.437 123.87 271.427 123.85C271.257 123.55 271.377 123.35 271.657 123.21C271.657 123.21 271.657 123.2 271.657 123.16C271.317 123.24 271.097 123.12 271.057 122.71C271.027 123.13 270.797 123.23 270.387 123.15C270.507 123.24 270.557 123.29 270.617 123.32C270.787 123.4 270.807 123.52 270.737 123.68C270.707 123.75 270.647 123.82 270.707 123.91C270.707 123.91 270.697 123.89 270.687 123.88L270.667 123.9C270.667 123.9 270.687 123.9 270.707 123.9C270.954 123.713 271.187 123.713 271.407 123.9L271.397 123.92ZM277.837 125.12C278.077 124.96 278.307 124.86 278.577 125.12C278.387 124.79 278.517 124.57 278.847 124.4C278.437 124.51 278.267 124.33 278.207 123.95C278.157 124.34 277.957 124.49 277.587 124.4C277.707 124.52 277.847 124.58 277.917 124.69C277.997 124.82 277.827 124.96 277.847 125.12C277.847 125.12 277.827 125.13 277.827 125.14C277.827 125.14 277.837 125.14 277.847 125.14C277.847 125.14 277.847 125.12 277.847 125.11L277.837 125.12ZM272.857 125.12C272.857 125.12 272.857 125.14 272.867 125.14V125.13C272.867 125.13 272.857 125.13 272.847 125.13C272.707 124.83 272.777 124.6 273.087 124.45C273.087 124.45 273.087 124.44 273.087 124.4C272.717 124.53 272.547 124.33 272.467 123.97C272.437 124.38 272.217 124.48 271.857 124.43C272.167 124.6 272.317 124.81 272.067 125.15C272.267 125.12 272.347 124.94 272.487 124.93C272.627 124.93 272.707 125.12 272.867 125.13L272.857 125.12ZM269.247 125.12C269.487 124.95 269.717 124.87 269.997 125.12C269.807 124.79 269.937 124.57 270.247 124.4C269.857 124.48 269.657 124.34 269.627 123.94C269.577 124.34 269.367 124.48 268.977 124.42C269.357 124.56 269.377 124.8 269.247 125.1C269.247 125.1 269.247 125.11 269.247 125.12C269.247 125.12 269.227 125.13 269.227 125.14C269.227 125.14 269.237 125.14 269.247 125.14C269.247 125.14 269.247 125.12 269.247 125.11V125.12ZM264.257 125.12C264.257 125.12 264.257 125.14 264.267 125.14V125.13C264.267 125.13 264.257 125.13 264.247 125.13C264.097 124.82 264.207 124.6 264.497 124.4C264.107 124.52 263.937 124.32 263.867 123.96C263.837 124.37 263.617 124.47 263.207 124.39C263.387 124.53 263.547 124.61 263.587 124.72C263.627 124.83 263.527 124.99 263.477 125.17C263.637 125.06 263.747 124.94 263.867 124.92C264.007 124.9 264.087 125.11 264.247 125.12H264.257ZM263.537 120.19C263.767 119.99 263.997 119.93 264.227 120.19C264.227 120.19 264.247 120.19 264.297 120.19C264.067 119.86 264.177 119.63 264.517 119.45C264.107 119.57 263.947 119.36 263.887 118.98C263.797 119.16 263.817 119.35 263.697 119.43C263.587 119.5 263.417 119.42 263.217 119.49C263.607 119.61 263.667 119.84 263.507 120.14C263.507 120.14 263.527 120.16 263.527 120.17C263.517 120.17 263.507 120.17 263.497 120.17C263.497 120.17 263.497 120.19 263.497 120.2C263.497 120.2 263.507 120.18 263.517 120.17L263.537 120.19ZM272.857 120.18C272.857 120.18 272.867 120.19 272.877 120.2V120.19C272.877 120.19 272.867 120.19 272.857 120.19C272.707 119.88 272.807 119.65 273.107 119.46C272.727 119.56 272.537 119.39 272.477 119.01C272.447 119.43 272.227 119.54 271.847 119.48C272.237 119.64 272.267 119.9 272.087 120.24C272.337 119.94 272.587 119.94 272.837 120.19C272.837 120.19 272.847 120.19 272.857 120.19V120.18ZM269.247 130.05C269.487 129.9 269.717 129.79 269.967 130.05C270.017 129.9 269.847 129.77 269.907 129.64C269.967 129.51 270.147 129.48 270.257 129.3C269.847 129.44 269.687 129.25 269.647 128.84C269.567 129.05 269.547 129.23 269.447 129.3C269.347 129.37 269.167 129.33 269.027 129.34C269.387 129.49 269.377 129.75 269.257 130.05C269.257 130.05 269.247 130.07 269.237 130.07C269.237 130.07 269.247 130.07 269.257 130.07C269.257 130.07 269.257 130.05 269.257 130.04L269.247 130.05ZM277.837 130.05C278.077 129.9 278.307 129.79 278.577 130.05C278.387 129.72 278.537 129.51 278.847 129.35C278.647 129.31 278.477 129.39 278.377 129.3C278.287 129.21 278.267 129.04 278.207 128.88C278.147 129.04 278.127 129.22 278.017 129.3C277.917 129.37 277.737 129.33 277.597 129.34C277.957 129.49 277.947 129.75 277.827 130.04L277.807 130.06C277.807 130.06 277.817 130.06 277.827 130.06C277.827 130.06 277.827 130.04 277.827 130.03L277.837 130.05ZM264.257 130.05C264.257 130.05 264.257 130.07 264.257 130.08V130.07C264.257 130.07 264.247 130.07 264.237 130.06C264.117 129.77 264.137 129.53 264.457 129.39C264.457 129.39 264.457 129.36 264.457 129.32C264.087 129.45 263.937 129.23 263.857 128.89C263.827 129.28 263.617 129.41 263.237 129.35C263.627 129.52 263.647 129.78 263.477 130.12C263.717 129.82 263.957 129.8 264.207 130.06C264.207 130.06 264.237 130.06 264.247 130.06L264.257 130.05ZM272.857 130.05C272.857 130.05 272.857 130.07 272.857 130.08V130.07C272.857 130.07 272.847 130.07 272.837 130.06C272.707 129.77 272.747 129.53 273.057 129.39C273.057 129.39 273.057 129.36 273.057 129.31C272.657 129.49 272.547 129.21 272.447 128.89C272.447 129.33 272.197 129.4 271.847 129.36C272.177 129.52 272.287 129.74 272.057 130.07C272.257 130.05 272.337 129.87 272.467 129.86C272.607 129.86 272.677 130.06 272.847 130.06L272.857 130.05ZM272.847 122.69C272.847 122.66 272.867 122.63 272.857 122.61C272.687 122.31 272.807 122.12 273.077 121.99C273.077 121.99 273.077 121.97 273.077 121.93C272.707 122.05 272.547 121.85 272.497 121.45C272.417 121.65 272.407 121.81 272.317 121.9C272.217 122.01 272.027 121.9 271.877 121.96C271.997 122.05 272.147 122.12 272.207 122.23C272.267 122.35 272.137 122.48 272.117 122.61C272.187 122.64 272.247 122.61 272.287 122.57C272.447 122.39 272.597 122.44 272.737 122.59C272.777 122.63 272.817 122.66 272.857 122.69H272.847ZM264.247 122.69C264.247 122.66 264.277 122.63 264.267 122.61C264.107 122.31 264.217 122.12 264.487 121.99C264.487 121.99 264.487 121.97 264.487 121.93C264.117 122.05 263.957 121.86 263.887 121.49C263.847 121.88 263.647 122.03 263.267 121.95C263.557 122.12 263.747 122.3 263.497 122.62C263.597 122.66 263.657 122.62 263.697 122.57C263.837 122.42 263.957 122.44 264.097 122.57C264.147 122.62 264.197 122.65 264.257 122.7L264.247 122.69ZM264.697 125.66C265.067 125.81 265.107 126.06 264.887 126.42C265.077 126.3 265.197 126.16 265.327 126.15C265.447 126.15 265.567 126.29 265.697 126.37C265.697 126.2 265.547 126.06 265.607 125.94C265.667 125.82 265.817 125.75 265.927 125.66C265.537 125.73 265.377 125.54 265.337 125.13C265.224 125.457 265.011 125.633 264.697 125.66ZM274.597 125.67C274.367 125.61 274.187 125.7 274.077 125.6C273.967 125.51 273.997 125.32 273.887 125.17C273.887 125.58 273.667 125.72 273.277 125.65C273.667 125.81 273.697 126.06 273.527 126.4C273.787 126.11 274.037 126.09 274.307 126.4C274.137 126.06 274.177 125.82 274.607 125.67H274.597ZM277.427 125.64C277.114 125.64 276.891 125.473 276.757 125.14C276.737 125.57 276.537 125.72 276.147 125.65C276.517 125.81 276.557 126.06 276.367 126.42C276.547 126.3 276.667 126.16 276.787 126.16C276.907 126.16 277.027 126.31 277.177 126.4C277.137 126.23 277.037 126.07 277.077 125.95C277.117 125.83 277.287 125.76 277.437 125.64H277.427ZM266.747 121.48C266.707 121.88 266.497 122.01 266.117 121.95C266.487 122.11 266.537 122.35 266.357 122.69C266.627 122.4 266.867 122.4 267.137 122.69C266.927 122.34 267.037 122.12 267.367 121.95C266.967 122.03 266.787 121.86 266.737 121.48H266.747ZM274.717 121.96C275.127 122.11 275.097 122.38 274.967 122.71C275.227 122.36 275.477 122.43 275.737 122.69C275.557 122.35 275.607 122.11 275.977 121.95C275.577 122.03 275.397 121.86 275.347 121.47C275.297 121.84 275.127 122.03 274.717 121.95V121.96ZM268.187 125.16C268.157 125.58 267.947 125.71 267.557 125.64C267.917 125.81 267.987 126.05 267.807 126.41C268.077 126.05 268.317 126.15 268.587 126.39C268.357 126.04 268.487 125.81 268.827 125.64C268.427 125.72 268.227 125.57 268.187 125.16ZM273.527 121.46C273.797 121.17 274.037 121.16 274.307 121.46C274.107 121.11 274.217 120.88 274.557 120.7C274.147 120.8 273.977 120.61 273.917 120.23C273.887 120.64 273.687 120.78 273.287 120.7C273.647 120.87 273.737 121.11 273.537 121.46H273.527ZM266.007 120.71C265.777 120.69 265.597 120.73 265.497 120.66C265.397 120.58 265.377 120.4 265.297 120.18C265.287 120.63 265.087 120.78 264.677 120.7C265.097 120.85 265.097 121.12 264.907 121.47C265.087 121.35 265.207 121.23 265.337 121.21C265.467 121.19 265.557 121.38 265.767 121.44C265.477 121.08 265.647 120.88 266.007 120.71ZM267.557 120.71C267.927 120.87 267.967 121.12 267.797 121.46C268.067 121.17 268.317 121.17 268.587 121.46C268.357 121.1 268.497 120.87 268.817 120.69C268.407 120.8 268.247 120.61 268.177 120.24C268.147 120.65 267.937 120.78 267.557 120.71ZM276.397 121.46C276.667 121.13 276.907 121.21 277.187 121.46C276.947 121.1 277.107 120.89 277.427 120.7C277.007 120.82 276.847 120.62 276.787 120.25C276.747 120.65 276.547 120.79 276.157 120.72C276.507 120.89 276.597 121.12 276.407 121.47L276.397 121.46ZM275.757 130.11C275.507 129.75 275.667 129.53 275.987 129.32C275.547 129.48 275.427 129.21 275.347 128.88C275.317 129.28 275.107 129.41 274.717 129.35C275.117 129.5 275.117 129.76 274.977 130.1C275.247 129.78 275.487 129.82 275.757 130.1V130.11ZM267.147 130.1C266.937 129.74 267.067 129.52 267.397 129.33C266.957 129.47 266.827 129.23 266.757 128.88C266.717 129.27 266.527 129.43 266.127 129.35C266.507 129.51 266.537 129.77 266.377 130.1C266.637 129.82 266.877 129.78 267.157 130.1H267.147ZM274.957 125.17C275.227 124.88 275.467 124.87 275.737 125.17C275.537 124.82 275.637 124.58 275.987 124.4C275.567 124.52 275.397 124.32 275.337 123.94C275.297 124.33 275.097 124.49 274.697 124.41C275.067 124.58 275.127 124.82 274.947 125.17H274.957ZM270.427 120.7C270.777 120.88 270.857 121.12 270.647 121.47C270.917 121.17 271.167 121.16 271.447 121.47C271.207 121.11 271.337 120.89 271.667 120.71C271.287 120.78 271.087 120.65 271.037 120.26C270.977 120.64 270.807 120.8 270.417 120.71L270.427 120.7ZM269.247 122.68C269.487 122.42 269.717 122.39 269.987 122.66C269.807 122.31 269.947 122.11 270.247 121.95C269.857 122.03 269.667 121.88 269.627 121.49C269.577 121.88 269.377 122.02 268.987 121.96C269.367 122.11 269.397 122.36 269.247 122.69V122.68ZM278.837 121.95C278.457 122.03 278.257 121.88 278.247 121.48C278.117 121.63 278.157 121.82 278.037 121.91C277.927 122 277.747 121.91 277.557 121.98C277.957 122.11 277.987 122.36 277.837 122.69C278.077 122.42 278.307 122.4 278.597 122.66C278.337 122.28 278.577 122.12 278.837 121.95ZM267.137 125.19C267.137 124.97 266.987 124.84 267.047 124.7C267.097 124.57 267.287 124.54 267.397 124.37C266.987 124.5 266.807 124.32 266.757 123.93C266.727 124.35 266.507 124.47 266.117 124.42C266.517 124.57 266.527 124.83 266.377 125.17C266.637 124.86 266.887 124.88 267.137 125.19ZM271.047 125.2C271.017 125.62 270.777 125.69 270.427 125.66C270.767 125.82 270.877 126.03 270.657 126.37C270.917 126.16 271.157 126.09 271.427 126.37C271.187 126 271.427 125.83 271.667 125.64C271.287 125.73 271.097 125.58 271.037 125.2H271.047ZM270.277 119.43C269.857 119.56 269.667 119.4 269.637 118.98C269.557 119.19 269.537 119.37 269.437 119.44C269.337 119.51 269.157 119.47 269.017 119.47C269.407 119.62 269.377 119.9 269.237 120.23C269.507 119.91 269.757 119.93 270.007 120.23C269.977 120.06 269.887 119.91 269.907 119.78C269.927 119.64 270.137 119.61 270.287 119.42L270.277 119.43ZM277.817 120.24C278.087 119.91 278.347 119.95 278.617 120.24C278.397 119.89 278.487 119.66 278.847 119.48C278.467 119.55 278.257 119.42 278.217 119.02C278.157 119.41 277.977 119.57 277.577 119.48C277.947 119.65 278.007 119.9 277.817 120.25V120.24ZM266.117 119.47C266.467 119.64 266.547 119.87 266.367 120.21C266.517 120.13 266.637 119.98 266.747 119.98C266.867 119.98 266.987 120.12 267.107 120.2C266.917 119.86 267.057 119.64 267.397 119.48C267.197 119.44 267.017 119.53 266.917 119.42C266.827 119.33 266.807 119.16 266.727 118.95C266.697 119.38 266.527 119.56 266.117 119.47ZM274.967 120.22C275.107 120.12 275.227 119.98 275.337 119.98C275.467 119.98 275.587 120.12 275.727 120.2C275.727 120.03 275.577 119.89 275.637 119.76C275.697 119.64 275.847 119.57 275.957 119.48C275.567 119.55 275.387 119.38 275.337 118.98C275.307 119.39 275.097 119.53 274.667 119.43C274.837 119.57 275.007 119.64 275.047 119.75C275.087 119.87 274.997 120.03 274.957 120.21L274.967 120.22ZM267.757 128.86C267.967 128.8 268.057 128.61 268.197 128.63C268.327 128.65 268.437 128.78 268.547 128.86C268.337 128.52 268.487 128.3 268.807 128.12C268.407 128.22 268.237 128.03 268.177 127.66C268.137 128.06 267.937 128.21 267.547 128.13C267.887 128.29 267.997 128.51 267.757 128.87V128.86ZM273.517 128.88C273.777 128.57 274.027 128.58 274.297 128.86C274.077 128.5 274.227 128.29 274.547 128.11C274.137 128.21 273.967 128.03 273.907 127.64C273.877 128.06 273.667 128.19 273.277 128.13C273.667 128.29 273.697 128.54 273.517 128.89V128.88ZM270.437 128.11C270.677 128.323 270.747 128.58 270.647 128.88C270.797 128.78 270.897 128.66 271.017 128.63C271.167 128.59 271.247 128.8 271.437 128.83C271.237 128.5 271.337 128.28 271.677 128.12C271.287 128.2 271.087 128.06 271.037 127.66C270.987 128.05 270.797 128.2 270.427 128.11H270.437ZM264.937 128.88C265.197 128.54 265.437 128.59 265.717 128.86C265.507 128.51 265.637 128.29 265.967 128.11C265.557 128.22 265.387 128.02 265.317 127.65C265.277 128.05 265.077 128.18 264.697 128.12C265.077 128.28 265.127 128.53 264.947 128.88H264.937ZM276.767 122.7C276.767 123.15 276.507 123.22 276.137 123.19C276.547 123.33 276.547 123.59 276.397 123.92C276.667 123.6 276.907 123.66 277.177 123.92C276.967 123.58 277.057 123.34 277.417 123.17C277.017 123.26 276.847 123.08 276.777 122.7H276.767ZM274.547 123.18C274.367 123.17 274.177 123.21 274.087 123.13C273.987 123.05 273.977 122.86 273.927 122.73C273.877 123.1 273.687 123.26 273.287 123.18C273.667 123.34 273.707 123.59 273.537 123.94C273.797 123.6 274.037 123.65 274.297 123.94C274.237 123.613 274.324 123.36 274.557 123.18H274.547ZM268.817 123.18C268.427 123.25 268.227 123.1 268.177 122.69C268.177 123.13 267.937 123.24 267.557 123.18C267.897 123.35 267.997 123.57 267.797 123.92C268.067 123.62 268.317 123.65 268.577 123.92C268.367 123.57 268.467 123.35 268.807 123.18H268.817ZM265.707 123.91C265.667 123.74 265.577 123.59 265.617 123.48C265.657 123.36 265.827 123.29 265.937 123.2C265.547 123.28 265.387 123.08 265.317 122.71C265.287 123.12 265.077 123.25 264.687 123.19C265.077 123.35 265.107 123.6 264.897 123.94C265.184 123.767 265.451 123.757 265.697 123.91H265.707ZM275.957 126.88C275.577 126.97 275.397 126.79 275.347 126.41C275.317 126.81 275.097 126.94 274.727 126.9C275.147 127.04 275.107 127.31 274.977 127.63C275.237 127.31 275.477 127.36 275.737 127.65C275.671 127.323 275.744 127.067 275.957 126.88ZM276.767 127.66C276.727 128.03 276.547 128.21 276.137 128.12C276.497 128.28 276.567 128.52 276.397 128.87C276.657 128.57 276.887 128.59 277.147 128.87C276.957 128.52 277.077 128.3 277.427 128.15C277.094 128.11 276.874 127.95 276.767 127.67V127.66ZM266.367 127.63C266.637 127.34 266.877 127.33 267.147 127.63C266.957 127.29 267.037 127.05 267.387 126.87C266.957 126.99 266.827 126.76 266.757 126.41C266.717 126.79 266.527 126.96 266.127 126.89C266.527 127.04 266.527 127.3 266.367 127.63Z" fill="#022765"/>
<path d="M262.407 130.78C268.077 130.78 273.747 130.78 279.417 130.78C279.507 130.78 279.597 130.78 279.687 130.78C279.767 130.78 279.847 130.78 279.937 130.78C282.007 130.78 284.077 130.78 286.137 130.78C292.627 130.78 299.117 130.78 305.607 130.78V132.55C305.527 132.55 305.447 132.55 305.357 132.55C291.127 132.55 276.887 132.55 262.657 132.55C262.577 132.55 262.497 132.55 262.407 132.55V130.78Z" fill="#FEFDFD"/>
<path d="M262.407 139.56C262.407 138.97 262.407 138.38 262.407 137.79C262.497 137.79 262.587 137.79 262.677 137.79C276.897 137.79 291.117 137.79 305.337 137.79C305.427 137.79 305.517 137.79 305.607 137.79V139.56C305.537 139.56 305.477 139.56 305.407 139.56C291.147 139.56 276.877 139.56 262.617 139.56C262.547 139.56 262.487 139.56 262.417 139.56H262.407Z" fill="#FEFDFD"/>
<path d="M262.407 139.56C262.477 139.56 262.537 139.56 262.607 139.56C276.867 139.56 291.137 139.56 305.397 139.56C305.467 139.56 305.527 139.56 305.597 139.56C305.597 140.11 305.597 140.66 305.597 141.21C305.597 141.31 305.577 141.34 305.477 141.32C305.447 141.32 305.417 141.32 305.387 141.32C291.127 141.32 276.857 141.32 262.597 141.32C262.427 141.32 262.387 141.28 262.387 141.11C262.397 140.59 262.387 140.07 262.387 139.55L262.407 139.56Z" fill="#E84723"/>
<path d="M305.607 137.8C305.517 137.8 305.427 137.8 305.337 137.8C291.117 137.8 276.897 137.8 262.677 137.8C262.587 137.8 262.497 137.8 262.407 137.8C262.407 137.21 262.407 136.62 262.407 136.03C262.487 136.03 262.567 136.05 262.647 136.05C276.887 136.05 291.117 136.05 305.357 136.05C305.437 136.05 305.517 136.04 305.597 136.03V137.8H305.607Z" fill="#E84723"/>
<path d="M262.407 132.55C262.487 132.55 262.567 132.55 262.657 132.55C276.887 132.55 291.127 132.55 305.357 132.55C305.437 132.55 305.517 132.55 305.607 132.55V134.32C305.517 134.32 305.427 134.31 305.337 134.31C291.117 134.31 276.897 134.31 262.677 134.31C262.587 134.31 262.497 134.31 262.407 134.32C262.407 133.73 262.407 133.14 262.407 132.55Z" fill="#E84723"/>
<path d="M262.407 134.31C262.497 134.31 262.587 134.3 262.677 134.3C276.897 134.3 291.117 134.3 305.337 134.3C305.427 134.3 305.517 134.3 305.607 134.31V136.03C305.527 136.03 305.447 136.05 305.367 136.05C291.127 136.05 276.897 136.05 262.657 136.05C262.577 136.05 262.497 136.04 262.417 136.03C262.417 135.46 262.417 134.88 262.417 134.31H262.407Z" fill="#FEFDFD"/>
<path d="M279.697 120.23C279.697 119.64 279.697 119.06 279.697 118.47C288.267 118.47 296.837 118.47 305.407 118.47C305.577 118.47 305.617 118.51 305.617 118.68C305.607 119.2 305.617 119.72 305.617 120.24C305.567 120.24 305.517 120.24 305.457 120.24C296.877 120.24 288.287 120.24 279.707 120.24L279.697 120.23Z" fill="#E84723"/>
<path d="M305.607 130.78C299.117 130.78 292.627 130.78 286.137 130.78C284.067 130.78 281.997 130.78 279.937 130.78C279.857 130.78 279.777 130.78 279.687 130.78C279.687 130.19 279.687 129.61 279.687 129.02C282.697 129.02 285.717 129.02 288.727 129.02C294.347 129.02 299.977 129.02 305.597 129.02V130.79L305.607 130.78Z" fill="#E84723"/>
<path d="M305.607 129.01C299.987 129.01 294.357 129.01 288.737 129.01C285.727 129.01 282.707 129.01 279.697 129.01C279.697 128.42 279.697 127.84 279.697 127.25C288.237 127.25 296.777 127.25 305.317 127.25C305.417 127.25 305.507 127.25 305.607 127.25V129.02V129.01Z" fill="#FEFDFD"/>
<path d="M305.607 127.25C305.507 127.25 305.417 127.25 305.317 127.25C296.777 127.25 288.237 127.25 279.697 127.25C279.697 126.66 279.697 126.08 279.697 125.49C288.277 125.49 296.867 125.49 305.447 125.49C305.497 125.49 305.547 125.49 305.607 125.48V127.25Z" fill="#E84723"/>
<path d="M279.697 123.75C279.697 123.16 279.697 122.58 279.697 121.99C288.237 121.99 296.777 121.99 305.317 121.99C305.417 121.99 305.507 121.99 305.607 121.99V123.76C305.527 123.76 305.447 123.74 305.367 123.74C304.667 123.74 303.957 123.74 303.257 123.74C295.407 123.74 287.557 123.74 279.707 123.74L279.697 123.75Z" fill="#E84723"/>
<path d="M305.607 122C305.507 122 305.417 122 305.317 122C296.777 122 288.237 122 279.697 122C279.697 121.41 279.697 120.83 279.697 120.24C288.277 120.24 296.867 120.24 305.447 120.24C305.497 120.24 305.547 120.24 305.607 120.24V122.01V122Z" fill="#FEFDFD"/>
<path d="M279.697 123.75C287.547 123.75 295.397 123.75 303.247 123.75C303.947 123.75 304.657 123.75 305.357 123.75C305.437 123.75 305.517 123.76 305.597 123.77V125.49C305.547 125.49 305.497 125.5 305.437 125.5C296.857 125.5 288.267 125.5 279.687 125.5C279.687 124.92 279.687 124.33 279.687 123.75H279.697Z" fill="#FEFDFD"/>
<path d="M264.697 125.66C265.004 125.633 265.217 125.457 265.337 125.13C265.377 125.54 265.547 125.73 265.927 125.66C265.817 125.75 265.667 125.83 265.607 125.94C265.547 126.06 265.687 126.2 265.697 126.37C265.567 126.28 265.447 126.14 265.327 126.15C265.197 126.15 265.077 126.29 264.887 126.42C265.107 126.06 265.067 125.81 264.697 125.66Z" fill="#FEFDFD"/>
<path d="M274.597 125.67C274.177 125.82 274.127 126.06 274.297 126.4C274.027 126.1 273.787 126.12 273.517 126.4C273.687 126.06 273.657 125.81 273.267 125.65C273.657 125.71 273.867 125.58 273.877 125.17C273.997 125.32 273.967 125.51 274.067 125.6C274.177 125.7 274.357 125.6 274.587 125.67H274.597Z" fill="#FEFDFD"/>
<path d="M277.427 125.64C277.277 125.76 277.107 125.84 277.067 125.95C277.027 126.07 277.127 126.23 277.167 126.4C277.027 126.3 276.907 126.16 276.777 126.16C276.657 126.16 276.537 126.3 276.357 126.42C276.547 126.07 276.507 125.81 276.137 125.65C276.537 125.72 276.727 125.57 276.747 125.14C276.881 125.467 277.104 125.633 277.417 125.64H277.427Z" fill="#FEFDFD"/>
<path d="M266.747 121.48C266.797 121.86 266.977 122.03 267.377 121.95C267.037 122.12 266.937 122.34 267.147 122.69C266.877 122.41 266.627 122.4 266.367 122.69C266.547 122.35 266.497 122.11 266.127 121.95C266.507 122.01 266.717 121.88 266.757 121.48H266.747Z" fill="#FEFDFD"/>
<path d="M274.717 121.96C275.127 122.04 275.287 121.85 275.347 121.48C275.397 121.86 275.587 122.03 275.977 121.96C275.607 122.12 275.547 122.36 275.737 122.7C275.467 122.44 275.227 122.37 274.967 122.72C275.107 122.38 275.127 122.12 274.717 121.97V121.96Z" fill="#FEFDFD"/>
<path d="M268.187 125.16C268.227 125.57 268.427 125.71 268.827 125.64C268.487 125.81 268.357 126.04 268.587 126.39C268.317 126.15 268.067 126.05 267.807 126.41C267.977 126.05 267.917 125.81 267.557 125.64C267.947 125.71 268.167 125.57 268.187 125.16Z" fill="#FEFDFD"/>
<path d="M273.527 121.46C273.727 121.11 273.637 120.88 273.277 120.7C273.677 120.78 273.877 120.63 273.907 120.23C273.967 120.6 274.137 120.8 274.547 120.7C274.207 120.88 274.097 121.11 274.297 121.46C274.027 121.17 273.787 121.17 273.517 121.46H273.527Z" fill="#FEFDFD"/>
<path d="M266.007 120.71C265.647 120.88 265.477 121.08 265.767 121.44C265.547 121.39 265.457 121.2 265.337 121.21C265.207 121.23 265.087 121.35 264.907 121.47C265.097 121.12 265.097 120.85 264.677 120.7C265.087 120.77 265.287 120.63 265.297 120.18C265.377 120.4 265.397 120.58 265.497 120.66C265.597 120.73 265.777 120.69 266.007 120.71Z" fill="#FEFDFD"/>
<path d="M267.557 120.71C267.937 120.78 268.147 120.65 268.177 120.24C268.247 120.61 268.417 120.8 268.817 120.69C268.487 120.88 268.357 121.1 268.587 121.46C268.317 121.16 268.067 121.16 267.797 121.46C267.967 121.12 267.927 120.87 267.557 120.71Z" fill="#FEFDFD"/>
<path d="M276.397 121.46C276.587 121.11 276.497 120.88 276.147 120.71C276.537 120.78 276.737 120.64 276.777 120.24C276.837 120.62 276.997 120.82 277.417 120.69C277.097 120.88 276.937 121.09 277.177 121.45C276.907 121.2 276.657 121.13 276.387 121.45L276.397 121.46Z" fill="#FEFDFD"/>
<path d="M264.247 122.69C264.197 122.65 264.137 122.61 264.087 122.56C263.957 122.43 263.827 122.41 263.687 122.56C263.647 122.61 263.587 122.65 263.487 122.61C263.737 122.29 263.547 122.11 263.257 121.94C263.637 122.02 263.837 121.87 263.877 121.48C263.937 121.85 264.107 122.04 264.477 121.92C264.477 121.96 264.477 121.98 264.477 121.98C264.197 122.11 264.087 122.31 264.257 122.6C264.267 122.62 264.257 122.65 264.237 122.68L264.247 122.69Z" fill="#FEFDFD"/>
<path d="M275.757 130.11C275.477 129.82 275.237 129.78 274.977 130.11C275.117 129.78 275.117 129.51 274.717 129.36C275.107 129.42 275.317 129.28 275.347 128.89C275.437 129.22 275.547 129.49 275.987 129.33C275.667 129.53 275.507 129.75 275.757 130.12V130.11Z" fill="#FEFDFD"/>
<path d="M267.147 130.1C266.877 129.78 266.637 129.83 266.367 130.1C266.537 129.76 266.497 129.51 266.117 129.35C266.517 129.42 266.707 129.27 266.747 128.88C266.817 129.23 266.947 129.47 267.387 129.33C267.067 129.52 266.927 129.74 267.137 130.1H267.147Z" fill="#FEFDFD"/>
<path d="M272.847 122.69C272.847 122.69 272.767 122.63 272.727 122.59C272.577 122.45 272.437 122.39 272.277 122.57C272.237 122.61 272.177 122.65 272.107 122.61C272.137 122.48 272.257 122.34 272.197 122.23C272.137 122.12 271.987 122.05 271.867 121.96C272.027 121.9 272.207 122.01 272.307 121.9C272.397 121.81 272.417 121.65 272.487 121.45C272.537 121.85 272.697 122.05 273.067 121.93C273.067 121.97 273.067 121.99 273.067 121.99C272.797 122.13 272.677 122.32 272.847 122.61C272.857 122.63 272.847 122.66 272.837 122.69H272.847Z" fill="#FEFDFD"/>
<path d="M274.957 125.17C275.137 124.82 275.077 124.58 274.707 124.41C275.107 124.49 275.307 124.33 275.347 123.94C275.407 124.31 275.577 124.52 275.997 124.4C275.637 124.58 275.547 124.82 275.747 125.17C275.477 124.87 275.227 124.88 274.967 125.17H274.957Z" fill="#FEFDFD"/>
<path d="M270.427 120.7C270.817 120.8 270.987 120.63 271.047 120.25C271.097 120.64 271.297 120.77 271.677 120.7C271.347 120.88 271.217 121.11 271.457 121.46C271.177 121.15 270.927 121.16 270.657 121.46C270.857 121.11 270.777 120.87 270.437 120.69L270.427 120.7Z" fill="#FEFDFD"/>
<path d="M269.247 122.68C269.397 122.35 269.367 122.11 268.987 121.95C269.367 122.01 269.577 121.86 269.627 121.48C269.667 121.87 269.857 122.02 270.247 121.94C269.947 122.1 269.807 122.3 269.987 122.65C269.717 122.38 269.487 122.41 269.247 122.67V122.68Z" fill="#FEFDFD"/>
<path d="M278.837 121.95C278.577 122.12 278.337 122.28 278.597 122.66C278.307 122.4 278.077 122.42 277.837 122.69C277.997 122.35 277.957 122.11 277.557 121.98C277.747 121.91 277.927 122 278.037 121.91C278.147 121.82 278.117 121.63 278.247 121.48C278.267 121.88 278.457 122.02 278.837 121.95Z" fill="#FEFDFD"/>
<path d="M267.137 125.19C266.887 124.88 266.637 124.85 266.377 125.17C266.527 124.83 266.517 124.57 266.117 124.42C266.507 124.47 266.727 124.35 266.757 123.93C266.807 124.32 266.987 124.49 267.397 124.37C267.287 124.54 267.107 124.57 267.047 124.7C266.987 124.84 267.127 124.98 267.137 125.19Z" fill="#FEFDFD"/>
<path d="M271.047 125.2C271.107 125.58 271.287 125.73 271.677 125.64C271.427 125.83 271.197 126 271.437 126.37C271.167 126.1 270.927 126.17 270.667 126.37C270.877 126.03 270.767 125.82 270.437 125.66C270.787 125.7 271.037 125.62 271.057 125.2H271.047Z" fill="#FEFDFD"/>
<path d="M270.277 119.43C270.127 119.61 269.917 119.65 269.897 119.79C269.877 119.92 269.967 120.07 269.997 120.24C269.747 119.94 269.497 119.92 269.227 120.24C269.367 119.91 269.397 119.63 269.007 119.48C269.147 119.48 269.327 119.52 269.427 119.45C269.527 119.38 269.547 119.19 269.627 118.99C269.657 119.41 269.847 119.57 270.267 119.44L270.277 119.43Z" fill="#FEFDFD"/>
<path d="M272.857 130.05C272.697 130.05 272.617 129.84 272.477 129.85C272.347 129.85 272.257 130.04 272.067 130.06C272.297 129.73 272.187 129.52 271.857 129.35C272.217 129.39 272.467 129.32 272.457 128.88C272.557 129.21 272.667 129.49 273.067 129.3C273.067 129.35 273.067 129.38 273.067 129.38C272.747 129.52 272.717 129.76 272.847 130.05H272.857Z" fill="#FEFDFD"/>
<path d="M264.257 130.05C264.257 130.05 264.227 130.06 264.217 130.05C263.967 129.79 263.737 129.81 263.487 130.11C263.657 129.77 263.637 129.51 263.247 129.34C263.627 129.4 263.827 129.27 263.867 128.88C263.947 129.22 264.097 129.44 264.467 129.31C264.467 129.35 264.467 129.38 264.467 129.38C264.147 129.52 264.127 129.76 264.247 130.05H264.257Z" fill="#FEFDFD"/>
<path d="M277.847 130.06C277.957 129.77 277.967 129.51 277.617 129.36C277.757 129.36 277.937 129.39 278.037 129.32C278.137 129.25 278.157 129.06 278.227 128.9C278.287 129.06 278.307 129.23 278.397 129.32C278.497 129.41 278.667 129.33 278.867 129.37C278.557 129.53 278.407 129.74 278.597 130.07C278.327 129.81 278.087 129.91 277.857 130.07L277.847 130.06Z" fill="#FEFDFD"/>
<path d="M269.247 130.06C269.357 129.77 269.367 129.51 269.017 129.35C269.157 129.35 269.337 129.38 269.437 129.31C269.537 129.24 269.557 129.05 269.637 128.85C269.667 129.26 269.837 129.45 270.247 129.31C270.137 129.49 269.957 129.52 269.897 129.65C269.837 129.78 270.007 129.91 269.957 130.06C269.717 129.8 269.477 129.91 269.237 130.06H269.247Z" fill="#FEFDFD"/>
<path d="M277.817 120.24C278.007 119.89 277.947 119.64 277.577 119.47C277.977 119.56 278.167 119.39 278.217 119.01C278.257 119.42 278.467 119.54 278.847 119.47C278.487 119.64 278.397 119.88 278.617 120.23C278.347 119.95 278.087 119.9 277.817 120.23V120.24Z" fill="#FEFDFD"/>
<path d="M266.117 119.47C266.527 119.57 266.697 119.38 266.727 118.95C266.807 119.16 266.827 119.33 266.917 119.42C267.017 119.52 267.197 119.43 267.397 119.48C267.057 119.64 266.917 119.86 267.107 120.2C266.987 120.12 266.867 119.98 266.747 119.98C266.627 119.98 266.517 120.12 266.367 120.21C266.547 119.88 266.477 119.64 266.117 119.47Z" fill="#FEFDFD"/>
<path d="M274.967 120.22C275.007 120.04 275.097 119.88 275.057 119.76C275.017 119.65 274.857 119.58 274.677 119.44C275.107 119.54 275.317 119.4 275.347 118.99C275.397 119.38 275.577 119.56 275.967 119.49C275.857 119.58 275.697 119.65 275.647 119.77C275.587 119.89 275.727 120.04 275.737 120.21C275.597 120.12 275.467 119.99 275.347 119.99C275.227 119.99 275.117 120.13 274.977 120.23L274.967 120.22Z" fill="#FEFDFD"/>
<path d="M272.857 120.18H272.837C272.587 119.93 272.347 119.94 272.087 120.23C272.267 119.89 272.237 119.64 271.847 119.47C272.227 119.53 272.447 119.41 272.477 119C272.537 119.39 272.717 119.56 273.107 119.45C272.807 119.64 272.707 119.87 272.857 120.18Z" fill="#FEFDFD"/>
<path d="M263.537 120.19C263.537 120.19 263.507 120.16 263.517 120.16C263.677 119.86 263.617 119.63 263.227 119.51C263.427 119.44 263.597 119.52 263.707 119.45C263.827 119.37 263.807 119.18 263.897 119C263.957 119.38 264.107 119.59 264.527 119.47C264.187 119.65 264.077 119.88 264.307 120.21C264.257 120.21 264.237 120.21 264.237 120.21C264.007 119.94 263.777 120 263.547 120.21L263.537 120.19Z" fill="#FEFDFD"/>
<path d="M264.257 125.12C264.097 125.11 264.017 124.9 263.877 124.92C263.757 124.94 263.647 125.06 263.487 125.17C263.537 124.99 263.637 124.83 263.597 124.72C263.557 124.6 263.387 124.53 263.217 124.39C263.617 124.48 263.847 124.38 263.877 123.96C263.947 124.32 264.117 124.52 264.507 124.4C264.217 124.59 264.097 124.82 264.257 125.13V125.12Z" fill="#FEFDFD"/>
<path d="M267.757 128.86C267.997 128.5 267.887 128.29 267.547 128.12C267.937 128.19 268.137 128.05 268.177 127.65C268.237 128.03 268.407 128.21 268.807 128.11C268.487 128.29 268.337 128.51 268.547 128.85C268.427 128.77 268.317 128.64 268.197 128.62C268.057 128.6 267.967 128.79 267.757 128.85V128.86Z" fill="#FEFDFD"/>
<path d="M269.247 125.12V125.1C269.377 124.8 269.357 124.56 268.977 124.42C269.367 124.48 269.577 124.34 269.627 123.94C269.667 124.34 269.867 124.48 270.247 124.4C269.937 124.57 269.797 124.78 269.997 125.12C269.727 124.86 269.487 124.95 269.247 125.12Z" fill="#FEFDFD"/>
<path d="M272.857 125.12C272.697 125.11 272.617 124.91 272.477 124.92C272.347 124.92 272.257 125.1 272.057 125.14C272.307 124.8 272.167 124.59 271.847 124.42C272.207 124.47 272.437 124.37 272.457 123.96C272.527 124.32 272.697 124.52 273.077 124.39C273.077 124.43 273.077 124.44 273.077 124.44C272.777 124.59 272.697 124.82 272.837 125.12H272.857Z" fill="#FEFDFD"/>
<path d="M277.847 125.12C277.827 124.97 277.997 124.83 277.917 124.69C277.857 124.58 277.707 124.51 277.587 124.4C277.967 124.49 278.157 124.34 278.207 123.95C278.257 124.33 278.437 124.51 278.847 124.4C278.517 124.58 278.397 124.79 278.577 125.12C278.307 124.85 278.067 124.95 277.837 125.12H277.847Z" fill="#FEFDFD"/>
<path d="M273.517 128.88C273.697 128.54 273.667 128.29 273.277 128.12C273.667 128.18 273.877 128.05 273.907 127.63C273.967 128.02 274.137 128.2 274.547 128.1C274.227 128.28 274.087 128.49 274.297 128.85C274.017 128.57 273.767 128.57 273.517 128.87V128.88Z" fill="#FEFDFD"/>
<path d="M270.437 128.11C270.807 128.2 270.997 128.05 271.047 127.66C271.097 128.06 271.297 128.2 271.687 128.12C271.347 128.28 271.247 128.51 271.447 128.83C271.257 128.8 271.177 128.59 271.027 128.63C270.907 128.66 270.797 128.78 270.657 128.88C270.757 128.58 270.687 128.323 270.447 128.11H270.437Z" fill="#FEFDFD"/>
<path d="M264.937 128.88C265.117 128.53 265.067 128.28 264.687 128.12C265.077 128.19 265.277 128.05 265.307 127.65C265.377 128.02 265.537 128.22 265.957 128.11C265.627 128.29 265.507 128.5 265.707 128.86C265.437 128.6 265.187 128.55 264.927 128.88H264.937Z" fill="#FEFDFD"/>
<path d="M276.767 122.7C276.837 123.09 277.007 123.27 277.407 123.17C277.057 123.34 276.967 123.58 277.167 123.92C276.897 123.66 276.657 123.61 276.387 123.92C276.537 123.59 276.537 123.32 276.127 123.19C276.507 123.22 276.757 123.15 276.757 122.7H276.767Z" fill="#FEFDFD"/>
<path d="M274.547 123.18C274.32 123.36 274.234 123.613 274.287 123.94C274.027 123.65 273.787 123.6 273.527 123.94C273.697 123.59 273.657 123.34 273.277 123.18C273.677 123.25 273.867 123.1 273.917 122.73C273.967 122.87 273.987 123.06 274.077 123.13C274.177 123.2 274.357 123.16 274.537 123.18H274.547Z" fill="#FEFDFD"/>
<path d="M268.817 123.18C268.477 123.35 268.377 123.57 268.587 123.92C268.317 123.65 268.067 123.63 267.807 123.92C268.007 123.57 267.907 123.34 267.567 123.18C267.947 123.24 268.177 123.13 268.187 122.69C268.237 123.1 268.437 123.25 268.827 123.18H268.817Z" fill="#FEFDFD"/>
<path d="M265.707 123.91C265.454 123.757 265.187 123.767 264.907 123.94C265.107 123.59 265.077 123.34 264.697 123.19C265.087 123.25 265.297 123.11 265.327 122.71C265.387 123.08 265.557 123.28 265.947 123.2C265.837 123.29 265.677 123.37 265.627 123.48C265.587 123.59 265.677 123.75 265.717 123.91H265.707Z" fill="#FEFDFD"/>
<path d="M275.957 126.88C275.744 127.073 275.671 127.33 275.737 127.65C275.477 127.36 275.237 127.31 274.977 127.63C275.107 127.31 275.147 127.04 274.727 126.9C275.107 126.94 275.327 126.81 275.347 126.41C275.407 126.78 275.577 126.97 275.957 126.88Z" fill="#FEFDFD"/>
<path d="M276.767 127.66C276.874 127.933 277.094 128.093 277.427 128.14C277.077 128.29 276.957 128.51 277.147 128.86C276.887 128.59 276.647 128.57 276.397 128.86C276.557 128.52 276.487 128.28 276.137 128.11C276.537 128.2 276.727 128.02 276.767 127.65V127.66Z" fill="#FEFDFD"/>
<path d="M270.697 123.92C270.637 123.84 270.697 123.76 270.727 123.69C270.797 123.53 270.777 123.41 270.607 123.33C270.547 123.3 270.497 123.25 270.377 123.16C270.777 123.24 271.017 123.14 271.047 122.72C271.087 123.12 271.307 123.25 271.647 123.17C271.647 123.21 271.647 123.22 271.647 123.22C271.367 123.36 271.257 123.56 271.417 123.86C271.417 123.88 271.407 123.91 271.397 123.94C271.177 123.74 270.944 123.737 270.697 123.93V123.92Z" fill="#FEFDFD"/>
<path d="M266.367 127.63C266.527 127.3 266.527 127.05 266.127 126.89C266.527 126.96 266.707 126.78 266.757 126.41C266.827 126.76 266.957 127 267.387 126.87C267.037 127.05 266.957 127.29 267.147 127.63C266.877 127.33 266.637 127.34 266.367 127.63Z" fill="#FEFDFD"/>
<path d="M264.247 127.63C264.034 127.45 263.774 127.457 263.467 127.65C263.657 127.31 263.657 127.05 263.257 126.9C263.637 126.96 263.837 126.82 263.877 126.43C263.967 126.75 264.077 127.03 264.507 126.86C264.227 127.07 264.087 127.27 264.267 127.57C264.267 127.58 264.257 127.61 264.247 127.63Z" fill="#FEFDFD"/>
<path d="M277.867 127.63C277.797 127.55 277.867 127.47 277.887 127.4C277.967 127.23 277.937 127.12 277.767 127.03C277.707 127 277.667 126.95 277.597 126.9C277.757 126.83 277.937 126.94 278.037 126.83C278.127 126.74 278.147 126.57 278.217 126.43C278.267 126.78 278.427 126.98 278.827 126.87C278.547 127.04 278.377 127.23 278.577 127.59C278.287 127.3 278.067 127.38 277.857 127.62L277.867 127.63Z" fill="#FEFDFD"/>
<path d="M272.837 127.63C272.837 127.63 272.737 127.56 272.697 127.52C272.557 127.39 272.427 127.35 272.287 127.51C272.247 127.56 272.177 127.6 272.107 127.56C272.137 127.43 272.267 127.29 272.197 127.17C272.137 127.06 271.997 127 271.857 126.9C272.027 126.89 272.207 126.92 272.307 126.85C272.407 126.78 272.417 126.6 272.497 126.42C272.557 126.78 272.707 127 273.087 126.88C273.067 126.93 273.067 126.95 273.067 126.95C272.817 127.08 272.687 127.25 272.857 127.54C272.877 127.57 272.877 127.61 272.847 127.64L272.837 127.63Z" fill="#FEFDFD"/>
<path d="M269.267 127.63C269.197 127.55 269.267 127.47 269.297 127.4C269.377 127.23 269.347 127.12 269.177 127.03C269.117 127 269.077 126.95 269.017 126.89C269.377 126.95 269.597 126.83 269.607 126.42C269.687 126.78 269.827 127 270.247 126.87C269.957 127.05 269.787 127.24 269.987 127.6C269.697 127.31 269.477 127.4 269.267 127.63Z" fill="#FEFDFD"/>
<path d="M263.537 120.19C263.537 120.19 263.527 120.21 263.517 120.22C263.517 120.22 263.517 120.2 263.517 120.19C263.527 120.19 263.537 120.19 263.547 120.19H263.537Z" fill="#FEFDFD"/>
<path d="M264.257 125.12C264.257 125.12 264.267 125.12 264.277 125.12C264.277 125.12 264.277 125.12 264.277 125.13C264.277 125.13 264.277 125.11 264.267 125.11L264.257 125.12Z" fill="#FEFDFD"/>
<path d="M264.237 127.62H264.247V127.63L264.237 127.62Z" fill="#FEFDFD"/>
<path d="M269.267 127.63L269.257 127.62L269.267 127.63Z" fill="#FEFDFD"/>
<path d="M272.837 127.62H272.847L272.837 127.63V127.62Z" fill="#FEFDFD"/>
<path d="M269.247 125.12C269.247 125.12 269.247 125.14 269.247 125.15C269.247 125.15 269.237 125.15 269.227 125.15C269.227 125.15 269.247 125.14 269.247 125.13V125.12Z" fill="#FEFDFD"/>
<path d="M277.837 125.12C277.837 125.12 277.837 125.14 277.837 125.15C277.837 125.15 277.827 125.15 277.817 125.15C277.817 125.15 277.837 125.14 277.837 125.13V125.12Z" fill="#FEFDFD"/>
<path d="M270.697 123.92C270.697 123.92 270.677 123.92 270.657 123.92C270.657 123.92 270.667 123.91 270.677 123.9C270.677 123.9 270.687 123.92 270.697 123.93V123.92Z" fill="#FEFDFD"/>
<path d="M264.257 130.06C264.257 130.06 264.267 130.06 264.277 130.07C264.277 130.07 264.277 130.07 264.277 130.08C264.277 130.08 264.277 130.06 264.277 130.05L264.257 130.06Z" fill="#FEFDFD"/>
<path d="M269.247 130.05C269.247 130.05 269.247 130.07 269.247 130.08C269.247 130.08 269.237 130.08 269.227 130.08C269.227 130.08 269.237 130.06 269.247 130.06V130.05Z" fill="#FEFDFD"/>
<path d="M272.847 125.12C272.847 125.12 272.857 125.12 272.867 125.12C272.867 125.12 272.867 125.12 272.867 125.13C272.867 125.13 272.867 125.11 272.857 125.11L272.847 125.12Z" fill="#FEFDFD"/>
<path d="M277.837 130.05C277.837 130.05 277.837 130.07 277.837 130.08C277.837 130.08 277.827 130.08 277.817 130.08L277.837 130.06V130.05Z" fill="#FEFDFD"/>
<path d="M272.837 122.69L272.847 122.68V122.69H272.837Z" fill="#FEFDFD"/>
<path d="M272.847 120.19C272.847 120.19 272.857 120.19 272.867 120.19C272.867 120.19 272.867 120.19 272.867 120.2C272.867 120.2 272.857 120.19 272.847 120.18V120.19Z" fill="#FEFDFD"/>
<path d="M271.397 123.93C271.397 123.93 271.417 123.91 271.427 123.9C271.427 123.9 271.427 123.9 271.427 123.91C271.417 123.91 271.407 123.91 271.387 123.92L271.397 123.93Z" fill="#FEFDFD"/>
<path d="M272.847 130.05C272.847 130.05 272.857 130.05 272.867 130.06C272.867 130.06 272.867 130.06 272.867 130.07C272.867 130.07 272.867 130.05 272.867 130.04L272.847 130.05Z" fill="#FEFDFD"/>
<path d="M308.117 123.43C308.117 126.27 305.837 128.58 303.037 128.58C300.237 128.58 297.957 126.28 297.957 123.43C297.957 121.27 300.877 116.14 302.297 113.78C302.657 113.18 303.427 113.18 303.787 113.78C305.197 116.14 308.127 121.27 308.127 123.43H308.117Z" fill="#6EAAEA"/>
<path d="M358.041 104.087L327 127.08L327 113.274L357.104 102.343C358.188 101.95 358.968 103.401 358.041 104.087Z" fill="black" fill-opacity="0.6"/>
<defs>
<filter id="filter0_f_468_6533" x="98" y="35" width="95" height="90" filterUnits="userSpaceOnUse" color-interpolation-filters="sRGB">
<feFlood flood-opacity="0" result="BackgroundImageFix"/>
<feBlend mode="normal" in="SourceGraphic" in2="BackgroundImageFix" result="shape"/>
<feGaussianBlur stdDeviation="1" result="effect1_foregroundBlur_468_6533"/>
</filter>
<filter id="filter1_d_468_6533" x="59" y="106" width="82" height="66" filterUnits="userSpaceOnUse" color-interpolation-filters="sRGB">
<feFlood flood-opacity="0" result="BackgroundImageFix"/>
<feColorMatrix in="SourceAlpha" type="matrix" values="0 0 0 0 0 0 0 0 0 0 0 0 0 0 0 0 0 0 127 0" result="hardAlpha"/>
<feOffset dx="4" dy="-4"/>
<feGaussianBlur stdDeviation="2"/>
<feComposite in2="hardAlpha" operator="out"/>
<feColorMatrix type="matrix" values="0 0 0 0 0 0 0 0 0 0 0 0 0 0 0 0 0 0 0.1 0"/>
<feBlend mode="normal" in2="BackgroundImageFix" result="effect1_dropShadow_468_6533"/>
<feBlend mode="normal" in="SourceGraphic" in2="effect1_dropShadow_468_6533" result="shape"/>
</filter>
<clipPath id="clip0_468_6533">
<rect width="52" height="40" fill="white" transform="translate(70 123)"/>
</clipPath>
<clipPath id="clip1_468_6533">
<rect width="34" height="40" fill="white" transform="translate(217 107)"/>
</clipPath>
</defs>
</svg>
