<svg width="724" height="620" viewBox="0 0 724 620" fill="none" xmlns="http://www.w3.org/2000/svg">
<path opacity="0.5" d="M359.451 203.44C359.451 203.38 359.421 203.32 359.371 203.28L358.541 202.44C358.541 202.44 358.461 202.38 358.411 202.37L355.681 201.78L355.771 199.48L355.611 196.84L354.941 192.44C354.941 192.44 354.912 192.35 354.882 192.31L353.971 191.2C353.971 191.2 353.901 191.14 353.861 191.12L349.781 189.66L347.382 188.21L345.471 186.47L342.242 179.1C342.242 179.1 342.211 179.05 342.191 179.02L340.151 176.93L339.061 175.32L339.501 174.56L341.291 170.4L344.882 165.58C344.882 165.58 344.911 165.53 344.921 165.5L345.861 162.43C345.861 162.43 345.871 162.38 345.871 162.35V159.97C345.871 159.97 345.871 159.91 345.861 159.89L344.921 156.95C344.921 156.95 344.881 156.88 344.861 156.85L343.311 155.27C343.311 155.27 343.202 155.2 343.132 155.19L341.201 155.08L339.352 154.49L337.981 152.86L337.882 150.86L338.171 147.79L337.882 144.57C337.882 144.57 337.881 144.52 337.861 144.5L336.822 141.8L336.382 139.65L336.921 136.73L338.151 133.48C338.151 133.48 338.171 133.4 338.171 133.36L337.992 131.52C337.982 131.42 337.912 131.33 337.822 131.3L335.811 130.55V125.82L339.011 124.32C339.101 124.28 339.161 124.18 339.161 124.08V121.65L341.201 117.88C341.201 117.88 341.221 117.83 341.231 117.8L341.901 114L341.981 111.08L342.651 106.4C342.651 106.4 342.651 106.32 342.641 106.29L342.091 104.46V98.17C342.091 98.11 342.071 98.06 342.041 98.01L341.371 97.08C341.321 97.01 341.231 96.97 341.151 96.97H337.311L334.901 95.51L331.391 92.1L328.831 90.51L327.561 89.93L327.031 87.8C327.031 87.8 327.012 87.74 326.992 87.71L325.481 85.51C325.481 85.51 325.431 85.45 325.401 85.43L323.902 84.55C323.902 84.55 323.852 84.53 323.832 84.52L321.712 84.01C321.662 84.01 321.622 84 321.572 84.01L319.962 84.5L318.292 84.14L316.142 82.84L310.362 80.55L309.042 78.84L306.892 76.55C306.892 76.55 306.792 76.47 306.722 76.47L303.382 76.23L301.021 76.65C300.911 76.67 300.822 76.76 300.812 76.87L300.582 78.17L299.792 78.97H298.282L296.632 78.38C296.632 78.38 296.572 78.36 296.542 78.36H294.771C294.771 78.36 294.721 78.36 294.701 78.36L292.341 78.96C292.341 78.96 292.252 79 292.212 79.04L290.012 81.43L284.732 86.09L281.932 86.82H279.922C279.842 86.82 279.752 86.86 279.712 86.93C279.662 87 279.642 87.09 279.672 87.17L280.852 90.78L280.942 93.77L277.642 94.4L276.492 94.27L277.112 94.12C277.172 94.11 277.212 94.08 277.252 94.04L277.862 93.35C277.932 93.26 277.942 93.14 277.892 93.03C277.822 92.93 277.731 92.88 277.591 92.91L274.102 93.81L271.312 94.25L262.802 97.3L261.021 97.08L255.711 95.15L252.731 93.15L250.632 91.32L249.551 88.66C249.551 88.66 249.511 88.58 249.481 88.55L248.361 87.62C248.361 87.62 248.261 87.56 248.211 87.56L246.481 87.44L244.332 87.62L242.771 86.89C242.771 86.89 242.721 86.87 242.701 86.87L241.141 86.59L239.371 85.03L238.601 82.8L237.882 79.52L237.501 74.37C237.501 74.28 237.441 74.2 237.361 74.15C237.281 74.11 237.181 74.11 237.101 74.15L236.551 74.45L235.571 74.35L234.582 73.98L233.451 72.82C233.451 72.82 233.401 72.78 233.371 72.76L232.201 72.22L231.571 71.23C231.571 71.23 231.512 71.16 231.472 71.14L229.891 70.34L230.251 69.82L232.632 68.22C232.732 68.15 232.771 68.03 232.731 67.91L231.571 64.44L231.722 62.17C231.722 62.07 231.681 61.98 231.591 61.92L228.911 60.23C228.851 60.19 228.771 60.18 228.701 60.2L224.781 61.26C224.781 61.26 224.711 61.29 224.691 61.31L222.691 62.86L221.292 64.61C221.292 64.61 221.261 64.65 221.251 64.68L220.251 67.21L218.622 69.43L217.061 69.65L216.201 69.8L212.772 69.65L210.632 69.35L208.321 68.69L203.471 60.85L201.402 58.1C201.342 58.02 201.242 58 201.152 58C201.062 58.01 200.981 58.07 200.941 58.16L199.531 61.28L199.291 62.29L197.122 63.7C197.032 63.76 196.992 63.86 197.001 63.96L197.222 65.5L198.342 68.36L198.581 73L198.531 76.11L198.892 78.78L198.342 82.21C198.322 82.31 198.372 82.41 198.452 82.47L200.552 83.91L202.312 86.73L203.272 95.14C203.272 95.14 203.292 95.2 203.302 95.23L204.861 98.24C204.861 98.24 204.902 98.3 204.922 98.32L206.712 99.84L207.741 103.65C207.741 103.65 207.772 103.72 207.792 103.75L209.372 105.62C209.372 105.62 209.452 105.69 209.512 105.71L213.131 106.58L214.831 106.66L214.111 107.53C214.111 107.53 214.071 107.58 214.061 107.61L213.261 110C213.261 110 213.241 110.09 213.261 110.15L213.991 113.25L212.622 115.11L210.582 118.76C210.582 118.76 210.542 118.85 210.552 118.91L210.611 120.04L209.472 120.54C209.422 120.57 209.372 120.61 209.342 120.67L208.781 121.78C208.781 121.78 208.762 121.83 208.752 121.86L208.142 126.34L207.741 127.28L207.312 127.59C207.232 127.64 207.191 127.74 207.201 127.83L207.481 130.45C207.481 130.51 207.512 130.57 207.552 130.61L208.481 131.57C208.541 131.63 208.621 131.65 208.691 131.65L209.892 131.55L210.382 132.78C210.382 132.78 210.411 132.84 210.441 132.86L211.432 133.91L212.382 136.03L212.491 137.94C212.491 138.03 212.542 138.11 212.622 138.15L214.511 139.3L216.741 141.06L218.701 142.99C218.701 142.99 218.741 143.03 218.761 143.04L220.481 143.93L222.471 144.48L223.681 146.07L224.741 148.66L226.001 150.81L226.841 153.2L226.292 157.8L226.181 161.38C226.181 161.48 226.231 161.57 226.321 161.62L228.271 162.74L228.711 166.07C228.711 166.07 228.731 166.14 228.751 166.17L229.611 167.65L230.681 168.92L233.841 171.64L234.461 172.09L234.781 172.24C234.851 172.28 234.951 172.28 235.021 172.24C235.091 172.2 235.151 172.13 235.161 172.04L235.361 170.64H236.361C236.441 170.64 236.512 170.61 236.562 170.55C236.612 170.49 236.642 170.42 236.632 170.34L236.501 169.21L236.882 168.34C236.912 168.28 236.912 168.21 236.882 168.15L236.551 167.19L237.071 166.8L238.211 167.08L238.821 167.77L239.011 169.37C239.011 169.37 239.032 169.43 239.042 169.46L239.761 170.92C239.761 170.92 239.811 170.99 239.841 171.01L240.961 171.84L241.382 172.6C241.412 172.65 241.461 172.69 241.521 172.72L242.301 173.02L242.582 173.43C242.632 173.5 242.712 173.54 242.792 173.54H242.801C242.881 173.54 242.961 173.5 243.001 173.45L244.091 172.14L245.771 171.41L246.391 171.89L246.941 172.95L247.121 174.22C247.121 174.22 247.141 174.29 247.161 174.32L248.821 177.01C248.821 177.01 248.872 177.07 248.902 177.09L250.132 177.92L250.771 179.44L251.441 181.97C251.441 181.97 251.481 182.06 251.511 182.1L254.481 185L255.042 187.48L256.421 190.45L257.571 194.34C257.571 194.34 257.601 194.4 257.621 194.42L258.911 196.08C258.911 196.08 258.951 196.13 258.981 196.15L260.402 197.02C260.402 197.02 260.481 197.05 260.521 197.06L263.032 197.24L264.962 197.89L267.172 199.32L268.482 200.84V201.5C268.482 201.55 268.491 201.6 268.521 201.64L269.812 203.71C269.842 203.76 269.882 203.8 269.942 203.82L274.862 205.67L275.882 206.35L275.902 206.54L275.822 206.49C275.722 206.41 275.572 206.45 275.482 206.54C275.392 206.63 275.392 206.78 275.472 206.88L276.912 208.74C276.962 208.81 277.042 208.84 277.122 208.84H278.242L280.312 208.48L282.521 208.91L283.482 209.96C283.482 209.96 283.562 210.02 283.612 210.04L285.841 210.61C285.841 210.61 285.922 210.62 285.972 210.61L287.771 210.22C287.771 210.22 287.832 210.2 287.862 210.18L290.332 208.53L291.762 208.46C291.762 208.46 291.852 208.44 291.892 208.42L293.172 207.67C293.172 207.67 293.232 207.62 293.252 207.59L294.142 206.28L297.062 205.25L300.201 203.83L301.292 203.94L302.701 204.54L304.951 206.12L306.042 208.82L306.771 213.18L308.052 216.5L309.332 218.76C309.382 218.84 309.462 218.89 309.542 218.9L312.252 219.13L313.962 219.77L317.132 220.19L319.832 220.25L321.762 220.98L323.582 222.34C323.652 222.39 323.732 222.42 323.822 222.38C323.902 222.36 323.962 222.3 323.992 222.23L324.271 221.56L324.802 221.3L326.531 222.02L329.371 222.65L334.681 223.02H334.701C334.771 223.02 334.842 222.99 334.882 222.95L335.712 222.16L336.661 223.32C336.661 223.32 336.731 223.39 336.781 223.4L339.391 224.35L341.382 224.84L343.671 225.12H343.701C343.701 225.12 343.791 225.11 343.831 225.09L344.801 224.56L345.102 224.64C345.182 224.67 345.261 224.65 345.331 224.6C345.401 224.55 345.441 224.48 345.441 224.4L345.541 221.82L345.921 219.78L347.541 214.67L348.882 212.75L350.801 210.96L352.841 210.21L355.141 209.05L356.941 208.78C357.001 208.77 357.051 208.74 357.091 208.7L359.271 206.39C359.271 206.39 359.312 206.34 359.322 206.31L359.721 205.37C359.721 205.37 359.752 205.28 359.742 205.24L359.551 203.43L359.451 203.44Z" fill="#FFCCBE"/>
<rect x="261.605" y="149.854" width="9.65334" height="9.65334" rx="4.82667" fill="white" stroke="black" stroke-width="1.93067"/>
<path d="M297.481 144.832V165.149H295.332V144.832H297.481ZM286.644 146.348C289.653 146.348 291.87 149.108 291.87 153.452C291.87 157.818 289.653 160.579 286.644 160.579C283.589 160.579 281.395 157.818 281.395 153.452C281.395 149.108 283.589 146.348 286.644 146.348ZM286.644 148.271C284.766 148.271 283.476 150.262 283.476 153.452C283.476 156.665 284.766 158.656 286.644 158.656C288.499 158.656 289.789 156.665 289.789 153.452C289.789 150.262 288.499 148.271 286.644 148.271ZM316.181 144.854V150.94H319.145V152.75H316.181V159.764H314.032V144.854H316.181ZM317.086 162.932V164.674H303.443V158.61H305.615V162.932H317.086ZM310.299 146.144V152.117H303.24V154.945C306.758 154.956 309.247 154.787 312.199 154.289L312.425 156.054C309.281 156.597 306.611 156.71 302.719 156.71H301.09V150.465H308.195V147.909H301.068V146.144H310.299Z" fill="#191414"/>
<circle cx="301.184" cy="222.027" r="15.4453" fill="#FF8474" fill-opacity="0.2" stroke="#02A39E" stroke-width="3.86133" stroke-dasharray="7.72 7.72"/>
<g filter="url(#filter0_d_593_14646)">
<rect x="115.84" y="222.027" width="139.008" height="108.332" rx="15.4453" fill="#02A39E" shape-rendering="crispEdges"/>
<rect x="114.875" y="221.061" width="140.939" height="110.263" rx="16.4107" stroke="#02A39E" stroke-width="1.93067" shape-rendering="crispEdges"/>
<g clip-path="url(#clip0_593_14646)">
<path d="M185.329 313.158C172.443 313.158 160.68 306.557 153.868 295.514C150.602 290.212 148.724 284.102 148.443 277.852L148.408 277.325C148.39 276.957 148.355 276.588 148.355 276.202C148.355 275.289 148.425 274.376 148.496 273.481C148.706 270.549 149.233 267.81 150.023 265.264C154.851 249.691 169.037 239.228 185.329 239.228C200.638 239.228 214.561 248.901 219.933 263.315L220.811 265.685H217.932L213.648 270.057L211.506 272.199L210.716 269.285C210.435 268.249 210.049 267.143 209.504 265.914C208.907 264.527 208.223 263.228 207.45 261.999L171.108 298.341C175.339 301.079 180.22 302.519 185.312 302.519C191.351 302.519 197.074 300.465 201.832 296.602C203.131 295.549 204.22 294.513 205.133 293.46L205.66 292.863H218.423L216.773 295.549C209.961 306.592 198.198 313.176 185.329 313.176V313.158ZM185.329 249.867C174.602 249.867 165.051 256.328 160.978 266.335C160.504 267.529 160.136 268.582 159.872 269.583C159.486 271.04 159.24 272.392 159.117 273.709C159.029 274.604 158.994 275.429 158.994 276.202C158.994 276.588 159.012 276.992 159.047 277.378C159.047 277.378 159.082 278.309 159.1 278.414C159.468 282.838 160.996 287.157 163.524 290.879L200.024 254.379C195.687 251.465 190.543 249.867 185.329 249.867Z" fill="#455A64"/>
<path d="M185.329 240.983C200.428 240.983 213.297 250.552 218.283 263.93H217.932C217.528 263.93 217.124 264.088 216.843 264.386L212.401 268.828C212.068 267.599 211.611 266.405 211.12 265.229C210.224 263.14 209.118 261.138 207.696 259.277L196.934 270.039L193.44 273.533L189.209 277.764L172.372 294.601L169.019 297.954L168.405 298.569C173.32 302.291 179.149 304.257 185.329 304.257C192.018 304.257 198.128 301.869 202.956 297.954C204.22 296.936 205.414 295.83 206.485 294.601H215.298C209.101 304.661 198.005 311.403 185.347 311.403C172.688 311.403 161.593 304.661 155.378 294.583C152.34 289.65 150.479 283.909 150.216 277.764C150.199 277.238 150.128 276.729 150.128 276.184C150.128 275.289 150.199 274.411 150.269 273.533C150.462 270.847 150.936 268.249 151.708 265.773C156.15 251.43 169.528 240.983 185.329 240.983ZM163.296 293.583L179.114 277.764L183.345 273.533L186.839 270.039L202.71 254.168C197.759 250.253 191.614 248.111 185.312 248.111C173.549 248.111 163.506 255.397 159.346 265.668C158.889 266.792 158.485 267.95 158.169 269.144C157.801 270.566 157.52 272.023 157.379 273.533C157.291 274.411 157.239 275.289 157.239 276.184C157.239 276.711 157.274 277.238 157.309 277.764C157.309 278.028 157.309 278.291 157.344 278.554C157.748 283.382 159.433 288.035 162.172 292.055C162.523 292.582 162.892 293.091 163.296 293.6M185.329 237.472C168.264 237.472 153.394 248.427 148.338 264.737C147.512 267.406 146.968 270.285 146.74 273.27V273.358C146.67 274.253 146.599 275.184 146.599 276.184C146.599 276.606 146.617 277.009 146.652 277.413C146.652 277.571 146.67 277.747 146.687 277.905C146.986 284.453 148.952 290.844 152.376 296.409C159.504 307.979 171.828 314.896 185.329 314.896C198.83 314.896 211.137 307.997 218.265 296.427L221.566 291.072H204.87L203.816 292.284C202.956 293.267 201.938 294.232 200.726 295.216C196.284 298.832 190.965 300.728 185.329 300.728C181.309 300.728 177.464 299.78 173.97 297.937L174.848 297.059L191.685 280.222L195.916 275.991L199.409 272.497L207.064 264.843C207.345 265.405 207.626 265.984 207.872 266.563C208.381 267.757 208.732 268.758 208.995 269.706L210.593 275.552L214.877 271.268L218.739 267.406H223.339L221.566 262.666C215.93 247.602 201.376 237.472 185.329 237.472ZM163.858 288.07C162.172 285.033 161.136 281.679 160.855 278.256C160.855 278.168 160.855 278.08 160.855 277.993C160.855 277.852 160.855 277.712 160.855 277.571V277.308C160.82 276.939 160.803 276.571 160.803 276.184C160.803 275.464 160.838 274.71 160.926 273.849C161.048 272.638 161.277 271.374 161.628 270.004C161.874 269.074 162.207 268.091 162.664 266.967C166.456 257.627 175.375 251.605 185.382 251.605C189.543 251.605 193.651 252.676 197.268 254.695L184.416 267.546L180.922 271.04L176.691 275.271L163.91 288.052L163.858 288.07Z" fill="#37474F"/>
<path d="M234.821 262.929C234.206 261.876 233.258 261.103 232.135 260.699L229.255 252.149C228.606 250.201 226.622 248.901 224.357 248.901H220.091C217.896 248.901 216.071 250.078 215.316 251.781C208.082 242.932 197.092 237.472 185.329 237.472C169.142 237.472 154.939 247.339 149.198 262.262H144.247C142.316 262.262 140.736 263.842 140.736 265.773V266.739C140.139 267.371 139.77 268.214 139.77 269.144V270.039C138.365 270.162 137.101 270.847 136.224 271.953C135.258 273.182 134.924 274.762 135.293 276.29L135.346 276.535L135.855 278.607C135.908 278.8 135.96 278.976 136.03 279.151L139.507 287.298C140.174 289.369 142.105 290.791 144.317 290.791H144.703L146.512 293.355C148.127 295.654 150.567 297.252 153.288 297.849C160.539 308.558 172.39 314.914 185.329 314.914C198.268 314.914 210.031 308.611 217.282 297.972C218.95 297.603 220.389 296.532 221.267 294.952C221.601 294.355 221.812 293.706 221.97 293.039C222.04 292.793 222.075 292.529 222.128 292.266C222.128 292.143 222.163 292.038 222.18 291.915C222.286 290.914 222.18 289.861 221.917 288.86C222.391 287.526 222.777 286.244 223.076 284.945L227.746 280.222C227.956 280.012 228.149 279.766 228.307 279.485L229.484 277.413L232.591 271.953L234.856 268.003C235.084 267.599 235.242 267.195 235.365 266.756C235.716 265.475 235.541 264.088 234.856 262.912L234.821 262.929ZM231.801 266.23L226.411 275.693L225.235 277.764L219.845 283.207L216.931 286.156C216.545 286.841 216.72 287.736 217.387 288.175C217.686 288.386 217.932 288.649 218.125 288.965C219.354 290.932 218.651 294.601 216.018 294.601H215.298C209.101 304.661 198.005 311.403 185.347 311.403C172.688 311.403 161.593 304.661 155.378 294.583C152.99 294.496 150.778 293.302 149.409 291.336L147.021 287.93C146.74 287.508 146.266 287.262 145.757 287.262H144.352C143.632 287.262 143.018 286.771 142.842 286.086L139.278 277.764L138.769 275.693L138.717 275.447C138.471 274.464 139.208 273.533 140.226 273.533H143.316V269.144H144.282V265.773H151.726C156.15 251.43 169.528 240.983 185.329 240.983C201.13 240.983 213.297 250.552 218.283 263.93H218.476V253.536C218.476 252.922 219.196 252.43 220.091 252.43H224.357C225.112 252.43 225.762 252.781 225.937 253.291L229.536 263.93H230.467C231.661 263.93 232.398 265.211 231.819 266.247L231.801 266.23Z" fill="#37474F"/>
<path d="M160.066 269.179H160.153V273.533H183.345L186.839 270.039H163.647V269.179C163.647 267.248 162.085 265.685 160.153 265.685H159.346C158.889 266.809 158.485 267.968 158.169 269.162H160.048V269.197L160.066 269.179Z" fill="#37474F"/>
<path d="M202.938 297.954C204.202 296.936 205.396 295.83 206.467 294.601H172.372L169.019 297.954H202.956H202.938Z" fill="#37474F"/>
<path d="M206.274 270.039H196.934L193.44 273.533H207.046C207.45 273.533 207.854 273.375 208.135 273.077L212.401 268.811C212.068 267.582 211.611 266.388 211.119 265.211L206.274 270.039Z" fill="#37474F"/>
<path d="M139.261 277.764L142.825 286.086C143.001 286.771 143.615 287.262 144.335 287.262H145.739C146.248 287.262 146.723 287.508 147.003 287.93L149.391 291.336C150.76 293.302 152.973 294.496 155.36 294.584C152.323 289.65 150.462 283.909 150.199 277.764H139.261Z" fill="#F77152"/>
<path d="M157.309 277.764C157.309 278.028 157.309 278.291 157.344 278.554C157.748 283.382 159.433 288.035 162.172 292.055C162.523 292.582 162.892 293.091 163.295 293.6L179.114 277.782H157.309V277.764Z" fill="#F77152"/>
<path d="M183.345 273.533H157.379C157.291 274.411 157.239 275.289 157.239 276.184C157.239 276.711 157.274 277.238 157.309 277.764H179.114L183.345 273.533Z" fill="#4F4543"/>
<path d="M230.449 263.93H217.932C217.528 263.93 217.124 264.088 216.843 264.386L212.401 268.828L208.135 273.094C207.837 273.393 207.45 273.551 207.047 273.551H193.44L189.209 277.782H225.217L226.394 275.71L231.784 266.247C232.381 265.211 231.626 263.93 230.432 263.93H230.449Z" fill="#4F4543"/>
<path d="M150.111 276.184C150.111 275.289 150.181 274.411 150.251 273.533H140.191C139.191 273.533 138.453 274.481 138.682 275.447L138.734 275.693L139.243 277.764H150.181C150.164 277.238 150.093 276.728 150.093 276.184H150.111Z" fill="#4F4543"/>
<path d="M225.937 253.291C225.762 252.781 225.112 252.43 224.357 252.43H220.091C219.196 252.43 218.476 252.922 218.476 253.536V263.93H229.536L225.937 253.291Z" fill="#DDDDDD"/>
<path d="M160.065 269.179V269.144H158.187C157.818 270.566 157.537 272.023 157.397 273.533H160.083V269.179H160.065Z" fill="#DDDDDD"/>
<path d="M151.691 265.773H144.247V269.144H143.281V273.533H150.251C150.444 270.847 150.918 268.249 151.691 265.773Z" fill="#DDDDDD"/>
<path d="M213.314 277.764H189.209L172.372 294.601H216C218.634 294.601 219.318 290.932 218.107 288.965C217.914 288.649 217.668 288.369 217.37 288.175C216.72 287.719 216.527 286.841 216.913 286.156L219.828 283.207L225.217 277.764H213.314Z" fill="#F77152"/>
</g>
</g>
<path d="M277.235 235.667L241.333 247.125L241.333 270.293L279.055 238.992C280.688 237.637 279.257 235.022 277.235 235.667Z" fill="#02A39E"/>
<rect x="400.925" y="192.72" width="230.375" height="84.7125" rx="12.55" fill="black" fill-opacity="0.6"/>
<path d="M424.27 211.048H426.221V222.136C426.221 225.117 424.463 226.79 421.76 226.79C419.187 226.79 417.321 225.311 417.321 222.908H419.229C419.229 224.217 420.302 225.075 421.76 225.075C423.369 225.075 424.27 224.067 424.27 222.136V211.048ZM435.989 221.793V214.93H437.812V226.576H435.989V224.603H435.861C435.303 225.782 434.166 226.726 432.408 226.726C430.198 226.726 428.633 225.289 428.633 222.329V214.93H430.477V222.201C430.477 223.874 431.528 224.946 433.008 224.946C434.316 224.946 435.989 223.959 435.989 221.793ZM446.465 217.954C446.208 216.989 445.478 216.345 444.106 216.345C442.669 216.345 441.639 217.117 441.639 218.104C441.639 218.876 442.261 219.412 443.634 219.734L445.371 220.163C447.452 220.656 448.481 221.686 448.481 223.316C448.481 225.332 446.83 226.812 443.913 226.812C441.296 226.812 439.73 225.654 439.43 223.53H441.36C441.575 224.667 442.411 225.203 443.87 225.203C445.521 225.203 446.572 224.517 446.572 223.423C446.572 222.608 445.993 222.05 444.663 221.75L442.905 221.343C440.867 220.871 439.795 219.756 439.795 218.211C439.795 216.217 441.532 214.78 444.106 214.78C446.508 214.78 448.031 216.067 448.267 217.954H446.465ZM455.182 214.93V216.474H452.737V223.23C452.737 224.731 453.466 224.967 454.26 224.967C454.603 224.967 455.075 224.946 455.354 224.924V226.64C455.075 226.683 454.603 226.726 454.067 226.726C452.522 226.726 450.871 225.761 450.871 223.702V216.474H449.112V214.93H450.871V212.142H452.737V214.93H455.182ZM466.589 214.93V216.474H464.144V223.23C464.144 224.731 464.873 224.967 465.667 224.967C466.01 224.967 466.482 224.946 466.761 224.924V226.64C466.482 226.683 466.01 226.726 465.474 226.726C463.93 226.726 462.278 225.761 462.278 223.702V216.474H460.519V214.93H462.278V212.142H464.144V214.93H466.589ZM467.628 223.273C467.628 220.592 469.987 219.991 472.003 219.841C472.743 219.788 474.63 219.691 475.156 219.67V218.726C475.156 217.246 474.277 216.388 472.518 216.388C471.038 216.388 470.159 217.075 469.901 217.954H467.971C468.207 216.088 470.03 214.78 472.604 214.78C474.126 214.78 476.979 215.23 476.979 218.898V226.576H475.156V224.989H475.07C474.684 225.782 473.612 226.855 471.596 226.855C469.387 226.855 467.628 225.546 467.628 223.273ZM469.472 223.359C469.472 224.581 470.502 225.203 471.917 225.203C473.998 225.203 475.156 223.809 475.156 222.351V221.171C474.609 221.214 472.775 221.353 472.218 221.386C470.545 221.493 469.472 222.093 469.472 223.359ZM479.154 226.576V211.048H480.999V220.077H481.213L486.254 214.93H488.527L483.616 219.906L488.892 226.576H486.554L482.243 221.085L480.999 222.222V226.576H479.154ZM494.113 226.812C490.745 226.812 488.665 224.431 488.665 220.849C488.665 217.268 490.767 214.78 493.941 214.78C496.386 214.78 498.96 216.281 498.96 220.592V221.364H490.509C490.595 223.831 492.032 225.182 494.113 225.182C495.507 225.182 496.386 224.581 496.815 223.852H498.788C498.231 225.611 496.515 226.812 494.113 226.812ZM490.531 219.798H497.094C497.094 217.847 495.85 216.41 493.941 216.41C491.925 216.41 490.638 217.997 490.531 219.798ZM505.305 226.576V214.93H507.15V226.576H505.305ZM506.228 212.999C505.52 212.999 504.941 212.463 504.941 211.777C504.941 211.091 505.52 210.554 506.228 210.554C506.935 210.554 507.536 211.091 507.536 211.777C507.536 212.463 506.935 212.999 506.228 212.999ZM514.387 214.93V216.474H511.942V223.23C511.942 224.731 512.671 224.967 513.465 224.967C513.808 224.967 514.28 224.946 514.559 224.924V226.64C514.28 226.683 513.808 226.726 513.272 226.726C511.727 226.726 510.076 225.761 510.076 223.702V216.474H508.317V214.93H510.076V212.142H511.942V214.93H514.387ZM518.407 225.139L516.734 230.973H515.147L516.326 225.139H518.407ZM525.546 230.951V214.93H527.326V216.774H527.541C527.927 216.152 528.656 214.78 530.908 214.78C533.825 214.78 535.862 217.096 535.862 220.785C535.862 224.474 533.825 226.812 530.929 226.812C528.699 226.812 527.927 225.439 527.541 224.796H527.39V230.951H525.546ZM527.348 220.742C527.348 223.359 528.527 225.16 530.672 225.16C532.881 225.16 534.018 223.23 534.018 220.742C534.018 218.319 532.903 216.431 530.672 216.431C528.484 216.431 527.348 218.168 527.348 220.742ZM537.48 226.576V214.93H539.26V216.71H539.389C539.818 215.53 541.019 214.737 542.392 214.737C542.67 214.737 543.142 214.758 543.357 214.78V216.646C543.228 216.603 542.713 216.517 542.241 216.517C540.569 216.517 539.325 217.675 539.325 219.241V226.576H537.48ZM548.749 226.812C545.575 226.812 543.43 224.431 543.43 220.806C543.43 217.182 545.575 214.78 548.749 214.78C551.902 214.78 554.025 217.182 554.025 220.806C554.025 224.431 551.902 226.812 548.749 226.812ZM548.749 225.182C551.087 225.182 552.181 223.123 552.181 220.806C552.181 218.49 551.087 216.41 548.749 216.41C546.369 216.41 545.275 218.49 545.275 220.806C545.275 223.123 546.369 225.182 548.749 225.182ZM560.748 214.93V216.474H558.303V223.23C558.303 224.731 559.032 224.967 559.826 224.967C560.169 224.967 560.641 224.946 560.919 224.924V226.64C560.641 226.683 560.169 226.726 559.633 226.726C558.088 226.726 556.437 225.761 556.437 223.702V216.474H554.678V214.93H556.437V212.142H558.303V214.93H560.748ZM567.106 226.812C563.738 226.812 561.658 224.431 561.658 220.849C561.658 217.268 563.76 214.78 566.934 214.78C569.379 214.78 571.953 216.281 571.953 220.592V221.364H563.502C563.588 223.831 565.025 225.182 567.106 225.182C568.5 225.182 569.379 224.581 569.808 223.852H571.781C571.224 225.611 569.508 226.812 567.106 226.812ZM563.524 219.798H570.087C570.087 217.847 568.843 216.41 566.934 216.41C564.918 216.41 563.631 217.997 563.524 219.798ZM578.332 226.812C575.029 226.812 573.013 224.302 573.013 220.806C573.013 217.268 575.115 214.78 578.289 214.78C580.777 214.78 582.621 216.238 582.922 218.447H581.077C580.82 217.375 579.876 216.41 578.332 216.41C576.251 216.41 574.857 218.126 574.857 220.742C574.857 223.445 576.209 225.16 578.332 225.16C579.705 225.16 580.756 224.431 581.077 223.144H582.922C582.621 225.225 580.927 226.812 578.332 226.812ZM589.494 214.93V216.474H587.049V223.23C587.049 224.731 587.778 224.967 588.572 224.967C588.915 224.967 589.387 224.946 589.666 224.924V226.64C589.387 226.683 588.915 226.726 588.379 226.726C586.834 226.726 585.183 225.761 585.183 223.702V216.474H583.424V214.93H585.183V212.142H587.049V214.93H589.494ZM595.818 226.576V214.93H597.662V226.576H595.818ZM596.74 212.999C596.032 212.999 595.453 212.463 595.453 211.777C595.453 211.091 596.032 210.554 596.74 210.554C597.448 210.554 598.049 211.091 598.049 211.777C598.049 212.463 597.448 212.999 596.74 212.999ZM604.9 214.93V216.474H602.455V223.23C602.455 224.731 603.184 224.967 603.977 224.967C604.32 224.967 604.792 224.946 605.071 224.924V226.64C604.792 226.683 604.32 226.726 603.784 226.726C602.24 226.726 600.589 225.761 600.589 223.702V216.474H598.83V214.93H600.589V212.142H602.455V214.93H604.9ZM608.919 225.139L607.247 230.973H605.659L606.839 225.139H608.919ZM425.449 253.793V246.93H427.272V258.576H425.449V256.603H425.321C424.763 257.782 423.626 258.726 421.867 258.726C419.658 258.726 418.093 257.289 418.093 254.329V246.93H419.937V254.201C419.937 255.874 420.988 256.946 422.468 256.946C423.776 256.946 425.449 255.959 425.449 253.793ZM435.925 249.954C435.668 248.989 434.938 248.345 433.566 248.345C432.129 248.345 431.099 249.117 431.099 250.104C431.099 250.876 431.721 251.412 433.094 251.734L434.831 252.163C436.912 252.656 437.941 253.686 437.941 255.316C437.941 257.332 436.29 258.812 433.373 258.812C430.756 258.812 429.19 257.654 428.89 255.53H430.82C431.035 256.667 431.871 257.203 433.33 257.203C434.981 257.203 436.032 256.517 436.032 255.423C436.032 254.608 435.453 254.05 434.123 253.75L432.365 253.343C430.327 252.871 429.255 251.756 429.255 250.211C429.255 248.217 430.992 246.78 433.566 246.78C435.968 246.78 437.491 248.067 437.727 249.954H435.925ZM444.449 258.812C441.082 258.812 439.001 256.431 439.001 252.849C439.001 249.268 441.103 246.78 444.277 246.78C446.722 246.78 449.296 248.281 449.296 252.592V253.364H440.846C440.931 255.831 442.368 257.182 444.449 257.182C445.843 257.182 446.722 256.581 447.151 255.852H449.125C448.567 257.611 446.851 258.812 444.449 258.812ZM440.867 251.798H447.43C447.43 249.847 446.186 248.41 444.277 248.41C442.261 248.41 440.974 249.997 440.867 251.798ZM455.642 258.576V246.93H457.486V258.576H455.642ZM456.564 244.999C455.856 244.999 455.277 244.463 455.277 243.777C455.277 243.091 455.856 242.554 456.564 242.554C457.272 242.554 457.872 243.091 457.872 243.777C457.872 244.463 457.272 244.999 456.564 244.999ZM464.723 246.93V248.474H462.278V255.23C462.278 256.731 463.007 256.967 463.801 256.967C464.144 256.967 464.616 256.946 464.895 256.924V258.64C464.616 258.683 464.144 258.726 463.608 258.726C462.064 258.726 460.412 257.761 460.412 255.702V248.474H458.653V246.93H460.412V244.142H462.278V246.93H464.723ZM476.259 246.93V248.474H473.685V258.576H471.819V248.474H469.953V246.93H471.819V245.343C471.819 243.455 473.085 242.319 475.144 242.319C475.594 242.319 476.13 242.383 476.516 242.447V244.099C476.13 244.034 475.787 244.013 475.551 244.013C474.264 244.013 473.685 244.549 473.685 245.75V246.93H476.259ZM481.93 258.812C478.756 258.812 476.611 256.431 476.611 252.806C476.611 249.182 478.756 246.78 481.93 246.78C485.083 246.78 487.207 249.182 487.207 252.806C487.207 256.431 485.083 258.812 481.93 258.812ZM481.93 257.182C484.268 257.182 485.362 255.123 485.362 252.806C485.362 250.49 484.268 248.41 481.93 248.41C479.55 248.41 478.456 250.49 478.456 252.806C478.456 255.123 479.55 257.182 481.93 257.182ZM488.846 258.576V246.93H490.626V248.71H490.755C491.184 247.53 492.385 246.737 493.757 246.737C494.036 246.737 494.508 246.758 494.722 246.78V248.646C494.594 248.603 494.079 248.517 493.607 248.517C491.934 248.517 490.69 249.675 490.69 251.241V258.576H488.846ZM501.647 262.951C501.24 262.951 500.853 262.93 500.618 262.908V261.257C500.811 261.278 501.24 261.3 501.518 261.3C502.269 261.3 502.891 261.235 503.513 259.541L503.856 258.662L499.545 246.93H501.561L504.735 256.174H504.864L508.038 246.93H510.055L505.122 260.249C504.435 262.072 503.298 262.951 501.647 262.951ZM515.64 258.812C512.466 258.812 510.321 256.431 510.321 252.806C510.321 249.182 512.466 246.78 515.64 246.78C518.793 246.78 520.916 249.182 520.916 252.806C520.916 256.431 518.793 258.812 515.64 258.812ZM515.64 257.182C517.978 257.182 519.072 255.123 519.072 252.806C519.072 250.49 517.978 248.41 515.64 248.41C513.259 248.41 512.166 250.49 512.166 252.806C512.166 255.123 513.259 257.182 515.64 257.182ZM529.912 253.793V246.93H531.735V258.576H529.912V256.603H529.783C529.226 257.782 528.089 258.726 526.33 258.726C524.121 258.726 522.556 257.289 522.556 254.329V246.93H524.4V254.201C524.4 255.874 525.451 256.946 526.931 256.946C528.239 256.946 529.912 255.959 529.912 253.793ZM533.911 258.576V246.93H535.691V248.71H535.819C536.248 247.53 537.449 246.737 538.822 246.737C539.101 246.737 539.573 246.758 539.787 246.78V248.646C539.659 248.603 539.144 248.517 538.672 248.517C536.999 248.517 535.755 249.675 535.755 251.241V258.576H533.911ZM547.282 249.954C547.024 248.989 546.295 248.345 544.922 248.345C543.485 248.345 542.456 249.117 542.456 250.104C542.456 250.876 543.078 251.412 544.451 251.734L546.188 252.163C548.268 252.656 549.298 253.686 549.298 255.316C549.298 257.332 547.646 258.812 544.729 258.812C542.113 258.812 540.547 257.654 540.247 255.53H542.177C542.392 256.667 543.228 257.203 544.687 257.203C546.338 257.203 547.389 256.517 547.389 255.423C547.389 254.608 546.81 254.05 545.48 253.75L543.721 253.343C541.684 252.871 540.611 251.756 540.611 250.211C540.611 248.217 542.349 246.78 544.922 246.78C547.325 246.78 548.847 248.067 549.083 249.954H547.282ZM555.806 258.812C552.438 258.812 550.358 256.431 550.358 252.849C550.358 249.268 552.46 246.78 555.634 246.78C558.079 246.78 560.653 248.281 560.653 252.592V253.364H552.202C552.288 255.831 553.725 257.182 555.806 257.182C557.2 257.182 558.079 256.581 558.508 255.852H560.481C559.924 257.611 558.208 258.812 555.806 258.812ZM552.224 251.798H558.787C558.787 249.847 557.543 248.41 555.634 248.41C553.618 248.41 552.331 249.997 552.224 251.798ZM564.115 243.048V258.576H562.271V243.048H564.115ZM575.856 246.93L571.545 258.576H569.636L565.347 246.93H567.363L570.537 256.174H570.666L573.84 246.93H575.856ZM581.571 258.812C578.203 258.812 576.123 256.431 576.123 252.849C576.123 249.268 578.225 246.78 581.399 246.78C583.844 246.78 586.418 248.281 586.418 252.592V253.364H577.967C578.053 255.831 579.49 257.182 581.571 257.182C582.965 257.182 583.844 256.581 584.273 255.852H586.246C585.688 257.611 583.973 258.812 581.571 258.812ZM577.989 251.798H584.552C584.552 249.847 583.308 248.41 581.399 248.41C579.383 248.41 578.096 249.997 577.989 251.798ZM594.513 249.954C594.255 248.989 593.526 248.345 592.153 248.345C590.716 248.345 589.687 249.117 589.687 250.104C589.687 250.876 590.309 251.412 591.682 251.734L593.419 252.163C595.499 252.656 596.529 253.686 596.529 255.316C596.529 257.332 594.877 258.812 591.96 258.812C589.344 258.812 587.778 257.654 587.478 255.53H589.408C589.623 256.667 590.459 257.203 591.918 257.203C593.569 257.203 594.62 256.517 594.62 255.423C594.62 254.608 594.041 254.05 592.711 253.75L590.952 253.343C588.915 252.871 587.842 251.756 587.842 250.211C587.842 248.217 589.58 246.78 592.153 246.78C594.556 246.78 596.078 248.067 596.314 249.954H594.513ZM599.455 258.705C598.704 258.705 598.061 258.083 598.082 257.311C598.061 256.56 598.704 255.938 599.455 255.938C600.206 255.938 600.828 256.56 600.828 257.311C600.828 258.083 600.206 258.705 599.455 258.705Z" fill="white"/>
<path d="M680.821 199.468L631.3 235.548L631.3 213.891L679.37 196.723C681.076 196.114 682.285 198.402 680.821 199.468Z" fill="black" fill-opacity="0.6"/>
<defs>
<filter id="filter0_d_593_14646" x="113.909" y="204.651" width="158.315" height="127.639" filterUnits="userSpaceOnUse" color-interpolation-filters="sRGB">
<feFlood flood-opacity="0" result="BackgroundImageFix"/>
<feColorMatrix in="SourceAlpha" type="matrix" values="0 0 0 0 0 0 0 0 0 0 0 0 0 0 0 0 0 0 127 0" result="hardAlpha"/>
<feOffset dx="7.72267" dy="-7.72267"/>
<feGaussianBlur stdDeviation="3.86133"/>
<feComposite in2="hardAlpha" operator="out"/>
<feColorMatrix type="matrix" values="0 0 0 0 0 0 0 0 0 0 0 0 0 0 0 0 0 0 0.1 0"/>
<feBlend mode="normal" in2="BackgroundImageFix" result="effect1_dropShadow_593_14646"/>
<feBlend mode="normal" in="SourceGraphic" in2="effect1_dropShadow_593_14646" result="shape"/>
</filter>
<clipPath id="clip0_593_14646">
<rect width="100.395" height="77.4417" fill="white" transform="translate(135.147 237.472)"/>
</clipPath>
</defs>
</svg>
