<svg width="375" height="220" viewBox="0 0 375 220" fill="none" xmlns="http://www.w3.org/2000/svg">
<g filter="url(#filter0_f_456_8166)" style="mix-blend-mode:multiply">
<path d="M97.2551 37.3979C98.0962 38.1938 98.9374 38.3229 99.0426 39.5705C99.4001 40.3233 100.599 40.3878 100.788 41.1192C100.998 41.9581 102.218 41.5064 102.765 42.2377C104.279 42.5819 105.856 42.6679 107.265 41.9151C108.001 40.4309 107.917 41.2268 108.99 39.7856C109.684 38.8176 110.987 39.1618 111.744 38.1723C112.838 37.9142 113.995 36.2579 114.857 37.9357C114.962 38.3229 114.857 38.6455 115.341 38.7101C115.446 39.4199 114.499 40.0867 115.13 40.775C116.35 41.5064 112.396 42.6894 115.383 43.2702C116.413 43.3132 116.203 44.9265 117.338 44.8405C118.074 44.7759 119.315 45.0771 118.747 46.045C119.105 49.6373 120.009 50.8849 123.773 50.9279C127.454 53.7242 131.617 57.1874 136.454 55.5956C138.179 55.2945 139.798 54.6062 141.586 54.4986C142.427 54.4556 145.665 55.2945 144.13 53.5091C143.731 50.5192 145.413 51.7238 147.306 51.2936C148.189 50.2826 148.883 49.1425 149.976 48.3036C151.28 46.3462 153.804 47.0345 155.717 47.2711C156.895 47.3572 156.517 46.9915 157.232 46.3247C157.883 45.7224 160.218 46.1741 160.87 46.4968C161.606 46.8624 161.206 47.2066 161.711 47.7013C162.258 48.2391 162.931 47.6583 163.54 47.8519C164.676 48.1961 165.496 49.4652 166.548 49.9169C168.314 50.3256 170.943 48.9274 172.142 50.7773C171.91 51.2075 172.751 51.8959 172.941 52.24C173.551 53.6597 175.212 52.8853 176.053 54.176C176.747 56.4991 179.123 55.3375 180.806 55.8753C182.131 58.9297 181.226 62.9521 180.974 66.2217C179.796 66.5229 180.469 67.5123 179.355 67.7705C178.282 68.3727 179.628 69.0611 179.67 69.6634C178.282 69.5773 177.588 70.0075 178.03 71.5133C177.799 72.0295 177.273 73.7503 178.198 73.8579C179.187 73.7073 181.016 74.6753 179.165 75.1915C177.883 76.1164 178.535 77.9233 178.787 79.3C179.691 81.408 178.997 83.9892 179.355 86.2048C181.268 86.8286 184.171 85.4734 184.234 88.0332C185.117 90.7865 181.563 92.2922 180.595 94.5293C179.208 95.024 179.88 96.0995 180.722 96.7663C182.467 98.9174 183.561 102.036 185.958 103.499C189.007 104.187 190.101 105.908 189.47 109.049C189.828 111.135 193.192 108.791 191.552 113.286C190.437 114.964 187.767 113.093 186.295 114.448C181.794 116.728 186.778 123.202 179.965 121.804C179.081 121.46 178.177 121.224 177.483 120.578C174.896 119.761 172.268 120.643 169.639 120.191C168.714 119.029 166.716 119.266 165.349 119.03C164.003 118.922 162.889 118.492 161.627 118.492C161.248 118.298 161.522 118.083 161.395 117.76C161.269 117.502 160.996 117.502 160.933 117.158C161.08 116.513 160.26 116.233 160.47 115.502C160.134 114.082 160.239 111.458 158.346 110.92C157.084 110.511 155.781 111.049 154.477 110.92C154.203 111.651 153.341 111.286 152.92 111.91C152.121 113.566 149.997 113.114 148.883 114.061C145.939 114.405 142.7 113.501 140.786 111.071C138.81 110.834 137.926 109.759 136.665 108.188C136.223 107.113 134.183 106.704 133.111 106.575C131.954 106.833 131.323 106.618 130.987 105.413C129.998 104.79 130.124 103.8 129.767 102.811C129.157 102.079 128.989 101.219 128.968 100.294C128.652 99.4766 127.306 99.8853 126.949 99.0249C127.412 96.8309 127.054 97.4332 125.771 95.8844C124.425 91.4963 122.638 95.8844 120.998 93.97C115.803 87.4954 120.808 100.638 115.235 92.2922C113.132 90.937 115.383 88.786 112.67 88.3988C112.565 84.6991 113.974 83.1503 110.335 80.397C108.212 80.397 107.433 77.8588 105.373 77.4071C104.784 77.2565 104.195 77.8158 104.111 77.0199C104.027 76.267 103.522 75.6862 103.48 74.8904C103.438 73.3416 101.461 73.105 100.767 71.8789C100.599 70.997 101.167 70.4162 101.671 69.8355C101.755 69.2332 101.482 69.5558 101.251 69.3192C99.6735 67.6199 101.692 68.2867 102.534 67.5984C102.344 63.3178 105.183 67.2542 104.111 62.1778C105.961 60.629 104.552 60.629 102.849 60.7796C101.945 60.5215 101.272 59.9192 100.578 59.3384C100.157 58.4995 100.578 57.381 99.4842 57.0368C99.2739 56.6926 99.5683 56.4776 99.4211 56.1549C98.5799 55.4881 97.6967 54.5416 97.6756 53.337C98.2645 52.0894 97.171 51.5302 96.7083 50.4762C96.5401 49.2716 96.2457 48.6048 95.1731 48.2176C95.1731 47.7014 95.4465 47.3357 95.2362 46.7764C95.3414 46.3032 96.0985 46.2817 95.9302 45.6579C95.2573 45.3137 95.7199 44.4748 95.2993 43.808C95.6148 42.5604 94.374 42.2162 94.1217 41.1622C94.7105 40.1512 93.0491 39.0112 94.9208 39.0757C96.9606 39.4844 94.353 35.7846 97.171 37.4194L97.2551 37.3979Z" fill="#FFCCBE"/>
</g>
<rect x="135.5" y="77.6177" width="5" height="5" rx="2.5" fill="white" stroke="black"/>
<path d="M154.082 74.6138V85.1372H152.969V74.6138H154.082ZM145.75 79.0786C145.75 76.8345 146.881 75.4048 148.469 75.3989C150.027 75.4048 151.176 76.8345 151.176 79.0786C151.176 81.3462 150.027 82.7759 148.469 82.77C146.881 82.7759 145.75 81.3462 145.75 79.0786ZM146.828 79.0786C146.822 80.7485 147.49 81.7739 148.469 81.7739C149.43 81.7739 150.098 80.7485 150.098 79.0786C150.098 77.4321 149.43 76.4009 148.469 76.395C147.49 76.4009 146.822 77.4321 146.828 79.0786ZM163.768 74.6255V77.7778H165.303V78.7153H163.768V82.3481H162.655V74.6255H163.768ZM155.94 76.2075V75.2935H160.721V78.3872H157.065V79.8521C158.887 79.8521 160.176 79.7759 161.705 79.5122L161.823 80.4263C160.199 80.7075 158.811 80.7603 156.795 80.7661H155.951V77.5317H159.631V76.2075H155.94ZM157.17 84.8911V81.7505H158.295V83.9888H164.237V84.8911H157.17Z" fill="#191414"/>
<circle cx="156" cy="115" r="8" fill="#FF8474" fill-opacity="0.2" stroke="#02A39E" stroke-width="2" stroke-dasharray="4 4"/>
<g filter="url(#filter1_d_456_8166)">
<rect x="60" y="115" width="72" height="56" rx="8" fill="#02A39E" shape-rendering="crispEdges"/>
<rect x="59.5" y="114.5" width="73" height="57" rx="8.5" stroke="#02A39E" shape-rendering="crispEdges"/>
<g clip-path="url(#clip0_456_8166)">
<path d="M95.9924 162.093C89.3178 162.093 83.2252 158.683 79.6969 152.98C78.0055 150.241 77.0325 147.085 76.887 143.857L76.8688 143.585C76.8597 143.394 76.8416 143.204 76.8416 143.005C76.8416 142.533 76.8779 142.061 76.9143 141.599C77.0234 140.085 77.2962 138.67 77.7054 137.355C80.2061 129.311 87.5537 123.907 95.9924 123.907C103.922 123.907 111.133 128.903 113.916 136.348L114.37 137.573H112.879L110.66 139.831L109.551 140.937L109.142 139.432C108.996 138.897 108.796 138.325 108.514 137.691C108.205 136.974 107.85 136.303 107.45 135.668L88.6267 154.44C90.8182 155.854 93.3462 156.598 95.9833 156.598C99.1115 156.598 102.076 155.537 104.54 153.542C105.213 152.998 105.777 152.463 106.25 151.919L106.523 151.61H113.134L112.279 152.998C108.751 158.702 102.658 162.102 95.9924 162.102V162.093ZM95.9924 129.402C90.4363 129.402 85.4895 132.739 83.3798 137.908C83.1342 138.525 82.9433 139.069 82.8069 139.586C82.6068 140.338 82.4795 141.037 82.4159 141.717C82.3704 142.179 82.3522 142.606 82.3522 143.005C82.3522 143.204 82.3613 143.413 82.3795 143.612C82.3795 143.612 82.3977 144.093 82.4068 144.147C82.5977 146.432 83.3889 148.663 84.6983 150.586L103.604 131.733C101.358 130.227 98.6932 129.402 95.9924 129.402Z" fill="#455A64"/>
<path d="M95.9924 124.814C103.813 124.814 110.478 129.756 113.061 136.666H112.879C112.67 136.666 112.461 136.747 112.315 136.902L110.015 139.196C109.842 138.561 109.605 137.944 109.351 137.337C108.887 136.258 108.314 135.224 107.577 134.263L102.003 139.822L100.194 141.626L98.002 143.812L89.2814 152.508L87.5445 154.24L87.2262 154.557C89.7724 156.48 92.7914 157.496 95.9924 157.496C99.457 157.496 102.622 156.262 105.122 154.24C105.777 153.714 106.395 153.143 106.95 152.508H111.515C108.305 157.704 102.558 161.186 96.0014 161.186C89.445 161.186 83.698 157.704 80.4789 152.499C78.9057 149.951 77.9418 146.985 77.8054 143.812C77.7963 143.54 77.7599 143.277 77.7599 142.995C77.7599 142.533 77.7963 142.08 77.8327 141.626C77.9327 140.239 78.1782 138.897 78.5783 137.618C80.879 130.209 87.8082 124.814 95.9924 124.814ZM84.58 151.982L92.7733 143.812L94.9648 141.626L96.7744 139.822L104.995 131.624C102.431 129.602 99.2478 128.495 95.9833 128.495C89.8906 128.495 84.6892 132.259 82.534 137.564C82.2976 138.144 82.0884 138.742 81.9247 139.359C81.7338 140.094 81.5883 140.846 81.5155 141.626C81.4701 142.08 81.4428 142.533 81.4428 142.995C81.4428 143.268 81.461 143.54 81.4792 143.812C81.4792 143.948 81.4792 144.084 81.4973 144.22C81.7065 146.713 82.5795 149.117 83.998 151.193C84.1799 151.465 84.3709 151.728 84.58 151.991M95.9924 123C87.1535 123 79.4513 128.659 76.8324 137.083C76.405 138.461 76.1231 139.949 76.0049 141.49V141.535C75.9685 141.998 75.9321 142.479 75.9321 142.995C75.9321 143.213 75.9412 143.422 75.9594 143.63C75.9594 143.712 75.9685 143.803 75.9776 143.884C76.1322 147.267 77.1507 150.567 78.9239 153.442C82.6158 159.418 88.9995 162.991 95.9924 162.991C102.985 162.991 109.36 159.427 113.052 153.451L114.761 150.685H106.113L105.568 151.311C105.122 151.819 104.595 152.318 103.967 152.825C101.667 154.693 98.9114 155.673 95.9924 155.673C93.9099 155.673 91.9185 155.183 90.1089 154.231L90.5635 153.778L99.2842 145.081L101.476 142.896L103.285 141.091L107.25 137.137C107.396 137.428 107.541 137.727 107.668 138.026C107.932 138.643 108.114 139.16 108.25 139.649L109.078 142.669L111.297 140.456L113.297 138.461H115.68L114.761 136.013C111.842 128.232 104.304 123 95.9924 123ZM84.871 149.135C83.998 147.566 83.4615 145.834 83.316 144.066C83.316 144.02 83.316 143.975 83.316 143.929C83.316 143.857 83.316 143.784 83.316 143.712V143.576C83.2979 143.385 83.2888 143.195 83.2888 142.995C83.2888 142.624 83.3069 142.234 83.3524 141.789C83.4161 141.164 83.5343 140.511 83.7162 139.803C83.8435 139.323 84.0162 138.815 84.2527 138.235C86.2169 133.41 90.8363 130.3 96.0196 130.3C98.1748 130.3 100.303 130.853 102.176 131.896L95.5195 138.534L93.7099 140.338L91.5184 142.524L84.8983 149.126L84.871 149.135Z" fill="#37474F"/>
<path d="M121.627 136.149C121.309 135.605 120.818 135.206 120.236 134.997L118.744 130.581C118.408 129.574 117.38 128.903 116.207 128.903H113.997C112.861 128.903 111.915 129.511 111.524 130.391C107.777 125.82 102.085 123 95.9923 123C87.6081 123 80.2515 128.096 77.2779 135.804H74.7135C73.7133 135.804 72.8948 136.62 72.8948 137.618V138.117C72.5857 138.443 72.3947 138.878 72.3947 139.359V139.822C71.6672 139.885 71.0125 140.239 70.5578 140.81C70.0577 141.445 69.8849 142.261 70.0759 143.05L70.1031 143.177L70.3669 144.247C70.3941 144.347 70.4214 144.437 70.4578 144.528L72.2583 148.736C72.6039 149.806 73.6041 150.54 74.7499 150.54H74.95L75.8866 151.864C76.7232 153.052 77.9872 153.877 79.3967 154.186C83.1523 159.717 89.2904 163 95.9923 163C102.694 163 108.787 159.745 112.542 154.249C113.406 154.059 114.152 153.506 114.607 152.689C114.779 152.381 114.889 152.046 114.97 151.701C115.007 151.574 115.025 151.438 115.052 151.302C115.052 151.238 115.07 151.184 115.08 151.121C115.134 150.604 115.08 150.06 114.943 149.543C115.189 148.854 115.389 148.192 115.543 147.521L117.962 145.081C118.071 144.972 118.171 144.845 118.253 144.7L118.862 143.63L120.472 140.81L121.645 138.77C121.763 138.561 121.845 138.353 121.909 138.126C122.091 137.464 122 136.747 121.645 136.14L121.627 136.149ZM120.063 137.854L117.271 142.742L116.662 143.812L113.87 146.623L112.361 148.146C112.161 148.5 112.251 148.962 112.597 149.189C112.752 149.298 112.879 149.434 112.979 149.597C113.615 150.613 113.252 152.508 111.888 152.508H111.515C108.305 157.704 102.558 161.186 96.0014 161.186C89.445 161.186 83.6979 157.704 80.4788 152.499C79.2421 152.454 78.0963 151.837 77.387 150.821L76.1503 149.062C76.0048 148.844 75.7593 148.718 75.4956 148.718H74.7681C74.3953 148.718 74.077 148.464 73.9861 148.11L72.1401 143.812L71.8764 142.742L71.8491 142.615C71.7218 142.107 72.1037 141.626 72.6311 141.626H74.2316V139.359H74.7317V137.618H78.5874C80.8789 130.209 87.8082 124.814 95.9923 124.814C104.176 124.814 110.478 129.756 113.061 136.666H113.161V131.297C113.161 130.98 113.534 130.726 113.997 130.726H116.207C116.598 130.726 116.935 130.908 117.026 131.17L118.89 136.666H119.372C119.99 136.666 120.372 137.328 120.072 137.863L120.063 137.854Z" fill="#37474F"/>
<path d="M82.9069 139.377H82.9524V141.626H94.9649L96.7745 139.822H84.762V139.377C84.762 138.38 83.9527 137.573 82.9524 137.573H82.5341C82.2976 138.153 82.0885 138.752 81.9248 139.368H82.8978V139.386L82.9069 139.377Z" fill="#37474F"/>
<path d="M105.113 154.24C105.768 153.714 106.386 153.143 106.941 152.508H89.2813L87.5444 154.24H105.122H105.113Z" fill="#37474F"/>
<path d="M106.841 139.822H102.003L100.193 141.626H107.241C107.45 141.626 107.659 141.545 107.805 141.39L110.014 139.187C109.842 138.552 109.605 137.935 109.35 137.328L106.841 139.822Z" fill="#37474F"/>
<path d="M72.1311 143.812L73.9771 148.11C74.068 148.464 74.3863 148.718 74.7591 148.718H75.4866C75.7503 148.718 75.9958 148.844 76.1413 149.062L77.378 150.821C78.0873 151.837 79.2331 152.454 80.4698 152.499C78.8967 149.951 77.9327 146.985 77.7963 143.812H72.1311Z" fill="#F77152"/>
<path d="M81.479 143.812C81.479 143.948 81.479 144.084 81.4972 144.22C81.7063 146.713 82.5793 149.117 83.9979 151.193C84.1798 151.465 84.3707 151.728 84.5799 151.991L92.7731 143.821H81.479V143.812Z" fill="#F77152"/>
<path d="M94.9649 141.626H81.5156C81.4702 142.08 81.4429 142.533 81.4429 142.995C81.4429 143.268 81.4611 143.54 81.4792 143.812H92.7734L94.9649 141.626Z" fill="#4F4543"/>
<path d="M119.363 136.666H112.879C112.67 136.666 112.461 136.747 112.315 136.902L110.014 139.196L107.805 141.399C107.65 141.554 107.45 141.635 107.241 141.635H100.193L98.002 143.821H116.653L117.262 142.751L120.054 137.863C120.363 137.328 119.972 136.666 119.353 136.666H119.363Z" fill="#4F4543"/>
<path d="M77.7508 142.995C77.7508 142.533 77.7872 142.08 77.8235 141.626H72.613C72.0946 141.626 71.7127 142.116 71.8309 142.615L71.8582 142.742L72.1219 143.812H77.7872C77.7781 143.54 77.7417 143.277 77.7417 142.995H77.7508Z" fill="#4F4543"/>
<path d="M117.025 131.17C116.934 130.907 116.598 130.726 116.207 130.726H113.997C113.533 130.726 113.161 130.98 113.161 131.297V136.666H118.89L117.025 131.17Z" fill="#DDDDDD"/>
<path d="M82.9066 139.377V139.359H81.9336C81.7427 140.094 81.5972 140.846 81.5244 141.626H82.9157V139.377H82.9066Z" fill="#DDDDDD"/>
<path d="M78.5692 137.618H74.7135V139.359H74.2134V141.626H77.8235C77.9235 140.239 78.169 138.897 78.5692 137.618Z" fill="#DDDDDD"/>
<path d="M110.487 143.812H98.0019L89.2812 152.508H111.879C113.243 152.508 113.597 150.613 112.97 149.597C112.87 149.434 112.742 149.289 112.588 149.189C112.251 148.953 112.151 148.5 112.351 148.146L113.861 146.623L116.653 143.812H110.487Z" fill="#F77152"/>
</g>
</g>
<path d="M143.596 122.065L125 128L125 140L144.538 123.787C145.384 123.086 144.643 121.731 143.596 122.065Z" fill="#02A39E"/>
<rect x="204" y="101.779" width="120" height="54" rx="8" fill="black" fill-opacity="0.6"/>
<path d="M215.094 123.779V113.88H221.096V114.974H216.324V118.283H220.781V119.363H216.324V122.685H221.164V123.779H215.094ZM227.076 120.73V116.355H228.238V123.779H227.076V122.521H226.994C226.639 123.273 225.914 123.874 224.793 123.874C223.385 123.874 222.387 122.958 222.387 121.072V116.355H223.562V120.99C223.562 122.056 224.232 122.74 225.176 122.74C226.01 122.74 227.076 122.111 227.076 120.73ZM229.625 123.779V116.355H230.76V117.49H230.842C231.115 116.738 231.881 116.232 232.756 116.232C232.934 116.232 233.234 116.246 233.371 116.259V117.449C233.289 117.421 232.961 117.367 232.66 117.367C231.594 117.367 230.801 118.105 230.801 119.103V123.779H229.625ZM236.809 123.929C234.785 123.929 233.418 122.412 233.418 120.101C233.418 117.79 234.785 116.259 236.809 116.259C238.818 116.259 240.172 117.79 240.172 120.101C240.172 122.412 238.818 123.929 236.809 123.929ZM236.809 122.89C238.299 122.89 238.996 121.578 238.996 120.101C238.996 118.624 238.299 117.298 236.809 117.298C235.291 117.298 234.594 118.624 234.594 120.101C234.594 121.578 235.291 122.89 236.809 122.89ZM241.217 126.568V116.355H242.352V117.531H242.488C242.734 117.134 243.199 116.259 244.635 116.259C246.494 116.259 247.793 117.736 247.793 120.087C247.793 122.439 246.494 123.929 244.648 123.929C243.227 123.929 242.734 123.054 242.488 122.644H242.393V126.568H241.217ZM242.365 120.06C242.365 121.728 243.117 122.876 244.484 122.876C245.893 122.876 246.617 121.646 246.617 120.06C246.617 118.515 245.906 117.312 244.484 117.312C243.09 117.312 242.365 118.419 242.365 120.06ZM251.941 123.929C249.795 123.929 248.469 122.412 248.469 120.128C248.469 117.845 249.809 116.259 251.832 116.259C253.391 116.259 255.031 117.216 255.031 119.964V120.456H249.645C249.699 122.029 250.615 122.89 251.941 122.89C252.83 122.89 253.391 122.507 253.664 122.042H254.922C254.566 123.164 253.473 123.929 251.941 123.929ZM249.658 119.458H253.842C253.842 118.214 253.049 117.298 251.832 117.298C250.547 117.298 249.727 118.31 249.658 119.458ZM262.316 116.355V117.339H260.758V121.646C260.758 122.603 261.223 122.753 261.729 122.753C261.947 122.753 262.248 122.74 262.426 122.726V123.82C262.248 123.847 261.947 123.874 261.605 123.874C260.621 123.874 259.568 123.259 259.568 121.947V117.339H258.447V116.355H259.568V114.578H260.758V116.355H262.316ZM266.287 123.929C264.264 123.929 262.896 122.412 262.896 120.101C262.896 117.79 264.264 116.259 266.287 116.259C268.297 116.259 269.65 117.79 269.65 120.101C269.65 122.412 268.297 123.929 266.287 123.929ZM266.287 122.89C267.777 122.89 268.475 121.578 268.475 120.101C268.475 118.624 267.777 117.298 266.287 117.298C264.77 117.298 264.072 118.624 264.072 120.101C264.072 121.578 264.77 122.89 266.287 122.89ZM277.838 118.283C277.674 117.667 277.209 117.257 276.334 117.257C275.418 117.257 274.762 117.749 274.762 118.378C274.762 118.871 275.158 119.212 276.033 119.417L277.141 119.691C278.467 120.005 279.123 120.662 279.123 121.701C279.123 122.986 278.07 123.929 276.211 123.929C274.543 123.929 273.545 123.191 273.354 121.837H274.584C274.721 122.562 275.254 122.904 276.184 122.904C277.236 122.904 277.906 122.466 277.906 121.769C277.906 121.249 277.537 120.894 276.689 120.703L275.568 120.443C274.27 120.142 273.586 119.431 273.586 118.447C273.586 117.175 274.693 116.259 276.334 116.259C277.865 116.259 278.836 117.08 278.986 118.283H277.838ZM283.271 123.929C281.125 123.929 279.799 122.412 279.799 120.128C279.799 117.845 281.139 116.259 283.162 116.259C284.721 116.259 286.361 117.216 286.361 119.964V120.456H280.975C281.029 122.029 281.945 122.89 283.271 122.89C284.16 122.89 284.721 122.507 284.994 122.042H286.252C285.896 123.164 284.803 123.929 283.271 123.929ZM280.988 119.458H285.172C285.172 118.214 284.379 117.298 283.162 117.298C281.877 117.298 281.057 118.31 280.988 119.458ZM288.568 119.322V123.779H287.393V116.355H288.527V117.517H288.623C288.979 116.765 289.662 116.259 290.797 116.259C292.301 116.259 293.299 117.175 293.299 119.062V123.779H292.123V119.144C292.123 117.996 291.494 117.312 290.441 117.312C289.361 117.312 288.568 118.037 288.568 119.322ZM297.488 123.929C295.643 123.929 294.33 122.439 294.33 120.087C294.33 117.736 295.643 116.259 297.502 116.259C298.938 116.259 299.402 117.134 299.648 117.531H299.73V113.88H300.92V123.779H299.771V122.644H299.648C299.389 123.054 298.91 123.929 297.488 123.929ZM297.652 122.876C299.006 122.876 299.771 121.728 299.771 120.06C299.771 118.419 299.033 117.312 297.652 117.312C296.23 117.312 295.52 118.515 295.52 120.06C295.52 121.646 296.244 122.876 297.652 122.876ZM219.072 138.283C218.908 137.667 218.443 137.257 217.568 137.257C216.652 137.257 215.996 137.749 215.996 138.378C215.996 138.871 216.393 139.212 217.268 139.417L218.375 139.691C219.701 140.005 220.357 140.662 220.357 141.701C220.357 142.986 219.305 143.929 217.445 143.929C215.777 143.929 214.779 143.191 214.588 141.837H215.818C215.955 142.562 216.488 142.904 217.418 142.904C218.471 142.904 219.141 142.466 219.141 141.769C219.141 141.249 218.771 140.894 217.924 140.703L216.803 140.443C215.504 140.142 214.82 139.431 214.82 138.447C214.82 137.175 215.928 136.259 217.568 136.259C219.1 136.259 220.07 137.08 220.221 138.283H219.072ZM222.564 139.322V143.779H221.389V133.88H222.564V137.517H222.66C223.002 136.751 223.672 136.259 224.848 136.259C226.365 136.259 227.377 137.162 227.377 139.062V143.779H226.201V139.144C226.201 137.982 225.559 137.312 224.492 137.312C223.385 137.312 222.564 138.037 222.564 139.322ZM228.764 143.779V136.355H229.939V143.779H228.764ZM229.352 135.124C228.9 135.124 228.531 134.783 228.531 134.345C228.531 133.908 228.9 133.566 229.352 133.566C229.803 133.566 230.186 133.908 230.186 134.345C230.186 134.783 229.803 135.124 229.352 135.124ZM231.312 146.568V136.355H232.447V137.531H232.584C232.83 137.134 233.295 136.259 234.73 136.259C236.59 136.259 237.889 137.736 237.889 140.087C237.889 142.439 236.59 143.929 234.744 143.929C233.322 143.929 232.83 143.054 232.584 142.644H232.488V146.568H231.312ZM232.461 140.06C232.461 141.728 233.213 142.876 234.58 142.876C235.988 142.876 236.713 141.646 236.713 140.06C236.713 138.515 236.002 137.312 234.58 137.312C233.186 137.312 232.461 138.419 232.461 140.06ZM243.049 138.283C242.885 137.667 242.42 137.257 241.545 137.257C240.629 137.257 239.973 137.749 239.973 138.378C239.973 138.871 240.369 139.212 241.244 139.417L242.352 139.691C243.678 140.005 244.334 140.662 244.334 141.701C244.334 142.986 243.281 143.929 241.422 143.929C239.754 143.929 238.756 143.191 238.564 141.837H239.795C239.932 142.562 240.465 142.904 241.395 142.904C242.447 142.904 243.117 142.466 243.117 141.769C243.117 141.249 242.748 140.894 241.9 140.703L240.779 140.443C239.48 140.142 238.797 139.431 238.797 138.447C238.797 137.175 239.904 136.259 241.545 136.259C243.076 136.259 244.047 137.08 244.197 138.283H243.049ZM251.619 136.355V137.339H250.061V141.646C250.061 142.603 250.525 142.753 251.031 142.753C251.25 142.753 251.551 142.74 251.729 142.726V143.82C251.551 143.847 251.25 143.874 250.908 143.874C249.924 143.874 248.871 143.259 248.871 141.947V137.339H247.75V136.355H248.871V134.578H250.061V136.355H251.619ZM255.59 143.929C253.566 143.929 252.199 142.412 252.199 140.101C252.199 137.79 253.566 136.259 255.59 136.259C257.6 136.259 258.953 137.79 258.953 140.101C258.953 142.412 257.6 143.929 255.59 143.929ZM255.59 142.89C257.08 142.89 257.777 141.578 257.777 140.101C257.777 138.624 257.08 137.298 255.59 137.298C254.072 137.298 253.375 138.624 253.375 140.101C253.375 141.578 254.072 142.89 255.59 142.89ZM263.012 143.779V136.355H264.146V137.49H264.229C264.502 136.738 265.268 136.232 266.143 136.232C266.32 136.232 266.621 136.246 266.758 136.259V137.449C266.676 137.421 266.348 137.367 266.047 137.367C264.98 137.367 264.188 138.105 264.188 139.103V143.779H263.012ZM270.277 143.929C268.131 143.929 266.805 142.412 266.805 140.128C266.805 137.845 268.145 136.259 270.168 136.259C271.727 136.259 273.367 137.216 273.367 139.964V140.456H267.98C268.035 142.029 268.951 142.89 270.277 142.89C271.166 142.89 271.727 142.507 272 142.042H273.258C272.902 143.164 271.809 143.929 270.277 143.929ZM267.994 139.458H272.178C272.178 138.214 271.385 137.298 270.168 137.298C268.883 137.298 268.062 138.31 267.994 139.458ZM277.434 143.929C275.41 143.929 274.043 142.412 274.043 140.101C274.043 137.79 275.41 136.259 277.434 136.259C279.443 136.259 280.797 137.79 280.797 140.101C280.797 142.412 279.443 143.929 277.434 143.929ZM277.434 142.89C278.924 142.89 279.621 141.578 279.621 140.101C279.621 138.624 278.924 137.298 277.434 137.298C275.916 137.298 275.219 138.624 275.219 140.101C275.219 141.578 275.916 142.89 277.434 142.89ZM281.842 146.568V136.355H282.977V137.531H283.113C283.359 137.134 283.824 136.259 285.26 136.259C287.119 136.259 288.418 137.736 288.418 140.087C288.418 142.439 287.119 143.929 285.273 143.929C283.852 143.929 283.359 143.054 283.113 142.644H283.018V146.568H281.842ZM282.99 140.06C282.99 141.728 283.742 142.876 285.109 142.876C286.518 142.876 287.242 141.646 287.242 140.06C287.242 138.515 286.531 137.312 285.109 137.312C283.715 137.312 282.99 138.419 282.99 140.06ZM292.566 143.929C290.42 143.929 289.094 142.412 289.094 140.128C289.094 137.845 290.434 136.259 292.457 136.259C294.016 136.259 295.656 137.216 295.656 139.964V140.456H290.27C290.324 142.029 291.24 142.89 292.566 142.89C293.455 142.89 294.016 142.507 294.289 142.042H295.547C295.191 143.164 294.098 143.929 292.566 143.929ZM290.283 139.458H294.467C294.467 138.214 293.674 137.298 292.457 137.298C291.172 137.298 290.352 138.31 290.283 139.458ZM297.863 139.322V143.779H296.688V136.355H297.822V137.517H297.918C298.273 136.765 298.957 136.259 300.092 136.259C301.596 136.259 302.594 137.175 302.594 139.062V143.779H301.418V139.144C301.418 137.996 300.789 137.312 299.736 137.312C298.656 137.312 297.863 138.037 297.863 139.322ZM306.994 143.779V136.355H308.17V143.779H306.994ZM307.582 135.124C307.131 135.124 306.762 134.783 306.762 134.345C306.762 133.908 307.131 133.566 307.582 133.566C308.033 133.566 308.416 133.908 308.416 134.345C308.416 134.783 308.033 135.124 307.582 135.124ZM312.783 136.355V137.339H311.225V141.646C311.225 142.603 311.689 142.753 312.195 142.753C312.414 142.753 312.715 142.74 312.893 142.726V143.82C312.715 143.847 312.414 143.874 312.072 143.874C311.088 143.874 310.035 143.259 310.035 141.947V137.339H308.914V136.355H310.035V134.578H311.225V136.355H312.783ZM314.635 143.861C314.156 143.861 313.746 143.464 313.76 142.972C313.746 142.494 314.156 142.097 314.635 142.097C315.113 142.097 315.51 142.494 315.51 142.972C315.51 143.464 315.113 143.861 314.635 143.861Z" fill="white"/>
<path d="M355.567 106.081L324 129.08L324 115.274L354.642 104.331C355.729 103.942 356.5 105.401 355.567 106.081Z" fill="black" fill-opacity="0.6"/>
<defs>
<filter id="filter0_f_456_8166" x="92" y="35" width="102" height="89" filterUnits="userSpaceOnUse" color-interpolation-filters="sRGB">
<feFlood flood-opacity="0" result="BackgroundImageFix"/>
<feBlend mode="normal" in="SourceGraphic" in2="BackgroundImageFix" result="shape"/>
<feGaussianBlur stdDeviation="1" result="effect1_foregroundBlur_456_8166"/>
</filter>
<filter id="filter1_d_456_8166" x="59" y="106" width="82" height="66" filterUnits="userSpaceOnUse" color-interpolation-filters="sRGB">
<feFlood flood-opacity="0" result="BackgroundImageFix"/>
<feColorMatrix in="SourceAlpha" type="matrix" values="0 0 0 0 0 0 0 0 0 0 0 0 0 0 0 0 0 0 127 0" result="hardAlpha"/>
<feOffset dx="4" dy="-4"/>
<feGaussianBlur stdDeviation="2"/>
<feComposite in2="hardAlpha" operator="out"/>
<feColorMatrix type="matrix" values="0 0 0 0 0 0 0 0 0 0 0 0 0 0 0 0 0 0 0.1 0"/>
<feBlend mode="normal" in2="BackgroundImageFix" result="effect1_dropShadow_456_8166"/>
<feBlend mode="normal" in="SourceGraphic" in2="effect1_dropShadow_456_8166" result="shape"/>
</filter>
<clipPath id="clip0_456_8166">
<rect width="52" height="40" fill="white" transform="translate(70 123)"/>
</clipPath>
</defs>
</svg>
