<svg width="375" height="220" viewBox="0 0 375 220" fill="none" xmlns="http://www.w3.org/2000/svg">
<g filter="url(#filter0_f_468_9646)" style="mix-blend-mode:multiply">
<path d="M103.023 37.4026C103.804 38.2078 104.585 38.3384 104.682 39.6007C105.014 40.3624 106.127 40.4277 106.303 41.1677C106.498 42.0164 107.631 41.5594 108.139 42.2994C109.545 42.6476 111.009 42.7346 112.318 41.9729C113.001 40.4712 112.923 41.2765 113.919 39.8183C114.563 38.839 115.774 39.1872 116.477 38.1861C117.492 37.9249 118.566 36.2491 119.367 37.9467C119.465 38.3384 119.367 38.6649 119.816 38.7302C119.914 39.4484 119.035 40.123 119.621 40.8194C120.754 41.5594 117.082 42.7564 119.855 43.344C120.812 43.3875 120.617 45.0198 121.671 44.9327C122.355 44.8674 123.507 45.1721 122.98 46.1515C123.312 49.7859 124.151 51.0482 127.647 51.0917C131.064 53.921 134.931 57.4249 139.422 55.8144C141.023 55.5097 142.527 54.8133 144.187 54.7045C144.968 54.6609 147.975 55.5097 146.549 53.7033C146.178 50.6782 147.741 51.897 149.498 51.4617C150.318 50.4388 150.963 49.2854 151.978 48.4366C153.189 46.4561 155.532 47.1526 157.309 47.392C158.403 47.479 158.051 47.109 158.715 46.4344C159.32 45.825 161.488 46.282 162.093 46.6085C162.777 46.9785 162.406 47.3267 162.874 47.8272C163.382 48.3713 164.007 47.7837 164.573 47.9796C165.628 48.3278 166.389 49.6118 167.366 50.0689C169.006 50.4824 171.447 49.0678 172.56 50.9394C172.345 51.3747 173.126 52.0711 173.302 52.4193C173.868 53.8557 175.411 53.0722 176.192 54.378C176.837 56.7285 179.043 55.5532 180.605 56.0973C181.836 59.1877 180.996 63.2575 180.762 66.5655C179.668 66.8702 180.293 67.8713 179.258 68.1325C178.262 68.7418 179.512 69.4383 179.551 70.0476C178.262 69.9606 177.618 70.3959 178.028 71.9193C177.813 72.4416 177.325 74.1827 178.184 74.2915C179.102 74.1392 180.801 75.1185 179.082 75.6408C177.891 76.5766 178.496 78.4048 178.731 79.7976C179.57 81.9304 178.926 84.5421 179.258 86.7837C181.035 87.4148 183.73 86.0437 183.788 88.6335C184.609 91.4193 181.308 92.9427 180.41 95.2061C179.121 95.7066 179.746 96.7948 180.527 97.4695C182.148 99.6458 183.163 102.802 185.39 104.281C188.221 104.978 189.237 106.719 188.651 109.896C188.983 112.007 192.107 109.635 190.584 114.184C189.549 115.881 187.069 113.988 185.702 115.359C181.523 117.666 186.151 124.217 179.824 122.802C179.004 122.454 178.164 122.214 177.52 121.562C175.118 120.735 172.677 121.627 170.236 121.17C169.377 119.995 167.522 120.234 166.253 119.995C165.003 119.886 163.968 119.45 162.796 119.45C162.445 119.255 162.699 119.037 162.581 118.711C162.464 118.449 162.21 118.449 162.152 118.101C162.289 117.448 161.527 117.165 161.722 116.425C161.41 114.989 161.507 112.334 159.75 111.79C158.578 111.376 157.368 111.92 156.157 111.79C155.903 112.53 155.102 112.16 154.712 112.791C153.97 114.467 151.998 114.01 150.963 114.967C148.229 115.315 145.222 114.401 143.445 111.942C141.609 111.703 140.789 110.615 139.617 109.026C139.207 107.938 137.313 107.524 136.317 107.394C135.243 107.655 134.657 107.437 134.345 106.218C133.427 105.587 133.544 104.586 133.212 103.585C132.646 102.845 132.49 101.974 132.47 101.039C132.177 100.212 130.927 100.625 130.595 99.7546C131.025 97.5348 130.693 98.1442 129.502 96.5772C128.252 92.1375 126.592 96.5772 125.069 94.6403C120.246 88.0895 124.893 101.387 119.719 92.9427C117.766 91.5716 119.855 89.3953 117.336 89.0035C117.239 85.2602 118.547 83.6933 115.169 80.9075C113.196 80.9075 112.474 78.3395 110.56 77.8824C110.013 77.7301 109.467 78.296 109.389 77.4907C109.31 76.729 108.842 76.1414 108.803 75.3361C108.764 73.7692 106.928 73.5298 106.284 72.2893C106.127 71.397 106.655 70.8094 107.123 70.2218C107.201 69.6124 106.948 69.9388 106.733 69.6994C105.268 67.9801 107.143 68.6548 107.924 67.9583C107.748 63.6274 110.384 67.6101 109.389 62.474C111.107 60.907 109.799 60.907 108.217 61.0594C107.377 60.7982 106.752 60.1888 106.108 59.6012C105.717 58.7525 106.108 57.6207 105.092 57.2725C104.897 56.9243 105.171 56.7067 105.034 56.3803C104.253 55.7056 103.433 54.748 103.413 53.5292C103.96 52.267 102.944 51.7011 102.515 50.6347C102.359 49.416 102.085 48.7413 101.089 48.3496C101.089 47.8273 101.343 47.4573 101.148 46.8914C101.246 46.4126 101.949 46.3909 101.792 45.7597C101.167 45.4115 101.597 44.5627 101.207 43.8881C101.499 42.6258 100.347 42.2776 100.113 41.2112C100.66 40.1883 99.1171 39.0349 100.855 39.1001C102.749 39.5136 100.328 35.7703 102.944 37.4244L103.023 37.4026Z" fill="#FFCCBE"/>
</g>
<rect x="135.5" y="77.6177" width="5" height="5" rx="2.5" fill="white" stroke="black"/>
<path d="M154.082 74.6138V85.1372H152.969V74.6138H154.082ZM145.75 79.0786C145.75 76.8345 146.881 75.4048 148.469 75.3989C150.027 75.4048 151.176 76.8345 151.176 79.0786C151.176 81.3462 150.027 82.7759 148.469 82.77C146.881 82.7759 145.75 81.3462 145.75 79.0786ZM146.828 79.0786C146.822 80.7485 147.49 81.7739 148.469 81.7739C149.43 81.7739 150.098 80.7485 150.098 79.0786C150.098 77.4321 149.43 76.4009 148.469 76.395C147.49 76.4009 146.822 77.4321 146.828 79.0786ZM163.768 74.6255V77.7778H165.303V78.7153H163.768V82.3481H162.655V74.6255H163.768ZM155.94 76.2075V75.2935H160.721V78.3872H157.065V79.8521C158.887 79.8521 160.176 79.7759 161.705 79.5122L161.823 80.4263C160.199 80.7075 158.811 80.7603 156.795 80.7661H155.951V77.5317H159.631V76.2075H155.94ZM157.17 84.8911V81.7505H158.295V83.9888H164.237V84.8911H157.17Z" fill="#191414"/>
<circle cx="156" cy="115" r="8" fill="#FF8474" fill-opacity="0.2" stroke="#02A39E" stroke-width="2" stroke-dasharray="4 4"/>
<g filter="url(#filter1_d_468_9646)">
<rect x="60" y="115" width="72" height="56" rx="8" fill="#02A39E" shape-rendering="crispEdges"/>
<rect x="59.5" y="114.5" width="73" height="57" rx="8.5" stroke="#02A39E" shape-rendering="crispEdges"/>
<g clip-path="url(#clip0_468_9646)">
<path d="M95.9924 162.093C89.3178 162.093 83.2252 158.684 79.6969 152.98C78.0055 150.241 77.0325 147.085 76.887 143.857L76.8688 143.585C76.8597 143.395 76.8416 143.204 76.8416 143.005C76.8416 142.533 76.8779 142.061 76.9143 141.599C77.0234 140.085 77.2962 138.67 77.7054 137.355C80.2061 129.312 87.5537 123.907 95.9924 123.907C103.922 123.907 111.133 128.903 113.916 136.348L114.37 137.573H112.879L110.66 139.831L109.551 140.937L109.142 139.432C108.996 138.897 108.796 138.325 108.514 137.691C108.205 136.974 107.85 136.303 107.45 135.668L88.6267 154.44C90.8182 155.854 93.3462 156.598 95.9833 156.598C99.1115 156.598 102.076 155.537 104.54 153.542C105.213 152.998 105.777 152.463 106.25 151.919L106.523 151.61H113.134L112.279 152.998C108.751 158.702 102.658 162.102 95.9924 162.102V162.093ZM95.9924 129.402C90.4363 129.402 85.4895 132.739 83.3798 137.908C83.1342 138.525 82.9433 139.069 82.8069 139.586C82.6068 140.339 82.4795 141.037 82.4159 141.717C82.3704 142.179 82.3522 142.606 82.3522 143.005C82.3522 143.204 82.3613 143.413 82.3795 143.612C82.3795 143.612 82.3977 144.093 82.4068 144.147C82.5977 146.432 83.3889 148.663 84.6983 150.586L103.604 131.733C101.358 130.227 98.6932 129.402 95.9924 129.402Z" fill="#455A64"/>
<path d="M95.9924 124.814C103.813 124.814 110.478 129.756 113.061 136.666H112.879C112.67 136.666 112.461 136.747 112.315 136.902L110.015 139.196C109.842 138.561 109.605 137.944 109.351 137.337C108.887 136.258 108.314 135.224 107.577 134.263L102.003 139.822L100.194 141.626L98.002 143.812L89.2814 152.508L87.5445 154.24L87.2262 154.557C89.7724 156.48 92.7914 157.496 95.9924 157.496C99.457 157.496 102.622 156.262 105.122 154.24C105.777 153.714 106.395 153.143 106.95 152.508H111.515C108.305 157.704 102.558 161.186 96.0014 161.186C89.445 161.186 83.698 157.704 80.4789 152.499C78.9057 149.951 77.9418 146.985 77.8054 143.812C77.7963 143.54 77.7599 143.277 77.7599 142.995C77.7599 142.533 77.7963 142.08 77.8327 141.626C77.9327 140.239 78.1782 138.897 78.5783 137.618C80.879 130.209 87.8082 124.814 95.9924 124.814ZM84.58 151.982L92.7733 143.812L94.9648 141.626L96.7744 139.822L104.995 131.624C102.431 129.602 99.2478 128.495 95.9833 128.495C89.8906 128.495 84.6892 132.259 82.534 137.564C82.2976 138.144 82.0884 138.742 81.9247 139.359C81.7338 140.094 81.5883 140.846 81.5155 141.626C81.4701 142.08 81.4428 142.533 81.4428 142.995C81.4428 143.268 81.461 143.54 81.4792 143.812C81.4792 143.948 81.4792 144.084 81.4973 144.22C81.7065 146.713 82.5795 149.117 83.998 151.193C84.1799 151.465 84.3709 151.728 84.58 151.991M95.9924 123C87.1535 123 79.4513 128.659 76.8324 137.083C76.405 138.461 76.1231 139.949 76.0049 141.49V141.535C75.9685 141.998 75.9321 142.479 75.9321 142.995C75.9321 143.213 75.9412 143.422 75.9594 143.63C75.9594 143.712 75.9685 143.803 75.9776 143.884C76.1322 147.267 77.1507 150.567 78.9239 153.442C82.6158 159.418 88.9995 162.991 95.9924 162.991C102.985 162.991 109.36 159.427 113.052 153.451L114.761 150.685H106.113L105.568 151.311C105.122 151.819 104.595 152.318 103.967 152.825C101.667 154.693 98.9114 155.673 95.9924 155.673C93.9099 155.673 91.9185 155.183 90.1089 154.231L90.5635 153.778L99.2842 145.081L101.476 142.896L103.285 141.091L107.25 137.137C107.396 137.428 107.541 137.727 107.668 138.026C107.932 138.643 108.114 139.16 108.25 139.649L109.078 142.669L111.297 140.456L113.297 138.461H115.68L114.761 136.013C111.842 128.232 104.304 123 95.9924 123ZM84.871 149.135C83.998 147.566 83.4615 145.834 83.316 144.066C83.316 144.02 83.316 143.975 83.316 143.929C83.316 143.857 83.316 143.784 83.316 143.712V143.576C83.2979 143.385 83.2888 143.195 83.2888 142.995C83.2888 142.624 83.3069 142.234 83.3524 141.789C83.4161 141.164 83.5343 140.511 83.7162 139.803C83.8435 139.323 84.0162 138.815 84.2527 138.235C86.2169 133.41 90.8363 130.3 96.0196 130.3C98.1748 130.3 100.303 130.853 102.176 131.896L95.5195 138.534L93.7099 140.338L91.5184 142.524L84.8983 149.126L84.871 149.135Z" fill="#37474F"/>
<path d="M121.627 136.149C121.309 135.605 120.818 135.206 120.236 134.997L118.744 130.581C118.408 129.574 117.38 128.903 116.207 128.903H113.997C112.861 128.903 111.915 129.511 111.524 130.391C107.777 125.82 102.085 123 95.9923 123C87.6081 123 80.2515 128.096 77.2779 135.804H74.7135C73.7133 135.804 72.8948 136.62 72.8948 137.618V138.117C72.5857 138.443 72.3947 138.878 72.3947 139.359V139.822C71.6672 139.885 71.0125 140.239 70.5578 140.81C70.0577 141.445 69.8849 142.261 70.0759 143.05L70.1031 143.177L70.3669 144.247C70.3941 144.347 70.4214 144.437 70.4578 144.528L72.2583 148.736C72.6039 149.806 73.6041 150.54 74.7499 150.54H74.95L75.8866 151.864C76.7232 153.052 77.9872 153.877 79.3967 154.186C83.1523 159.717 89.2904 163 95.9923 163C102.694 163 108.787 159.745 112.542 154.249C113.406 154.059 114.152 153.506 114.607 152.689C114.779 152.381 114.889 152.046 114.97 151.701C115.007 151.574 115.025 151.438 115.052 151.302C115.052 151.238 115.07 151.184 115.08 151.121C115.134 150.604 115.08 150.06 114.943 149.543C115.189 148.854 115.389 148.192 115.543 147.521L117.962 145.081C118.071 144.972 118.171 144.845 118.253 144.7L118.862 143.63L120.472 140.81L121.645 138.77C121.763 138.561 121.845 138.353 121.909 138.126C122.091 137.464 122 136.747 121.645 136.14L121.627 136.149ZM120.063 137.854L117.271 142.742L116.662 143.812L113.87 146.623L112.361 148.146C112.161 148.5 112.251 148.962 112.597 149.189C112.752 149.298 112.879 149.434 112.979 149.597C113.615 150.613 113.252 152.508 111.888 152.508H111.515C108.305 157.704 102.558 161.186 96.0014 161.186C89.445 161.186 83.6979 157.704 80.4788 152.499C79.2421 152.454 78.0963 151.837 77.387 150.821L76.1503 149.062C76.0048 148.844 75.7593 148.718 75.4956 148.718H74.7681C74.3953 148.718 74.077 148.464 73.9861 148.11L72.1401 143.812L71.8764 142.742L71.8491 142.615C71.7218 142.107 72.1037 141.626 72.6311 141.626H74.2316V139.359H74.7317V137.618H78.5874C80.8789 130.209 87.8082 124.814 95.9923 124.814C104.176 124.814 110.478 129.756 113.061 136.666H113.161V131.297C113.161 130.98 113.534 130.726 113.997 130.726H116.207C116.598 130.726 116.935 130.908 117.026 131.17L118.89 136.666H119.372C119.99 136.666 120.372 137.328 120.072 137.863L120.063 137.854Z" fill="#37474F"/>
<path d="M82.9069 139.377H82.9524V141.626H94.9649L96.7745 139.822H84.762V139.377C84.762 138.38 83.9527 137.573 82.9524 137.573H82.5341C82.2976 138.153 82.0885 138.752 81.9248 139.368H82.8978V139.386L82.9069 139.377Z" fill="#37474F"/>
<path d="M105.113 154.24C105.768 153.714 106.386 153.143 106.941 152.508H89.2813L87.5444 154.24H105.122H105.113Z" fill="#37474F"/>
<path d="M106.841 139.822H102.003L100.193 141.626H107.241C107.45 141.626 107.659 141.544 107.805 141.39L110.014 139.187C109.842 138.552 109.605 137.935 109.35 137.328L106.841 139.822Z" fill="#37474F"/>
<path d="M72.1311 143.812L73.9771 148.11C74.068 148.464 74.3863 148.718 74.7591 148.718H75.4866C75.7503 148.718 75.9958 148.845 76.1413 149.062L77.378 150.821C78.0873 151.837 79.2331 152.454 80.4698 152.499C78.8967 149.951 77.9327 146.986 77.7963 143.812H72.1311Z" fill="#F77152"/>
<path d="M81.479 143.812C81.479 143.948 81.479 144.084 81.4972 144.22C81.7063 146.713 82.5793 149.117 83.9979 151.193C84.1798 151.465 84.3707 151.728 84.5799 151.991L92.7731 143.821H81.479V143.812Z" fill="#F77152"/>
<path d="M94.9649 141.626H81.5156C81.4702 142.08 81.4429 142.533 81.4429 142.996C81.4429 143.268 81.4611 143.54 81.4792 143.812H92.7734L94.9649 141.626Z" fill="#4F4543"/>
<path d="M119.363 136.666H112.879C112.67 136.666 112.461 136.748 112.315 136.902L110.014 139.196L107.805 141.4C107.65 141.554 107.45 141.635 107.241 141.635H100.193L98.002 143.821H116.653L117.262 142.751L120.054 137.863C120.363 137.328 119.972 136.666 119.353 136.666H119.363Z" fill="#4F4543"/>
<path d="M77.7508 142.996C77.7508 142.533 77.7872 142.08 77.8235 141.626H72.613C72.0946 141.626 71.7127 142.116 71.8309 142.615L71.8582 142.742L72.1219 143.812H77.7872C77.7781 143.54 77.7417 143.277 77.7417 142.996H77.7508Z" fill="#4F4543"/>
<path d="M117.025 131.171C116.934 130.908 116.598 130.726 116.207 130.726H113.997C113.533 130.726 113.161 130.98 113.161 131.297V136.666H118.89L117.025 131.171Z" fill="#DDDDDD"/>
<path d="M82.9066 139.377V139.359H81.9336C81.7427 140.094 81.5972 140.846 81.5244 141.626H82.9157V139.377H82.9066Z" fill="#DDDDDD"/>
<path d="M78.5692 137.618H74.7135V139.359H74.2134V141.626H77.8235C77.9235 140.239 78.169 138.897 78.5692 137.618Z" fill="#DDDDDD"/>
<path d="M110.487 143.812H98.0019L89.2812 152.508H111.879C113.243 152.508 113.597 150.613 112.97 149.597C112.87 149.434 112.742 149.289 112.588 149.189C112.251 148.953 112.151 148.5 112.351 148.146L113.861 146.623L116.653 143.812H110.487Z" fill="#F77152"/>
</g>
</g>
<path d="M143.596 122.065L125 128L125 140L144.538 123.787C145.384 123.086 144.643 121.731 143.596 122.065Z" fill="#02A39E"/>
<rect x="207" y="99.7788" width="120" height="54" rx="8" fill="black" fill-opacity="0.6"/>
<path d="M218.094 121.779V111.88H224.096V112.974H219.324V116.283H223.781V117.363H219.324V120.685H224.164V121.779H218.094ZM230.076 118.73V114.355H231.238V121.779H230.076V120.521H229.994C229.639 121.273 228.914 121.875 227.793 121.875C226.385 121.875 225.387 120.958 225.387 119.072V114.355H226.562V118.99C226.562 120.056 227.232 120.74 228.176 120.74C229.01 120.74 230.076 120.111 230.076 118.73ZM232.625 121.779V114.355H233.76V115.49H233.842C234.115 114.738 234.881 114.232 235.756 114.232C235.934 114.232 236.234 114.246 236.371 114.259V115.449C236.289 115.421 235.961 115.367 235.66 115.367C234.594 115.367 233.801 116.105 233.801 117.103V121.779H232.625ZM239.809 121.929C237.785 121.929 236.418 120.412 236.418 118.101C236.418 115.791 237.785 114.259 239.809 114.259C241.818 114.259 243.172 115.791 243.172 118.101C243.172 120.412 241.818 121.929 239.809 121.929ZM239.809 120.89C241.299 120.89 241.996 119.578 241.996 118.101C241.996 116.625 241.299 115.298 239.809 115.298C238.291 115.298 237.594 116.625 237.594 118.101C237.594 119.578 238.291 120.89 239.809 120.89ZM244.217 124.568V114.355H245.352V115.531H245.488C245.734 115.134 246.199 114.259 247.635 114.259C249.494 114.259 250.793 115.736 250.793 118.087C250.793 120.439 249.494 121.929 247.648 121.929C246.227 121.929 245.734 121.054 245.488 120.644H245.393V124.568H244.217ZM245.365 118.06C245.365 119.728 246.117 120.876 247.484 120.876C248.893 120.876 249.617 119.646 249.617 118.06C249.617 116.515 248.906 115.312 247.484 115.312C246.09 115.312 245.365 116.419 245.365 118.06ZM254.941 121.929C252.795 121.929 251.469 120.412 251.469 118.128C251.469 115.845 252.809 114.259 254.832 114.259C256.391 114.259 258.031 115.216 258.031 117.964V118.457H252.645C252.699 120.029 253.615 120.89 254.941 120.89C255.83 120.89 256.391 120.507 256.664 120.042H257.922C257.566 121.164 256.473 121.929 254.941 121.929ZM252.658 117.458H256.842C256.842 116.214 256.049 115.298 254.832 115.298C253.547 115.298 252.727 116.31 252.658 117.458ZM265.316 114.355V115.339H263.758V119.646C263.758 120.603 264.223 120.753 264.729 120.753C264.947 120.753 265.248 120.74 265.426 120.726V121.82C265.248 121.847 264.947 121.875 264.605 121.875C263.621 121.875 262.568 121.259 262.568 119.947V115.339H261.447V114.355H262.568V112.578H263.758V114.355H265.316ZM269.287 121.929C267.264 121.929 265.896 120.412 265.896 118.101C265.896 115.791 267.264 114.259 269.287 114.259C271.297 114.259 272.65 115.791 272.65 118.101C272.65 120.412 271.297 121.929 269.287 121.929ZM269.287 120.89C270.777 120.89 271.475 119.578 271.475 118.101C271.475 116.625 270.777 115.298 269.287 115.298C267.77 115.298 267.072 116.625 267.072 118.101C267.072 119.578 267.77 120.89 269.287 120.89ZM280.838 116.283C280.674 115.667 280.209 115.257 279.334 115.257C278.418 115.257 277.762 115.75 277.762 116.378C277.762 116.871 278.158 117.212 279.033 117.417L280.141 117.691C281.467 118.005 282.123 118.662 282.123 119.701C282.123 120.986 281.07 121.929 279.211 121.929C277.543 121.929 276.545 121.191 276.354 119.837H277.584C277.721 120.562 278.254 120.904 279.184 120.904C280.236 120.904 280.906 120.466 280.906 119.769C280.906 119.25 280.537 118.894 279.689 118.703L278.568 118.443C277.27 118.142 276.586 117.431 276.586 116.447C276.586 115.175 277.693 114.259 279.334 114.259C280.865 114.259 281.836 115.08 281.986 116.283H280.838ZM286.271 121.929C284.125 121.929 282.799 120.412 282.799 118.128C282.799 115.845 284.139 114.259 286.162 114.259C287.721 114.259 289.361 115.216 289.361 117.964V118.457H283.975C284.029 120.029 284.945 120.89 286.271 120.89C287.16 120.89 287.721 120.507 287.994 120.042H289.252C288.896 121.164 287.803 121.929 286.271 121.929ZM283.988 117.458H288.172C288.172 116.214 287.379 115.298 286.162 115.298C284.877 115.298 284.057 116.31 283.988 117.458ZM291.568 117.322V121.779H290.393V114.355H291.527V115.517H291.623C291.979 114.765 292.662 114.259 293.797 114.259C295.301 114.259 296.299 115.175 296.299 117.062V121.779H295.123V117.144C295.123 115.996 294.494 115.312 293.441 115.312C292.361 115.312 291.568 116.037 291.568 117.322ZM300.488 121.929C298.643 121.929 297.33 120.439 297.33 118.087C297.33 115.736 298.643 114.259 300.502 114.259C301.938 114.259 302.402 115.134 302.648 115.531H302.73V111.88H303.92V121.779H302.771V120.644H302.648C302.389 121.054 301.91 121.929 300.488 121.929ZM300.652 120.876C302.006 120.876 302.771 119.728 302.771 118.06C302.771 116.419 302.033 115.312 300.652 115.312C299.23 115.312 298.52 116.515 298.52 118.06C298.52 119.646 299.244 120.876 300.652 120.876ZM222.072 136.283C221.908 135.667 221.443 135.257 220.568 135.257C219.652 135.257 218.996 135.75 218.996 136.378C218.996 136.871 219.393 137.212 220.268 137.417L221.375 137.691C222.701 138.005 223.357 138.662 223.357 139.701C223.357 140.986 222.305 141.929 220.445 141.929C218.777 141.929 217.779 141.191 217.588 139.837H218.818C218.955 140.562 219.488 140.904 220.418 140.904C221.471 140.904 222.141 140.466 222.141 139.769C222.141 139.25 221.771 138.894 220.924 138.703L219.803 138.443C218.504 138.142 217.82 137.431 217.82 136.447C217.82 135.175 218.928 134.259 220.568 134.259C222.1 134.259 223.07 135.08 223.221 136.283H222.072ZM225.564 137.322V141.779H224.389V131.88H225.564V135.517H225.66C226.002 134.751 226.672 134.259 227.848 134.259C229.365 134.259 230.377 135.162 230.377 137.062V141.779H229.201V137.144C229.201 135.982 228.559 135.312 227.492 135.312C226.385 135.312 225.564 136.037 225.564 137.322ZM231.764 141.779V134.355H232.939V141.779H231.764ZM232.352 133.125C231.9 133.125 231.531 132.783 231.531 132.345C231.531 131.908 231.9 131.566 232.352 131.566C232.803 131.566 233.186 131.908 233.186 132.345C233.186 132.783 232.803 133.125 232.352 133.125ZM234.312 144.568V134.355H235.447V135.531H235.584C235.83 135.134 236.295 134.259 237.73 134.259C239.59 134.259 240.889 135.736 240.889 138.087C240.889 140.439 239.59 141.929 237.744 141.929C236.322 141.929 235.83 141.054 235.584 140.644H235.488V144.568H234.312ZM235.461 138.06C235.461 139.728 236.213 140.876 237.58 140.876C238.988 140.876 239.713 139.646 239.713 138.06C239.713 136.515 239.002 135.312 237.58 135.312C236.186 135.312 235.461 136.419 235.461 138.06ZM246.049 136.283C245.885 135.667 245.42 135.257 244.545 135.257C243.629 135.257 242.973 135.75 242.973 136.378C242.973 136.871 243.369 137.212 244.244 137.417L245.352 137.691C246.678 138.005 247.334 138.662 247.334 139.701C247.334 140.986 246.281 141.929 244.422 141.929C242.754 141.929 241.756 141.191 241.564 139.837H242.795C242.932 140.562 243.465 140.904 244.395 140.904C245.447 140.904 246.117 140.466 246.117 139.769C246.117 139.25 245.748 138.894 244.9 138.703L243.779 138.443C242.48 138.142 241.797 137.431 241.797 136.447C241.797 135.175 242.904 134.259 244.545 134.259C246.076 134.259 247.047 135.08 247.197 136.283H246.049ZM254.619 134.355V135.339H253.061V139.646C253.061 140.603 253.525 140.753 254.031 140.753C254.25 140.753 254.551 140.74 254.729 140.726V141.82C254.551 141.847 254.25 141.875 253.908 141.875C252.924 141.875 251.871 141.259 251.871 139.947V135.339H250.75V134.355H251.871V132.578H253.061V134.355H254.619ZM258.59 141.929C256.566 141.929 255.199 140.412 255.199 138.101C255.199 135.791 256.566 134.259 258.59 134.259C260.6 134.259 261.953 135.791 261.953 138.101C261.953 140.412 260.6 141.929 258.59 141.929ZM258.59 140.89C260.08 140.89 260.777 139.578 260.777 138.101C260.777 136.625 260.08 135.298 258.59 135.298C257.072 135.298 256.375 136.625 256.375 138.101C256.375 139.578 257.072 140.89 258.59 140.89ZM266.012 141.779V134.355H267.146V135.49H267.229C267.502 134.738 268.268 134.232 269.143 134.232C269.32 134.232 269.621 134.246 269.758 134.259V135.449C269.676 135.421 269.348 135.367 269.047 135.367C267.98 135.367 267.188 136.105 267.188 137.103V141.779H266.012ZM273.277 141.929C271.131 141.929 269.805 140.412 269.805 138.128C269.805 135.845 271.145 134.259 273.168 134.259C274.727 134.259 276.367 135.216 276.367 137.964V138.457H270.98C271.035 140.029 271.951 140.89 273.277 140.89C274.166 140.89 274.727 140.507 275 140.042H276.258C275.902 141.164 274.809 141.929 273.277 141.929ZM270.994 137.458H275.178C275.178 136.214 274.385 135.298 273.168 135.298C271.883 135.298 271.062 136.31 270.994 137.458ZM280.434 141.929C278.41 141.929 277.043 140.412 277.043 138.101C277.043 135.791 278.41 134.259 280.434 134.259C282.443 134.259 283.797 135.791 283.797 138.101C283.797 140.412 282.443 141.929 280.434 141.929ZM280.434 140.89C281.924 140.89 282.621 139.578 282.621 138.101C282.621 136.625 281.924 135.298 280.434 135.298C278.916 135.298 278.219 136.625 278.219 138.101C278.219 139.578 278.916 140.89 280.434 140.89ZM284.842 144.568V134.355H285.977V135.531H286.113C286.359 135.134 286.824 134.259 288.26 134.259C290.119 134.259 291.418 135.736 291.418 138.087C291.418 140.439 290.119 141.929 288.273 141.929C286.852 141.929 286.359 141.054 286.113 140.644H286.018V144.568H284.842ZM285.99 138.06C285.99 139.728 286.742 140.876 288.109 140.876C289.518 140.876 290.242 139.646 290.242 138.06C290.242 136.515 289.531 135.312 288.109 135.312C286.715 135.312 285.99 136.419 285.99 138.06ZM295.566 141.929C293.42 141.929 292.094 140.412 292.094 138.128C292.094 135.845 293.434 134.259 295.457 134.259C297.016 134.259 298.656 135.216 298.656 137.964V138.457H293.27C293.324 140.029 294.24 140.89 295.566 140.89C296.455 140.89 297.016 140.507 297.289 140.042H298.547C298.191 141.164 297.098 141.929 295.566 141.929ZM293.283 137.458H297.467C297.467 136.214 296.674 135.298 295.457 135.298C294.172 135.298 293.352 136.31 293.283 137.458ZM300.863 137.322V141.779H299.688V134.355H300.822V135.517H300.918C301.273 134.765 301.957 134.259 303.092 134.259C304.596 134.259 305.594 135.175 305.594 137.062V141.779H304.418V137.144C304.418 135.996 303.789 135.312 302.736 135.312C301.656 135.312 300.863 136.037 300.863 137.322ZM309.994 141.779V134.355H311.17V141.779H309.994ZM310.582 133.125C310.131 133.125 309.762 132.783 309.762 132.345C309.762 131.908 310.131 131.566 310.582 131.566C311.033 131.566 311.416 131.908 311.416 132.345C311.416 132.783 311.033 133.125 310.582 133.125ZM315.783 134.355V135.339H314.225V139.646C314.225 140.603 314.689 140.753 315.195 140.753C315.414 140.753 315.715 140.74 315.893 140.726V141.82C315.715 141.847 315.414 141.875 315.072 141.875C314.088 141.875 313.035 141.259 313.035 139.947V135.339H311.914V134.355H313.035V132.578H314.225V134.355H315.783ZM317.635 141.861C317.156 141.861 316.746 141.464 316.76 140.972C316.746 140.494 317.156 140.097 317.635 140.097C318.113 140.097 318.51 140.494 318.51 140.972C318.51 141.464 318.113 141.861 317.635 141.861Z" fill="white"/>
<path d="M358.567 104.081L327 127.08L327 113.274L357.642 102.331C358.729 101.942 359.5 103.401 358.567 104.081Z" fill="black" fill-opacity="0.6"/>
<defs>
<filter id="filter0_f_468_9646" x="98" y="35" width="95" height="90" filterUnits="userSpaceOnUse" color-interpolation-filters="sRGB">
<feFlood flood-opacity="0" result="BackgroundImageFix"/>
<feBlend mode="normal" in="SourceGraphic" in2="BackgroundImageFix" result="shape"/>
<feGaussianBlur stdDeviation="1" result="effect1_foregroundBlur_468_9646"/>
</filter>
<filter id="filter1_d_468_9646" x="59" y="106" width="82" height="66" filterUnits="userSpaceOnUse" color-interpolation-filters="sRGB">
<feFlood flood-opacity="0" result="BackgroundImageFix"/>
<feColorMatrix in="SourceAlpha" type="matrix" values="0 0 0 0 0 0 0 0 0 0 0 0 0 0 0 0 0 0 127 0" result="hardAlpha"/>
<feOffset dx="4" dy="-4"/>
<feGaussianBlur stdDeviation="2"/>
<feComposite in2="hardAlpha" operator="out"/>
<feColorMatrix type="matrix" values="0 0 0 0 0 0 0 0 0 0 0 0 0 0 0 0 0 0 0.1 0"/>
<feBlend mode="normal" in2="BackgroundImageFix" result="effect1_dropShadow_468_9646"/>
<feBlend mode="normal" in="SourceGraphic" in2="effect1_dropShadow_468_9646" result="shape"/>
</filter>
<clipPath id="clip0_468_9646">
<rect width="52" height="40" fill="white" transform="translate(70 123)"/>
</clipPath>
</defs>
</svg>
