<svg width="240" height="144" viewBox="0 0 240 144" fill="none" xmlns="http://www.w3.org/2000/svg">
<mask id="mask0_364_905" style="mask-type:alpha" maskUnits="userSpaceOnUse" x="108" y="12" width="24" height="16">
<rect x="108" y="12" width="24" height="16" rx="2" fill="#D9D9D9"/>
</mask>
<g mask="url(#mask0_364_905)">
<path d="M108.014 20.6207C108.014 17.7938 108.014 14.9599 108.014 12.1329C108.014 12.021 108.035 12 108.14 12C112.129 12 116.117 12 120.106 12C120.106 12.4128 120.106 12.8187 120.106 13.2315C120.106 13.6444 120.106 14.0502 120.106 14.4631C120.106 14.8759 120.106 15.2817 120.106 15.6946C120.106 16.1004 120.106 16.5133 120.106 16.9191C120.106 17.332 120.106 17.7378 120.106 18.1507C120.106 18.5635 120.106 18.9693 120.106 19.3822C120.106 19.795 120.106 20.2009 120.106 20.6137C120.043 20.6137 119.98 20.6137 119.917 20.6137C115.949 20.6137 111.982 20.6137 108.014 20.6137V20.6207ZM112.814 18.4166C112.961 18.2486 113.115 18.1856 113.318 18.3956C113.178 18.1437 113.297 18.0107 113.5 17.8848C113.206 17.9757 113.108 17.8218 113.052 17.5699C113.038 17.8638 112.884 17.9407 112.639 17.8988C112.681 17.9477 112.716 17.9827 112.751 17.9967C112.87 18.0527 112.891 18.1367 112.835 18.2556C112.814 18.3046 112.772 18.3536 112.814 18.4166ZM115.312 18.4166C115.333 18.3956 115.333 18.3676 115.319 18.3466C115.2 18.1507 115.291 18.0317 115.466 17.9337C115.466 17.9337 115.466 17.9197 115.48 17.8848C115.214 17.9687 115.109 17.8148 115.067 17.5629C115.018 17.6888 115.004 17.8148 114.935 17.8638C114.865 17.9127 114.746 17.8918 114.62 17.8988C114.718 17.9687 114.816 18.0177 114.858 18.0877C114.9 18.1716 114.816 18.2626 114.795 18.3606C114.851 18.3886 114.893 18.3606 114.921 18.3256C115.025 18.2136 115.116 18.2416 115.207 18.3326C115.235 18.3606 115.27 18.3816 115.305 18.4096L115.312 18.4166ZM118.832 18.4166C118.979 18.2486 119.133 18.1926 119.336 18.3956C119.196 18.1437 119.315 18.0107 119.511 17.8918C119.224 17.9687 119.119 17.8288 119.084 17.5839C119.035 17.6888 119.021 17.8008 118.958 17.8638C118.888 17.9337 118.762 17.8638 118.65 17.9127C118.699 17.9477 118.727 17.9827 118.769 18.0037C118.888 18.0597 118.902 18.1437 118.853 18.2626C118.832 18.3116 118.79 18.3676 118.839 18.4236C118.839 18.4236 118.839 18.4236 118.832 18.4236C118.832 18.4236 118.832 18.4236 118.839 18.4236L118.832 18.4166ZM109.302 18.4166C109.302 18.4026 109.323 18.3816 109.316 18.3746C109.197 18.1647 109.288 18.0247 109.484 17.8778C109.183 17.9897 109.106 17.8008 109.043 17.5769C109.022 17.8498 108.882 17.9477 108.609 17.9057C108.882 18.0177 108.889 18.1926 108.756 18.4306C108.97 18.2999 109.152 18.2953 109.302 18.4166ZM114.305 15.8205C114.305 15.8205 114.319 15.8205 114.333 15.8135C114.333 15.8135 114.333 15.8135 114.333 15.8065C114.326 15.8135 114.319 15.8205 114.312 15.8275C114.312 15.8066 114.333 15.7856 114.326 15.7716C114.207 15.5616 114.291 15.4217 114.487 15.3237C114.487 15.3237 114.487 15.3167 114.487 15.2887C114.249 15.3447 114.095 15.2608 114.067 14.9739C114.046 15.2678 113.885 15.3377 113.598 15.2817C113.682 15.3447 113.717 15.3797 113.759 15.4007C113.878 15.4567 113.892 15.5407 113.843 15.6526C113.822 15.7016 113.78 15.7506 113.822 15.8135C113.822 15.8135 113.815 15.7996 113.808 15.7926L113.794 15.8065C113.794 15.8065 113.808 15.8065 113.822 15.8065C113.995 15.6759 114.158 15.6759 114.312 15.8065L114.305 15.8205ZM118.811 16.6602C118.979 16.5483 119.14 16.4783 119.329 16.6602C119.196 16.4293 119.287 16.2754 119.518 16.1564C119.231 16.2334 119.112 16.1074 119.07 15.8415C119.035 16.1144 118.895 16.2194 118.636 16.1564C118.72 16.2404 118.818 16.2824 118.867 16.3593C118.923 16.4503 118.804 16.5483 118.818 16.6602C118.818 16.6602 118.804 16.6672 118.804 16.6742C118.804 16.6742 118.811 16.6742 118.818 16.6742C118.818 16.6742 118.818 16.6602 118.818 16.6532L118.811 16.6602ZM115.326 16.6602C115.326 16.6602 115.326 16.6742 115.333 16.6742V16.6672C115.333 16.6672 115.326 16.6672 115.319 16.6672C115.221 16.4573 115.27 16.2964 115.487 16.1914C115.487 16.1914 115.487 16.1844 115.487 16.1564C115.228 16.2474 115.109 16.1074 115.053 15.8555C115.032 16.1424 114.879 16.2124 114.627 16.1774C114.844 16.2964 114.949 16.4433 114.774 16.6812C114.914 16.6602 114.97 16.5343 115.067 16.5273C115.165 16.5273 115.221 16.6602 115.333 16.6672L115.326 16.6602ZM112.8 16.6602C112.968 16.5413 113.129 16.4853 113.325 16.6602C113.192 16.4293 113.283 16.2754 113.5 16.1564C113.227 16.2124 113.087 16.1144 113.066 15.8345C113.031 16.1144 112.884 16.2124 112.611 16.1704C112.877 16.2684 112.891 16.4363 112.8 16.6462C112.8 16.6462 112.8 16.6532 112.8 16.6602C112.8 16.6602 112.786 16.6672 112.786 16.6742C112.786 16.6742 112.793 16.6742 112.8 16.6742C112.8 16.6742 112.8 16.6602 112.8 16.6532V16.6602ZM109.309 16.6602C109.309 16.6602 109.309 16.6742 109.316 16.6742V16.6672C109.316 16.6672 109.309 16.6672 109.302 16.6672C109.197 16.4503 109.274 16.2964 109.477 16.1564C109.204 16.2404 109.085 16.1004 109.036 15.8485C109.015 16.1354 108.861 16.2054 108.574 16.1494C108.7 16.2474 108.812 16.3034 108.84 16.3803C108.868 16.4573 108.798 16.5693 108.763 16.6952C108.875 16.6182 108.952 16.5343 109.036 16.5203C109.134 16.5063 109.19 16.6532 109.302 16.6602H109.309ZM108.805 13.2105C108.966 13.0706 109.127 13.0286 109.288 13.2105C109.288 13.2105 109.302 13.2105 109.337 13.2105C109.176 12.9796 109.253 12.8187 109.491 12.6927C109.204 12.7767 109.092 12.6298 109.05 12.3639C108.987 12.4898 109.001 12.6228 108.917 12.6787C108.84 12.7277 108.721 12.6717 108.581 12.7207C108.854 12.8047 108.896 12.9656 108.784 13.1756C108.784 13.1756 108.798 13.1895 108.798 13.1965C108.791 13.1965 108.784 13.1965 108.777 13.1965C108.777 13.1965 108.777 13.2105 108.777 13.2175C108.777 13.2175 108.784 13.2035 108.791 13.1965L108.805 13.2105ZM115.326 13.2035C115.326 13.2035 115.333 13.2105 115.34 13.2175V13.2105C115.34 13.2105 115.333 13.2105 115.326 13.2105C115.221 12.9936 115.291 12.8327 115.501 12.6997C115.235 12.7697 115.102 12.6508 115.06 12.3849C115.039 12.6787 114.886 12.7557 114.62 12.7137C114.893 12.8257 114.914 13.0076 114.788 13.2455C114.963 13.0356 115.137 13.0356 115.312 13.2105C115.312 13.2105 115.319 13.2105 115.326 13.2105V13.2035ZM112.8 20.1099C112.968 20.0049 113.129 19.928 113.304 20.1099C113.339 20.0049 113.22 19.914 113.262 19.823C113.304 19.7321 113.43 19.7111 113.507 19.5851C113.22 19.6831 113.108 19.5501 113.08 19.2632C113.024 19.4102 113.01 19.5361 112.94 19.5851C112.87 19.6341 112.744 19.6061 112.646 19.6131C112.898 19.7181 112.891 19.9 112.807 20.1099C112.807 20.1099 112.8 20.1239 112.793 20.1239C112.793 20.1239 112.8 20.1239 112.807 20.1239C112.807 20.1239 112.807 20.1099 112.807 20.1029L112.8 20.1099ZM118.811 20.1099C118.979 20.0049 119.14 19.928 119.329 20.1099C119.196 19.879 119.301 19.7321 119.518 19.6201C119.378 19.5921 119.259 19.6481 119.189 19.5851C119.126 19.5221 119.112 19.4032 119.07 19.2912C119.028 19.4032 119.014 19.5291 118.937 19.5851C118.867 19.6341 118.741 19.6061 118.643 19.6131C118.895 19.7181 118.888 19.9 118.804 20.1029L118.79 20.1169C118.79 20.1169 118.797 20.1169 118.804 20.1169C118.804 20.1169 118.804 20.1029 118.804 20.0959L118.811 20.1099ZM109.309 20.1099C109.309 20.1099 109.309 20.1239 109.309 20.1309V20.1239C109.309 20.1239 109.302 20.1239 109.295 20.1169C109.211 19.914 109.225 19.746 109.449 19.6481C109.449 19.6481 109.449 19.6271 109.449 19.5991C109.19 19.6901 109.085 19.5361 109.029 19.2982C109.008 19.5711 108.861 19.6621 108.595 19.6201C108.868 19.7391 108.882 19.921 108.763 20.1589C108.931 19.949 109.099 19.935 109.274 20.1169C109.274 20.1169 109.295 20.1169 109.302 20.1169L109.309 20.1099ZM115.326 20.1099C115.326 20.1099 115.326 20.1239 115.326 20.1309V20.1239C115.326 20.1239 115.319 20.1239 115.312 20.1169C115.221 19.914 115.249 19.746 115.466 19.6481C115.466 19.6481 115.466 19.6271 115.466 19.5921C115.186 19.7181 115.109 19.5221 115.039 19.2982C115.039 19.6061 114.865 19.6551 114.62 19.6271C114.851 19.7391 114.928 19.893 114.767 20.1239C114.907 20.1099 114.963 19.984 115.053 19.977C115.151 19.977 115.2 20.1169 115.319 20.1169L115.326 20.1099ZM115.319 14.9599C115.319 14.9389 115.333 14.9179 115.326 14.9039C115.207 14.694 115.291 14.561 115.48 14.4701C115.48 14.4701 115.48 14.4561 115.48 14.4281C115.221 14.512 115.109 14.3721 115.074 14.0922C115.018 14.2322 115.011 14.3441 114.949 14.4071C114.879 14.4841 114.746 14.4071 114.641 14.4491C114.725 14.512 114.83 14.561 114.872 14.638C114.914 14.722 114.823 14.8129 114.809 14.9039C114.858 14.9249 114.9 14.9039 114.928 14.8759C115.039 14.75 115.144 14.7849 115.242 14.8899C115.27 14.9179 115.298 14.9389 115.326 14.9599H115.319ZM109.302 14.9599C109.302 14.9389 109.323 14.9179 109.316 14.9039C109.204 14.694 109.281 14.561 109.47 14.4701C109.47 14.4701 109.47 14.4561 109.47 14.4281C109.211 14.512 109.099 14.3791 109.05 14.1202C109.022 14.3931 108.882 14.498 108.616 14.4421C108.819 14.561 108.952 14.687 108.777 14.9109C108.847 14.9389 108.889 14.9109 108.917 14.8759C109.015 14.7709 109.099 14.7849 109.197 14.8759C109.232 14.9109 109.267 14.9319 109.309 14.9669L109.302 14.9599ZM109.617 17.0381C109.875 17.143 109.903 17.318 109.749 17.5699C109.882 17.4859 109.966 17.3879 110.057 17.3809C110.141 17.3809 110.225 17.4789 110.316 17.5349C110.316 17.4159 110.211 17.318 110.253 17.234C110.295 17.15 110.4 17.1011 110.477 17.0381C110.204 17.0871 110.092 16.9541 110.064 16.6672C109.985 16.8958 109.836 17.0194 109.617 17.0381ZM116.544 17.0451C116.383 17.0031 116.257 17.0661 116.18 16.9961C116.103 16.9331 116.124 16.8002 116.047 16.6952C116.047 16.9821 115.893 17.0801 115.62 17.0311C115.893 17.143 115.914 17.318 115.795 17.5559C115.977 17.353 116.152 17.339 116.341 17.5559C116.222 17.318 116.25 17.15 116.551 17.0451H116.544ZM118.524 17.0241C118.305 17.0241 118.149 16.9075 118.055 16.6742C118.041 16.9751 117.901 17.0801 117.629 17.0311C117.887 17.143 117.915 17.318 117.782 17.5699C117.908 17.4859 117.992 17.3879 118.076 17.3879C118.16 17.3879 118.244 17.4929 118.349 17.5559C118.321 17.4369 118.251 17.325 118.279 17.241C118.307 17.157 118.426 17.1081 118.531 17.0241H118.524ZM111.051 14.1132C111.023 14.3931 110.876 14.4841 110.61 14.4421C110.869 14.554 110.904 14.722 110.778 14.9599C110.967 14.757 111.135 14.757 111.324 14.9599C111.177 14.715 111.254 14.561 111.485 14.4421C111.205 14.498 111.079 14.3791 111.044 14.1132H111.051ZM116.628 14.4491C116.915 14.554 116.894 14.743 116.803 14.9739C116.985 14.729 117.16 14.7779 117.342 14.9599C117.216 14.722 117.251 14.554 117.51 14.4421C117.23 14.498 117.104 14.3791 117.069 14.1062C117.034 14.3651 116.915 14.498 116.628 14.4421V14.4491ZM112.059 16.6882C112.038 16.9821 111.891 17.0731 111.618 17.0241C111.87 17.143 111.919 17.311 111.793 17.5629C111.982 17.311 112.15 17.3809 112.339 17.5489C112.178 17.304 112.269 17.143 112.506 17.0241C112.227 17.0801 112.087 16.9751 112.059 16.6882ZM115.795 14.0992C115.984 13.8963 116.152 13.8893 116.341 14.0992C116.201 13.8543 116.278 13.6934 116.516 13.5674C116.229 13.6374 116.11 13.5044 116.068 13.2385C116.047 13.5254 115.907 13.6234 115.627 13.5674C115.879 13.6864 115.942 13.8543 115.802 14.0992H115.795ZM110.533 13.5744C110.372 13.5604 110.246 13.5884 110.176 13.5394C110.106 13.4834 110.092 13.3575 110.036 13.2035C110.029 13.5184 109.889 13.6234 109.603 13.5674C109.896 13.6724 109.896 13.8613 109.763 14.1062C109.889 14.0222 109.973 13.9383 110.064 13.9243C110.155 13.9103 110.218 14.0432 110.365 14.0852C110.162 13.8333 110.281 13.6934 110.533 13.5744ZM111.618 13.5744C111.877 13.6864 111.905 13.8613 111.786 14.0992C111.975 13.8963 112.15 13.8963 112.339 14.0992C112.178 13.8473 112.276 13.6864 112.499 13.5604C112.213 13.6374 112.101 13.5044 112.052 13.2455C112.031 13.5324 111.884 13.6234 111.618 13.5744ZM117.803 14.0992C117.992 13.8683 118.16 13.9243 118.356 14.0992C118.188 13.8473 118.3 13.7004 118.524 13.5674C118.23 13.6514 118.118 13.5114 118.076 13.2525C118.048 13.5324 117.908 13.6304 117.635 13.5814C117.88 13.7004 117.943 13.8613 117.81 14.1062L117.803 14.0992ZM117.356 20.1519C117.181 19.9 117.293 19.746 117.517 19.5991C117.209 19.7111 117.125 19.5221 117.069 19.2912C117.048 19.5711 116.901 19.6621 116.628 19.6201C116.908 19.7251 116.908 19.907 116.81 20.1449C116.999 19.921 117.167 19.949 117.356 20.1449V20.1519ZM111.331 20.1449C111.184 19.893 111.275 19.7391 111.506 19.6061C111.198 19.7041 111.107 19.5361 111.058 19.2912C111.03 19.5641 110.897 19.6761 110.617 19.6201C110.883 19.7321 110.904 19.914 110.792 20.1449C110.974 19.949 111.142 19.921 111.338 20.1449H111.331ZM116.796 16.6952C116.985 16.4923 117.153 16.4853 117.342 16.6952C117.202 16.4503 117.272 16.2824 117.517 16.1564C117.223 16.2404 117.104 16.1004 117.062 15.8345C117.034 16.1074 116.894 16.2194 116.614 16.1634C116.873 16.2824 116.915 16.4503 116.789 16.6952H116.796ZM113.626 13.5674C113.871 13.6934 113.927 13.8613 113.78 14.1062C113.969 13.8963 114.144 13.8893 114.34 14.1062C114.172 13.8543 114.263 13.7004 114.494 13.5744C114.228 13.6234 114.088 13.5324 114.053 13.2595C114.011 13.5254 113.892 13.6374 113.619 13.5744L113.626 13.5674ZM112.8 14.9529C112.968 14.7709 113.129 14.75 113.318 14.9389C113.192 14.694 113.29 14.554 113.5 14.4421C113.227 14.498 113.094 14.3931 113.066 14.1202C113.031 14.3931 112.891 14.4911 112.618 14.4491C112.884 14.554 112.905 14.729 112.8 14.9599V14.9529ZM119.511 14.4421C119.245 14.498 119.105 14.3931 119.098 14.1132C119.007 14.2182 119.035 14.3511 118.951 14.4141C118.874 14.4771 118.748 14.4141 118.615 14.4631C118.895 14.554 118.916 14.729 118.811 14.9599C118.979 14.7709 119.14 14.7569 119.343 14.9389C119.161 14.673 119.329 14.561 119.511 14.4421ZM111.324 16.7092C111.324 16.5553 111.219 16.4643 111.261 16.3663C111.296 16.2754 111.429 16.2544 111.506 16.1354C111.219 16.2264 111.093 16.1004 111.058 15.8275C111.037 16.1214 110.883 16.2054 110.61 16.1704C110.89 16.2754 110.897 16.4573 110.792 16.6952C110.974 16.4783 111.149 16.4923 111.324 16.7092ZM114.06 16.7162C114.039 17.0101 113.871 17.0591 113.626 17.0381C113.864 17.15 113.941 17.297 113.787 17.5349C113.969 17.3879 114.137 17.339 114.326 17.5349C114.158 17.276 114.326 17.157 114.494 17.0241C114.228 17.0871 114.095 16.9821 114.053 16.7162H114.06ZM113.521 12.6787C113.227 12.7697 113.094 12.6577 113.073 12.3639C113.017 12.5108 113.003 12.6368 112.933 12.6857C112.863 12.7347 112.737 12.7067 112.639 12.7067C112.912 12.8117 112.891 13.0076 112.793 13.2385C112.982 13.0146 113.157 13.0286 113.332 13.2385C113.311 13.1196 113.248 13.0146 113.262 12.9236C113.276 12.8257 113.423 12.8047 113.528 12.6717L113.521 12.6787ZM118.797 13.2455C118.986 13.0146 119.168 13.0426 119.357 13.2455C119.203 13.0006 119.266 12.8397 119.518 12.7137C119.252 12.7627 119.105 12.6717 119.077 12.3919C119.035 12.6647 118.909 12.7767 118.629 12.7137C118.888 12.8327 118.93 13.0076 118.797 13.2525V13.2455ZM110.61 12.7067C110.855 12.8257 110.911 12.9866 110.785 13.2245C110.89 13.1686 110.974 13.0636 111.051 13.0636C111.135 13.0636 111.219 13.1616 111.303 13.2175C111.17 12.9796 111.268 12.8257 111.506 12.7137C111.366 12.6857 111.24 12.7487 111.17 12.6717C111.107 12.6088 111.093 12.4898 111.037 12.3429C111.016 12.6438 110.897 12.7697 110.61 12.7067ZM116.803 13.2315C116.901 13.1616 116.985 13.0636 117.062 13.0636C117.153 13.0636 117.237 13.1616 117.335 13.2175C117.335 13.0986 117.23 13.0006 117.272 12.9097C117.314 12.8257 117.419 12.7767 117.496 12.7137C117.223 12.7627 117.097 12.6438 117.062 12.3639C117.041 12.6508 116.894 12.7487 116.593 12.6787C116.712 12.7767 116.831 12.8257 116.859 12.9027C116.887 12.9866 116.824 13.0986 116.796 13.2245L116.803 13.2315ZM111.758 19.2772C111.905 19.2352 111.968 19.1023 112.066 19.1163C112.157 19.1303 112.234 19.2212 112.311 19.2772C112.164 19.0393 112.269 18.8854 112.492 18.7594C112.213 18.8294 112.094 18.6964 112.052 18.4375C112.024 18.7174 111.884 18.8224 111.611 18.7664C111.849 18.8784 111.926 19.0323 111.758 19.2842V19.2772ZM115.788 19.2912C115.97 19.0743 116.145 19.0813 116.334 19.2772C116.18 19.0253 116.285 18.8784 116.509 18.7524C116.222 18.8224 116.103 18.6964 116.061 18.4236C116.04 18.7174 115.893 18.8084 115.62 18.7664C115.893 18.8784 115.914 19.0533 115.788 19.2982V19.2912ZM113.633 18.7524C113.801 18.9017 113.85 19.0813 113.78 19.2912C113.885 19.2212 113.955 19.1373 114.039 19.1163C114.144 19.0883 114.2 19.2352 114.333 19.2562C114.193 19.0253 114.263 18.8714 114.501 18.7594C114.228 18.8154 114.088 18.7174 114.053 18.4375C114.018 18.7104 113.885 18.8154 113.626 18.7524H113.633ZM109.784 19.2912C109.966 19.0533 110.134 19.0883 110.33 19.2772C110.183 19.0323 110.274 18.8784 110.505 18.7524C110.218 18.8294 110.099 18.6895 110.05 18.4306C110.022 18.7104 109.882 18.8014 109.617 18.7594C109.882 18.8714 109.917 19.0463 109.791 19.2912H109.784ZM118.062 14.9669C118.062 15.2818 117.88 15.3307 117.621 15.3097C117.908 15.4077 117.908 15.5896 117.803 15.8205C117.992 15.5966 118.16 15.6386 118.349 15.8205C118.202 15.5826 118.265 15.4147 118.517 15.2957C118.237 15.3587 118.118 15.2328 118.069 14.9669H118.062ZM116.509 15.3027C116.383 15.2957 116.25 15.3237 116.187 15.2678C116.117 15.2118 116.11 15.0788 116.075 14.9879C116.04 15.2468 115.907 15.3587 115.627 15.3027C115.893 15.4147 115.921 15.5896 115.802 15.8345C115.984 15.5966 116.152 15.6316 116.334 15.8345C116.292 15.606 116.353 15.4287 116.516 15.3027H116.509ZM112.499 15.3027C112.227 15.3517 112.087 15.2468 112.052 14.9599C112.052 15.2678 111.884 15.3447 111.618 15.3027C111.856 15.4217 111.926 15.5756 111.786 15.8205C111.975 15.6106 112.15 15.6316 112.332 15.8205C112.185 15.5756 112.255 15.4217 112.492 15.3027H112.499ZM110.323 15.8135C110.295 15.6946 110.232 15.5896 110.26 15.5127C110.288 15.4287 110.407 15.3797 110.484 15.3167C110.211 15.3727 110.099 15.2328 110.05 14.9739C110.029 15.2608 109.882 15.3517 109.61 15.3097C109.882 15.4217 109.903 15.5966 109.756 15.8345C109.957 15.7133 110.144 15.7063 110.316 15.8135H110.323ZM117.496 17.8918C117.23 17.9547 117.104 17.8288 117.069 17.5629C117.048 17.8428 116.894 17.9337 116.635 17.9057C116.929 18.0037 116.901 18.1926 116.81 18.4166C116.992 18.1926 117.16 18.2276 117.342 18.4306C117.295 18.202 117.346 18.0224 117.496 17.8918ZM118.062 18.4375C118.034 18.6964 117.908 18.8224 117.621 18.7594C117.873 18.8714 117.922 19.0393 117.803 19.2842C117.985 19.0743 118.146 19.0883 118.328 19.2842C118.195 19.0393 118.279 18.8854 118.524 18.7804C118.291 18.7524 118.137 18.6405 118.062 18.4445V18.4375ZM110.785 18.4166C110.974 18.2136 111.142 18.2066 111.331 18.4166C111.198 18.1786 111.254 18.0107 111.499 17.8848C111.198 17.9687 111.107 17.8078 111.058 17.5629C111.03 17.8288 110.897 17.9477 110.617 17.8988C110.897 18.0037 110.897 18.1856 110.785 18.4166Z" fill="#022765"/>
<path d="M108.014 20.6207C111.982 20.6207 115.949 20.6207 119.917 20.6207C119.98 20.6207 120.043 20.6207 120.106 20.6207C120.162 20.6207 120.217 20.6207 120.28 20.6207C121.729 20.6207 123.177 20.6207 124.619 20.6207C129.16 20.6207 133.701 20.6207 138.243 20.6207V21.8593C138.187 21.8593 138.131 21.8593 138.068 21.8593C128.111 21.8593 118.146 21.8593 108.189 21.8593C108.133 21.8593 108.077 21.8593 108.014 21.8593V20.6207Z" fill="#FEFDFD"/>
<path d="M108.014 26.7644C108.014 26.3516 108.014 25.9387 108.014 25.5259C108.077 25.5259 108.14 25.5259 108.203 25.5259C118.153 25.5259 128.104 25.5259 138.054 25.5259C138.117 25.5259 138.18 25.5259 138.243 25.5259V26.7644C138.194 26.7644 138.152 26.7644 138.103 26.7644C128.124 26.7644 118.139 26.7644 108.161 26.7644C108.112 26.7644 108.07 26.7644 108.021 26.7644H108.014Z" fill="#FEFDFD"/>
<path d="M108.014 26.7644C108.063 26.7644 108.105 26.7644 108.154 26.7644C118.132 26.7644 128.117 26.7644 138.096 26.7644C138.145 26.7644 138.186 26.7644 138.235 26.7644C138.235 27.1492 138.235 27.5341 138.235 27.9189C138.235 27.9889 138.221 28.0099 138.152 27.9959C138.131 27.9959 138.11 27.9959 138.089 27.9959C128.11 27.9959 118.125 27.9959 108.147 27.9959C108.028 27.9959 108 27.9679 108 27.849C108.007 27.4851 108 27.1212 108 26.7574L108.014 26.7644Z" fill="#BB1540"/>
<path d="M138.243 25.5328C138.18 25.5328 138.117 25.5328 138.054 25.5328C128.104 25.5328 118.153 25.5328 108.203 25.5328C108.14 25.5328 108.077 25.5328 108.014 25.5328C108.014 25.12 108.014 24.7072 108.014 24.2943C108.07 24.2943 108.126 24.3083 108.182 24.3083C118.146 24.3083 128.104 24.3083 138.068 24.3083C138.124 24.3083 138.18 24.3013 138.236 24.2943V25.5328H138.243Z" fill="#BB1540"/>
<path d="M108.014 21.8593C108.07 21.8593 108.126 21.8593 108.189 21.8593C118.146 21.8593 128.111 21.8593 138.068 21.8593C138.124 21.8593 138.18 21.8593 138.243 21.8593V23.0978C138.18 23.0978 138.117 23.0908 138.054 23.0908C128.104 23.0908 118.153 23.0908 108.203 23.0908C108.14 23.0908 108.077 23.0908 108.014 23.0978C108.014 22.6849 108.014 22.2721 108.014 21.8593Z" fill="#BB1540"/>
<path d="M108.014 23.0908C108.077 23.0908 108.14 23.0838 108.203 23.0838C118.153 23.0838 128.104 23.0838 138.054 23.0838C138.117 23.0838 138.18 23.0838 138.243 23.0908V24.2943C138.187 24.2943 138.131 24.3083 138.075 24.3083C128.111 24.3083 118.153 24.3083 108.189 24.3083C108.133 24.3083 108.077 24.3013 108.021 24.2943C108.021 23.8955 108.021 23.4896 108.021 23.0908H108.014Z" fill="#FEFDFD"/>
<path d="M120.112 13.2385C120.112 12.8257 120.112 12.4199 120.112 12.007C126.109 12.007 132.106 12.007 138.102 12.007C138.221 12.007 138.249 12.035 138.249 12.154C138.242 12.5178 138.249 12.8817 138.249 13.2455C138.214 13.2455 138.179 13.2455 138.137 13.2455C132.134 13.2455 126.123 13.2455 120.119 13.2455L120.112 13.2385Z" fill="#BB1540"/>
<path d="M138.243 20.6207C133.701 20.6207 129.16 20.6207 124.619 20.6207C123.17 20.6207 121.722 20.6207 120.28 20.6207C120.224 20.6207 120.168 20.6207 120.105 20.6207C120.105 20.2078 120.105 19.802 120.105 19.3892C122.212 19.3892 124.325 19.3892 126.431 19.3892C130.364 19.3892 134.303 19.3892 138.236 19.3892V20.6277L138.243 20.6207Z" fill="#BB1540"/>
<path d="M138.242 19.3822C134.31 19.3822 130.37 19.3822 126.438 19.3822C124.332 19.3822 122.219 19.3822 120.112 19.3822C120.112 18.9693 120.112 18.5635 120.112 18.1506C126.088 18.1506 132.064 18.1506 138.039 18.1506C138.109 18.1506 138.172 18.1506 138.242 18.1506V19.3892V19.3822Z" fill="#FEFDFD"/>
<path d="M138.242 18.1507C138.172 18.1507 138.109 18.1507 138.039 18.1507C132.064 18.1507 126.088 18.1507 120.112 18.1507C120.112 17.7379 120.112 17.332 120.112 16.9192C126.116 16.9192 132.127 16.9192 138.13 16.9192C138.165 16.9192 138.2 16.9192 138.242 16.9122V18.1507Z" fill="#BB1540"/>
<path d="M120.112 15.7016C120.112 15.2888 120.112 14.8829 120.112 14.4701C126.088 14.4701 132.064 14.4701 138.039 14.4701C138.109 14.4701 138.172 14.4701 138.242 14.4701V15.7086C138.186 15.7086 138.13 15.6946 138.074 15.6946C137.585 15.6946 137.088 15.6946 136.598 15.6946C131.105 15.6946 125.612 15.6946 120.119 15.6946L120.112 15.7016Z" fill="#BB1540"/>
<path d="M138.242 14.4771C138.172 14.4771 138.109 14.4771 138.039 14.4771C132.064 14.4771 126.088 14.4771 120.112 14.4771C120.112 14.0642 120.112 13.6584 120.112 13.2455C126.116 13.2455 132.127 13.2455 138.13 13.2455C138.165 13.2455 138.2 13.2455 138.242 13.2455V14.4841V14.4771Z" fill="#FEFDFD"/>
<path d="M120.112 15.7016C125.605 15.7016 131.098 15.7016 136.591 15.7016C137.081 15.7016 137.578 15.7016 138.068 15.7016C138.124 15.7016 138.18 15.7086 138.236 15.7156V16.9191C138.201 16.9191 138.166 16.9261 138.124 16.9261C132.12 16.9261 126.109 16.9261 120.105 16.9261C120.105 16.5203 120.105 16.1074 120.105 15.7016H120.112Z" fill="#FEFDFD"/>
<path d="M109.616 17.0381C109.831 17.0194 109.98 16.8958 110.064 16.6672C110.092 16.9541 110.211 17.0871 110.477 17.0381C110.4 17.1011 110.295 17.1571 110.253 17.234C110.211 17.318 110.309 17.416 110.316 17.5349C110.225 17.4719 110.141 17.374 110.057 17.381C109.966 17.381 109.882 17.4789 109.749 17.5699C109.903 17.318 109.875 17.1431 109.616 17.0381Z" fill="#FEFDFD"/>
<path d="M116.543 17.0451C116.25 17.1501 116.215 17.318 116.334 17.5559C116.145 17.346 115.977 17.36 115.788 17.5559C115.907 17.318 115.886 17.1431 115.613 17.0311C115.886 17.0731 116.033 16.9821 116.04 16.6953C116.124 16.8002 116.103 16.9332 116.173 16.9961C116.25 17.0661 116.376 16.9961 116.536 17.0451H116.543Z" fill="#FEFDFD"/>
<path d="M118.524 17.0241C118.419 17.108 118.3 17.164 118.272 17.241C118.244 17.3249 118.314 17.4369 118.342 17.5559C118.244 17.4859 118.16 17.3879 118.069 17.3879C117.985 17.3879 117.901 17.4859 117.775 17.5699C117.908 17.3249 117.88 17.143 117.621 17.0311C117.901 17.08 118.034 16.9751 118.048 16.6742C118.141 16.9028 118.298 17.0194 118.517 17.0241H118.524Z" fill="#FEFDFD"/>
<path d="M111.051 14.1132C111.086 14.3791 111.212 14.4981 111.492 14.4421C111.254 14.5611 111.184 14.715 111.331 14.9599C111.142 14.764 110.967 14.757 110.785 14.9599C110.911 14.722 110.876 14.5541 110.617 14.4421C110.883 14.4841 111.03 14.3931 111.058 14.1132H111.051Z" fill="#FEFDFD"/>
<path d="M116.628 14.4491C116.915 14.5051 117.027 14.3721 117.069 14.1132C117.104 14.3791 117.237 14.4981 117.51 14.4491C117.251 14.5611 117.209 14.729 117.342 14.9669C117.153 14.785 116.985 14.736 116.803 14.9809C116.901 14.743 116.915 14.561 116.628 14.4561V14.4491Z" fill="#FEFDFD"/>
<path d="M112.059 16.6882C112.087 16.9751 112.226 17.0731 112.506 17.0241C112.268 17.1431 112.177 17.304 112.338 17.5489C112.149 17.381 111.975 17.311 111.793 17.5629C111.912 17.311 111.87 17.1431 111.618 17.0241C111.891 17.0731 112.045 16.9751 112.059 16.6882Z" fill="#FEFDFD"/>
<path d="M115.795 14.0992C115.935 13.8543 115.872 13.6934 115.62 13.5674C115.9 13.6234 116.04 13.5184 116.061 13.2385C116.103 13.4974 116.222 13.6374 116.509 13.5674C116.271 13.6934 116.194 13.8543 116.334 14.0992C116.145 13.8963 115.977 13.8963 115.788 14.0992H115.795Z" fill="#FEFDFD"/>
<path d="M110.533 13.5744C110.281 13.6933 110.162 13.8333 110.365 14.0852C110.211 14.0502 110.148 13.9172 110.064 13.9242C109.973 13.9382 109.889 14.0222 109.763 14.1061C109.896 13.8612 109.896 13.6723 109.603 13.5674C109.889 13.6163 110.029 13.5184 110.036 13.2035C110.092 13.3574 110.106 13.4834 110.176 13.5394C110.246 13.5883 110.372 13.5604 110.533 13.5744Z" fill="#FEFDFD"/>
<path d="M111.618 13.5744C111.884 13.6234 112.031 13.5324 112.052 13.2455C112.1 13.5044 112.219 13.6374 112.499 13.5604C112.268 13.6934 112.177 13.8473 112.338 14.0992C112.149 13.8893 111.975 13.8893 111.786 14.0992C111.905 13.8613 111.877 13.6864 111.618 13.5744Z" fill="#FEFDFD"/>
<path d="M117.803 14.0992C117.936 13.8543 117.873 13.6934 117.628 13.5744C117.901 13.6234 118.041 13.5254 118.069 13.2455C118.111 13.5114 118.223 13.6514 118.517 13.5604C118.293 13.6934 118.181 13.8403 118.349 14.0922C118.16 13.9173 117.985 13.8683 117.796 14.0922L117.803 14.0992Z" fill="#FEFDFD"/>
<path d="M109.302 14.9599C109.267 14.9319 109.225 14.9039 109.19 14.8689C109.099 14.778 109.008 14.764 108.91 14.8689C108.882 14.9039 108.84 14.9319 108.77 14.9039C108.945 14.68 108.812 14.5541 108.609 14.4351C108.875 14.4911 109.015 14.3861 109.043 14.1132C109.085 14.3721 109.204 14.5051 109.463 14.4211C109.463 14.4491 109.463 14.4631 109.463 14.4631C109.267 14.5541 109.19 14.694 109.309 14.8969C109.316 14.9109 109.309 14.9319 109.295 14.9529L109.302 14.9599Z" fill="#FEFDFD"/>
<path d="M117.356 20.1519C117.16 19.949 116.992 19.921 116.81 20.1519C116.908 19.921 116.908 19.7321 116.628 19.6271C116.901 19.6691 117.048 19.5711 117.069 19.2982C117.132 19.5291 117.209 19.7181 117.517 19.6061C117.293 19.746 117.181 19.9 117.356 20.1589V20.1519Z" fill="#FEFDFD"/>
<path d="M111.331 20.1449C111.142 19.921 110.974 19.9559 110.785 20.1449C110.904 19.907 110.876 19.732 110.61 19.6201C110.89 19.6691 111.023 19.5641 111.051 19.2912C111.1 19.5361 111.191 19.704 111.499 19.6061C111.275 19.739 111.177 19.893 111.324 20.1449H111.331Z" fill="#FEFDFD"/>
<path d="M115.319 14.9599C115.319 14.9599 115.263 14.9179 115.235 14.8899C115.13 14.792 115.032 14.75 114.92 14.8759C114.892 14.9039 114.85 14.9319 114.801 14.9039C114.822 14.8129 114.906 14.715 114.864 14.638C114.822 14.561 114.717 14.5121 114.633 14.4491C114.745 14.4071 114.871 14.4841 114.941 14.4071C115.004 14.3441 115.018 14.2322 115.067 14.0922C115.102 14.3721 115.214 14.5121 115.473 14.4281C115.473 14.4561 115.473 14.4701 115.473 14.4701C115.284 14.568 115.2 14.701 115.319 14.9039C115.326 14.9179 115.319 14.9389 115.312 14.9599H115.319Z" fill="#FEFDFD"/>
<path d="M116.796 16.6952C116.921 16.4503 116.88 16.2824 116.621 16.1634C116.9 16.2194 117.04 16.1074 117.068 15.8345C117.11 16.0934 117.229 16.2404 117.523 16.1564C117.271 16.2824 117.208 16.4503 117.348 16.6952C117.159 16.4853 116.984 16.4923 116.803 16.6952H116.796Z" fill="#FEFDFD"/>
<path d="M113.626 13.5674C113.899 13.6374 114.018 13.5184 114.06 13.2525C114.095 13.5254 114.235 13.6164 114.501 13.5674C114.27 13.6933 114.179 13.8543 114.347 14.0992C114.151 13.8823 113.976 13.8893 113.787 14.0992C113.927 13.8543 113.871 13.6863 113.633 13.5604L113.626 13.5674Z" fill="#FEFDFD"/>
<path d="M112.8 14.9529C112.905 14.722 112.884 14.5541 112.618 14.4421C112.884 14.4841 113.031 14.3791 113.066 14.1132C113.094 14.3861 113.227 14.4911 113.5 14.4351C113.29 14.5471 113.192 14.687 113.318 14.9319C113.129 14.743 112.968 14.764 112.8 14.9459V14.9529Z" fill="#FEFDFD"/>
<path d="M119.51 14.4421C119.328 14.5611 119.161 14.673 119.342 14.9389C119.14 14.757 118.979 14.771 118.811 14.9599C118.923 14.722 118.895 14.5541 118.615 14.4631C118.748 14.4141 118.874 14.4771 118.951 14.4141C119.028 14.3511 119.007 14.2182 119.098 14.1132C119.112 14.3931 119.245 14.4911 119.51 14.4421Z" fill="#FEFDFD"/>
<path d="M111.324 16.7092C111.149 16.4923 110.974 16.4713 110.792 16.6952C110.897 16.4573 110.89 16.2753 110.61 16.1704C110.883 16.2054 111.037 16.1214 111.058 15.8275C111.093 16.1004 111.219 16.2194 111.506 16.1354C111.429 16.2544 111.303 16.2753 111.261 16.3663C111.219 16.4643 111.317 16.5622 111.324 16.7092Z" fill="#FEFDFD"/>
<path d="M114.06 16.7162C114.102 16.9821 114.228 17.087 114.5 17.0241C114.326 17.157 114.165 17.276 114.333 17.5349C114.144 17.3459 113.976 17.3949 113.794 17.5349C113.941 17.297 113.864 17.15 113.633 17.0381C113.878 17.0661 114.053 17.0101 114.067 16.7162H114.06Z" fill="#FEFDFD"/>
<path d="M113.521 12.6787C113.416 12.8047 113.269 12.8327 113.255 12.9306C113.241 13.0216 113.304 13.1266 113.325 13.2455C113.15 13.0356 112.975 13.0216 112.786 13.2455C112.884 13.0146 112.905 12.8187 112.632 12.7137C112.73 12.7137 112.856 12.7417 112.926 12.6927C112.996 12.6437 113.01 12.5108 113.066 12.3708C113.087 12.6647 113.22 12.7767 113.514 12.6857L113.521 12.6787Z" fill="#FEFDFD"/>
<path d="M115.326 20.1099C115.214 20.1099 115.158 19.9629 115.06 19.9699C114.969 19.9699 114.906 20.1029 114.773 20.1169C114.934 19.886 114.857 19.739 114.626 19.6201C114.878 19.6481 115.053 19.5991 115.046 19.2912C115.116 19.5221 115.193 19.718 115.473 19.5851C115.473 19.6201 115.473 19.6411 115.473 19.6411C115.249 19.739 115.228 19.907 115.319 20.1099H115.326Z" fill="#FEFDFD"/>
<path d="M109.308 20.1099C109.308 20.1099 109.287 20.1169 109.28 20.1099C109.105 19.928 108.944 19.942 108.77 20.1519C108.888 19.914 108.874 19.732 108.602 19.6131C108.867 19.6551 109.007 19.5641 109.035 19.2912C109.091 19.5291 109.196 19.683 109.455 19.5921C109.455 19.6201 109.455 19.6411 109.455 19.6411C109.231 19.739 109.217 19.907 109.301 20.1099H109.308Z" fill="#FEFDFD"/>
<path d="M118.818 20.1169C118.895 19.914 118.902 19.7321 118.657 19.6271C118.755 19.6271 118.881 19.6481 118.951 19.5991C119.021 19.5501 119.035 19.4172 119.084 19.3052C119.126 19.4172 119.14 19.5361 119.203 19.5991C119.273 19.6621 119.391 19.6061 119.531 19.6341C119.314 19.7461 119.21 19.893 119.342 20.1239C119.154 19.942 118.986 20.012 118.825 20.1239L118.818 20.1169Z" fill="#FEFDFD"/>
<path d="M112.8 20.1169C112.877 19.914 112.884 19.7321 112.639 19.6201C112.737 19.6201 112.863 19.6411 112.933 19.5921C113.003 19.5432 113.017 19.4102 113.073 19.2703C113.094 19.5572 113.213 19.6901 113.5 19.5921C113.423 19.7181 113.297 19.7391 113.255 19.83C113.213 19.921 113.332 20.012 113.297 20.1169C113.129 19.935 112.961 20.012 112.793 20.1169H112.8Z" fill="#FEFDFD"/>
<path d="M118.797 13.2455C118.93 13.0006 118.888 12.8257 118.629 12.7067C118.909 12.7697 119.042 12.6507 119.077 12.3848C119.105 12.6717 119.252 12.7557 119.518 12.7067C119.266 12.8257 119.203 12.9936 119.357 13.2385C119.168 13.0426 118.986 13.0076 118.797 13.2385V13.2455Z" fill="#FEFDFD"/>
<path d="M110.61 12.7067C110.897 12.7767 111.016 12.6437 111.037 12.3428C111.093 12.4898 111.107 12.6087 111.17 12.6717C111.24 12.7417 111.366 12.6787 111.506 12.7137C111.268 12.8256 111.17 12.9796 111.303 13.2175C111.219 13.1615 111.135 13.0636 111.051 13.0636C110.967 13.0636 110.89 13.1615 110.785 13.2245C110.911 12.9936 110.862 12.8256 110.61 12.7067Z" fill="#FEFDFD"/>
<path d="M116.803 13.2315C116.831 13.1056 116.894 12.9936 116.866 12.9096C116.838 12.8327 116.726 12.7837 116.6 12.6857C116.9 12.7557 117.047 12.6577 117.068 12.3708C117.103 12.6437 117.229 12.7697 117.502 12.7207C117.425 12.7837 117.313 12.8327 117.278 12.9166C117.236 13.0006 117.334 13.1056 117.341 13.2245C117.243 13.1615 117.152 13.0706 117.068 13.0706C116.984 13.0706 116.907 13.1685 116.81 13.2385L116.803 13.2315Z" fill="#FEFDFD"/>
<path d="M115.326 13.2036H115.312C115.137 13.0286 114.97 13.0356 114.788 13.2385C114.914 13.0006 114.893 12.8257 114.62 12.7067C114.886 12.7487 115.039 12.6648 115.06 12.3779C115.102 12.6508 115.228 12.7697 115.501 12.6927C115.291 12.8257 115.221 12.9866 115.326 13.2036Z" fill="#FEFDFD"/>
<path d="M108.805 13.2106C108.805 13.2106 108.784 13.1896 108.791 13.1896C108.903 12.9796 108.861 12.8187 108.588 12.7347C108.728 12.6858 108.847 12.7417 108.924 12.6927C109.008 12.6368 108.994 12.5038 109.057 12.3779C109.099 12.6438 109.204 12.7907 109.498 12.7067C109.26 12.8327 109.183 12.9936 109.344 13.2245C109.309 13.2245 109.295 13.2245 109.295 13.2245C109.134 13.0356 108.973 13.0776 108.812 13.2245L108.805 13.2106Z" fill="#FEFDFD"/>
<path d="M109.309 16.6602C109.197 16.6532 109.141 16.5063 109.043 16.5203C108.959 16.5342 108.882 16.6182 108.77 16.6952C108.805 16.5692 108.875 16.4573 108.847 16.3803C108.819 16.2963 108.7 16.2474 108.581 16.1494C108.861 16.2124 109.022 16.1424 109.043 15.8485C109.092 16.1004 109.211 16.2404 109.484 16.1564C109.281 16.2893 109.197 16.4503 109.309 16.6672V16.6602Z" fill="#FEFDFD"/>
<path d="M111.758 19.2772C111.926 19.0253 111.849 18.8784 111.611 18.7594C111.884 18.8084 112.024 18.7104 112.052 18.4305C112.094 18.6964 112.213 18.8224 112.493 18.7524C112.269 18.8784 112.164 19.0323 112.311 19.2702C112.227 19.2142 112.15 19.1233 112.066 19.1093C111.968 19.0953 111.905 19.2282 111.758 19.2702V19.2772Z" fill="#FEFDFD"/>
<path d="M112.8 16.6602V16.6462C112.891 16.4363 112.877 16.2684 112.611 16.1704C112.884 16.2124 113.031 16.1144 113.066 15.8345C113.094 16.1144 113.234 16.2124 113.5 16.1564C113.283 16.2754 113.185 16.4223 113.325 16.6602C113.136 16.4783 112.968 16.5413 112.8 16.6602Z" fill="#FEFDFD"/>
<path d="M115.326 16.6602C115.214 16.6532 115.158 16.5133 115.06 16.5203C114.969 16.5203 114.907 16.6462 114.767 16.6742C114.942 16.4363 114.844 16.2893 114.62 16.1704C114.872 16.2054 115.032 16.1354 115.046 15.8485C115.095 16.1004 115.214 16.2404 115.48 16.1494C115.48 16.1774 115.48 16.1844 115.48 16.1844C115.27 16.2893 115.214 16.4503 115.312 16.6602H115.326Z" fill="#FEFDFD"/>
<path d="M118.818 16.6602C118.804 16.5553 118.923 16.4573 118.867 16.3594C118.825 16.2824 118.72 16.2334 118.636 16.1564C118.902 16.2194 119.035 16.1144 119.07 15.8416C119.105 16.1075 119.231 16.2334 119.518 16.1564C119.287 16.2824 119.203 16.4293 119.329 16.6602C119.14 16.4713 118.972 16.5413 118.811 16.6602H118.818Z" fill="#FEFDFD"/>
<path d="M115.788 19.2912C115.914 19.0533 115.893 18.8784 115.62 18.7594C115.893 18.8014 116.04 18.7105 116.061 18.4166C116.103 18.6895 116.222 18.8154 116.509 18.7454C116.285 18.8714 116.187 19.0183 116.334 19.2702C116.138 19.0743 115.963 19.0743 115.788 19.2842V19.2912Z" fill="#FEFDFD"/>
<path d="M113.633 18.7524C113.892 18.8154 114.025 18.7105 114.06 18.4376C114.095 18.7175 114.235 18.8154 114.507 18.7594C114.27 18.8714 114.2 19.0323 114.34 19.2562C114.207 19.2353 114.151 19.0883 114.046 19.1163C113.962 19.1373 113.885 19.2213 113.787 19.2912C113.857 19.0813 113.808 18.9017 113.64 18.7524H113.633Z" fill="#FEFDFD"/>
<path d="M109.784 19.2912C109.91 19.0463 109.875 18.8714 109.609 18.7594C109.882 18.8084 110.022 18.7104 110.043 18.4305C110.092 18.6894 110.204 18.8294 110.498 18.7524C110.267 18.8784 110.183 19.0253 110.323 19.2772C110.134 19.0953 109.959 19.0603 109.777 19.2912H109.784Z" fill="#FEFDFD"/>
<path d="M118.062 14.9669C118.111 15.2398 118.23 15.3657 118.51 15.2957C118.265 15.4147 118.202 15.5826 118.342 15.8205C118.153 15.6386 117.985 15.6036 117.796 15.8205C117.901 15.5896 117.901 15.4007 117.614 15.3097C117.88 15.3307 118.055 15.2817 118.055 14.9669H118.062Z" fill="#FEFDFD"/>
<path d="M116.509 15.3027C116.35 15.4287 116.29 15.606 116.327 15.8345C116.145 15.6316 115.977 15.5966 115.795 15.8345C115.914 15.5896 115.886 15.4147 115.62 15.3027C115.9 15.3517 116.033 15.2468 116.068 14.9879C116.103 15.0858 116.117 15.2188 116.18 15.2677C116.25 15.3167 116.376 15.2887 116.502 15.3027H116.509Z" fill="#FEFDFD"/>
<path d="M112.499 15.3027C112.261 15.4217 112.191 15.5756 112.338 15.8205C112.149 15.6316 111.974 15.6176 111.792 15.8205C111.932 15.5756 111.862 15.4147 111.625 15.3027C111.89 15.3447 112.051 15.2677 112.058 14.9598C112.093 15.2467 112.233 15.3517 112.506 15.3027H112.499Z" fill="#FEFDFD"/>
<path d="M110.323 15.8136C110.146 15.7063 109.959 15.7133 109.763 15.8345C109.903 15.5896 109.882 15.4147 109.616 15.3097C109.889 15.3517 110.036 15.2538 110.057 14.9739C110.099 15.2328 110.218 15.3727 110.491 15.3167C110.414 15.3797 110.302 15.4357 110.267 15.5127C110.239 15.5896 110.302 15.7016 110.33 15.8136H110.323Z" fill="#FEFDFD"/>
<path d="M117.495 17.8917C117.346 18.027 117.295 18.2066 117.342 18.4305C117.16 18.2276 116.992 18.1926 116.81 18.4165C116.901 18.1926 116.929 18.0037 116.635 17.9057C116.901 17.9337 117.055 17.8428 117.069 17.5629C117.111 17.8218 117.23 17.9547 117.495 17.8917Z" fill="#FEFDFD"/>
<path d="M118.062 18.4375C118.137 18.6288 118.291 18.7408 118.524 18.7734C118.279 18.8784 118.195 19.0323 118.328 19.2772C118.146 19.0883 117.978 19.0743 117.803 19.2772C117.915 19.0393 117.866 18.8714 117.621 18.7524C117.901 18.8154 118.034 18.6894 118.062 18.4305V18.4375Z" fill="#FEFDFD"/>
<path d="M113.815 15.8206C113.773 15.7646 113.815 15.7086 113.836 15.6596C113.885 15.5477 113.871 15.4637 113.752 15.4077C113.71 15.3867 113.675 15.3518 113.591 15.2888C113.871 15.3448 114.039 15.2748 114.06 14.9809C114.088 15.2608 114.242 15.3518 114.479 15.2958C114.479 15.3238 114.479 15.3308 114.479 15.3308C114.284 15.4287 114.207 15.5687 114.319 15.7786C114.319 15.7926 114.312 15.8136 114.305 15.8346C114.151 15.6946 113.987 15.6923 113.815 15.8276V15.8206Z" fill="#FEFDFD"/>
<path d="M110.785 18.4165C110.897 18.1856 110.897 18.0107 110.617 17.8987C110.897 17.9477 111.023 17.8218 111.058 17.5629C111.107 17.8078 111.198 17.9757 111.499 17.8847C111.254 18.0107 111.198 18.1786 111.331 18.4165C111.142 18.2066 110.974 18.2136 110.785 18.4165Z" fill="#FEFDFD"/>
<path d="M109.302 18.4165C109.152 18.2906 108.97 18.2952 108.756 18.4305C108.889 18.1926 108.889 18.0107 108.609 17.9057C108.875 17.9477 109.015 17.8497 109.043 17.5768C109.106 17.8008 109.183 17.9967 109.484 17.8777C109.288 18.0247 109.19 18.1646 109.316 18.3745C109.316 18.3815 109.309 18.4025 109.302 18.4165Z" fill="#FEFDFD"/>
<path d="M118.832 18.4165C118.783 18.3605 118.832 18.3046 118.846 18.2556C118.902 18.1366 118.881 18.0597 118.762 17.9967C118.72 17.9757 118.692 17.9407 118.643 17.9057C118.755 17.8567 118.881 17.9337 118.951 17.8567C119.014 17.7938 119.028 17.6748 119.077 17.5768C119.112 17.8217 119.224 17.9617 119.504 17.8847C119.308 18.0037 119.189 18.1366 119.329 18.3885C119.126 18.1856 118.972 18.2416 118.825 18.4095L118.832 18.4165Z" fill="#FEFDFD"/>
<path d="M115.312 18.4166C115.312 18.4166 115.242 18.3676 115.214 18.3396C115.116 18.2486 115.025 18.2206 114.927 18.3326C114.899 18.3676 114.85 18.3956 114.801 18.3676C114.822 18.2766 114.913 18.1787 114.864 18.0947C114.822 18.0177 114.724 17.9757 114.626 17.9058C114.745 17.8988 114.871 17.9198 114.941 17.8708C115.011 17.8218 115.018 17.6958 115.074 17.5699C115.116 17.8218 115.221 17.9757 115.487 17.8918C115.473 17.9267 115.473 17.9407 115.473 17.9407C115.298 18.0317 115.207 18.1507 115.326 18.3536C115.34 18.3746 115.34 18.4026 115.319 18.4236L115.312 18.4166Z" fill="#FEFDFD"/>
<path d="M112.814 18.4166C112.765 18.3606 112.814 18.3046 112.835 18.2556C112.891 18.1367 112.87 18.0597 112.751 17.9967C112.709 17.9757 112.681 17.9407 112.639 17.8988C112.891 17.9407 113.045 17.8568 113.052 17.5699C113.108 17.8218 113.206 17.9757 113.5 17.8848C113.297 18.0107 113.178 18.1437 113.318 18.3956C113.115 18.1926 112.961 18.2556 112.814 18.4166Z" fill="#FEFDFD"/>
<path d="M108.805 13.2105C108.805 13.2105 108.798 13.2245 108.791 13.2315C108.791 13.2315 108.791 13.2175 108.791 13.2105C108.798 13.2105 108.805 13.2105 108.812 13.2105H108.805Z" fill="#FEFDFD"/>
<path d="M109.309 16.6603C109.309 16.6603 109.316 16.6603 109.323 16.6603C109.323 16.6603 109.323 16.6603 109.323 16.6673C109.323 16.6673 109.323 16.6533 109.316 16.6533L109.309 16.6603Z" fill="#FEFDFD"/>
<path d="M109.294 18.4095H109.301V18.4165L109.294 18.4095Z" fill="#FEFDFD"/>
<path d="M112.814 18.4165L112.807 18.4095L112.814 18.4165Z" fill="#FEFDFD"/>
<path d="M115.312 18.4095H115.319L115.312 18.4165V18.4095Z" fill="#FEFDFD"/>
<path d="M112.8 16.6602C112.8 16.6602 112.8 16.6742 112.8 16.6812C112.8 16.6812 112.793 16.6812 112.786 16.6812C112.786 16.6812 112.8 16.6742 112.8 16.6672V16.6602Z" fill="#FEFDFD"/>
<path d="M118.811 16.6602C118.811 16.6602 118.811 16.6742 118.811 16.6812C118.811 16.6812 118.804 16.6812 118.797 16.6812C118.797 16.6812 118.811 16.6742 118.811 16.6672V16.6602Z" fill="#FEFDFD"/>
<path d="M113.815 15.8206C113.815 15.8206 113.801 15.8206 113.787 15.8206C113.787 15.8206 113.794 15.8136 113.801 15.8066C113.801 15.8066 113.808 15.8206 113.815 15.8276V15.8206Z" fill="#FEFDFD"/>
<path d="M109.309 20.1169C109.309 20.1169 109.316 20.1169 109.323 20.1239C109.323 20.1239 109.323 20.1239 109.323 20.1309C109.323 20.1309 109.323 20.1169 109.323 20.1099L109.309 20.1169Z" fill="#FEFDFD"/>
<path d="M112.8 20.1099C112.8 20.1099 112.8 20.1239 112.8 20.1309C112.8 20.1309 112.793 20.1309 112.786 20.1309C112.786 20.1309 112.793 20.1169 112.8 20.1169V20.1099Z" fill="#FEFDFD"/>
<path d="M115.319 16.6603C115.319 16.6603 115.326 16.6603 115.333 16.6603C115.333 16.6603 115.333 16.6603 115.333 16.6673C115.333 16.6673 115.333 16.6533 115.326 16.6533L115.319 16.6603Z" fill="#FEFDFD"/>
<path d="M118.811 20.1099C118.811 20.1099 118.811 20.1239 118.811 20.1309C118.811 20.1309 118.804 20.1309 118.797 20.1309L118.811 20.1169V20.1099Z" fill="#FEFDFD"/>
<path d="M115.312 14.9599L115.319 14.9529V14.9599H115.312Z" fill="#FEFDFD"/>
<path d="M115.319 13.2105C115.319 13.2105 115.326 13.2105 115.333 13.2105C115.333 13.2105 115.333 13.2105 115.333 13.2175C115.333 13.2175 115.326 13.2105 115.319 13.2035V13.2105Z" fill="#FEFDFD"/>
<path d="M114.304 15.8276C114.304 15.8276 114.318 15.8136 114.325 15.8066C114.325 15.8066 114.325 15.8066 114.325 15.8136C114.318 15.8136 114.311 15.8136 114.297 15.8206L114.304 15.8276Z" fill="#FEFDFD"/>
<path d="M115.319 20.1099C115.319 20.1099 115.326 20.1099 115.333 20.1169C115.333 20.1169 115.333 20.1169 115.333 20.1239C115.333 20.1239 115.333 20.1099 115.333 20.1029L115.319 20.1099Z" fill="#FEFDFD"/>
</g>
<path d="M38 37.5V47.0469H31.125L31.125 37.5H38ZM33.125 45.4688H36.0625V39.0625H33.125V45.4688ZM40.3125 50.4688V36.2188H42.3281V50.4688H40.3125ZM55.6547 36.8438V37.9531C55.6626 39 55.6626 40.2031 55.3657 41.7344H57.2016V43.3281H51.6704V45.375H55.6704V50.4375H53.6704V46.9375H45.4985V45.375H49.6704V43.3281H44.186V41.7344H53.3501C53.6157 40.3984 53.6547 39.3594 53.6704 38.4219H45.7797V36.8438L55.6547 36.8438ZM62.5595 37.1719C64.8173 37.1641 66.4892 38.6172 66.497 40.6563C66.4892 42.7031 64.8173 44.1484 62.5595 44.1563C60.3173 44.1484 58.5986 42.7031 58.6064 40.6563C58.5986 38.6172 60.3173 37.1641 62.5595 37.1719ZM58.0126 45.9375C60.5517 45.9453 64.0673 45.9141 67.1064 45.4844L67.2626 46.9219C64.1064 47.5391 60.7314 47.5625 58.247 47.5625L58.0126 45.9375ZM60.5907 40.6563C60.5829 41.7813 61.4345 42.4297 62.5595 42.4219C63.6923 42.4297 64.5517 41.7813 64.5595 40.6563C64.5517 39.5469 63.6923 38.8906 62.5595 38.8906C61.4345 38.8906 60.5829 39.5469 60.5907 40.6563ZM67.9189 50.4688V36.2188H69.9032V50.4688H67.9189ZM88.3065 42.6719V44.2813H82.8065V45.3359C85.2752 45.5156 86.744 46.4063 86.7596 47.875C86.744 49.5234 84.8768 50.4453 81.8065 50.4375C78.6893 50.4453 76.8221 49.5234 76.8221 47.875C76.8221 46.3984 78.2987 45.5078 80.8221 45.3281V44.2813H75.3377V42.6719H88.3065ZM75.9159 40.5781C78.5487 40.3438 80.0018 39.375 80.3612 38.3906H76.5252V36.8281H87.1346V38.3906H83.2674C83.6112 39.3828 85.0565 40.3438 87.7596 40.5781L87.0565 42.1406C84.369 41.8828 82.5643 40.875 81.8065 39.4922C81.0565 40.8672 79.2674 41.8906 76.5721 42.1406L75.9159 40.5781ZM78.8534 47.875C78.8456 48.5625 79.8377 48.9375 81.8065 48.9375C83.7362 48.9375 84.7518 48.5625 84.7596 47.875C84.7518 47.1563 83.7362 46.8125 81.8065 46.7969C79.8377 46.8125 78.8456 47.1563 78.8534 47.875ZM102.102 42.9375V44.5L89.1019 44.5V42.9375L94.6331 42.9375V41.7188L90.68 41.7188V36.8438L100.539 36.8438V38.3906L92.6644 38.3906V40.1563H100.618V41.7188H96.5863V42.9375H102.102ZM90.5863 47.8438C90.5863 46.1563 92.4613 45.2188 95.5706 45.2188C98.6566 45.2188 100.508 46.1563 100.524 47.8438C100.508 49.5078 98.6566 50.4531 95.5706 50.4531C92.4613 50.4531 90.5863 49.5078 90.5863 47.8438ZM92.6175 47.8438C92.6097 48.5859 93.6019 48.9375 95.5706 48.9375C97.5003 48.9375 98.5159 48.5859 98.5238 47.8438C98.5159 47.1094 97.5003 46.7344 95.5706 46.7344C93.6019 46.7344 92.6097 47.1094 92.6175 47.8438ZM108.116 38.6563C108.108 40.4766 109.139 42.2422 111.444 42.9844L110.397 44.5469C108.843 44.0234 107.764 43.0078 107.147 41.7109C106.514 43.1328 105.382 44.25 103.741 44.8125L102.632 43.2344C105.061 42.4844 106.1 40.5781 106.116 38.6406V37.0938H108.116V38.6563ZM104.913 50.1875V45.6094H106.944V48.5938H114.678V50.1875H104.913ZM112.147 46.6406V36.2188H114.147V40.3281H116.069V42.0156H114.147V46.6406H112.147ZM132.3 36.2344V46.9688H130.3V45.8438H127.582V44.4844H130.3V36.2344H132.3ZM120.207 42.5313C122.808 42.5156 126.324 42.4766 129.332 42.1094L129.441 43.5313C128.316 43.7188 127.152 43.8516 126.004 43.9375V46.6406H124.004V48.5938H132.613V50.1875H122.019V45.9375H124.004V44.0547C122.73 44.1016 121.519 44.1094 120.441 44.1094L120.207 42.5313ZM121.254 39.2656C121.254 37.75 122.715 36.7109 124.832 36.7188C126.894 36.7109 128.371 37.75 128.379 39.2656C128.371 40.7891 126.894 41.7734 124.832 41.7656C122.715 41.7734 121.254 40.7891 121.254 39.2656ZM123.144 39.2656C123.136 39.9531 123.816 40.3359 124.832 40.3281C125.785 40.3359 126.472 39.9531 126.488 39.2656C126.472 38.5625 125.785 38.1719 124.832 38.1719C123.816 38.1719 123.136 38.5625 123.144 39.2656ZM147.018 44.125V45.7344L143.971 45.7344V50.4375H141.94V45.7344H139.033V50.4375H136.987V45.7344H134.002V44.125L147.018 44.125ZM135.315 39.9063C135.307 37.9453 137.416 36.6953 140.471 36.6875C143.526 36.6953 145.658 37.9453 145.658 39.9063C145.658 41.8203 143.526 43.0391 140.471 43.0313C137.416 43.0391 135.307 41.8203 135.315 39.9063ZM137.362 39.9063C137.354 40.9063 138.565 41.4609 140.471 41.4688C142.393 41.4609 143.596 40.9063 143.596 39.9063C143.596 38.8594 142.393 38.2891 140.471 38.2813C138.565 38.2891 137.354 38.8594 137.362 39.9063ZM158.952 37.3281C158.944 39.0078 160.663 40.8594 163.921 41.2656L163.14 42.875C160.655 42.5156 158.835 41.3672 157.905 39.8281C156.968 41.3594 155.155 42.5156 152.702 42.875L151.905 41.2656C155.14 40.8594 156.851 39.0078 156.858 37.3281V36.6406H158.952V37.3281ZM151.405 45.5781V43.9531H164.374V45.5781H158.843V50.4375H156.874V45.5781H151.405ZM177.076 36.2188V43.8594H175.076V36.2188H177.076ZM165.388 40.1875C165.388 38.1875 167.06 36.7969 169.279 36.8125C171.49 36.7969 173.162 38.1875 173.169 40.1875C173.162 42.125 171.49 43.5156 169.279 43.5156C167.06 43.5156 165.388 42.125 165.388 40.1875ZM167.341 40.1875C167.326 41.2422 168.138 41.875 169.279 41.875C170.388 41.875 171.193 41.2422 171.201 40.1875C171.193 39.1172 170.388 38.4609 169.279 38.4688C168.138 38.4609 167.326 39.1172 167.341 40.1875ZM167.56 50.2813V44.4844H169.529V45.8125H175.091V44.4844H177.076V50.2813L167.56 50.2813ZM169.529 48.6719L175.091 48.6719V47.3594H169.529V48.6719ZM194.463 36.2188V50.4688H192.448V36.2188H194.463ZM183.26 47.1406V37.3438H185.26V40.8125H188.323V37.3438H190.292V47.1406H183.26ZM185.26 45.5313H188.323V42.3594H185.26V45.5313ZM209.29 42.6719V44.2813H203.79V45.3359C206.259 45.5156 207.727 46.4063 207.743 47.875C207.727 49.5234 205.86 50.4453 202.79 50.4375C199.673 50.4453 197.806 49.5234 197.806 47.875C197.806 46.3984 199.282 45.5078 201.806 45.3281V44.2813H196.321V42.6719H209.29ZM196.899 40.5781C199.532 40.3438 200.985 39.375 201.345 38.3906H197.509V36.8281H208.118V38.3906H204.251C204.595 39.3828 206.04 40.3438 208.743 40.5781L208.04 42.1406C205.352 41.8828 203.548 40.875 202.79 39.4922C202.04 40.8672 200.251 41.8906 197.556 42.1406L196.899 40.5781ZM199.837 47.875C199.829 48.5625 200.821 48.9375 202.79 48.9375C204.72 48.9375 205.735 48.5625 205.743 47.875C205.735 47.1563 204.72 46.8125 202.79 46.7969C200.821 46.8125 199.829 47.1563 199.837 47.875Z" fill="#37474F"/>
<path d="M12.25 62H227.75" stroke="#455A64"/>
<rect x="10" y="70" width="220" height="30" rx="4" fill="#CFD8DC"/>
<rect x="10" y="70" width="17.38" height="30" rx="4" fill="#02A39E"/>
<path d="M9.64645 107.646C9.45118 107.842 9.45118 108.158 9.64645 108.354L12.8284 111.536C13.0237 111.731 13.3403 111.731 13.5355 111.536C13.7308 111.34 13.7308 111.024 13.5355 110.828L10.7071 108L13.5355 105.172C13.7308 104.976 13.7308 104.66 13.5355 104.464C13.3403 104.269 13.0237 104.269 12.8284 104.464L9.64645 107.646ZM27.7336 108.354C27.9288 108.158 27.9288 107.842 27.7336 107.646L24.5516 104.464C24.3563 104.269 24.0397 104.269 23.8445 104.464C23.6492 104.66 23.6492 104.976 23.8445 105.172L26.6729 108L23.8445 110.828C23.6492 111.024 23.6492 111.34 23.8445 111.536C24.0397 111.731 24.3563 111.731 24.5516 111.536L27.7336 108.354ZM10 108V108.5H27.38V108V107.5H10V108Z" fill="#37474F"/>
<path d="M19.9609 123.359V124.262H15.7188V125.27C17.6406 125.375 18.7832 126.02 18.7891 127.121C18.7832 128.311 17.4238 128.979 15.168 128.973C12.8828 128.979 11.5234 128.311 11.5234 127.121C11.5234 126.02 12.666 125.369 14.6172 125.27V124.262H10.3867V123.359H19.9609ZM10.8906 121.93C12.7773 121.736 14.2656 120.881 14.418 119.867H11.2656V118.977H19.1055V119.867H15.918C16.0703 120.887 17.5469 121.736 19.4688 121.93L19.0703 122.809C17.248 122.598 15.7422 121.83 15.1738 120.717C14.5938 121.83 13.0996 122.598 11.2773 122.809L10.8906 121.93ZM12.6484 127.121C12.6426 127.76 13.5625 128.129 15.168 128.117C16.75 128.129 17.6758 127.76 17.6758 127.121C17.6758 126.471 16.75 126.119 15.168 126.113C13.5625 126.119 12.6426 126.471 12.6484 127.121ZM29.8438 123.605V124.496H20.2578V123.605H24.5117V122.492H21.4531V118.977H28.6602V119.855H22.5547V121.602H28.7305V122.492H25.5898V123.605H29.8438ZM21.3945 127.086C21.3945 125.867 22.7598 125.182 25.0391 125.176C27.3008 125.182 28.6543 125.867 28.6602 127.086C28.6543 128.305 27.3008 128.99 25.0391 128.996C22.7598 128.99 21.3945 128.305 21.3945 127.086ZM22.5195 127.086C22.5137 127.76 23.4336 128.129 25.0391 128.117C26.6211 128.129 27.5469 127.76 27.5469 127.086C27.5469 126.424 26.6211 126.043 25.0391 126.043C23.4336 126.043 22.5137 126.424 22.5195 127.086ZM33.7734 120.418C33.7734 121.824 34.752 123.148 36.3516 123.688L35.7773 124.566C34.5996 124.156 33.7207 123.318 33.2578 122.258C32.8008 123.441 31.8984 124.355 30.668 124.812L30.0469 123.934C31.7109 123.365 32.666 121.947 32.6719 120.383V119.141H33.7734V120.418ZM31.7344 128.773V125.48H32.8711V127.871H38.8359V128.773H31.7344ZM37.2656 126.23V118.484H38.3789V121.648H39.9023V122.598H38.3789V126.23H37.2656ZM51.1602 118.508V126.465H50.0469V125.457H47.9375V124.672H50.0469V118.508H51.1602ZM42.3828 123.301C44.3223 123.283 46.9414 123.266 49.1797 122.984L49.25 123.781C48.3535 123.934 47.4102 124.027 46.4844 124.092V126.137H45.3711V124.15C44.3516 124.191 43.373 124.191 42.5234 124.191L42.3828 123.301ZM43.2031 120.758C43.1973 119.645 44.2578 118.906 45.8164 118.906C47.3516 118.906 48.418 119.645 48.418 120.758C48.418 121.877 47.3516 122.586 45.8164 122.586C44.2637 122.586 43.1973 121.877 43.2031 120.758ZM43.8359 128.773V125.691H44.9375V127.871H51.418V128.773H43.8359ZM44.2578 120.758C44.252 121.379 44.8848 121.766 45.8164 121.766C46.7129 121.766 47.3574 121.379 47.3633 120.758C47.3574 120.131 46.7129 119.727 45.8164 119.738C44.8848 119.727 44.252 120.131 44.2578 120.758ZM61.8984 124.426V125.34H59.4609V128.996H58.3359V125.34H55.8281V128.996H54.6797V125.34H52.2891V124.426H61.8984ZM53.332 121.215C53.3379 119.797 54.8496 118.895 57.0703 118.895C59.291 118.895 60.8145 119.797 60.8086 121.215C60.8145 122.615 59.291 123.5 57.0703 123.488C54.8496 123.5 53.3379 122.615 53.332 121.215ZM54.4805 121.215C54.4746 122.076 55.5117 122.609 57.0703 122.609C58.6348 122.609 59.666 122.076 59.6719 121.215C59.666 120.33 58.6348 119.791 57.0703 119.785C55.5117 119.791 54.4746 120.33 54.4805 121.215ZM65.2344 124.766C65.2461 122.557 65.873 120.723 66.9688 119.152H68.1172C67.3086 120.312 66.5352 122.674 66.5352 124.766C66.5352 126.863 67.3086 129.225 68.1172 130.391H66.9688C65.873 128.814 65.2461 126.98 65.2344 124.766ZM69.0469 128L72.832 120.688V120.617H68.4609V119.516H74.168V120.664L70.3945 128H69.0469ZM74.3359 128.082C73.8789 128.076 73.498 127.707 73.5039 127.25C73.498 126.793 73.8789 126.418 74.3359 126.418C74.7871 126.418 75.1621 126.793 75.168 127.25C75.1621 127.707 74.7871 128.076 74.3359 128.082ZM78.9805 119.398C80.5391 119.41 82.1738 120.348 82.1797 123.453C82.1797 126.43 80.8965 128.117 78.8633 128.117C77.2988 128.117 76.209 127.15 76.0039 125.773H77.2812C77.457 126.488 78.0078 126.986 78.8633 126.992C80.1699 126.986 80.9375 125.85 80.9492 123.91H80.8438C80.3867 124.625 79.5898 125.059 78.6758 125.059C77.1523 125.059 75.9336 123.893 75.9336 122.27C75.9336 120.652 77.1348 119.387 78.9805 119.398ZM77.1875 122.246C77.1934 123.23 77.9258 124.01 78.957 124.004C79.9824 124.01 80.7734 123.172 80.7734 122.234C80.7734 121.314 80.0176 120.477 78.9805 120.477C77.9551 120.477 77.1816 121.273 77.1875 122.246ZM84.9844 123.547C83.8242 123.559 83.1914 122.697 83.2031 121.438C83.1914 120.195 83.8535 119.334 84.9844 119.34C86.1504 119.334 86.7598 120.195 86.7656 121.438C86.7598 122.703 86.127 123.559 84.9844 123.547ZM84.1641 128L89.9883 119.516H91.0547L85.2305 128H84.1641ZM84.1641 121.438C84.1699 122.217 84.4395 122.721 84.9844 122.727C85.5352 122.721 85.793 122.217 85.793 121.438C85.793 120.676 85.5527 120.154 84.9844 120.16C84.4395 120.172 84.1699 120.682 84.1641 121.438ZM88.5586 126.066C88.5527 124.812 89.209 123.951 90.3398 123.957C91.5 123.951 92.1152 124.812 92.1211 126.066C92.1152 127.32 91.4824 128.176 90.3398 128.176C89.1855 128.176 88.5527 127.314 88.5586 126.066ZM89.5195 126.066C89.5254 126.834 89.7949 127.344 90.3398 127.344C90.8906 127.344 91.1484 126.834 91.1484 126.066C91.1484 125.293 90.9082 124.777 90.3398 124.777C89.8008 124.789 89.5254 125.299 89.5195 126.066ZM95.793 124.766C95.7812 126.98 95.1543 128.814 94.0586 130.391H92.9102C93.7188 129.225 94.4922 126.863 94.4922 124.766C94.4922 122.674 93.7188 120.312 92.9102 119.152H94.0586C95.1543 120.723 95.7812 122.557 95.793 124.766Z" fill="#37474F"/>
</svg>
