<svg width="240" height="144" viewBox="0 0 240 144" fill="none" xmlns="http://www.w3.org/2000/svg">
<g clip-path="url(#clip0_619_5523)">
<path d="M93.7412 23.3966V24.0441H118V23.3966H93.7412Z" fill="#E86566"/>
<path d="M96.6021 16.6034H93.7412V23.3966H118V16.6034H96.6021ZM105.573 18.0456C105.673 18.0574 105.774 17.9985 105.897 17.9691C106.109 18.1045 106.203 18.0986 106.433 17.9043C106.409 18.2399 106.192 18.3223 105.868 18.1398C105.556 18.3282 105.338 18.2399 105.309 17.9161C105.397 17.9632 105.485 18.0397 105.573 18.0515V18.0456ZM103.69 19.7174C103.766 19.0935 104.261 18.5048 104.838 18.3635C103.966 19.2347 103.825 20.2119 104.408 21.2951C103.919 21.0478 103.607 20.3473 103.69 19.7116V19.7174ZM107.263 20.1884C107.163 20.83 106.804 21.301 106.262 21.6895C106.474 21.7307 106.692 21.7719 106.904 21.8131C106.904 21.8249 106.904 21.8366 106.904 21.8484C106.71 21.8602 106.509 21.8896 106.315 21.8661C106.144 21.8425 106.021 21.8484 105.95 22.0309C105.938 22.0603 105.909 22.078 105.891 22.1015C105.874 22.1015 105.856 22.1015 105.85 22.0957C105.744 21.872 105.573 21.8308 105.338 21.8779C105.179 21.9073 105.002 21.8543 104.838 21.8131C105.05 21.7719 105.267 21.7307 105.479 21.6895C104.826 21.2244 104.449 20.6358 104.455 19.847C104.455 19.3407 104.637 18.8992 104.997 18.5283C104.79 19.0169 104.69 19.5173 104.808 20.0471C104.932 20.5769 105.197 21.0125 105.668 21.3657C105.668 21.2244 105.668 21.1185 105.668 21.0125C105.65 20.206 105.632 19.3937 105.615 18.5872C105.615 18.4459 105.615 18.4459 105.868 18.2458C106.086 18.3517 106.144 18.5166 106.133 18.7579C106.097 19.4937 106.091 20.2355 106.074 20.9713C106.074 21.089 106.074 21.2009 106.074 21.3657C106.533 21.0125 106.804 20.5887 106.927 20.0648C107.051 19.5291 106.957 19.0228 106.715 18.5166C107.122 18.805 107.363 19.5585 107.263 20.1884ZM107.351 21.2951C107.61 20.8065 107.746 20.3002 107.663 19.7469C107.581 19.1994 107.316 18.752 106.927 18.3694C107.581 18.6107 107.975 19.064 108.058 19.7528C108.134 20.3944 107.887 20.9124 107.357 21.2951H107.351Z" fill="#ECECEC"/>
<path d="M96.9965 15.9559H93.7412V16.6034H118V15.9559H96.9965Z" fill="#7AC48B"/>
<path d="M93.7412 11.2347V15.9559H118V11.2347H93.7412Z" fill="#239F40"/>
<path d="M93.7412 24.0441V28.7652H118V24.0441H93.7412Z" fill="#D90203"/>
<path d="M106.715 18.5166C106.956 19.0228 107.051 19.5291 106.927 20.0648C106.803 20.5946 106.533 21.0184 106.073 21.3657C106.073 21.2009 106.073 21.0832 106.073 20.9713C106.091 20.2355 106.103 19.4938 106.132 18.7579C106.144 18.5225 106.085 18.3517 105.867 18.2458C105.614 18.4459 105.614 18.4459 105.614 18.5872C105.632 19.3937 105.65 20.2061 105.667 21.0125C105.667 21.1185 105.667 21.2244 105.667 21.3657C105.202 21.0125 104.931 20.5828 104.808 20.0471C104.684 19.5173 104.79 19.0169 104.996 18.5283C104.637 18.8992 104.455 19.3407 104.455 19.847C104.455 20.6358 104.825 21.2244 105.479 21.6895C105.267 21.7307 105.049 21.7719 104.837 21.8131C105.002 21.8543 105.179 21.9073 105.338 21.8779C105.573 21.8367 105.744 21.8779 105.85 22.0957C105.85 22.1016 105.873 22.0957 105.891 22.1016C105.909 22.078 105.938 22.0604 105.95 22.0309C106.02 21.8543 106.144 21.8484 106.315 21.8661C106.509 21.8896 106.709 21.8543 106.903 21.8484C106.903 21.8367 106.903 21.8249 106.903 21.8131C106.692 21.7719 106.474 21.7307 106.262 21.6895C106.803 21.301 107.162 20.8359 107.263 20.1884C107.363 19.5585 107.121 18.805 106.715 18.5166Z" fill="#D90203"/>
<path d="M106.927 18.3694C107.316 18.752 107.581 19.1994 107.663 19.7469C107.746 20.3002 107.61 20.8065 107.351 21.2951C107.881 20.9124 108.128 20.3944 108.052 19.7528C107.969 19.064 107.575 18.6107 106.921 18.3694H106.927Z" fill="#D90203"/>
<path d="M104.837 18.3635C104.26 18.5048 103.766 19.0935 103.689 19.7175C103.613 20.3532 103.925 21.0478 104.407 21.301C103.819 20.2119 103.966 19.2406 104.837 18.3694V18.3635Z" fill="#D90203"/>
<path d="M105.867 18.1339C106.191 18.3164 106.403 18.234 106.432 17.8984C106.203 18.0986 106.109 18.1045 105.897 17.9632C105.773 17.9985 105.673 18.0515 105.573 18.0397C105.479 18.0279 105.396 17.9514 105.308 17.9043C105.338 18.2281 105.561 18.3164 105.867 18.128V18.1339Z" fill="#D90203"/>
</g>
<mask id="mask0_619_5523" style="mask-type:luminance" maskUnits="userSpaceOnUse" x="122" y="12" width="24" height="16">
<path d="M144.4 12H123.6C122.716 12 122 12.7163 122 13.6V26.4C122 27.2837 122.716 28 123.6 28H144.4C145.284 28 146 27.2837 146 26.4V13.6C146 12.7163 145.284 12 144.4 12Z" fill="white"/>
</mask>
<g mask="url(#mask0_619_5523)">
<path d="M146 11.712H122V28.288H146V11.712Z" fill="#DE2910"/>
<path d="M126 14.168L127.408 18.664L123.712 15.888H128.28L124.584 18.664L125.992 14.168H126Z" fill="#FFDE00"/>
<path d="M130.312 13.408L130.176 14.976L129.392 13.624L130.792 14.24L129.312 14.592L130.312 13.4V13.408Z" fill="#FFDE00"/>
<path d="M132.176 15.248L131.464 16.64L131.248 15.08L132.304 16.208L130.808 15.936L132.176 15.24V15.248Z" fill="#FFDE00"/>
<path d="M132.352 18.032L131.152 19L131.568 17.488L132.088 18.968L130.824 18.088L132.344 18.032H132.352Z" fill="#FFDE00"/>
<path d="M130.28 19.192L130.208 20.768L129.368 19.448L130.792 20.008L129.328 20.424L130.28 19.192Z" fill="#FFDE00"/>
</g>
<path d="M40.3281 36.2188V50.4688H38.3125V36.2188H40.3281ZM32.6094 37.2188C34.75 37.2188 36.3438 39.1875 36.3438 42.2812C36.3438 45.4062 34.75 47.3594 32.6094 47.3594C30.4219 47.3594 28.8281 45.4062 28.8438 42.2812C28.8281 39.1875 30.4219 37.2188 32.6094 37.2188ZM32.6094 39.0156C31.5 39.0156 30.7656 40.1719 30.7656 42.2812C30.7656 44.4062 31.5 45.5469 32.6094 45.5469C33.6875 45.5469 34.4219 44.4062 34.4219 42.2812C34.4219 40.1719 33.6875 39.0156 32.6094 39.0156ZM53.4672 36.2344V40.3125H55.3891V41.9844H53.4672V46.7031H51.4672V36.2344L53.4672 36.2344ZM54.0141 48.5938V50.1875H44.2954V45.8594H46.311V48.5938H54.0141ZM49.2172 37.0938V41.5469H44.686V43.0469C47.0376 43.0391 48.6313 42.9375 50.436 42.6094L50.6547 44.2188C48.6079 44.5938 46.7797 44.6562 43.9047 44.6562H42.7016V40.0469H47.2797V38.6875H42.686V37.0938H49.2172ZM66.433 38.3906V39.9688H59.558V38.3906H62.0268V36.6094H63.9955V38.3906H66.433ZM63.0268 40.6094C64.8393 40.6094 66.1361 42.0156 66.1518 43.9844C66.1361 45.9688 64.8393 47.375 63.0268 47.375C61.2143 47.375 59.8861 45.9688 59.8861 43.9844C59.8861 42.0156 61.2143 40.6094 63.0268 40.6094ZM63.0268 42.2656C62.1986 42.2656 61.6361 42.9063 61.6361 43.9844C61.6361 45.0625 62.1986 45.6875 63.0268 45.6875C63.8236 45.6875 64.3861 45.0625 64.4018 43.9844C64.3861 42.9063 63.8236 42.2656 63.0268 42.2656ZM71.8705 36.2188V50.4375H69.9799V43.5938H68.8236V49.8281H66.9643V36.5H68.8236V42H69.9799V36.2188H71.8705ZM78.5252 38.4531C78.5252 40.1719 79.5252 41.8281 81.7752 42.5313L80.7127 44.0781C79.2049 43.5781 78.1502 42.6094 77.5409 41.3594C76.9237 42.7969 75.8221 43.9219 74.1971 44.4688L73.119 42.9063C75.494 42.1094 76.5096 40.2188 76.5252 38.2656V36.9688H78.5252V38.4531ZM84.619 36.2188V39.5469H86.5409V41.2031H84.619V44.6563H82.619V36.2188H84.619ZM79.9627 44.9375C82.9002 44.9375 84.7596 45.9531 84.7596 47.6875C84.7596 49.4375 82.9002 50.4375 79.9627 50.4375C76.9627 50.4375 75.0877 49.4375 75.0877 47.6875C75.0877 45.9531 76.9627 44.9375 79.9627 44.9375ZM79.9627 46.5C78.0877 46.5 77.0721 46.9063 77.0877 47.6875C77.0721 48.5 78.0877 48.875 79.9627 48.875C81.8065 48.875 82.7909 48.5 82.7909 47.6875C82.7909 46.9063 81.8065 46.5 79.9627 46.5ZM102.772 36.2344V46.9688H100.772V45.8438H98.0535V44.4844H100.772V36.2344H102.772ZM103.085 48.5938V50.1875H92.491V45.9375H94.4754V44.0469C93.2019 44.1016 91.991 44.1094 90.9129 44.1094L90.6785 42.5313C93.2879 42.5156 96.8035 42.4844 99.8035 42.1094L99.9129 43.5313C98.7879 43.7188 97.6238 43.8516 96.4754 43.9375V46.6406H94.4754V48.5938H103.085ZM95.3035 36.7188C97.366 36.7031 98.8504 37.75 98.8504 39.2656C98.8504 40.7813 97.366 41.7656 95.3035 41.7656C93.1941 41.7656 91.7254 40.7813 91.7254 39.2656C91.7254 37.75 93.1785 36.7031 95.3035 36.7188ZM95.3035 38.1719C94.2879 38.1719 93.6004 38.5625 93.616 39.2656C93.6004 39.9531 94.2879 40.3281 95.3035 40.3281C96.2566 40.3281 96.9441 39.9531 96.9598 39.2656C96.9441 38.5625 96.2566 38.1719 95.3035 38.1719ZM117.49 44.125V45.7344H114.443V50.4375H112.411V45.7344H109.505V50.4375H107.458V45.7344H104.474V44.125H117.49ZM110.943 36.6875C113.99 36.6875 116.13 37.9531 116.13 39.9063C116.13 41.8281 113.99 43.0313 110.943 43.0313C107.896 43.0313 105.771 41.8281 105.786 39.9063C105.771 37.9531 107.896 36.6875 110.943 36.6875ZM110.943 38.2813C109.036 38.2813 107.818 38.8594 107.833 39.9063C107.818 40.9063 109.036 41.4688 110.943 41.4688C112.865 41.4688 114.068 40.9063 114.068 39.9063C114.068 38.8594 112.865 38.2813 110.943 38.2813ZM129.424 37.3281C129.424 39 131.127 40.8594 134.393 41.2656L133.612 42.875C131.127 42.5156 129.307 41.3672 128.377 39.8281C127.44 41.3672 125.635 42.5156 123.174 42.875L122.377 41.2656C125.612 40.8594 127.33 39 127.33 37.3281V36.6406H129.424V37.3281ZM134.846 43.9531V45.5781H129.315V50.4375H127.346V45.5781H121.877V43.9531H134.846ZM148.579 42.2813V43.7344L143.11 43.7344V44.625L147.032 44.625V48.0938H139.11V48.875H147.407V50.3438H137.157V46.75L145.063 46.75V46.0469L137.141 46.0469V44.625H141.126V43.7344H135.673V42.2813L148.579 42.2813ZM143.094 36.2031V37.3281H147.36V38.7969H143.344C143.735 39.625 145.188 40.3047 148.063 40.4219L147.485 41.8906C144.844 41.7656 143.016 41.0938 142.11 40.0156C141.212 41.0938 139.376 41.7656 136.719 41.8906L136.173 40.4219C139.024 40.3047 140.469 39.625 140.876 38.7969H136.891V37.3281H141.126V36.2031L143.094 36.2031ZM165.998 42.6719V44.2813H160.498V45.3281C162.974 45.5156 164.435 46.4063 164.451 47.875C164.435 49.5156 162.576 50.4375 159.498 50.4375C156.373 50.4375 154.513 49.5156 154.513 47.875C154.513 46.3984 155.99 45.5078 158.513 45.3281V44.2813H153.029V42.6719H165.998ZM159.498 46.7969C157.529 46.8125 156.529 47.1563 156.545 47.875C156.529 48.5625 157.529 48.9375 159.498 48.9375C161.42 48.9375 162.435 48.5625 162.451 47.875C162.435 47.1563 161.42 46.8125 159.498 46.7969ZM164.826 36.8281V38.3906H160.966C161.302 39.3906 162.748 40.3516 165.451 40.5781L164.748 42.1406C162.068 41.8828 160.255 40.8672 159.498 39.4844C158.748 40.8672 156.966 41.8828 154.263 42.1406L153.607 40.5781C156.24 40.3516 157.693 39.3828 158.06 38.3906H154.216V36.8281H164.826ZM178.262 36.8438V37.9531C178.262 39 178.262 40.2031 177.98 41.7344H179.809V43.3281L174.277 43.3281V45.375L178.277 45.375V50.4375H176.277V46.9375H168.105V45.375H172.277V43.3281H166.793V41.7344H175.965C176.23 40.4063 176.27 39.3594 176.277 38.4219H168.387V36.8438H178.262ZM196.087 36.2188V50.4688H194.071V36.2188H196.087ZM186.884 37.3438V40.8125H189.946V37.3438H191.915V47.1406H184.884V37.3438H186.884ZM186.884 45.5313H189.946V42.3594H186.884V45.5313ZM210.913 42.6719V44.2813H205.413V45.3281C207.89 45.5156 209.351 46.4063 209.367 47.875C209.351 49.5156 207.492 50.4375 204.413 50.4375C201.288 50.4375 199.429 49.5156 199.429 47.875C199.429 46.3984 200.906 45.5078 203.429 45.3281V44.2813H197.945V42.6719H210.913ZM204.413 46.7969C202.445 46.8125 201.445 47.1563 201.46 47.875C201.445 48.5625 202.445 48.9375 204.413 48.9375C206.335 48.9375 207.351 48.5625 207.367 47.875C207.351 47.1563 206.335 46.8125 204.413 46.7969ZM209.742 36.8281V38.3906H205.882C206.218 39.3906 207.663 40.3516 210.367 40.5781L209.663 42.1406C206.984 41.8828 205.171 40.8672 204.413 39.4844C203.663 40.8672 201.882 41.8828 199.179 42.1406L198.523 40.5781C201.156 40.3516 202.609 39.3828 202.976 38.3906H199.132V36.8281H209.742Z" fill="#37474F"/>
<path d="M12.25 62H227.75" stroke="#455A64"/>
<rect x="10" y="70" width="220" height="30" rx="4" fill="#CFD8DC"/>
<rect x="10" y="70" width="176" height="30" rx="4" fill="#02A39E"/>
<path d="M84.1406 91.1562C81.5625 91.1562 79.7031 89.7969 79.7031 87.9531C79.7031 86.5312 80.7969 85.375 82.2031 85.1562V85.0781C80.9844 84.8438 80.1406 83.8125 80.1406 82.5781C80.1406 80.8125 81.8281 79.5312 84.1406 79.5312C86.4531 79.5312 88.1406 80.8125 88.1562 82.5781C88.1406 83.8281 87.2812 84.8438 86.0938 85.0781V85.1562C87.4688 85.375 88.5781 86.5312 88.5781 87.9531C88.5781 89.7969 86.7188 91.1562 84.1406 91.1562ZM84.1406 89.3594C85.3281 89.3594 86.125 88.6875 86.125 87.7188C86.125 86.7344 85.2969 86.0156 84.1406 86.0156C82.9844 86.0156 82.1406 86.7344 82.1562 87.7188C82.1406 88.6875 82.9375 89.3594 84.1406 89.3594ZM84.1406 84.3594C85.1406 84.3594 85.8594 83.7188 85.8594 82.8125C85.8594 81.9375 85.1562 81.3125 84.1406 81.3125C83.125 81.3125 82.4375 81.9219 82.4375 82.8125C82.4375 83.7188 83.1406 84.3594 84.1406 84.3594ZM94.5141 91.1562C91.686 91.1562 89.9672 89.0469 89.9672 85.3438C89.9672 81.6406 91.686 79.5312 94.5141 79.5312C97.3422 79.5312 99.061 81.6562 99.061 85.3438C99.061 89.0625 97.3422 91.1562 94.5141 91.1562ZM94.5141 89.2188C95.8266 89.2188 96.6704 87.9531 96.6547 85.3438C96.6547 82.7656 95.8266 81.4531 94.5141 81.4531C93.2016 81.4531 92.3735 82.7656 92.3735 85.3438C92.3579 87.9531 93.2016 89.2188 94.5141 89.2188ZM103.591 85.3438C101.903 85.3438 100.981 84.1094 100.981 82.3281C100.981 80.5312 101.934 79.2969 103.591 79.2969C105.294 79.2969 106.184 80.5312 106.2 82.3281C106.184 84.125 105.263 85.3438 103.591 85.3438ZM103.591 83.9531C104.263 83.9531 104.591 83.2969 104.606 82.3281C104.591 81.3594 104.294 80.6875 103.591 80.6875C102.919 80.6875 102.575 81.375 102.575 82.3281C102.575 83.2969 102.934 83.9531 103.591 83.9531ZM111.216 91.375C109.544 91.375 108.622 90.1406 108.622 88.3594C108.622 86.5625 109.575 85.3281 111.216 85.3281C112.919 85.3281 113.825 86.5625 113.841 88.3594C113.825 90.1562 112.903 91.375 111.216 91.375ZM111.216 89.9844C111.903 89.9844 112.231 89.3438 112.247 88.3594C112.231 87.3906 111.934 86.7188 111.216 86.7344C110.559 86.7344 110.216 87.4062 110.216 88.3594C110.216 89.3438 110.575 89.9844 111.216 89.9844ZM102.606 91L110.388 79.6875H112.138L104.356 91H102.606Z" fill="#DFF1F2"/>
<path d="M9.64645 107.646C9.45118 107.842 9.45118 108.158 9.64645 108.354L12.8284 111.536C13.0237 111.731 13.3403 111.731 13.5355 111.536C13.7308 111.34 13.7308 111.024 13.5355 110.828L10.7071 108L13.5355 105.172C13.7308 104.976 13.7308 104.66 13.5355 104.464C13.3403 104.269 13.0237 104.269 12.8284 104.464L9.64645 107.646ZM186.354 108.354C186.549 108.158 186.549 107.842 186.354 107.646L183.172 104.464C182.976 104.269 182.66 104.269 182.464 104.464C182.269 104.66 182.269 104.976 182.464 105.172L185.293 108L182.464 110.828C182.269 111.024 182.269 111.34 182.464 111.536C182.66 111.731 182.976 111.731 183.172 111.536L186.354 108.354ZM10 108V108.5H186V108V107.5H10V108Z" fill="#37474F"/>
<path d="M19.082 118.496V129.02H17.9688V118.496H19.082ZM10.75 122.961C10.75 120.717 11.8809 119.287 13.4688 119.281C15.0273 119.287 16.1758 120.717 16.1758 122.961C16.1758 125.229 15.0273 126.658 13.4688 126.652C11.8809 126.658 10.75 125.229 10.75 122.961ZM11.8281 122.961C11.8223 124.631 12.4902 125.656 13.4688 125.656C14.4297 125.656 15.0977 124.631 15.0977 122.961C15.0977 121.314 14.4297 120.283 13.4688 120.277C12.4902 120.283 11.8223 121.314 11.8281 122.961ZM28.5078 118.508V121.66H30.043V122.598H28.5078V126.23H27.3945V118.508H28.5078ZM20.6797 120.09V119.176H25.4609V122.27H21.8047V123.734C23.627 123.734 24.916 123.658 26.4453 123.395L26.5625 124.309C24.9395 124.59 23.5508 124.643 21.5352 124.648H20.6914V121.414H24.3711V120.09H20.6797ZM21.9102 128.773V125.633H23.0352V127.871H28.9766V128.773H21.9102ZM33.5508 119.246C35.209 119.24 36.4043 120.266 36.4102 121.742C36.4043 123.219 35.209 124.244 33.5508 124.25C31.8984 124.244 30.6855 123.219 30.6914 121.742C30.6855 120.266 31.8984 119.24 33.5508 119.246ZM30.1875 125.832C32.0977 125.832 34.7461 125.814 37.043 125.48L37.125 126.289C34.752 126.746 32.2031 126.758 30.3281 126.758L30.1875 125.832ZM31.793 121.742C31.7812 122.674 32.5312 123.277 33.5508 123.277C34.5703 123.277 35.3203 122.674 35.3203 121.742C35.3203 120.822 34.5703 120.207 33.5508 120.207C32.5312 120.207 31.7812 120.822 31.793 121.742ZM37.6992 129.02V118.496H38.8125V129.02H37.6992ZM46.4961 124.074V125.891C47.457 125.838 48.4297 125.756 49.3438 125.621L49.4258 126.441C47.0527 126.881 44.5039 126.898 42.6289 126.898L42.4883 125.984C43.332 125.979 44.334 125.973 45.3828 125.938V124.074H46.4961ZM42.7695 123.57C44.334 123.119 45.3125 122.023 45.3711 120.734H43.0508V119.832H45.3828V118.578H46.4961V119.832H48.8516V120.734H46.4961C46.5547 121.971 47.5508 123.031 49.1211 123.453L48.6055 124.32C47.3516 123.963 46.4141 123.201 45.9395 122.205C45.4824 123.254 44.5566 124.057 43.2969 124.414L42.7695 123.57ZM50 129.02V118.496H51.1133V129.02H50ZM61.3125 118.496V128.996H60.2461V123.57H58.8867V128.457H57.8672V118.707H58.8867V122.656H60.2461V118.496H61.3125ZM52.6523 126.477V119.762H56.5898V120.664H53.7656V125.527C55.0547 125.521 56.0273 125.463 57.1523 125.246L57.2344 126.16C55.9746 126.424 54.8848 126.465 53.3555 126.477H52.6523ZM73.0977 119.504V120.535C73.0918 121.83 73.0918 123.283 72.6992 125.434L71.5742 125.316C71.9785 123.283 71.9785 121.795 71.9844 120.535V120.406H65.6094V119.504H73.0977ZM64.6016 127.578V126.652H68.2461V122.949H69.3477V126.652H74.1758V127.578H64.6016ZM83.4258 118.508V124.684H82.3711V121.988H81.1055V124.625H80.0508V118.695H81.1055V121.062H82.3711V118.508H83.4258ZM74.4727 123.945C76.5938 123.113 77.7422 121.807 77.9355 120.16H74.9297V119.258H79.0664C79.0664 121.807 77.7012 123.664 75.0117 124.777L74.4727 123.945ZM76.2539 126.043V125.141H83.4258V128.996H82.3242V126.043H76.2539Z" fill="#37474F"/>
<defs>
<clipPath id="clip0_619_5523">
<rect x="94" y="12" width="24" height="16" rx="2" fill="white"/>
</clipPath>
</defs>
</svg>
