<svg width="240" height="164" viewBox="0 0 240 164" fill="none" xmlns="http://www.w3.org/2000/svg">
<mask id="mask0_619_5427" style="mask-type:luminance" maskUnits="userSpaceOnUse" x="108" y="12" width="24" height="16">
<path d="M130.4 12H109.6C108.716 12 108 12.7163 108 13.6V26.4C108 27.2837 108.716 28 109.6 28H130.4C131.284 28 132 27.2837 132 26.4V13.6C132 12.7163 131.284 12 130.4 12Z" fill="white"/>
</mask>
<g mask="url(#mask0_619_5427)">
<path d="M132 11.712H108V28.288H132V11.712Z" fill="#DE2910"/>
<path d="M112 14.168L113.408 18.664L109.712 15.888H114.28L110.584 18.664L111.992 14.168H112Z" fill="#FFDE00"/>
<path d="M116.312 13.408L116.176 14.976L115.392 13.624L116.792 14.24L115.312 14.592L116.312 13.4V13.408Z" fill="#FFDE00"/>
<path d="M118.176 15.248L117.464 16.64L117.248 15.08L118.304 16.208L116.808 15.936L118.176 15.24V15.248Z" fill="#FFDE00"/>
<path d="M118.352 18.032L117.152 19L117.568 17.488L118.088 18.968L116.824 18.088L118.344 18.032H118.352Z" fill="#FFDE00"/>
<path d="M116.28 19.192L116.208 20.768L115.368 19.448L116.792 20.008L115.328 20.424L116.28 19.192Z" fill="#FFDE00"/>
</g>
<path d="M43.3906 42.6719V44.2812H37.8906V45.3359C40.3594 45.5156 41.8281 46.4062 41.8438 47.875C41.8281 49.5234 39.9609 50.4453 36.8906 50.4375C33.7734 50.4453 31.9062 49.5234 31.9062 47.875C31.9062 46.3984 33.3828 45.5078 35.9062 45.3281V44.2812H30.4219L30.4219 42.6719H43.3906ZM31 40.5781C33.6328 40.3438 35.0859 39.375 35.4453 38.3906H31.6094V36.8281H42.2188V38.3906H38.3516C38.6953 39.3828 40.1406 40.3438 42.8438 40.5781L42.1406 42.1406C39.4531 41.8828 37.6484 40.875 36.8906 39.4922C36.1406 40.8672 34.3516 41.8906 31.6562 42.1406L31 40.5781ZM33.9375 47.875C33.9297 48.5625 34.9219 48.9375 36.8906 48.9375C38.8203 48.9375 39.8359 48.5625 39.8438 47.875C39.8359 47.1562 38.8203 46.8125 36.8906 46.7969C34.9219 46.8125 33.9297 47.1562 33.9375 47.875ZM55.6547 36.8438V37.9531C55.6626 39 55.6626 40.2031 55.3657 41.7344H57.2016V43.3281H51.6704V45.375H55.6704V50.4375H53.6704V46.9375H45.4985V45.375H49.6704V43.3281H44.186V41.7344H53.3501C53.6157 40.3984 53.6547 39.3594 53.6704 38.4219H45.7797V36.8438L55.6547 36.8438ZM62.5595 37.1719C64.8173 37.1641 66.4892 38.6172 66.497 40.6563C66.4892 42.7031 64.8173 44.1484 62.5595 44.1563C60.3173 44.1484 58.5986 42.7031 58.6064 40.6563C58.5986 38.6172 60.3173 37.1641 62.5595 37.1719ZM58.0126 45.9375C60.5517 45.9453 64.0673 45.9141 67.1064 45.4844L67.2626 46.9219C64.1064 47.5391 60.7314 47.5625 58.247 47.5625L58.0126 45.9375ZM60.5907 40.6563C60.5829 41.7813 61.4345 42.4297 62.5595 42.4219C63.6923 42.4297 64.5517 41.7813 64.5595 40.6563C64.5517 39.5469 63.6923 38.8906 62.5595 38.8906C61.4345 38.8906 60.5829 39.5469 60.5907 40.6563ZM67.9189 50.4688V36.2188H69.9032V50.4688H67.9189ZM87.244 36.2188V50.4688L85.2284 50.4688V36.2188H87.244ZM75.7596 42.2813C75.7518 39.1797 77.3377 37.2188 79.5252 37.2188C81.6659 37.2188 83.2596 39.1797 83.2596 42.2813C83.2596 45.4063 81.6659 47.3594 79.5252 47.3594C77.3377 47.3594 75.7518 45.4063 75.7596 42.2813ZM77.6815 42.2813C77.6737 44.3984 78.4159 45.5547 79.5252 45.5469C80.6034 45.5547 81.3299 44.3984 81.3377 42.2813C81.3299 40.1719 80.6034 39.0156 79.5252 39.0156C78.4159 39.0156 77.6737 40.1719 77.6815 42.2813ZM100.383 36.2344V40.3125H102.305V41.9844H100.383V46.7031H98.3831V36.2344H100.383ZM89.6019 38.6875V37.0938L96.1331 37.0938V41.5469H91.6019V43.0469C93.9456 43.0391 95.5394 42.9375 97.3519 42.6094L97.5706 44.2188C95.5316 44.6016 93.7034 44.6563 90.8206 44.6563L89.6175 44.6563V40.0469L94.1956 40.0469V38.6875L89.6019 38.6875ZM91.2113 50.1875V45.8594H93.2269V48.5938H100.93V50.1875H91.2113ZM108.116 38.6563C108.108 40.4766 109.139 42.2422 111.444 42.9844L110.397 44.5469C108.843 44.0234 107.764 43.0078 107.147 41.7109C106.514 43.1328 105.382 44.25 103.741 44.8125L102.632 43.2344C105.061 42.4844 106.1 40.5781 106.116 38.6406V37.0938H108.116V38.6563ZM104.913 50.1875V45.6094H106.944V48.5938H114.678V50.1875H104.913ZM112.147 46.6406V36.2188H114.147V40.3281H116.069V42.0156H114.147V46.6406H112.147ZM132.3 36.2344V46.9688H130.3V45.8438H127.582V44.4844H130.3V36.2344H132.3ZM120.207 42.5313C122.808 42.5156 126.324 42.4766 129.332 42.1094L129.441 43.5313C128.316 43.7188 127.152 43.8516 126.004 43.9375V46.6406H124.004V48.5938H132.613V50.1875H122.019V45.9375H124.004V44.0547C122.73 44.1016 121.519 44.1094 120.441 44.1094L120.207 42.5313ZM121.254 39.2656C121.254 37.75 122.715 36.7109 124.832 36.7188C126.894 36.7109 128.371 37.75 128.379 39.2656C128.371 40.7891 126.894 41.7734 124.832 41.7656C122.715 41.7734 121.254 40.7891 121.254 39.2656ZM123.144 39.2656C123.136 39.9531 123.816 40.3359 124.832 40.3281C125.785 40.3359 126.472 39.9531 126.488 39.2656C126.472 38.5625 125.785 38.1719 124.832 38.1719C123.816 38.1719 123.136 38.5625 123.144 39.2656ZM147.018 44.125V45.7344L143.971 45.7344V50.4375H141.94V45.7344H139.033V50.4375H136.987V45.7344H134.002V44.125L147.018 44.125ZM135.315 39.9063C135.307 37.9453 137.416 36.6953 140.471 36.6875C143.526 36.6953 145.658 37.9453 145.658 39.9063C145.658 41.8203 143.526 43.0391 140.471 43.0313C137.416 43.0391 135.307 41.8203 135.315 39.9063ZM137.362 39.9063C137.354 40.9063 138.565 41.4609 140.471 41.4688C142.393 41.4609 143.596 40.9063 143.596 39.9063C143.596 38.8594 142.393 38.2891 140.471 38.2813C138.565 38.2891 137.354 38.8594 137.362 39.9063ZM158.952 37.3281C158.944 39.0078 160.663 40.8594 163.921 41.2656L163.14 42.875C160.655 42.5156 158.835 41.3672 157.905 39.8281C156.968 41.3594 155.155 42.5156 152.702 42.875L151.905 41.2656C155.14 40.8594 156.851 39.0078 156.858 37.3281V36.6406H158.952V37.3281ZM151.405 45.5781V43.9531H164.374V45.5781H158.843V50.4375H156.874V45.5781H151.405ZM177.076 36.2188V43.8594H175.076V36.2188H177.076ZM165.388 40.1875C165.388 38.1875 167.06 36.7969 169.279 36.8125C171.49 36.7969 173.162 38.1875 173.169 40.1875C173.162 42.125 171.49 43.5156 169.279 43.5156C167.06 43.5156 165.388 42.125 165.388 40.1875ZM167.341 40.1875C167.326 41.2422 168.138 41.875 169.279 41.875C170.388 41.875 171.193 41.2422 171.201 40.1875C171.193 39.1172 170.388 38.4609 169.279 38.4688C168.138 38.4609 167.326 39.1172 167.341 40.1875ZM167.56 50.2813V44.4844H169.529V45.8125H175.091V44.4844H177.076V50.2813L167.56 50.2813ZM169.529 48.6719L175.091 48.6719V47.3594H169.529V48.6719ZM194.463 36.2188V50.4688H192.448V36.2188H194.463ZM183.26 47.1406V37.3438H185.26V40.8125H188.323V37.3438H190.292V47.1406H183.26ZM185.26 45.5313H188.323V42.3594H185.26V45.5313ZM209.29 42.6719V44.2813H203.79V45.3359C206.259 45.5156 207.727 46.4063 207.743 47.875C207.727 49.5234 205.86 50.4453 202.79 50.4375C199.673 50.4453 197.806 49.5234 197.806 47.875C197.806 46.3984 199.282 45.5078 201.806 45.3281V44.2813H196.321V42.6719H209.29ZM196.899 40.5781C199.532 40.3438 200.985 39.375 201.345 38.3906H197.509V36.8281H208.118V38.3906H204.251C204.595 39.3828 206.04 40.3438 208.743 40.5781L208.04 42.1406C205.352 41.8828 203.548 40.875 202.79 39.4922C202.04 40.8672 200.251 41.8906 197.556 42.1406L196.899 40.5781ZM199.837 47.875C199.829 48.5625 200.821 48.9375 202.79 48.9375C204.72 48.9375 205.735 48.5625 205.743 47.875C205.735 47.1563 204.72 46.8125 202.79 46.7969C200.821 46.8125 199.829 47.1563 199.837 47.875Z" fill="#37474F"/>
<path d="M162.41 66.2852H161.52L161.59 64.5391L160.113 65.4766L159.668 64.7031L161.227 63.9062L159.668 63.0977L160.113 62.3242L161.59 63.2617L161.52 61.5156H162.41L162.328 63.2617L163.805 62.3242L164.262 63.0977L162.703 63.9062L164.262 64.7031L163.805 65.4766L162.328 64.5391L162.41 66.2852ZM175.426 60.4961V64.75H177.113V65.6758H175.426V70.9961H174.324V60.4961H175.426ZM173.41 62.1367V63.0508H167.188V62.1367H169.777V60.6367H170.891V62.1367H173.41ZM170.34 63.8242C171.84 63.8242 172.941 64.832 172.953 66.2617C172.941 67.7031 171.84 68.6992 170.34 68.7109C168.828 68.6992 167.727 67.7031 167.727 66.2617C167.727 64.832 168.828 63.8242 170.34 63.8242ZM170.34 64.7383C169.449 64.7383 168.781 65.3594 168.793 66.2617C168.781 67.1758 169.449 67.7852 170.34 67.7734C171.23 67.7852 171.887 67.1758 171.887 66.2617C171.887 65.3594 171.23 64.7383 170.34 64.7383ZM185.578 60.8828V63.7422H179.391V64.9492H185.801V65.8516H178.277V62.8867H184.441V61.7852H178.242V60.8828H185.578ZM186.715 66.8477V67.7383H182.449V71.0195H181.336V67.7383H177.105V66.8477H186.715ZM195.301 61.2578V62.1602H194.293V65.3359C194.738 65.3008 195.166 65.2598 195.582 65.207L195.629 66.0508C193.613 66.3672 191.258 66.4023 189.57 66.4023L189.43 65.4766L190.707 65.4648V62.1602H189.723V61.2578H195.301ZM198.172 60.4961V66.9531H197.059V65.125H195.453V64.2344H197.059V63.2148H195.453V62.3242H197.059V60.4961H198.172ZM194.656 67.1523C196.871 67.1523 198.207 67.8438 198.207 69.0742C198.207 70.2695 196.871 70.9844 194.656 70.9727C192.441 70.9844 191.094 70.2695 191.105 69.0742C191.094 67.8438 192.441 67.1523 194.656 67.1523ZM194.656 68.0195C193.109 68.0195 192.207 68.3945 192.207 69.0742C192.207 69.7422 193.109 70.1172 194.656 70.1172C196.191 70.1172 197.105 69.7422 197.105 69.0742C197.105 68.3945 196.191 68.0195 194.656 68.0195ZM191.785 65.4531C192.26 65.4414 192.74 65.4238 193.227 65.3945V62.1602H191.785V65.4531ZM207.68 61.0469V61.8789C207.68 62.7168 207.68 63.6895 207.445 64.9609H208.898V65.8633H206.309V68.3242H205.23V65.8633H203.566V68.3242H202.477V65.8633H199.289V64.9609H206.332C206.572 63.7012 206.578 62.7637 206.578 61.9375H200.484V61.0469H207.68ZM207.961 69.8711V70.7734H200.414V67.4453H201.527V69.8711H207.961Z" fill="#37474F"/>
<path d="M12.25 82H227.75" stroke="#455A64"/>
<rect x="10" y="90" width="220" height="30" rx="4" fill="#CFD8DC"/>
<rect x="10" y="90" width="28" height="30" rx="4" fill="#02A39E"/>
<path opacity="0.2" d="M85.3906 105.344V106.938H72.4219V105.344H77.9062V103.969H79.875V105.344H85.3906ZM72.9688 103.141C76 102.961 77.4453 102.047 77.7266 101.062H73.6719V99.4844H77.9062V98.2656H79.875V99.4844H84.1406V101.062H80.0469C80.3203 102.047 81.7734 102.961 84.8125 103.141L84.2188 104.656C81.5938 104.469 79.7812 103.711 78.8906 102.562C77.9922 103.711 76.1797 104.469 73.5781 104.656L72.9688 103.141ZM73.9062 110.016C73.9062 108.461 75.7578 107.602 78.8906 107.609C82.0078 107.602 83.8281 108.461 83.8438 110.016C83.8281 111.586 82.0078 112.445 78.8906 112.438C75.7578 112.445 73.9062 111.586 73.9062 110.016ZM75.9375 110.016C75.9297 110.672 76.8984 110.969 78.8906 110.969C80.8359 110.969 81.8359 110.672 81.8438 110.016C81.8359 109.375 80.8359 109.078 78.8906 109.078C76.8984 109.078 75.9297 109.375 75.9375 110.016ZM95.1532 99.6875V111H92.7939V101.922H92.7314L90.1376 103.547V101.469L92.9345 99.6875H95.1532ZM102.589 99.6875V111H100.23V101.922H100.167L97.5736 103.547V101.469L100.371 99.6875H102.589ZM110.025 99.6875V111H107.666V101.922H107.603L105.01 103.547V101.469L107.806 99.6875H110.025ZM116.977 111.156C114.141 111.156 112.43 109.047 112.43 105.344C112.43 101.648 114.157 99.5312 116.977 99.5312C119.797 99.5313 121.524 101.648 121.524 105.344C121.524 109.062 119.805 111.156 116.977 111.156ZM114.836 105.344C114.821 107.953 115.664 109.219 116.977 109.219C118.289 109.219 119.125 107.953 119.118 105.344C119.125 102.758 118.282 101.461 116.977 101.453C115.672 101.461 114.836 102.758 114.836 105.344ZM129.866 99.3906V106.219H123.038V99.3906H129.866ZM124.679 112.188V107.578H126.663V110.594L134.413 110.594V112.188L124.679 112.188ZM125.007 104.656H127.897V100.984H125.007V104.656ZM131.897 108.594V98.2188H133.897V102.313H135.819V103.953H133.897V108.594H131.897ZM142.285 99.4844V102.688H144.222V99.4844H146.066V109.063H140.41V99.4844H142.285ZM142.285 107.469H144.222V104.25H142.285V107.469ZM147.254 111.781V98.4219H149.144V103.641H150.425V98.2188H152.332V112.438H150.425V105.266H149.144V111.781H147.254ZM160.752 98.875V102.734H156.299V103.781C158.502 103.773 160.018 103.719 161.752 103.438L161.893 104.953C159.901 105.281 158.19 105.313 155.487 105.313H154.33V101.344H158.783V100.359H154.299V98.875H160.752ZM156.174 107.656V106.188H165.752V109.938H158.174V110.797H166.174V112.344H156.19V108.516H163.783V107.656H156.174ZM161.487 102.406V100.813H163.768V98.2188H165.752V105.641H163.768V102.406H161.487Z" fill="#37474F"/>
<path d="M9.64645 127.646C9.45118 127.842 9.45118 128.158 9.64645 128.354L12.8284 131.536C13.0237 131.731 13.3403 131.731 13.5355 131.536C13.7308 131.34 13.7308 131.024 13.5355 130.828L10.7071 128L13.5355 125.172C13.7308 124.976 13.7308 124.66 13.5355 124.464C13.3403 124.269 13.0237 124.269 12.8284 124.464L9.64645 127.646ZM38.3536 128.354C38.5488 128.158 38.5488 127.842 38.3536 127.646L35.1716 124.464C34.9763 124.269 34.6597 124.269 34.4645 124.464C34.2692 124.66 34.2692 124.976 34.4645 125.172L37.2929 128L34.4645 130.828C34.2692 131.024 34.2692 131.34 34.4645 131.536C34.6597 131.731 34.9763 131.731 35.1716 131.536L38.3536 128.354ZM10 128V128.5H38V128V127.5H10V128Z" fill="#37474F"/>
<path d="M19.082 138.496V149.02H17.9688V138.496H19.082ZM13.4688 139.281C15.0273 139.281 16.1758 140.711 16.1758 142.961C16.1758 145.223 15.0273 146.652 13.4688 146.652C11.8867 146.652 10.75 145.223 10.75 142.961C10.75 140.711 11.8867 139.281 13.4688 139.281ZM13.4688 140.277C12.4961 140.277 11.8281 141.309 11.8281 142.961C11.8281 144.625 12.4961 145.656 13.4688 145.656C14.4297 145.656 15.0977 144.625 15.0977 142.961C15.0977 141.309 14.4297 140.277 13.4688 140.277ZM28.5078 138.508V141.66H30.043V142.598H28.5078V146.23H27.3945V138.508H28.5078ZM28.9766 147.871V148.773H21.9102V145.633H23.0352V147.871H28.9766ZM25.4609 139.176V142.27H21.8047V143.734C23.627 143.74 24.916 143.652 26.4453 143.395L26.5625 144.309C24.9336 144.59 23.5508 144.648 21.5352 144.648H20.6914V141.414H24.3711V140.09H20.6797V139.176H25.4609ZM33.7734 140.418C33.7734 141.824 34.7578 143.148 36.3516 143.688L35.7773 144.566C34.5996 144.15 33.7266 143.312 33.2578 142.258C32.8008 143.436 31.8984 144.355 30.668 144.812L30.0469 143.934C31.7109 143.359 32.6719 141.953 32.6719 140.383V139.141H33.7734V140.418ZM38.3789 138.484V141.648H39.9023V142.598H38.3789V146.23H37.2656V138.484H38.3789ZM38.8359 147.871V148.773H31.7344V145.48H32.8711V147.871H38.8359ZM51.1602 138.508V146.465H50.0469V145.457H47.9375V144.672H50.0469V138.508H51.1602ZM51.418 147.871V148.773H43.8359V145.691H44.9375V147.871H51.418ZM42.3828 143.301C44.3281 143.289 46.9414 143.266 49.1797 142.984L49.25 143.781C48.3535 143.928 47.4102 144.027 46.4844 144.086V146.137H45.3711V144.145C44.3516 144.191 43.373 144.197 42.5234 144.191L42.3828 143.301ZM45.8164 138.906C47.3516 138.906 48.418 139.645 48.418 140.758C48.418 141.871 47.3516 142.586 45.8164 142.586C44.2578 142.586 43.2031 141.871 43.2031 140.758C43.2031 139.645 44.2578 138.906 45.8164 138.906ZM45.8164 139.738C44.8789 139.727 44.2461 140.125 44.2578 140.758C44.2461 141.379 44.8789 141.766 45.8164 141.766C46.7188 141.766 47.3516 141.379 47.3633 140.758C47.3516 140.125 46.7188 139.727 45.8164 139.738ZM61.8984 144.426V145.34H59.4609V148.996H58.3359V145.34H55.8281V148.996H54.6797V145.34H52.2891V144.426H61.8984ZM57.0703 138.895C59.2852 138.895 60.8086 139.797 60.8086 141.215C60.8086 142.609 59.2852 143.5 57.0703 143.488C54.8438 143.5 53.332 142.609 53.332 141.215C53.332 139.797 54.8438 138.895 57.0703 138.895ZM57.0703 139.785C55.5117 139.797 54.4688 140.336 54.4805 141.215C54.4688 142.07 55.5117 142.609 57.0703 142.609C58.6289 142.609 59.6719 142.07 59.6719 141.215C59.6719 140.336 58.6289 139.797 57.0703 139.785ZM68.1875 139.516V148H66.8867V140.805H66.8398L64.8125 142.129V140.898L66.9219 139.516H68.1875ZM69.6562 146.348V145.305L73.4062 139.516H75V145.258H76.1602V146.348H75V148H73.7812V146.348H69.6562ZM71.0156 145.258H73.7812V141.051H73.6875L71.0156 145.188V145.258ZM79.9141 148.117C77.9453 148.117 76.7969 146.535 76.7969 143.758C76.7969 141.004 77.9688 139.398 79.9141 139.398C81.8594 139.398 83.0312 141.004 83.0312 143.758C83.0312 146.535 81.8711 148.117 79.9141 148.117ZM79.9141 147.004C81.0625 147.004 81.7422 145.879 81.7422 143.758C81.7422 141.648 81.0508 140.488 79.9141 140.488C78.7773 140.488 78.0859 141.648 78.0859 143.758C78.0859 145.879 78.7656 147.004 79.9141 147.004ZM88.8242 139.422V144.32H83.9141V139.422H88.8242ZM85.0039 140.324V143.441H87.7344V140.324H85.0039ZM91.7539 138.484V141.625H93.2773V142.562H91.7539V146.184H90.6406V138.484H91.7539ZM92.1992 147.871V148.773H85.0977V145.445H86.2109V147.871H92.1992ZM97.2109 139.469V141.977H99.2148V139.469H100.246V146.406H96.1562V139.469H97.2109ZM97.2109 145.504H99.2148V142.855H97.2109V145.504ZM104.84 138.496V148.996H103.773V143.523H102.473V148.48H101.418V138.695H102.473V142.609H103.773V138.496H104.84ZM110.797 139V141.684H107.211V142.797C108.928 142.791 110.17 142.75 111.629 142.504L111.711 143.371C110.129 143.629 108.828 143.664 106.93 143.664H106.109V140.875H109.695V139.855H106.098V139H110.797ZM114.43 144.484V147.051H108.617V148.012H114.805V148.891H107.504V146.242H113.328V145.328H107.492V144.484H114.43ZM114.43 138.496V144.004H113.316V141.473H111.43V140.559H113.316V138.496H114.43ZM118.609 144.766C118.621 142.562 119.242 140.723 120.344 139.152H121.492C120.684 140.312 119.91 142.68 119.91 144.766C119.91 146.863 120.684 149.219 121.492 150.391H120.344C119.242 148.82 118.621 146.98 118.609 144.766ZM125.352 139.516V148H124.051V140.805H124.004L121.977 142.129V140.898L124.086 139.516H125.352ZM127.008 148V147.062L129.949 144.098C130.875 143.125 131.344 142.586 131.344 141.848C131.344 141.016 130.664 140.477 129.773 140.477C128.836 140.477 128.227 141.074 128.227 141.977H127.008C126.996 140.43 128.18 139.398 129.797 139.398C131.438 139.398 132.562 140.43 132.574 141.812C132.562 142.762 132.117 143.512 130.523 145.082L128.801 146.828V146.898H132.715V148H127.008ZM134.477 148.082C134.02 148.082 133.633 147.707 133.645 147.25C133.633 146.793 134.02 146.418 134.477 146.418C134.922 146.418 135.309 146.793 135.309 147.25C135.309 147.707 134.922 148.082 134.477 148.082ZM136.379 148L140.164 140.688V140.617H135.793V139.516H141.5V140.664L137.727 148H136.379ZM144.246 143.547C143.086 143.559 142.453 142.691 142.465 141.438C142.453 140.195 143.109 139.34 144.246 139.34C145.406 139.34 146.027 140.195 146.027 141.438C146.027 142.703 145.383 143.559 144.246 143.547ZM144.246 142.727C144.797 142.727 145.055 142.211 145.055 141.438C145.055 140.676 144.809 140.16 144.246 140.16C143.707 140.172 143.426 140.676 143.426 141.438C143.426 142.211 143.695 142.727 144.246 142.727ZM149.602 148.176C148.441 148.176 147.809 147.32 147.82 146.066C147.809 144.812 148.477 143.957 149.602 143.957C150.762 143.957 151.383 144.812 151.383 146.066C151.383 147.32 150.738 148.176 149.602 148.176ZM149.602 147.344C150.152 147.344 150.41 146.828 150.41 146.066C150.41 145.293 150.164 144.777 149.602 144.777C149.062 144.789 148.781 145.305 148.781 146.066C148.781 146.828 149.062 147.344 149.602 147.344ZM143.426 148L149.25 139.516H150.316L144.492 148H143.426ZM155.055 144.766C155.043 146.98 154.422 148.82 153.32 150.391H152.172C152.98 149.219 153.754 146.863 153.754 144.766C153.754 142.68 152.98 140.312 152.172 139.152H153.32C154.422 140.723 155.043 142.562 155.055 144.766Z" fill="#37474F"/>
</svg>
