<svg width="240" height="100" viewBox="0 0 240 100" fill="none" xmlns="http://www.w3.org/2000/svg">
<mask id="mask0_638_6164" style="mask-type:alpha" maskUnits="userSpaceOnUse" x="108" y="12" width="24" height="16">
<rect x="108" y="12" width="24" height="16" rx="2" fill="#D9D9D9"/>
</mask>
<g mask="url(#mask0_638_6164)">
<path d="M108.014 20.6207C108.014 17.7938 108.014 14.9599 108.014 12.1329C108.014 12.021 108.035 12 108.14 12C112.129 12 116.117 12 120.106 12C120.106 12.4128 120.106 12.8187 120.106 13.2315C120.106 13.6444 120.106 14.0502 120.106 14.4631C120.106 14.8759 120.106 15.2817 120.106 15.6946C120.106 16.1004 120.106 16.5133 120.106 16.9191C120.106 17.332 120.106 17.7378 120.106 18.1507C120.106 18.5635 120.106 18.9693 120.106 19.3822C120.106 19.795 120.106 20.2009 120.106 20.6137C120.043 20.6137 119.98 20.6137 119.917 20.6137C115.949 20.6137 111.982 20.6137 108.014 20.6137V20.6207ZM112.814 18.4166C112.961 18.2486 113.115 18.1856 113.318 18.3956C113.178 18.1437 113.297 18.0107 113.5 17.8848C113.206 17.9757 113.108 17.8218 113.052 17.5699C113.038 17.8638 112.884 17.9407 112.639 17.8988C112.681 17.9477 112.716 17.9827 112.751 17.9967C112.87 18.0527 112.891 18.1367 112.835 18.2556C112.814 18.3046 112.772 18.3536 112.814 18.4166ZM115.312 18.4166C115.333 18.3956 115.333 18.3676 115.319 18.3466C115.2 18.1507 115.291 18.0317 115.466 17.9337C115.466 17.9337 115.466 17.9197 115.48 17.8848C115.214 17.9687 115.109 17.8148 115.067 17.5629C115.018 17.6888 115.004 17.8148 114.935 17.8638C114.865 17.9127 114.746 17.8918 114.62 17.8988C114.718 17.9687 114.816 18.0177 114.858 18.0877C114.9 18.1716 114.816 18.2626 114.795 18.3606C114.851 18.3886 114.893 18.3606 114.921 18.3256C115.025 18.2136 115.116 18.2416 115.207 18.3326C115.235 18.3606 115.27 18.3816 115.305 18.4096L115.312 18.4166ZM118.832 18.4166C118.979 18.2486 119.133 18.1926 119.336 18.3956C119.196 18.1437 119.315 18.0107 119.511 17.8918C119.224 17.9687 119.119 17.8288 119.084 17.5839C119.035 17.6888 119.021 17.8008 118.958 17.8638C118.888 17.9337 118.762 17.8638 118.65 17.9127C118.699 17.9477 118.727 17.9827 118.769 18.0037C118.888 18.0597 118.902 18.1437 118.853 18.2626C118.832 18.3116 118.79 18.3676 118.839 18.4236C118.839 18.4236 118.839 18.4236 118.832 18.4236C118.832 18.4236 118.832 18.4236 118.839 18.4236L118.832 18.4166ZM109.302 18.4166C109.302 18.4026 109.323 18.3816 109.316 18.3746C109.197 18.1647 109.288 18.0247 109.484 17.8778C109.183 17.9897 109.106 17.8008 109.043 17.5769C109.022 17.8498 108.882 17.9477 108.609 17.9057C108.882 18.0177 108.889 18.1926 108.756 18.4306C108.97 18.2999 109.152 18.2953 109.302 18.4166ZM114.305 15.8205C114.305 15.8205 114.319 15.8205 114.333 15.8135C114.333 15.8135 114.333 15.8135 114.333 15.8065C114.326 15.8135 114.319 15.8205 114.312 15.8275C114.312 15.8066 114.333 15.7856 114.326 15.7716C114.207 15.5616 114.291 15.4217 114.487 15.3237C114.487 15.3237 114.487 15.3167 114.487 15.2887C114.249 15.3447 114.095 15.2608 114.067 14.9739C114.046 15.2678 113.885 15.3377 113.598 15.2817C113.682 15.3447 113.717 15.3797 113.759 15.4007C113.878 15.4567 113.892 15.5407 113.843 15.6526C113.822 15.7016 113.78 15.7506 113.822 15.8135C113.822 15.8135 113.815 15.7996 113.808 15.7926L113.794 15.8065C113.794 15.8065 113.808 15.8065 113.822 15.8065C113.995 15.6759 114.158 15.6759 114.312 15.8065L114.305 15.8205ZM118.811 16.6602C118.979 16.5483 119.14 16.4783 119.329 16.6602C119.196 16.4293 119.287 16.2754 119.518 16.1564C119.231 16.2334 119.112 16.1074 119.07 15.8415C119.035 16.1144 118.895 16.2194 118.636 16.1564C118.72 16.2404 118.818 16.2824 118.867 16.3593C118.923 16.4503 118.804 16.5483 118.818 16.6602C118.818 16.6602 118.804 16.6672 118.804 16.6742C118.804 16.6742 118.811 16.6742 118.818 16.6742C118.818 16.6742 118.818 16.6602 118.818 16.6532L118.811 16.6602ZM115.326 16.6602C115.326 16.6602 115.326 16.6742 115.333 16.6742V16.6672C115.333 16.6672 115.326 16.6672 115.319 16.6672C115.221 16.4573 115.27 16.2964 115.487 16.1914C115.487 16.1914 115.487 16.1844 115.487 16.1564C115.228 16.2474 115.109 16.1074 115.053 15.8555C115.032 16.1424 114.879 16.2124 114.627 16.1774C114.844 16.2964 114.949 16.4433 114.774 16.6812C114.914 16.6602 114.97 16.5343 115.067 16.5273C115.165 16.5273 115.221 16.6602 115.333 16.6672L115.326 16.6602ZM112.8 16.6602C112.968 16.5413 113.129 16.4853 113.325 16.6602C113.192 16.4293 113.283 16.2754 113.5 16.1564C113.227 16.2124 113.087 16.1144 113.066 15.8345C113.031 16.1144 112.884 16.2124 112.611 16.1704C112.877 16.2684 112.891 16.4363 112.8 16.6462C112.8 16.6462 112.8 16.6532 112.8 16.6602C112.8 16.6602 112.786 16.6672 112.786 16.6742C112.786 16.6742 112.793 16.6742 112.8 16.6742C112.8 16.6742 112.8 16.6602 112.8 16.6532V16.6602ZM109.309 16.6602C109.309 16.6602 109.309 16.6742 109.316 16.6742V16.6672C109.316 16.6672 109.309 16.6672 109.302 16.6672C109.197 16.4503 109.274 16.2964 109.477 16.1564C109.204 16.2404 109.085 16.1004 109.036 15.8485C109.015 16.1354 108.861 16.2054 108.574 16.1494C108.7 16.2474 108.812 16.3034 108.84 16.3803C108.868 16.4573 108.798 16.5693 108.763 16.6952C108.875 16.6182 108.952 16.5343 109.036 16.5203C109.134 16.5063 109.19 16.6532 109.302 16.6602H109.309ZM108.805 13.2105C108.966 13.0706 109.127 13.0286 109.288 13.2105C109.288 13.2105 109.302 13.2105 109.337 13.2105C109.176 12.9796 109.253 12.8187 109.491 12.6927C109.204 12.7767 109.092 12.6298 109.05 12.3639C108.987 12.4898 109.001 12.6228 108.917 12.6787C108.84 12.7277 108.721 12.6717 108.581 12.7207C108.854 12.8047 108.896 12.9656 108.784 13.1756C108.784 13.1756 108.798 13.1895 108.798 13.1965C108.791 13.1965 108.784 13.1965 108.777 13.1965C108.777 13.1965 108.777 13.2105 108.777 13.2175C108.777 13.2175 108.784 13.2035 108.791 13.1965L108.805 13.2105ZM115.326 13.2035C115.326 13.2035 115.333 13.2105 115.34 13.2175V13.2105C115.34 13.2105 115.333 13.2105 115.326 13.2105C115.221 12.9936 115.291 12.8327 115.501 12.6997C115.235 12.7697 115.102 12.6508 115.06 12.3849C115.039 12.6787 114.886 12.7557 114.62 12.7137C114.893 12.8257 114.914 13.0076 114.788 13.2455C114.963 13.0356 115.137 13.0356 115.312 13.2105C115.312 13.2105 115.319 13.2105 115.326 13.2105V13.2035ZM112.8 20.1099C112.968 20.0049 113.129 19.928 113.304 20.1099C113.339 20.0049 113.22 19.914 113.262 19.823C113.304 19.7321 113.43 19.7111 113.507 19.5851C113.22 19.6831 113.108 19.5501 113.08 19.2632C113.024 19.4102 113.01 19.5361 112.94 19.5851C112.87 19.6341 112.744 19.6061 112.646 19.6131C112.898 19.7181 112.891 19.9 112.807 20.1099C112.807 20.1099 112.8 20.1239 112.793 20.1239C112.793 20.1239 112.8 20.1239 112.807 20.1239C112.807 20.1239 112.807 20.1099 112.807 20.1029L112.8 20.1099ZM118.811 20.1099C118.979 20.0049 119.14 19.928 119.329 20.1099C119.196 19.879 119.301 19.7321 119.518 19.6201C119.378 19.5921 119.259 19.6481 119.189 19.5851C119.126 19.5221 119.112 19.4032 119.07 19.2912C119.028 19.4032 119.014 19.5291 118.937 19.5851C118.867 19.6341 118.741 19.6061 118.643 19.6131C118.895 19.7181 118.888 19.9 118.804 20.1029L118.79 20.1169C118.79 20.1169 118.797 20.1169 118.804 20.1169C118.804 20.1169 118.804 20.1029 118.804 20.0959L118.811 20.1099ZM109.309 20.1099C109.309 20.1099 109.309 20.1239 109.309 20.1309V20.1239C109.309 20.1239 109.302 20.1239 109.295 20.1169C109.211 19.914 109.225 19.746 109.449 19.6481C109.449 19.6481 109.449 19.6271 109.449 19.5991C109.19 19.6901 109.085 19.5361 109.029 19.2982C109.008 19.5711 108.861 19.6621 108.595 19.6201C108.868 19.7391 108.882 19.921 108.763 20.1589C108.931 19.949 109.099 19.935 109.274 20.1169C109.274 20.1169 109.295 20.1169 109.302 20.1169L109.309 20.1099ZM115.326 20.1099C115.326 20.1099 115.326 20.1239 115.326 20.1309V20.1239C115.326 20.1239 115.319 20.1239 115.312 20.1169C115.221 19.914 115.249 19.746 115.466 19.6481C115.466 19.6481 115.466 19.6271 115.466 19.5921C115.186 19.7181 115.109 19.5221 115.039 19.2982C115.039 19.6061 114.865 19.6551 114.62 19.6271C114.851 19.7391 114.928 19.893 114.767 20.1239C114.907 20.1099 114.963 19.984 115.053 19.977C115.151 19.977 115.2 20.1169 115.319 20.1169L115.326 20.1099ZM115.319 14.9599C115.319 14.9389 115.333 14.9179 115.326 14.9039C115.207 14.694 115.291 14.561 115.48 14.4701C115.48 14.4701 115.48 14.4561 115.48 14.4281C115.221 14.512 115.109 14.3721 115.074 14.0922C115.018 14.2322 115.011 14.3441 114.949 14.4071C114.879 14.4841 114.746 14.4071 114.641 14.4491C114.725 14.512 114.83 14.561 114.872 14.638C114.914 14.722 114.823 14.8129 114.809 14.9039C114.858 14.9249 114.9 14.9039 114.928 14.8759C115.039 14.75 115.144 14.7849 115.242 14.8899C115.27 14.9179 115.298 14.9389 115.326 14.9599H115.319ZM109.302 14.9599C109.302 14.9389 109.323 14.9179 109.316 14.9039C109.204 14.694 109.281 14.561 109.47 14.4701C109.47 14.4701 109.47 14.4561 109.47 14.4281C109.211 14.512 109.099 14.3791 109.05 14.1202C109.022 14.3931 108.882 14.498 108.616 14.4421C108.819 14.561 108.952 14.687 108.777 14.9109C108.847 14.9389 108.889 14.9109 108.917 14.8759C109.015 14.7709 109.099 14.7849 109.197 14.8759C109.232 14.9109 109.267 14.9319 109.309 14.9669L109.302 14.9599ZM109.617 17.0381C109.875 17.143 109.903 17.318 109.749 17.5699C109.882 17.4859 109.966 17.3879 110.057 17.3809C110.141 17.3809 110.225 17.4789 110.316 17.5349C110.316 17.4159 110.211 17.318 110.253 17.234C110.295 17.15 110.4 17.1011 110.477 17.0381C110.204 17.0871 110.092 16.9541 110.064 16.6672C109.985 16.8958 109.836 17.0194 109.617 17.0381ZM116.544 17.0451C116.383 17.0031 116.257 17.0661 116.18 16.9961C116.103 16.9331 116.124 16.8002 116.047 16.6952C116.047 16.9821 115.893 17.0801 115.62 17.0311C115.893 17.143 115.914 17.318 115.795 17.5559C115.977 17.353 116.152 17.339 116.341 17.5559C116.222 17.318 116.25 17.15 116.551 17.0451H116.544ZM118.524 17.0241C118.305 17.0241 118.149 16.9075 118.055 16.6742C118.041 16.9751 117.901 17.0801 117.629 17.0311C117.887 17.143 117.915 17.318 117.782 17.5699C117.908 17.4859 117.992 17.3879 118.076 17.3879C118.16 17.3879 118.244 17.4929 118.349 17.5559C118.321 17.4369 118.251 17.325 118.279 17.241C118.307 17.157 118.426 17.1081 118.531 17.0241H118.524ZM111.051 14.1132C111.023 14.3931 110.876 14.4841 110.61 14.4421C110.869 14.554 110.904 14.722 110.778 14.9599C110.967 14.757 111.135 14.757 111.324 14.9599C111.177 14.715 111.254 14.561 111.485 14.4421C111.205 14.498 111.079 14.3791 111.044 14.1132H111.051ZM116.628 14.4491C116.915 14.554 116.894 14.743 116.803 14.9739C116.985 14.729 117.16 14.7779 117.342 14.9599C117.216 14.722 117.251 14.554 117.51 14.4421C117.23 14.498 117.104 14.3791 117.069 14.1062C117.034 14.3651 116.915 14.498 116.628 14.4421V14.4491ZM112.059 16.6882C112.038 16.9821 111.891 17.0731 111.618 17.0241C111.87 17.143 111.919 17.311 111.793 17.5629C111.982 17.311 112.15 17.3809 112.339 17.5489C112.178 17.304 112.269 17.143 112.506 17.0241C112.227 17.0801 112.087 16.9751 112.059 16.6882ZM115.795 14.0992C115.984 13.8963 116.152 13.8893 116.341 14.0992C116.201 13.8543 116.278 13.6934 116.516 13.5674C116.229 13.6374 116.11 13.5044 116.068 13.2385C116.047 13.5254 115.907 13.6234 115.627 13.5674C115.879 13.6864 115.942 13.8543 115.802 14.0992H115.795ZM110.533 13.5744C110.372 13.5604 110.246 13.5884 110.176 13.5394C110.106 13.4834 110.092 13.3575 110.036 13.2035C110.029 13.5184 109.889 13.6234 109.603 13.5674C109.896 13.6724 109.896 13.8613 109.763 14.1062C109.889 14.0222 109.973 13.9383 110.064 13.9243C110.155 13.9103 110.218 14.0432 110.365 14.0852C110.162 13.8333 110.281 13.6934 110.533 13.5744ZM111.618 13.5744C111.877 13.6864 111.905 13.8613 111.786 14.0992C111.975 13.8963 112.15 13.8963 112.339 14.0992C112.178 13.8473 112.276 13.6864 112.499 13.5604C112.213 13.6374 112.101 13.5044 112.052 13.2455C112.031 13.5324 111.884 13.6234 111.618 13.5744ZM117.803 14.0992C117.992 13.8683 118.16 13.9243 118.356 14.0992C118.188 13.8473 118.3 13.7004 118.524 13.5674C118.23 13.6514 118.118 13.5114 118.076 13.2525C118.048 13.5324 117.908 13.6304 117.635 13.5814C117.88 13.7004 117.943 13.8613 117.81 14.1062L117.803 14.0992ZM117.356 20.1519C117.181 19.9 117.293 19.746 117.517 19.5991C117.209 19.7111 117.125 19.5221 117.069 19.2912C117.048 19.5711 116.901 19.6621 116.628 19.6201C116.908 19.7251 116.908 19.907 116.81 20.1449C116.999 19.921 117.167 19.949 117.356 20.1449V20.1519ZM111.331 20.1449C111.184 19.893 111.275 19.7391 111.506 19.6061C111.198 19.7041 111.107 19.5361 111.058 19.2912C111.03 19.5641 110.897 19.6761 110.617 19.6201C110.883 19.7321 110.904 19.914 110.792 20.1449C110.974 19.949 111.142 19.921 111.338 20.1449H111.331ZM116.796 16.6952C116.985 16.4923 117.153 16.4853 117.342 16.6952C117.202 16.4503 117.272 16.2824 117.517 16.1564C117.223 16.2404 117.104 16.1004 117.062 15.8345C117.034 16.1074 116.894 16.2194 116.614 16.1634C116.873 16.2824 116.915 16.4503 116.789 16.6952H116.796ZM113.626 13.5674C113.871 13.6934 113.927 13.8613 113.78 14.1062C113.969 13.8963 114.144 13.8893 114.34 14.1062C114.172 13.8543 114.263 13.7004 114.494 13.5744C114.228 13.6234 114.088 13.5324 114.053 13.2595C114.011 13.5254 113.892 13.6374 113.619 13.5744L113.626 13.5674ZM112.8 14.9529C112.968 14.7709 113.129 14.75 113.318 14.9389C113.192 14.694 113.29 14.554 113.5 14.4421C113.227 14.498 113.094 14.3931 113.066 14.1202C113.031 14.3931 112.891 14.4911 112.618 14.4491C112.884 14.554 112.905 14.729 112.8 14.9599V14.9529ZM119.511 14.4421C119.245 14.498 119.105 14.3931 119.098 14.1132C119.007 14.2182 119.035 14.3511 118.951 14.4141C118.874 14.4771 118.748 14.4141 118.615 14.4631C118.895 14.554 118.916 14.729 118.811 14.9599C118.979 14.7709 119.14 14.7569 119.343 14.9389C119.161 14.673 119.329 14.561 119.511 14.4421ZM111.324 16.7092C111.324 16.5553 111.219 16.4643 111.261 16.3663C111.296 16.2754 111.429 16.2544 111.506 16.1354C111.219 16.2264 111.093 16.1004 111.058 15.8275C111.037 16.1214 110.883 16.2054 110.61 16.1704C110.89 16.2754 110.897 16.4573 110.792 16.6952C110.974 16.4783 111.149 16.4923 111.324 16.7092ZM114.06 16.7162C114.039 17.0101 113.871 17.0591 113.626 17.0381C113.864 17.15 113.941 17.297 113.787 17.5349C113.969 17.3879 114.137 17.339 114.326 17.5349C114.158 17.276 114.326 17.157 114.494 17.0241C114.228 17.0871 114.095 16.9821 114.053 16.7162H114.06ZM113.521 12.6787C113.227 12.7697 113.094 12.6577 113.073 12.3639C113.017 12.5108 113.003 12.6368 112.933 12.6857C112.863 12.7347 112.737 12.7067 112.639 12.7067C112.912 12.8117 112.891 13.0076 112.793 13.2385C112.982 13.0146 113.157 13.0286 113.332 13.2385C113.311 13.1196 113.248 13.0146 113.262 12.9236C113.276 12.8257 113.423 12.8047 113.528 12.6717L113.521 12.6787ZM118.797 13.2455C118.986 13.0146 119.168 13.0426 119.357 13.2455C119.203 13.0006 119.266 12.8397 119.518 12.7137C119.252 12.7627 119.105 12.6717 119.077 12.3919C119.035 12.6647 118.909 12.7767 118.629 12.7137C118.888 12.8327 118.93 13.0076 118.797 13.2525V13.2455ZM110.61 12.7067C110.855 12.8257 110.911 12.9866 110.785 13.2245C110.89 13.1686 110.974 13.0636 111.051 13.0636C111.135 13.0636 111.219 13.1616 111.303 13.2175C111.17 12.9796 111.268 12.8257 111.506 12.7137C111.366 12.6857 111.24 12.7487 111.17 12.6717C111.107 12.6088 111.093 12.4898 111.037 12.3429C111.016 12.6438 110.897 12.7697 110.61 12.7067ZM116.803 13.2315C116.901 13.1616 116.985 13.0636 117.062 13.0636C117.153 13.0636 117.237 13.1616 117.335 13.2175C117.335 13.0986 117.23 13.0006 117.272 12.9097C117.314 12.8257 117.419 12.7767 117.496 12.7137C117.223 12.7627 117.097 12.6438 117.062 12.3639C117.041 12.6508 116.894 12.7487 116.593 12.6787C116.712 12.7767 116.831 12.8257 116.859 12.9027C116.887 12.9866 116.824 13.0986 116.796 13.2245L116.803 13.2315ZM111.758 19.2772C111.905 19.2352 111.968 19.1023 112.066 19.1163C112.157 19.1303 112.234 19.2212 112.311 19.2772C112.164 19.0393 112.269 18.8854 112.492 18.7594C112.213 18.8294 112.094 18.6964 112.052 18.4375C112.024 18.7174 111.884 18.8224 111.611 18.7664C111.849 18.8784 111.926 19.0323 111.758 19.2842V19.2772ZM115.788 19.2912C115.97 19.0743 116.145 19.0813 116.334 19.2772C116.18 19.0253 116.285 18.8784 116.509 18.7524C116.222 18.8224 116.103 18.6964 116.061 18.4236C116.04 18.7174 115.893 18.8084 115.62 18.7664C115.893 18.8784 115.914 19.0533 115.788 19.2982V19.2912ZM113.633 18.7524C113.801 18.9017 113.85 19.0813 113.78 19.2912C113.885 19.2212 113.955 19.1373 114.039 19.1163C114.144 19.0883 114.2 19.2352 114.333 19.2562C114.193 19.0253 114.263 18.8714 114.501 18.7594C114.228 18.8154 114.088 18.7174 114.053 18.4375C114.018 18.7104 113.885 18.8154 113.626 18.7524H113.633ZM109.784 19.2912C109.966 19.0533 110.134 19.0883 110.33 19.2772C110.183 19.0323 110.274 18.8784 110.505 18.7524C110.218 18.8294 110.099 18.6895 110.05 18.4306C110.022 18.7104 109.882 18.8014 109.617 18.7594C109.882 18.8714 109.917 19.0463 109.791 19.2912H109.784ZM118.062 14.9669C118.062 15.2818 117.88 15.3307 117.621 15.3097C117.908 15.4077 117.908 15.5896 117.803 15.8205C117.992 15.5966 118.16 15.6386 118.349 15.8205C118.202 15.5826 118.265 15.4147 118.517 15.2957C118.237 15.3587 118.118 15.2328 118.069 14.9669H118.062ZM116.509 15.3027C116.383 15.2957 116.25 15.3237 116.187 15.2678C116.117 15.2118 116.11 15.0788 116.075 14.9879C116.04 15.2468 115.907 15.3587 115.627 15.3027C115.893 15.4147 115.921 15.5896 115.802 15.8345C115.984 15.5966 116.152 15.6316 116.334 15.8345C116.292 15.606 116.353 15.4287 116.516 15.3027H116.509ZM112.499 15.3027C112.227 15.3517 112.087 15.2468 112.052 14.9599C112.052 15.2678 111.884 15.3447 111.618 15.3027C111.856 15.4217 111.926 15.5756 111.786 15.8205C111.975 15.6106 112.15 15.6316 112.332 15.8205C112.185 15.5756 112.255 15.4217 112.492 15.3027H112.499ZM110.323 15.8135C110.295 15.6946 110.232 15.5896 110.26 15.5127C110.288 15.4287 110.407 15.3797 110.484 15.3167C110.211 15.3727 110.099 15.2328 110.05 14.9739C110.029 15.2608 109.882 15.3517 109.61 15.3097C109.882 15.4217 109.903 15.5966 109.756 15.8345C109.957 15.7133 110.144 15.7063 110.316 15.8135H110.323ZM117.496 17.8918C117.23 17.9547 117.104 17.8288 117.069 17.5629C117.048 17.8428 116.894 17.9337 116.635 17.9057C116.929 18.0037 116.901 18.1926 116.81 18.4166C116.992 18.1926 117.16 18.2276 117.342 18.4306C117.295 18.202 117.346 18.0224 117.496 17.8918ZM118.062 18.4375C118.034 18.6964 117.908 18.8224 117.621 18.7594C117.873 18.8714 117.922 19.0393 117.803 19.2842C117.985 19.0743 118.146 19.0883 118.328 19.2842C118.195 19.0393 118.279 18.8854 118.524 18.7804C118.291 18.7524 118.137 18.6405 118.062 18.4445V18.4375ZM110.785 18.4166C110.974 18.2136 111.142 18.2066 111.331 18.4166C111.198 18.1786 111.254 18.0107 111.499 17.8848C111.198 17.9687 111.107 17.8078 111.058 17.5629C111.03 17.8288 110.897 17.9477 110.617 17.8988C110.897 18.0037 110.897 18.1856 110.785 18.4166Z" fill="#022765"/>
<path d="M108.014 20.6207C111.982 20.6207 115.949 20.6207 119.917 20.6207C119.98 20.6207 120.043 20.6207 120.106 20.6207C120.162 20.6207 120.217 20.6207 120.28 20.6207C121.729 20.6207 123.177 20.6207 124.619 20.6207C129.16 20.6207 133.701 20.6207 138.243 20.6207V21.8593C138.187 21.8593 138.131 21.8593 138.068 21.8593C128.111 21.8593 118.146 21.8593 108.189 21.8593C108.133 21.8593 108.077 21.8593 108.014 21.8593V20.6207Z" fill="#FEFDFD"/>
<path d="M108.014 26.7644C108.014 26.3516 108.014 25.9387 108.014 25.5259C108.077 25.5259 108.14 25.5259 108.203 25.5259C118.153 25.5259 128.104 25.5259 138.054 25.5259C138.117 25.5259 138.18 25.5259 138.243 25.5259V26.7644C138.194 26.7644 138.152 26.7644 138.103 26.7644C128.124 26.7644 118.139 26.7644 108.161 26.7644C108.112 26.7644 108.07 26.7644 108.021 26.7644H108.014Z" fill="#FEFDFD"/>
<path d="M108.014 26.7644C108.063 26.7644 108.105 26.7644 108.154 26.7644C118.132 26.7644 128.117 26.7644 138.096 26.7644C138.145 26.7644 138.186 26.7644 138.235 26.7644C138.235 27.1492 138.235 27.5341 138.235 27.9189C138.235 27.9889 138.221 28.0099 138.152 27.9959C138.131 27.9959 138.11 27.9959 138.089 27.9959C128.11 27.9959 118.125 27.9959 108.147 27.9959C108.028 27.9959 108 27.9679 108 27.849C108.007 27.4851 108 27.1212 108 26.7574L108.014 26.7644Z" fill="#BB1540"/>
<path d="M138.243 25.5328C138.18 25.5328 138.117 25.5328 138.054 25.5328C128.104 25.5328 118.153 25.5328 108.203 25.5328C108.14 25.5328 108.077 25.5328 108.014 25.5328C108.014 25.12 108.014 24.7072 108.014 24.2943C108.07 24.2943 108.126 24.3083 108.182 24.3083C118.146 24.3083 128.104 24.3083 138.068 24.3083C138.124 24.3083 138.18 24.3013 138.236 24.2943V25.5328H138.243Z" fill="#BB1540"/>
<path d="M108.014 21.8593C108.07 21.8593 108.126 21.8593 108.189 21.8593C118.146 21.8593 128.111 21.8593 138.068 21.8593C138.124 21.8593 138.18 21.8593 138.243 21.8593V23.0978C138.18 23.0978 138.117 23.0908 138.054 23.0908C128.104 23.0908 118.153 23.0908 108.203 23.0908C108.14 23.0908 108.077 23.0908 108.014 23.0978C108.014 22.6849 108.014 22.2721 108.014 21.8593Z" fill="#BB1540"/>
<path d="M108.014 23.0908C108.077 23.0908 108.14 23.0838 108.203 23.0838C118.153 23.0838 128.104 23.0838 138.054 23.0838C138.117 23.0838 138.18 23.0838 138.243 23.0908V24.2943C138.187 24.2943 138.131 24.3083 138.075 24.3083C128.111 24.3083 118.153 24.3083 108.189 24.3083C108.133 24.3083 108.077 24.3013 108.021 24.2943C108.021 23.8955 108.021 23.4896 108.021 23.0908H108.014Z" fill="#FEFDFD"/>
<path d="M120.112 13.2385C120.112 12.8257 120.112 12.4199 120.112 12.007C126.109 12.007 132.106 12.007 138.102 12.007C138.221 12.007 138.249 12.035 138.249 12.154C138.242 12.5178 138.249 12.8817 138.249 13.2455C138.214 13.2455 138.179 13.2455 138.137 13.2455C132.134 13.2455 126.123 13.2455 120.119 13.2455L120.112 13.2385Z" fill="#BB1540"/>
<path d="M138.243 20.6207C133.701 20.6207 129.16 20.6207 124.619 20.6207C123.17 20.6207 121.722 20.6207 120.28 20.6207C120.224 20.6207 120.168 20.6207 120.105 20.6207C120.105 20.2078 120.105 19.802 120.105 19.3892C122.212 19.3892 124.325 19.3892 126.431 19.3892C130.364 19.3892 134.303 19.3892 138.236 19.3892V20.6277L138.243 20.6207Z" fill="#BB1540"/>
<path d="M138.242 19.3822C134.31 19.3822 130.37 19.3822 126.438 19.3822C124.332 19.3822 122.219 19.3822 120.112 19.3822C120.112 18.9693 120.112 18.5635 120.112 18.1506C126.088 18.1506 132.064 18.1506 138.039 18.1506C138.109 18.1506 138.172 18.1506 138.242 18.1506V19.3892V19.3822Z" fill="#FEFDFD"/>
<path d="M138.242 18.1507C138.172 18.1507 138.109 18.1507 138.039 18.1507C132.064 18.1507 126.088 18.1507 120.112 18.1507C120.112 17.7379 120.112 17.332 120.112 16.9192C126.116 16.9192 132.127 16.9192 138.13 16.9192C138.165 16.9192 138.2 16.9192 138.242 16.9122V18.1507Z" fill="#BB1540"/>
<path d="M120.112 15.7016C120.112 15.2888 120.112 14.8829 120.112 14.4701C126.088 14.4701 132.064 14.4701 138.039 14.4701C138.109 14.4701 138.172 14.4701 138.242 14.4701V15.7086C138.186 15.7086 138.13 15.6946 138.074 15.6946C137.585 15.6946 137.088 15.6946 136.598 15.6946C131.105 15.6946 125.612 15.6946 120.119 15.6946L120.112 15.7016Z" fill="#BB1540"/>
<path d="M138.242 14.4771C138.172 14.4771 138.109 14.4771 138.039 14.4771C132.064 14.4771 126.088 14.4771 120.112 14.4771C120.112 14.0642 120.112 13.6584 120.112 13.2455C126.116 13.2455 132.127 13.2455 138.13 13.2455C138.165 13.2455 138.2 13.2455 138.242 13.2455V14.4841V14.4771Z" fill="#FEFDFD"/>
<path d="M120.112 15.7016C125.605 15.7016 131.098 15.7016 136.591 15.7016C137.081 15.7016 137.578 15.7016 138.068 15.7016C138.124 15.7016 138.18 15.7086 138.236 15.7156V16.9191C138.201 16.9191 138.166 16.9261 138.124 16.9261C132.12 16.9261 126.109 16.9261 120.105 16.9261C120.105 16.5203 120.105 16.1074 120.105 15.7016H120.112Z" fill="#FEFDFD"/>
<path d="M109.616 17.0381C109.831 17.0194 109.98 16.8958 110.064 16.6672C110.092 16.9541 110.211 17.0871 110.477 17.0381C110.4 17.1011 110.295 17.1571 110.253 17.234C110.211 17.318 110.309 17.416 110.316 17.5349C110.225 17.4719 110.141 17.374 110.057 17.381C109.966 17.381 109.882 17.4789 109.749 17.5699C109.903 17.318 109.875 17.1431 109.616 17.0381Z" fill="#FEFDFD"/>
<path d="M116.543 17.0451C116.25 17.1501 116.215 17.318 116.334 17.5559C116.145 17.346 115.977 17.36 115.788 17.5559C115.907 17.318 115.886 17.1431 115.613 17.0311C115.886 17.0731 116.033 16.9821 116.04 16.6953C116.124 16.8002 116.103 16.9332 116.173 16.9961C116.25 17.0661 116.376 16.9961 116.536 17.0451H116.543Z" fill="#FEFDFD"/>
<path d="M118.524 17.0241C118.419 17.108 118.3 17.164 118.272 17.241C118.244 17.3249 118.314 17.4369 118.342 17.5559C118.244 17.4859 118.16 17.3879 118.069 17.3879C117.985 17.3879 117.901 17.4859 117.775 17.5699C117.908 17.3249 117.88 17.143 117.621 17.0311C117.901 17.08 118.034 16.9751 118.048 16.6742C118.141 16.9028 118.298 17.0194 118.517 17.0241H118.524Z" fill="#FEFDFD"/>
<path d="M111.051 14.1132C111.086 14.3791 111.212 14.4981 111.492 14.4421C111.254 14.5611 111.184 14.715 111.331 14.9599C111.142 14.764 110.967 14.757 110.785 14.9599C110.911 14.722 110.876 14.5541 110.617 14.4421C110.883 14.4841 111.03 14.3931 111.058 14.1132H111.051Z" fill="#FEFDFD"/>
<path d="M116.628 14.4491C116.915 14.5051 117.027 14.3721 117.069 14.1132C117.104 14.3791 117.237 14.4981 117.51 14.4491C117.251 14.5611 117.209 14.729 117.342 14.9669C117.153 14.785 116.985 14.736 116.803 14.9809C116.901 14.743 116.915 14.561 116.628 14.4561V14.4491Z" fill="#FEFDFD"/>
<path d="M112.059 16.6882C112.087 16.9751 112.226 17.0731 112.506 17.0241C112.268 17.1431 112.177 17.304 112.338 17.5489C112.149 17.381 111.975 17.311 111.793 17.5629C111.912 17.311 111.87 17.1431 111.618 17.0241C111.891 17.0731 112.045 16.9751 112.059 16.6882Z" fill="#FEFDFD"/>
<path d="M115.795 14.0992C115.935 13.8543 115.872 13.6934 115.62 13.5674C115.9 13.6234 116.04 13.5184 116.061 13.2385C116.103 13.4974 116.222 13.6374 116.509 13.5674C116.271 13.6934 116.194 13.8543 116.334 14.0992C116.145 13.8963 115.977 13.8963 115.788 14.0992H115.795Z" fill="#FEFDFD"/>
<path d="M110.533 13.5744C110.281 13.6933 110.162 13.8333 110.365 14.0852C110.211 14.0502 110.148 13.9172 110.064 13.9242C109.973 13.9382 109.889 14.0222 109.763 14.1061C109.896 13.8612 109.896 13.6723 109.603 13.5674C109.889 13.6163 110.029 13.5184 110.036 13.2035C110.092 13.3574 110.106 13.4834 110.176 13.5394C110.246 13.5883 110.372 13.5604 110.533 13.5744Z" fill="#FEFDFD"/>
<path d="M111.618 13.5744C111.884 13.6234 112.031 13.5324 112.052 13.2455C112.1 13.5044 112.219 13.6374 112.499 13.5604C112.268 13.6934 112.177 13.8473 112.338 14.0992C112.149 13.8893 111.975 13.8893 111.786 14.0992C111.905 13.8613 111.877 13.6864 111.618 13.5744Z" fill="#FEFDFD"/>
<path d="M117.803 14.0992C117.936 13.8543 117.873 13.6934 117.628 13.5744C117.901 13.6234 118.041 13.5254 118.069 13.2455C118.111 13.5114 118.223 13.6514 118.517 13.5604C118.293 13.6934 118.181 13.8403 118.349 14.0922C118.16 13.9173 117.985 13.8683 117.796 14.0922L117.803 14.0992Z" fill="#FEFDFD"/>
<path d="M109.302 14.9599C109.267 14.9319 109.225 14.9039 109.19 14.8689C109.099 14.778 109.008 14.764 108.91 14.8689C108.882 14.9039 108.84 14.9319 108.77 14.9039C108.945 14.68 108.812 14.5541 108.609 14.4351C108.875 14.4911 109.015 14.3861 109.043 14.1132C109.085 14.3721 109.204 14.5051 109.463 14.4211C109.463 14.4491 109.463 14.4631 109.463 14.4631C109.267 14.5541 109.19 14.694 109.309 14.8969C109.316 14.9109 109.309 14.9319 109.295 14.9529L109.302 14.9599Z" fill="#FEFDFD"/>
<path d="M117.356 20.1519C117.16 19.949 116.992 19.921 116.81 20.1519C116.908 19.921 116.908 19.7321 116.628 19.6271C116.901 19.6691 117.048 19.5711 117.069 19.2982C117.132 19.5291 117.209 19.7181 117.517 19.6061C117.293 19.746 117.181 19.9 117.356 20.1589V20.1519Z" fill="#FEFDFD"/>
<path d="M111.331 20.1449C111.142 19.921 110.974 19.9559 110.785 20.1449C110.904 19.907 110.876 19.732 110.61 19.6201C110.89 19.6691 111.023 19.5641 111.051 19.2912C111.1 19.5361 111.191 19.704 111.499 19.6061C111.275 19.739 111.177 19.893 111.324 20.1449H111.331Z" fill="#FEFDFD"/>
<path d="M115.319 14.9599C115.319 14.9599 115.263 14.9179 115.235 14.8899C115.13 14.792 115.032 14.75 114.92 14.8759C114.892 14.9039 114.85 14.9319 114.801 14.9039C114.822 14.8129 114.906 14.715 114.864 14.638C114.822 14.561 114.717 14.5121 114.633 14.4491C114.745 14.4071 114.871 14.4841 114.941 14.4071C115.004 14.3441 115.018 14.2322 115.067 14.0922C115.102 14.3721 115.214 14.5121 115.473 14.4281C115.473 14.4561 115.473 14.4701 115.473 14.4701C115.284 14.568 115.2 14.701 115.319 14.9039C115.326 14.9179 115.319 14.9389 115.312 14.9599H115.319Z" fill="#FEFDFD"/>
<path d="M116.796 16.6952C116.921 16.4503 116.88 16.2824 116.621 16.1634C116.9 16.2194 117.04 16.1074 117.068 15.8345C117.11 16.0934 117.229 16.2404 117.523 16.1564C117.271 16.2824 117.208 16.4503 117.348 16.6952C117.159 16.4853 116.984 16.4923 116.803 16.6952H116.796Z" fill="#FEFDFD"/>
<path d="M113.626 13.5674C113.899 13.6374 114.018 13.5184 114.06 13.2525C114.095 13.5254 114.235 13.6164 114.501 13.5674C114.27 13.6933 114.179 13.8543 114.347 14.0992C114.151 13.8823 113.976 13.8893 113.787 14.0992C113.927 13.8543 113.871 13.6863 113.633 13.5604L113.626 13.5674Z" fill="#FEFDFD"/>
<path d="M112.8 14.9529C112.905 14.722 112.884 14.5541 112.618 14.4421C112.884 14.4841 113.031 14.3791 113.066 14.1132C113.094 14.3861 113.227 14.4911 113.5 14.4351C113.29 14.5471 113.192 14.687 113.318 14.9319C113.129 14.743 112.968 14.764 112.8 14.9459V14.9529Z" fill="#FEFDFD"/>
<path d="M119.51 14.4421C119.328 14.5611 119.161 14.673 119.342 14.9389C119.14 14.757 118.979 14.771 118.811 14.9599C118.923 14.722 118.895 14.5541 118.615 14.4631C118.748 14.4141 118.874 14.4771 118.951 14.4141C119.028 14.3511 119.007 14.2182 119.098 14.1132C119.112 14.3931 119.245 14.4911 119.51 14.4421Z" fill="#FEFDFD"/>
<path d="M111.324 16.7092C111.149 16.4923 110.974 16.4713 110.792 16.6952C110.897 16.4573 110.89 16.2753 110.61 16.1704C110.883 16.2054 111.037 16.1214 111.058 15.8275C111.093 16.1004 111.219 16.2194 111.506 16.1354C111.429 16.2544 111.303 16.2753 111.261 16.3663C111.219 16.4643 111.317 16.5622 111.324 16.7092Z" fill="#FEFDFD"/>
<path d="M114.06 16.7162C114.102 16.9821 114.228 17.087 114.5 17.0241C114.326 17.157 114.165 17.276 114.333 17.5349C114.144 17.3459 113.976 17.3949 113.794 17.5349C113.941 17.297 113.864 17.15 113.633 17.0381C113.878 17.0661 114.053 17.0101 114.067 16.7162H114.06Z" fill="#FEFDFD"/>
<path d="M113.521 12.6787C113.416 12.8047 113.269 12.8327 113.255 12.9306C113.241 13.0216 113.304 13.1266 113.325 13.2455C113.15 13.0356 112.975 13.0216 112.786 13.2455C112.884 13.0146 112.905 12.8187 112.632 12.7137C112.73 12.7137 112.856 12.7417 112.926 12.6927C112.996 12.6437 113.01 12.5108 113.066 12.3708C113.087 12.6647 113.22 12.7767 113.514 12.6857L113.521 12.6787Z" fill="#FEFDFD"/>
<path d="M115.326 20.1099C115.214 20.1099 115.158 19.9629 115.06 19.9699C114.969 19.9699 114.906 20.1029 114.773 20.1169C114.934 19.886 114.857 19.739 114.626 19.6201C114.878 19.6481 115.053 19.5991 115.046 19.2912C115.116 19.5221 115.193 19.718 115.473 19.5851C115.473 19.6201 115.473 19.6411 115.473 19.6411C115.249 19.739 115.228 19.907 115.319 20.1099H115.326Z" fill="#FEFDFD"/>
<path d="M109.308 20.1099C109.308 20.1099 109.287 20.1169 109.28 20.1099C109.105 19.928 108.944 19.942 108.77 20.1519C108.888 19.914 108.874 19.732 108.602 19.6131C108.867 19.6551 109.007 19.5641 109.035 19.2912C109.091 19.5291 109.196 19.683 109.455 19.5921C109.455 19.6201 109.455 19.6411 109.455 19.6411C109.231 19.739 109.217 19.907 109.301 20.1099H109.308Z" fill="#FEFDFD"/>
<path d="M118.818 20.1169C118.895 19.914 118.902 19.7321 118.657 19.6271C118.755 19.6271 118.881 19.6481 118.951 19.5991C119.021 19.5501 119.035 19.4172 119.084 19.3052C119.126 19.4172 119.14 19.5361 119.203 19.5991C119.273 19.6621 119.391 19.6061 119.531 19.6341C119.314 19.7461 119.21 19.893 119.342 20.1239C119.154 19.942 118.986 20.012 118.825 20.1239L118.818 20.1169Z" fill="#FEFDFD"/>
<path d="M112.8 20.1169C112.877 19.914 112.884 19.7321 112.639 19.6201C112.737 19.6201 112.863 19.6411 112.933 19.5921C113.003 19.5432 113.017 19.4102 113.073 19.2703C113.094 19.5572 113.213 19.6901 113.5 19.5921C113.423 19.7181 113.297 19.7391 113.255 19.83C113.213 19.921 113.332 20.012 113.297 20.1169C113.129 19.935 112.961 20.012 112.793 20.1169H112.8Z" fill="#FEFDFD"/>
<path d="M118.797 13.2455C118.93 13.0006 118.888 12.8257 118.629 12.7067C118.909 12.7697 119.042 12.6507 119.077 12.3848C119.105 12.6717 119.252 12.7557 119.518 12.7067C119.266 12.8257 119.203 12.9936 119.357 13.2385C119.168 13.0426 118.986 13.0076 118.797 13.2385V13.2455Z" fill="#FEFDFD"/>
<path d="M110.61 12.7067C110.897 12.7767 111.016 12.6437 111.037 12.3428C111.093 12.4898 111.107 12.6087 111.17 12.6717C111.24 12.7417 111.366 12.6787 111.506 12.7137C111.268 12.8256 111.17 12.9796 111.303 13.2175C111.219 13.1615 111.135 13.0636 111.051 13.0636C110.967 13.0636 110.89 13.1615 110.785 13.2245C110.911 12.9936 110.862 12.8256 110.61 12.7067Z" fill="#FEFDFD"/>
<path d="M116.803 13.2315C116.831 13.1056 116.894 12.9936 116.866 12.9096C116.838 12.8327 116.726 12.7837 116.6 12.6857C116.9 12.7557 117.047 12.6577 117.068 12.3708C117.103 12.6437 117.229 12.7697 117.502 12.7207C117.425 12.7837 117.313 12.8327 117.278 12.9166C117.236 13.0006 117.334 13.1056 117.341 13.2245C117.243 13.1615 117.152 13.0706 117.068 13.0706C116.984 13.0706 116.907 13.1685 116.81 13.2385L116.803 13.2315Z" fill="#FEFDFD"/>
<path d="M115.326 13.2036H115.312C115.137 13.0286 114.97 13.0356 114.788 13.2385C114.914 13.0006 114.893 12.8257 114.62 12.7067C114.886 12.7487 115.039 12.6648 115.06 12.3779C115.102 12.6508 115.228 12.7697 115.501 12.6927C115.291 12.8257 115.221 12.9866 115.326 13.2036Z" fill="#FEFDFD"/>
<path d="M108.805 13.2106C108.805 13.2106 108.784 13.1896 108.791 13.1896C108.903 12.9796 108.861 12.8187 108.588 12.7347C108.728 12.6858 108.847 12.7417 108.924 12.6927C109.008 12.6368 108.994 12.5038 109.057 12.3779C109.099 12.6438 109.204 12.7907 109.498 12.7067C109.26 12.8327 109.183 12.9936 109.344 13.2245C109.309 13.2245 109.295 13.2245 109.295 13.2245C109.134 13.0356 108.973 13.0776 108.812 13.2245L108.805 13.2106Z" fill="#FEFDFD"/>
<path d="M109.309 16.6602C109.197 16.6532 109.141 16.5063 109.043 16.5203C108.959 16.5342 108.882 16.6182 108.77 16.6952C108.805 16.5692 108.875 16.4573 108.847 16.3803C108.819 16.2963 108.7 16.2474 108.581 16.1494C108.861 16.2124 109.022 16.1424 109.043 15.8485C109.092 16.1004 109.211 16.2404 109.484 16.1564C109.281 16.2893 109.197 16.4503 109.309 16.6672V16.6602Z" fill="#FEFDFD"/>
<path d="M111.758 19.2772C111.926 19.0253 111.849 18.8784 111.611 18.7594C111.884 18.8084 112.024 18.7104 112.052 18.4305C112.094 18.6964 112.213 18.8224 112.493 18.7524C112.269 18.8784 112.164 19.0323 112.311 19.2702C112.227 19.2142 112.15 19.1233 112.066 19.1093C111.968 19.0953 111.905 19.2282 111.758 19.2702V19.2772Z" fill="#FEFDFD"/>
<path d="M112.8 16.6602V16.6462C112.891 16.4363 112.877 16.2684 112.611 16.1704C112.884 16.2124 113.031 16.1144 113.066 15.8345C113.094 16.1144 113.234 16.2124 113.5 16.1564C113.283 16.2754 113.185 16.4223 113.325 16.6602C113.136 16.4783 112.968 16.5413 112.8 16.6602Z" fill="#FEFDFD"/>
<path d="M115.326 16.6602C115.214 16.6532 115.158 16.5133 115.06 16.5203C114.969 16.5203 114.907 16.6462 114.767 16.6742C114.942 16.4363 114.844 16.2893 114.62 16.1704C114.872 16.2054 115.032 16.1354 115.046 15.8485C115.095 16.1004 115.214 16.2404 115.48 16.1494C115.48 16.1774 115.48 16.1844 115.48 16.1844C115.27 16.2893 115.214 16.4503 115.312 16.6602H115.326Z" fill="#FEFDFD"/>
<path d="M118.818 16.6602C118.804 16.5553 118.923 16.4573 118.867 16.3594C118.825 16.2824 118.72 16.2334 118.636 16.1564C118.902 16.2194 119.035 16.1144 119.07 15.8416C119.105 16.1075 119.231 16.2334 119.518 16.1564C119.287 16.2824 119.203 16.4293 119.329 16.6602C119.14 16.4713 118.972 16.5413 118.811 16.6602H118.818Z" fill="#FEFDFD"/>
<path d="M115.788 19.2912C115.914 19.0533 115.893 18.8784 115.62 18.7594C115.893 18.8014 116.04 18.7105 116.061 18.4166C116.103 18.6895 116.222 18.8154 116.509 18.7454C116.285 18.8714 116.187 19.0183 116.334 19.2702C116.138 19.0743 115.963 19.0743 115.788 19.2842V19.2912Z" fill="#FEFDFD"/>
<path d="M113.633 18.7524C113.892 18.8154 114.025 18.7105 114.06 18.4376C114.095 18.7175 114.235 18.8154 114.507 18.7594C114.27 18.8714 114.2 19.0323 114.34 19.2562C114.207 19.2353 114.151 19.0883 114.046 19.1163C113.962 19.1373 113.885 19.2213 113.787 19.2912C113.857 19.0813 113.808 18.9017 113.64 18.7524H113.633Z" fill="#FEFDFD"/>
<path d="M109.784 19.2912C109.91 19.0463 109.875 18.8714 109.609 18.7594C109.882 18.8084 110.022 18.7104 110.043 18.4305C110.092 18.6894 110.204 18.8294 110.498 18.7524C110.267 18.8784 110.183 19.0253 110.323 19.2772C110.134 19.0953 109.959 19.0603 109.777 19.2912H109.784Z" fill="#FEFDFD"/>
<path d="M118.062 14.9669C118.111 15.2398 118.23 15.3657 118.51 15.2957C118.265 15.4147 118.202 15.5826 118.342 15.8205C118.153 15.6386 117.985 15.6036 117.796 15.8205C117.901 15.5896 117.901 15.4007 117.614 15.3097C117.88 15.3307 118.055 15.2817 118.055 14.9669H118.062Z" fill="#FEFDFD"/>
<path d="M116.509 15.3027C116.35 15.4287 116.29 15.606 116.327 15.8345C116.145 15.6316 115.977 15.5966 115.795 15.8345C115.914 15.5896 115.886 15.4147 115.62 15.3027C115.9 15.3517 116.033 15.2468 116.068 14.9879C116.103 15.0858 116.117 15.2188 116.18 15.2677C116.25 15.3167 116.376 15.2887 116.502 15.3027H116.509Z" fill="#FEFDFD"/>
<path d="M112.499 15.3027C112.261 15.4217 112.191 15.5756 112.338 15.8205C112.149 15.6316 111.974 15.6176 111.792 15.8205C111.932 15.5756 111.862 15.4147 111.625 15.3027C111.89 15.3447 112.051 15.2677 112.058 14.9598C112.093 15.2467 112.233 15.3517 112.506 15.3027H112.499Z" fill="#FEFDFD"/>
<path d="M110.323 15.8136C110.146 15.7063 109.959 15.7133 109.763 15.8345C109.903 15.5896 109.882 15.4147 109.616 15.3097C109.889 15.3517 110.036 15.2538 110.057 14.9739C110.099 15.2328 110.218 15.3727 110.491 15.3167C110.414 15.3797 110.302 15.4357 110.267 15.5127C110.239 15.5896 110.302 15.7016 110.33 15.8136H110.323Z" fill="#FEFDFD"/>
<path d="M117.495 17.8917C117.346 18.027 117.295 18.2066 117.342 18.4305C117.16 18.2276 116.992 18.1926 116.81 18.4165C116.901 18.1926 116.929 18.0037 116.635 17.9057C116.901 17.9337 117.055 17.8428 117.069 17.5629C117.111 17.8218 117.23 17.9547 117.495 17.8917Z" fill="#FEFDFD"/>
<path d="M118.062 18.4375C118.137 18.6288 118.291 18.7408 118.524 18.7734C118.279 18.8784 118.195 19.0323 118.328 19.2772C118.146 19.0883 117.978 19.0743 117.803 19.2772C117.915 19.0393 117.866 18.8714 117.621 18.7524C117.901 18.8154 118.034 18.6894 118.062 18.4305V18.4375Z" fill="#FEFDFD"/>
<path d="M113.815 15.8206C113.773 15.7646 113.815 15.7086 113.836 15.6596C113.885 15.5477 113.871 15.4637 113.752 15.4077C113.71 15.3867 113.675 15.3518 113.591 15.2888C113.871 15.3448 114.039 15.2748 114.06 14.9809C114.088 15.2608 114.242 15.3518 114.479 15.2958C114.479 15.3238 114.479 15.3308 114.479 15.3308C114.284 15.4287 114.207 15.5687 114.319 15.7786C114.319 15.7926 114.312 15.8136 114.305 15.8346C114.151 15.6946 113.987 15.6923 113.815 15.8276V15.8206Z" fill="#FEFDFD"/>
<path d="M110.785 18.4165C110.897 18.1856 110.897 18.0107 110.617 17.8987C110.897 17.9477 111.023 17.8218 111.058 17.5629C111.107 17.8078 111.198 17.9757 111.499 17.8847C111.254 18.0107 111.198 18.1786 111.331 18.4165C111.142 18.2066 110.974 18.2136 110.785 18.4165Z" fill="#FEFDFD"/>
<path d="M109.302 18.4165C109.152 18.2906 108.97 18.2952 108.756 18.4305C108.889 18.1926 108.889 18.0107 108.609 17.9057C108.875 17.9477 109.015 17.8497 109.043 17.5768C109.106 17.8008 109.183 17.9967 109.484 17.8777C109.288 18.0247 109.19 18.1646 109.316 18.3745C109.316 18.3815 109.309 18.4025 109.302 18.4165Z" fill="#FEFDFD"/>
<path d="M118.832 18.4165C118.783 18.3605 118.832 18.3046 118.846 18.2556C118.902 18.1366 118.881 18.0597 118.762 17.9967C118.72 17.9757 118.692 17.9407 118.643 17.9057C118.755 17.8567 118.881 17.9337 118.951 17.8567C119.014 17.7938 119.028 17.6748 119.077 17.5768C119.112 17.8217 119.224 17.9617 119.504 17.8847C119.308 18.0037 119.189 18.1366 119.329 18.3885C119.126 18.1856 118.972 18.2416 118.825 18.4095L118.832 18.4165Z" fill="#FEFDFD"/>
<path d="M115.312 18.4166C115.312 18.4166 115.242 18.3676 115.214 18.3396C115.116 18.2486 115.025 18.2206 114.927 18.3326C114.899 18.3676 114.85 18.3956 114.801 18.3676C114.822 18.2766 114.913 18.1787 114.864 18.0947C114.822 18.0177 114.724 17.9757 114.626 17.9058C114.745 17.8988 114.871 17.9198 114.941 17.8708C115.011 17.8218 115.018 17.6958 115.074 17.5699C115.116 17.8218 115.221 17.9757 115.487 17.8918C115.473 17.9267 115.473 17.9407 115.473 17.9407C115.298 18.0317 115.207 18.1507 115.326 18.3536C115.34 18.3746 115.34 18.4026 115.319 18.4236L115.312 18.4166Z" fill="#FEFDFD"/>
<path d="M112.814 18.4166C112.765 18.3606 112.814 18.3046 112.835 18.2556C112.891 18.1367 112.87 18.0597 112.751 17.9967C112.709 17.9757 112.681 17.9407 112.639 17.8988C112.891 17.9407 113.045 17.8568 113.052 17.5699C113.108 17.8218 113.206 17.9757 113.5 17.8848C113.297 18.0107 113.178 18.1437 113.318 18.3956C113.115 18.1926 112.961 18.2556 112.814 18.4166Z" fill="#FEFDFD"/>
<path d="M108.805 13.2105C108.805 13.2105 108.798 13.2245 108.791 13.2315C108.791 13.2315 108.791 13.2175 108.791 13.2105C108.798 13.2105 108.805 13.2105 108.812 13.2105H108.805Z" fill="#FEFDFD"/>
<path d="M109.309 16.6603C109.309 16.6603 109.316 16.6603 109.323 16.6603C109.323 16.6603 109.323 16.6603 109.323 16.6673C109.323 16.6673 109.323 16.6533 109.316 16.6533L109.309 16.6603Z" fill="#FEFDFD"/>
<path d="M109.294 18.4095H109.301V18.4165L109.294 18.4095Z" fill="#FEFDFD"/>
<path d="M112.814 18.4165L112.807 18.4095L112.814 18.4165Z" fill="#FEFDFD"/>
<path d="M115.312 18.4095H115.319L115.312 18.4165V18.4095Z" fill="#FEFDFD"/>
<path d="M112.8 16.6602C112.8 16.6602 112.8 16.6742 112.8 16.6812C112.8 16.6812 112.793 16.6812 112.786 16.6812C112.786 16.6812 112.8 16.6742 112.8 16.6672V16.6602Z" fill="#FEFDFD"/>
<path d="M118.811 16.6602C118.811 16.6602 118.811 16.6742 118.811 16.6812C118.811 16.6812 118.804 16.6812 118.797 16.6812C118.797 16.6812 118.811 16.6742 118.811 16.6672V16.6602Z" fill="#FEFDFD"/>
<path d="M113.815 15.8206C113.815 15.8206 113.801 15.8206 113.787 15.8206C113.787 15.8206 113.794 15.8136 113.801 15.8066C113.801 15.8066 113.808 15.8206 113.815 15.8276V15.8206Z" fill="#FEFDFD"/>
<path d="M109.309 20.1169C109.309 20.1169 109.316 20.1169 109.323 20.1239C109.323 20.1239 109.323 20.1239 109.323 20.1309C109.323 20.1309 109.323 20.1169 109.323 20.1099L109.309 20.1169Z" fill="#FEFDFD"/>
<path d="M112.8 20.1099C112.8 20.1099 112.8 20.1239 112.8 20.1309C112.8 20.1309 112.793 20.1309 112.786 20.1309C112.786 20.1309 112.793 20.1169 112.8 20.1169V20.1099Z" fill="#FEFDFD"/>
<path d="M115.319 16.6603C115.319 16.6603 115.326 16.6603 115.333 16.6603C115.333 16.6603 115.333 16.6603 115.333 16.6673C115.333 16.6673 115.333 16.6533 115.326 16.6533L115.319 16.6603Z" fill="#FEFDFD"/>
<path d="M118.811 20.1099C118.811 20.1099 118.811 20.1239 118.811 20.1309C118.811 20.1309 118.804 20.1309 118.797 20.1309L118.811 20.1169V20.1099Z" fill="#FEFDFD"/>
<path d="M115.312 14.9599L115.319 14.9529V14.9599H115.312Z" fill="#FEFDFD"/>
<path d="M115.319 13.2105C115.319 13.2105 115.326 13.2105 115.333 13.2105C115.333 13.2105 115.333 13.2105 115.333 13.2175C115.333 13.2175 115.326 13.2105 115.319 13.2035V13.2105Z" fill="#FEFDFD"/>
<path d="M114.304 15.8276C114.304 15.8276 114.318 15.8136 114.325 15.8066C114.325 15.8066 114.325 15.8066 114.325 15.8136C114.318 15.8136 114.311 15.8136 114.297 15.8206L114.304 15.8276Z" fill="#FEFDFD"/>
<path d="M115.319 20.1099C115.319 20.1099 115.326 20.1099 115.333 20.1169C115.333 20.1169 115.333 20.1169 115.333 20.1239C115.333 20.1239 115.333 20.1099 115.333 20.1029L115.319 20.1099Z" fill="#FEFDFD"/>
</g>
<path d="M12.25 36H227.75" stroke="#455A64"/>
<path d="M23.2812 54.8125V56.0156H17.625V57.3594C20.1875 57.5 21.7109 58.3594 21.7188 59.8281C21.7109 61.4141 19.8984 62.3047 16.8906 62.2969C13.8437 62.3047 12.0312 61.4141 12.0312 59.8281C12.0312 58.3594 13.5547 57.4922 16.1562 57.3594V56.0156H10.5156V54.8125H23.2812ZM11.1875 52.9062C13.7031 52.6484 15.6875 51.5078 15.8906 50.1562H11.6875V48.9688H22.1406V50.1562H17.8906C18.0938 51.5156 20.0625 52.6484 22.625 52.9062L22.0938 54.0781C19.6641 53.7969 17.6562 52.7734 16.8984 51.2891C16.125 52.7734 14.1328 53.7969 11.7031 54.0781L11.1875 52.9062ZM13.5312 59.8281C13.5234 60.6797 14.75 61.1719 16.8906 61.1562C19 61.1719 20.2344 60.6797 20.2344 59.8281C20.2344 58.9609 19 58.4922 16.8906 58.4844C14.75 58.4922 13.5234 58.9609 13.5312 59.8281ZM36.625 55.1406V56.3281H23.8438V55.1406H29.5156L29.5156 53.6562H25.4375V48.9688L35.0469 48.9688V50.1406L26.9062 50.1406V52.4688H35.1406V53.6562H30.9531L30.9531 55.1406H36.625ZM25.3594 59.7812C25.3594 58.1562 27.1797 57.2422 30.2187 57.2344C33.2344 57.2422 35.0391 58.1562 35.0469 59.7812C35.0391 61.4062 33.2344 62.3203 30.2187 62.3281C27.1797 62.3203 25.3594 61.4062 25.3594 59.7812ZM26.8594 59.7812C26.8516 60.6797 28.0781 61.1719 30.2187 61.1562C32.3281 61.1719 33.5625 60.6797 33.5625 59.7812C33.5625 58.8984 32.3281 58.3906 30.2187 58.3906C28.0781 58.3906 26.8516 58.8984 26.8594 59.7812ZM47.9219 49.6719V58.875H41.3594V49.6719H47.9219ZM42.8281 57.6719H46.4844V50.8438H42.8281V57.6719ZM50.6875 62.3594V48.3281H52.1719V62.3594H50.6875ZM65.0938 49.0469V50.1875C65.1016 51.3594 65.1016 52.6719 64.7656 54.4375H66.7188V55.625H61.1094V58.875H59.625V55.625H53.9062V54.4375H63.25C63.6172 52.6953 63.625 51.4063 63.625 50.25H55.5156V49.0469H65.0938ZM55.4844 62.0313V57.6094H56.9688V60.8281L65.375 60.8281V62.0313L55.4844 62.0313ZM82.2812 48.3281V62.3281H80.7812V48.3281H82.2812ZM70.7812 58.5781C74.5 56.8047 76.3203 54.2813 76.6094 51.0156L71.4531 51.0156V49.8281L78.1094 49.8281C78.1094 53.9297 76.3672 57.4766 71.5625 59.7813L70.7812 58.5781ZM89.125 52.4531C89.1172 54.7969 90.6562 57.2188 92.8125 58.1406L92 59.2969C90.3516 58.5703 89.0391 57.0234 88.3906 55.1563C87.7422 57.1563 86.4297 58.8594 84.7969 59.6563L83.9375 58.4844C86.0469 57.4922 87.6094 54.8672 87.625 52.4531V50.9688H84.4219V49.7344H92.3125V50.9688H89.125V52.4531ZM94.0781 62.3281V48.3281H95.5625V62.3281H94.0781ZM102.859 49.1875V51.3125H106.359V49.1875H107.828V50.5469H110.891V48.3281H112.375V56.7813H110.891V54.625H107.828V55.8125H101.375V49.1875H102.859ZM102.859 54.625H106.359V52.4844H102.859V54.625ZM102.953 59.6875C102.945 58 104.742 57.0391 107.688 57.0313C110.617 57.0391 112.414 58 112.422 59.6875C112.414 61.3438 110.617 62.3047 107.688 62.2969C104.742 62.3047 102.945 61.3438 102.953 59.6875ZM104.422 59.6875C104.414 60.6172 105.633 61.1484 107.688 61.1563C109.727 61.1484 110.945 60.6172 110.953 59.6875C110.945 58.7188 109.727 58.1875 107.688 58.1719C105.633 58.1875 104.414 58.7188 104.422 59.6875ZM107.828 53.4063H110.891V51.7344H107.828V53.4063ZM120.703 49.1719V53.25H116.078V55.1875C118.516 55.1875 119.844 55.1328 121.422 54.8438L121.562 56.0469C119.852 56.3359 118.414 56.3828 115.625 56.3906H114.609V52.125H119.219V50.3594H114.594V49.1719H120.703ZM116.203 58.8594V57.6563H125.703V62.3438H124.219V58.8594H116.203ZM121.594 54.4844V53.2969H124.219V51.5625L121.594 51.5625V50.375L124.219 50.375V48.3438H125.703V56.9531H124.219V54.4844H121.594ZM135.094 61.1563C132.953 61.1563 131.344 59.8516 131.266 58.0469H132.938C133.031 59.0078 133.953 59.7109 135.094 59.7188C136.469 59.7109 137.453 58.7188 137.453 57.375C137.453 56 136.438 55 135.016 54.9844C134.109 54.9844 133.414 55.2891 133.031 55.9844H131.406L132.141 49.6875H138.547V51.1563H133.562L133.188 54.3281H133.297C133.766 53.875 134.562 53.5703 135.422 53.5625C137.555 53.5703 139.125 55.1484 139.125 57.3281C139.125 59.5547 137.453 61.1563 135.094 61.1563ZM147.062 49.5625V56.0938H140.516V49.5625H147.062ZM141.969 54.9219H145.609V50.7656H141.969V54.9219ZM142.094 62.0313V57.5938H143.578V60.8281H151.562V62.0313H142.094ZM149.484 58.5781V48.3125H150.969V52.5H153V53.75H150.969V58.5781H149.484ZM164.969 48.3281V56.5938H163.484V54.5156H160.438V55.6563L153.938 55.6563V49.375H160.438V50.5313L163.484 50.5313V48.3281H164.969ZM155.406 54.4688H158.984V50.5625H155.406V54.4688ZM155.547 59.6563C155.539 57.9609 157.336 56.9766 160.281 56.9844C163.211 56.9766 165.008 57.9609 165.016 59.6563C165.008 61.3438 163.211 62.3047 160.281 62.2969C157.336 62.3047 155.539 61.3438 155.547 59.6563ZM157.016 59.6563C157.008 60.5938 158.227 61.1484 160.281 61.1563C162.32 61.1484 163.539 60.5938 163.547 59.6563C163.539 58.6719 162.32 58.1328 160.281 58.125C158.227 58.1328 157.008 58.6719 157.016 59.6563ZM160.438 53.3125H163.484V51.7188L160.438 51.7188V53.3125ZM181.625 48.3281V62.3594H180.141V48.3281H181.625ZM170.516 54.2813C170.516 51.2891 172.023 49.3828 174.141 49.375C176.219 49.3828 177.75 51.2891 177.75 54.2813C177.75 57.3047 176.219 59.2109 174.141 59.2031C172.023 59.2109 170.516 57.3047 170.516 54.2813ZM171.953 54.2813C171.945 56.5078 172.836 57.875 174.141 57.875C175.422 57.875 176.312 56.5078 176.312 54.2813C176.312 52.0859 175.422 50.7109 174.141 50.7031C172.836 50.7109 171.945 52.0859 171.953 54.2813ZM188.188 50.5625C188.18 52.3984 189.477 54.1094 191.562 54.7969L190.766 55.9688C189.234 55.4297 188.086 54.3359 187.477 52.9531C186.867 54.5234 185.68 55.7578 184.047 56.3594L183.25 55.1719C185.438 54.3984 186.703 52.5313 186.719 50.4375V49.0625H188.188V50.5625ZM185.141 59.7031C185.141 58.0625 186.93 57.1016 189.844 57.1094C192.719 57.1016 194.484 58.0625 194.484 59.7031C194.484 61.3594 192.719 62.3047 189.844 62.2969C186.93 62.3047 185.141 61.3594 185.141 59.7031ZM186.625 59.7031C186.617 60.625 187.82 61.125 189.844 61.1406C191.852 61.125 193.039 60.625 193.031 59.7031C193.039 58.8125 191.852 58.2813 189.844 58.2813C187.82 58.2813 186.617 58.8125 186.625 59.7031ZM192.875 56.7813V48.3281H194.359V51.8438H196.391V53.0938H194.359V56.7813H192.875ZM18.3594 71.3438L18.3594 72.5469H17.0156L17.0156 76.7812C17.6094 76.7344 18.1797 76.6797 18.7344 76.6094L18.7969 77.7344C16.1016 78.1562 12.9609 78.2031 10.7187 78.2031L10.5312 76.9688C11.0547 76.9688 11.6328 76.9688 12.2344 76.9609L12.2344 72.5469H10.9219L10.9219 71.3438H18.3594ZM12.7656 81.7656C12.7578 80.1328 14.5391 79.2031 17.5 79.2031C20.4531 79.2031 22.2266 80.1328 22.2344 81.7656C22.2266 83.3672 20.4531 84.3047 17.5 84.2969C14.5391 84.3047 12.7578 83.3672 12.7656 81.7656ZM13.6719 76.9375C14.3047 76.9219 14.9453 76.8984 15.5937 76.8672L15.5937 72.5469H13.6719L13.6719 76.9375ZM14.2344 81.7656C14.2266 82.6484 15.4297 83.1484 17.5 83.1562C19.5547 83.1484 20.7578 82.6484 20.7656 81.7656C20.7578 80.8594 19.5547 80.3516 17.5 80.3594C15.4297 80.3516 14.2266 80.8594 14.2344 81.7656ZM18.5625 76.5V75.3125H20.7031V73.9531H18.5625V72.7656H20.7031L20.7031 70.3281H22.1875L22.1875 78.9375H20.7031V76.5H18.5625ZM36.6562 81.3281V82.5469H23.8437V81.3281H29.4531V78H30.9219V81.3281H36.6562ZM24.2812 77.0312C26.9766 76.5781 29.3828 74.5 29.3906 72.2812V71.2188H30.9531V72.2812C30.9531 74.5 33.3906 76.5781 36.0938 77.0312L35.4531 78.25C33.1797 77.8047 31.1016 76.3984 30.1797 74.4844C29.2578 76.3906 27.1953 77.8047 24.9375 78.25L24.2812 77.0312ZM52.5937 70.3281V84.3281H51.1719V77.0938H49.3594V83.6094H48V70.6094H49.3594V75.875H51.1719V70.3281H52.5937ZM41.0469 80.9688L41.0469 72.0156H46.2969V73.2188H42.5312V79.7031C44.25 79.6953 45.5469 79.6172 47.0469 79.3281L47.1562 80.5469C45.4766 80.8984 44.0234 80.9531 41.9844 80.9688H41.0469ZM65.5 70.3281V84.3594H64.0156V70.3281L65.5 70.3281ZM54.6875 81V71.5H56.1719V75.0938H59.9375V71.5H61.4062V81H54.6875ZM56.1719 79.7812H59.9375V76.2656H56.1719V79.7812ZM75.4219 71.6875V83H73.6875V73.4063H73.625L70.9219 75.1719V73.5313L73.7344 71.6875H75.4219ZM84.4062 71.5625V78.0938H77.8594V71.5625H84.4062ZM79.3125 76.9219H82.9531V72.7656H79.3125V76.9219ZM79.4375 84.0313V79.5938H80.9219V82.8281H88.9062V84.0313H79.4375ZM86.8281 80.5781V70.3125H88.3125V74.5H90.3438V75.75H88.3125V80.5781H86.8281ZM105.719 70.3281V78.5938H104.234V76.5156H101.188V77.6563H94.6875V71.375H101.188V72.5313H104.234V70.3281H105.719ZM96.1562 76.4688H99.7344V72.5625H96.1562V76.4688ZM96.2969 81.6563C96.2891 79.9609 98.0859 78.9766 101.031 78.9844C103.961 78.9766 105.758 79.9609 105.766 81.6563C105.758 83.3438 103.961 84.3047 101.031 84.2969C98.0859 84.3047 96.2891 83.3438 96.2969 81.6563ZM97.7656 81.6563C97.7578 82.5938 98.9766 83.1484 101.031 83.1563C103.07 83.1484 104.289 82.5938 104.297 81.6563C104.289 80.6719 103.07 80.1328 101.031 80.125C98.9766 80.1328 97.7578 80.6719 97.7656 81.6563ZM101.188 75.3125H104.234V73.7188H101.188V75.3125ZM122.375 70.3281V84.3594H120.891V70.3281H122.375ZM111.266 76.2813C111.266 73.2891 112.773 71.3828 114.891 71.375C116.969 71.3828 118.5 73.2891 118.5 76.2813C118.5 79.3047 116.969 81.2109 114.891 81.2031C112.773 81.2109 111.266 79.3047 111.266 76.2813ZM112.703 76.2813C112.695 78.5078 113.586 79.875 114.891 79.875C116.172 79.875 117.062 78.5078 117.062 76.2813C117.062 74.0859 116.172 72.7109 114.891 72.7031C113.586 72.7109 112.695 74.0859 112.703 76.2813ZM128.938 72.5625C128.93 74.3984 130.227 76.1094 132.312 76.7969L131.516 77.9688C129.984 77.4297 128.836 76.3359 128.227 74.9531C127.617 76.5234 126.43 77.7578 124.797 78.3594L124 77.1719C126.188 76.3984 127.453 74.5313 127.469 72.4375V71.0625H128.938V72.5625ZM125.891 81.7031C125.891 80.0625 127.68 79.1016 130.594 79.1094C133.469 79.1016 135.234 80.0625 135.234 81.7031C135.234 83.3594 133.469 84.3047 130.594 84.2969C127.68 84.3047 125.891 83.3594 125.891 81.7031ZM127.375 81.7031C127.367 82.625 128.57 83.125 130.594 83.1406C132.602 83.125 133.789 82.625 133.781 81.7031C133.789 80.8125 132.602 80.2813 130.594 80.2813C128.57 80.2813 127.367 80.8125 127.375 81.7031ZM133.625 78.7813V70.3281H135.109V73.8438H137.141V75.0938H135.109V78.7813H133.625ZM153.609 76.9219V78.125H140.844V76.9219H153.609ZM141.516 75.0156C144.055 74.7422 146.062 73.6016 146.227 72.2344H142.016V71.0156H152.469V72.2344H148.211C148.383 73.5938 150.359 74.7422 152.953 75.0156L152.422 76.1875C149.992 75.9063 147.984 74.8828 147.227 73.4063C146.453 74.8828 144.461 75.9063 142.031 76.1875L141.516 75.0156ZM142.359 81.7656C142.359 80.1406 144.18 79.2031 147.219 79.2031C150.234 79.2031 152.039 80.1406 152.047 81.7656C152.039 83.3906 150.234 84.3047 147.219 84.2969C144.18 84.3047 142.359 83.3906 142.359 81.7656ZM143.859 81.7656C143.852 82.6484 145.078 83.1328 147.219 83.125C149.328 83.1328 150.562 82.6484 150.562 81.7656C150.562 80.8594 149.328 80.375 147.219 80.3594C145.078 80.375 143.852 80.8594 143.859 81.7656ZM165.812 70.3438V80.9531H164.328V79.6094H161.516V78.5625H164.328V70.3438H165.812ZM154.109 76.7344C156.695 76.7109 160.188 76.6875 163.172 76.3125L163.266 77.375C162.07 77.5781 160.812 77.7031 159.578 77.7891V80.5156H158.094V77.8672C156.734 77.9219 155.43 77.9219 154.297 77.9219L154.109 76.7344ZM155.203 73.3438C155.195 71.8594 156.609 70.875 158.688 70.875C160.734 70.875 162.156 71.8594 162.156 73.3438C162.156 74.8359 160.734 75.7813 158.688 75.7813C156.617 75.7813 155.195 74.8359 155.203 73.3438ZM156.047 84.0313V79.9219H157.516V82.8281H166.156V84.0313H156.047ZM156.609 73.3438C156.602 74.1719 157.445 74.6875 158.688 74.6875C159.883 74.6875 160.742 74.1719 160.75 73.3438C160.742 72.5078 159.883 71.9688 158.688 71.9844C157.445 71.9688 156.602 72.5078 156.609 73.3438Z" fill="#37474F"/>
</svg>
