<svg width="375" height="220" viewBox="0 0 375 220" fill="none" xmlns="http://www.w3.org/2000/svg">
<g filter="url(#filter0_f_416_19858)" style="mix-blend-mode:multiply">
<path d="M97.2551 27.3979C98.0962 28.1938 98.9374 28.3229 99.0426 29.5705C99.4001 30.3233 100.599 30.3878 100.788 31.1192C100.998 31.9581 102.218 31.5064 102.765 32.2377C104.279 32.5819 105.856 32.6679 107.265 31.9151C108.001 30.4309 107.917 31.2268 108.99 29.7856C109.684 28.8176 110.987 29.1618 111.744 28.1723C112.838 27.9142 113.995 26.2579 114.857 27.9357C114.962 28.3229 114.857 28.6455 115.341 28.7101C115.446 29.4199 114.499 30.0867 115.13 30.775C116.35 31.5064 112.396 32.6894 115.383 33.2702C116.413 33.3132 116.203 34.9265 117.338 34.8405C118.074 34.7759 119.315 35.0771 118.747 36.045C119.105 39.6373 120.009 40.8849 123.773 40.9279C127.454 43.7242 131.617 47.1874 136.454 45.5956C138.179 45.2945 139.798 44.6062 141.586 44.4986C142.427 44.4556 145.665 45.2945 144.13 43.5091C143.731 40.5192 145.413 41.7238 147.306 41.2936C148.189 40.2826 148.883 39.1425 149.976 38.3036C151.28 36.3462 153.804 37.0345 155.717 37.2711C156.895 37.3572 156.517 36.9915 157.232 36.3247C157.883 35.7224 160.218 36.1741 160.87 36.4968C161.606 36.8624 161.206 37.2066 161.711 37.7013C162.258 38.2391 162.931 37.6583 163.54 37.8519C164.676 38.1961 165.496 39.4652 166.548 39.9169C168.314 40.3256 170.943 38.9274 172.142 40.7773C171.91 41.2075 172.751 41.8959 172.941 42.24C173.551 43.6597 175.212 42.8853 176.053 44.176C176.747 46.4991 179.123 45.3375 180.806 45.8753C182.131 48.9297 181.226 52.9521 180.974 56.2217C179.796 56.5229 180.469 57.5123 179.355 57.7705C178.282 58.3727 179.628 59.0611 179.67 59.6634C178.282 59.5773 177.588 60.0075 178.03 61.5133C177.799 62.0295 177.273 63.7503 178.198 63.8579C179.187 63.7073 181.016 64.6753 179.165 65.1915C177.883 66.1164 178.535 67.9233 178.787 69.3C179.691 71.408 178.997 73.9892 179.355 76.2048C181.268 76.8286 184.171 75.4734 184.234 78.0332C185.117 80.7865 181.563 82.2922 180.595 84.5293C179.208 85.024 179.88 86.0995 180.722 86.7663C182.467 88.9174 183.561 92.0364 185.958 93.4991C189.007 94.1874 190.101 95.9082 189.47 99.0487C189.828 101.135 193.192 98.7906 191.552 103.286C190.437 104.964 187.767 103.093 186.295 104.448C181.794 106.728 186.778 113.202 179.965 111.804C179.081 111.46 178.177 111.224 177.483 110.578C174.896 109.761 172.268 110.643 169.639 110.191C168.714 109.029 166.716 109.266 165.349 109.03C164.003 108.922 162.889 108.492 161.627 108.492C161.248 108.298 161.522 108.083 161.395 107.76C161.269 107.502 160.996 107.502 160.933 107.158C161.08 106.513 160.26 106.233 160.47 105.502C160.134 104.082 160.239 101.458 158.346 100.92C157.084 100.511 155.781 101.049 154.477 100.92C154.203 101.651 153.341 101.286 152.92 101.91C152.121 103.566 149.997 103.114 148.883 104.061C145.939 104.405 142.7 103.501 140.786 101.071C138.81 100.834 137.926 99.7585 136.665 98.1883C136.223 97.1128 134.183 96.7041 133.111 96.575C131.954 96.8331 131.323 96.6181 130.987 95.4135C129.998 94.7897 130.124 93.8002 129.767 92.8107C129.157 92.0794 128.989 91.219 128.968 90.294C128.652 89.4766 127.306 89.8853 126.949 89.0249C127.412 86.8309 127.054 87.4332 125.771 85.8844C124.425 81.4963 122.638 85.8844 120.998 83.97C115.803 77.4954 120.808 90.6382 115.235 82.2922C113.132 80.937 115.383 78.786 112.67 78.3988C112.565 74.6991 113.974 73.1503 110.335 70.397C108.212 70.397 107.433 67.8588 105.373 67.4071C104.784 67.2565 104.195 67.8158 104.111 67.0199C104.027 66.267 103.522 65.6862 103.48 64.8904C103.438 63.3416 101.461 63.105 100.767 61.8789C100.599 60.997 101.167 60.4162 101.671 59.8355C101.755 59.2332 101.482 59.5558 101.251 59.3192C99.6735 57.6199 101.692 58.2867 102.534 57.5984C102.344 53.3178 105.183 57.2542 104.111 52.1778C105.961 50.629 104.552 50.629 102.849 50.7796C101.945 50.5215 101.272 49.9192 100.578 49.3384C100.157 48.4995 100.578 47.381 99.4842 47.0368C99.2739 46.6926 99.5683 46.4776 99.4211 46.1549C98.5799 45.4881 97.6967 44.5416 97.6756 43.337C98.2645 42.0894 97.171 41.5302 96.7083 40.4762C96.5401 39.2716 96.2457 38.6048 95.1731 38.2176C95.1731 37.7014 95.4465 37.3357 95.2362 36.7764C95.3414 36.3032 96.0985 36.2817 95.9302 35.6579C95.2573 35.3137 95.7199 34.4748 95.2993 33.808C95.6148 32.5604 94.374 32.2162 94.1217 31.1622C94.7105 30.1512 93.0491 29.0112 94.9208 29.0757C96.9606 29.4844 94.353 25.7846 97.171 27.4194L97.2551 27.3979Z" fill="#FFCCBE"/>
</g>
<rect x="135.5" y="67.6176" width="5" height="5" rx="2.5" fill="white" stroke="black"/>
<path d="M154.082 64.6137V75.1372H152.969V64.6137H154.082ZM145.75 69.0786C145.75 66.8344 146.881 65.4048 148.469 65.3989C150.027 65.4048 151.176 66.8344 151.176 69.0786C151.176 71.3462 150.027 72.7758 148.469 72.77C146.881 72.7758 145.75 71.3462 145.75 69.0786ZM146.828 69.0786C146.822 70.7485 147.49 71.7739 148.469 71.7739C149.43 71.7739 150.098 70.7485 150.098 69.0786C150.098 67.4321 149.43 66.4008 148.469 66.395C147.49 66.4008 146.822 67.4321 146.828 69.0786ZM163.768 64.6255V67.7778H165.303V68.7153H163.768V72.3481H162.655V64.6255H163.768ZM155.94 66.2075V65.2934H160.721V68.3872H157.065V69.852C158.887 69.852 160.176 69.7758 161.705 69.5122L161.823 70.4262C160.199 70.7075 158.811 70.7602 156.795 70.7661H155.951V67.5317H159.631V66.2075H155.94ZM157.17 74.8911V71.7505H158.295V73.9887H164.237V74.8911H157.17Z" fill="#191414"/>
<circle cx="156" cy="105" r="8" fill="#FF8474" fill-opacity="0.2" stroke="#02A39E" stroke-width="2" stroke-dasharray="4 4"/>
<g filter="url(#filter1_d_416_19858)">
<rect x="60" y="105" width="72" height="56" rx="8" fill="#02A39E" shape-rendering="crispEdges"/>
<rect x="59.5" y="104.5" width="73" height="57" rx="8.5" stroke="#02A39E" shape-rendering="crispEdges"/>
<g clip-path="url(#clip0_416_19858)">
<path d="M95.9924 152.093C89.3178 152.093 83.2252 148.683 79.6969 142.98C78.0055 140.241 77.0325 137.085 76.887 133.857L76.8688 133.585C76.8597 133.394 76.8416 133.204 76.8416 133.005C76.8416 132.533 76.8779 132.061 76.9143 131.599C77.0234 130.085 77.2962 128.67 77.7054 127.355C80.2061 119.311 87.5537 113.907 95.9924 113.907C103.922 113.907 111.133 118.903 113.916 126.348L114.37 127.573H112.879L110.66 129.831L109.551 130.937L109.142 129.432C108.996 128.897 108.796 128.325 108.514 127.691C108.205 126.974 107.85 126.303 107.45 125.668L88.6267 144.44C90.8182 145.854 93.3462 146.598 95.9833 146.598C99.1115 146.598 102.076 145.537 104.54 143.542C105.213 142.998 105.777 142.463 106.25 141.919L106.523 141.61H113.134L112.279 142.998C108.751 148.702 102.658 152.102 95.9924 152.102V152.093ZM95.9924 119.402C90.4363 119.402 85.4895 122.739 83.3798 127.908C83.1342 128.525 82.9433 129.069 82.8069 129.586C82.6068 130.338 82.4795 131.037 82.4159 131.717C82.3704 132.179 82.3522 132.606 82.3522 133.005C82.3522 133.204 82.3613 133.413 82.3795 133.612C82.3795 133.612 82.3977 134.093 82.4068 134.147C82.5977 136.432 83.3889 138.663 84.6983 140.586L103.604 121.733C101.358 120.227 98.6932 119.402 95.9924 119.402Z" fill="#455A64"/>
<path d="M95.9924 114.814C103.813 114.814 110.478 119.756 113.061 126.666H112.879C112.67 126.666 112.461 126.747 112.315 126.902L110.015 129.196C109.842 128.561 109.605 127.944 109.351 127.337C108.887 126.258 108.314 125.224 107.577 124.263L102.003 129.822L100.194 131.626L98.002 133.812L89.2814 142.508L87.5445 144.24L87.2262 144.557C89.7724 146.48 92.7914 147.496 95.9924 147.496C99.457 147.496 102.622 146.262 105.122 144.24C105.777 143.714 106.395 143.143 106.95 142.508H111.515C108.305 147.704 102.558 151.186 96.0014 151.186C89.445 151.186 83.698 147.704 80.4789 142.499C78.9057 139.951 77.9418 136.985 77.8054 133.812C77.7963 133.54 77.7599 133.277 77.7599 132.995C77.7599 132.533 77.7963 132.08 77.8327 131.626C77.9327 130.239 78.1782 128.897 78.5783 127.618C80.879 120.209 87.8082 114.814 95.9924 114.814ZM84.58 141.982L92.7733 133.812L94.9648 131.626L96.7744 129.822L104.995 121.624C102.431 119.602 99.2478 118.495 95.9833 118.495C89.8906 118.495 84.6892 122.259 82.534 127.564C82.2976 128.144 82.0884 128.742 81.9247 129.359C81.7338 130.094 81.5883 130.846 81.5155 131.626C81.4701 132.08 81.4428 132.533 81.4428 132.995C81.4428 133.268 81.461 133.54 81.4792 133.812C81.4792 133.948 81.4792 134.084 81.4973 134.22C81.7065 136.713 82.5795 139.117 83.998 141.193C84.1799 141.465 84.3709 141.728 84.58 141.991M95.9924 113C87.1535 113 79.4513 118.659 76.8324 127.083C76.405 128.461 76.1231 129.949 76.0049 131.49V131.535C75.9685 131.998 75.9321 132.479 75.9321 132.995C75.9321 133.213 75.9412 133.422 75.9594 133.63C75.9594 133.712 75.9685 133.803 75.9776 133.884C76.1322 137.267 77.1507 140.567 78.9239 143.442C82.6158 149.418 88.9995 152.991 95.9924 152.991C102.985 152.991 109.36 149.427 113.052 143.451L114.761 140.685H106.113L105.568 141.311C105.122 141.819 104.595 142.318 103.967 142.825C101.667 144.693 98.9114 145.673 95.9924 145.673C93.9099 145.673 91.9185 145.183 90.1089 144.231L90.5635 143.778L99.2842 135.081L101.476 132.896L103.285 131.091L107.25 127.137C107.396 127.428 107.541 127.727 107.668 128.026C107.932 128.643 108.114 129.16 108.25 129.649L109.078 132.669L111.297 130.456L113.297 128.461H115.68L114.761 126.013C111.842 118.232 104.304 113 95.9924 113ZM84.871 139.135C83.998 137.566 83.4615 135.834 83.316 134.066C83.316 134.02 83.316 133.975 83.316 133.929C83.316 133.857 83.316 133.784 83.316 133.712V133.576C83.2979 133.385 83.2888 133.195 83.2888 132.995C83.2888 132.624 83.3069 132.234 83.3524 131.789C83.4161 131.164 83.5343 130.511 83.7162 129.803C83.8435 129.323 84.0162 128.815 84.2527 128.235C86.2169 123.41 90.8363 120.3 96.0196 120.3C98.1748 120.3 100.303 120.853 102.176 121.896L95.5195 128.534L93.7099 130.338L91.5184 132.524L84.8983 139.126L84.871 139.135Z" fill="#37474F"/>
<path d="M121.627 126.149C121.309 125.605 120.818 125.206 120.236 124.997L118.744 120.581C118.408 119.574 117.38 118.903 116.207 118.903H113.997C112.861 118.903 111.915 119.511 111.524 120.391C107.777 115.82 102.085 113 95.9923 113C87.6081 113 80.2515 118.096 77.2779 125.804H74.7135C73.7133 125.804 72.8948 126.62 72.8948 127.618V128.117C72.5857 128.443 72.3947 128.878 72.3947 129.359V129.822C71.6672 129.885 71.0125 130.239 70.5578 130.81C70.0577 131.445 69.8849 132.261 70.0759 133.05L70.1031 133.177L70.3669 134.247C70.3941 134.347 70.4214 134.437 70.4578 134.528L72.2583 138.736C72.6039 139.806 73.6041 140.54 74.7499 140.54H74.95L75.8866 141.864C76.7232 143.052 77.9872 143.877 79.3967 144.186C83.1523 149.717 89.2904 153 95.9923 153C102.694 153 108.787 149.745 112.542 144.249C113.406 144.059 114.152 143.506 114.607 142.689C114.779 142.381 114.889 142.046 114.97 141.701C115.007 141.574 115.025 141.438 115.052 141.302C115.052 141.238 115.07 141.184 115.08 141.121C115.134 140.604 115.08 140.06 114.943 139.543C115.189 138.854 115.389 138.192 115.543 137.521L117.962 135.081C118.071 134.972 118.171 134.845 118.253 134.7L118.862 133.63L120.472 130.81L121.645 128.77C121.763 128.561 121.845 128.353 121.909 128.126C122.091 127.464 122 126.747 121.645 126.14L121.627 126.149ZM120.063 127.854L117.271 132.742L116.662 133.812L113.87 136.623L112.361 138.146C112.161 138.5 112.251 138.962 112.597 139.189C112.752 139.298 112.879 139.434 112.979 139.597C113.615 140.613 113.252 142.508 111.888 142.508H111.515C108.305 147.704 102.558 151.186 96.0014 151.186C89.445 151.186 83.6979 147.704 80.4788 142.499C79.2421 142.454 78.0963 141.837 77.387 140.821L76.1503 139.062C76.0048 138.844 75.7593 138.718 75.4956 138.718H74.7681C74.3953 138.718 74.077 138.464 73.9861 138.11L72.1401 133.812L71.8764 132.742L71.8491 132.615C71.7218 132.107 72.1037 131.626 72.6311 131.626H74.2316V129.359H74.7317V127.618H78.5874C80.8789 120.209 87.8082 114.814 95.9923 114.814C104.176 114.814 110.478 119.756 113.061 126.666H113.161V121.297C113.161 120.98 113.534 120.726 113.997 120.726H116.207C116.598 120.726 116.935 120.908 117.026 121.17L118.89 126.666H119.372C119.99 126.666 120.372 127.328 120.072 127.863L120.063 127.854Z" fill="#37474F"/>
<path d="M82.9069 129.377H82.9524V131.626H94.9649L96.7745 129.822H84.762V129.377C84.762 128.38 83.9527 127.573 82.9524 127.573H82.5341C82.2976 128.153 82.0885 128.752 81.9248 129.368H82.8978V129.386L82.9069 129.377Z" fill="#37474F"/>
<path d="M105.113 144.24C105.768 143.714 106.386 143.143 106.941 142.508H89.2813L87.5444 144.24H105.122H105.113Z" fill="#37474F"/>
<path d="M106.841 129.822H102.003L100.193 131.626H107.241C107.45 131.626 107.659 131.545 107.805 131.39L110.014 129.187C109.842 128.552 109.605 127.935 109.35 127.328L106.841 129.822Z" fill="#37474F"/>
<path d="M72.1311 133.812L73.9771 138.11C74.068 138.464 74.3863 138.718 74.7591 138.718H75.4866C75.7503 138.718 75.9958 138.844 76.1413 139.062L77.378 140.821C78.0873 141.837 79.2331 142.454 80.4698 142.499C78.8967 139.951 77.9327 136.985 77.7963 133.812H72.1311Z" fill="#F77152"/>
<path d="M81.479 133.812C81.479 133.948 81.479 134.084 81.4972 134.22C81.7063 136.713 82.5793 139.117 83.9979 141.193C84.1798 141.465 84.3707 141.728 84.5799 141.991L92.7731 133.821H81.479V133.812Z" fill="#F77152"/>
<path d="M94.9649 131.626H81.5156C81.4702 132.08 81.4429 132.533 81.4429 132.995C81.4429 133.268 81.4611 133.54 81.4792 133.812H92.7734L94.9649 131.626Z" fill="#4F4543"/>
<path d="M119.363 126.666H112.879C112.67 126.666 112.461 126.747 112.315 126.902L110.014 129.196L107.805 131.399C107.65 131.554 107.45 131.635 107.241 131.635H100.193L98.002 133.821H116.653L117.262 132.751L120.054 127.863C120.363 127.328 119.972 126.666 119.353 126.666H119.363Z" fill="#4F4543"/>
<path d="M77.7508 132.995C77.7508 132.533 77.7872 132.08 77.8235 131.626H72.613C72.0946 131.626 71.7127 132.116 71.8309 132.615L71.8582 132.742L72.1219 133.812H77.7872C77.7781 133.54 77.7417 133.277 77.7417 132.995H77.7508Z" fill="#4F4543"/>
<path d="M117.025 121.17C116.934 120.907 116.598 120.726 116.207 120.726H113.997C113.533 120.726 113.161 120.98 113.161 121.297V126.666H118.89L117.025 121.17Z" fill="#DDDDDD"/>
<path d="M82.9066 129.377V129.359H81.9336C81.7427 130.094 81.5972 130.846 81.5244 131.626H82.9157V129.377H82.9066Z" fill="#DDDDDD"/>
<path d="M78.5692 127.618H74.7135V129.359H74.2134V131.626H77.8235C77.9235 130.239 78.169 128.897 78.5692 127.618Z" fill="#DDDDDD"/>
<path d="M110.487 133.812H98.0019L89.2812 142.508H111.879C113.243 142.508 113.597 140.613 112.97 139.597C112.87 139.434 112.742 139.289 112.588 139.189C112.251 138.953 112.151 138.5 112.351 138.146L113.861 136.623L116.653 133.812H110.487Z" fill="#F77152"/>
</g>
</g>
<path d="M143.596 112.065L125 118L125 130L144.538 113.787C145.384 113.086 144.643 111.731 143.596 112.065Z" fill="#02A39E"/>
<rect x="207" y="90" width="120" height="54" rx="8" fill="black" fill-opacity="0.6"/>
<g clip-path="url(#clip1_416_19858)">
<path d="M234.15 122.49C230.66 122.49 227.1 120.18 225.88 117.11C225.43 115.97 224.97 114.61 225.05 113.13C225.06 112.89 225.01 112.84 224.87 112.74C223.63 112.01 223.36 110.71 223.18 109.86C222.67 107.44 222.91 105.13 223.89 102.99C224.79 101.03 226.4 99.66 228.67 98.91C230.52 98.3 232.37 97.99 234.19 97.99C235.83 97.99 237.47 98.24 239.06 98.74C242.6 99.84 244.26 101.87 244.63 105.54L244.71 106.25C244.88 107.71 245.05 109.23 244.51 110.82C244.27 111.54 243.91 112.33 243.13 112.9C243.06 113.17 243.04 113.47 243.02 113.81C243 114.13 242.97 114.46 242.91 114.78C242.34 117.92 240.54 120.25 237.55 121.71C236.49 122.23 235.35 122.49 234.16 122.49H234.15Z" fill="#37474F"/>
<path d="M234.19 99C235.71 99 237.24 99.23 238.76 99.7C241.99 100.7 243.32 102.49 243.64 105.64C243.81 107.28 244.12 108.88 243.57 110.5C243.33 111.2 243.01 111.86 242.3 112.25C241.99 113.01 242.08 113.82 241.94 114.59C241.43 117.42 239.84 119.47 237.12 120.8C236.16 121.27 235.15 121.48 234.17 121.48C230.91 121.48 227.82 119.22 226.82 116.73C226.36 115.58 225.99 114.41 226.06 113.17C226.09 112.62 225.9 112.21 225.44 111.9C224.56 111.38 224.35 110.49 224.17 109.64C223.72 107.51 223.89 105.41 224.81 103.4C225.63 101.62 227.1 100.48 229 99.85C230.72 99.28 232.46 98.98 234.21 98.98M234.19 97C232.27 97 230.31 97.33 228.36 97.97C225.85 98.8 223.99 100.39 222.98 102.58C221.91 104.92 221.64 107.44 222.2 110.07C222.38 110.9 222.69 112.39 224.04 113.39C224.03 114.94 224.49 116.32 224.95 117.48C226.32 120.9 230.28 123.49 234.15 123.49C235.5 123.49 236.79 123.19 237.98 122.61C241.27 121 243.26 118.42 243.89 114.96C243.96 114.57 243.99 114.21 244.01 113.89C244.02 113.73 244.03 113.58 244.05 113.45C244.83 112.75 245.21 111.88 245.45 111.16C246.06 109.36 245.87 107.66 245.7 106.16C245.67 105.93 245.65 105.69 245.62 105.46C245.21 101.39 243.28 99.03 239.35 97.81C237.66 97.29 235.92 97.02 234.18 97.02L234.19 97Z" fill="#37474F"/>
<path d="M244.77 136C242.88 136 240.99 136 239.1 135.99H236.05L231.53 135.93L228.45 135.96C226.6 135.98 224.75 136 222.9 136C222.17 136 221.44 136 220.71 136C218.29 135.98 218 134.37 218 133.17C218 131.68 218 130.19 218 128.69C218 125.86 219.29 123.89 221.82 122.84C223.18 122.27 224.55 121.64 225.87 121.03L226.83 120.59C227.33 120.36 227.75 120.25 228.16 120.25C228.73 120.25 229.25 120.46 229.68 120.87C230.69 121.3 231.8 121.69 233.07 122.04L235.05 121.94C235.88 121.87 236.7 121.54 237.57 121.19C237.83 121.09 238.09 120.98 238.35 120.89C238.74 120.42 239.26 120.17 239.86 120.17C240.21 120.17 240.57 120.26 240.95 120.43L242.07 120.94C243.68 121.67 245.35 122.43 246.96 123.24C248.84 124.18 249.9 125.84 249.97 127.92C250.01 129.35 250 130.79 249.99 132.19V133.34C249.97 135.09 249.03 136.02 247.25 136.03H244.77V136Z" fill="#37474F"/>
<path d="M239.87 121.14C240.08 121.14 240.31 121.2 240.54 121.31C242.54 122.23 244.55 123.12 246.52 124.1C248.11 124.9 248.92 126.23 248.97 127.92C249.02 129.71 248.99 131.51 248.98 133.3C248.98 134.49 248.5 134.99 247.24 134.99C246.44 134.99 245.63 134.99 244.83 134.99C241.9 134.99 238.98 134.97 236.05 134.97C234.55 134.95 233.04 134.94 231.54 134.92C228.65 134.94 225.76 134.98 222.88 134.98C222.16 134.98 221.44 134.98 220.72 134.98C219.38 134.97 219 134.46 219 133.15C219 131.66 219 130.17 219 128.68C219 126.43 219.9 124.71 222.2 123.75C223.9 123.04 225.57 122.25 227.25 121.48C227.57 121.33 227.88 121.24 228.17 121.24C228.5 121.24 228.82 121.37 229.11 121.7C230.36 122.25 231.65 122.68 232.97 123.04C233.68 123 234.4 122.97 235.11 122.93C236.5 122.81 237.71 122.16 238.99 121.71C239.22 121.32 239.53 121.16 239.87 121.16M239.87 119.14C239.07 119.14 238.34 119.45 237.78 120.01C237.59 120.08 237.4 120.16 237.21 120.24C236.39 120.57 235.68 120.85 234.97 120.92L233.2 121.01C232.1 120.7 231.13 120.37 230.24 119.99C229.65 119.49 228.95 119.22 228.18 119.22C227.62 119.22 227.06 119.36 226.43 119.65L225.46 120.1C224.15 120.71 222.79 121.33 221.45 121.89C218.55 123.1 217.01 125.44 217 128.67C217 130.16 217 131.66 217 133.15C217 136.45 219.32 136.97 220.7 136.98C221.43 136.98 222.15 136.98 222.88 136.98C224.75 136.98 226.62 136.96 228.49 136.94C229.51 136.93 230.54 136.92 231.56 136.91L235.07 136.95H236.03L239.2 136.97C241.08 136.97 242.95 136.98 244.83 136.98C245.64 136.98 246.44 136.98 247.25 136.98C249.58 136.98 250.97 135.6 250.98 133.3V132.17C251 130.76 251.01 129.3 250.97 127.85C250.9 125.38 249.63 123.41 247.41 122.3C245.79 121.49 244.12 120.73 242.51 120L241.37 119.48C240.86 119.25 240.36 119.13 239.86 119.13L239.87 119.14Z" fill="#37474F"/>
<path d="M242.29 112.25C241.98 113.01 242.07 113.82 241.93 114.59C241.42 117.42 239.83 119.47 237.11 120.8C232.96 122.83 228.11 119.97 226.81 116.73C226.35 115.58 225.98 114.41 226.05 113.17C226.08 112.62 225.89 112.21 225.43 111.9C226.03 111.83 226.08 111.44 226.08 110.98C226.07 110.33 225.98 109.66 226.1 109.03C226.58 106.51 227.57 105.67 229.78 106.6C233.12 108.01 236.54 108.23 240.08 107.67C241.51 107.44 241.76 107.6 241.92 108.95C242.05 110.04 242.18 111.14 242.3 112.23L242.29 112.25Z" fill="#E9C9A6"/>
<path d="M242.29 112.25C242.16 111.16 242.03 110.06 241.91 108.97C241.75 107.62 241.5 107.46 240.07 107.69C236.53 108.25 233.11 108.03 229.77 106.62C227.56 105.69 226.57 106.54 226.09 109.05C225.97 109.68 226.06 110.35 226.07 111C226.07 111.46 226.02 111.85 225.42 111.92C224.54 111.4 224.33 110.51 224.15 109.66C223.7 107.53 223.87 105.43 224.79 103.42C225.61 101.64 227.08 100.5 228.98 99.87C232.21 98.81 235.49 98.69 238.76 99.7C241.99 100.7 243.32 102.49 243.64 105.64C243.81 107.28 244.12 108.88 243.57 110.5C243.33 111.2 243.01 111.86 242.3 112.25H242.29Z" fill="#FEE394"/>
<path d="M231.55 134.92C227.94 134.94 224.33 135.01 220.72 134.97C219.38 134.96 219 134.45 219 133.14C219 131.65 219 130.16 219 128.67C219 126.42 219.9 124.7 222.2 123.74C223.9 123.03 225.57 122.24 227.25 121.47C227.93 121.16 228.56 121.06 229.11 121.69C229.8 125.35 230.48 129.01 231.17 132.67C231.24 133.03 231.16 133.46 231.68 133.6C231.8 134.06 231.32 134.46 231.55 134.93V134.92Z" fill="#455A64"/>
<path d="M238.99 121.7C239.37 121.06 239.93 121.04 240.54 121.32C242.54 122.24 244.55 123.13 246.52 124.11C248.11 124.91 248.92 126.24 248.97 127.93C249.02 129.72 248.99 131.52 248.98 133.31C248.98 134.5 248.5 135 247.24 135C243.51 135.01 239.78 134.99 236.06 134.98C236.74 134.68 236.55 134.13 236.5 133.61C236.86 133.17 236.93 132.65 237.03 132.13C237.68 128.65 238.33 125.17 238.99 121.7Z" fill="#455A64"/>
<path d="M232.97 123.03C231.99 123.71 231.37 124.44 232.53 125.47C232.73 125.65 232.84 125.92 232.79 126.2C232.37 128.66 232.23 131.16 231.67 133.6C231.15 133.46 231.23 133.03 231.16 132.67C230.47 129.01 229.79 125.35 229.1 121.69C230.35 122.24 231.64 122.67 232.96 123.03H232.97Z" fill="#FCFCFC"/>
<path d="M236.5 133.61C235.79 132.01 235.95 130.28 235.6 128.62C235.46 127.95 235.45 127.26 235.36 126.58C235.29 126.07 235.33 125.58 235.72 125.19C236.44 124.48 236.38 123.89 235.5 123.36C235.34 123.26 235.25 123.07 235.12 122.92C236.51 122.8 237.72 122.15 239 121.7C238.35 125.18 237.69 128.65 237.04 132.13C236.94 132.65 236.87 133.18 236.51 133.61H236.5Z" fill="#FCFCFC"/>
<path d="M231.04 134.92C232.54 134.94 235.35 134.96 236.85 134.97L235.59 128.62C235.45 127.95 235.44 127.26 235.35 126.58C235.28 126.07 235.32 125.58 235.71 125.19C236.43 124.48 236.37 123.89 235.49 123.36C235.33 123.26 235.24 123.07 235.11 122.92C234.4 122.96 233.68 122.99 232.97 123.03C231.99 123.71 231.37 124.44 232.53 125.47C232.73 125.65 232.84 125.92 232.79 126.2L231.03 134.93L231.04 134.92Z" fill="#F77152"/>
</g>
<path d="M311.227 128.75C309.037 128.75 306.767 127.12 306.677 124.01C306.677 122.67 307.647 120.28 309.567 116.87C309.877 116.27 310.527 115.87 311.227 115.87C311.927 115.87 312.577 116.26 312.907 116.89C314.807 120.27 315.777 122.66 315.777 123.97C315.677 127.12 313.417 128.74 311.227 128.74V128.75Z" fill="#37474F"/>
<path d="M311.227 116.87C311.537 116.87 311.847 117.03 312.017 117.36C313.047 119.19 314.777 122.49 314.777 123.98C314.697 126.5 312.967 127.75 311.227 127.75C309.487 127.75 307.747 126.49 307.677 123.98C307.677 122.49 309.407 119.2 310.437 117.36C310.607 117.04 310.917 116.87 311.227 116.87ZM311.227 114.87C310.157 114.87 309.187 115.45 308.677 116.4C305.677 121.75 305.677 123.42 305.677 123.98C305.677 124 305.677 124.02 305.677 124.04C305.787 127.79 308.557 129.75 311.227 129.75C313.897 129.75 316.667 127.79 316.777 124.04C316.777 124.02 316.777 124 316.777 123.98C316.777 123.43 316.777 121.75 313.777 116.4C313.267 115.46 312.297 114.88 311.227 114.88V114.87Z" fill="#37474F"/>
<path d="M277.597 132.75C271.557 132.75 266.647 132.69 262.147 132.55C261.817 132.54 261.507 132.36 261.327 132.08C260.957 131.48 261.007 130.9 261.037 130.51C261.047 130.37 261.057 130.24 261.047 130.15C261.047 130.1 261.037 130.05 261.037 130C261.037 126.86 261.037 123.01 261.037 119.18C261.037 115.42 261.037 111.67 261.037 108.64C261.037 107.72 261.677 107.08 262.597 107.08C268.297 107.08 273.997 107.08 279.697 107.08H298.867C299.667 105.53 300.517 104.06 301.117 103.06C301.527 102.38 302.247 101.98 303.047 101.98C303.847 101.98 304.567 102.38 304.977 103.06C307.047 106.51 309.507 111.1 309.507 113.42C309.507 115.45 308.577 117.33 306.997 118.56V129.96C306.997 129.96 306.997 130.05 306.987 130.1C306.977 130.17 306.987 130.35 306.997 130.48C307.027 130.95 307.077 131.66 306.607 132.23C306.567 132.28 306.527 132.32 306.477 132.36L306.337 132.47C306.157 132.62 305.927 132.7 305.697 132.7C305.667 132.7 305.627 132.7 305.597 132.7L305.337 132.67C303.307 132.65 301.177 132.65 299.047 132.65C295.487 132.65 291.917 132.67 288.337 132.69C284.757 132.71 281.177 132.73 277.607 132.73L277.597 132.75Z" fill="#37474F"/>
<path d="M303.037 103C303.457 103 303.867 103.2 304.107 103.59C305.747 106.32 308.497 111.24 308.497 113.43C308.497 115.32 307.557 117.03 305.987 118.06V129.98C305.917 130.49 306.167 131.21 305.827 131.61L305.687 131.72L305.427 131.69C303.297 131.67 301.167 131.66 299.027 131.66C291.897 131.66 284.737 131.75 277.597 131.75C272.427 131.75 267.287 131.7 262.187 131.55C261.877 131.05 262.127 130.55 262.047 130C262.047 123.78 262.037 114.77 262.047 108.64C262.047 108.28 262.247 108.08 262.607 108.08C268.307 108.08 274.007 108.08 279.707 108.08H299.487C300.347 106.36 301.317 104.69 301.987 103.58C302.227 103.18 302.637 102.99 303.057 102.99M303.037 101C301.877 101 300.837 101.58 300.257 102.56C299.717 103.45 298.987 104.72 298.257 106.09H279.687C273.987 106.09 268.287 106.09 262.587 106.09C261.127 106.09 260.027 107.19 260.027 108.65C260.027 111.68 260.027 115.41 260.027 119.17C260.027 123.01 260.027 126.86 260.027 130.01C260.027 130.11 260.027 130.2 260.047 130.3C260.047 130.31 260.037 130.37 260.027 130.43C259.987 130.88 259.917 131.73 260.457 132.61C260.807 133.18 261.427 133.53 262.097 133.56C266.607 133.7 271.527 133.76 277.577 133.76C281.147 133.76 284.727 133.74 288.307 133.72C291.877 133.7 295.447 133.68 299.007 133.68C301.107 133.68 303.207 133.68 305.297 133.71L305.467 133.73C305.537 133.73 305.607 133.74 305.677 133.74C306.137 133.74 306.597 133.58 306.957 133.28L307.097 133.17C307.187 133.09 307.277 133.01 307.357 132.91C308.087 132.03 308.017 131 307.977 130.45C307.977 130.38 307.967 130.3 307.967 130.24C307.967 130.16 307.977 130.08 307.977 130C307.977 129.9 307.977 121.9 307.977 119.07C309.567 117.66 310.487 115.63 310.487 113.46C310.487 112.7 310.487 110.38 305.817 102.59C305.227 101.61 304.187 101.02 303.037 101.02V101Z" fill="#37474F"/>
<path d="M314.407 123.97C314.407 125.87 312.987 127.4 311.227 127.4C309.467 127.4 308.047 125.86 308.047 123.97C308.047 122.53 309.877 119.11 310.757 117.54C310.987 117.14 311.467 117.14 311.687 117.54C312.567 119.11 314.397 122.54 314.397 123.97H314.407Z" fill="#6EAAEA"/>
<path d="M262.407 120.78C262.407 116.74 262.407 112.69 262.407 108.65C262.407 108.49 262.437 108.46 262.587 108.46C268.287 108.46 273.987 108.46 279.687 108.46C279.687 109.05 279.687 109.63 279.687 110.22C279.687 110.81 279.687 111.39 279.687 111.98C279.687 112.57 279.687 113.15 279.687 113.74C279.687 114.32 279.687 114.91 279.687 115.49C279.687 116.08 279.687 116.66 279.687 117.25C279.687 117.84 279.687 118.42 279.687 119.01C279.687 119.6 279.687 120.18 279.687 120.77C279.597 120.77 279.507 120.77 279.417 120.77C273.747 120.77 268.077 120.77 262.407 120.77V120.78ZM269.267 117.63C269.477 117.39 269.697 117.3 269.987 117.6C269.787 117.24 269.957 117.05 270.247 116.87C269.827 117 269.687 116.78 269.607 116.42C269.587 116.84 269.367 116.95 269.017 116.89C269.077 116.96 269.127 117.01 269.177 117.03C269.347 117.11 269.377 117.23 269.297 117.4C269.267 117.47 269.207 117.54 269.267 117.63ZM272.837 117.63C272.867 117.6 272.867 117.56 272.847 117.53C272.677 117.25 272.807 117.08 273.057 116.94C273.057 116.94 273.057 116.92 273.077 116.87C272.697 116.99 272.547 116.77 272.487 116.41C272.417 116.59 272.397 116.77 272.297 116.84C272.197 116.91 272.027 116.88 271.847 116.89C271.987 116.99 272.127 117.06 272.187 117.16C272.247 117.28 272.127 117.41 272.097 117.55C272.177 117.59 272.237 117.55 272.277 117.5C272.427 117.34 272.557 117.38 272.687 117.51C272.727 117.55 272.777 117.58 272.827 117.62L272.837 117.63ZM277.867 117.63C278.077 117.39 278.297 117.31 278.587 117.6C278.387 117.24 278.557 117.05 278.837 116.88C278.427 116.99 278.277 116.79 278.227 116.44C278.157 116.59 278.137 116.75 278.047 116.84C277.947 116.94 277.767 116.84 277.607 116.91C277.677 116.96 277.717 117.01 277.777 117.04C277.947 117.12 277.967 117.24 277.897 117.41C277.867 117.48 277.807 117.56 277.877 117.64C277.877 117.64 277.877 117.64 277.867 117.64C277.867 117.64 277.867 117.64 277.877 117.64L277.867 117.63ZM264.247 117.63C264.247 117.61 264.277 117.58 264.267 117.57C264.097 117.27 264.227 117.07 264.507 116.86C264.077 117.02 263.967 116.75 263.877 116.43C263.847 116.82 263.647 116.96 263.257 116.9C263.647 117.06 263.657 117.31 263.467 117.65C263.774 117.463 264.034 117.457 264.247 117.63ZM271.397 113.92C271.397 113.92 271.417 113.92 271.437 113.91C271.437 113.91 271.437 113.91 271.437 113.9C271.427 113.91 271.417 113.92 271.407 113.93C271.407 113.9 271.437 113.87 271.427 113.85C271.257 113.55 271.377 113.35 271.657 113.21C271.657 113.21 271.657 113.2 271.657 113.16C271.317 113.24 271.097 113.12 271.057 112.71C271.027 113.13 270.797 113.23 270.387 113.15C270.507 113.24 270.557 113.29 270.617 113.32C270.787 113.4 270.807 113.52 270.737 113.68C270.707 113.75 270.647 113.82 270.707 113.91C270.707 113.91 270.697 113.89 270.687 113.88L270.667 113.9C270.667 113.9 270.687 113.9 270.707 113.9C270.954 113.713 271.187 113.713 271.407 113.9L271.397 113.92ZM277.837 115.12C278.077 114.96 278.307 114.86 278.577 115.12C278.387 114.79 278.517 114.57 278.847 114.4C278.437 114.51 278.267 114.33 278.207 113.95C278.157 114.34 277.957 114.49 277.587 114.4C277.707 114.52 277.847 114.58 277.917 114.69C277.997 114.82 277.827 114.96 277.847 115.12C277.847 115.12 277.827 115.13 277.827 115.14C277.827 115.14 277.837 115.14 277.847 115.14C277.847 115.14 277.847 115.12 277.847 115.11L277.837 115.12ZM272.857 115.12C272.857 115.12 272.857 115.14 272.867 115.14V115.13C272.867 115.13 272.857 115.13 272.847 115.13C272.707 114.83 272.777 114.6 273.087 114.45C273.087 114.45 273.087 114.44 273.087 114.4C272.717 114.53 272.547 114.33 272.467 113.97C272.437 114.38 272.217 114.48 271.857 114.43C272.167 114.6 272.317 114.81 272.067 115.15C272.267 115.12 272.347 114.94 272.487 114.93C272.627 114.93 272.707 115.12 272.867 115.13L272.857 115.12ZM269.247 115.12C269.487 114.95 269.717 114.87 269.997 115.12C269.807 114.79 269.937 114.57 270.247 114.4C269.857 114.48 269.657 114.34 269.627 113.94C269.577 114.34 269.367 114.48 268.977 114.42C269.357 114.56 269.377 114.8 269.247 115.1C269.247 115.1 269.247 115.11 269.247 115.12C269.247 115.12 269.227 115.13 269.227 115.14C269.227 115.14 269.237 115.14 269.247 115.14C269.247 115.14 269.247 115.12 269.247 115.11V115.12ZM264.257 115.12C264.257 115.12 264.257 115.14 264.267 115.14V115.13C264.267 115.13 264.257 115.13 264.247 115.13C264.097 114.82 264.207 114.6 264.497 114.4C264.107 114.52 263.937 114.32 263.867 113.96C263.837 114.37 263.617 114.47 263.207 114.39C263.387 114.53 263.547 114.61 263.587 114.72C263.627 114.83 263.527 114.99 263.477 115.17C263.637 115.06 263.747 114.94 263.867 114.92C264.007 114.9 264.087 115.11 264.247 115.12H264.257ZM263.537 110.19C263.767 109.99 263.997 109.93 264.227 110.19C264.227 110.19 264.247 110.19 264.297 110.19C264.067 109.86 264.177 109.63 264.517 109.45C264.107 109.57 263.947 109.36 263.887 108.98C263.797 109.16 263.817 109.35 263.697 109.43C263.587 109.5 263.417 109.42 263.217 109.49C263.607 109.61 263.667 109.84 263.507 110.14C263.507 110.14 263.527 110.16 263.527 110.17C263.517 110.17 263.507 110.17 263.497 110.17C263.497 110.17 263.497 110.19 263.497 110.2C263.497 110.2 263.507 110.18 263.517 110.17L263.537 110.19ZM272.857 110.18C272.857 110.18 272.867 110.19 272.877 110.2V110.19C272.877 110.19 272.867 110.19 272.857 110.19C272.707 109.88 272.807 109.65 273.107 109.46C272.727 109.56 272.537 109.39 272.477 109.01C272.447 109.43 272.227 109.54 271.847 109.48C272.237 109.64 272.267 109.9 272.087 110.24C272.337 109.94 272.587 109.94 272.837 110.19C272.837 110.19 272.847 110.19 272.857 110.19V110.18ZM269.247 120.05C269.487 119.9 269.717 119.79 269.967 120.05C270.017 119.9 269.847 119.77 269.907 119.64C269.967 119.51 270.147 119.48 270.257 119.3C269.847 119.44 269.687 119.25 269.647 118.84C269.567 119.05 269.547 119.23 269.447 119.3C269.347 119.37 269.167 119.33 269.027 119.34C269.387 119.49 269.377 119.75 269.257 120.05C269.257 120.05 269.247 120.07 269.237 120.07C269.237 120.07 269.247 120.07 269.257 120.07C269.257 120.07 269.257 120.05 269.257 120.04L269.247 120.05ZM277.837 120.05C278.077 119.9 278.307 119.79 278.577 120.05C278.387 119.72 278.537 119.51 278.847 119.35C278.647 119.31 278.477 119.39 278.377 119.3C278.287 119.21 278.267 119.04 278.207 118.88C278.147 119.04 278.127 119.22 278.017 119.3C277.917 119.37 277.737 119.33 277.597 119.34C277.957 119.49 277.947 119.75 277.827 120.04L277.807 120.06C277.807 120.06 277.817 120.06 277.827 120.06C277.827 120.06 277.827 120.04 277.827 120.03L277.837 120.05ZM264.257 120.05C264.257 120.05 264.257 120.07 264.257 120.08V120.07C264.257 120.07 264.247 120.07 264.237 120.06C264.117 119.77 264.137 119.53 264.457 119.39C264.457 119.39 264.457 119.36 264.457 119.32C264.087 119.45 263.937 119.23 263.857 118.89C263.827 119.28 263.617 119.41 263.237 119.35C263.627 119.52 263.647 119.78 263.477 120.12C263.717 119.82 263.957 119.8 264.207 120.06C264.207 120.06 264.237 120.06 264.247 120.06L264.257 120.05ZM272.857 120.05C272.857 120.05 272.857 120.07 272.857 120.08V120.07C272.857 120.07 272.847 120.07 272.837 120.06C272.707 119.77 272.747 119.53 273.057 119.39C273.057 119.39 273.057 119.36 273.057 119.31C272.657 119.49 272.547 119.21 272.447 118.89C272.447 119.33 272.197 119.4 271.847 119.36C272.177 119.52 272.287 119.74 272.057 120.07C272.257 120.05 272.337 119.87 272.467 119.86C272.607 119.86 272.677 120.06 272.847 120.06L272.857 120.05ZM272.847 112.69C272.847 112.66 272.867 112.63 272.857 112.61C272.687 112.31 272.807 112.12 273.077 111.99C273.077 111.99 273.077 111.97 273.077 111.93C272.707 112.05 272.547 111.85 272.497 111.45C272.417 111.65 272.407 111.81 272.317 111.9C272.217 112.01 272.027 111.9 271.877 111.96C271.997 112.05 272.147 112.12 272.207 112.23C272.267 112.35 272.137 112.48 272.117 112.61C272.187 112.64 272.247 112.61 272.287 112.57C272.447 112.39 272.597 112.44 272.737 112.59C272.777 112.63 272.817 112.66 272.857 112.69H272.847ZM264.247 112.69C264.247 112.66 264.277 112.63 264.267 112.61C264.107 112.31 264.217 112.12 264.487 111.99C264.487 111.99 264.487 111.97 264.487 111.93C264.117 112.05 263.957 111.86 263.887 111.49C263.847 111.88 263.647 112.03 263.267 111.95C263.557 112.12 263.747 112.3 263.497 112.62C263.597 112.66 263.657 112.62 263.697 112.57C263.837 112.42 263.957 112.44 264.097 112.57C264.147 112.62 264.197 112.65 264.257 112.7L264.247 112.69ZM264.697 115.66C265.067 115.81 265.107 116.06 264.887 116.42C265.077 116.3 265.197 116.16 265.327 116.15C265.447 116.15 265.567 116.29 265.697 116.37C265.697 116.2 265.547 116.06 265.607 115.94C265.667 115.82 265.817 115.75 265.927 115.66C265.537 115.73 265.377 115.54 265.337 115.13C265.224 115.457 265.011 115.633 264.697 115.66ZM274.597 115.67C274.367 115.61 274.187 115.7 274.077 115.6C273.967 115.51 273.997 115.32 273.887 115.17C273.887 115.58 273.667 115.72 273.277 115.65C273.667 115.81 273.697 116.06 273.527 116.4C273.787 116.11 274.037 116.09 274.307 116.4C274.137 116.06 274.177 115.82 274.607 115.67H274.597ZM277.427 115.64C277.114 115.64 276.891 115.473 276.757 115.14C276.737 115.57 276.537 115.72 276.147 115.65C276.517 115.81 276.557 116.06 276.367 116.42C276.547 116.3 276.667 116.16 276.787 116.16C276.907 116.16 277.027 116.31 277.177 116.4C277.137 116.23 277.037 116.07 277.077 115.95C277.117 115.83 277.287 115.76 277.437 115.64H277.427ZM266.747 111.48C266.707 111.88 266.497 112.01 266.117 111.95C266.487 112.11 266.537 112.35 266.357 112.69C266.627 112.4 266.867 112.4 267.137 112.69C266.927 112.34 267.037 112.12 267.367 111.95C266.967 112.03 266.787 111.86 266.737 111.48H266.747ZM274.717 111.96C275.127 112.11 275.097 112.38 274.967 112.71C275.227 112.36 275.477 112.43 275.737 112.69C275.557 112.35 275.607 112.11 275.977 111.95C275.577 112.03 275.397 111.86 275.347 111.47C275.297 111.84 275.127 112.03 274.717 111.95V111.96ZM268.187 115.16C268.157 115.58 267.947 115.71 267.557 115.64C267.917 115.81 267.987 116.05 267.807 116.41C268.077 116.05 268.317 116.15 268.587 116.39C268.357 116.04 268.487 115.81 268.827 115.64C268.427 115.72 268.227 115.57 268.187 115.16ZM273.527 111.46C273.797 111.17 274.037 111.16 274.307 111.46C274.107 111.11 274.217 110.88 274.557 110.7C274.147 110.8 273.977 110.61 273.917 110.23C273.887 110.64 273.687 110.78 273.287 110.7C273.647 110.87 273.737 111.11 273.537 111.46H273.527ZM266.007 110.71C265.777 110.69 265.597 110.73 265.497 110.66C265.397 110.58 265.377 110.4 265.297 110.18C265.287 110.63 265.087 110.78 264.677 110.7C265.097 110.85 265.097 111.12 264.907 111.47C265.087 111.35 265.207 111.23 265.337 111.21C265.467 111.19 265.557 111.38 265.767 111.44C265.477 111.08 265.647 110.88 266.007 110.71ZM267.557 110.71C267.927 110.87 267.967 111.12 267.797 111.46C268.067 111.17 268.317 111.17 268.587 111.46C268.357 111.1 268.497 110.87 268.817 110.69C268.407 110.8 268.247 110.61 268.177 110.24C268.147 110.65 267.937 110.78 267.557 110.71ZM276.397 111.46C276.667 111.13 276.907 111.21 277.187 111.46C276.947 111.1 277.107 110.89 277.427 110.7C277.007 110.82 276.847 110.62 276.787 110.25C276.747 110.65 276.547 110.79 276.157 110.72C276.507 110.89 276.597 111.12 276.407 111.47L276.397 111.46ZM275.757 120.11C275.507 119.75 275.667 119.53 275.987 119.32C275.547 119.48 275.427 119.21 275.347 118.88C275.317 119.28 275.107 119.41 274.717 119.35C275.117 119.5 275.117 119.76 274.977 120.1C275.247 119.78 275.487 119.82 275.757 120.1V120.11ZM267.147 120.1C266.937 119.74 267.067 119.52 267.397 119.33C266.957 119.47 266.827 119.23 266.757 118.88C266.717 119.27 266.527 119.43 266.127 119.35C266.507 119.51 266.537 119.77 266.377 120.1C266.637 119.82 266.877 119.78 267.157 120.1H267.147ZM274.957 115.17C275.227 114.88 275.467 114.87 275.737 115.17C275.537 114.82 275.637 114.58 275.987 114.4C275.567 114.52 275.397 114.32 275.337 113.94C275.297 114.33 275.097 114.49 274.697 114.41C275.067 114.58 275.127 114.82 274.947 115.17H274.957ZM270.427 110.7C270.777 110.88 270.857 111.12 270.647 111.47C270.917 111.17 271.167 111.16 271.447 111.47C271.207 111.11 271.337 110.89 271.667 110.71C271.287 110.78 271.087 110.65 271.037 110.26C270.977 110.64 270.807 110.8 270.417 110.71L270.427 110.7ZM269.247 112.68C269.487 112.42 269.717 112.39 269.987 112.66C269.807 112.31 269.947 112.11 270.247 111.95C269.857 112.03 269.667 111.88 269.627 111.49C269.577 111.88 269.377 112.02 268.987 111.96C269.367 112.11 269.397 112.36 269.247 112.69V112.68ZM278.837 111.95C278.457 112.03 278.257 111.88 278.247 111.48C278.117 111.63 278.157 111.82 278.037 111.91C277.927 112 277.747 111.91 277.557 111.98C277.957 112.11 277.987 112.36 277.837 112.69C278.077 112.42 278.307 112.4 278.597 112.66C278.337 112.28 278.577 112.12 278.837 111.95ZM267.137 115.19C267.137 114.97 266.987 114.84 267.047 114.7C267.097 114.57 267.287 114.54 267.397 114.37C266.987 114.5 266.807 114.32 266.757 113.93C266.727 114.35 266.507 114.47 266.117 114.42C266.517 114.57 266.527 114.83 266.377 115.17C266.637 114.86 266.887 114.88 267.137 115.19ZM271.047 115.2C271.017 115.62 270.777 115.69 270.427 115.66C270.767 115.82 270.877 116.03 270.657 116.37C270.917 116.16 271.157 116.09 271.427 116.37C271.187 116 271.427 115.83 271.667 115.64C271.287 115.73 271.097 115.58 271.037 115.2H271.047ZM270.277 109.43C269.857 109.56 269.667 109.4 269.637 108.98C269.557 109.19 269.537 109.37 269.437 109.44C269.337 109.51 269.157 109.47 269.017 109.47C269.407 109.62 269.377 109.9 269.237 110.23C269.507 109.91 269.757 109.93 270.007 110.23C269.977 110.06 269.887 109.91 269.907 109.78C269.927 109.64 270.137 109.61 270.287 109.42L270.277 109.43ZM277.817 110.24C278.087 109.91 278.347 109.95 278.617 110.24C278.397 109.89 278.487 109.66 278.847 109.48C278.467 109.55 278.257 109.42 278.217 109.02C278.157 109.41 277.977 109.57 277.577 109.48C277.947 109.65 278.007 109.9 277.817 110.25V110.24ZM266.117 109.47C266.467 109.64 266.547 109.87 266.367 110.21C266.517 110.13 266.637 109.98 266.747 109.98C266.867 109.98 266.987 110.12 267.107 110.2C266.917 109.86 267.057 109.64 267.397 109.48C267.197 109.44 267.017 109.53 266.917 109.42C266.827 109.33 266.807 109.16 266.727 108.95C266.697 109.38 266.527 109.56 266.117 109.47ZM274.967 110.22C275.107 110.12 275.227 109.98 275.337 109.98C275.467 109.98 275.587 110.12 275.727 110.2C275.727 110.03 275.577 109.89 275.637 109.76C275.697 109.64 275.847 109.57 275.957 109.48C275.567 109.55 275.387 109.38 275.337 108.98C275.307 109.39 275.097 109.53 274.667 109.43C274.837 109.57 275.007 109.64 275.047 109.75C275.087 109.87 274.997 110.03 274.957 110.21L274.967 110.22ZM267.757 118.86C267.967 118.8 268.057 118.61 268.197 118.63C268.327 118.65 268.437 118.78 268.547 118.86C268.337 118.52 268.487 118.3 268.807 118.12C268.407 118.22 268.237 118.03 268.177 117.66C268.137 118.06 267.937 118.21 267.547 118.13C267.887 118.29 267.997 118.51 267.757 118.87V118.86ZM273.517 118.88C273.777 118.57 274.027 118.58 274.297 118.86C274.077 118.5 274.227 118.29 274.547 118.11C274.137 118.21 273.967 118.03 273.907 117.64C273.877 118.06 273.667 118.19 273.277 118.13C273.667 118.29 273.697 118.54 273.517 118.89V118.88ZM270.437 118.11C270.677 118.323 270.747 118.58 270.647 118.88C270.797 118.78 270.897 118.66 271.017 118.63C271.167 118.59 271.247 118.8 271.437 118.83C271.237 118.5 271.337 118.28 271.677 118.12C271.287 118.2 271.087 118.06 271.037 117.66C270.987 118.05 270.797 118.2 270.427 118.11H270.437ZM264.937 118.88C265.197 118.54 265.437 118.59 265.717 118.86C265.507 118.51 265.637 118.29 265.967 118.11C265.557 118.22 265.387 118.02 265.317 117.65C265.277 118.05 265.077 118.18 264.697 118.12C265.077 118.28 265.127 118.53 264.947 118.88H264.937ZM276.767 112.7C276.767 113.15 276.507 113.22 276.137 113.19C276.547 113.33 276.547 113.59 276.397 113.92C276.667 113.6 276.907 113.66 277.177 113.92C276.967 113.58 277.057 113.34 277.417 113.17C277.017 113.26 276.847 113.08 276.777 112.7H276.767ZM274.547 113.18C274.367 113.17 274.177 113.21 274.087 113.13C273.987 113.05 273.977 112.86 273.927 112.73C273.877 113.1 273.687 113.26 273.287 113.18C273.667 113.34 273.707 113.59 273.537 113.94C273.797 113.6 274.037 113.65 274.297 113.94C274.237 113.613 274.324 113.36 274.557 113.18H274.547ZM268.817 113.18C268.427 113.25 268.227 113.1 268.177 112.69C268.177 113.13 267.937 113.24 267.557 113.18C267.897 113.35 267.997 113.57 267.797 113.92C268.067 113.62 268.317 113.65 268.577 113.92C268.367 113.57 268.467 113.35 268.807 113.18H268.817ZM265.707 113.91C265.667 113.74 265.577 113.59 265.617 113.48C265.657 113.36 265.827 113.29 265.937 113.2C265.547 113.28 265.387 113.08 265.317 112.71C265.287 113.12 265.077 113.25 264.687 113.19C265.077 113.35 265.107 113.6 264.897 113.94C265.184 113.767 265.451 113.757 265.697 113.91H265.707ZM275.957 116.88C275.577 116.97 275.397 116.79 275.347 116.41C275.317 116.81 275.097 116.94 274.727 116.9C275.147 117.04 275.107 117.31 274.977 117.63C275.237 117.31 275.477 117.36 275.737 117.65C275.671 117.323 275.744 117.067 275.957 116.88ZM276.767 117.66C276.727 118.03 276.547 118.21 276.137 118.12C276.497 118.28 276.567 118.52 276.397 118.87C276.657 118.57 276.887 118.59 277.147 118.87C276.957 118.52 277.077 118.3 277.427 118.15C277.094 118.11 276.874 117.95 276.767 117.67V117.66ZM266.367 117.63C266.637 117.34 266.877 117.33 267.147 117.63C266.957 117.29 267.037 117.05 267.387 116.87C266.957 116.99 266.827 116.76 266.757 116.41C266.717 116.79 266.527 116.96 266.127 116.89C266.527 117.04 266.527 117.3 266.367 117.63Z" fill="#022765"/>
<path d="M262.407 120.78C268.077 120.78 273.747 120.78 279.417 120.78C279.507 120.78 279.597 120.78 279.687 120.78C279.767 120.78 279.847 120.78 279.937 120.78C282.007 120.78 284.077 120.78 286.137 120.78C292.627 120.78 299.117 120.78 305.607 120.78V122.55C305.527 122.55 305.447 122.55 305.357 122.55C291.127 122.55 276.887 122.55 262.657 122.55C262.577 122.55 262.497 122.55 262.407 122.55V120.78Z" fill="#FEFDFD"/>
<path d="M262.407 129.56C262.407 128.97 262.407 128.38 262.407 127.79C262.497 127.79 262.587 127.79 262.677 127.79C276.897 127.79 291.117 127.79 305.337 127.79C305.427 127.79 305.517 127.79 305.607 127.79V129.56C305.537 129.56 305.477 129.56 305.407 129.56C291.147 129.56 276.877 129.56 262.617 129.56C262.547 129.56 262.487 129.56 262.417 129.56H262.407Z" fill="#FEFDFD"/>
<path d="M262.407 129.56C262.477 129.56 262.537 129.56 262.607 129.56C276.867 129.56 291.137 129.56 305.397 129.56C305.467 129.56 305.527 129.56 305.597 129.56C305.597 130.11 305.597 130.66 305.597 131.21C305.597 131.31 305.577 131.34 305.477 131.32C305.447 131.32 305.417 131.32 305.387 131.32C291.127 131.32 276.857 131.32 262.597 131.32C262.427 131.32 262.387 131.28 262.387 131.11C262.397 130.59 262.387 130.07 262.387 129.55L262.407 129.56Z" fill="#E84723"/>
<path d="M305.607 127.8C305.517 127.8 305.427 127.8 305.337 127.8C291.117 127.8 276.897 127.8 262.677 127.8C262.587 127.8 262.497 127.8 262.407 127.8C262.407 127.21 262.407 126.62 262.407 126.03C262.487 126.03 262.567 126.05 262.647 126.05C276.887 126.05 291.117 126.05 305.357 126.05C305.437 126.05 305.517 126.04 305.597 126.03V127.8H305.607Z" fill="#E84723"/>
<path d="M262.407 122.55C262.487 122.55 262.567 122.55 262.657 122.55C276.887 122.55 291.127 122.55 305.357 122.55C305.437 122.55 305.517 122.55 305.607 122.55V124.32C305.517 124.32 305.427 124.31 305.337 124.31C291.117 124.31 276.897 124.31 262.677 124.31C262.587 124.31 262.497 124.31 262.407 124.32C262.407 123.73 262.407 123.14 262.407 122.55Z" fill="#E84723"/>
<path d="M262.407 124.31C262.497 124.31 262.587 124.3 262.677 124.3C276.897 124.3 291.117 124.3 305.337 124.3C305.427 124.3 305.517 124.3 305.607 124.31V126.03C305.527 126.03 305.447 126.05 305.367 126.05C291.127 126.05 276.897 126.05 262.657 126.05C262.577 126.05 262.497 126.04 262.417 126.03C262.417 125.46 262.417 124.88 262.417 124.31H262.407Z" fill="#FEFDFD"/>
<path d="M279.697 110.23C279.697 109.64 279.697 109.06 279.697 108.47C288.267 108.47 296.837 108.47 305.407 108.47C305.577 108.47 305.617 108.51 305.617 108.68C305.607 109.2 305.617 109.72 305.617 110.24C305.567 110.24 305.517 110.24 305.457 110.24C296.877 110.24 288.287 110.24 279.707 110.24L279.697 110.23Z" fill="#E84723"/>
<path d="M305.607 120.78C299.117 120.78 292.627 120.78 286.137 120.78C284.067 120.78 281.997 120.78 279.937 120.78C279.857 120.78 279.777 120.78 279.687 120.78C279.687 120.19 279.687 119.61 279.687 119.02C282.697 119.02 285.717 119.02 288.727 119.02C294.347 119.02 299.977 119.02 305.597 119.02V120.79L305.607 120.78Z" fill="#E84723"/>
<path d="M305.607 119.01C299.987 119.01 294.357 119.01 288.737 119.01C285.727 119.01 282.707 119.01 279.697 119.01C279.697 118.42 279.697 117.84 279.697 117.25C288.237 117.25 296.777 117.25 305.317 117.25C305.417 117.25 305.507 117.25 305.607 117.25V119.02V119.01Z" fill="#FEFDFD"/>
<path d="M305.607 117.25C305.507 117.25 305.417 117.25 305.317 117.25C296.777 117.25 288.237 117.25 279.697 117.25C279.697 116.66 279.697 116.08 279.697 115.49C288.277 115.49 296.867 115.49 305.447 115.49C305.497 115.49 305.547 115.49 305.607 115.48V117.25Z" fill="#E84723"/>
<path d="M279.697 113.75C279.697 113.16 279.697 112.58 279.697 111.99C288.237 111.99 296.777 111.99 305.317 111.99C305.417 111.99 305.507 111.99 305.607 111.99V113.76C305.527 113.76 305.447 113.74 305.367 113.74C304.667 113.74 303.957 113.74 303.257 113.74C295.407 113.74 287.557 113.74 279.707 113.74L279.697 113.75Z" fill="#E84723"/>
<path d="M305.607 112C305.507 112 305.417 112 305.317 112C296.777 112 288.237 112 279.697 112C279.697 111.41 279.697 110.83 279.697 110.24C288.277 110.24 296.867 110.24 305.447 110.24C305.497 110.24 305.547 110.24 305.607 110.24V112.01V112Z" fill="#FEFDFD"/>
<path d="M279.697 113.75C287.547 113.75 295.397 113.75 303.247 113.75C303.947 113.75 304.657 113.75 305.357 113.75C305.437 113.75 305.517 113.76 305.597 113.77V115.49C305.547 115.49 305.497 115.5 305.437 115.5C296.857 115.5 288.267 115.5 279.687 115.5C279.687 114.92 279.687 114.33 279.687 113.75H279.697Z" fill="#FEFDFD"/>
<path d="M264.697 115.66C265.004 115.633 265.217 115.457 265.337 115.13C265.377 115.54 265.547 115.73 265.927 115.66C265.817 115.75 265.667 115.83 265.607 115.94C265.547 116.06 265.687 116.2 265.697 116.37C265.567 116.28 265.447 116.14 265.327 116.15C265.197 116.15 265.077 116.29 264.887 116.42C265.107 116.06 265.067 115.81 264.697 115.66Z" fill="#FEFDFD"/>
<path d="M274.597 115.67C274.177 115.82 274.127 116.06 274.297 116.4C274.027 116.1 273.787 116.12 273.517 116.4C273.687 116.06 273.657 115.81 273.267 115.65C273.657 115.71 273.867 115.58 273.877 115.17C273.997 115.32 273.967 115.51 274.067 115.6C274.177 115.7 274.357 115.6 274.587 115.67H274.597Z" fill="#FEFDFD"/>
<path d="M277.427 115.64C277.277 115.76 277.107 115.84 277.067 115.95C277.027 116.07 277.127 116.23 277.167 116.4C277.027 116.3 276.907 116.16 276.777 116.16C276.657 116.16 276.537 116.3 276.357 116.42C276.547 116.07 276.507 115.81 276.137 115.65C276.537 115.72 276.727 115.57 276.747 115.14C276.881 115.467 277.104 115.633 277.417 115.64H277.427Z" fill="#FEFDFD"/>
<path d="M266.747 111.48C266.797 111.86 266.977 112.03 267.377 111.95C267.037 112.12 266.937 112.34 267.147 112.69C266.877 112.41 266.627 112.4 266.367 112.69C266.547 112.35 266.497 112.11 266.127 111.95C266.507 112.01 266.717 111.88 266.757 111.48H266.747Z" fill="#FEFDFD"/>
<path d="M274.717 111.96C275.127 112.04 275.287 111.85 275.347 111.48C275.397 111.86 275.587 112.03 275.977 111.96C275.607 112.12 275.547 112.36 275.737 112.7C275.467 112.44 275.227 112.37 274.967 112.72C275.107 112.38 275.127 112.12 274.717 111.97V111.96Z" fill="#FEFDFD"/>
<path d="M268.187 115.16C268.227 115.57 268.427 115.71 268.827 115.64C268.487 115.81 268.357 116.04 268.587 116.39C268.317 116.15 268.067 116.05 267.807 116.41C267.977 116.05 267.917 115.81 267.557 115.64C267.947 115.71 268.167 115.57 268.187 115.16Z" fill="#FEFDFD"/>
<path d="M273.527 111.46C273.727 111.11 273.637 110.88 273.277 110.7C273.677 110.78 273.877 110.63 273.907 110.23C273.967 110.6 274.137 110.8 274.547 110.7C274.207 110.88 274.097 111.11 274.297 111.46C274.027 111.17 273.787 111.17 273.517 111.46H273.527Z" fill="#FEFDFD"/>
<path d="M266.007 110.71C265.647 110.88 265.477 111.08 265.767 111.44C265.547 111.39 265.457 111.2 265.337 111.21C265.207 111.23 265.087 111.35 264.907 111.47C265.097 111.12 265.097 110.85 264.677 110.7C265.087 110.77 265.287 110.63 265.297 110.18C265.377 110.4 265.397 110.58 265.497 110.66C265.597 110.73 265.777 110.69 266.007 110.71Z" fill="#FEFDFD"/>
<path d="M267.557 110.71C267.937 110.78 268.147 110.65 268.177 110.24C268.247 110.61 268.417 110.8 268.817 110.69C268.487 110.88 268.357 111.1 268.587 111.46C268.317 111.16 268.067 111.16 267.797 111.46C267.967 111.12 267.927 110.87 267.557 110.71Z" fill="#FEFDFD"/>
<path d="M276.397 111.46C276.587 111.11 276.497 110.88 276.147 110.71C276.537 110.78 276.737 110.64 276.777 110.24C276.837 110.62 276.997 110.82 277.417 110.69C277.097 110.88 276.937 111.09 277.177 111.45C276.907 111.2 276.657 111.13 276.387 111.45L276.397 111.46Z" fill="#FEFDFD"/>
<path d="M264.247 112.69C264.197 112.65 264.137 112.61 264.087 112.56C263.957 112.43 263.827 112.41 263.687 112.56C263.647 112.61 263.587 112.65 263.487 112.61C263.737 112.29 263.547 112.11 263.257 111.94C263.637 112.02 263.837 111.87 263.877 111.48C263.937 111.85 264.107 112.04 264.477 111.92C264.477 111.96 264.477 111.98 264.477 111.98C264.197 112.11 264.087 112.31 264.257 112.6C264.267 112.62 264.257 112.65 264.237 112.68L264.247 112.69Z" fill="#FEFDFD"/>
<path d="M275.757 120.11C275.477 119.82 275.237 119.78 274.977 120.11C275.117 119.78 275.117 119.51 274.717 119.36C275.107 119.42 275.317 119.28 275.347 118.89C275.437 119.22 275.547 119.49 275.987 119.33C275.667 119.53 275.507 119.75 275.757 120.12V120.11Z" fill="#FEFDFD"/>
<path d="M267.147 120.1C266.877 119.78 266.637 119.83 266.367 120.1C266.537 119.76 266.497 119.51 266.117 119.35C266.517 119.42 266.707 119.27 266.747 118.88C266.817 119.23 266.947 119.47 267.387 119.33C267.067 119.52 266.927 119.74 267.137 120.1H267.147Z" fill="#FEFDFD"/>
<path d="M272.847 112.69C272.847 112.69 272.767 112.63 272.727 112.59C272.577 112.45 272.437 112.39 272.277 112.57C272.237 112.61 272.177 112.65 272.107 112.61C272.137 112.48 272.257 112.34 272.197 112.23C272.137 112.12 271.987 112.05 271.867 111.96C272.027 111.9 272.207 112.01 272.307 111.9C272.397 111.81 272.417 111.65 272.487 111.45C272.537 111.85 272.697 112.05 273.067 111.93C273.067 111.97 273.067 111.99 273.067 111.99C272.797 112.13 272.677 112.32 272.847 112.61C272.857 112.63 272.847 112.66 272.837 112.69H272.847Z" fill="#FEFDFD"/>
<path d="M274.957 115.17C275.137 114.82 275.077 114.58 274.707 114.41C275.107 114.49 275.307 114.33 275.347 113.94C275.407 114.31 275.577 114.52 275.997 114.4C275.637 114.58 275.547 114.82 275.747 115.17C275.477 114.87 275.227 114.88 274.967 115.17H274.957Z" fill="#FEFDFD"/>
<path d="M270.427 110.7C270.817 110.8 270.987 110.63 271.047 110.25C271.097 110.64 271.297 110.77 271.677 110.7C271.347 110.88 271.217 111.11 271.457 111.46C271.177 111.15 270.927 111.16 270.657 111.46C270.857 111.11 270.777 110.87 270.437 110.69L270.427 110.7Z" fill="#FEFDFD"/>
<path d="M269.247 112.68C269.397 112.35 269.367 112.11 268.987 111.95C269.367 112.01 269.577 111.86 269.627 111.48C269.667 111.87 269.857 112.02 270.247 111.94C269.947 112.1 269.807 112.3 269.987 112.65C269.717 112.38 269.487 112.41 269.247 112.67V112.68Z" fill="#FEFDFD"/>
<path d="M278.837 111.95C278.577 112.12 278.337 112.28 278.597 112.66C278.307 112.4 278.077 112.42 277.837 112.69C277.997 112.35 277.957 112.11 277.557 111.98C277.747 111.91 277.927 112 278.037 111.91C278.147 111.82 278.117 111.63 278.247 111.48C278.267 111.88 278.457 112.02 278.837 111.95Z" fill="#FEFDFD"/>
<path d="M267.137 115.19C266.887 114.88 266.637 114.85 266.377 115.17C266.527 114.83 266.517 114.57 266.117 114.42C266.507 114.47 266.727 114.35 266.757 113.93C266.807 114.32 266.987 114.49 267.397 114.37C267.287 114.54 267.107 114.57 267.047 114.7C266.987 114.84 267.127 114.98 267.137 115.19Z" fill="#FEFDFD"/>
<path d="M271.047 115.2C271.107 115.58 271.287 115.73 271.677 115.64C271.427 115.83 271.197 116 271.437 116.37C271.167 116.1 270.927 116.17 270.667 116.37C270.877 116.03 270.767 115.82 270.437 115.66C270.787 115.7 271.037 115.62 271.057 115.2H271.047Z" fill="#FEFDFD"/>
<path d="M270.277 109.43C270.127 109.61 269.917 109.65 269.897 109.79C269.877 109.92 269.967 110.07 269.997 110.24C269.747 109.94 269.497 109.92 269.227 110.24C269.367 109.91 269.397 109.63 269.007 109.48C269.147 109.48 269.327 109.52 269.427 109.45C269.527 109.38 269.547 109.19 269.627 108.99C269.657 109.41 269.847 109.57 270.267 109.44L270.277 109.43Z" fill="#FEFDFD"/>
<path d="M272.857 120.05C272.697 120.05 272.617 119.84 272.477 119.85C272.347 119.85 272.257 120.04 272.067 120.06C272.297 119.73 272.187 119.52 271.857 119.35C272.217 119.39 272.467 119.32 272.457 118.88C272.557 119.21 272.667 119.49 273.067 119.3C273.067 119.35 273.067 119.38 273.067 119.38C272.747 119.52 272.717 119.76 272.847 120.05H272.857Z" fill="#FEFDFD"/>
<path d="M264.257 120.05C264.257 120.05 264.227 120.06 264.217 120.05C263.967 119.79 263.737 119.81 263.487 120.11C263.657 119.77 263.637 119.51 263.247 119.34C263.627 119.4 263.827 119.27 263.867 118.88C263.947 119.22 264.097 119.44 264.467 119.31C264.467 119.35 264.467 119.38 264.467 119.38C264.147 119.52 264.127 119.76 264.247 120.05H264.257Z" fill="#FEFDFD"/>
<path d="M277.847 120.06C277.957 119.77 277.967 119.51 277.617 119.36C277.757 119.36 277.937 119.39 278.037 119.32C278.137 119.25 278.157 119.06 278.227 118.9C278.287 119.06 278.307 119.23 278.397 119.32C278.497 119.41 278.667 119.33 278.867 119.37C278.557 119.53 278.407 119.74 278.597 120.07C278.327 119.81 278.087 119.91 277.857 120.07L277.847 120.06Z" fill="#FEFDFD"/>
<path d="M269.247 120.06C269.357 119.77 269.367 119.51 269.017 119.35C269.157 119.35 269.337 119.38 269.437 119.31C269.537 119.24 269.557 119.05 269.637 118.85C269.667 119.26 269.837 119.45 270.247 119.31C270.137 119.49 269.957 119.52 269.897 119.65C269.837 119.78 270.007 119.91 269.957 120.06C269.717 119.8 269.477 119.91 269.237 120.06H269.247Z" fill="#FEFDFD"/>
<path d="M277.817 110.24C278.007 109.89 277.947 109.64 277.577 109.47C277.977 109.56 278.167 109.39 278.217 109.01C278.257 109.42 278.467 109.54 278.847 109.47C278.487 109.64 278.397 109.88 278.617 110.23C278.347 109.95 278.087 109.9 277.817 110.23V110.24Z" fill="#FEFDFD"/>
<path d="M266.117 109.47C266.527 109.57 266.697 109.38 266.727 108.95C266.807 109.16 266.827 109.33 266.917 109.42C267.017 109.52 267.197 109.43 267.397 109.48C267.057 109.64 266.917 109.86 267.107 110.2C266.987 110.12 266.867 109.98 266.747 109.98C266.627 109.98 266.517 110.12 266.367 110.21C266.547 109.88 266.477 109.64 266.117 109.47Z" fill="#FEFDFD"/>
<path d="M274.967 110.22C275.007 110.04 275.097 109.88 275.057 109.76C275.017 109.65 274.857 109.58 274.677 109.44C275.107 109.54 275.317 109.4 275.347 108.99C275.397 109.38 275.577 109.56 275.967 109.49C275.857 109.58 275.697 109.65 275.647 109.77C275.587 109.89 275.727 110.04 275.737 110.21C275.597 110.12 275.467 109.99 275.347 109.99C275.227 109.99 275.117 110.13 274.977 110.23L274.967 110.22Z" fill="#FEFDFD"/>
<path d="M272.857 110.18H272.837C272.587 109.93 272.347 109.94 272.087 110.23C272.267 109.89 272.237 109.64 271.847 109.47C272.227 109.53 272.447 109.41 272.477 109C272.537 109.39 272.717 109.56 273.107 109.45C272.807 109.64 272.707 109.87 272.857 110.18Z" fill="#FEFDFD"/>
<path d="M263.537 110.19C263.537 110.19 263.507 110.16 263.517 110.16C263.677 109.86 263.617 109.63 263.227 109.51C263.427 109.44 263.597 109.52 263.707 109.45C263.827 109.37 263.807 109.18 263.897 109C263.957 109.38 264.107 109.59 264.527 109.47C264.187 109.65 264.077 109.88 264.307 110.21C264.257 110.21 264.237 110.21 264.237 110.21C264.007 109.94 263.777 110 263.547 110.21L263.537 110.19Z" fill="#FEFDFD"/>
<path d="M264.257 115.12C264.097 115.11 264.017 114.9 263.877 114.92C263.757 114.94 263.647 115.06 263.487 115.17C263.537 114.99 263.637 114.83 263.597 114.72C263.557 114.6 263.387 114.53 263.217 114.39C263.617 114.48 263.847 114.38 263.877 113.96C263.947 114.32 264.117 114.52 264.507 114.4C264.217 114.59 264.097 114.82 264.257 115.13V115.12Z" fill="#FEFDFD"/>
<path d="M267.757 118.86C267.997 118.5 267.887 118.29 267.547 118.12C267.937 118.19 268.137 118.05 268.177 117.65C268.237 118.03 268.407 118.21 268.807 118.11C268.487 118.29 268.337 118.51 268.547 118.85C268.427 118.77 268.317 118.64 268.197 118.62C268.057 118.6 267.967 118.79 267.757 118.85V118.86Z" fill="#FEFDFD"/>
<path d="M269.247 115.12V115.1C269.377 114.8 269.357 114.56 268.977 114.42C269.367 114.48 269.577 114.34 269.627 113.94C269.667 114.34 269.867 114.48 270.247 114.4C269.937 114.57 269.797 114.78 269.997 115.12C269.727 114.86 269.487 114.95 269.247 115.12Z" fill="#FEFDFD"/>
<path d="M272.857 115.12C272.697 115.11 272.617 114.91 272.477 114.92C272.347 114.92 272.257 115.1 272.057 115.14C272.307 114.8 272.167 114.59 271.847 114.42C272.207 114.47 272.437 114.37 272.457 113.96C272.527 114.32 272.697 114.52 273.077 114.39C273.077 114.43 273.077 114.44 273.077 114.44C272.777 114.59 272.697 114.82 272.837 115.12H272.857Z" fill="#FEFDFD"/>
<path d="M277.847 115.12C277.827 114.97 277.997 114.83 277.917 114.69C277.857 114.58 277.707 114.51 277.587 114.4C277.967 114.49 278.157 114.34 278.207 113.95C278.257 114.33 278.437 114.51 278.847 114.4C278.517 114.58 278.397 114.79 278.577 115.12C278.307 114.85 278.067 114.95 277.837 115.12H277.847Z" fill="#FEFDFD"/>
<path d="M273.517 118.88C273.697 118.54 273.667 118.29 273.277 118.12C273.667 118.18 273.877 118.05 273.907 117.63C273.967 118.02 274.137 118.2 274.547 118.1C274.227 118.28 274.087 118.49 274.297 118.85C274.017 118.57 273.767 118.57 273.517 118.87V118.88Z" fill="#FEFDFD"/>
<path d="M270.437 118.11C270.807 118.2 270.997 118.05 271.047 117.66C271.097 118.06 271.297 118.2 271.687 118.12C271.347 118.28 271.247 118.51 271.447 118.83C271.257 118.8 271.177 118.59 271.027 118.63C270.907 118.66 270.797 118.78 270.657 118.88C270.757 118.58 270.687 118.323 270.447 118.11H270.437Z" fill="#FEFDFD"/>
<path d="M264.937 118.88C265.117 118.53 265.067 118.28 264.687 118.12C265.077 118.19 265.277 118.05 265.307 117.65C265.377 118.02 265.537 118.22 265.957 118.11C265.627 118.29 265.507 118.5 265.707 118.86C265.437 118.6 265.187 118.55 264.927 118.88H264.937Z" fill="#FEFDFD"/>
<path d="M276.767 112.7C276.837 113.09 277.007 113.27 277.407 113.17C277.057 113.34 276.967 113.58 277.167 113.92C276.897 113.66 276.657 113.61 276.387 113.92C276.537 113.59 276.537 113.32 276.127 113.19C276.507 113.22 276.757 113.15 276.757 112.7H276.767Z" fill="#FEFDFD"/>
<path d="M274.547 113.18C274.32 113.36 274.234 113.613 274.287 113.94C274.027 113.65 273.787 113.6 273.527 113.94C273.697 113.59 273.657 113.34 273.277 113.18C273.677 113.25 273.867 113.1 273.917 112.73C273.967 112.87 273.987 113.06 274.077 113.13C274.177 113.2 274.357 113.16 274.537 113.18H274.547Z" fill="#FEFDFD"/>
<path d="M268.817 113.18C268.477 113.35 268.377 113.57 268.587 113.92C268.317 113.65 268.067 113.63 267.807 113.92C268.007 113.57 267.907 113.34 267.567 113.18C267.947 113.24 268.177 113.13 268.187 112.69C268.237 113.1 268.437 113.25 268.827 113.18H268.817Z" fill="#FEFDFD"/>
<path d="M265.707 113.91C265.454 113.757 265.187 113.767 264.907 113.94C265.107 113.59 265.077 113.34 264.697 113.19C265.087 113.25 265.297 113.11 265.327 112.71C265.387 113.08 265.557 113.28 265.947 113.2C265.837 113.29 265.677 113.37 265.627 113.48C265.587 113.59 265.677 113.75 265.717 113.91H265.707Z" fill="#FEFDFD"/>
<path d="M275.957 116.88C275.744 117.073 275.671 117.33 275.737 117.65C275.477 117.36 275.237 117.31 274.977 117.63C275.107 117.31 275.147 117.04 274.727 116.9C275.107 116.94 275.327 116.81 275.347 116.41C275.407 116.78 275.577 116.97 275.957 116.88Z" fill="#FEFDFD"/>
<path d="M276.767 117.66C276.874 117.933 277.094 118.093 277.427 118.14C277.077 118.29 276.957 118.51 277.147 118.86C276.887 118.59 276.647 118.57 276.397 118.86C276.557 118.52 276.487 118.28 276.137 118.11C276.537 118.2 276.727 118.02 276.767 117.65V117.66Z" fill="#FEFDFD"/>
<path d="M270.697 113.92C270.637 113.84 270.697 113.76 270.727 113.69C270.797 113.53 270.777 113.41 270.607 113.33C270.547 113.3 270.497 113.25 270.377 113.16C270.777 113.24 271.017 113.14 271.047 112.72C271.087 113.12 271.307 113.25 271.647 113.17C271.647 113.21 271.647 113.22 271.647 113.22C271.367 113.36 271.257 113.56 271.417 113.86C271.417 113.88 271.407 113.91 271.397 113.94C271.177 113.74 270.944 113.737 270.697 113.93V113.92Z" fill="#FEFDFD"/>
<path d="M266.367 117.63C266.527 117.3 266.527 117.05 266.127 116.89C266.527 116.96 266.707 116.78 266.757 116.41C266.827 116.76 266.957 117 267.387 116.87C267.037 117.05 266.957 117.29 267.147 117.63C266.877 117.33 266.637 117.34 266.367 117.63Z" fill="#FEFDFD"/>
<path d="M264.247 117.63C264.034 117.45 263.774 117.457 263.467 117.65C263.657 117.31 263.657 117.05 263.257 116.9C263.637 116.96 263.837 116.82 263.877 116.43C263.967 116.75 264.077 117.03 264.507 116.86C264.227 117.07 264.087 117.27 264.267 117.57C264.267 117.58 264.257 117.61 264.247 117.63Z" fill="#FEFDFD"/>
<path d="M277.867 117.63C277.797 117.55 277.867 117.47 277.887 117.4C277.967 117.23 277.937 117.12 277.767 117.03C277.707 117 277.667 116.95 277.597 116.9C277.757 116.83 277.937 116.94 278.037 116.83C278.127 116.74 278.147 116.57 278.217 116.43C278.267 116.78 278.427 116.98 278.827 116.87C278.547 117.04 278.377 117.23 278.577 117.59C278.287 117.3 278.067 117.38 277.857 117.62L277.867 117.63Z" fill="#FEFDFD"/>
<path d="M272.837 117.63C272.837 117.63 272.737 117.56 272.697 117.52C272.557 117.39 272.427 117.35 272.287 117.51C272.247 117.56 272.177 117.6 272.107 117.56C272.137 117.43 272.267 117.29 272.197 117.17C272.137 117.06 271.997 117 271.857 116.9C272.027 116.89 272.207 116.92 272.307 116.85C272.407 116.78 272.417 116.6 272.497 116.42C272.557 116.78 272.707 117 273.087 116.88C273.067 116.93 273.067 116.95 273.067 116.95C272.817 117.08 272.687 117.25 272.857 117.54C272.877 117.57 272.877 117.61 272.847 117.64L272.837 117.63Z" fill="#FEFDFD"/>
<path d="M269.267 117.63C269.197 117.55 269.267 117.47 269.297 117.4C269.377 117.23 269.347 117.12 269.177 117.03C269.117 117 269.077 116.95 269.017 116.89C269.377 116.95 269.597 116.83 269.607 116.42C269.687 116.78 269.827 117 270.247 116.87C269.957 117.05 269.787 117.24 269.987 117.6C269.697 117.31 269.477 117.4 269.267 117.63Z" fill="#FEFDFD"/>
<path d="M263.537 110.19C263.537 110.19 263.527 110.21 263.517 110.22C263.517 110.22 263.517 110.2 263.517 110.19C263.527 110.19 263.537 110.19 263.547 110.19H263.537Z" fill="#FEFDFD"/>
<path d="M264.257 115.12C264.257 115.12 264.267 115.12 264.277 115.12C264.277 115.12 264.277 115.12 264.277 115.13C264.277 115.13 264.277 115.11 264.267 115.11L264.257 115.12Z" fill="#FEFDFD"/>
<path d="M264.237 117.62H264.247V117.63L264.237 117.62Z" fill="#FEFDFD"/>
<path d="M269.267 117.63L269.257 117.62L269.267 117.63Z" fill="#FEFDFD"/>
<path d="M272.837 117.62H272.847L272.837 117.63V117.62Z" fill="#FEFDFD"/>
<path d="M269.247 115.12C269.247 115.12 269.247 115.14 269.247 115.15C269.247 115.15 269.237 115.15 269.227 115.15C269.227 115.15 269.247 115.14 269.247 115.13V115.12Z" fill="#FEFDFD"/>
<path d="M277.837 115.12C277.837 115.12 277.837 115.14 277.837 115.15C277.837 115.15 277.827 115.15 277.817 115.15C277.817 115.15 277.837 115.14 277.837 115.13V115.12Z" fill="#FEFDFD"/>
<path d="M270.697 113.92C270.697 113.92 270.677 113.92 270.657 113.92C270.657 113.92 270.667 113.91 270.677 113.9C270.677 113.9 270.687 113.92 270.697 113.93V113.92Z" fill="#FEFDFD"/>
<path d="M264.257 120.06C264.257 120.06 264.267 120.06 264.277 120.07C264.277 120.07 264.277 120.07 264.277 120.08C264.277 120.08 264.277 120.06 264.277 120.05L264.257 120.06Z" fill="#FEFDFD"/>
<path d="M269.247 120.05C269.247 120.05 269.247 120.07 269.247 120.08C269.247 120.08 269.237 120.08 269.227 120.08C269.227 120.08 269.237 120.06 269.247 120.06V120.05Z" fill="#FEFDFD"/>
<path d="M272.847 115.12C272.847 115.12 272.857 115.12 272.867 115.12C272.867 115.12 272.867 115.12 272.867 115.13C272.867 115.13 272.867 115.11 272.857 115.11L272.847 115.12Z" fill="#FEFDFD"/>
<path d="M277.837 120.05C277.837 120.05 277.837 120.07 277.837 120.08C277.837 120.08 277.827 120.08 277.817 120.08L277.837 120.06V120.05Z" fill="#FEFDFD"/>
<path d="M272.837 112.69L272.847 112.68V112.69H272.837Z" fill="#FEFDFD"/>
<path d="M272.847 110.19C272.847 110.19 272.857 110.19 272.867 110.19C272.867 110.19 272.867 110.19 272.867 110.2C272.867 110.2 272.857 110.19 272.847 110.18V110.19Z" fill="#FEFDFD"/>
<path d="M271.397 113.93C271.397 113.93 271.417 113.91 271.427 113.9C271.427 113.9 271.427 113.9 271.427 113.91C271.417 113.91 271.407 113.91 271.387 113.92L271.397 113.93Z" fill="#FEFDFD"/>
<path d="M272.847 120.05C272.847 120.05 272.857 120.05 272.867 120.06C272.867 120.06 272.867 120.06 272.867 120.07C272.867 120.07 272.867 120.05 272.867 120.04L272.847 120.05Z" fill="#FEFDFD"/>
<path d="M308.117 113.43C308.117 116.27 305.837 118.58 303.037 118.58C300.237 118.58 297.957 116.28 297.957 113.43C297.957 111.27 300.877 106.14 302.297 103.78C302.657 103.18 303.427 103.18 303.787 103.78C305.197 106.14 308.127 111.27 308.127 113.43H308.117Z" fill="#6EAAEA"/>
<path d="M358.041 94.087L327 117.08L327 103.274L357.104 92.3435C358.188 91.9499 358.968 93.4006 358.041 94.087Z" fill="black" fill-opacity="0.6"/>
<defs>
<filter id="filter0_f_416_19858" x="92" y="25" width="102" height="89" filterUnits="userSpaceOnUse" color-interpolation-filters="sRGB">
<feFlood flood-opacity="0" result="BackgroundImageFix"/>
<feBlend mode="normal" in="SourceGraphic" in2="BackgroundImageFix" result="shape"/>
<feGaussianBlur stdDeviation="1" result="effect1_foregroundBlur_416_19858"/>
</filter>
<filter id="filter1_d_416_19858" x="59" y="96" width="82" height="66" filterUnits="userSpaceOnUse" color-interpolation-filters="sRGB">
<feFlood flood-opacity="0" result="BackgroundImageFix"/>
<feColorMatrix in="SourceAlpha" type="matrix" values="0 0 0 0 0 0 0 0 0 0 0 0 0 0 0 0 0 0 127 0" result="hardAlpha"/>
<feOffset dx="4" dy="-4"/>
<feGaussianBlur stdDeviation="2"/>
<feComposite in2="hardAlpha" operator="out"/>
<feColorMatrix type="matrix" values="0 0 0 0 0 0 0 0 0 0 0 0 0 0 0 0 0 0 0.1 0"/>
<feBlend mode="normal" in2="BackgroundImageFix" result="effect1_dropShadow_416_19858"/>
<feBlend mode="normal" in="SourceGraphic" in2="effect1_dropShadow_416_19858" result="shape"/>
</filter>
<clipPath id="clip0_416_19858">
<rect width="52" height="40" fill="white" transform="translate(70 113)"/>
</clipPath>
<clipPath id="clip1_416_19858">
<rect width="34" height="40" fill="white" transform="translate(217 97)"/>
</clipPath>
</defs>
</svg>
