<svg width="375" height="220" viewBox="0 0 375 220" fill="none" xmlns="http://www.w3.org/2000/svg">
<g filter="url(#filter0_f_416_20000)" style="mix-blend-mode:multiply">
<path d="M97.2551 27.3979C98.0962 28.1938 98.9374 28.3229 99.0426 29.5705C99.4001 30.3233 100.599 30.3878 100.788 31.1192C100.998 31.9581 102.218 31.5064 102.765 32.2377C104.279 32.5819 105.856 32.6679 107.265 31.9151C108.001 30.4309 107.917 31.2268 108.99 29.7856C109.684 28.8176 110.987 29.1618 111.744 28.1723C112.838 27.9142 113.995 26.2579 114.857 27.9357C114.962 28.3229 114.857 28.6455 115.341 28.7101C115.446 29.4199 114.499 30.0867 115.13 30.775C116.35 31.5064 112.396 32.6894 115.383 33.2702C116.413 33.3132 116.203 34.9265 117.338 34.8405C118.074 34.7759 119.315 35.0771 118.747 36.045C119.105 39.6373 120.009 40.8849 123.773 40.9279C127.454 43.7242 131.617 47.1874 136.454 45.5956C138.179 45.2945 139.798 44.6062 141.586 44.4986C142.427 44.4556 145.665 45.2945 144.13 43.5091C143.731 40.5192 145.413 41.7238 147.306 41.2936C148.189 40.2826 148.883 39.1425 149.976 38.3036C151.28 36.3462 153.804 37.0345 155.717 37.2711C156.895 37.3572 156.517 36.9915 157.232 36.3247C157.883 35.7224 160.218 36.1741 160.87 36.4968C161.606 36.8624 161.206 37.2066 161.711 37.7013C162.258 38.2391 162.931 37.6583 163.54 37.8519C164.676 38.1961 165.496 39.4652 166.548 39.9169C168.314 40.3256 170.943 38.9274 172.142 40.7773C171.91 41.2075 172.751 41.8959 172.941 42.24C173.551 43.6597 175.212 42.8853 176.053 44.176C176.747 46.4991 179.123 45.3375 180.806 45.8753C182.131 48.9297 181.226 52.9521 180.974 56.2217C179.796 56.5229 180.469 57.5123 179.355 57.7705C178.282 58.3727 179.628 59.0611 179.67 59.6634C178.282 59.5773 177.588 60.0075 178.03 61.5133C177.799 62.0295 177.273 63.7503 178.198 63.8579C179.187 63.7073 181.016 64.6753 179.165 65.1915C177.883 66.1164 178.535 67.9233 178.787 69.3C179.691 71.408 178.997 73.9892 179.355 76.2048C181.268 76.8286 184.171 75.4734 184.234 78.0332C185.117 80.7865 181.563 82.2922 180.595 84.5293C179.208 85.024 179.88 86.0995 180.722 86.7663C182.467 88.9174 183.561 92.0364 185.958 93.4991C189.007 94.1874 190.101 95.9082 189.47 99.0487C189.828 101.135 193.192 98.7906 191.552 103.286C190.437 104.964 187.767 103.093 186.295 104.448C181.794 106.728 186.778 113.202 179.965 111.804C179.081 111.46 178.177 111.224 177.483 110.578C174.896 109.761 172.268 110.643 169.639 110.191C168.714 109.029 166.716 109.266 165.349 109.03C164.003 108.922 162.889 108.492 161.627 108.492C161.248 108.298 161.522 108.083 161.395 107.76C161.269 107.502 160.996 107.502 160.933 107.158C161.08 106.513 160.26 106.233 160.47 105.502C160.134 104.082 160.239 101.458 158.346 100.92C157.084 100.511 155.781 101.049 154.477 100.92C154.203 101.651 153.341 101.286 152.92 101.91C152.121 103.566 149.997 103.114 148.883 104.061C145.939 104.405 142.7 103.501 140.786 101.071C138.81 100.834 137.926 99.7585 136.665 98.1883C136.223 97.1128 134.183 96.7041 133.111 96.575C131.954 96.8331 131.323 96.6181 130.987 95.4135C129.998 94.7897 130.124 93.8002 129.767 92.8107C129.157 92.0794 128.989 91.219 128.968 90.294C128.652 89.4766 127.306 89.8853 126.949 89.0249C127.412 86.8309 127.054 87.4332 125.771 85.8844C124.425 81.4963 122.638 85.8844 120.998 83.97C115.803 77.4954 120.808 90.6382 115.235 82.2922C113.132 80.937 115.383 78.786 112.67 78.3988C112.565 74.6991 113.974 73.1503 110.335 70.397C108.212 70.397 107.433 67.8588 105.373 67.4071C104.784 67.2565 104.195 67.8158 104.111 67.0199C104.027 66.267 103.522 65.6862 103.48 64.8904C103.438 63.3416 101.461 63.105 100.767 61.8789C100.599 60.997 101.167 60.4162 101.671 59.8355C101.755 59.2332 101.482 59.5558 101.251 59.3192C99.6735 57.6199 101.692 58.2867 102.534 57.5984C102.344 53.3178 105.183 57.2542 104.111 52.1778C105.961 50.629 104.552 50.629 102.849 50.7796C101.945 50.5215 101.272 49.9192 100.578 49.3384C100.157 48.4995 100.578 47.381 99.4842 47.0368C99.2739 46.6926 99.5683 46.4776 99.4211 46.1549C98.5799 45.4881 97.6967 44.5416 97.6756 43.337C98.2645 42.0894 97.171 41.5302 96.7083 40.4762C96.5401 39.2716 96.2457 38.6048 95.1731 38.2176C95.1731 37.7014 95.4465 37.3357 95.2362 36.7764C95.3414 36.3032 96.0985 36.2817 95.9302 35.6579C95.2573 35.3137 95.7199 34.4748 95.2993 33.808C95.6148 32.5604 94.374 32.2162 94.1217 31.1622C94.7105 30.1512 93.0491 29.0112 94.9208 29.0757C96.9606 29.4844 94.353 25.7846 97.171 27.4194L97.2551 27.3979Z" fill="#FFCCBE"/>
</g>
<rect x="135.5" y="67.6177" width="5" height="5" rx="2.5" fill="white" stroke="black"/>
<path d="M154.082 64.6138V75.1372H152.969V64.6138H154.082ZM145.75 69.0786C145.75 66.8345 146.881 65.4048 148.469 65.3989C150.027 65.4048 151.176 66.8345 151.176 69.0786C151.176 71.3462 150.027 72.7759 148.469 72.77C146.881 72.7759 145.75 71.3462 145.75 69.0786ZM146.828 69.0786C146.822 70.7485 147.49 71.7739 148.469 71.7739C149.43 71.7739 150.098 70.7485 150.098 69.0786C150.098 67.4321 149.43 66.4009 148.469 66.395C147.49 66.4009 146.822 67.4321 146.828 69.0786ZM163.768 64.6255V67.7778H165.303V68.7153H163.768V72.3481H162.655V64.6255H163.768ZM155.94 66.2075V65.2935H160.721V68.3872H157.065V69.8521C158.887 69.8521 160.176 69.7759 161.705 69.5122L161.823 70.4263C160.199 70.7075 158.811 70.7603 156.795 70.7661H155.951V67.5317H159.631V66.2075H155.94ZM157.17 74.8911V71.7505H158.295V73.9888H164.237V74.8911H157.17Z" fill="#191414"/>
<circle cx="156" cy="105" r="8" fill="#FF8474" fill-opacity="0.2" stroke="#02A39E" stroke-width="2" stroke-dasharray="4 4"/>
<g filter="url(#filter1_d_416_20000)">
<rect x="60" y="105" width="72" height="56" rx="8" fill="#02A39E" shape-rendering="crispEdges"/>
<rect x="59.5" y="104.5" width="73" height="57" rx="8.5" stroke="#02A39E" shape-rendering="crispEdges"/>
<g clip-path="url(#clip0_416_20000)">
<path d="M95.9924 152.093C89.3178 152.093 83.2252 148.683 79.6969 142.98C78.0055 140.241 77.0325 137.085 76.887 133.857L76.8688 133.585C76.8597 133.394 76.8416 133.204 76.8416 133.005C76.8416 132.533 76.8779 132.061 76.9143 131.599C77.0234 130.085 77.2962 128.67 77.7054 127.355C80.2061 119.311 87.5537 113.907 95.9924 113.907C103.922 113.907 111.133 118.903 113.916 126.348L114.37 127.573H112.879L110.66 129.831L109.551 130.937L109.142 129.432C108.996 128.897 108.796 128.325 108.514 127.691C108.205 126.974 107.85 126.303 107.45 125.668L88.6267 144.44C90.8182 145.854 93.3462 146.598 95.9833 146.598C99.1115 146.598 102.076 145.537 104.54 143.542C105.213 142.998 105.777 142.463 106.25 141.919L106.523 141.61H113.134L112.279 142.998C108.751 148.702 102.658 152.102 95.9924 152.102V152.093ZM95.9924 119.402C90.4363 119.402 85.4895 122.739 83.3798 127.908C83.1342 128.525 82.9433 129.069 82.8069 129.586C82.6068 130.338 82.4795 131.037 82.4159 131.717C82.3704 132.179 82.3522 132.606 82.3522 133.005C82.3522 133.204 82.3613 133.413 82.3795 133.612C82.3795 133.612 82.3977 134.093 82.4068 134.147C82.5977 136.432 83.3889 138.663 84.6983 140.586L103.604 121.733C101.358 120.227 98.6932 119.402 95.9924 119.402Z" fill="#455A64"/>
<path d="M95.9924 114.814C103.813 114.814 110.478 119.756 113.061 126.666H112.879C112.67 126.666 112.461 126.747 112.315 126.902L110.015 129.196C109.842 128.561 109.605 127.944 109.351 127.337C108.887 126.258 108.314 125.224 107.577 124.263L102.003 129.822L100.194 131.626L98.002 133.812L89.2814 142.508L87.5445 144.24L87.2262 144.557C89.7724 146.48 92.7914 147.496 95.9924 147.496C99.457 147.496 102.622 146.262 105.122 144.24C105.777 143.714 106.395 143.143 106.95 142.508H111.515C108.305 147.704 102.558 151.186 96.0014 151.186C89.445 151.186 83.698 147.704 80.4789 142.499C78.9057 139.951 77.9418 136.985 77.8054 133.812C77.7963 133.54 77.7599 133.277 77.7599 132.995C77.7599 132.533 77.7963 132.08 77.8327 131.626C77.9327 130.239 78.1782 128.897 78.5783 127.618C80.879 120.209 87.8082 114.814 95.9924 114.814ZM84.58 141.982L92.7733 133.812L94.9648 131.626L96.7744 129.822L104.995 121.624C102.431 119.602 99.2478 118.495 95.9833 118.495C89.8906 118.495 84.6892 122.259 82.534 127.564C82.2976 128.144 82.0884 128.742 81.9247 129.359C81.7338 130.094 81.5883 130.846 81.5155 131.626C81.4701 132.08 81.4428 132.533 81.4428 132.995C81.4428 133.268 81.461 133.54 81.4792 133.812C81.4792 133.948 81.4792 134.084 81.4973 134.22C81.7065 136.713 82.5795 139.117 83.998 141.193C84.1799 141.465 84.3709 141.728 84.58 141.991M95.9924 113C87.1535 113 79.4513 118.659 76.8324 127.083C76.405 128.461 76.1231 129.949 76.0049 131.49V131.535C75.9685 131.998 75.9321 132.479 75.9321 132.995C75.9321 133.213 75.9412 133.422 75.9594 133.63C75.9594 133.712 75.9685 133.803 75.9776 133.884C76.1322 137.267 77.1507 140.567 78.9239 143.442C82.6158 149.418 88.9995 152.991 95.9924 152.991C102.985 152.991 109.36 149.427 113.052 143.451L114.761 140.685H106.113L105.568 141.311C105.122 141.819 104.595 142.318 103.967 142.825C101.667 144.693 98.9114 145.673 95.9924 145.673C93.9099 145.673 91.9185 145.183 90.1089 144.231L90.5635 143.778L99.2842 135.081L101.476 132.896L103.285 131.091L107.25 127.137C107.396 127.428 107.541 127.727 107.668 128.026C107.932 128.643 108.114 129.16 108.25 129.649L109.078 132.669L111.297 130.456L113.297 128.461H115.68L114.761 126.013C111.842 118.232 104.304 113 95.9924 113ZM84.871 139.135C83.998 137.566 83.4615 135.834 83.316 134.066C83.316 134.02 83.316 133.975 83.316 133.929C83.316 133.857 83.316 133.784 83.316 133.712V133.576C83.2979 133.385 83.2888 133.195 83.2888 132.995C83.2888 132.624 83.3069 132.234 83.3524 131.789C83.4161 131.164 83.5343 130.511 83.7162 129.803C83.8435 129.323 84.0162 128.815 84.2527 128.235C86.2169 123.41 90.8363 120.3 96.0196 120.3C98.1748 120.3 100.303 120.853 102.176 121.896L95.5195 128.534L93.7099 130.338L91.5184 132.524L84.8983 139.126L84.871 139.135Z" fill="#37474F"/>
<path d="M121.627 126.149C121.309 125.605 120.818 125.206 120.236 124.997L118.744 120.581C118.408 119.574 117.38 118.903 116.207 118.903H113.997C112.861 118.903 111.915 119.511 111.524 120.391C107.777 115.82 102.085 113 95.9923 113C87.6081 113 80.2515 118.096 77.2779 125.804H74.7135C73.7133 125.804 72.8948 126.62 72.8948 127.618V128.117C72.5857 128.443 72.3947 128.878 72.3947 129.359V129.822C71.6672 129.885 71.0125 130.239 70.5578 130.81C70.0577 131.445 69.8849 132.261 70.0759 133.05L70.1031 133.177L70.3669 134.247C70.3941 134.347 70.4214 134.437 70.4578 134.528L72.2583 138.736C72.6039 139.806 73.6041 140.54 74.7499 140.54H74.95L75.8866 141.864C76.7232 143.052 77.9872 143.877 79.3967 144.186C83.1523 149.717 89.2904 153 95.9923 153C102.694 153 108.787 149.745 112.542 144.249C113.406 144.059 114.152 143.506 114.607 142.689C114.779 142.381 114.889 142.046 114.97 141.701C115.007 141.574 115.025 141.438 115.052 141.302C115.052 141.238 115.07 141.184 115.08 141.121C115.134 140.604 115.08 140.06 114.943 139.543C115.189 138.854 115.389 138.192 115.543 137.521L117.962 135.081C118.071 134.972 118.171 134.845 118.253 134.7L118.862 133.63L120.472 130.81L121.645 128.77C121.763 128.561 121.845 128.353 121.909 128.126C122.091 127.464 122 126.747 121.645 126.14L121.627 126.149ZM120.063 127.854L117.271 132.742L116.662 133.812L113.87 136.623L112.361 138.146C112.161 138.5 112.251 138.962 112.597 139.189C112.752 139.298 112.879 139.434 112.979 139.597C113.615 140.613 113.252 142.508 111.888 142.508H111.515C108.305 147.704 102.558 151.186 96.0014 151.186C89.445 151.186 83.6979 147.704 80.4788 142.499C79.2421 142.454 78.0963 141.837 77.387 140.821L76.1503 139.062C76.0048 138.844 75.7593 138.718 75.4956 138.718H74.7681C74.3953 138.718 74.077 138.464 73.9861 138.11L72.1401 133.812L71.8764 132.742L71.8491 132.615C71.7218 132.107 72.1037 131.626 72.6311 131.626H74.2316V129.359H74.7317V127.618H78.5874C80.8789 120.209 87.8082 114.814 95.9923 114.814C104.176 114.814 110.478 119.756 113.061 126.666H113.161V121.297C113.161 120.98 113.534 120.726 113.997 120.726H116.207C116.598 120.726 116.935 120.908 117.026 121.17L118.89 126.666H119.372C119.99 126.666 120.372 127.328 120.072 127.863L120.063 127.854Z" fill="#37474F"/>
<path d="M82.9069 129.377H82.9524V131.626H94.9649L96.7745 129.822H84.762V129.377C84.762 128.38 83.9527 127.573 82.9524 127.573H82.5341C82.2976 128.153 82.0885 128.752 81.9248 129.368H82.8978V129.386L82.9069 129.377Z" fill="#37474F"/>
<path d="M105.113 144.24C105.768 143.714 106.386 143.143 106.941 142.508H89.2813L87.5444 144.24H105.122H105.113Z" fill="#37474F"/>
<path d="M106.841 129.822H102.003L100.193 131.626H107.241C107.45 131.626 107.659 131.545 107.805 131.39L110.014 129.187C109.842 128.552 109.605 127.935 109.35 127.328L106.841 129.822Z" fill="#37474F"/>
<path d="M72.1311 133.812L73.9771 138.11C74.068 138.464 74.3863 138.718 74.7591 138.718H75.4866C75.7503 138.718 75.9958 138.844 76.1413 139.062L77.378 140.821C78.0873 141.837 79.2331 142.454 80.4698 142.499C78.8967 139.951 77.9327 136.985 77.7963 133.812H72.1311Z" fill="#F77152"/>
<path d="M81.479 133.812C81.479 133.948 81.479 134.084 81.4972 134.22C81.7063 136.713 82.5793 139.117 83.9979 141.193C84.1798 141.465 84.3707 141.728 84.5799 141.991L92.7731 133.821H81.479V133.812Z" fill="#F77152"/>
<path d="M94.9649 131.626H81.5156C81.4702 132.08 81.4429 132.533 81.4429 132.995C81.4429 133.268 81.4611 133.54 81.4792 133.812H92.7734L94.9649 131.626Z" fill="#4F4543"/>
<path d="M119.363 126.666H112.879C112.67 126.666 112.461 126.747 112.315 126.902L110.014 129.196L107.805 131.399C107.65 131.554 107.45 131.635 107.241 131.635H100.193L98.002 133.821H116.653L117.262 132.751L120.054 127.863C120.363 127.328 119.972 126.666 119.353 126.666H119.363Z" fill="#4F4543"/>
<path d="M77.7508 132.995C77.7508 132.533 77.7872 132.08 77.8235 131.626H72.613C72.0946 131.626 71.7127 132.116 71.8309 132.615L71.8582 132.742L72.1219 133.812H77.7872C77.7781 133.54 77.7417 133.277 77.7417 132.995H77.7508Z" fill="#4F4543"/>
<path d="M117.025 121.17C116.934 120.907 116.598 120.726 116.207 120.726H113.997C113.533 120.726 113.161 120.98 113.161 121.297V126.666H118.89L117.025 121.17Z" fill="#DDDDDD"/>
<path d="M82.9066 129.377V129.359H81.9336C81.7427 130.094 81.5972 130.846 81.5244 131.626H82.9157V129.377H82.9066Z" fill="#DDDDDD"/>
<path d="M78.5692 127.618H74.7135V129.359H74.2134V131.626H77.8235C77.9235 130.239 78.169 128.897 78.5692 127.618Z" fill="#DDDDDD"/>
<path d="M110.487 133.812H98.0019L89.2812 142.508H111.879C113.243 142.508 113.597 140.613 112.97 139.597C112.87 139.434 112.742 139.289 112.588 139.189C112.251 138.953 112.151 138.5 112.351 138.146L113.861 136.623L116.653 133.812H110.487Z" fill="#F77152"/>
</g>
</g>
<path d="M143.596 112.065L125 118L125 130L144.538 113.787C145.384 113.086 144.643 111.731 143.596 112.065Z" fill="#02A39E"/>
<rect x="207" y="89.7787" width="120" height="54" rx="8" fill="black" fill-opacity="0.6"/>
<path d="M218.094 111.779V101.88H224.096V102.974H219.324V106.283H223.781V107.363H219.324V110.685H224.164V111.779H218.094ZM230.076 108.73V104.355H231.238V111.779H230.076V110.521H229.994C229.639 111.273 228.914 111.874 227.793 111.874C226.385 111.874 225.387 110.958 225.387 109.072V104.355H226.562V108.99C226.562 110.056 227.232 110.74 228.176 110.74C229.01 110.74 230.076 110.111 230.076 108.73ZM232.625 111.779V104.355H233.76V105.49H233.842C234.115 104.738 234.881 104.232 235.756 104.232C235.934 104.232 236.234 104.246 236.371 104.259V105.449C236.289 105.421 235.961 105.367 235.66 105.367C234.594 105.367 233.801 106.105 233.801 107.103V111.779H232.625ZM239.809 111.929C237.785 111.929 236.418 110.412 236.418 108.101C236.418 105.79 237.785 104.259 239.809 104.259C241.818 104.259 243.172 105.79 243.172 108.101C243.172 110.412 241.818 111.929 239.809 111.929ZM239.809 110.89C241.299 110.89 241.996 109.578 241.996 108.101C241.996 106.624 241.299 105.298 239.809 105.298C238.291 105.298 237.594 106.624 237.594 108.101C237.594 109.578 238.291 110.89 239.809 110.89ZM244.217 114.568V104.355H245.352V105.531H245.488C245.734 105.134 246.199 104.259 247.635 104.259C249.494 104.259 250.793 105.736 250.793 108.087C250.793 110.439 249.494 111.929 247.648 111.929C246.227 111.929 245.734 111.054 245.488 110.644H245.393V114.568H244.217ZM245.365 108.06C245.365 109.728 246.117 110.876 247.484 110.876C248.893 110.876 249.617 109.646 249.617 108.06C249.617 106.515 248.906 105.312 247.484 105.312C246.09 105.312 245.365 106.419 245.365 108.06ZM254.941 111.929C252.795 111.929 251.469 110.412 251.469 108.128C251.469 105.845 252.809 104.259 254.832 104.259C256.391 104.259 258.031 105.216 258.031 107.964V108.456H252.645C252.699 110.029 253.615 110.89 254.941 110.89C255.83 110.89 256.391 110.507 256.664 110.042H257.922C257.566 111.164 256.473 111.929 254.941 111.929ZM252.658 107.458H256.842C256.842 106.214 256.049 105.298 254.832 105.298C253.547 105.298 252.727 106.31 252.658 107.458ZM265.316 104.355V105.339H263.758V109.646C263.758 110.603 264.223 110.753 264.729 110.753C264.947 110.753 265.248 110.74 265.426 110.726V111.82C265.248 111.847 264.947 111.874 264.605 111.874C263.621 111.874 262.568 111.259 262.568 109.947V105.339H261.447V104.355H262.568V102.578H263.758V104.355H265.316ZM269.287 111.929C267.264 111.929 265.896 110.412 265.896 108.101C265.896 105.79 267.264 104.259 269.287 104.259C271.297 104.259 272.65 105.79 272.65 108.101C272.65 110.412 271.297 111.929 269.287 111.929ZM269.287 110.89C270.777 110.89 271.475 109.578 271.475 108.101C271.475 106.624 270.777 105.298 269.287 105.298C267.77 105.298 267.072 106.624 267.072 108.101C267.072 109.578 267.77 110.89 269.287 110.89ZM280.838 106.283C280.674 105.667 280.209 105.257 279.334 105.257C278.418 105.257 277.762 105.749 277.762 106.378C277.762 106.871 278.158 107.212 279.033 107.417L280.141 107.691C281.467 108.005 282.123 108.662 282.123 109.701C282.123 110.986 281.07 111.929 279.211 111.929C277.543 111.929 276.545 111.191 276.354 109.837H277.584C277.721 110.562 278.254 110.904 279.184 110.904C280.236 110.904 280.906 110.466 280.906 109.769C280.906 109.249 280.537 108.894 279.689 108.703L278.568 108.443C277.27 108.142 276.586 107.431 276.586 106.447C276.586 105.175 277.693 104.259 279.334 104.259C280.865 104.259 281.836 105.08 281.986 106.283H280.838ZM286.271 111.929C284.125 111.929 282.799 110.412 282.799 108.128C282.799 105.845 284.139 104.259 286.162 104.259C287.721 104.259 289.361 105.216 289.361 107.964V108.456H283.975C284.029 110.029 284.945 110.89 286.271 110.89C287.16 110.89 287.721 110.507 287.994 110.042H289.252C288.896 111.164 287.803 111.929 286.271 111.929ZM283.988 107.458H288.172C288.172 106.214 287.379 105.298 286.162 105.298C284.877 105.298 284.057 106.31 283.988 107.458ZM291.568 107.322V111.779H290.393V104.355H291.527V105.517H291.623C291.979 104.765 292.662 104.259 293.797 104.259C295.301 104.259 296.299 105.175 296.299 107.062V111.779H295.123V107.144C295.123 105.996 294.494 105.312 293.441 105.312C292.361 105.312 291.568 106.037 291.568 107.322ZM300.488 111.929C298.643 111.929 297.33 110.439 297.33 108.087C297.33 105.736 298.643 104.259 300.502 104.259C301.938 104.259 302.402 105.134 302.648 105.531H302.73V101.88H303.92V111.779H302.771V110.644H302.648C302.389 111.054 301.91 111.929 300.488 111.929ZM300.652 110.876C302.006 110.876 302.771 109.728 302.771 108.06C302.771 106.419 302.033 105.312 300.652 105.312C299.23 105.312 298.52 106.515 298.52 108.06C298.52 109.646 299.244 110.876 300.652 110.876ZM222.072 126.283C221.908 125.667 221.443 125.257 220.568 125.257C219.652 125.257 218.996 125.749 218.996 126.378C218.996 126.871 219.393 127.212 220.268 127.417L221.375 127.691C222.701 128.005 223.357 128.662 223.357 129.701C223.357 130.986 222.305 131.929 220.445 131.929C218.777 131.929 217.779 131.191 217.588 129.837H218.818C218.955 130.562 219.488 130.904 220.418 130.904C221.471 130.904 222.141 130.466 222.141 129.769C222.141 129.249 221.771 128.894 220.924 128.703L219.803 128.443C218.504 128.142 217.82 127.431 217.82 126.447C217.82 125.175 218.928 124.259 220.568 124.259C222.1 124.259 223.07 125.08 223.221 126.283H222.072ZM225.564 127.322V131.779H224.389V121.88H225.564V125.517H225.66C226.002 124.751 226.672 124.259 227.848 124.259C229.365 124.259 230.377 125.162 230.377 127.062V131.779H229.201V127.144C229.201 125.982 228.559 125.312 227.492 125.312C226.385 125.312 225.564 126.037 225.564 127.322ZM231.764 131.779V124.355H232.939V131.779H231.764ZM232.352 123.124C231.9 123.124 231.531 122.783 231.531 122.345C231.531 121.908 231.9 121.566 232.352 121.566C232.803 121.566 233.186 121.908 233.186 122.345C233.186 122.783 232.803 123.124 232.352 123.124ZM234.312 134.568V124.355H235.447V125.531H235.584C235.83 125.134 236.295 124.259 237.73 124.259C239.59 124.259 240.889 125.736 240.889 128.087C240.889 130.439 239.59 131.929 237.744 131.929C236.322 131.929 235.83 131.054 235.584 130.644H235.488V134.568H234.312ZM235.461 128.06C235.461 129.728 236.213 130.876 237.58 130.876C238.988 130.876 239.713 129.646 239.713 128.06C239.713 126.515 239.002 125.312 237.58 125.312C236.186 125.312 235.461 126.419 235.461 128.06ZM246.049 126.283C245.885 125.667 245.42 125.257 244.545 125.257C243.629 125.257 242.973 125.749 242.973 126.378C242.973 126.871 243.369 127.212 244.244 127.417L245.352 127.691C246.678 128.005 247.334 128.662 247.334 129.701C247.334 130.986 246.281 131.929 244.422 131.929C242.754 131.929 241.756 131.191 241.564 129.837H242.795C242.932 130.562 243.465 130.904 244.395 130.904C245.447 130.904 246.117 130.466 246.117 129.769C246.117 129.249 245.748 128.894 244.9 128.703L243.779 128.443C242.48 128.142 241.797 127.431 241.797 126.447C241.797 125.175 242.904 124.259 244.545 124.259C246.076 124.259 247.047 125.08 247.197 126.283H246.049ZM254.619 124.355V125.339H253.061V129.646C253.061 130.603 253.525 130.753 254.031 130.753C254.25 130.753 254.551 130.74 254.729 130.726V131.82C254.551 131.847 254.25 131.874 253.908 131.874C252.924 131.874 251.871 131.259 251.871 129.947V125.339H250.75V124.355H251.871V122.578H253.061V124.355H254.619ZM258.59 131.929C256.566 131.929 255.199 130.412 255.199 128.101C255.199 125.79 256.566 124.259 258.59 124.259C260.6 124.259 261.953 125.79 261.953 128.101C261.953 130.412 260.6 131.929 258.59 131.929ZM258.59 130.89C260.08 130.89 260.777 129.578 260.777 128.101C260.777 126.624 260.08 125.298 258.59 125.298C257.072 125.298 256.375 126.624 256.375 128.101C256.375 129.578 257.072 130.89 258.59 130.89ZM266.012 131.779V124.355H267.146V125.49H267.229C267.502 124.738 268.268 124.232 269.143 124.232C269.32 124.232 269.621 124.246 269.758 124.259V125.449C269.676 125.421 269.348 125.367 269.047 125.367C267.98 125.367 267.188 126.105 267.188 127.103V131.779H266.012ZM273.277 131.929C271.131 131.929 269.805 130.412 269.805 128.128C269.805 125.845 271.145 124.259 273.168 124.259C274.727 124.259 276.367 125.216 276.367 127.964V128.456H270.98C271.035 130.029 271.951 130.89 273.277 130.89C274.166 130.89 274.727 130.507 275 130.042H276.258C275.902 131.164 274.809 131.929 273.277 131.929ZM270.994 127.458H275.178C275.178 126.214 274.385 125.298 273.168 125.298C271.883 125.298 271.062 126.31 270.994 127.458ZM280.434 131.929C278.41 131.929 277.043 130.412 277.043 128.101C277.043 125.79 278.41 124.259 280.434 124.259C282.443 124.259 283.797 125.79 283.797 128.101C283.797 130.412 282.443 131.929 280.434 131.929ZM280.434 130.89C281.924 130.89 282.621 129.578 282.621 128.101C282.621 126.624 281.924 125.298 280.434 125.298C278.916 125.298 278.219 126.624 278.219 128.101C278.219 129.578 278.916 130.89 280.434 130.89ZM284.842 134.568V124.355H285.977V125.531H286.113C286.359 125.134 286.824 124.259 288.26 124.259C290.119 124.259 291.418 125.736 291.418 128.087C291.418 130.439 290.119 131.929 288.273 131.929C286.852 131.929 286.359 131.054 286.113 130.644H286.018V134.568H284.842ZM285.99 128.06C285.99 129.728 286.742 130.876 288.109 130.876C289.518 130.876 290.242 129.646 290.242 128.06C290.242 126.515 289.531 125.312 288.109 125.312C286.715 125.312 285.99 126.419 285.99 128.06ZM295.566 131.929C293.42 131.929 292.094 130.412 292.094 128.128C292.094 125.845 293.434 124.259 295.457 124.259C297.016 124.259 298.656 125.216 298.656 127.964V128.456H293.27C293.324 130.029 294.24 130.89 295.566 130.89C296.455 130.89 297.016 130.507 297.289 130.042H298.547C298.191 131.164 297.098 131.929 295.566 131.929ZM293.283 127.458H297.467C297.467 126.214 296.674 125.298 295.457 125.298C294.172 125.298 293.352 126.31 293.283 127.458ZM300.863 127.322V131.779H299.688V124.355H300.822V125.517H300.918C301.273 124.765 301.957 124.259 303.092 124.259C304.596 124.259 305.594 125.175 305.594 127.062V131.779H304.418V127.144C304.418 125.996 303.789 125.312 302.736 125.312C301.656 125.312 300.863 126.037 300.863 127.322ZM309.994 131.779V124.355H311.17V131.779H309.994ZM310.582 123.124C310.131 123.124 309.762 122.783 309.762 122.345C309.762 121.908 310.131 121.566 310.582 121.566C311.033 121.566 311.416 121.908 311.416 122.345C311.416 122.783 311.033 123.124 310.582 123.124ZM315.783 124.355V125.339H314.225V129.646C314.225 130.603 314.689 130.753 315.195 130.753C315.414 130.753 315.715 130.74 315.893 130.726V131.82C315.715 131.847 315.414 131.874 315.072 131.874C314.088 131.874 313.035 131.259 313.035 129.947V125.339H311.914V124.355H313.035V122.578H314.225V124.355H315.783ZM317.635 131.861C317.156 131.861 316.746 131.464 316.76 130.972C316.746 130.494 317.156 130.097 317.635 130.097C318.113 130.097 318.51 130.494 318.51 130.972C318.51 131.464 318.113 131.861 317.635 131.861Z" fill="white"/>
<path d="M358.567 94.0808L327 117.08L327 103.274L357.642 92.3308C358.729 91.9424 359.5 93.4008 358.567 94.0808Z" fill="black" fill-opacity="0.6"/>
<defs>
<filter id="filter0_f_416_20000" x="92" y="25" width="102" height="89" filterUnits="userSpaceOnUse" color-interpolation-filters="sRGB">
<feFlood flood-opacity="0" result="BackgroundImageFix"/>
<feBlend mode="normal" in="SourceGraphic" in2="BackgroundImageFix" result="shape"/>
<feGaussianBlur stdDeviation="1" result="effect1_foregroundBlur_416_20000"/>
</filter>
<filter id="filter1_d_416_20000" x="59" y="96" width="82" height="66" filterUnits="userSpaceOnUse" color-interpolation-filters="sRGB">
<feFlood flood-opacity="0" result="BackgroundImageFix"/>
<feColorMatrix in="SourceAlpha" type="matrix" values="0 0 0 0 0 0 0 0 0 0 0 0 0 0 0 0 0 0 127 0" result="hardAlpha"/>
<feOffset dx="4" dy="-4"/>
<feGaussianBlur stdDeviation="2"/>
<feComposite in2="hardAlpha" operator="out"/>
<feColorMatrix type="matrix" values="0 0 0 0 0 0 0 0 0 0 0 0 0 0 0 0 0 0 0.1 0"/>
<feBlend mode="normal" in2="BackgroundImageFix" result="effect1_dropShadow_416_20000"/>
<feBlend mode="normal" in="SourceGraphic" in2="effect1_dropShadow_416_20000" result="shape"/>
</filter>
<clipPath id="clip0_416_20000">
<rect width="52" height="40" fill="white" transform="translate(70 113)"/>
</clipPath>
</defs>
</svg>
