<svg width="375" height="220" viewBox="0 0 375 220" fill="none" xmlns="http://www.w3.org/2000/svg">
<path d="M225.355 183.844C221.274 164.667 221.137 144.682 221.016 127.05C220.914 111.992 220.823 98.9901 218.53 88.2131C217.144 81.6989 215.049 76.561 212.131 72.5099C209.109 68.315 205.277 65.3588 200.42 63.475L200.41 63.4709L200.4 63.4668L200.365 63.4545L200.349 63.4483L200.332 63.4421C197.723 62.4848 194.826 62 191.718 62C186.946 62 181.571 63.1607 176.167 65.3588C171.794 67.1378 167.461 69.5887 164.283 72.0826C161.336 74.3958 158.385 76.7212 155.529 78.9707L155.398 79.0755C134.634 95.4422 115.021 110.899 93.5965 124.486L91 126.134L92.6422 128.739L94.8312 132.212L96.4735 134.817L99.0699 133.17C120.939 119.299 140.751 103.686 161.725 87.1551L161.938 86.9867C164.762 84.7598 167.684 82.459 170.596 80.1725C175.598 76.2446 184.454 72.2695 191.703 72.2695C193.597 72.2695 195.305 72.5407 196.777 73.0728C210.448 78.4181 210.595 99.9104 210.782 127.116C210.906 145.241 211.046 165.784 215.346 185.986L215.987 189L218.991 188.357L222.996 187.5L226 186.857L225.359 183.844H225.355Z" fill="url(#paint0_radial_416_19720)"/>
<path d="M92.9928 103.853L95.6232 107.446L94.8746 107.994L92.2442 104.401L92.9928 103.853ZM89.5384 111.186C91.0324 109.524 91.3746 108.057 90.7303 106.937L88.2993 108.717L87.8494 108.102L91.1038 105.72C92.4555 107.574 92.0506 109.559 90.2583 111.591L89.5384 111.186ZM91.6452 111.75L91.2126 111.159L95.8539 107.761L97.1518 109.534L93.2748 112.372L93.7998 113.089L97.9131 110.078L98.3457 110.669L93.4917 114.223L92.1246 112.355L95.9936 109.523L95.5379 108.9L91.6452 111.75ZM99.7973 98.8718L104.977 105.948L104.229 106.496L99.0487 99.4198L99.7973 98.8718ZM96.3924 105.975C95.2878 104.466 95.3444 102.948 96.4093 102.163C97.4602 101.4 98.9362 101.796 100.041 103.305C101.157 104.829 101.088 106.356 100.038 107.119C98.9727 107.905 97.5086 107.5 96.3924 105.975ZM97.1173 105.445C97.9354 106.57 98.8893 106.931 99.5473 106.45C100.193 105.977 100.138 104.958 99.3159 103.835C98.5054 102.728 97.5486 102.364 96.8996 102.833C96.2445 103.318 96.303 104.34 97.1173 105.445ZM109.875 93.0799L110.325 93.6945L109.324 94.4271L109.982 95.3254L110.983 94.5929L111.444 95.2233L110.443 95.9558L111.182 96.9645L110.433 97.5125L107.37 93.3282L108.119 92.7802L108.874 93.8125L109.875 93.0799ZM104.216 98.8564C103.484 97.8733 103.778 96.5875 104.857 95.7973C105.941 95.0041 107.243 95.1218 107.975 96.1049C108.697 97.1075 108.409 98.3767 107.326 99.1699C106.246 99.9601 104.938 99.859 104.216 98.8564ZM104.949 98.32C105.405 98.9601 106.203 99.024 106.859 98.5316C107.526 98.0549 107.702 97.2786 107.242 96.6414C106.777 96.0139 105.989 95.9549 105.324 96.4355C104.665 96.924 104.48 97.6954 104.949 98.32ZM107.192 101.301L106.748 100.695L111.413 97.2797L113.287 99.8406L112.539 100.389L111.108 98.4344L107.192 101.301ZM114.105 89.4508L118.282 95.1559L117.407 95.7961L113.865 90.9578L113.834 90.9809L113.122 92.8693L112.517 92.0419L113.254 90.0737L114.105 89.4508ZM121.692 92.7801C120.631 93.5452 119.069 93.7263 117.526 91.6184C116.076 89.6298 116.105 87.8663 117.472 86.8655C118.524 86.0954 119.731 86.2159 120.529 87.024L119.67 87.6528C119.215 87.2715 118.604 87.2048 118.026 87.622C117.146 88.272 117.193 89.4113 118.136 90.6996L118.199 90.6535C118.156 89.941 118.484 89.2651 119.1 88.8084C120.119 88.0682 121.51 88.2484 122.309 89.3398C123.119 90.4469 122.924 91.891 121.692 92.7801ZM119.064 91.7515C119.532 92.3829 120.45 92.5704 121.154 92.0609C121.841 91.5522 121.964 90.6386 121.477 89.9727C120.998 89.3187 120.112 89.1502 119.43 89.656C118.729 90.1625 118.607 91.1114 119.064 91.7515ZM122.427 83.3592L126.603 89.0642L125.729 89.7045L122.187 84.8662L122.155 84.8893L121.444 86.7777L120.838 85.9503L121.576 83.9821L122.427 83.3592ZM127.9 88.1152L123.723 82.4102L124.567 81.7929L126.932 85.0237L127.002 84.9718L127.376 81.9271L128.384 81.1888L127.999 84.2909L131.635 85.381L130.603 86.1367L127.741 85.2782L127.63 85.9772L128.743 87.498L127.9 88.1152ZM132.017 85.1012L128.885 80.8223L129.697 80.2282L130.21 80.9295L130.257 80.8949C130.089 80.2855 130.306 79.6972 130.87 79.2847C131.441 78.8665 132.044 78.855 132.574 79.199L132.621 79.1644C132.485 78.5563 132.733 77.9205 133.352 77.4677C134.124 76.9024 135.026 76.9861 135.749 77.9643L137.848 80.8326L137.005 81.4498L134.963 78.6603C134.539 78.0811 134.001 78.1061 133.559 78.4292C133.02 78.8243 132.98 79.4225 133.354 79.9347L135.35 82.6611L134.515 83.2726L132.438 80.4358C132.095 79.967 131.554 79.8972 131.093 80.2346C130.62 80.5807 130.507 81.2689 130.928 81.8442L132.86 84.4839L132.017 85.1012ZM137.285 77.9048C136.205 76.4137 135.724 74.8719 135.688 73.2766L136.46 72.7113C136.487 73.8895 137.13 75.858 138.159 77.2645C139.192 78.6751 140.874 79.8822 141.992 80.2682L141.22 80.8335C139.707 80.313 138.383 79.3884 137.285 77.9048ZM139.409 70.9279L143.585 76.633L142.711 77.2733L139.169 72.435L139.137 72.4581L138.426 74.3464L137.82 73.519L138.558 71.5509L139.409 70.9279ZM146.917 74.3149C145.597 75.2811 144.042 74.7855 142.675 72.918C141.317 71.0622 141.313 69.4127 142.625 68.4523C143.934 67.4947 145.505 67.9964 146.867 69.8492C148.231 71.7196 148.237 73.3487 146.917 74.3149ZM143.542 72.2835C144.579 73.7087 145.597 74.1316 146.369 73.5663C147.137 73.0039 147.042 71.9061 146.001 70.4837C144.962 69.0653 143.929 68.6295 143.162 69.1851C142.397 69.7514 142.504 70.8651 143.542 72.2835ZM151.736 70.7875C150.416 71.7537 148.861 71.2581 147.494 69.3905C146.136 67.5348 146.132 65.8852 147.444 64.9248C148.752 63.9672 150.324 64.4689 151.686 66.3218C153.049 68.1922 153.056 69.8213 151.736 70.7875ZM148.361 68.756C149.398 70.1812 150.416 70.6042 151.188 70.0389C151.956 69.4765 151.861 68.3786 150.819 66.9563C149.781 65.5379 148.748 65.102 147.981 65.6576C147.215 66.224 147.322 67.3376 148.361 68.756ZM153.672 60.5113L157.029 65.0974L153.727 67.5143L150.37 62.9282L153.672 60.5113ZM154.016 66.3711L155.844 65.0329L153.364 61.6445L151.536 62.9828L154.016 66.3711ZM159.509 66.0051L154.34 58.9447L155.089 58.3967L157.114 61.1626L158.248 60.3319L158.71 60.9623L157.575 61.793L160.257 65.4571L159.509 66.0051ZM158.576 56.2074C159.645 55.4366 160.905 55.5127 161.587 56.4357C162.264 57.3684 161.953 58.5885 160.889 59.3673C159.813 60.1546 158.56 60.0796 157.876 59.1526C157.202 58.2238 157.506 57.0027 158.576 56.2074ZM158.608 58.6161C159.031 59.2021 159.795 59.2364 160.445 58.7605C161.091 58.2875 161.289 57.5495 160.862 56.9664C160.441 56.3912 159.678 56.3569 159.037 56.8378C158.381 57.3058 158.183 58.0438 158.608 58.6161ZM160.92 61.0631L160.482 60.4642L165.123 57.0666L166.426 58.8475L162.534 61.6971L163.03 62.3747L167.159 59.3521L167.597 59.951L162.743 63.5043L161.399 61.6683L165.276 58.8302L164.821 58.2077L160.92 61.0631ZM164.138 57.2915L161.507 53.6983L162.256 53.1503L164.886 56.7435L164.138 57.2915ZM168.238 55.2461C169.32 56.7412 169.802 58.283 169.841 59.8822L169.068 60.4475C169.038 59.2654 168.396 57.2969 167.363 55.8864C166.334 54.4798 164.651 53.2727 163.537 52.8906L164.309 52.3253C165.819 52.8419 167.143 53.7665 168.238 55.2461Z" fill="#191414"/>
<g filter="url(#filter0_d_416_19720)">
<path d="M188.181 88.9733L186.637 88.3854L186.309 89.2495L184 88.3736L185.053 94.8802L190.162 90.7156L187.853 89.8374L188.181 88.9733Z" fill="#02A39E"/>
<path d="M207.599 33.2405L206.289 36.6876L207.833 37.2747L209.143 33.8276L207.599 33.2405Z" fill="#02A39E"/>
<path d="M204.978 40.134L203.668 43.5811L205.213 44.1682L206.523 40.7211L204.978 40.134Z" fill="#02A39E"/>
<path d="M199.738 53.9178L198.428 57.3649L199.973 57.952L201.283 54.505L199.738 53.9178Z" fill="#02A39E"/>
<path d="M197.118 60.8108L195.808 64.2579L197.353 64.845L198.663 61.3979L197.118 60.8108Z" fill="#02A39E"/>
<path d="M210.218 26.3521L208.908 29.7992L210.453 30.3863L211.763 26.9392L210.218 26.3521Z" fill="#02A39E"/>
<path d="M202.358 47.0267L201.048 50.4738L202.593 51.0609L203.903 47.6138L202.358 47.0267Z" fill="#02A39E"/>
<path d="M191.88 74.598L190.57 78.0451L192.115 78.6322L193.425 75.1851L191.88 74.598Z" fill="#02A39E"/>
<path d="M194.498 67.7045L193.188 71.1516L194.733 71.7388L196.043 68.2917L194.498 67.7045Z" fill="#02A39E"/>
<path d="M189.259 81.4864L187.949 84.9335L189.494 85.5206L190.804 82.0735L189.259 81.4864Z" fill="#02A39E"/>
<path d="M215.711 23.5065L214.658 17L209.549 21.1646L211.858 22.0428L211.53 22.9069L213.074 23.4924L213.402 22.6283L215.711 23.5065Z" fill="#02A39E"/>
</g>
<path d="M237 67.5C237.276 67.5 237.5 67.2761 237.5 67C237.5 66.7239 237.276 66.5 237 66.5V67V67.5ZM201.333 47C201.333 48.4728 202.527 49.6667 204 49.6667C205.473 49.6667 206.667 48.4728 206.667 47C206.667 45.5272 205.473 44.3333 204 44.3333C202.527 44.3333 201.333 45.5272 201.333 47ZM225.212 66.7322L225.553 66.3661L225.212 66.7322ZM237 67V66.5H225.893V67V67.5H237V67ZM225.212 66.7322L225.553 66.3661L204.341 46.6339L204 47L203.659 47.3661L224.872 67.0983L225.212 66.7322ZM225.893 67V66.5C225.767 66.5 225.645 66.4522 225.553 66.3661L225.212 66.7322L224.872 67.0983C225.149 67.3565 225.514 67.5 225.893 67.5V67Z" fill="#02A39E"/>
<g filter="url(#filter1_d_416_19720)">
<rect x="237" y="44" width="115" height="46" rx="8" fill="#02A39E" shape-rendering="crispEdges"/>
<rect x="236.5" y="43.5" width="116" height="47" rx="8.5" stroke="#02A39E" shape-rendering="crispEdges"/>
<path d="M256.994 50.9121V55.793H258.895V56.873H256.994V63.1484H255.695V50.9121H256.994ZM247.465 59.8809C250.534 58.3496 252.202 56.1348 252.469 53.2773H248.08V52.1973H253.795C253.781 55.7383 252.223 58.9033 248.189 60.8926L247.465 59.8809ZM263.774 53.168C263.767 54.7266 264.854 56.1484 266.714 56.7363L266.098 57.748C264.704 57.3037 263.685 56.3809 263.145 55.2188C262.612 56.5586 261.539 57.6182 260.069 58.1309L259.399 57.0918C261.313 56.4629 262.468 54.8838 262.475 53.1816V52.8398H259.782V51.7871H266.413V52.8398H263.774V53.168ZM261.053 60.8379C261.053 59.4023 262.619 58.5615 265.169 58.5684C267.691 58.5615 269.229 59.4023 269.229 60.8379C269.229 62.2939 267.691 63.1416 265.169 63.1348C262.619 63.1416 261.053 62.2939 261.053 60.8379ZM262.352 60.8379C262.345 61.6582 263.398 62.1162 265.169 62.1094C266.925 62.1162 267.965 61.6582 267.958 60.8379C267.965 60.0381 266.925 59.5869 265.169 59.5938C263.398 59.5869 262.345 60.0381 262.352 60.8379ZM267.821 58.2676V50.9121H269.12V53.9473H270.897V55.0137H269.12V58.2676H267.821ZM285.072 51.3359V52.375H281.36C281.579 53.5166 283.309 54.46 285.51 54.6719L285.045 55.6973C282.919 55.4648 281.155 54.5898 280.485 53.3047C279.809 54.5898 278.052 55.4648 275.926 55.6973L275.461 54.6719C277.655 54.46 279.378 53.5098 279.597 52.375H275.926V51.3359H285.072ZM274.9 57.707V56.6406H279.836V55.041H281.121V56.6406H286.07V57.707H274.9ZM276.281 63.0117V58.4043H277.566V59.6074H283.35V58.4043H284.635V63.0117H276.281ZM277.566 61.959H283.35V60.6191H277.566V61.959ZM298.114 57.3105V58.3496H286.944V57.3105H298.114ZM288.147 53.7695C288.14 52.2314 289.856 51.3154 292.522 51.3223C295.174 51.3154 296.89 52.2314 296.897 53.7695C296.89 55.3145 295.174 56.251 292.522 56.2578C289.856 56.251 288.14 55.3145 288.147 53.7695ZM288.352 62.9023V59.3477H289.665V61.8496H296.856V62.9023H288.352ZM289.487 53.7695C289.48 54.6787 290.642 55.1914 292.522 55.1914C294.395 55.1914 295.564 54.6787 295.557 53.7695C295.564 52.8945 294.395 52.3613 292.522 52.3613C290.642 52.3613 289.48 52.8945 289.487 53.7695ZM312.111 51.5V52.3887C312.118 53.3252 312.118 54.3848 311.81 55.8066L310.525 55.6699C310.812 54.3438 310.826 53.3936 310.826 52.5254L303.662 52.5254V51.5L312.111 51.5ZM302.363 57.625V56.5859H306.834V54.1797H308.105V56.5859H313.506V57.625L302.363 57.625ZM303.129 62.0957C305.501 61.7744 307.224 60.5303 307.23 59.0195V58.5273L308.543 58.5273V59.0195C308.536 60.5303 310.259 61.7744 312.672 62.0957L312.18 63.1074C310.245 62.8135 308.639 61.959 307.887 60.7012C307.128 61.959 305.521 62.8135 303.594 63.1074L303.129 62.0957ZM318.385 51.7871C320.32 51.7803 321.714 52.9766 321.721 54.6992C321.714 56.4219 320.32 57.6182 318.385 57.625C316.458 57.6182 315.043 56.4219 315.049 54.6992C315.043 52.9766 316.458 51.7803 318.385 51.7871ZM314.462 59.4707C316.69 59.4707 319.78 59.4502 322.46 59.0605L322.555 60.0039C319.787 60.5371 316.813 60.5508 314.626 60.5508L314.462 59.4707ZM316.335 54.6992C316.321 55.7861 317.196 56.4902 318.385 56.4902C319.575 56.4902 320.45 55.7861 320.45 54.6992C320.45 53.626 319.575 52.9082 318.385 52.9082C317.196 52.9082 316.321 53.626 316.335 54.6992ZM323.225 63.1895V50.9121H324.524V63.1895H323.225ZM339.916 51.3359V52.4023H338.139V54.8633H339.861V55.8887H336.019V57.2559H340.969V58.3086H329.799V57.2559H334.734V55.8887H330.879V54.8633H332.615V52.4023H330.824V51.3359H339.916ZM331.043 60.4551V59.4023H339.601V63.1621H338.289V60.4551H331.043ZM333.9 54.8633H336.84V52.4023H333.9V54.8633ZM251.389 81.1367C249.338 81.1367 247.882 80.0361 247.82 78.416H249.352C249.406 79.2842 250.268 79.8379 251.375 79.8379C252.571 79.8379 253.439 79.1885 253.439 78.2246C253.439 77.2471 252.626 76.5498 251.211 76.543H250.363V75.3125H251.211C252.339 75.3193 253.125 74.6904 253.125 73.7402C253.125 72.8379 252.448 72.2227 251.402 72.2227C250.411 72.2227 249.522 72.7764 249.488 73.6719H248.039C248.08 72.0586 249.57 70.9648 251.416 70.9648C253.364 70.9648 254.588 72.1953 254.574 73.6582C254.588 74.7861 253.891 75.5928 252.824 75.8594V75.9277C254.178 76.1191 254.964 77.0283 254.957 78.2793C254.964 79.9268 253.439 81.1367 251.389 81.1367ZM256.337 79.0723V77.8555L260.712 71.1016H262.571V77.8008H263.924V79.0723H262.571V81H261.149V79.0723H256.337ZM257.923 77.8008H261.149V72.8926H261.04L257.923 77.7188V77.8008ZM265.4 81V71.1016H266.863V76.707H266.986L269.925 73.5762H271.675L268.674 76.7617L271.88 81H270.089L267.567 77.6641L266.863 78.3613V81H265.4ZM272.768 81V73.5762H274.176V74.793H274.258C274.572 73.9658 275.304 73.4805 276.281 73.4805C277.272 73.4805 277.963 73.9658 278.277 74.793H278.359C278.708 73.9932 279.515 73.4805 280.588 73.4805C281.928 73.4805 282.878 74.3213 282.885 76.0234V81H281.422V76.1602C281.422 75.1553 280.793 74.7383 280.027 74.7383C279.091 74.7383 278.551 75.3809 278.551 76.2695V81H277.102V76.0781C277.102 75.2646 276.548 74.7383 275.748 74.7383C274.928 74.7383 274.23 75.4219 274.23 76.4199V81H272.768Z" fill="white"/>
</g>
<path d="M80.7383 185.734C82.0469 185.739 82.9795 186.931 82.9844 188.801C82.9795 190.69 82.0469 191.882 80.7383 191.877C79.4297 191.882 78.4971 190.69 78.502 188.801C78.4971 186.931 79.4297 185.739 80.7383 185.734ZM79.3906 188.801C79.3857 190.192 79.9424 191.047 80.7383 191.047C81.5488 191.047 82.0957 190.192 82.0957 188.801C82.0957 187.429 81.5488 186.569 80.7383 186.564C79.9424 186.569 79.3857 187.429 79.3906 188.801ZM84.2832 193.83V185.08H85.2109V188.508H86.6172V189.289H85.2109V193.83H84.2832ZM93.7121 185.09V187.131H94.9914V187.912H93.7121V189.914H92.7844V185.09H93.7121ZM87.1887 186.262V185.5H91.173V187.922H88.1262V188.977C89.6447 188.962 90.7189 188.918 91.9934 188.684L92.091 189.445C90.7385 189.68 89.5813 189.733 87.9016 189.738H87.1984V187.209H90.2648V186.262H87.1887ZM88.1164 193.723V190.285H89.0344V191.271H92.7844V190.285H93.7121V193.723H88.1164ZM89.0344 192.971H92.7844V192.004H89.0344V192.971ZM102.809 185.08V193.83H101.92V185.08H102.809ZM95.3773 188.859C95.3773 186.965 96.1195 185.778 97.2621 185.783C98.3266 185.778 99.0443 186.789 99.1518 188.43H100.143V185.246H101.032V193.4H100.143V189.182H99.1566C99.0736 190.891 98.3461 191.95 97.2621 191.945C96.1195 191.95 95.3773 190.759 95.3773 188.859ZM96.2367 188.859C96.2367 190.251 96.6322 191.071 97.2621 191.066C97.9066 191.071 98.307 190.251 98.307 188.859C98.307 187.463 97.9066 186.647 97.2621 186.652C96.6322 186.647 96.2367 187.463 96.2367 188.859ZM108.312 185.92V191.672H104.211V185.92H108.312ZM105.129 190.92H107.414V186.652H105.129V190.92ZM110.041 193.85V185.08H110.968V193.85H110.041ZM119.43 185.08V193.85H118.503V185.08H119.43ZM112.653 186.623V185.871H116.755V189.064H113.61V190.979C115.031 190.974 116.266 190.905 117.731 190.666L117.819 191.428C116.271 191.687 114.953 191.745 113.405 191.75H112.663V188.322H115.807V186.623H112.653ZM127.707 189.738V190.48H121.613V185.803H127.619V186.555H122.551V187.736H127.434V188.469H122.551V189.738H127.707ZM120.607 192.727V191.965H128.615V192.727H120.607ZM91.4244 205.305C91.4342 203.464 91.9566 201.936 92.8697 200.627H93.8268C93.1529 201.594 92.5084 203.562 92.5084 205.305C92.5084 207.053 93.1529 209.021 93.8268 209.992H92.8697C91.9566 208.679 91.4342 207.15 91.4244 205.305ZM99.2127 200.93H100.287V205.578C100.292 207.062 99.1736 208.117 97.4842 208.117C95.7801 208.117 94.6668 207.062 94.6717 205.578V200.93H95.7459V205.49C95.741 206.447 96.41 207.136 97.4842 207.141C98.5535 207.136 99.2127 206.447 99.2127 205.49V200.93ZM102.138 208H100.995L103.534 200.93H104.774L107.323 208H106.181L105.536 206.135H102.782L102.138 208ZM103.09 205.236H105.224L104.179 202.219H104.13L103.09 205.236ZM108.022 208V200.93H112.455V201.857H109.096V203.996H112.221V204.914H109.096V207.072H112.494V208H108.022ZM115.576 205.305C115.566 207.15 115.043 208.679 114.13 209.992H113.173C113.847 209.021 114.492 207.053 114.492 205.305C114.492 203.562 113.847 201.594 113.173 200.627H114.13C115.043 201.936 115.566 203.464 115.576 205.305Z" fill="#191414"/>
<defs>
<filter id="filter0_d_416_19720" x="180" y="13" width="39.7112" height="85.8802" filterUnits="userSpaceOnUse" color-interpolation-filters="sRGB">
<feFlood flood-opacity="0" result="BackgroundImageFix"/>
<feColorMatrix in="SourceAlpha" type="matrix" values="0 0 0 0 0 0 0 0 0 0 0 0 0 0 0 0 0 0 127 0" result="hardAlpha"/>
<feOffset/>
<feGaussianBlur stdDeviation="2"/>
<feComposite in2="hardAlpha" operator="out"/>
<feColorMatrix type="matrix" values="0 0 0 0 1 0 0 0 0 1 0 0 0 0 1 0 0 0 0.6 0"/>
<feBlend mode="normal" in2="BackgroundImageFix" result="effect1_dropShadow_416_19720"/>
<feBlend mode="normal" in="SourceGraphic" in2="effect1_dropShadow_416_19720" result="shape"/>
</filter>
<filter id="filter1_d_416_19720" x="236" y="35" width="125" height="56" filterUnits="userSpaceOnUse" color-interpolation-filters="sRGB">
<feFlood flood-opacity="0" result="BackgroundImageFix"/>
<feColorMatrix in="SourceAlpha" type="matrix" values="0 0 0 0 0 0 0 0 0 0 0 0 0 0 0 0 0 0 127 0" result="hardAlpha"/>
<feOffset dx="4" dy="-4"/>
<feGaussianBlur stdDeviation="2"/>
<feComposite in2="hardAlpha" operator="out"/>
<feColorMatrix type="matrix" values="0 0 0 0 0 0 0 0 0 0 0 0 0 0 0 0 0 0 0.1 0"/>
<feBlend mode="normal" in2="BackgroundImageFix" result="effect1_dropShadow_416_19720"/>
<feBlend mode="normal" in="SourceGraphic" in2="effect1_dropShadow_416_19720" result="shape"/>
</filter>
<radialGradient id="paint0_radial_416_19720" cx="0" cy="0" r="1" gradientUnits="userSpaceOnUse" gradientTransform="translate(201.667 67.068) scale(126.498 126.908)">
<stop stop-color="#FF8474"/>
<stop offset="1" stop-color="#FF8474" stop-opacity="0"/>
</radialGradient>
</defs>
</svg>
