<svg width="375" height="220" viewBox="0 0 375 220" fill="none" xmlns="http://www.w3.org/2000/svg">
<path opacity="0.3" d="M273.108 169.396C275.703 169.744 277.426 171.274 277.171 173.212C276.933 175.029 275.187 176.033 272.899 175.919L272.586 178.305L277.533 178.955L277.393 180.026L266.277 178.565L266.418 177.494L271.312 178.137L271.625 175.751C269.399 175.273 267.966 173.85 268.211 172.035C268.459 170.095 270.525 169.064 273.108 169.396ZM269.458 172.199C269.279 173.561 270.523 174.586 272.392 174.846C274.278 175.08 275.738 174.41 275.924 173.048C276.09 171.733 274.855 170.688 272.97 170.454C271.101 170.194 269.631 170.884 269.458 172.199ZM285.406 171.358L284.662 177.024L278.982 176.277L279.727 170.611L285.406 171.358ZM280.376 175.426L283.535 175.841L284.008 172.236L280.85 171.82L280.376 175.426ZM279.674 181.608L280.18 177.758L281.468 177.928L281.099 180.734L288.026 181.644L287.888 182.688L279.674 181.608ZM286.479 179.455L287.65 170.549L288.938 170.719L288.46 174.351L290.222 174.583L290.08 175.667L288.318 175.436L287.767 179.624L286.479 179.455ZM300.236 173.307L299.492 178.973L293.812 178.226L294.557 172.56L300.236 173.307ZM295.206 177.375L298.365 177.791L298.839 174.185L295.68 173.77L295.206 177.375ZM294.504 183.557L295.01 179.708L296.298 179.877L295.929 182.683L302.856 183.593L302.719 184.637L294.504 183.557ZM301.309 181.404L302.48 172.498L303.768 172.668L303.29 176.301L305.052 176.532L304.91 177.617L303.148 177.385L302.597 181.574L301.309 181.404Z" fill="#191414"/>
<path opacity="0.3" d="M129.135 125.388L125.029 136.93L123.857 136.513L127.963 124.971L129.135 125.388ZM126.763 124.835L122.96 135.526L121.801 135.114L123.767 129.588L122.324 129.075L122.713 127.98L124.156 128.493L125.604 124.422L126.763 124.835ZM124.058 125.178L123.701 126.183L122.812 125.867L120.979 131.02C121.381 131.134 121.777 131.224 122.141 131.302L121.915 132.223C119.958 131.933 117.543 131.132 116.049 130.601L116.274 129.52C116.609 129.639 116.995 129.777 117.412 129.91L119.295 124.616L118.407 124.3L118.764 123.295L124.058 125.178ZM118.524 130.291C118.948 130.428 119.384 130.568 119.818 130.694L121.678 125.464L120.403 125.01L118.524 130.291ZM137.607 138.676L137.249 139.68L126.687 135.923L127.044 134.918L137.607 138.676ZM139.26 129.948L137.977 133.554L131.202 131.144L130.601 132.832L137.647 135.338L137.299 136.317L129.042 133.38L130.344 129.722L137.119 132.132L137.696 130.509L130.895 128.089L131.248 127.098L139.26 129.948ZM144.617 134.204C143.853 136.312 144.377 138.878 145.883 140.314L144.805 141.019C143.703 139.916 143.114 138.248 143.14 136.479C141.999 137.974 140.439 138.994 138.814 139.178L138.433 137.881C140.538 137.716 142.597 135.967 143.381 133.764L144.082 131.794L145.318 132.233L144.617 134.204ZM150.982 133.16L146.867 144.727L145.643 144.292L149.758 132.724L150.982 133.16ZM161.633 136.934L160.405 140.386L162.08 140.982L161.713 142.012L160.038 141.417L158.613 145.423L157.39 144.987L160.409 136.499L161.633 136.934ZM158.452 147.426L158.099 148.418L150.293 145.641L151.613 141.931L152.837 142.367L151.87 145.085L158.452 147.426ZM155.527 135.662C157.266 136.28 158.171 137.937 157.583 139.629C156.975 141.299 155.222 142.025 153.483 141.407C151.744 140.788 150.831 139.113 151.439 137.444C152.027 135.752 153.788 135.043 155.527 135.662ZM155.146 136.731C154.09 136.355 153.005 136.796 152.637 137.87C152.244 138.934 152.807 139.962 153.863 140.337C154.933 140.718 156.005 140.272 156.386 139.203C156.766 138.134 156.216 137.111 155.146 136.731ZM172.139 141.832L170.223 147.216L164.826 145.296L166.741 139.912L172.139 141.832ZM167.587 141.33L166.368 144.757L169.369 145.824L170.588 142.398L167.587 141.33ZM175.726 141.947L174.498 145.399L176.172 145.995L175.806 147.025L174.131 146.43L172.715 150.41L171.491 149.975L174.502 141.512L175.726 141.947ZM172.545 152.439L172.192 153.431L164.386 150.654L165.687 146.996L166.911 147.431L165.962 150.098L172.545 152.439Z" fill="#191414"/>
<rect x="184.5" y="60.5" width="5" height="5" rx="2.5" fill="white" stroke="black"/>
<path d="M203.082 57.4961V68.0195H201.969V57.4961H203.082ZM194.75 61.9609C194.75 59.7168 195.881 58.2871 197.469 58.2812C199.027 58.2871 200.176 59.7168 200.176 61.9609C200.176 64.2285 199.027 65.6582 197.469 65.6523C195.881 65.6582 194.75 64.2285 194.75 61.9609ZM195.828 61.9609C195.822 63.6309 196.49 64.6562 197.469 64.6562C198.43 64.6562 199.098 63.6309 199.098 61.9609C199.098 60.3145 198.43 59.2832 197.469 59.2773C196.49 59.2832 195.822 60.3145 195.828 61.9609ZM212.768 57.5078V60.6602H214.303V61.5977H212.768V65.2305H211.655V57.5078H212.768ZM204.94 59.0898V58.1758H209.721V61.2695H206.065V62.7344C207.887 62.7344 209.176 62.6582 210.705 62.3945L210.823 63.3086C209.199 63.5898 207.811 63.6426 205.795 63.6484H204.951V60.4141H208.631V59.0898H204.94ZM206.17 67.7734V64.6328H207.295V66.8711H213.237V67.7734H206.17Z" fill="#191414"/>
<path d="M134.199 167.281C135.77 167.287 136.889 168.717 136.895 170.961C136.889 173.229 135.77 174.658 134.199 174.652C132.629 174.658 131.51 173.229 131.516 170.961C131.51 168.717 132.629 167.287 134.199 167.281ZM132.582 170.961C132.576 172.631 133.244 173.656 134.199 173.656C135.172 173.656 135.828 172.631 135.828 170.961C135.828 169.314 135.172 168.283 134.199 168.277C133.244 168.283 132.576 169.314 132.582 170.961ZM138.453 176.996V166.496H139.566V170.609H141.254V171.547H139.566V176.996H138.453ZM149.768 166.508V168.957H151.303V169.895H149.768V172.297H148.655V166.508H149.768ZM141.94 167.914V167H146.721V169.906H143.065V171.172C144.887 171.154 146.176 171.102 147.705 170.82L147.823 171.734C146.199 172.016 144.811 172.08 142.795 172.086H141.951V169.051H145.631V167.914H141.94ZM143.053 176.867V172.742H144.155V173.926H148.655V172.742H149.768V176.867H143.053ZM144.155 175.965H148.655V174.805H144.155V175.965ZM160.684 166.496V176.996H159.618V166.496H160.684ZM151.766 171.031C151.766 168.758 152.657 167.334 154.028 167.34C155.305 167.334 156.166 168.547 156.295 170.516H157.485V166.695H158.551V176.48H157.485V171.418H156.301C156.202 173.469 155.329 174.74 154.028 174.734C152.657 174.74 151.766 173.311 151.766 171.031ZM152.797 171.031C152.797 172.701 153.272 173.686 154.028 173.68C154.801 173.686 155.282 172.701 155.282 171.031C155.282 169.355 154.801 168.377 154.028 168.383C153.272 168.377 152.797 169.355 152.797 171.031ZM167.288 167.504V174.406H162.366V167.504H167.288ZM163.468 173.504H166.21V168.383H163.468V173.504ZM169.362 177.02V166.496H170.475V177.02H169.362ZM180.63 166.496V177.02H179.517V166.496H180.63ZM172.497 168.348V167.445H177.419V171.277H173.645V173.574C175.351 173.568 176.833 173.486 178.591 173.199L178.696 174.113C176.839 174.424 175.257 174.494 173.399 174.5H172.509V170.387H176.282V168.348H172.497ZM190.562 172.086V172.977H183.249V167.363H190.456V168.266H184.374V169.684H190.234V170.562H184.374V172.086H190.562ZM182.042 175.672V174.758H191.652V175.672H182.042Z" fill="#191414"/>
<rect x="197.5" y="169.5" width="5" height="5" rx="2.5" fill="white" stroke="black"/>
<rect x="228.5" y="190.5" width="5" height="5" rx="2.5" fill="white" stroke="black"/>
<path d="M243.168 188.129C245.412 188.135 247.047 189.242 247.047 190.918C247.047 192.488 245.676 193.537 243.719 193.695V195.758H247.996V196.684H238.387V195.758H242.617V193.695C240.672 193.537 239.295 192.488 239.301 190.918C239.295 189.242 240.936 188.135 243.168 188.129ZM240.379 190.918C240.379 192.096 241.551 192.828 243.168 192.84C244.797 192.828 245.963 192.096 245.969 190.918C245.963 189.781 244.797 189.031 243.168 189.043C241.551 189.031 240.379 189.781 240.379 190.918ZM253.838 188.422V193.32H248.928V188.422H253.838ZM250.018 192.441H252.748V189.324H250.018V192.441ZM250.112 197.773V194.445H251.225V196.871H257.213V197.773H250.112ZM255.655 195.184V187.484H256.768V190.625H258.291V191.562H256.768V195.184H255.655Z" fill="#191414"/>
<circle cx="234" cy="130" r="26" fill="#FF8474" fill-opacity="0.2" stroke="#02A39E" stroke-width="2" stroke-dasharray="4 4"/>
<g filter="url(#filter0_d_416_19702)">
<rect x="227" y="54" width="96" height="27" rx="8" fill="#02A39E" shape-rendering="crispEdges"/>
<rect x="226.5" y="53.5" width="97" height="28" rx="8.5" stroke="#02A39E" shape-rendering="crispEdges"/>
<path d="M248.061 62.6348V63.6875H237.984V62.6348H242.387V61.0898H243.672V62.6348H248.061ZM237.451 71.7812V70.7285H242.387V69.1084C240.24 68.9717 238.935 68.124 238.941 66.7637C238.935 65.2871 240.5 64.4189 243.029 64.4258C245.524 64.4189 247.11 65.2871 247.104 66.7637C247.11 68.124 245.791 68.9717 243.672 69.1084V70.7285H248.662V71.7812H237.451ZM240.268 66.7637C240.254 67.6182 241.279 68.083 243.029 68.0898C244.752 68.083 245.784 67.6182 245.777 66.7637C245.784 65.916 244.752 65.4512 243.029 65.4512C241.279 65.4512 240.254 65.916 240.268 66.7637ZM260.706 70.5918V71.6582H249.495V70.5918H260.706ZM250.835 62.8672V61.8145H259.339V65.6426H252.147V67.4336H259.626V68.4727H250.862V64.5898H258.053V62.8672H250.835ZM272.736 67.9395V68.9922H267.732V73.1484H266.46V68.9922H261.525V67.9395H272.736ZM262.933 66.3809V61.5684H271.327V66.3809H262.933ZM264.204 65.3691H270.029V62.6074H264.204V65.3691ZM284.793 70.5098V71.5762H273.582V70.5098H284.793ZM274.102 67.4473C276.378 67.0781 278.49 65.3828 278.49 63.5098V63.127H274.512V62.0742H283.822V63.127H279.844V63.5098C279.844 65.3828 281.97 67.0371 284.301 67.4062L283.781 68.4316C281.799 68.0625 279.974 66.9141 279.174 65.3008C278.388 66.9277 276.576 68.1104 274.635 68.4863L274.102 67.4473ZM295.044 62.9355V63.9883H288.96V62.9355H291.366V61.2676H292.652V62.9355H295.044ZM289.357 67.543C289.35 65.8955 290.471 64.7266 292.009 64.7266C293.561 64.7266 294.668 65.8955 294.675 67.543C294.668 69.2178 293.561 70.3936 292.009 70.3867C290.471 70.3936 289.35 69.2178 289.357 67.543ZM290.505 67.543C290.498 68.582 291.127 69.2793 292.009 69.2793C292.891 69.2793 293.527 68.582 293.527 67.543C293.527 66.5244 292.891 65.8135 292.009 65.8066C291.127 65.8135 290.498 66.5244 290.505 67.543ZM295.605 72.5879V61.1855H296.835V66.0117H298.243V60.9121H299.474V73.1621H298.243V67.0781H296.835V72.5879H295.605ZM307.935 62.0879V63.127H301.045V62.0879H303.916V60.8027H305.201V62.0879H307.935ZM301.728 65.8613C301.728 64.542 302.877 63.6533 304.545 63.6465C306.192 63.6533 307.368 64.542 307.375 65.8613C307.368 67.1943 306.192 68.0693 304.545 68.0762C302.877 68.0693 301.728 67.1943 301.728 65.8613ZM302.945 65.8613C302.938 66.6201 303.574 67.1055 304.545 67.1055C305.502 67.1055 306.158 66.6201 306.172 65.8613C306.158 65.1162 305.502 64.6377 304.545 64.6445C303.574 64.6377 302.938 65.1162 302.945 65.8613ZM303.178 73.0117V68.6641H304.463V69.8262H309.959V68.6641H311.244V73.0117H303.178ZM304.463 71.9863H309.959V70.8242H304.463V71.9863ZM307.963 67.1465V66.0938H309.945V64.7539H307.977V63.6875H309.945V60.9121H311.244V68.1719H309.945V67.1465H307.963Z" fill="white"/>
</g>
<path d="M276 82C276 81.4477 275.552 81 275 81C274.448 81 274 81.4477 274 82L275 82L276 82ZM255 120.333C257.946 120.333 260.333 117.946 260.333 115C260.333 112.054 257.946 109.667 255 109.667C252.054 109.667 249.667 112.054 249.667 115C249.667 117.946 252.054 120.333 255 120.333ZM274.732 93.7879L274 93.1068L274.732 93.7879ZM275 82L274 82L274 93.1068L275 93.1068L276 93.1068L276 82L275 82ZM274.732 93.7879L274 93.1068L254.268 114.319L255 115L255.732 115.681L275.464 94.469L274.732 93.7879ZM275 93.1068L274 93.1068L274 93.1068L274.732 93.7879L275.464 94.469C275.809 94.0989 276 93.6122 276 93.1068L275 93.1068Z" fill="#02A39E"/>
<defs>
<filter id="filter0_d_416_19702" x="226" y="45" width="106" height="37" filterUnits="userSpaceOnUse" color-interpolation-filters="sRGB">
<feFlood flood-opacity="0" result="BackgroundImageFix"/>
<feColorMatrix in="SourceAlpha" type="matrix" values="0 0 0 0 0 0 0 0 0 0 0 0 0 0 0 0 0 0 127 0" result="hardAlpha"/>
<feOffset dx="4" dy="-4"/>
<feGaussianBlur stdDeviation="2"/>
<feComposite in2="hardAlpha" operator="out"/>
<feColorMatrix type="matrix" values="0 0 0 0 0 0 0 0 0 0 0 0 0 0 0 0 0 0 0.1 0"/>
<feBlend mode="normal" in2="BackgroundImageFix" result="effect1_dropShadow_416_19702"/>
<feBlend mode="normal" in="SourceGraphic" in2="effect1_dropShadow_416_19702" result="shape"/>
</filter>
</defs>
</svg>
